<?xml version="1.0" encoding="UTF-8"?>
<!-- Generator: visioncortex VTracer 0.6.4 -->
<svg version="1.1" xmlns="http://www.w3.org/2000/svg" width="500" height="525">
<path d="M0,0 L40,0 L64,3 L86,8 L104,13 L124,21 L140,28 L162,41 L176,51 L182,55 L187,60 L190,61 L195,66 L197,68 L196,73 L195,75 L202,73 L217,88 L225,98 L239,117 L248,132 L252,139 L252,143 L249,145 L256,147 L266,170 L273,192 L279,218 L280,232 L275,234 L277,238 L281,240 L282,244 L282,279 L279,308 L271,340 L269,347 L265,348 L265,357 L260,370 L252,386 L241,405 L231,420 L227,419 L221,408 L212,391 L208,379 L203,375 L192,371 L183,367 L178,364 L174,360 L161,350 L152,342 L145,334 L136,323 L133,322 L133,320 L114,316 L86,309 L76,305 L76,303 L72,302 L68,299 L70,294 L79,273 L85,255 L90,232 L92,214 L92,201 L96,202 L100,208 L109,217 L114,222 L119,227 L130,239 L153,241 L156,244 L160,249 L170,252 L195,255 L198,261 L201,273 L203,277 L209,279 L215,287 L223,290 L248,292 L260,296 L271,301 L276,302 L267,275 L262,270 L253,266 L237,258 L226,251 L226,249 L222,247 L212,237 L208,234 L208,232 L204,230 L192,225 L187,224 L162,222 L145,216 L125,207 L120,203 L96,196 L93,194 L89,165 L83,140 L76,121 L74,117 L74,112 L77,109 L78,105 L69,106 L60,90 L53,80 L44,68 L30,53 L22,45 L8,34 L-2,28 L-2,26 L-7,24 L-15,20 L-15,18 L-19,17 L-30,12 L-37,9 L-37,6 L-24,3 Z " fill="#000000" transform="translate(218,0)"/>
<path d="M0,0 L5,1 L8,2 L8,4 L11,4 L11,6 L15,7 L34,16 L55,23 L73,27 L88,29 L111,30 L128,29 L153,25 L177,18 L184,15 L189,15 L197,25 L204,32 L208,39 L210,49 L210,54 L216,54 L219,60 L223,65 L225,66 L226,77 L239,78 L247,80 L249,83 L256,86 L258,94 L262,98 L273,102 L274,108 L285,109 L286,112 L293,113 L293,116 L305,117 L313,123 L319,135 L320,139 L312,142 L289,148 L269,151 L258,152 L242,152 L239,152 L214,152 L186,148 L169,144 L166,141 L165,139 L164,141 L158,141 L137,133 L127,129 L112,121 L109,120 L108,117 L103,116 L100,115 L100,113 L96,112 L84,104 L78,100 L78,98 L74,96 L68,92 L63,87 L50,75 L43,68 L35,58 L26,47 L18,35 L10,22 L0,3 Z " fill="#000000" transform="translate(0,373)"/>
<path d="M0,0 L3,1 L8,8 L15,10 L18,16 L22,19 L32,24 L39,32 L43,36 L43,38 L47,39 L62,45 L81,51 L87,55 L94,60 L106,65 L110,71 L114,80 L118,88 L128,91 L131,95 L153,99 L162,103 L169,108 L168,112 L156,125 L139,142 L134,146 L132,146 L132,148 L125,153 L123,153 L123,155 L112,162 L97,172 L83,179 L81,179 L79,169 L73,165 L66,150 L66,148 L58,146 L45,141 L39,139 L27,138 L24,136 L20,125 L10,118 L8,115 L6,102 L2,99 L-39,98 L-44,95 L-52,82 L-57,77 L-60,74 L-60,72 L-65,70 L-73,65 L-72,62 L-63,57 L-52,50 L-48,47 L-46,47 L-46,45 L-37,39 L-34,37 L-23,38 L-17,40 L-17,24 L-15,19 L-8,10 Z " fill="#000000" transform="translate(272,319)"/>
</svg>
