<?xml version="1.0" encoding="UTF-8"?>
<!-- Generator: visioncortex VTracer 0.6.4 -->
<svg version="1.1" xmlns="http://www.w3.org/2000/svg" width="617" height="500">
<path d="M0,0 L40,0 L40,4 L26,9 L17,13 L5,19 L3,19 L3,21 L-4,24 L1,24 L5,26 L4,31 L29,25 L56,21 L74,18 L95,18 L116,21 L152,21 L168,18 L178,14 L188,15 L188,19 L179,23 L177,23 L177,25 L174,25 L174,27 L171,27 L171,29 L161,34 L165,35 L165,39 L145,41 L128,45 L125,46 L135,47 L135,54 L132,57 L117,62 L103,71 L94,79 L88,86 L87,89 L82,93 L73,104 L70,108 L87,112 L124,126 L142,132 L146,133 L146,135 L152,137 L167,144 L172,146 L184,151 L199,157 L203,160 L208,162 L208,164 L213,166 L219,171 L219,174 L221,174 L221,178 L214,177 L209,175 L209,173 L206,173 L205,171 L202,170 L202,168 L193,165 L183,162 L166,159 L151,158 L146,156 L141,156 L137,161 L136,163 L142,165 L147,172 L155,177 L170,183 L178,188 L182,193 L185,196 L185,203 L178,202 L175,200 L175,198 L172,198 L178,205 L185,210 L202,218 L223,225 L236,231 L236,234 L218,234 L208,230 L198,225 L162,216 L149,214 L131,214 L121,216 L107,217 L117,221 L126,224 L144,232 L161,241 L167,245 L167,248 L158,248 L148,244 L142,241 L142,245 L135,244 L129,241 L134,245 L141,248 L158,258 L161,260 L161,262 L166,264 L188,276 L192,277 L190,273 L190,268 L195,269 L199,272 L201,276 L201,281 L194,285 L190,286 L180,286 L155,279 L148,279 L163,286 L176,292 L182,294 L182,298 L177,299 L167,299 L156,297 L135,289 L131,288 L137,297 L145,298 L147,300 L147,304 L139,303 L138,302 L121,299 L109,294 L100,290 L85,285 L85,287 L89,288 L95,291 L95,293 L100,295 L118,305 L118,307 L124,309 L136,315 L136,317 L145,320 L170,329 L188,335 L204,343 L212,347 L212,349 L219,351 L220,352 L220,358 L219,359 L213,359 L202,355 L214,362 L214,366 L208,365 L183,355 L159,346 L128,336 L87,326 L77,324 L61,322 L65,326 L81,332 L89,335 L103,342 L117,347 L135,350 L145,358 L155,362 L180,367 L196,371 L212,377 L224,382 L236,388 L247,393 L247,395 L253,397 L255,398 L255,401 L248,401 L236,397 L227,393 L220,393 L219,394 L219,399 L212,398 L200,392 L169,382 L139,375 L111,368 L81,364 L30,359 L30,362 L38,363 L69,370 L92,376 L126,383 L145,387 L147,388 L147,391 L137,392 L111,392 L76,389 L58,387 L82,395 L95,398 L125,403 L142,407 L156,411 L163,414 L163,418 L156,418 L135,414 L144,417 L144,421 L128,419 L92,413 L68,410 L40,404 L34,403 L22,403 L57,412 L75,418 L92,424 L96,427 L96,430 L90,430 L72,425 L61,423 L57,423 L61,425 L61,427 L67,429 L79,435 L87,439 L87,441 L92,443 L97,446 L97,448 L99,448 L99,452 L94,452 L94,450 L88,448 L72,443 L39,435 L25,434 L-8,433 L-13,432 L-25,432 L-37,436 L-52,444 L-58,448 L-61,448 L-61,450 L-73,459 L-79,464 L-81,467 L-86,470 L-93,476 L-96,479 L-101,483 L-95,488 L-92,489 L-92,491 L-79,493 L-79,497 L-82,497 L-82,499 L-84,500 L-107,500 L-123,499 L-138,497 L-148,493 L-155,489 L-155,487 L-158,487 L-158,485 L-163,483 L-173,477 L-182,469 L-190,453 L-195,440 L-198,428 L-199,422 L-199,413 L-198,405 L-197,404 L-191,404 L-188,410 L-188,414 L-186,415 L-183,422 L-182,426 L-180,426 L-180,429 L-178,429 L-178,432 L-175,433 L-171,439 L-171,441 L-167,443 L-160,449 L-155,448 L-155,446 L-144,439 L-133,429 L-132,425 L-137,420 L-137,417 L-139,417 L-142,409 L-149,386 L-150,382 L-152,382 L-152,376 L-150,374 L-143,375 L-136,385 L-126,394 L-124,395 L-124,397 L-119,399 L-112,402 L-112,404 L-106,406 L-105,399 L-98,375 L-92,357 L-85,343 L-77,325 L-75,320 L-73,320 L-73,317 L-71,317 L-71,314 L-68,311 L-69,306 L-72,305 L-76,301 L-79,300 L-80,298 L-83,297 L-87,293 L-101,286 L-117,286 L-135,289 L-155,295 L-167,302 L-171,309 L-170,317 L-167,322 L-167,324 L-165,324 L-161,331 L-157,334 L-154,339 L-144,350 L-142,352 L-139,355 L-140,362 L-143,364 L-147,363 L-151,360 L-151,358 L-159,358 L-170,355 L-180,350 L-180,348 L-183,348 L-183,346 L-186,346 L-186,344 L-191,342 L-197,335 L-202,331 L-205,326 L-208,324 L-211,317 L-226,317 L-225,331 L-221,337 L-214,343 L-214,345 L-212,345 L-204,362 L-202,364 L-202,368 L-210,366 L-222,362 L-233,357 L-245,351 L-246,349 L-251,346 L-254,344 L-254,342 L-262,342 L-276,345 L-284,345 L-297,342 L-308,335 L-312,333 L-319,325 L-324,322 L-331,314 L-338,307 L-340,305 L-342,300 L-344,300 L-344,297 L-346,297 L-351,285 L-352,280 L-352,264 L-354,256 L-357,250 L-357,247 L-359,247 L-362,242 L-362,231 L-358,226 L-346,221 L-339,217 L-337,217 L-337,215 L-334,215 L-334,213 L-331,213 L-331,211 L-324,207 L-319,202 L-303,187 L-291,176 L-277,165 L-270,160 L-268,160 L-268,158 L-265,158 L-265,156 L-259,153 L-256,153 L-256,151 L-248,147 L-247,143 L-256,133 L-260,124 L-261,114 L-260,111 L-248,105 L-231,97 L-223,92 L-222,90 L-219,90 L-219,88 L-212,83 L-210,83 L-208,79 L-197,70 L-185,59 L-172,50 L-162,44 L-141,38 L-126,36 L-92,36 L-75,31 L-73,29 L-70,29 L-70,27 L-51,17 L-38,11 L-10,2 Z M-1,32 Z M-7,33 L-18,36 L-18,37 L-11,37 L-1,34 L-1,33 Z M119,47 Z M117,48 Z M-154,131 L-165,134 L-170,137 L-175,143 L-175,145 L-177,145 L-177,148 L-180,149 L-180,152 L-183,153 L-183,156 L-186,157 L-183,158 L-171,156 L-163,152 L-155,143 L-151,135 L-152,131 Z M125,238 Z M140,238 L141,240 Z M127,239 Z M82,284 Z M196,353 Z M199,354 Z M211,389 L215,392 L215,389 Z " fill="#000000" transform="translate(362,0)"/>
<path d="M0,0 L10,0 L12,1 L12,4 L0,3 Z " fill="#000000" transform="translate(581,365)"/>
</svg>
