<?xml version="1.0" encoding="UTF-8"?>
<!-- Generator: visioncortex VTracer 0.6.4 -->
<svg version="1.1" xmlns="http://www.w3.org/2000/svg" width="500" height="1222">
<path d="M0,0 L42,0 L62,2 L82,7 L93,10 L103,14 L121,22 L127,25 L148,38 L154,42 L159,47 L167,54 L181,68 L188,77 L198,91 L208,110 L214,125 L219,142 L222,157 L224,172 L224,203 L220,234 L216,256 L210,279 L199,311 L193,326 L186,341 L171,371 L165,382 L159,391 L153,402 L145,415 L133,432 L120,450 L112,460 L105,469 L103,469 L101,473 L89,486 L74,501 L66,512 L64,517 L65,522 L72,525 L90,524 L105,521 L120,517 L126,515 L136,512 L146,508 L160,502 L174,495 L183,490 L196,486 L207,480 L210,479 L210,477 L218,470 L225,461 L233,444 L239,432 L243,433 L248,441 L256,458 L267,484 L275,507 L276,512 L276,531 L271,544 L264,556 L262,556 L260,560 L250,570 L248,570 L247,573 L231,584 L224,588 L218,590 L213,589 L213,583 L220,575 L227,566 L228,564 L210,565 L198,568 L194,571 L193,575 L192,589 L191,592 L186,591 L179,585 L162,576 L141,568 L116,561 L99,557 L82,555 L74,555 L66,557 L64,562 L70,572 L77,579 L79,585 L76,588 L71,590 L69,595 L66,601 L63,612 L59,669 L58,679 L57,701 L56,808 L58,812 L73,816 L79,817 L87,812 L99,812 L106,817 L110,824 L111,831 L122,837 L127,840 L127,842 L132,844 L136,847 L141,847 L157,839 L160,839 L160,837 L176,829 L185,824 L188,824 L189,830 L177,856 L169,872 L167,877 L174,888 L182,899 L182,901 L189,901 L196,904 L200,909 L202,913 L202,923 L197,933 L202,952 L204,964 L205,967 L231,975 L242,979 L260,985 L260,990 L252,994 L236,999 L205,1010 L200,1034 L198,1044 L202,1050 L203,1059 L200,1066 L195,1071 L189,1073 L184,1074 L178,1085 L171,1095 L172,1102 L181,1121 L188,1132 L197,1151 L196,1154 L190,1154 L171,1145 L154,1136 L144,1132 L138,1130 L125,1139 L114,1146 L112,1154 L107,1160 L98,1164 L88,1162 L85,1160 L75,1162 L64,1165 L52,1167 L50,1168 L42,1194 L36,1212 L33,1221 L32,1222 L27,1222 L23,1215 L17,1197 L12,1180 L8,1168 L-7,1166 L-23,1162 L-28,1161 L-37,1166 L-47,1166 L-54,1162 L-58,1155 L-60,1147 L-64,1145 L-64,1143 L-69,1142 L-69,1140 L-74,1138 L-82,1133 L-87,1134 L-102,1142 L-118,1150 L-125,1154 L-135,1159 L-138,1159 L-139,1155 L-127,1130 L-115,1105 L-116,1099 L-123,1089 L-130,1078 L-131,1077 L-141,1075 L-148,1067 L-150,1062 L-149,1055 L-146,1048 L-145,1044 L-150,1025 L-153,1013 L-169,1007 L-193,1000 L-206,995 L-207,991 L-198,987 L-175,979 L-164,975 L-153,972 L-150,953 L-146,938 L-147,934 L-152,927 L-152,916 L-147,908 L-142,905 L-131,904 L-129,899 L-122,888 L-116,879 L-117,873 L-132,844 L-140,828 L-139,824 L-134,824 L-120,831 L-101,840 L-88,847 L-83,846 L-72,839 L-65,834 L-63,834 L-61,824 L-57,818 L-53,815 L-50,814 L-40,814 L-33,818 L-24,817 L-14,814 L-7,812 L-5,811 L-4,752 L-4,727 L-6,685 L-7,679 L-8,663 L-9,620 L-12,603 L-17,593 L-21,590 L-26,587 L-26,583 L-21,579 L-14,569 L-12,565 L-12,559 L-14,558 L-14,556 L-27,556 L-42,558 L-61,562 L-89,571 L-102,577 L-114,582 L-126,589 L-134,596 L-138,595 L-139,590 L-139,579 L-141,573 L-153,570 L-172,569 L-161,583 L-160,587 L-162,590 L-170,589 L-177,584 L-185,580 L-185,578 L-190,576 L-196,572 L-196,570 L-200,568 L-210,558 L-210,556 L-212,556 L-220,543 L-224,531 L-224,512 L-219,496 L-213,479 L-206,463 L-195,438 L-191,433 L-186,434 L-177,453 L-168,467 L-161,475 L-161,477 L-157,479 L-155,480 L-155,482 L-150,484 L-136,492 L-115,502 L-103,507 L-91,512 L-72,518 L-53,523 L-43,525 L-33,526 L-23,526 L-12,522 L-12,517 L-21,505 L-41,485 L-48,477 L-57,468 L-64,460 L-69,454 L-73,447 L-78,441 L-88,428 L-95,418 L-102,408 L-114,389 L-123,374 L-129,363 L-143,335 L-155,307 L-167,272 L-173,246 L-178,219 L-179,204 L-179,175 L-178,162 L-174,142 L-171,131 L-166,117 L-157,98 L-147,83 L-136,69 L-129,62 L-125,57 L-117,50 L-108,42 L-103,40 L-103,38 L-97,34 L-94,34 L-94,32 L-89,31 L-89,29 L-86,29 L-86,27 L-65,17 L-53,12 L-38,7 L-17,2 Z M19,48 L-2,49 L-18,52 L-29,55 L-41,60 L-57,68 L-68,75 L-82,86 L-95,99 L-106,114 L-114,128 L-122,145 L-128,165 L-130,177 L-130,205 L-127,233 L-122,258 L-119,267 L-116,264 L-110,248 L-101,232 L-92,221 L-89,218 L-89,216 L-85,214 L-81,210 L-81,208 L-77,206 L-62,195 L-51,189 L-36,182 L-20,177 L-3,173 L5,172 L41,172 L54,173 L76,178 L93,184 L112,194 L127,205 L129,205 L130,208 L138,215 L148,226 L156,237 L164,254 L166,259 L168,259 L172,239 L174,225 L176,198 L176,180 L171,155 L164,136 L156,121 L150,111 L148,111 L146,106 L134,92 L132,92 L131,89 L127,88 L125,84 L116,77 L114,77 L114,75 L102,68 L86,60 L68,53 L55,50 L40,48 Z M17,204 L15,205 L2,207 L-14,211 L-30,218 L-34,220 L-34,222 L-38,223 L-43,226 L-43,228 L-48,230 L-49,233 L-53,235 L-64,246 L-73,259 L-78,269 L-82,279 L-85,295 L-85,317 L-82,340 L-76,364 L-71,376 L-59,392 L-47,408 L-39,417 L-37,420 L-35,420 L-33,424 L-24,434 L-13,445 L-11,445 L-10,448 L1,455 L6,457 L6,451 L0,439 L-9,429 L-15,424 L-20,420 L-21,417 L-19,417 L-19,415 L-13,414 L-4,408 L3,401 L3,393 L-5,369 L-11,354 L-20,337 L-26,330 L-28,330 L-29,325 L-10,325 L-5,322 L-2,315 L0,298 L0,290 L2,285 L18,262 L22,258 L22,256 L26,256 L28,260 L36,272 L38,272 L40,277 L48,288 L49,306 L53,319 L57,323 L64,325 L76,325 L72,332 L66,341 L59,357 L53,375 L49,385 L47,393 L48,400 L55,407 L57,407 L58,410 L71,417 L72,419 L70,424 L66,425 L58,432 L52,439 L48,447 L46,452 L47,456 L53,454 L53,452 L57,450 L62,445 L78,430 L86,420 L94,411 L104,397 L114,383 L128,361 L132,350 L135,336 L138,308 L137,290 L133,276 L128,265 L125,259 L118,249 L109,239 L102,232 L92,225 L90,225 L90,223 L85,222 L85,220 L75,215 L60,209 L48,206 L40,205 Z M62,881 L62,894 L64,917 L65,943 L68,939 L77,920 L85,905 L88,898 L87,893 L80,888 Z M-11,881 L-24,886 L-35,893 L-36,897 L-29,911 L-19,930 L-14,939 L-13,939 L-12,919 L-11,916 L-10,897 L-10,881 Z M-68,926 L-74,936 L-80,950 L-84,965 L-84,970 L-54,980 L-40,984 L-27,989 L-27,992 L-27,994 L-33,995 L-53,1002 L-82,1012 L-82,1019 L-74,1038 L-65,1052 L-60,1051 L-44,1043 L-27,1034 L-16,1029 L-10,1028 L-10,1013 L-11,994 L-12,991 L-13,952 L-28,944 L-47,935 L-63,927 Z M118,928 L99,938 L78,948 L65,955 L64,995 L61,1032 L58,1064 L54,1090 L54,1095 L62,1093 L74,1088 L87,1081 L90,1078 L88,1073 L77,1052 L69,1036 L66,1027 L76,1030 L88,1036 L107,1045 L118,1050 L124,1041 L130,1029 L135,1013 L135,1009 L123,1005 L109,1001 L88,994 L81,992 L82,987 L112,977 L136,969 L134,957 L127,937 L121,928 Z M-11,1032 L-19,1048 L-35,1080 L-31,1083 L-15,1091 L-2,1095 L-2,1087 L-4,1078 L-5,1065 L-7,1051 L-8,1037 L-10,1032 Z " fill="#020202" transform="translate(224,0)"/>
</svg>
