<?xml version="1.0" encoding="UTF-8"?>
<!-- Generator: visioncortex VTracer 0.6.4 -->
<svg version="1.1" xmlns="http://www.w3.org/2000/svg" width="904" height="500">
<path d="M0,0 L4,2 L12,11 L18,23 L27,40 L32,48 L41,67 L49,85 L54,87 L68,85 L101,81 L143,81 L187,83 L213,89 L231,95 L241,98 L253,104 L263,108 L272,112 L279,116 L297,127 L311,135 L327,148 L341,159 L355,170 L365,179 L372,186 L380,193 L399,212 L407,222 L414,229 L420,237 L428,248 L436,260 L443,271 L448,286 L452,301 L453,316 L450,316 L444,308 L438,301 L430,294 L420,288 L402,278 L377,269 L349,263 L326,260 L304,259 L274,260 L254,264 L249,266 L253,284 L255,293 L256,314 L254,327 L253,329 L250,329 L243,318 L234,307 L228,299 L223,293 L223,291 L220,290 L215,285 L213,289 L205,297 L189,307 L170,315 L158,319 L150,320 L138,320 L121,316 L111,311 L108,309 L108,307 L106,307 L106,305 L104,305 L97,297 L89,283 L86,269 L85,262 L85,249 L87,249 L92,257 L93,260 L98,262 L103,265 L119,265 L131,262 L147,254 L154,248 L157,240 L150,235 L141,231 L128,229 L120,229 L103,232 L89,236 L73,244 L67,249 L62,254 L53,268 L49,282 L48,291 L48,319 L52,335 L58,354 L62,364 L70,377 L79,388 L84,393 L84,395 L89,397 L98,403 L106,407 L117,410 L129,412 L130,416 L120,423 L111,426 L94,427 L78,425 L67,422 L58,415 L55,414 L56,425 L53,441 L47,455 L41,464 L32,475 L30,475 L30,477 L22,484 L9,495 L3,500 L-2,499 L-15,488 L-25,479 L-28,477 L-28,475 L-30,475 L-39,464 L-45,455 L-52,438 L-54,422 L-53,414 L-58,417 L-65,422 L-81,426 L-95,427 L-109,426 L-120,422 L-128,416 L-127,412 L-115,410 L-102,406 L-96,403 L-87,397 L-82,395 L-80,391 L-70,380 L-62,367 L-57,357 L-51,339 L-47,323 L-46,319 L-46,291 L-48,277 L-52,267 L-60,254 L-65,249 L-71,244 L-87,236 L-105,231 L-118,229 L-134,230 L-144,233 L-152,238 L-155,241 L-151,249 L-144,255 L-127,263 L-117,265 L-101,265 L-93,260 L-91,260 L-89,256 L-85,249 L-83,249 L-83,262 L-86,279 L-90,289 L-96,298 L-102,305 L-104,305 L-104,307 L-106,307 L-106,309 L-116,315 L-130,319 L-136,320 L-148,320 L-160,318 L-180,310 L-194,303 L-205,295 L-213,287 L-213,285 L-218,290 L-221,291 L-223,295 L-231,305 L-237,313 L-245,324 L-248,329 L-251,329 L-253,323 L-254,306 L-252,288 L-247,268 L-247,266 L-260,262 L-272,260 L-310,259 L-333,261 L-358,265 L-378,270 L-402,279 L-420,289 L-431,296 L-436,301 L-442,308 L-448,316 L-451,316 L-450,301 L-443,276 L-437,264 L-427,250 L-420,239 L-413,231 L-406,223 L-398,214 L-391,206 L-372,187 L-364,180 L-356,172 L-343,162 L-327,149 L-314,139 L-304,132 L-288,123 L-277,116 L-270,112 L-261,108 L-249,103 L-234,96 L-219,92 L-204,87 L-185,83 L-141,81 L-99,81 L-66,85 L-51,87 L-47,85 L-39,67 L-28,44 L-23,37 L-15,21 L-9,10 Z " fill="#000000" transform="translate(451,0)"/>
</svg>
