<?xml version="1.0" encoding="UTF-8"?>
<!-- Generator: visioncortex VTracer 0.6.4 -->
<svg version="1.1" xmlns="http://www.w3.org/2000/svg" width="786" height="470">
<path d="M0,0 L1,0 L1,15 L-3,36 L-8,51 L-16,69 L-26,86 L-37,101 L-46,112 L-57,124 L-64,132 L-72,140 L-79,148 L-90,161 L-100,177 L-108,194 L-112,208 L-114,223 L-114,236 L-111,259 L-106,279 L-99,295 L-92,306 L-85,314 L-72,323 L-60,328 L-38,333 L-28,334 L-22,330 L-13,320 L-1,302 L11,282 L25,257 L40,228 L55,199 L71,166 L75,159 L76,162 L61,199 L52,224 L44,253 L39,276 L36,301 L36,325 L39,341 L45,353 L51,356 L58,355 L64,351 L70,344 L80,325 L89,300 L97,270 L100,255 L101,253 L105,254 L111,263 L122,290 L131,312 L140,329 L147,338 L154,342 L162,342 L169,339 L177,337 L178,335 L178,316 L175,298 L168,279 L157,258 L145,239 L137,227 L125,210 L109,189 L98,175 L99,173 L113,184 L124,193 L139,206 L151,217 L159,224 L170,236 L183,253 L191,266 L200,285 L205,301 L207,311 L207,335 L203,347 L195,357 L184,364 L169,369 L154,372 L145,372 L135,367 L127,358 L116,337 L108,314 L107,313 L100,334 L94,356 L89,366 L81,374 L71,379 L60,382 L47,383 L38,381 L29,375 L23,367 L18,355 L16,346 L12,356 L6,364 L-1,369 L-11,372 L-31,372 L-48,368 L-67,361 L-83,353 L-98,343 L-112,331 L-121,321 L-131,306 L-140,287 L-145,269 L-147,253 L-147,239 L-144,221 L-137,200 L-129,184 L-120,169 L-107,152 L-95,139 L-78,122 L-70,115 L-56,101 L-47,90 L-37,78 L-27,63 L-18,48 L-8,27 L-2,9 Z " fill="#000000" transform="translate(579,0)"/>
<path d="M0,0 L2,0 L4,7 L3,18 L-2,31 L-10,44 L-20,57 L-31,69 L-54,92 L-62,99 L-75,110 L-89,121 L-96,129 L-104,145 L-108,159 L-110,171 L-111,190 L-109,215 L-104,239 L-101,249 L-96,248 L-69,239 L-44,233 L-22,229 L-13,228 L24,228 L43,232 L46,233 L42,222 L42,200 L47,177 L54,148 L55,143 L55,136 L51,125 L44,116 L34,109 L23,105 L17,104 L-1,104 L-18,108 L-34,114 L-53,124 L-69,135 L-79,142 L-81,141 L-72,130 L-61,118 L-49,108 L-35,99 L-20,92 L-3,88 L17,88 L34,92 L48,98 L59,105 L73,116 L83,126 L83,133 L73,158 L68,174 L66,186 L66,214 L70,235 L76,253 L81,265 L81,269 L75,267 L62,261 L48,257 L33,255 L14,255 L-9,258 L-34,264 L-58,272 L-84,283 L-94,288 L-91,306 L-85,328 L-78,346 L-82,344 L-90,336 L-104,327 L-119,321 L-131,318 L-152,316 L-171,317 L-194,321 L-222,328 L-249,337 L-275,348 L-300,361 L-318,373 L-331,383 L-344,395 L-353,405 L-358,412 L-360,411 L-353,401 L-341,383 L-330,369 L-316,354 L-306,345 L-293,335 L-277,325 L-262,317 L-242,309 L-218,302 L-195,298 L-173,296 L-143,296 L-115,298 L-124,273 L-131,248 L-135,225 L-136,216 L-136,182 L-133,163 L-126,142 L-118,127 L-111,117 L-100,108 L-80,93 L-62,80 L-46,67 L-35,58 L-21,44 L-11,31 L-4,17 L-1,6 Z M46,233 Z " fill="#000000" transform="translate(360,58)"/>
</svg>
