<?xml version="1.0" encoding="UTF-8"?>
<!-- Generator: visioncortex VTracer 0.6.4 -->
<svg version="1.1" xmlns="http://www.w3.org/2000/svg" width="1000" height="486">
<path d="M0,0 L4,4 L6,10 L6,30 L2,44 L-3,55 L-9,66 L-19,81 L-32,99 L-43,111 L-50,119 L-57,126 L-68,135 L-80,146 L-89,157 L-97,168 L-101,174 L-110,193 L-116,210 L-119,226 L-120,246 L-117,270 L-109,296 L-101,312 L-92,322 L-84,329 L-70,337 L-56,342 L-45,345 L-23,347 L-8,347 L38,345 L64,340 L76,336 L90,329 L99,322 L105,315 L116,294 L123,283 L128,277 L130,277 L132,273 L162,243 L176,233 L194,219 L205,211 L207,212 L205,216 L203,216 L201,220 L192,231 L182,247 L172,265 L161,288 L156,299 L154,308 L160,307 L166,302 L176,298 L185,289 L196,272 L204,256 L212,237 L215,229 L218,230 L211,253 L208,267 L207,277 L207,288 L209,298 L214,305 L220,307 L227,307 L240,303 L250,301 L254,297 L255,294 L255,281 L251,266 L241,242 L225,213 L220,204 L207,183 L202,177 L202,174 L206,175 L216,185 L226,198 L234,208 L244,221 L256,239 L268,258 L280,277 L284,283 L288,294 L288,307 L284,314 L275,320 L267,323 L257,325 L236,326 L226,332 L216,335 L209,335 L203,332 L197,325 L193,309 L189,318 L183,328 L177,333 L173,335 L162,335 L156,332 L146,333 L140,331 L135,326 L133,319 L133,311 L137,291 L137,288 L123,309 L116,319 L112,326 L105,338 L95,352 L89,360 L81,367 L71,373 L56,378 L47,379 L19,379 L2,377 L-23,371 L-53,361 L-75,351 L-93,341 L-103,333 L-115,322 L-124,312 L-133,298 L-139,279 L-142,260 L-142,233 L-138,210 L-133,194 L-125,178 L-121,172 L-109,156 L-98,144 L-90,136 L-81,129 L-74,121 L-66,113 L-59,105 L-50,95 L-36,78 L-28,67 L-16,47 L-7,31 L-2,16 L-1,2 Z M139,283 L140,285 Z " fill="#000000" transform="translate(671,2)"/>
<path d="M0,0 L9,0 L17,5 L27,17 L34,25 L37,27 L35,39 L34,46 L34,75 L35,86 L32,87 L26,79 L22,70 L20,62 L19,42 L12,28 L8,25 L1,26 L-6,36 L-14,57 L-14,161 L-8,172 L4,185 L7,187 L24,178 L45,170 L61,166 L82,164 L103,166 L119,171 L133,178 L147,188 L159,200 L161,205 L147,207 L133,211 L113,219 L91,229 L84,232 L67,239 L56,247 L46,256 L33,269 L24,280 L13,295 L11,299 L7,298 L-1,291 L-9,283 L-17,276 L-26,268 L-39,259 L-57,246 L-72,237 L-86,230 L-106,223 L-120,219 L-128,218 L-150,218 L-177,220 L-203,225 L-229,232 L-249,240 L-268,250 L-284,260 L-301,271 L-314,282 L-324,291 L-341,307 L-348,315 L-351,319 L-353,319 L-351,314 L-343,302 L-331,288 L-312,269 L-294,256 L-272,242 L-251,231 L-235,225 L-207,215 L-178,207 L-160,203 L-139,202 L-118,203 L-90,207 L-67,213 L-48,220 L-30,228 L-15,236 L-1,246 L10,256 L20,243 L30,234 L53,220 L71,210 L97,198 L107,195 L88,186 L74,183 L56,183 L41,186 L29,190 L11,197 L-2,203 L-7,198 L-16,188 L-21,184 L-42,174 L-49,166 L-52,158 L-53,154 L-53,140 L-49,90 L-48,58 L-44,46 L-38,38 L-28,26 L-26,26 L-24,22 L-17,12 L-7,3 Z " fill="#000000" transform="translate(416,152)"/>
<path d="M0,0 L2,0 L1,19 L-3,33 L-11,50 L-14,55 L-16,55 L-18,60 L-27,71 L-38,83 L-45,90 L-61,102 L-78,115 L-91,125 L-101,133 L-109,140 L-116,148 L-134,166 L-144,179 L-152,191 L-160,202 L-170,220 L-180,242 L-182,243 L-180,234 L-175,221 L-174,216 L-168,199 L-161,180 L-161,178 L-172,185 L-187,199 L-195,209 L-205,226 L-210,237 L-213,248 L-217,270 L-223,288 L-229,298 L-236,305 L-245,310 L-256,312 L-260,311 L-260,309 L-253,306 L-247,298 L-243,289 L-241,281 L-241,277 L-252,286 L-267,295 L-277,299 L-286,300 L-298,297 L-304,293 L-312,284 L-316,274 L-325,280 L-336,283 L-343,283 L-354,279 L-361,271 L-359,291 L-354,312 L-349,324 L-347,328 L-347,331 L-351,329 L-359,320 L-368,306 L-374,293 L-379,277 L-382,255 L-382,234 L-379,209 L-372,181 L-366,170 L-356,157 L-345,144 L-335,134 L-326,127 L-319,123 L-305,114 L-289,106 L-275,100 L-253,93 L-221,88 L-216,88 L-215,90 L-239,96 L-263,104 L-286,115 L-301,125 L-308,129 L-321,141 L-331,152 L-342,167 L-350,183 L-355,195 L-361,223 L-361,245 L-358,253 L-354,255 L-345,255 L-338,253 L-326,251 L-319,247 L-314,241 L-306,228 L-300,211 L-290,196 L-276,181 L-267,173 L-252,163 L-226,151 L-219,149 L-220,153 L-231,160 L-240,165 L-250,173 L-260,182 L-275,197 L-282,207 L-290,223 L-296,240 L-297,245 L-297,260 L-294,264 L-291,265 L-266,265 L-260,262 L-255,257 L-248,248 L-241,234 L-230,217 L-222,207 L-213,197 L-199,185 L-184,175 L-172,168 L-155,161 L-150,159 L-119,128 L-111,122 L-95,107 L-84,97 L-73,89 L-55,75 L-46,68 L-37,60 L-32,55 L-21,42 L-11,27 L-3,11 Z M-160,176 Z M-240,275 Z " fill="#000000" transform="translate(998,13)"/>
<path d="M0,0 L2,1 L2,11 L0,20 L-5,31 L-9,41 L-22,65 L-35,85 L-44,96 L-55,109 L-64,119 L-84,139 L-92,146 L-105,157 L-125,172 L-138,182 L-148,189 L-160,196 L-161,198 L-134,199 L-122,205 L-113,214 L-107,224 L-103,239 L-102,247 L-102,275 L-104,287 L-107,296 L-114,305 L-124,314 L-142,326 L-146,324 L-156,317 L-168,311 L-181,307 L-196,305 L-213,305 L-235,308 L-256,314 L-282,325 L-299,333 L-319,345 L-339,359 L-351,367 L-366,380 L-379,392 L-393,406 L-402,417 L-413,431 L-424,446 L-429,455 L-438,466 L-441,468 L-444,467 L-435,448 L-423,428 L-414,413 L-404,400 L-402,400 L-400,396 L-388,382 L-379,372 L-375,367 L-366,360 L-355,350 L-345,342 L-332,332 L-316,323 L-300,314 L-284,306 L-266,298 L-243,291 L-218,285 L-211,284 L-189,283 L-176,283 L-155,285 L-145,288 L-139,291 L-138,276 L-138,255 L-141,243 L-146,235 L-153,230 L-162,228 L-171,228 L-177,226 L-193,225 L-209,227 L-224,233 L-238,242 L-248,251 L-250,254 L-252,254 L-254,258 L-262,267 L-269,276 L-271,276 L-269,270 L-259,259 L-252,251 L-240,238 L-231,227 L-223,220 L-211,209 L-199,198 L-189,191 L-169,178 L-140,162 L-120,149 L-103,136 L-92,126 L-79,116 L-70,107 L-65,102 L-55,92 L-50,87 L-43,80 L-34,69 L-20,50 L-12,38 L-7,27 L-2,10 L-1,1 Z " fill="#000000" transform="translate(457,18)"/>
<path d="M0,0 L3,0 L-1,17 L-9,35 L-17,48 L-21,55 L-30,66 L-37,73 L-44,81 L-52,89 L-59,97 L-69,107 L-77,114 L-85,122 L-93,129 L-106,139 L-120,149 L-140,164 L-153,173 L-162,178 L-177,188 L-193,200 L-207,212 L-217,221 L-229,234 L-238,245 L-244,252 L-255,275 L-263,286 L-268,289 L-273,284 L-277,272 L-278,270 L-283,270 L-290,279 L-300,296 L-308,311 L-316,318 L-322,317 L-330,311 L-336,302 L-340,285 L-340,259 L-336,232 L-349,240 L-359,247 L-368,256 L-379,271 L-390,287 L-401,307 L-406,317 L-407,317 L-406,305 L-401,288 L-389,263 L-380,249 L-368,235 L-361,227 L-349,215 L-340,209 L-327,200 L-310,190 L-289,180 L-281,177 L-277,178 L-282,182 L-289,189 L-296,200 L-300,208 L-304,221 L-308,254 L-308,268 L-307,271 L-305,271 L-303,266 L-299,258 L-291,237 L-280,223 L-270,209 L-260,195 L-254,187 L-245,177 L-229,166 L-206,153 L-194,145 L-175,133 L-156,119 L-151,115 L-148,116 L-164,131 L-172,138 L-188,150 L-198,156 L-211,166 L-224,176 L-234,185 L-243,196 L-252,208 L-255,211 L-263,232 L-266,247 L-266,254 L-261,251 L-253,244 L-244,233 L-230,215 L-223,206 L-211,193 L-202,183 L-194,175 L-183,166 L-172,156 L-159,146 L-149,139 L-128,127 L-105,115 L-86,103 L-76,94 L-66,87 L-55,79 L-42,67 L-31,55 L-21,41 L-14,31 L-6,15 L-2,6 Z " fill="#000000" transform="translate(407,34)"/>
<path d="M0,0 L3,0 L5,8 L5,25 L0,42 L-8,59 L-14,68 L-27,86 L-35,97 L-54,116 L-59,121 L-63,126 L-65,126 L-67,130 L-79,140 L-95,150 L-107,159 L-120,170 L-132,181 L-146,201 L-154,216 L-160,234 L-163,243 L-166,242 L-169,231 L-170,224 L-170,211 L-167,198 L-163,188 L-156,177 L-145,166 L-134,157 L-108,140 L-97,133 L-84,123 L-70,111 L-57,100 L-45,88 L-36,77 L-27,67 L-20,56 L-14,45 L-6,28 L-2,15 Z " fill="#000000" transform="translate(630,0)"/>
<path d="M0,0 L5,1 L10,14 L24,7 L27,6 L36,6 L41,10 L44,16 L44,25 L41,31 L35,35 L22,39 L12,40 L12,54 L9,68 L7,74 L7,80 L5,82 L-2,84 L-7,84 L-9,82 L-9,75 L-6,61 L-4,40 L-4,37 L-14,41 L-22,46 L-24,46 L-23,42 L-14,32 L-5,24 L-2,4 Z M18,24 L13,26 L11,30 L20,27 L24,24 Z " fill="#000000" transform="translate(431,244)"/>
<path d="M0,0 L3,1 L4,18 L9,15 L13,14 L21,14 L28,18 L34,26 L36,31 L36,38 L32,43 L24,46 L9,46 L6,47 L4,51 L3,64 L-2,68 L-11,68 L-15,64 L-17,58 L-17,50 L-16,46 L-36,50 L-46,51 L-46,48 L-30,41 L-16,35 L-13,35 L-10,26 Z M2,19 Z M12,30 L11,32 L17,32 L14,30 Z " fill="#000000" transform="translate(490,243)"/>
</svg>
