<?xml version="1.0" encoding="UTF-8"?>
<!-- Generator: visioncortex VTracer 0.6.4 -->
<svg version="1.1" xmlns="http://www.w3.org/2000/svg" width="508" height="500">
<path d="M0,0 L6,1 L8,2 L8,4 L11,4 L11,6 L14,6 L14,8 L19,10 L31,18 L37,21 L37,23 L40,23 L40,25 L43,25 L43,27 L46,27 L46,29 L51,30 L54,32 L54,34 L59,36 L62,37 L64,39 L65,41 L68,41 L68,43 L71,43 L71,45 L76,47 L96,60 L97,62 L100,62 L100,64 L105,65 L109,66 L130,56 L155,48 L169,45 L180,44 L213,44 L231,47 L251,53 L263,57 L272,61 L279,65 L285,65 L289,63 L292,63 L292,61 L295,61 L295,59 L311,49 L317,45 L319,45 L319,43 L322,43 L322,41 L325,41 L326,39 L331,36 L338,31 L341,31 L341,29 L344,29 L344,27 L347,27 L347,25 L350,25 L350,23 L353,23 L353,21 L365,14 L372,9 L374,9 L374,7 L379,6 L379,4 L382,4 L383,2 L387,0 L391,0 L389,10 L383,23 L377,39 L370,58 L365,70 L348,113 L345,120 L344,127 L346,135 L348,135 L352,143 L357,157 L363,178 L366,197 L367,231 L369,234 L369,237 L374,239 L376,240 L376,242 L379,242 L381,244 L382,246 L385,246 L385,248 L388,248 L388,250 L391,250 L391,252 L396,254 L406,261 L410,262 L410,264 L415,266 L415,268 L418,268 L418,270 L421,270 L421,272 L424,272 L424,274 L428,275 L434,278 L436,280 L437,282 L440,282 L440,284 L443,284 L443,286 L446,286 L446,288 L449,288 L449,294 L349,295 L343,302 L333,318 L331,318 L330,322 L328,323 L326,327 L321,332 L312,342 L307,345 L305,348 L301,350 L297,354 L291,358 L288,358 L288,360 L283,361 L283,363 L264,372 L250,378 L247,378 L245,382 L241,391 L237,400 L231,415 L226,426 L219,446 L214,457 L205,481 L200,494 L197,500 L193,500 L188,487 L184,477 L174,451 L169,440 L162,420 L157,408 L151,393 L145,381 L138,377 L110,364 L96,355 L89,350 L88,348 L85,347 L80,341 L75,338 L71,333 L67,328 L65,327 L63,323 L61,322 L60,319 L55,314 L46,299 L41,295 L-59,294 L-59,289 L-56,288 L-55,286 L-52,286 L-52,284 L-49,284 L-48,282 L-44,280 L-41,277 L-33,272 L-30,272 L-30,270 L-27,270 L-27,268 L-24,268 L-24,266 L-19,264 L-19,262 L-12,259 L-5,254 L-3,254 L-3,252 L2,251 L2,249 L5,249 L5,247 L8,247 L9,245 L13,244 L13,242 L20,237 L22,237 L23,233 L24,229 L25,201 L28,181 L34,158 L40,144 L45,133 L46,124 L42,113 L37,100 L34,92 L22,61 L17,50 L12,35 L4,16 L0,6 Z M36,45 L42,61 L48,76 L56,97 L61,110 L66,123 L71,135 L79,157 L84,169 L89,182 L93,192 L98,205 L98,210 L84,219 L73,226 L69,229 L66,230 L66,232 L63,232 L63,234 L60,234 L60,236 L57,236 L57,238 L52,240 L41,247 L38,248 L38,250 L33,252 L33,254 L30,254 L30,256 L25,257 L17,262 L17,264 L14,264 L14,266 L11,266 L11,268 L8,268 L8,270 L3,271 L2,274 L9,275 L46,276 L121,277 L127,280 L131,290 L138,308 L143,320 L159,362 L164,374 L172,396 L177,408 L182,419 L189,439 L194,451 L196,452 L204,432 L207,422 L212,411 L218,396 L223,383 L229,366 L234,355 L244,328 L251,310 L256,299 L264,277 L392,276 L391,273 L388,273 L388,271 L385,271 L385,269 L380,268 L380,266 L374,264 L374,262 L361,254 L358,254 L358,252 L355,252 L355,250 L339,240 L334,238 L334,236 L331,236 L331,234 L328,234 L328,232 L325,232 L325,230 L322,230 L322,228 L317,227 L317,225 L306,218 L303,218 L303,216 L292,209 L293,204 L300,184 L310,159 L315,147 L323,125 L328,113 L333,102 L340,82 L345,69 L350,57 L354,47 L353,45 L348,47 L348,49 L343,50 L339,53 L339,55 L333,57 L329,59 L329,61 L326,61 L326,63 L323,63 L323,65 L318,67 L315,69 L315,71 L310,72 L299,79 L299,81 L296,81 L296,83 L291,84 L291,86 L288,86 L288,88 L285,88 L285,90 L282,90 L282,92 L277,94 L266,101 L263,102 L263,104 L258,106 L258,108 L253,109 L244,115 L242,116 L242,118 L239,118 L239,120 L236,120 L236,122 L233,122 L233,124 L228,125 L227,128 L221,130 L214,134 L214,136 L211,136 L211,138 L208,138 L208,140 L203,142 L199,144 L189,145 L189,143 L173,133 L167,129 L165,129 L165,127 L162,127 L162,125 L159,125 L159,123 L156,123 L156,121 L153,121 L153,119 L150,119 L150,117 L137,109 L134,109 L134,107 L131,107 L131,105 L115,95 L109,91 L107,91 L107,89 L104,89 L103,87 L99,86 L99,84 L96,84 L96,82 L93,82 L93,80 L80,72 L77,70 L74,70 L74,68 L55,56 L51,55 L51,53 L48,53 L48,51 L43,50 L43,48 L38,47 L38,45 Z M0,273 Z " fill="#000000" transform="translate(59,0)"/>
<path d="M0,0 L11,0 L13,1 L13,3 L18,5 L27,10 L28,12 L31,12 L31,14 L36,16 L41,19 L41,21 L45,22 L54,27 L54,29 L57,29 L57,31 L60,31 L60,33 L63,33 L63,35 L68,36 L68,38 L71,38 L71,40 L76,42 L81,45 L85,47 L85,49 L88,49 L89,52 L89,61 L78,88 L74,97 L70,109 L-55,109 L-58,108 L-58,106 L-60,106 L-65,93 L-69,85 L-76,67 L-80,57 L-78,51 L-73,47 L-69,44 L-62,40 L-60,40 L-60,38 L-55,37 L-55,35 L-52,35 L-52,33 L-49,33 L-48,31 L-44,30 L-44,28 L-31,20 L-28,20 L-28,18 L-23,16 L-23,14 L-18,13 L-18,11 L-15,11 L-14,9 L-10,7 L-5,5 L-5,3 Z " fill="#000000" transform="translate(249,159)"/>
<path d="M0,0 L120,0 L117,10 L111,26 L107,36 L95,66 L85,93 L74,120 L67,139 L62,151 L59,152 L48,126 L42,109 L31,82 L19,50 L12,33 L6,17 L0,2 Z " fill="#000000" transform="translate(194,277)"/>
<path d="M0,0 L7,1 L21,10 L21,12 L26,13 L26,15 L29,15 L29,17 L32,17 L32,19 L35,19 L35,21 L38,21 L38,23 L45,25 L47,27 L51,29 L51,31 L54,31 L54,33 L59,35 L79,48 L80,50 L83,50 L83,52 L86,52 L86,54 L89,54 L89,56 L93,57 L101,62 L105,64 L105,66 L108,66 L108,68 L113,70 L130,81 L132,82 L131,88 L128,88 L128,90 L125,90 L125,92 L122,92 L122,94 L119,94 L118,96 L109,102 L103,106 L100,106 L100,108 L92,113 L90,113 L90,115 L87,115 L86,117 L81,120 L76,123 L74,123 L74,125 L71,125 L71,127 L68,127 L68,129 L65,129 L65,131 L62,131 L61,133 L55,137 L52,137 L44,118 L39,105 L36,97 L26,71 L21,59 L13,37 L8,25 L3,12 L0,6 Z " fill="#000000" transform="translate(113,67)"/>
<path d="M0,0 L6,0 L5,8 L-3,28 L-8,40 L-13,54 L-18,66 L-23,79 L-31,100 L-37,116 L-43,130 L-45,136 L-50,135 L-52,134 L-52,132 L-55,132 L-55,130 L-58,130 L-58,128 L-61,128 L-61,126 L-66,125 L-66,123 L-69,123 L-69,121 L-74,119 L-77,118 L-80,115 L-85,113 L-85,111 L-90,109 L-107,98 L-109,97 L-109,95 L-112,95 L-112,93 L-117,92 L-117,90 L-120,90 L-120,88 L-123,88 L-123,86 L-126,86 L-125,81 L-108,70 L-103,68 L-103,66 L-100,66 L-99,64 L-94,61 L-87,56 L-84,56 L-84,54 L-81,54 L-81,52 L-78,52 L-78,50 L-75,50 L-74,48 L-54,35 L-49,33 L-49,31 L-46,31 L-46,29 L-43,29 L-42,27 L-37,24 L-31,20 L-27,19 L-27,17 L-24,17 L-24,15 L-21,15 L-20,13 L-11,7 Z " fill="#000000" transform="translate(389,68)"/>
<path d="M0,0 L5,2 L15,8 L30,18 L39,24 L48,29 L63,39 L76,47 L76,50 L-18,50 L-17,44 L-9,23 Z " fill="#000000" transform="translate(346,217)"/>
<path d="M0,0 L4,0 L10,16 L19,41 L22,50 L-72,50 L-72,47 L-59,39 L-54,36 L-52,34 L-41,27 L-35,23 L-32,23 L-32,21 L-29,21 L-29,19 L-17,12 L-6,4 L-3,4 L-2,2 Z " fill="#000000" transform="translate(159,217)"/>
</svg>
