<?xml version="1.0" encoding="UTF-8"?>
<!-- Generator: visioncortex VTracer 0.6.4 -->
<svg version="1.1" xmlns="http://www.w3.org/2000/svg" width="500" height="530">
<path d="M0,0 L10,1 L15,6 L15,12 L17,12 L17,23 L19,28 L19,32 L17,32 L16,35 L14,37 L22,41 L24,46 L24,50 L30,52 L36,58 L38,62 L38,66 L36,66 L37,71 L42,71 L45,74 L45,76 L40,81 L40,83 L43,81 L46,81 L46,79 L51,79 L52,83 L51,87 L59,86 L63,88 L65,91 L66,110 L71,111 L72,112 L71,119 L69,119 L69,121 L74,123 L75,124 L75,132 L73,134 L69,134 L70,142 L75,141 L75,149 L69,156 L67,163 L71,165 L71,181 L69,186 L65,217 L61,234 L55,246 L53,248 L50,257 L50,261 L45,264 L42,271 L36,274 L34,274 L33,279 L30,282 L27,287 L20,293 L16,300 L8,304 L-3,315 L-7,317 L-20,318 L-20,316 L-33,318 L-37,320 L-54,320 L-61,324 L-70,322 L-71,321 L-78,321 L-86,325 L-95,329 L-113,333 L-136,336 L-140,341 L-153,340 L-166,337 L-172,336 L-184,336 L-197,335 L-199,331 L-193,329 L-201,326 L-212,321 L-220,321 L-224,321 L-228,319 L-242,319 L-245,318 L-258,317 L-263,314 L-272,311 L-276,308 L-283,306 L-290,301 L-294,300 L-295,293 L-302,289 L-304,286 L-310,287 L-314,289 L-316,294 L-327,298 L-334,299 L-343,303 L-350,302 L-365,302 L-372,299 L-384,296 L-391,290 L-399,283 L-407,275 L-412,270 L-417,265 L-419,260 L-419,257 L-423,255 L-423,252 L-425,252 L-425,230 L-416,222 L-411,221 L-408,227 L-406,229 L-406,234 L-401,238 L-402,241 L-410,241 L-410,247 L-404,247 L-402,249 L-402,255 L-398,255 L-395,248 L-400,243 L-400,239 L-395,237 L-390,238 L-389,240 L-390,250 L-387,250 L-381,246 L-377,246 L-375,251 L-375,255 L-384,258 L-384,262 L-381,264 L-381,270 L-377,272 L-378,279 L-379,281 L-377,280 L-375,273 L-372,271 L-370,267 L-361,267 L-361,261 L-366,261 L-368,259 L-367,254 L-363,251 L-358,251 L-357,252 L-357,258 L-357,260 L-355,262 L-355,267 L-347,266 L-344,268 L-343,272 L-333,271 L-328,267 L-327,258 L-333,259 L-333,266 L-339,269 L-343,266 L-343,261 L-336,259 L-338,254 L-342,252 L-341,247 L-339,245 L-335,245 L-334,240 L-329,243 L-321,252 L-316,259 L-312,268 L-309,272 L-309,276 L-306,273 L-304,269 L-301,270 L-301,272 L-297,273 L-297,279 L-289,278 L-284,280 L-281,282 L-279,282 L-277,275 L-273,275 L-273,284 L-270,283 L-269,276 L-262,276 L-258,281 L-257,284 L-255,275 L-251,269 L-243,269 L-237,264 L-234,264 L-233,259 L-238,263 L-241,262 L-241,255 L-237,254 L-234,256 L-232,251 L-232,245 L-229,237 L-229,224 L-225,221 L-212,217 L-204,211 L-197,212 L-197,215 L-182,214 L-174,218 L-164,219 L-160,220 L-152,219 L-148,222 L-148,224 L-156,228 L-159,229 L-160,231 L-146,230 L-144,229 L-131,228 L-127,227 L-126,231 L-130,234 L-130,236 L-119,234 L-111,230 L-109,230 L-108,226 L-105,224 L-102,224 L-103,228 L-106,231 L-108,231 L-107,233 L-97,227 L-87,218 L-86,216 L-84,216 L-84,214 L-82,214 L-84,221 L-90,230 L-94,234 L-105,241 L-101,240 L-92,234 L-87,231 L-83,227 L-79,227 L-80,231 L-84,236 L-92,243 L-100,249 L-96,248 L-80,241 L-78,239 L-70,238 L-61,230 L-62,226 L-61,222 L-59,222 L-59,214 L-58,212 L-58,201 L-59,197 L-59,189 L-55,185 L-52,186 L-50,191 L-49,206 L-48,201 L-48,191 L-50,185 L-53,183 L-53,177 L-49,176 L-45,180 L-46,171 L-47,169 L-47,163 L-39,153 L-36,154 L-36,161 L-33,159 L-30,159 L-30,154 L-28,149 L-26,149 L-28,145 L-30,144 L-29,140 L-24,139 L-22,133 L-20,127 L-18,127 L-15,115 L-20,114 L-22,114 L-28,117 L-31,116 L-31,121 L-35,125 L-31,127 L-32,132 L-34,135 L-39,134 L-46,136 L-45,139 L-43,140 L-43,147 L-47,151 L-53,151 L-56,156 L-62,155 L-65,160 L-59,161 L-54,165 L-55,168 L-61,170 L-66,172 L-68,174 L-71,174 L-70,169 L-75,168 L-74,163 L-71,158 L-70,156 L-70,148 L-74,146 L-77,146 L-84,158 L-87,160 L-89,159 L-88,155 L-85,150 L-82,137 L-88,138 L-91,131 L-91,126 L-96,126 L-95,122 L-92,116 L-95,114 L-95,107 L-97,106 L-97,101 L-95,101 L-100,96 L-109,93 L-108,90 L-103,90 L-99,92 L-97,87 L-95,87 L-94,79 L-90,76 L-87,75 L-85,66 L-82,59 L-81,50 L-63,51 L-51,53 L-44,49 L-41,46 L-32,42 L-28,39 L-19,40 L-9,42 L-9,50 L-16,61 L-26,70 L-29,75 L-30,82 L-25,79 L-22,76 L-19,77 L-19,81 L-12,79 L-5,75 L-2,70 L0,70 L0,48 L2,45 L3,36 L-3,34 L-8,30 L-10,25 L-10,10 L-6,4 Z M53,91 Z M-17,106 L-19,110 L-12,109 L-11,107 Z M-20,110 Z M-38,126 Z M-40,127 Z M-39,129 Z M-59,131 L-61,135 L-60,140 L-57,141 L-55,136 L-56,131 Z M-59,145 L-60,150 L-57,147 L-57,145 Z M-61,151 L-60,153 Z M-37,162 Z M-38,163 L-38,169 L-37,169 L-37,163 Z M-15,163 L-14,165 Z M-37,170 L-37,173 L-35,174 Z M-18,174 Z M-35,175 Z M-36,177 L-36,183 L-35,183 L-35,177 Z M-21,182 Z M-23,186 L-22,188 Z M-38,188 Z M-24,188 L-23,190 Z M-51,215 Z M-52,216 L-51,218 Z M-53,219 Z M-54,221 Z M-109,234 Z M-110,235 Z M-111,236 Z M-112,237 Z M-203,239 L-204,240 L-204,246 L-197,249 L-197,254 L-200,258 L-200,260 L-191,262 L-190,258 L-181,258 L-181,271 L-174,276 L-169,276 L-172,273 L-176,269 L-175,263 L-172,260 L-171,256 L-164,256 L-165,252 L-169,248 L-172,249 L-173,251 L-178,250 L-183,247 L-184,244 L-192,241 L-200,242 L-201,239 Z M-184,243 Z M-102,251 Z M-391,253 L-395,255 L-394,260 L-389,258 L-390,253 Z M-191,268 Z M-165,268 Z M-386,274 Z M-198,274 Z M-360,278 L-366,280 L-366,281 L-358,281 L-358,278 Z M-175,287 L-171,288 Z M-169,287 Z " fill="#000000" transform="translate(425,189)"/>
<path d="M0,0 L6,0 L13,3 L17,6 L21,7 L26,15 L36,24 L41,30 L46,35 L50,36 L55,37 L55,41 L51,42 L58,51 L62,54 L61,59 L58,61 L59,68 L56,70 L58,77 L55,82 L52,89 L46,92 L44,92 L42,96 L30,99 L26,106 L21,107 L14,108 L12,110 L6,110 L4,109 L-5,109 L-5,114 L-10,115 L-12,114 L-12,112 L-17,115 L-23,114 L-28,113 L-29,117 L-38,118 L-40,119 L-42,123 L-49,123 L-51,122 L-69,122 L-74,119 L-79,114 L-83,112 L-86,107 L-91,102 L-93,96 L-93,91 L-93,89 L-97,85 L-101,83 L-104,77 L-108,75 L-108,70 L-113,68 L-116,65 L-118,60 L-118,54 L-117,52 L-115,52 L-113,48 L-110,46 L-102,45 L-98,41 L-86,41 L-73,39 L-65,39 L-60,44 L-54,46 L-51,53 L-46,55 L-43,60 L-40,63 L-40,65 L-25,65 L-21,62 L-19,62 L-16,51 L-15,45 L-18,41 L-18,36 L-23,33 L-27,32 L-27,29 L-13,29 L-9,32 L-8,41 L-5,47 L-6,53 L-10,58 L-12,66 L-15,69 L-14,79 L-16,79 L-16,77 L-22,76 L-30,71 L-40,69 L-43,68 L-55,67 L-65,60 L-65,56 L-63,55 L-63,53 L-65,52 L-66,56 L-68,55 L-67,47 L-77,48 L-83,50 L-79,55 L-79,59 L-84,57 L-87,54 L-91,54 L-93,61 L-90,59 L-87,59 L-86,63 L-81,65 L-78,68 L-79,71 L-86,70 L-85,74 L-75,77 L-68,76 L-60,74 L-59,77 L-63,86 L-60,89 L-50,89 L-48,95 L-40,94 L-38,90 L-34,91 L-33,94 L-33,99 L-28,97 L-25,91 L-20,92 L-17,93 L-9,89 L-5,84 L-1,83 L2,78 L7,79 L8,83 L13,80 L21,79 L21,77 L21,72 L16,69 L16,65 L21,61 L26,61 L26,55 L22,51 L22,42 L24,39 L24,36 L15,34 L11,29 L11,26 L7,23 L7,18 L2,15 L-2,10 L-15,8 L-16,4 L-9,2 Z M27,62 L28,65 L30,65 L29,62 Z M26,79 L29,86 L35,83 L35,80 L33,79 Z M-91,90 L-91,91 L-86,91 L-86,90 Z " fill="#000000" transform="translate(261,262)"/>
<path d="M0,0 L4,1 L20,7 L25,12 L30,17 L33,18 L33,34 L30,49 L23,61 L18,67 L17,69 L15,69 L13,73 L8,79 L9,84 L12,83 L13,79 L17,78 L22,83 L29,85 L34,89 L36,95 L37,112 L36,124 L32,132 L26,140 L23,143 L14,147 L10,146 L4,143 L4,141 L0,139 L-3,136 L-5,127 L-5,122 L-7,122 L-9,117 L-9,107 L-6,99 L-3,95 L-1,95 L0,91 L4,87 L4,85 L0,83 L-8,83 L-12,84 L-13,80 L-13,78 L-23,73 L-29,66 L-31,58 L-31,40 L-27,28 L-24,21 L-26,21 L-24,13 L-13,5 L-1,1 Z M9,55 L4,59 L10,59 L12,56 Z M-4,66 L-3,68 L4,67 L4,66 Z M22,104 L21,108 L25,108 L26,105 Z M11,110 Z M13,112 L12,115 L8,119 L17,122 L20,127 L24,131 L23,118 L18,115 L17,113 Z M16,125 L14,127 L17,127 Z " fill="#000000" transform="translate(187,14)"/>
<path d="M0,0 L16,1 L23,5 L28,8 L32,14 L37,20 L40,27 L44,37 L44,59 L40,67 L35,69 L28,70 L28,72 L29,76 L28,79 L35,78 L34,82 L40,89 L42,94 L41,101 L42,110 L40,120 L38,124 L37,134 L32,138 L20,144 L15,142 L9,139 L6,136 L2,120 L0,117 L-1,107 L-3,101 L-2,96 L0,93 L2,93 L4,87 L8,82 L17,80 L16,78 L9,77 L9,75 L6,75 L7,71 L11,69 L-1,63 L-5,58 L-10,53 L-12,49 L-14,40 L-16,37 L-16,19 L-13,10 L-12,7 L-6,2 Z M14,71 L17,74 L21,73 L21,71 Z " fill="#000000" transform="translate(305,0)"/>
<path d="M0,0 L6,0 L16,5 L20,10 L23,13 L27,18 L27,20 L29,20 L31,26 L34,31 L33,39 L35,44 L33,54 L30,63 L23,77 L19,83 L13,83 L11,84 L3,84 L-3,81 L-5,76 L-10,74 L-14,70 L-17,63 L-17,41 L-13,25 L-9,15 L-5,6 Z " fill="#000000" transform="translate(87,92)"/>
<path d="M0,0 L8,3 L13,8 L17,14 L20,21 L22,27 L24,39 L25,45 L27,45 L29,50 L29,58 L28,59 L27,67 L18,75 L13,78 L9,79 L-6,79 L-8,78 L-9,73 L-14,69 L-19,59 L-20,58 L-21,38 L-21,23 L-18,13 L-12,4 L-5,1 Z " fill="#000000" transform="translate(426,42)"/>
<path d="M0,0 L11,0 L19,6 L24,11 L27,15 L26,21 L20,31 L25,32 L26,35 L24,39 L20,40 L22,46 L21,55 L20,59 L16,62 L14,62 L14,65 L20,67 L19,70 L15,71 L10,67 L2,65 L-3,62 L-4,60 L-4,52 L-9,42 L-13,31 L-13,12 L-8,2 Z " fill="#000000" transform="translate(335,151)"/>
<path d="M0,0 L4,1 L5,2 L13,3 L14,4 L15,11 L19,21 L22,28 L22,45 L20,52 L17,57 L14,67 L12,68 L1,68 L-5,62 L-5,60 L-9,58 L-12,53 L-12,39 L-14,39 L-17,24 L-19,21 L-19,10 L-16,7 L-4,4 Z M0,23 L-1,31 L2,33 L3,30 L3,23 Z M1,35 Z M0,36 L-4,42 L-3,49 L0,51 L1,57 L8,58 L11,55 L13,50 L12,49 L12,44 L13,40 L11,39 L4,40 Z " fill="#000000" transform="translate(215,161)"/>
<path d="M0,0 L4,1 L6,3 L6,6 L4,6 L6,9 L9,10 L10,20 L15,26 L15,43 L10,55 L7,58 L1,60 L-5,60 L-9,57 L-13,50 L-15,44 L-17,43 L-19,38 L-20,27 L-21,26 L-21,19 L-18,12 L-16,10 L-1,6 Z " fill="#000000" transform="translate(432,126)"/>
<path d="M0,0 L2,1 L2,6 L6,7 L6,9 L10,11 L13,13 L14,24 L17,28 L18,39 L20,39 L23,43 L23,55 L19,56 L18,51 L14,35 L9,32 L5,35 L6,40 L9,43 L10,52 L16,54 L19,62 L21,66 L17,67 L8,59 L8,57 L4,55 L-3,44 L-7,40 L-11,33 L-14,28 L-15,24 L-15,8 L-23,8 L-25,7 L-25,2 L-8,1 L-7,4 L-2,2 Z M7,26 L9,28 L9,26 Z " fill="#000000" transform="translate(126,209)"/>
<path d="M0,0 L4,0 L3,4 L-2,7 L5,6 L6,11 L8,11 L8,5 L11,0 L15,1 L19,10 L18,25 L14,29 L6,33 L1,33 L-7,28 L-12,20 L-12,8 L-15,7 L-13,2 L-7,3 Z " fill="#000000" transform="translate(102,176)"/>
<path d="M0,0 L5,1 L4,4 L2,4 L2,10 L-11,13 L-17,20 L-20,20 L-20,9 L-13,6 L-4,2 Z " fill="#000000" transform="translate(233,258)"/>
<path d="M0,0 L5,1 L7,2 L7,5 L4,7 L5,13 L1,18 L-4,24 L-7,22 L-5,13 L-1,8 L-1,1 Z " fill="#000000" transform="translate(328,335)"/>
<path d="M0,0 L4,1 L3,5 L-2,13 L-6,14 L-7,13 L-7,6 L-3,2 Z " fill="#000000" transform="translate(357,413)"/>
<path d="M0,0 L4,1 L5,5 L2,9 L0,9 L-1,14 L-3,17 L-7,17 L-6,12 L-3,9 L-2,2 Z " fill="#000000" transform="translate(350,370)"/>
<path d="M0,0 L4,1 L6,2 L5,6 L2,11 L-1,12 L-4,10 L-4,3 Z " fill="#000000" transform="translate(363,363)"/>
<path d="M0,0 L4,1 L4,8 L1,9 L0,14 L-4,15 L-3,11 L-1,1 Z " fill="#000000" transform="translate(238,214)"/>
<path d="M0,0 L4,0 L4,3 L-7,6 L-13,6 L-13,3 L-10,1 Z " fill="#000000" transform="translate(234,389)"/>
<path d="M0,0 L4,0 L3,5 L1,7 L-5,7 L-8,5 L-7,2 Z " fill="#000000" transform="translate(359,222)"/>
<path d="M0,0 L4,0 L3,5 L-3,11 L-5,11 L-4,4 Z " fill="#000000" transform="translate(344,366)"/>
<path d="M0,0 L4,1 L4,6 L2,6 L2,8 L-3,8 L-3,2 Z " fill="#000000" transform="translate(400,314)"/>
<path d="M0,0 L5,0 L6,4 L6,7 L1,7 L-2,5 L-1,1 Z " fill="#000000" transform="translate(232,236)"/>
<path d="M0,0 L9,1 L8,6 L4,5 L-1,3 Z " fill="#000000" transform="translate(338,223)"/>
<path d="M0,0 L4,1 L3,5 L0,8 L-4,7 L-3,3 Z " fill="#000000" transform="translate(311,410)"/>
<path d="M0,0 L2,1 L2,7 L0,9 L-3,9 L-4,3 Z " fill="#000000" transform="translate(243,226)"/>
<path d="M0,0 L8,0 L10,2 L10,5 L2,4 Z " fill="#000000" transform="translate(37,410)"/>
<path d="M0,0 L9,2 L8,5 L0,5 L-1,1 Z " fill="#000000" transform="translate(26,407)"/>
<path d="M0,0 L4,1 L5,5 L2,7 L-2,6 L-1,1 Z " fill="#000000" transform="translate(322,265)"/>
<path d="M0,0 L3,0 L3,2 L7,4 L6,8 L2,6 L0,4 Z " fill="#000000" transform="translate(215,284)"/>
<path d="M0,0 L4,0 L4,6 L0,7 L-1,6 L-1,1 Z " fill="#000000" transform="translate(359,387)"/>
<path d="M0,0 L4,0 L3,5 L-1,7 L-2,2 Z " fill="#000000" transform="translate(321,400)"/>
<path d="M0,0 L5,1 L5,3 L2,5 L-2,5 L-3,1 Z " fill="#000000" transform="translate(147,281)"/>
<path d="M0,0 L5,1 L4,6 L0,5 Z " fill="#000000" transform="translate(330,383)"/>
<path d="M0,0 L2,1 L0,7 L-3,8 L-4,4 Z " fill="#000000" transform="translate(350,342)"/>
<path d="M0,0 L3,1 L3,6 L-2,5 L-2,1 Z " fill="#000000" transform="translate(386,329)"/>
<path d="M0,0 L4,0 L4,4 L-2,5 L-1,1 Z " fill="#000000" transform="translate(257,326)"/>
<path d="M0,0 L6,0 L5,5 L0,3 Z " fill="#000000" transform="translate(467,248)"/>
<path d="M0,0 L3,1 L3,3 L0,5 L-4,5 L-4,2 Z " fill="#000000" transform="translate(205,398)"/>
<path d="M0,0 L4,0 L4,5 L-1,4 Z " fill="#000000" transform="translate(245,240)"/>
<path d="M0,0 L5,0 L4,3 L-2,4 Z " fill="#000000" transform="translate(231,399)"/>
<path d="M0,0 L4,1 L3,5 L-1,4 Z " fill="#000000" transform="translate(332,252)"/>
<path d="M0,0 L5,2 L5,4 L0,4 Z " fill="#000000" transform="translate(228,290)"/>
<path d="M0,0 L3,1 L2,5 L-1,5 Z " fill="#000000" transform="translate(298,275)"/>
<path d="M0,0 L4,1 L4,3 L0,4 Z " fill="#000000" transform="translate(234,248)"/>
<path d="M0,0 L3,0 L3,4 L-1,3 Z " fill="#000000" transform="translate(48,451)"/>
<path d="M0,0 L4,1 L4,4 L0,3 Z " fill="#000000" transform="translate(243,272)"/>
<path d="M0,0 L3,0 L3,3 L0,4 Z " fill="#000000" transform="translate(427,123)"/>
<path d="M0,0 L4,0 L4,3 L0,2 Z " fill="#000000" transform="translate(225,339)"/>
<path d="M0,0 L4,0 L4,3 L0,2 Z " fill="#000000" transform="translate(221,242)"/>
<path d="M0,0 L4,0 L3,3 L0,2 Z " fill="#000000" transform="translate(248,255)"/>
<path d="M0,0 L3,0 L3,3 L0,3 Z " fill="#000000" transform="translate(113,482)"/>
<path d="M0,0 L3,0 L3,3 L0,3 Z " fill="#000000" transform="translate(324,306)"/>
<path d="M0,0 L3,0 L3,3 L0,3 Z " fill="#000000" transform="translate(348,232)"/>
<path d="M0,0 L2,0 L2,3 L-1,3 Z " fill="#000000" transform="translate(460,480)"/>
<path d="M0,0 L3,1 L3,3 L0,3 Z " fill="#000000" transform="translate(220,349)"/>
<path d="M0,0 L4,0 L4,2 L0,2 Z " fill="#000000" transform="translate(238,268)"/>
<path d="M0,0 L3,0 L3,2 L0,2 Z " fill="#000000" transform="translate(191,419)"/>
</svg>
