<?xml version="1.0" encoding="UTF-8"?>
<!-- Generator: visioncortex VTracer 0.6.4 -->
<svg version="1.1" xmlns="http://www.w3.org/2000/svg" width="339" height="430">
<path d="M0,0 L13,0 L11,2 L-26,16 L-53,27 L-80,39 L-105,52 L-118,61 L-132,73 L-148,88 L-163,104 L-176,121 L-188,141 L-196,160 L-200,176 L-201,182 L-201,210 L-197,227 L-191,240 L-184,251 L-175,260 L-164,267 L-153,272 L-138,276 L-125,276 L-113,273 L-97,265 L-84,255 L-73,245 L-62,231 L-53,217 L-45,200 L-41,185 L-39,166 L-9,166 L13,167 L12,120 L8,105 L1,91 L-7,81 L-16,72 L-27,65 L-30,62 L88,62 L84,66 L74,74 L65,83 L58,94 L54,102 L52,110 L51,119 L50,167 L67,167 L78,163 L87,157 L96,148 L106,133 L109,127 L110,127 L110,240 L107,237 L100,228 L93,221 L80,213 L68,209 L51,208 L51,376 L54,388 L61,400 L70,410 L84,420 L101,429 L101,430 L-35,430 L-30,426 L-19,419 L-5,408 L4,398 L11,384 L12,377 L13,208 L-33,208 L-34,213 L-42,231 L-52,250 L-61,264 L-70,276 L-82,290 L-93,300 L-108,310 L-123,316 L-132,318 L-154,318 L-169,314 L-183,308 L-196,299 L-206,289 L-216,274 L-224,254 L-228,235 L-229,227 L-229,191 L-226,175 L-219,154 L-210,134 L-201,117 L-193,105 L-183,92 L-174,82 L-161,69 L-142,55 L-120,42 L-97,30 L-71,19 L-38,8 L-12,2 Z " fill="#000000" transform="translate(229,0)"/>
</svg>
