<?xml version="1.0" encoding="UTF-8"?>
<!-- Generator: visioncortex VTracer 0.6.4 -->
<svg version="1.1" xmlns="http://www.w3.org/2000/svg" width="500" height="509">
<path d="M0,0 L5,1 L4,8 L-1,17 L-11,33 L-21,54 L-21,56 L-18,56 L-18,62 L-25,72 L-32,84 L-36,92 L-37,95 L-35,95 L-36,102 L-42,112 L-49,123 L-58,137 L-61,143 L-66,152 L-62,161 L-58,166 L-59,170 L-64,171 L-72,164 L-73,162 L-75,167 L-73,170 L-74,175 L-72,177 L-70,185 L-69,190 L-65,190 L-59,202 L-55,214 L-55,217 L-42,214 L-33,216 L-34,221 L-42,222 L-39,223 L-22,220 L-16,221 L-12,223 L-13,228 L-31,233 L-38,235 L-39,236 L-47,237 L-47,239 L-49,240 L-49,248 L-47,249 L-47,266 L-51,280 L-53,293 L-54,297 L-49,283 L-46,284 L-47,293 L-58,320 L-61,329 L-70,349 L-74,360 L-72,360 L-70,354 L-63,341 L-59,342 L-60,347 L-67,361 L-72,367 L-74,373 L-79,377 L-90,391 L-93,392 L-94,396 L-99,401 L-106,407 L-121,416 L-123,419 L-123,423 L-131,426 L-136,428 L-140,432 L-153,436 L-174,445 L-196,450 L-217,456 L-219,456 L-220,463 L-224,469 L-226,469 L-227,476 L-230,479 L-233,479 L-240,499 L-242,503 L-246,503 L-248,509 L-252,509 L-249,495 L-249,492 L-252,498 L-255,499 L-256,493 L-253,484 L-253,477 L-254,473 L-258,474 L-264,459 L-266,451 L-273,448 L-284,445 L-294,440 L-293,444 L-288,445 L-283,448 L-283,450 L-289,449 L-305,441 L-316,434 L-328,424 L-335,419 L-340,418 L-345,416 L-351,408 L-361,398 L-367,393 L-372,385 L-374,381 L-376,377 L-378,372 L-376,370 L-380,371 L-384,371 L-392,355 L-397,342 L-402,332 L-402,330 L-410,333 L-417,332 L-417,328 L-403,323 L-402,321 L-400,321 L-400,319 L-406,320 L-418,325 L-437,330 L-453,334 L-477,342 L-491,346 L-495,346 L-495,343 L-461,329 L-452,327 L-452,324 L-461,326 L-464,324 L-464,321 L-447,316 L-438,312 L-438,309 L-435,308 L-434,306 L-448,311 L-457,312 L-456,308 L-446,304 L-443,302 L-427,298 L-411,293 L-410,282 L-412,282 L-413,279 L-412,257 L-411,246 L-413,246 L-412,235 L-408,225 L-408,218 L-402,200 L-395,185 L-392,179 L-396,175 L-393,165 L-385,152 L-379,144 L-376,140 L-373,141 L-378,157 L-371,148 L-375,131 L-376,126 L-378,126 L-380,119 L-383,105 L-392,75 L-395,61 L-394,57 L-391,60 L-388,65 L-395,39 L-399,29 L-402,13 L-402,6 L-398,7 L-395,17 L-390,32 L-386,38 L-382,52 L-380,55 L-376,56 L-366,80 L-365,83 L-365,77 L-362,78 L-355,96 L-350,108 L-345,122 L-345,124 L-343,122 L-348,110 L-349,103 L-345,105 L-340,113 L-339,119 L-329,113 L-319,106 L-312,102 L-306,98 L-300,94 L-296,93 L-294,97 L-283,94 L-284,90 L-267,83 L-249,81 L-242,82 L-240,83 L-240,85 L-227,83 L-215,86 L-191,90 L-171,96 L-164,100 L-156,102 L-165,97 L-164,94 L-159,95 L-153,97 L-148,99 L-137,106 L-118,118 L-99,131 L-99,135 L-108,134 L-113,132 L-113,133 L-106,139 L-99,142 L-96,142 L-87,128 L-78,112 L-73,105 L-67,94 L-60,82 L-57,76 L-46,58 L-43,55 L-38,56 L-36,52 L-27,39 L-21,29 L-17,22 L-12,17 L-5,8 Z M-380,58 L-379,61 Z M-24,59 Z M-25,60 L-24,62 Z M-379,62 L-378,64 Z M-26,62 Z M-27,64 Z M-28,65 Z M-387,70 L-386,72 Z M-386,73 L-385,76 Z M-385,76 L-384,79 Z M-384,79 L-383,81 Z M-364,86 L-363,88 Z M-363,89 L-362,91 Z M-249,116 L-264,119 L-275,120 L-275,118 L-279,119 L-293,125 L-304,132 L-318,142 L-326,146 L-333,152 L-335,152 L-337,148 L-341,152 L-339,157 L-334,169 L-325,192 L-321,202 L-319,210 L-315,220 L-313,227 L-314,231 L-318,227 L-315,236 L-311,247 L-309,245 L-303,223 L-303,219 L-299,219 L-302,239 L-302,246 L-298,245 L-293,238 L-289,238 L-290,245 L-292,249 L-288,247 L-276,237 L-274,236 L-278,245 L-285,253 L-285,256 L-278,255 L-255,250 L-248,249 L-249,256 L-256,257 L-264,260 L-264,262 L-249,260 L-247,261 L-245,260 L-245,258 L-229,255 L-222,253 L-226,251 L-228,251 L-227,248 L-216,245 L-194,240 L-159,232 L-160,225 L-154,226 L-154,220 L-158,210 L-161,201 L-159,201 L-157,205 L-151,216 L-149,214 L-145,174 L-143,174 L-142,203 L-140,205 L-139,213 L-136,210 L-131,200 L-125,190 L-119,186 L-115,176 L-121,167 L-137,151 L-145,144 L-147,140 L-164,130 L-179,123 L-188,122 L-183,126 L-172,130 L-168,134 L-168,139 L-170,140 L-171,143 L-173,144 L-175,139 L-179,136 L-198,133 L-205,129 L-207,129 L-206,123 L-200,124 L-195,126 L-192,126 L-193,122 L-203,120 L-207,121 L-208,117 L-228,117 Z M-117,129 Z M-380,159 Z M-109,170 Z M-360,172 L-367,182 L-369,188 L-367,188 L-367,194 L-373,204 L-379,216 L-378,220 L-375,219 L-373,208 L-371,208 L-371,220 L-374,231 L-376,233 L-378,242 L-378,260 L-376,280 L-369,278 L-369,277 L-374,277 L-372,273 L-359,270 L-355,266 L-355,264 L-341,261 L-346,255 L-346,248 L-341,250 L-338,251 L-337,246 L-335,245 L-342,227 L-346,218 L-346,209 L-354,182 L-356,175 Z M-110,172 Z M-370,188 Z M-371,190 Z M-70,193 L-71,197 L-69,197 L-68,194 Z M-92,198 L-96,204 L-99,215 L-86,212 L-88,206 L-91,198 Z M-150,217 Z M-380,221 L-379,223 Z M-320,224 Z M-319,226 Z M-154,226 L-153,229 Z M-310,247 Z M-206,247 Z M-210,248 Z M-51,248 Z M-293,249 Z M-214,249 L-210,250 Z M-89,249 L-92,251 L-110,254 L-107,256 L-105,256 L-106,262 L-110,263 L-111,265 L-125,269 L-128,287 L-129,289 L-136,292 L-145,307 L-151,317 L-153,322 L-148,317 L-138,303 L-135,300 L-131,293 L-127,292 L-127,297 L-140,320 L-146,329 L-151,336 L-148,337 L-151,346 L-158,354 L-163,354 L-165,351 L-169,351 L-173,357 L-175,366 L-174,369 L-171,366 L-168,365 L-171,371 L-172,374 L-174,374 L-178,380 L-186,391 L-193,402 L-202,417 L-203,424 L-204,427 L-193,424 L-194,422 L-196,422 L-195,418 L-187,417 L-185,416 L-185,414 L-176,411 L-155,402 L-140,394 L-131,388 L-127,383 L-124,378 L-124,376 L-130,377 L-127,371 L-119,361 L-114,356 L-102,346 L-97,338 L-91,325 L-94,325 L-98,333 L-100,333 L-99,326 L-96,316 L-89,301 L-84,288 L-81,280 L-82,268 L-85,249 Z M-218,250 L-214,251 Z M-222,251 L-218,252 Z M-237,262 L-247,266 L-253,269 L-253,270 L-245,269 L-234,265 L-228,264 L-228,263 Z M-228,267 Z M-231,268 Z M-256,270 Z M-260,271 L-263,274 L-263,276 L-259,274 L-256,271 Z M-233,269 L-246,272 L-251,275 L-251,276 L-246,277 L-247,279 L-255,281 L-255,283 L-267,284 L-287,290 L-284,299 L-278,315 L-272,330 L-271,330 L-271,323 L-277,299 L-273,300 L-269,309 L-265,322 L-262,348 L-264,349 L-266,364 L-264,365 L-262,373 L-260,373 L-256,393 L-248,412 L-242,423 L-239,421 L-233,406 L-228,393 L-223,380 L-215,367 L-211,359 L-214,359 L-209,347 L-196,322 L-188,308 L-184,301 L-177,291 L-177,289 L-175,289 L-170,281 L-164,270 L-183,272 L-216,279 L-224,282 L-232,282 L-233,280 L-226,278 L-221,274 L-223,273 L-228,275 L-234,275 L-231,269 Z M-356,272 Z M-359,273 L-365,275 L-361,276 L-356,274 Z M-367,276 Z M-273,276 Z M-137,280 Z M-138,282 L-137,284 Z M-139,284 Z M-140,285 Z M-434,308 Z M-360,312 Z M-327,312 Z M-362,313 Z M-332,313 L-360,322 L-371,322 L-367,332 L-363,334 L-354,353 L-351,360 L-345,372 L-341,375 L-336,376 L-326,385 L-315,394 L-310,400 L-309,402 L-300,403 L-290,412 L-282,416 L-280,415 L-286,399 L-292,385 L-295,379 L-298,364 L-301,355 L-304,346 L-306,338 L-309,332 L-315,320 L-317,316 L-328,336 L-331,344 L-336,349 L-334,340 L-337,338 L-336,334 L-327,314 L-327,313 Z M-91,320 Z M-154,322 Z M-92,322 L-91,324 Z M-155,323 L-154,325 Z M-156,325 L-155,327 Z M-157,327 Z M-158,328 Z M-159,330 Z M-271,331 L-270,333 Z M-160,331 Z M-270,335 Z M-157,339 L-156,341 Z M-160,342 L-159,344 L-158,342 Z M-161,344 Z M-162,346 Z M-164,350 Z M-211,358 Z M-75,360 L-79,365 L-78,367 L-74,362 Z M-80,367 L-80,370 Z M-176,369 Z M-82,370 Z M-83,371 Z M-124,375 Z M-298,437 Z M-296,438 Z M-230,466 Z M-231,469 Z M-232,471 L-231,473 Z M-233,476 Z " fill="#050505" transform="translate(495,0)"/>
</svg>
