<?xml version="1.0" encoding="UTF-8"?>
<!-- Generator: visioncortex VTracer 0.6.4 -->
<svg version="1.1" xmlns="http://www.w3.org/2000/svg" width="501" height="500">
<path d="M0,0 L30,0 L50,4 L66,10 L83,19 L96,29 L105,37 L114,48 L122,59 L130,74 L137,95 L140,110 L140,143 L136,162 L130,178 L122,193 L114,204 L105,214 L95,224 L79,236 L60,247 L42,255 L12,265 L-24,273 L-91,285 L-79,295 L-62,307 L-43,319 L-40,321 L-41,325 L-54,335 L-66,346 L-75,355 L-87,371 L-91,370 L-99,357 L-110,339 L-122,321 L-132,308 L-137,303 L-155,321 L-162,329 L-169,336 L-176,344 L-188,357 L-195,365 L-207,379 L-219,393 L-230,407 L-240,419 L-251,433 L-261,446 L-275,464 L-289,483 L-301,499 L-305,500 L-316,481 L-324,471 L-329,466 L-339,457 L-354,448 L-361,444 L-360,440 L-339,424 L-319,409 L-303,396 L-290,386 L-274,373 L-257,359 L-244,348 L-230,336 L-217,324 L-209,317 L-196,305 L-181,291 L-170,280 L-165,276 L-166,273 L-186,258 L-205,246 L-230,231 L-232,229 L-232,226 L-218,215 L-204,203 L-195,192 L-186,181 L-182,179 L-166,205 L-152,224 L-147,230 L-145,223 L-134,158 L-127,126 L-121,106 L-111,82 L-102,66 L-92,52 L-80,39 L-68,28 L-53,18 L-37,10 L-24,5 L-7,1 Z M-4,37 L-21,41 L-37,48 L-48,55 L-58,64 L-67,73 L-79,90 L-92,115 L-101,140 L-107,163 L-112,190 L-115,218 L-116,240 L-116,254 L-115,255 L-102,255 L-71,253 L-41,249 L-13,243 L13,235 L36,225 L55,214 L68,204 L80,193 L89,181 L96,167 L101,151 L103,139 L103,120 L100,103 L94,87 L86,73 L75,61 L67,54 L54,46 L38,40 L24,37 Z " fill="#000000" transform="translate(361,0)"/>
</svg>
