<?xml version="1.0" encoding="UTF-8"?>
<!-- Generator: visioncortex VTracer 0.6.4 -->
<svg version="1.1" xmlns="http://www.w3.org/2000/svg" width="500" height="1091">
<path d="M0,0 L49,0 L79,5 L103,12 L119,18 L138,27 L156,38 L168,47 L179,56 L198,75 L211,92 L222,111 L231,131 L238,155 L241,173 L242,184 L242,211 L240,232 L236,256 L229,284 L218,317 L207,343 L195,368 L184,389 L169,414 L153,438 L143,452 L133,465 L122,479 L110,493 L96,508 L84,521 L76,528 L66,540 L63,546 L63,553 L67,556 L70,557 L92,557 L114,553 L137,547 L163,538 L183,529 L195,522 L200,516 L201,514 L203,514 L203,535 L206,540 L217,544 L242,546 L260,560 L274,570 L274,573 L260,583 L242,596 L219,598 L208,601 L204,605 L203,607 L203,628 L201,628 L197,622 L186,615 L167,606 L139,596 L113,589 L89,585 L72,585 L64,588 L63,590 L63,596 L69,606 L78,616 L79,619 L71,623 L67,630 L64,639 L62,653 L62,688 L65,723 L71,769 L82,838 L97,929 L104,979 L107,1009 L108,1024 L109,1067 L111,1085 L112,1091 L109,1090 L105,1078 L98,1067 L89,1057 L79,1050 L65,1043 L46,1038 L38,1037 L10,1037 L-7,1040 L-19,1044 L-31,1050 L-43,1059 L-53,1071 L-59,1083 L-61,1091 L-64,1090 L-62,1081 L-61,1070 L-60,1028 L-58,999 L-51,943 L-42,887 L-27,796 L-19,741 L-15,705 L-14,691 L-14,651 L-17,635 L-21,626 L-26,621 L-31,619 L-29,615 L-22,608 L-16,599 L-15,596 L-15,589 L-20,586 L-24,585 L-41,585 L-65,589 L-87,595 L-114,604 L-134,613 L-145,619 L-151,624 L-152,628 L-154,628 L-155,607 L-157,603 L-166,599 L-182,597 L-194,596 L-212,583 L-226,573 L-226,570 L-207,556 L-194,546 L-176,545 L-162,542 L-156,538 L-155,535 L-154,515 L-152,515 L-149,520 L-139,527 L-120,536 L-92,546 L-70,552 L-51,556 L-44,557 L-22,557 L-16,554 L-15,553 L-15,546 L-21,536 L-32,524 L-56,500 L-63,492 L-75,478 L-86,464 L-100,445 L-115,423 L-127,404 L-140,381 L-154,354 L-165,329 L-174,305 L-182,280 L-189,250 L-193,222 L-194,209 L-194,186 L-192,167 L-187,144 L-180,124 L-172,107 L-160,88 L-151,77 L-142,67 L-129,54 L-112,41 L-98,32 L-82,23 L-58,13 L-35,6 L-15,2 Z M20,46 L-5,48 L-28,53 L-48,60 L-71,72 L-87,84 L-97,93 L-107,103 L-117,116 L-128,134 L-135,149 L-140,164 L-144,184 L-144,219 L-141,246 L-136,272 L-130,294 L-122,318 L-111,344 L-101,364 L-90,383 L-79,400 L-69,414 L-59,427 L-50,438 L-39,450 L-32,458 L-25,465 L-17,472 L-8,480 L0,484 L6,484 L10,479 L12,469 L11,452 L6,427 L-1,402 L-11,375 L-21,355 L-28,346 L-32,345 L-32,343 L-30,344 L-11,344 L-6,341 L-2,332 L0,318 L1,303 L14,286 L23,273 L23,271 L26,271 L27,275 L37,288 L49,304 L51,329 L55,340 L61,344 L79,344 L81,343 L76,348 L69,357 L60,376 L51,400 L44,424 L39,447 L38,454 L38,475 L41,482 L43,484 L52,483 L61,477 L73,466 L90,449 L97,441 L111,424 L125,405 L138,385 L150,364 L158,348 L167,329 L178,299 L186,269 L191,241 L193,222 L193,182 L189,163 L182,144 L172,125 L162,111 L151,98 L141,88 L124,75 L105,64 L86,56 L64,50 L45,47 Z " fill="#000000" transform="translate(226,0)"/>
</svg>
