<?xml version="1.0" encoding="UTF-8"?>
<!-- Generator: visioncortex VTracer 0.6.4 -->
<svg version="1.1" xmlns="http://www.w3.org/2000/svg" width="662" height="500">
<path d="M0,0 L8,0 L13,5 L17,10 L19,17 L25,25 L29,37 L31,42 L32,71 L30,76 L30,86 L34,105 L33,110 L28,110 L26,107 L23,110 L18,109 L6,134 L4,147 L2,170 L2,179 L5,192 L10,200 L20,210 L27,216 L29,200 L31,197 L36,198 L40,204 L43,213 L45,219 L52,201 L54,199 L59,200 L60,202 L61,224 L69,236 L69,243 L63,253 L54,264 L46,269 L29,272 L-7,273 L-21,278 L-14,281 L-12,283 L-12,298 L-14,306 L-21,330 L-25,347 L-28,353 L-33,354 L-34,353 L-35,344 L-38,347 L-42,347 L-47,360 L-54,379 L-60,395 L-65,409 L-70,421 L-74,431 L-83,452 L-87,462 L-95,478 L-102,490 L-105,495 L-111,500 L-115,500 L-115,492 L-110,480 L-106,470 L-100,454 L-101,453 L-105,459 L-110,458 L-109,452 L-100,423 L-97,411 L-96,407 L-101,417 L-107,426 L-112,427 L-113,424 L-115,424 L-116,428 L-120,433 L-128,440 L-132,442 L-134,440 L-133,433 L-128,423 L-118,398 L-110,374 L-104,356 L-102,345 L-105,348 L-109,355 L-119,373 L-123,378 L-128,379 L-131,373 L-138,380 L-152,399 L-156,403 L-161,403 L-160,395 L-148,369 L-148,366 L-156,378 L-165,392 L-168,397 L-170,397 L-172,401 L-180,415 L-182,415 L-184,419 L-190,427 L-193,430 L-198,430 L-199,429 L-198,420 L-190,404 L-180,382 L-169,359 L-164,348 L-168,349 L-172,351 L-178,351 L-180,350 L-185,353 L-192,361 L-202,370 L-210,377 L-219,386 L-220,388 L-222,388 L-224,392 L-235,403 L-242,411 L-254,422 L-262,429 L-266,431 L-266,433 L-272,437 L-276,436 L-276,431 L-271,426 L-269,426 L-267,422 L-259,412 L-252,403 L-251,400 L-246,396 L-239,387 L-237,387 L-235,381 L-231,379 L-227,372 L-222,367 L-221,364 L-217,361 L-215,361 L-213,357 L-205,347 L-203,343 L-201,343 L-200,340 L-198,339 L-197,336 L-193,335 L-191,331 L-188,325 L-184,322 L-183,319 L-178,314 L-173,308 L-167,301 L-167,299 L-185,317 L-193,324 L-206,335 L-210,337 L-211,340 L-213,340 L-215,344 L-216,345 L-221,345 L-223,343 L-236,356 L-245,367 L-257,381 L-269,394 L-278,404 L-291,419 L-297,426 L-305,433 L-310,439 L-318,446 L-331,456 L-337,456 L-336,450 L-327,435 L-319,424 L-312,415 L-304,403 L-295,391 L-288,380 L-291,381 L-304,387 L-309,387 L-310,383 L-304,372 L-296,362 L-289,352 L-307,359 L-315,360 L-318,358 L-318,352 L-312,343 L-331,352 L-349,363 L-363,370 L-379,380 L-390,387 L-396,387 L-397,384 L-391,377 L-381,369 L-386,371 L-402,379 L-425,390 L-443,400 L-453,405 L-468,412 L-500,427 L-523,436 L-530,437 L-536,434 L-535,430 L-525,423 L-507,413 L-498,408 L-509,406 L-510,401 L-529,407 L-541,410 L-566,420 L-581,425 L-588,427 L-593,425 L-592,421 L-581,413 L-564,404 L-548,396 L-530,386 L-503,372 L-487,364 L-471,355 L-469,354 L-487,355 L-504,356 L-525,358 L-531,358 L-534,356 L-533,353 L-525,349 L-499,339 L-474,332 L-458,327 L-434,318 L-424,315 L-432,315 L-436,312 L-436,309 L-427,305 L-386,294 L-374,291 L-381,288 L-381,284 L-378,281 L-361,277 L-340,273 L-351,271 L-372,264 L-381,259 L-396,251 L-410,246 L-416,245 L-425,245 L-437,246 L-439,245 L-439,240 L-425,225 L-416,218 L-402,211 L-385,205 L-357,200 L-344,196 L-334,191 L-323,184 L-297,174 L-287,168 L-274,159 L-259,151 L-243,145 L-231,140 L-228,137 L-218,123 L-203,107 L-195,100 L-187,94 L-174,85 L-160,80 L-144,78 L-111,78 L-103,74 L-97,71 L-87,67 L-74,56 L-53,44 L-42,33 L-34,27 L-22,20 L-11,7 Z M-121,102 L-128,105 L-133,110 L-141,116 L-146,121 L-151,127 L-153,134 L-148,131 L-140,128 L-130,121 L-117,116 L-112,104 L-112,102 Z M24,104 Z M-161,292 L-163,295 L-159,293 Z M-164,295 Z M-165,297 Z M-221,340 Z M-311,341 Z M-222,341 Z M-101,342 Z M-163,345 Z M-288,350 Z M-467,352 Z M-377,364 Z M-378,365 Z M-379,366 Z M-380,367 Z M-130,371 Z M-93,397 L-92,399 Z M-94,401 Z M-96,441 L-95,443 Z M-97,443 L-96,446 Z M-98,446 L-97,448 Z M-99,448 L-98,450 Z " fill="#000000" transform="translate(593,0)"/>
</svg>
