<?xml version="1.0" encoding="UTF-8"?>
<!-- Generator: visioncortex VTracer 0.6.4 -->
<svg version="1.1" xmlns="http://www.w3.org/2000/svg" width="505" height="500">
<path d="M0,0 L3,0 L20,51 L20,54 L37,56 L57,61 L62,63 L64,59 L72,55 L81,56 L87,60 L91,67 L92,76 L106,84 L122,96 L127,95 L150,83 L176,70 L179,70 L177,76 L153,124 L154,129 L164,143 L170,153 L171,154 L179,154 L186,158 L200,161 L212,160 L224,160 L236,158 L242,157 L248,160 L248,172 L241,190 L233,200 L232,202 L231,217 L226,233 L225,236 L254,246 L254,249 L194,269 L192,272 L187,296 L184,308 L189,314 L190,317 L190,325 L187,331 L180,337 L180,347 L183,353 L183,359 L181,361 L177,371 L173,376 L167,379 L160,380 L174,408 L183,425 L183,427 L178,426 L122,398 L117,400 L105,409 L93,416 L97,419 L97,422 L91,423 L96,426 L99,431 L113,438 L121,441 L122,445 L119,448 L114,448 L128,455 L136,457 L134,462 L132,463 L123,463 L116,460 L101,457 L99,456 L99,459 L97,460 L89,460 L80,457 L73,456 L67,457 L65,457 L89,464 L88,468 L76,468 L58,465 L46,464 L30,459 L17,455 L15,464 L3,500 L0,500 L-20,440 L-25,438 L-50,433 L-62,430 L-68,435 L-70,436 L-81,436 L-87,432 L-91,426 L-92,418 L-92,416 L-107,407 L-118,399 L-123,400 L-177,427 L-180,426 L-151,368 L-152,366 L-175,373 L-188,376 L-194,376 L-194,371 L-176,364 L-174,364 L-174,362 L-177,362 L-177,359 L-184,361 L-191,361 L-191,357 L-175,350 L-176,349 L-214,363 L-229,368 L-237,370 L-241,370 L-241,366 L-218,356 L-217,353 L-211,350 L-212,346 L-198,339 L-201,338 L-200,333 L-191,328 L-189,328 L-190,321 L-198,326 L-203,326 L-202,321 L-201,319 L-204,318 L-204,315 L-199,311 L-201,312 L-214,322 L-219,324 L-219,318 L-217,316 L-224,320 L-226,316 L-214,304 L-211,302 L-213,301 L-211,297 L-201,289 L-192,280 L-190,280 L-191,268 L-202,265 L-251,249 L-251,246 L-215,234 L-194,227 L-191,227 L-191,218 L-187,198 L-183,185 L-190,177 L-191,175 L-191,165 L-187,159 L-182,155 L-179,154 L-171,154 L-169,155 L-167,149 L-157,134 L-164,110 L-167,88 L-177,68 L-177,65 L-168,67 L-173,62 L-177,58 L-177,56 L-171,55 L-166,58 L-165,47 L-163,44 L-161,44 L-158,48 L-158,52 L-153,53 L-150,58 L-149,64 L-138,69 L-123,75 L-106,83 L-100,81 L-92,76 L-92,69 L-88,61 L-83,57 L-80,56 L-71,56 L-64,60 L-63,63 L-41,57 L-40,55 L-38,55 L-39,51 L-32,49 L-46,40 L-61,32 L-61,28 L-55,28 L-32,39 L-35,35 L-35,32 L-26,34 L-13,41 L-10,30 Z M-30,40 Z M-29,41 Z M-22,41 Z M-21,42 L-21,44 L-24,44 L-24,46 L-26,46 L-24,50 L-19,54 L-17,54 L-19,57 L-28,55 L-31,54 L-31,56 L-34,57 L-29,61 L-20,67 L-18,70 L-20,71 L-17,74 L-22,74 L-18,77 L-16,78 L-17,92 L-19,96 L-19,102 L-20,103 L-35,105 L-50,110 L-61,110 L-74,100 L-88,94 L-112,85 L-131,76 L-146,70 L-152,67 L-154,62 L-155,66 L-159,62 L-162,59 L-162,64 L-164,65 L-163,66 L-162,73 L-164,74 L-162,78 L-162,94 L-159,113 L-149,146 L-145,160 L-143,163 L-143,170 L-153,185 L-157,192 L-153,190 L-141,184 L-135,183 L-142,192 L-153,204 L-167,217 L-178,226 L-183,232 L-177,230 L-168,222 L-162,221 L-166,228 L-175,236 L-174,238 L-160,227 L-152,224 L-148,219 L-148,217 L-140,216 L-135,212 L-129,211 L-135,220 L-148,236 L-161,252 L-170,263 L-181,275 L-181,277 L-185,279 L-200,294 L-199,296 L-192,296 L-195,300 L-194,303 L-191,303 L-192,307 L-193,309 L-189,310 L-179,305 L-178,308 L-150,292 L-130,280 L-119,273 L-102,264 L-83,252 L-59,236 L-48,228 L-26,213 L-20,212 L-20,215 L-24,217 L-37,228 L-48,237 L-63,250 L-74,259 L-87,270 L-99,279 L-106,283 L-117,292 L-136,304 L-162,318 L-175,323 L-175,325 L-181,327 L-188,331 L-184,332 L-177,333 L-177,335 L-186,338 L-183,343 L-189,345 L-204,352 L-204,354 L-198,353 L-174,344 L-164,341 L-158,341 L-162,346 L-162,348 L-167,351 L-165,352 L-163,351 L-155,351 L-153,352 L-152,355 L-157,356 L-161,358 L-161,361 L-172,366 L-169,367 L-126,353 L-99,342 L-74,330 L-59,321 L-46,313 L-41,311 L-45,321 L-49,329 L-54,345 L-56,360 L-56,375 L-53,392 L-46,408 L-38,418 L-24,432 L-14,439 L-4,444 L30,455 L45,459 L47,460 L59,460 L60,455 L63,453 L70,453 L71,452 L79,452 L85,455 L88,454 L85,453 L85,450 L87,450 L88,448 L94,450 L105,454 L116,455 L111,451 L100,444 L100,441 L110,442 L107,440 L98,435 L93,429 L84,423 L70,409 L69,407 L77,410 L80,413 L82,412 L65,396 L58,386 L54,373 L54,366 L61,370 L66,372 L76,386 L82,393 L87,396 L88,391 L81,381 L75,371 L74,368 L74,358 L86,361 L100,368 L112,377 L117,378 L127,374 L152,374 L157,375 L166,375 L171,372 L175,366 L179,357 L178,353 L176,348 L176,336 L177,329 L177,321 L175,318 L171,326 L166,338 L161,342 L155,344 L144,343 L131,340 L128,336 L127,330 L127,317 L123,322 L114,332 L109,334 L98,324 L91,314 L85,306 L76,298 L50,285 L48,285 L49,278 L60,263 L70,249 L78,240 L89,242 L108,248 L123,251 L126,251 L128,266 L129,270 L128,279 L133,276 L142,264 L149,253 L161,254 L181,254 L182,259 L185,261 L185,268 L183,272 L184,275 L194,263 L200,253 L213,250 L219,240 L227,216 L228,200 L238,186 L243,174 L244,170 L244,162 L239,161 L233,163 L226,164 L210,164 L207,165 L199,165 L172,160 L152,158 L132,158 L134,141 L129,135 L108,128 L89,122 L75,115 L57,101 L45,92 L33,81 L25,72 L14,63 L2,54 L-11,46 Z M-30,50 Z M-184,232 Z M-186,233 Z M-176,238 Z M182,275 Z M-200,296 Z M-201,297 Z M-201,302 Z M-205,305 Z M-206,306 Z M-207,307 Z M-208,308 Z M-209,309 Z M-211,310 Z M-192,310 Z M-212,311 Z M-213,312 Z M-199,318 Z M-190,332 Z M-195,337 Z M-188,339 Z M-190,340 Z M-170,352 Z M-171,353 Z M-173,357 Z M-174,367 Z M82,413 Z M83,414 Z M111,446 Z M117,455 Z M119,456 Z M59,460 Z " fill="#000000" transform="translate(251,0)"/>
<path d="M0,0 L14,0 L24,4 L34,13 L36,14 L36,17 L22,19 L8,24 L4,26 L-2,25 L-12,17 L-27,9 L-27,7 L-6,1 Z " fill="#000000" transform="translate(296,142)"/>
<path d="M0,0 L7,0 L6,4 L-3,10 L-18,15 L-30,17 L-37,17 L-38,12 L-36,10 Z M-8,6 Z M-11,7 Z M-14,8 Z M-18,9 Z M-21,10 Z M-25,11 Z " fill="#000000" transform="translate(38,369)"/>
<path d="M0,0 L17,0 L27,3 L31,5 L31,8 L24,9 L0,5 L-1,1 Z " fill="#000000" transform="translate(355,465)"/>
<path d="M0,0 L11,2 L23,6 L26,8 L24,12 L19,11 L2,6 L-1,4 Z " fill="#000000" transform="translate(159,25)"/>
</svg>
