<?xml version="1.0" encoding="UTF-8"?>
<!-- Generator: visioncortex VTracer 0.6.4 -->
<svg version="1.1" xmlns="http://www.w3.org/2000/svg" width="854" height="500">
<path d="M0,0 L50,0 L61,2 L75,7 L84,13 L85,16 L87,16 L90,24 L92,25 L98,17 L104,12 L109,10 L125,10 L140,15 L145,20 L149,23 L152,30 L154,27 L158,15 L164,10 L172,9 L180,11 L203,18 L216,26 L222,31 L224,32 L226,28 L244,28 L247,31 L265,41 L275,48 L284,53 L292,55 L307,56 L318,63 L325,71 L335,77 L350,80 L370,84 L402,92 L404,93 L403,97 L401,97 L401,99 L398,99 L398,101 L395,101 L395,103 L381,111 L350,123 L348,123 L346,127 L336,133 L325,137 L312,140 L297,144 L286,149 L276,149 L273,148 L273,146 L270,146 L270,142 L286,136 L300,128 L305,124 L308,118 L309,110 L304,113 L297,120 L292,125 L288,126 L281,126 L279,125 L279,109 L273,114 L270,119 L255,135 L246,142 L235,147 L213,152 L202,155 L192,159 L186,163 L156,163 L157,159 L178,138 L185,130 L191,123 L192,121 L192,96 L185,104 L185,106 L180,111 L169,124 L167,127 L165,127 L163,132 L161,133 L157,140 L152,146 L147,151 L142,154 L134,153 L134,149 L136,149 L137,145 L138,141 L133,147 L128,151 L121,159 L115,163 L111,168 L101,176 L99,177 L71,177 L70,160 L65,176 L61,182 L44,182 L43,171 L39,178 L36,186 L33,187 L19,187 L17,182 L12,188 L-2,199 L-10,204 L-20,209 L-33,214 L-46,219 L-58,219 L-72,215 L-80,209 L-87,203 L-89,199 L-95,196 L-96,216 L-109,214 L-111,220 L-120,219 L-126,215 L-137,204 L-144,196 L-145,195 L-145,200 L-141,206 L-133,209 L-128,215 L-124,219 L-120,225 L-120,229 L-127,229 L-136,226 L-145,220 L-155,215 L-162,211 L-166,212 L-166,214 L-161,215 L-152,221 L-147,223 L-147,225 L-141,227 L-134,232 L-134,243 L-166,243 L-173,239 L-182,232 L-186,232 L-186,234 L-182,235 L-180,238 L-177,239 L-172,244 L-167,248 L-167,251 L-193,259 L-217,266 L-243,273 L-249,275 L-250,277 L-248,278 L-247,286 L-256,289 L-280,296 L-298,300 L-302,302 L-304,310 L-312,311 L-333,311 L-342,309 L-341,316 L-341,323 L-347,322 L-348,321 L-354,321 L-358,324 L-367,325 L-396,325 L-405,323 L-409,321 L-409,319 L-413,318 L-412,307 L-408,292 L-402,276 L-399,269 L-397,269 L-395,264 L-385,251 L-381,245 L-379,245 L-378,241 L-372,232 L-370,231 L-369,228 L-367,227 L-366,224 L-362,223 L-355,230 L-354,214 L-352,207 L-344,200 L-334,190 L-333,187 L-328,182 L-325,178 L-324,175 L-322,175 L-320,170 L-316,163 L-310,153 L-301,146 L-294,138 L-289,135 L-278,123 L-276,123 L-276,121 L-273,119 L-266,120 L-265,122 L-262,123 L-261,116 L-259,110 L-249,104 L-239,94 L-232,86 L-226,81 L-221,79 L-214,79 L-204,83 L-203,84 L-198,84 L-198,72 L-196,65 L-194,65 L-192,61 L-185,55 L-176,50 L-162,45 L-140,38 L-132,38 L-121,42 L-111,45 L-103,43 L-86,43 L-73,47 L-64,53 L-56,61 L-54,62 L-53,65 L-51,66 L-49,70 L-47,72 L-43,77 L-42,76 L-40,65 L-30,43 L-29,41 L-27,41 L-25,32 L-21,17 L-16,12 L-10,9 L-7,4 Z M280,106 Z M151,107 L150,109 L149,122 L148,126 L150,126 L156,112 L157,108 Z M147,126 L148,128 Z M146,128 L144,133 L146,133 L147,128 Z M143,133 L142,136 L144,136 Z M141,136 L140,139 L142,139 Z M-354,232 Z " fill="#000000" transform="translate(450,0)"/>
<path d="M0,0 L8,0 L8,13 L5,19 L-3,27 L-11,34 L-37,60 L-39,64 L-41,80 L-45,90 L-48,95 L-53,100 L-56,104 L-63,108 L-73,111 L-81,112 L-80,118 L-80,133 L-83,143 L-84,145 L-86,145 L-86,148 L-88,148 L-89,152 L-97,159 L-98,162 L-100,162 L-101,166 L-106,168 L-114,168 L-120,165 L-125,153 L-129,143 L-134,138 L-135,147 L-130,159 L-125,172 L-125,206 L-128,213 L-132,217 L-134,217 L-135,221 L-144,233 L-146,233 L-147,237 L-149,238 L-151,242 L-153,242 L-154,246 L-156,246 L-156,249 L-160,253 L-166,260 L-175,266 L-177,266 L-177,268 L-184,271 L-189,276 L-197,282 L-200,283 L-213,283 L-216,274 L-216,268 L-218,267 L-221,262 L-226,262 L-229,271 L-233,280 L-234,283 L-236,285 L-239,288 L-242,293 L-246,295 L-260,295 L-271,294 L-275,284 L-276,281 L-276,268 L-273,262 L-267,257 L-266,253 L-271,245 L-273,244 L-274,241 L-276,240 L-277,272 L-280,277 L-281,281 L-281,313 L-282,318 L-284,318 L-285,323 L-292,331 L-306,340 L-318,344 L-331,346 L-360,346 L-364,345 L-363,330 L-361,307 L-373,330 L-375,336 L-381,347 L-383,347 L-384,352 L-386,352 L-387,355 L-390,356 L-402,356 L-414,355 L-418,351 L-422,345 L-428,341 L-438,339 L-466,339 L-472,336 L-480,321 L-487,306 L-487,308 L-484,344 L-483,361 L-483,370 L-484,371 L-502,371 L-515,367 L-527,362 L-545,355 L-560,348 L-575,341 L-583,338 L-583,336 L-589,334 L-592,330 L-593,314 L-607,313 L-612,310 L-614,308 L-618,285 L-617,277 L-611,266 L-608,259 L-605,249 L-603,249 L-603,244 L-614,254 L-617,259 L-622,265 L-624,269 L-626,271 L-628,272 L-628,275 L-630,275 L-632,281 L-637,291 L-638,295 L-643,295 L-649,291 L-654,290 L-670,295 L-684,295 L-697,292 L-713,284 L-722,279 L-724,276 L-723,269 L-721,262 L-715,252 L-713,249 L-718,253 L-719,255 L-723,257 L-724,259 L-727,260 L-728,262 L-740,266 L-764,266 L-776,263 L-781,258 L-792,253 L-802,250 L-803,245 L-798,240 L-796,240 L-796,238 L-786,233 L-774,230 L-736,223 L-715,218 L-698,212 L-682,204 L-675,202 L-660,202 L-653,204 L-644,204 L-637,201 L-619,194 L-605,190 L-590,188 L-576,188 L-568,191 L-563,196 L-550,214 L-547,218 L-543,205 L-538,201 L-531,201 L-529,203 L-525,215 L-524,246 L-527,254 L-532,260 L-533,264 L-529,277 L-528,279 L-524,269 L-517,242 L-514,224 L-512,204 L-509,177 L-504,176 L-504,174 L-489,167 L-481,165 L-463,164 L-454,161 L-444,155 L-434,155 L-429,160 L-425,162 L-415,149 L-412,146 L-399,143 L-395,142 L-395,140 L-392,140 L-390,136 L-385,132 L-370,128 L-360,123 L-355,122 L-305,122 L-298,126 L-283,127 L-276,130 L-274,131 L-278,122 L-278,117 L-263,117 L-254,123 L-248,128 L-246,132 L-240,137 L-244,128 L-243,123 L-237,122 L-230,122 L-220,126 L-211,133 L-202,142 L-193,156 L-189,164 L-187,169 L-184,192 L-183,193 L-184,170 L-186,167 L-188,157 L-191,152 L-196,148 L-199,143 L-202,140 L-206,136 L-207,133 L-210,131 L-212,127 L-214,125 L-220,118 L-222,115 L-222,106 L-218,97 L-215,91 L-198,82 L-192,79 L-183,78 L-174,78 L-165,79 L-156,76 L-147,70 L-135,56 L-131,55 L-131,53 L-124,50 L-119,49 L-99,48 L-87,47 L-87,45 L-90,36 L-91,27 L-50,26 L-41,23 L-39,23 L-39,21 L-25,13 L-12,5 L-10,5 L-10,3 Z M-273,133 Z M-272,134 Z M-239,138 Z M-601,240 Z M-602,242 Z M-711,247 Z M-492,298 Z M-491,299 Z M-490,301 L-489,303 Z " fill="#000000" transform="translate(808,129)"/>
<path d="M0,0 L9,0 L18,6 L21,11 L21,25 L3,32 L-9,37 L-21,41 L-27,44 L-32,44 L-32,30 L-30,26 L-25,22 L-19,11 L-13,6 Z " fill="#000000" transform="translate(32,322)"/>
</svg>
