<?xml version="1.0" encoding="UTF-8"?>
<!-- Generator: visioncortex VTracer 0.6.4 -->
<svg version="1.1" xmlns="http://www.w3.org/2000/svg" width="500" height="536">
<path d="M0,0 L21,0 L37,3 L51,8 L63,15 L72,23 L79,33 L84,44 L87,55 L87,81 L83,96 L75,116 L63,142 L43,181 L39,195 L37,209 L37,216 L40,225 L46,228 L56,227 L68,222 L80,214 L83,215 L78,227 L67,238 L58,249 L48,260 L39,271 L26,286 L16,299 L4,313 L-5,323 L-12,331 L-24,344 L-39,360 L-61,382 L-78,394 L-92,403 L-104,410 L-121,417 L-132,420 L-148,421 L-158,419 L-179,414 L-197,407 L-211,397 L-222,386 L-229,376 L-233,370 L-231,366 L-224,361 L-216,358 L-212,359 L-211,362 L-209,362 L-209,364 L-205,366 L-194,376 L-179,387 L-164,393 L-159,394 L-142,394 L-128,390 L-117,384 L-114,384 L-117,282 L-118,266 L-131,278 L-139,285 L-149,294 L-159,303 L-162,304 L-162,248 L-161,246 L-168,248 L-180,259 L-191,268 L-195,272 L-199,271 L-207,264 L-219,252 L-228,254 L-270,270 L-296,280 L-298,280 L-292,290 L-283,300 L-275,307 L-266,313 L-267,318 L-276,338 L-280,336 L-291,327 L-304,315 L-315,301 L-323,287 L-329,272 L-331,262 L-331,239 L-327,223 L-321,209 L-310,191 L-296,173 L-282,156 L-273,146 L-264,135 L-250,120 L-243,112 L-231,99 L-222,89 L-211,81 L-199,70 L-186,57 L-177,46 L-169,37 L-156,20 L-147,8 L-145,8 L-147,20 L-148,25 L-148,43 L-145,49 L-141,52 L-138,53 L-130,53 L-120,50 L-106,43 L-95,34 L-80,25 L-57,14 L-30,5 L-16,2 Z M9,19 L-7,21 L-37,28 L-62,40 L-85,53 L-107,66 L-121,75 L-127,79 L-131,80 L-139,80 L-144,77 L-154,70 L-162,66 L-170,74 L-178,81 L-181,84 L-180,102 L-174,152 L-165,151 L-127,142 L-142,221 L-141,258 L-134,252 L-126,245 L-114,234 L-106,227 L-94,216 L-84,207 L-74,198 L-64,189 L-54,180 L-44,171 L-34,162 L-24,153 L-21,151 L37,151 L45,135 L52,121 L62,97 L66,81 L67,74 L67,58 L64,46 L58,36 L51,29 L39,23 L29,20 L19,19 Z M-203,105 L-229,131 L-236,139 L-246,150 L-255,161 L-268,177 L-281,195 L-293,215 L-301,233 L-304,245 L-305,256 L-304,260 L-294,257 L-242,237 L-216,227 L-210,228 L-203,235 L-195,242 L-191,240 L-180,230 L-177,228 L-165,226 L-163,225 L-151,173 L-151,170 L-160,171 L-195,178 L-195,169 L-202,105 Z M-11,169 L-18,176 L-26,183 L-36,192 L-46,201 L-54,208 L-65,218 L-73,225 L-83,234 L-93,243 L-94,244 L-96,339 L-96,374 L-88,370 L-77,361 L-71,353 L-40,322 L-33,314 L-23,303 L-14,292 L-2,277 L10,259 L17,247 L19,240 L17,238 L16,234 L10,229 L8,224 L8,207 L12,196 L24,176 L26,171 Z " fill="#000000" transform="translate(413,0)"/>
<path d="M0,0 L5,1 L17,12 L25,19 L29,22 L30,25 L30,35 L26,48 L19,61 L11,71 L3,78 L-4,82 L-14,83 L-24,80 L-33,72 L-41,62 L-45,53 L-46,42 L-42,26 L-38,19 L-22,11 Z " fill="#000000" transform="translate(61,432)"/>
<path d="M0,0 L20,0 L28,3 L33,8 L35,14 L37,26 L39,30 L21,44 L11,53 L5,60 L1,64 L-5,62 L-9,51 L-20,49 L-27,44 L-25,40 L-15,25 L-1,1 Z " fill="#000000" transform="translate(154,320)"/>
<path d="M0,0 L7,1 L18,7 L28,16 L33,24 L33,27 L18,36 L7,45 L1,52 L-2,57 L-8,58 L-13,54 L-20,46 L-28,38 L-26,33 L-18,25 L-6,17 L-2,9 Z " fill="#000000" transform="translate(96,392)"/>
<path d="M0,0 L15,0 L21,3 L29,9 L33,16 L34,20 L34,32 L31,41 L26,46 L20,44 L18,41 L16,33 L12,28 L1,21 L-7,17 L-12,15 L-14,11 L-14,8 L-5,2 Z " fill="#000000" transform="translate(114,372)"/>
<path d="M0,0 L4,2 L15,13 L28,22 L27,27 L18,35 L10,39 L-1,39 L-6,35 L-10,28 L-10,15 L-3,3 Z " fill="#000000" transform="translate(10,497)"/>
<path d="M0,0 L2,0 L1,2 Z " fill="#000000" transform="translate(254,74)"/>
</svg>
