<?xml version="1.0" encoding="UTF-8"?>
<!-- Generator: visioncortex VTracer 0.6.4 -->
<svg version="1.1" xmlns="http://www.w3.org/2000/svg" width="500" height="529">
<path d="M0,0 L36,0 L42,4 L44,6 L46,22 L53,52 L61,99 L65,135 L67,156 L67,166 L77,162 L84,152 L88,143 L95,118 L98,95 L100,74 L101,54 L103,45 L111,38 L119,35 L128,33 L146,32 L168,34 L171,37 L170,55 L166,75 L160,94 L149,118 L138,135 L129,147 L115,162 L104,173 L95,180 L95,181 L114,184 L137,189 L152,193 L165,200 L176,214 L186,226 L198,230 L208,236 L213,240 L222,252 L229,263 L243,285 L254,302 L262,315 L271,329 L280,343 L279,348 L270,354 L262,357 L243,357 L232,353 L218,345 L205,334 L200,330 L186,323 L182,322 L170,322 L162,326 L159,329 L157,329 L155,333 L144,357 L139,368 L134,384 L127,393 L117,399 L98,403 L80,405 L65,406 L50,406 L49,401 L47,359 L42,300 L39,282 L33,274 L26,267 L19,264 L16,259 L16,250 L23,236 L30,226 L38,210 L41,205 L42,201 L42,192 L39,182 L31,165 L25,152 L16,132 L11,119 L0,91 L-7,72 L-11,62 L-15,49 L-21,30 L-22,25 L-22,15 L-18,9 L-10,3 L-6,1 Z M99,218 L99,219 L105,219 L105,218 Z M106,219 L110,221 L135,228 L145,231 L145,235 L144,236 L117,236 L117,237 L131,240 L135,245 L135,252 L129,254 L122,255 L122,256 L131,256 L140,254 L150,245 L152,240 L166,245 L176,246 L172,243 L160,237 L153,234 L148,229 L137,224 L123,220 Z M108,237 L91,239 L96,244 L109,252 L111,251 L103,244 L102,241 L113,238 L113,237 Z M111,252 Z M113,253 Z M116,254 Z " fill="#000000" transform="translate(220,0)"/>
<path d="M0,0 L4,2 L10,11 L11,14 L11,24 L6,36 L-3,50 L-12,69 L-16,81 L-16,88 L-13,94 L1,101 L6,105 L8,108 L9,117 L12,143 L15,188 L17,242 L23,257 L28,267 L36,279 L48,292 L55,299 L70,310 L84,318 L101,326 L122,333 L128,335 L129,341 L126,350 L121,355 L112,355 L93,351 L74,345 L53,335 L39,326 L26,316 L13,304 L8,300 L1,292 L-10,278 L-18,265 L-26,249 L-31,237 L-40,206 L-46,169 L-49,136 L-49,63 L-57,67 L-56,100 L-52,142 L-46,197 L-39,248 L-39,259 L-49,256 L-67,250 L-69,249 L-72,226 L-75,184 L-77,143 L-78,100 L-78,70 L-83,71 L-84,105 L-83,154 L-80,230 L-80,248 L-103,259 L-112,262 L-113,253 L-113,190 L-111,147 L-107,101 L-104,72 L-107,75 L-111,92 L-116,140 L-119,183 L-120,203 L-122,264 L-124,269 L-135,283 L-149,298 L-154,303 L-160,310 L-168,317 L-178,327 L-189,336 L-204,350 L-205,346 L-201,331 L-196,314 L-189,289 L-183,267 L-178,250 L-173,231 L-169,218 L-165,202 L-160,185 L-160,181 L-166,195 L-172,211 L-184,243 L-191,263 L-202,296 L-208,317 L-213,336 L-216,347 L-217,348 L-232,348 L-249,347 L-248,338 L-241,317 L-230,284 L-223,265 L-217,249 L-210,229 L-204,213 L-196,193 L-190,178 L-184,163 L-176,144 L-169,128 L-164,117 L-153,93 L-145,77 L-137,64 L-128,53 L-121,46 L-105,38 L-101,37 L-89,37 L-55,34 L-34,24 L-12,10 L-3,3 L-1,3 Z M-48,61 Z M-155,166 Z M-156,168 L-155,170 Z M-157,171 L-156,173 Z M-158,173 L-157,176 Z " fill="#000000" transform="translate(249,174)"/>
</svg>
