<?xml version="1.0" encoding="UTF-8"?>
<!-- Generator: visioncortex VTracer 0.6.4 -->
<svg version="1.1" xmlns="http://www.w3.org/2000/svg" width="595" height="533">
<path d="M0,0 L5,1 L33,14 L40,18 L42,15 L33,8 L37,7 L53,15 L69,23 L84,33 L95,42 L109,54 L121,67 L131,76 L150,90 L167,103 L183,111 L215,121 L230,126 L236,130 L240,137 L237,155 L249,154 L275,156 L307,161 L322,164 L328,162 L347,162 L363,159 L367,158 L374,161 L375,165 L373,176 L365,196 L357,206 L354,212 L354,224 L350,240 L342,261 L334,273 L322,275 L317,278 L312,287 L299,303 L291,310 L288,310 L290,305 L294,296 L292,296 L292,276 L280,278 L273,278 L256,275 L254,280 L244,295 L236,305 L226,311 L223,311 L225,306 L227,296 L227,290 L226,289 L225,282 L225,273 L217,272 L201,269 L184,263 L170,260 L160,271 L147,289 L136,305 L136,310 L165,324 L177,333 L184,341 L193,355 L201,364 L206,368 L210,367 L217,361 L224,351 L228,345 L232,345 L231,364 L232,373 L236,377 L250,380 L255,381 L262,381 L271,378 L274,374 L285,347 L288,347 L292,355 L292,368 L291,374 L291,389 L295,396 L294,402 L292,404 L288,415 L282,422 L275,425 L266,425 L256,423 L247,423 L239,424 L238,423 L231,423 L218,428 L209,427 L197,418 L183,410 L170,405 L166,405 L166,412 L171,422 L178,433 L186,444 L186,446 L184,447 L185,450 L188,452 L188,454 L183,453 L173,447 L166,440 L153,422 L148,419 L142,416 L144,428 L150,439 L159,450 L171,461 L179,468 L188,476 L188,477 L181,476 L171,472 L184,483 L190,487 L195,493 L211,501 L218,503 L220,506 L218,508 L206,507 L203,507 L217,516 L228,521 L236,523 L235,526 L233,527 L225,527 L215,523 L198,520 L182,514 L182,516 L192,521 L192,523 L185,524 L174,521 L168,518 L161,518 L157,520 L152,519 L149,521 L148,524 L155,525 L180,532 L180,533 L167,533 L143,529 L130,528 L114,523 L96,518 L64,507 L51,500 L40,491 L20,471 L13,460 L7,447 L3,430 L2,422 L2,402 L5,383 L10,366 L17,352 L18,349 L3,358 L-8,365 L-35,379 L-55,388 L-81,398 L-117,410 L-139,417 L-158,421 L-161,421 L-159,417 L-141,410 L-133,406 L-131,405 L-138,405 L-135,402 L-118,395 L-127,396 L-136,399 L-143,400 L-153,403 L-159,403 L-155,400 L-132,390 L-137,390 L-137,387 L-133,385 L-164,396 L-188,405 L-210,412 L-219,413 L-215,410 L-188,399 L-189,396 L-166,386 L-176,388 L-182,389 L-182,387 L-157,375 L-152,373 L-170,375 L-169,372 L-145,359 L-140,355 L-131,352 L-105,339 L-83,326 L-66,314 L-55,305 L-47,301 L-30,287 L-19,278 L-6,267 L5,258 L20,245 L31,236 L34,233 L15,246 L-8,262 L-26,274 L-45,286 L-63,296 L-78,304 L-93,314 L-117,328 L-145,344 L-166,358 L-169,360 L-172,360 L-170,356 L-161,350 L-160,347 L-166,350 L-172,351 L-170,347 L-165,343 L-166,339 L-164,337 L-177,346 L-190,356 L-192,356 L-190,352 L-175,338 L-169,333 L-168,329 L-176,335 L-187,344 L-199,352 L-199,349 L-189,339 L-181,332 L-180,330 L-183,329 L-168,316 L-156,304 L-149,298 L-140,287 L-128,274 L-118,261 L-109,250 L-98,237 L-90,226 L-97,231 L-103,231 L-109,238 L-113,242 L-122,245 L-132,253 L-140,259 L-148,264 L-152,263 L-146,256 L-143,251 L-130,239 L-135,243 L-146,250 L-151,253 L-157,255 L-162,259 L-166,259 L-164,255 L-147,239 L-133,227 L-120,215 L-109,205 L-102,197 L-98,192 L-108,196 L-119,204 L-128,208 L-127,204 L-119,194 L-106,173 L-104,171 L-104,165 L-107,160 L-119,118 L-124,103 L-127,84 L-127,62 L-131,55 L-136,50 L-136,48 L-127,51 L-131,43 L-139,36 L-139,34 L-134,35 L-128,39 L-127,36 L-126,22 L-123,22 L-121,27 L-119,38 L-117,31 L-113,33 L-111,43 L-106,47 L-78,58 L-62,66 L-38,75 L-18,83 L-1,95 L1,97 L12,96 L34,89 L47,88 L48,86 L48,78 L50,74 L51,62 L38,55 L36,52 L43,51 L42,47 L44,46 L32,39 L28,36 L28,33 L30,32 L28,28 L33,27 L46,31 L36,23 L22,14 L4,4 L0,2 Z M122,150 L101,155 L94,157 L98,160 L109,166 L118,173 L124,177 L129,175 L144,169 L159,166 L161,164 L151,155 L143,151 L138,150 Z M37,230 Z M296,286 L296,291 L298,289 L298,286 Z M295,291 Z M-178,328 Z M-158,345 Z M-126,382 Z M-164,384 Z M-130,388 Z M-186,397 Z M169,470 Z " fill="#010101" transform="translate(220,0)"/>
<path d="M0,0 Z " fill="#666666" transform="translate(0,413)"/>
</svg>
