<?xml version="1.0" encoding="UTF-8"?>
<!-- Generator: visioncortex VTracer 0.6.4 -->
<svg version="1.1" xmlns="http://www.w3.org/2000/svg" width="508" height="500">
<path d="M0,0 L115,0 L171,1 L206,0 L211,2 L211,185 L210,202 L206,202 L195,193 L172,170 L173,177 L176,187 L180,199 L182,209 L185,223 L186,236 L186,269 L178,271 L175,273 L170,273 L168,268 L162,278 L157,277 L155,273 L153,273 L148,268 L141,265 L132,265 L123,268 L117,267 L112,265 L106,269 L100,277 L97,277 L95,269 L92,265 L84,264 L84,259 L85,257 L83,252 L84,246 L94,242 L92,237 L83,228 L83,225 L105,225 L104,214 L113,212 L114,208 L110,202 L110,196 L117,190 L128,188 L122,180 L122,177 L134,174 L138,172 L138,169 L140,169 L142,161 L137,159 L129,159 L124,161 L117,161 L118,156 L120,154 L133,152 L151,147 L157,138 L159,137 L161,132 L162,129 L164,129 L166,124 L124,124 L118,127 L115,132 L114,137 L108,137 L106,124 L98,124 L93,126 L92,130 L92,142 L95,140 L98,140 L99,146 L102,149 L103,156 L103,159 L110,161 L109,164 L98,168 L92,175 L88,182 L89,195 L83,200 L85,205 L86,211 L77,210 L72,208 L68,212 L65,220 L66,227 L67,231 L58,233 L53,237 L45,252 L44,255 L34,263 L25,265 L2,264 L-2,266 L-7,273 L-12,272 L-14,268 L-16,268 L-17,265 L-19,264 L-26,264 L-35,265 L-47,263 L-63,263 L-75,264 L-77,265 L-79,276 L-83,277 L-85,276 L-86,273 L-86,284 L-84,291 L-59,292 L-57,288 L-53,287 L-52,290 L-49,291 L-35,291 L-29,288 L-21,287 L-13,290 L-8,291 L-3,285 L0,280 L3,279 L4,288 L9,293 L16,293 L18,297 L14,304 L14,313 L16,313 L17,318 L19,318 L21,321 L21,324 L14,324 L9,321 L4,322 L-1,329 L-5,337 L-5,345 L2,353 L2,355 L-6,358 L-18,360 L-19,361 L-20,372 L-31,379 L-33,387 L-31,391 L-31,396 L-33,398 L-35,403 L-35,420 L-38,421 L-47,418 L-53,414 L-55,419 L-58,423 L-63,422 L-67,415 L-73,415 L-79,420 L-84,425 L-89,431 L-91,434 L-90,440 L-86,447 L-86,449 L-84,449 L-82,454 L-78,459 L-73,458 L-69,453 L-63,454 L-64,460 L-67,468 L-67,477 L-64,485 L-59,490 L-57,492 L-49,479 L-49,472 L-51,469 L-51,466 L-53,466 L-53,463 L-39,462 L-36,458 L-36,452 L-41,440 L-41,434 L-33,435 L-28,441 L-22,436 L-19,431 L-19,425 L-21,421 L-21,417 L-9,412 L-4,406 L-1,399 L-1,390 L-2,382 L0,380 L5,381 L9,383 L10,382 L11,370 L13,368 L20,366 L24,360 L28,352 L29,346 L25,344 L18,338 L15,335 L15,333 L25,330 L29,328 L42,328 L44,325 L43,316 L42,311 L52,311 L56,306 L60,298 L66,293 L99,293 L102,292 L103,290 L105,290 L106,281 L111,277 L113,277 L116,283 L118,290 L119,291 L121,286 L125,285 L130,289 L139,293 L144,294 L157,293 L167,288 L171,289 L173,293 L180,293 L184,295 L184,304 L180,320 L176,333 L170,350 L167,355 L165,361 L162,367 L154,382 L153,384 L151,384 L150,388 L144,398 L142,398 L140,402 L139,405 L134,410 L127,419 L121,424 L114,432 L107,438 L102,443 L88,454 L68,467 L56,474 L43,480 L25,487 L9,492 L-8,496 L-44,500 L-87,500 L-114,495 L-130,490 L-150,482 L-169,473 L-178,468 L-188,462 L-188,460 L-193,458 L-204,451 L-213,443 L-224,434 L-236,422 L-245,411 L-248,407 L-248,405 L-251,404 L-255,398 L-255,396 L-257,395 L-258,391 L-260,391 L-264,384 L-267,378 L-271,371 L-275,364 L-278,356 L-281,349 L-288,331 L-291,319 L-293,314 L-295,302 L-295,294 L-293,291 L-286,290 L-277,290 L-275,280 L-271,282 L-265,289 L-261,290 L-256,287 L-252,283 L-247,283 L-244,286 L-242,290 L-222,291 L-183,291 L-179,293 L-176,298 L-174,299 L-162,299 L-164,305 L-166,309 L-168,309 L-166,315 L-159,313 L-145,311 L-144,317 L-155,324 L-157,328 L-144,331 L-144,337 L-147,344 L-147,349 L-142,352 L-130,356 L-129,362 L-130,366 L-130,373 L-127,380 L-120,383 L-119,385 L-119,396 L-117,396 L-116,399 L-102,408 L-103,417 L-101,422 L-99,423 L-89,424 L-86,413 L-82,405 L-80,405 L-79,398 L-82,392 L-97,392 L-98,391 L-98,386 L-92,377 L-97,375 L-98,374 L-98,363 L-101,362 L-101,360 L-108,360 L-109,349 L-112,343 L-112,341 L-114,341 L-118,334 L-118,332 L-120,331 L-120,328 L-122,328 L-127,319 L-127,317 L-129,316 L-130,312 L-133,312 L-133,310 L-142,310 L-145,309 L-145,304 L-141,301 L-140,292 L-135,291 L-119,291 L-117,290 L-116,287 L-114,287 L-112,283 L-107,283 L-103,290 L-102,292 L-98,291 L-94,281 L-93,264 L-113,262 L-115,261 L-117,266 L-121,267 L-131,262 L-135,263 L-135,269 L-138,271 L-142,270 L-149,263 L-153,261 L-162,261 L-165,258 L-169,251 L-169,249 L-171,248 L-176,243 L-184,243 L-193,247 L-195,247 L-195,240 L-191,235 L-190,231 L-190,220 L-196,206 L-202,197 L-204,191 L-206,191 L-210,184 L-210,182 L-219,181 L-219,177 L-218,176 L-218,168 L-220,168 L-223,163 L-225,160 L-225,154 L-224,153 L-213,152 L-208,149 L-204,141 L-200,142 L-196,150 L-192,147 L-187,147 L-187,151 L-170,151 L-166,149 L-165,144 L-158,145 L-155,150 L-150,151 L-137,151 L-137,149 L-135,149 L-135,147 L-128,146 L-121,151 L-105,150 L-95,147 L-92,144 L-89,138 L-85,137 L-81,142 L-78,150 L-55,150 L-54,149 L-45,149 L-36,150 L15,150 L20,149 L21,143 L24,137 L28,136 L30,137 L33,145 L34,149 L41,150 L55,150 L61,148 L63,145 L69,145 L69,147 L77,149 L79,149 L81,145 L84,135 L83,126 L82,125 L61,125 L56,130 L51,131 L50,126 L48,126 L46,132 L43,133 L39,127 L36,125 L-15,125 L-17,130 L-24,129 L-30,126 L-35,125 L-35,128 L-37,128 L-40,137 L-45,138 L-47,135 L-48,125 L-51,125 L-53,132 L-55,133 L-61,133 L-64,125 L-85,125 L-90,129 L-92,135 L-96,133 L-101,128 L-107,125 L-124,125 L-132,128 L-140,128 L-144,127 L-147,128 L-149,132 L-150,133 L-155,133 L-160,129 L-164,127 L-171,128 L-174,133 L-178,144 L-181,144 L-184,140 L-187,125 L-193,125 L-196,129 L-197,132 L-200,133 L-205,129 L-207,128 L-209,133 L-211,137 L-217,138 L-220,133 L-222,127 L-225,125 L-252,125 L-251,121 L-245,113 L-243,113 L-241,109 L-239,105 L-232,99 L-225,91 L-214,81 L-208,76 L-206,76 L-205,73 L-186,60 L-177,54 L-169,50 L-155,43 L-145,39 L-127,32 L-106,26 L-86,22 L-64,20 L-37,20 L-15,22 L11,28 L34,36 L11,13 L4,5 Z M170,168 Z " fill="#000000" transform="translate(297,0)"/>
<path d="M0,0 L5,0 L10,10 L17,14 L32,16 L31,21 L29,22 L26,31 L29,43 L31,43 L32,47 L36,49 L49,48 L51,49 L50,55 L46,64 L47,70 L51,74 L61,74 L59,81 L59,88 L63,96 L65,102 L67,102 L68,108 L63,110 L60,114 L56,114 L56,110 L51,112 L50,121 L47,124 L42,124 L36,117 L33,110 L32,109 L15,108 L13,112 L7,112 L5,108 L-4,110 L-8,117 L-10,121 L-14,122 L-17,109 L-18,108 L-26,108 L-27,107 L-27,93 L-26,81 L-24,72 L-23,61 L-19,47 L-16,38 L-12,27 L-7,15 L-2,3 Z " fill="#000000" transform="translate(27,152)"/>
</svg>
