<?xml version="1.0" encoding="UTF-8"?>
<!-- Generator: visioncortex VTracer 0.6.4 -->
<svg version="1.1" xmlns="http://www.w3.org/2000/svg" width="202" height="426">
<path d="M0,0 L16,0 L37,5 L53,13 L61,19 L69,26 L77,37 L84,51 L88,63 L90,73 L90,95 L86,112 L79,131 L67,156 L57,174 L49,186 L69,185 L93,181 L96,181 L95,191 L93,207 L93,225 L95,242 L95,248 L90,247 L76,241 L64,238 L52,238 L52,247 L56,270 L63,295 L72,319 L80,335 L92,359 L102,385 L110,413 L112,425 L97,424 L61,421 L17,420 L-21,421 L-63,424 L-82,426 L-90,426 L-90,415 L-85,394 L-76,368 L-62,334 L-47,297 L-38,275 L-34,259 L-30,236 L-40,238 L-59,244 L-71,248 L-74,248 L-74,202 L-76,185 L-76,180 L-66,182 L-52,185 L-43,186 L-29,186 L-39,175 L-49,161 L-58,145 L-66,127 L-72,108 L-76,89 L-76,75 L-72,58 L-67,46 L-58,32 L-45,19 L-32,11 L-16,4 Z M8,38 L-8,41 L-20,47 L-29,56 L-34,66 L-36,75 L-36,88 L-32,104 L-24,119 L-15,130 L-4,141 L10,151 L14,149 L29,134 L39,120 L47,104 L50,93 L51,86 L51,74 L47,63 L41,54 L31,45 L21,40 L12,38 Z " fill="#000000" transform="translate(90,0)"/>
</svg>
