<?xml version="1.0" encoding="UTF-8"?>
<!-- Generator: visioncortex VTracer 0.6.4 -->
<svg version="1.1" xmlns="http://www.w3.org/2000/svg" width="510" height="500">
<path d="M0,0 L480,0 L506,1 L507,5 L507,73 L506,120 L506,175 L503,373 L502,496 L501,499 L467,500 L107,500 L14,499 L1,498 L-1,496 L-2,491 L-3,3 Z M194,5 L3,6 L3,214 L4,222 L6,221 L9,211 L10,171 L11,17 L14,13 L451,13 L483,14 L492,15 L493,28 L493,73 L491,129 L491,143 L493,148 L495,157 L495,175 L491,185 L490,224 L488,362 L487,483 L483,485 L354,486 L280,486 L207,485 L14,485 L11,482 L10,461 L10,404 L9,298 L5,283 L4,283 L3,460 L2,488 L8,493 L34,493 L105,494 L483,494 L494,493 L495,492 L496,460 L496,367 L499,215 L500,120 L502,69 L502,10 L501,6 L457,5 Z M52,18 Z M92,18 Z M97,18 L97,19 L128,19 L128,18 Z M131,18 L131,19 L180,19 L180,18 Z M229,18 L229,19 L244,19 L244,18 Z M259,18 L259,19 L275,19 L275,18 Z M282,18 L282,19 L341,19 L341,18 Z M428,19 Z M486,20 L487,22 Z M166,23 Z M172,23 L176,24 Z M24,25 L24,31 L27,28 L34,27 L36,32 L36,39 L27,39 L23,37 L23,50 L24,53 L28,51 L29,45 L35,45 L37,51 L43,52 L49,49 L50,46 L43,38 L43,32 L50,31 L49,27 L47,25 Z M378,26 L372,29 L371,33 L374,34 L382,32 L380,39 L373,43 L370,45 L378,44 L384,42 L384,40 L387,41 L397,33 L400,29 L394,31 L393,32 L387,32 L384,27 Z M147,28 L148,33 L150,32 L150,28 Z M167,28 L167,29 L172,29 L172,28 Z M217,28 L217,29 L252,29 L252,28 Z M400,28 Z M446,28 L440,32 L436,38 L433,49 L435,73 L439,95 L444,113 L448,121 L450,121 L452,127 L457,132 L466,133 L465,131 L455,126 L453,120 L453,103 L457,93 L462,91 L469,90 L467,84 L462,81 L460,81 L458,76 L456,71 L452,74 L447,86 L446,88 L442,89 L439,68 L438,50 L441,40 L443,34 L457,34 L457,42 L449,41 L446,46 L446,51 L449,55 L456,56 L462,53 L466,47 L473,46 L472,44 L470,44 L468,40 L461,31 L456,28 Z M205,29 L205,30 L215,30 L215,29 Z M257,29 L257,30 L266,30 L266,29 Z M198,30 L198,31 L204,31 L204,30 Z M268,30 L268,31 L275,31 L275,30 Z M193,31 L197,32 Z M276,31 L276,32 L284,32 L284,31 Z M24,32 Z M186,32 L186,33 L192,33 L192,32 Z M284,32 L284,33 L290,33 L290,32 Z M181,33 L185,34 Z M290,33 L294,35 L332,44 L343,46 L352,46 L352,45 L343,44 L344,39 L350,37 L351,34 L339,34 L330,38 L319,37 L298,33 Z M177,34 Z M24,35 L25,37 Z M174,35 Z M411,27 L406,35 L401,40 L391,46 L380,50 L369,52 L342,52 L325,50 L293,41 L272,37 L257,35 L217,35 L190,39 L163,46 L143,54 L135,57 L135,59 L130,60 L115,68 L115,70 L110,71 L110,73 L104,75 L104,77 L101,77 L96,82 L92,84 L91,86 L86,89 L83,93 L80,94 L73,102 L68,106 L67,109 L65,110 L62,115 L60,116 L60,119 L58,119 L54,126 L52,127 L50,132 L49,135 L47,135 L47,139 L45,139 L45,142 L43,142 L35,158 L31,168 L27,177 L23,187 L18,204 L15,212 L5,244 L5,254 L9,274 L14,291 L20,306 L21,309 L23,309 L25,315 L27,321 L29,321 L30,327 L32,327 L34,333 L41,347 L43,347 L44,352 L46,352 L47,357 L49,357 L49,360 L51,360 L51,363 L53,364 L54,367 L59,372 L62,377 L64,377 L64,380 L72,387 L83,398 L87,403 L90,403 L92,407 L95,407 L95,409 L101,412 L103,415 L106,415 L106,417 L114,421 L121,425 L123,425 L123,427 L133,431 L135,431 L135,433 L151,439 L170,445 L193,450 L211,452 L234,453 L252,452 L276,448 L296,442 L311,436 L327,428 L335,424 L335,422 L338,422 L338,420 L344,418 L347,415 L350,414 L350,412 L352,412 L356,407 L360,404 L366,404 L375,414 L380,417 L382,417 L382,419 L391,421 L400,421 L412,418 L419,415 L419,413 L423,412 L426,409 L426,406 L430,404 L432,398 L434,398 L434,395 L436,395 L437,390 L439,390 L441,382 L443,382 L451,358 L454,342 L455,335 L455,298 L452,278 L446,255 L438,235 L430,219 L422,208 L413,198 L403,188 L400,188 L398,184 L395,184 L394,181 L391,181 L389,177 L383,176 L383,174 L378,173 L378,171 L356,161 L350,158 L329,152 L310,148 L288,148 L269,151 L247,157 L230,164 L222,168 L219,169 L219,171 L215,171 L215,173 L208,175 L208,177 L201,179 L200,182 L195,183 L195,185 L192,185 L192,187 L187,188 L187,190 L183,191 L183,193 L180,193 L180,195 L176,196 L176,198 L172,199 L172,201 L169,201 L169,203 L166,203 L166,205 L164,205 L164,207 L160,208 L160,210 L156,211 L156,213 L151,214 L148,217 L148,222 L150,222 L151,228 L158,238 L169,257 L176,271 L185,287 L196,306 L202,315 L205,318 L208,323 L210,324 L211,327 L218,333 L221,338 L225,342 L228,342 L228,344 L241,350 L252,352 L263,352 L277,349 L281,347 L281,345 L284,345 L284,343 L288,342 L288,340 L292,338 L298,330 L301,322 L301,311 L297,300 L291,293 L279,287 L269,287 L259,290 L253,294 L248,303 L245,310 L240,310 L231,300 L226,290 L222,273 L222,250 L226,232 L234,216 L242,206 L251,199 L257,195 L274,190 L298,190 L311,193 L323,199 L327,202 L329,202 L330,205 L338,212 L346,222 L352,232 L357,243 L361,260 L363,280 L363,299 L360,320 L354,340 L346,356 L343,359 L343,362 L341,362 L341,365 L337,367 L333,373 L329,377 L324,380 L318,387 L314,388 L314,390 L308,392 L298,398 L278,404 L260,407 L232,407 L214,404 L198,399 L189,395 L183,392 L181,392 L180,390 L174,387 L172,387 L172,385 L170,385 L168,381 L165,381 L163,377 L159,373 L155,371 L152,366 L147,361 L145,361 L144,357 L142,356 L139,350 L136,347 L134,342 L132,342 L129,333 L123,321 L120,311 L117,303 L112,278 L111,269 L111,226 L113,209 L116,194 L120,181 L124,173 L127,166 L131,157 L131,155 L133,155 L136,150 L136,147 L138,147 L138,144 L141,143 L144,137 L153,126 L168,111 L171,110 L171,108 L175,107 L177,103 L183,101 L192,95 L192,93 L198,92 L198,90 L204,88 L219,82 L230,79 L252,77 L271,78 L294,83 L315,91 L325,96 L327,96 L327,98 L334,100 L334,102 L339,103 L339,105 L342,105 L342,107 L345,107 L345,109 L348,109 L348,111 L351,111 L351,113 L354,114 L355,116 L358,116 L360,120 L363,120 L364,123 L367,124 L369,127 L372,128 L375,132 L378,132 L380,136 L382,138 L385,138 L387,142 L391,146 L396,149 L402,156 L407,159 L414,167 L419,171 L420,173 L424,175 L425,177 L443,184 L454,184 L464,178 L472,169 L473,166 L473,157 L471,150 L465,142 L462,141 L462,139 L456,136 L448,137 L439,137 L435,134 L433,128 L431,128 L429,118 L426,111 L419,81 L414,42 L413,28 Z M169,36 L173,37 Z M124,25 L118,29 L115,33 L116,36 L125,37 L127,34 L125,32 L125,28 L132,27 L134,33 L134,38 L126,43 L123,44 L108,44 L79,36 L72,38 L69,41 L69,45 L79,47 L80,46 L80,39 L88,41 L88,52 L73,54 L76,56 L89,58 L106,56 L122,50 L124,49 L124,47 L127,47 L127,45 L130,45 L130,43 L134,42 L139,36 L139,30 L135,26 L132,25 Z M165,37 L162,39 L169,38 Z M362,38 Z M159,39 Z M156,40 Z M153,41 Z M150,42 Z M148,43 Z M146,44 Z M143,45 L144,47 L146,45 Z M364,45 L364,46 L370,46 L370,45 Z M141,46 Z M353,46 L353,47 L363,47 L363,46 Z M139,47 Z M137,48 Z M135,49 Z M133,50 Z M63,51 Z M486,51 L486,61 L487,61 L487,51 Z M66,52 Z M69,53 Z M127,53 Z M121,56 Z M119,57 Z M27,60 Z M114,60 Z M471,60 Z M47,61 L48,65 Z M106,65 Z M449,65 Z M84,66 Z M463,66 L465,72 L472,72 L472,71 L466,71 L467,66 Z M48,65 L46,77 L45,79 L40,80 L40,70 L39,67 L34,66 L31,68 L31,76 L34,87 L37,93 L40,103 L40,117 L36,125 L35,127 L41,126 L41,131 L43,131 L43,128 L45,128 L49,122 L48,120 L46,121 L46,123 L42,123 L45,115 L50,101 L52,89 L52,78 L50,68 Z M103,67 Z M66,69 L65,73 L67,78 L73,76 L74,75 L74,70 Z M16,70 L16,94 L17,94 L17,70 Z M93,74 Z M92,75 Z M83,82 Z M82,83 Z M60,89 Z M75,89 Z M74,90 Z M253,93 L236,96 L223,100 L215,103 L215,105 L209,107 L202,110 L201,113 L223,111 L242,112 L248,114 L248,122 L247,126 L240,125 L237,124 L236,119 L230,117 L229,116 L214,116 L199,120 L188,123 L187,121 L182,125 L182,127 L178,128 L165,141 L162,146 L160,147 L159,150 L156,152 L156,155 L152,157 L151,162 L148,163 L148,166 L146,166 L142,173 L142,176 L147,176 L147,188 L143,188 L143,190 L139,190 L139,182 L137,185 L131,203 L128,215 L126,230 L126,267 L129,288 L134,309 L141,329 L144,334 L146,340 L148,340 L149,346 L153,353 L154,350 L149,339 L147,330 L147,308 L151,279 L151,271 L149,271 L146,277 L139,278 L142,289 L142,300 L141,302 L136,302 L132,292 L131,287 L131,260 L134,237 L130,238 L133,215 L136,208 L142,200 L152,192 L157,187 L161,183 L163,178 L158,179 L150,181 L149,173 L155,171 L155,169 L164,167 L176,167 L178,171 L183,173 L197,170 L197,168 L195,168 L194,160 L200,160 L200,162 L208,162 L218,156 L221,154 L221,152 L223,152 L222,149 L220,148 L211,148 L207,150 L207,152 L203,152 L203,150 L201,150 L203,143 L205,142 L205,140 L192,140 L186,144 L178,145 L178,143 L176,143 L176,136 L178,136 L181,133 L188,130 L188,128 L211,128 L221,131 L222,130 L222,120 L229,120 L230,123 L232,123 L234,129 L237,134 L246,136 L255,142 L258,138 L258,124 L266,126 L273,129 L278,126 L278,122 L275,121 L275,119 L273,119 L273,115 L277,114 L282,112 L283,110 L274,108 L273,106 L270,106 L269,103 L265,105 L262,108 L250,108 L248,106 L248,98 L255,97 L272,97 L287,100 L307,106 L322,112 L324,112 L325,114 L332,118 L334,120 L339,125 L341,125 L341,128 L343,128 L343,131 L345,131 L347,137 L350,137 L350,132 L352,132 L352,130 L358,130 L359,133 L362,133 L363,136 L365,136 L365,138 L369,140 L370,142 L373,142 L375,146 L379,148 L380,150 L383,151 L384,153 L386,153 L386,155 L389,155 L387,151 L385,149 L382,149 L382,147 L380,147 L378,143 L374,142 L372,138 L367,134 L364,134 L363,131 L360,131 L359,128 L356,128 L356,126 L353,126 L353,124 L345,120 L340,118 L340,116 L337,116 L337,114 L330,111 L323,109 L323,107 L309,102 L300,99 L276,94 L265,93 Z M29,95 Z M466,100 L466,101 L474,101 L474,100 Z M28,101 Z M61,103 L61,106 L63,103 Z M466,106 Z M56,108 L57,111 L58,108 Z M27,109 L24,112 L23,115 L23,123 L24,119 L31,120 L32,117 L31,110 Z M55,111 Z M54,112 Z M52,113 L51,117 L52,115 L54,115 L54,113 Z M199,113 Z M196,114 Z M195,115 Z M484,115 Z M193,116 Z M50,117 L50,120 Z M306,119 Z M320,122 L317,124 L316,131 L318,135 L321,136 L320,128 L325,130 L328,134 L335,136 L336,132 L335,129 L333,129 L333,126 L328,125 L328,123 Z M464,122 Z M466,122 L465,124 L467,124 Z M475,122 Z M24,124 Z M25,125 L26,127 Z M305,121 L301,128 L291,128 L291,126 L286,125 L282,131 L282,133 L277,134 L277,135 L288,136 L300,133 L300,131 L304,129 L307,125 L306,121 Z M26,127 L29,130 L34,129 L35,127 Z M40,131 L40,133 L38,133 L37,138 L39,138 L41,134 Z M271,133 L271,134 L277,134 L277,133 Z M466,133 Z M468,134 Z M470,135 Z M321,136 Z M472,136 L474,140 L477,139 L474,136 Z M322,137 Z M36,138 L34,141 L34,144 L32,144 L33,148 L37,141 Z M323,138 Z M324,139 Z M325,140 Z M477,140 Z M326,141 Z M478,141 L478,144 L482,148 L486,157 L487,153 L483,145 L480,141 Z M328,142 L332,146 L336,145 L330,142 Z M336,146 Z M338,147 Z M31,148 L32,150 Z M341,148 Z M344,149 Z M30,150 L31,152 Z M347,150 Z M29,152 Z M353,152 Z M28,153 L26,159 L29,156 Z M356,153 Z M359,154 L360,156 Z M361,155 Z M389,155 L391,159 L395,160 L393,156 Z M364,156 Z M367,157 Z M487,157 L488,161 Z M369,158 Z M25,159 L26,162 Z M371,159 Z M373,160 Z M375,161 Z M488,161 L488,171 L489,171 L489,161 Z M24,162 L25,165 Z M377,162 Z M396,162 Z M399,163 L401,167 L403,168 L401,164 Z M381,164 Z M23,165 L24,167 Z M383,165 Z M385,166 L385,168 L387,167 Z M404,167 Z M388,168 Z M405,168 L406,170 Z M22,169 Z M407,169 L407,172 Z M392,171 Z M16,172 L16,187 L17,187 L19,179 L21,172 Z M408,172 Z M487,172 L488,175 Z M395,173 Z M411,173 Z M398,175 Z M413,175 L413,177 L416,178 L418,181 L424,184 L422,180 L418,179 L417,176 Z M486,175 L487,178 Z M141,176 Z M140,178 L139,182 L141,181 Z M402,178 L403,180 L405,179 Z M485,178 L486,181 Z M406,181 Z M409,183 Z M410,184 Z M424,184 Z M427,184 L427,187 L429,187 L428,184 Z M411,185 Z M413,186 L413,188 L415,187 Z M483,181 L477,188 L477,190 L474,190 L474,192 L467,193 L465,194 L448,194 L438,192 L438,190 L432,189 L432,187 L429,188 L430,190 L444,197 L453,199 L460,199 L470,196 L478,191 L485,183 L485,181 Z M416,188 Z M417,189 Z M418,190 Z M419,191 Z M420,192 Z M421,193 L422,195 Z M423,195 Z M425,196 Z M426,197 Z M427,198 Z M428,199 Z M484,199 L484,221 L485,221 L485,199 Z M429,200 L431,204 L439,213 L446,223 L453,234 L461,250 L465,259 L466,255 L461,242 L454,228 L444,215 L435,205 Z M293,201 L279,204 L266,209 L256,215 L246,224 L240,233 L236,244 L233,257 L233,275 L235,284 L239,294 L243,298 L242,293 L238,279 L238,253 L241,242 L246,233 L255,223 L255,221 L260,219 L270,215 L274,214 L284,214 L296,221 L301,222 L304,220 L303,214 L302,208 L314,210 L323,216 L330,223 L331,220 L336,222 L340,228 L342,236 L342,247 L337,257 L330,265 L320,267 L320,263 L315,263 L317,264 L317,268 L293,268 L294,270 L303,272 L317,272 L318,277 L301,281 L298,283 L298,285 L301,285 L302,288 L310,290 L317,289 L319,303 L322,306 L328,299 L328,297 L336,299 L338,285 L345,268 L345,248 L350,249 L354,270 L354,291 L352,302 L345,316 L343,318 L333,318 L326,316 L322,321 L321,330 L312,332 L313,334 L315,334 L315,336 L321,338 L328,336 L328,342 L318,342 L316,343 L315,349 L318,349 L318,351 L326,350 L328,346 L331,344 L331,342 L340,341 L341,348 L342,344 L344,344 L346,338 L340,338 L339,336 L337,336 L337,331 L345,331 L346,337 L348,334 L354,316 L357,296 L357,273 L354,255 L347,234 L340,223 L333,216 L330,216 L329,213 L326,213 L325,210 L321,210 L321,208 L307,203 L299,202 L298,213 L293,213 L293,204 L298,202 L298,201 Z M466,206 Z M472,206 Z M455,207 Z M455,211 L455,212 L460,212 L460,211 Z M462,217 L466,218 Z M279,222 L277,223 L280,232 L285,242 L286,246 L273,245 L271,250 L280,254 L286,264 L290,268 L292,267 L292,263 L295,262 L295,249 L299,249 L300,254 L304,262 L307,263 L315,263 L312,261 L308,258 L307,249 L309,244 L312,242 L321,243 L323,244 L323,238 L318,233 L314,233 L313,230 L307,230 L302,235 L298,241 L298,243 L293,241 L293,236 L293,233 L283,223 Z M473,238 Z M262,240 L259,242 L265,242 L265,240 Z M472,244 Z M254,245 L251,249 L249,260 L252,280 L254,281 L258,277 L263,267 L274,267 L275,266 L275,260 L265,260 L258,257 L256,254 L255,245 Z M270,248 Z M145,250 L142,253 L143,256 L149,256 L157,263 L157,260 L151,252 L148,250 Z M466,260 L467,263 Z M158,263 L159,265 Z M467,264 L468,267 Z M159,266 L160,268 Z M468,269 L469,271 Z M160,270 L157,272 L158,275 L158,286 L154,299 L155,301 L159,297 L159,295 L164,295 L162,302 L158,307 L154,321 L154,326 L156,322 L162,314 L166,308 L171,303 L174,294 L173,290 L168,289 L160,289 L162,282 L162,275 L161,270 Z M470,279 Z M471,285 Z M472,292 L473,294 Z M473,302 L474,305 Z M17,316 L17,332 L18,332 L18,325 L21,324 L18,316 Z M474,316 L473,335 L473,347 L474,347 L475,337 L475,316 Z M22,326 Z M166,327 L162,329 L162,331 L155,330 L156,340 L160,351 L162,356 L164,356 L164,362 L161,363 L164,368 L173,377 L177,380 L180,380 L180,382 L183,382 L183,384 L188,386 L182,379 L180,379 L179,375 L177,374 L176,371 L174,371 L174,368 L172,368 L172,364 L170,364 L167,349 L167,339 L169,329 L168,327 Z M188,329 L182,330 L179,333 L177,337 L177,347 L179,347 L179,350 L185,352 L188,351 L189,347 L183,342 L183,333 L190,333 Z M311,333 Z M26,334 Z M28,337 L29,339 Z M195,338 L195,340 L198,341 L197,338 Z M29,339 Z M198,341 Z M203,340 L203,342 L199,343 L198,350 L196,354 L196,363 L187,363 L188,368 L193,378 L199,379 L198,374 L196,374 L197,370 L201,369 L200,354 L204,355 L208,368 L213,369 L214,363 L218,363 L222,382 L230,389 L232,388 L229,382 L228,377 L228,367 L229,361 L222,355 L216,351 L214,355 L209,356 L206,345 L204,340 Z M301,342 L298,346 L297,355 L302,351 L302,348 L308,347 L305,344 Z M33,346 Z M309,346 Z M313,347 Z M472,347 L470,358 L470,363 L472,359 L473,356 L473,347 Z M35,349 Z M339,349 L340,351 Z M338,351 L339,353 Z M154,353 L155,355 Z M155,355 L156,357 Z M334,355 L330,359 L330,361 L325,363 L310,368 L309,378 L303,381 L303,383 L294,385 L297,387 L299,391 L305,388 L305,386 L309,385 L312,380 L314,371 L318,371 L319,376 L324,372 L324,369 L328,368 L336,358 L337,355 Z M156,357 L158,360 L158,357 Z M158,360 L159,362 L161,361 Z M44,363 Z M469,363 L462,384 L454,398 L453,403 L457,399 L458,395 L460,395 L469,372 L470,363 Z M28,364 L24,368 L23,377 L27,383 L29,384 L33,382 L32,375 L26,376 L27,368 L36,369 L39,374 L41,374 L41,389 L38,397 L33,410 L31,416 L31,427 L34,433 L38,434 L42,430 L43,423 L42,418 L40,420 L34,421 L35,413 L46,413 L49,418 L50,431 L52,428 L54,418 L54,402 L52,390 L48,379 L46,379 L46,376 L44,376 L43,372 L35,364 Z M45,365 Z M46,366 Z M268,367 L263,372 L262,375 L255,373 L248,370 L243,371 L243,374 L245,374 L246,378 L246,388 L243,390 L232,389 L233,391 L243,394 L244,395 L249,395 L250,388 L255,387 L253,395 L258,394 L259,390 L263,390 L263,396 L265,395 L266,389 L269,387 L268,385 L267,373 L272,374 L274,383 L275,383 L276,372 L277,367 Z M48,369 Z M201,369 Z M49,370 Z M53,375 Z M58,382 Z M208,382 L207,390 L197,390 L199,392 L209,395 L210,388 L214,388 L214,386 L211,385 Z M275,383 Z M60,384 Z M276,384 Z M61,385 Z M277,385 Z M279,385 Z M189,386 Z M286,386 L289,388 L289,394 L293,393 L293,391 L291,391 L292,386 Z M191,387 Z M16,388 L16,408 L17,408 L17,388 Z M192,388 Z M64,389 Z M194,389 Z M271,389 L272,396 L274,392 Z M216,390 L217,394 L218,391 Z M66,391 Z M67,392 Z M68,393 Z M224,393 L224,398 L222,399 L231,400 L232,398 L227,396 L227,394 Z M69,394 L71,398 L75,402 L78,407 L83,412 L90,418 L95,423 L97,423 L97,425 L102,426 L100,422 L97,422 L95,418 L91,417 L89,413 L70,394 Z M25,395 Z M215,394 L211,396 L216,397 Z M467,398 Z M238,400 L238,401 L246,402 L245,400 Z M246,400 Z M63,402 Z M452,403 L447,407 L446,410 L443,412 L444,415 L453,405 Z M442,415 Z M439,416 L436,421 L440,419 L442,416 Z M463,413 L459,414 L459,416 L457,416 L456,421 L458,425 L467,426 L468,430 L465,431 L465,433 L447,433 L441,432 L429,432 L428,426 L423,428 L409,431 L392,430 L382,427 L376,424 L374,424 L372,420 L371,422 L368,422 L368,424 L364,425 L364,427 L361,427 L361,429 L358,429 L359,431 L363,430 L363,428 L374,425 L374,427 L381,430 L393,435 L428,435 L436,438 L439,440 L440,448 L437,453 L437,455 L425,455 L425,453 L417,450 L414,454 L414,456 L407,456 L407,454 L404,454 L404,452 L398,451 L397,449 L392,446 L385,445 L384,443 L368,439 L359,442 L354,444 L350,449 L349,457 L352,465 L354,467 L364,468 L370,465 L371,459 L369,454 L361,455 L358,459 L358,462 L354,462 L353,452 L355,448 L365,446 L375,447 L385,451 L396,458 L405,464 L415,469 L418,470 L427,470 L434,467 L439,462 L445,462 L451,466 L454,467 L461,467 L463,466 L464,462 L460,453 L458,450 L456,450 L456,448 L454,448 L454,441 L465,440 L471,435 L474,431 L474,423 L471,415 L467,413 Z M71,420 L67,421 L65,425 L66,431 L72,432 L76,427 L76,422 Z M435,421 Z M432,422 L431,424 L435,422 Z M430,424 Z M428,425 Z M86,426 Z M102,426 L102,429 L106,429 L105,426 Z M106,429 L106,431 L111,434 L113,434 L113,432 L110,432 L109,429 Z M16,430 L16,464 L17,464 L17,430 Z M49,431 L50,435 Z M355,431 L355,433 L358,433 L358,431 Z M24,432 Z M87,432 L87,433 L92,433 L92,432 Z M353,432 L352,435 L355,434 Z M113,434 L114,436 L116,436 L116,434 Z M350,434 L350,436 L352,435 Z M48,435 L49,437 Z M116,436 L117,438 L119,438 L119,436 Z M347,436 L345,437 L345,439 L338,441 L332,444 L332,446 L327,447 L313,453 L302,457 L279,463 L252,467 L214,469 L214,470 L255,470 L281,466 L301,461 L323,453 L339,445 L350,437 Z M47,437 L48,439 Z M64,438 Z M119,438 L120,440 L122,440 L122,438 Z M122,440 L126,443 L126,440 Z M84,442 L68,446 L63,447 L63,449 L77,448 L84,450 L85,458 L78,458 L77,454 L70,455 L66,459 L67,463 L69,465 L78,465 L94,460 L106,456 L111,455 L127,455 L135,458 L137,460 L137,467 L136,470 L131,470 L130,462 L122,463 L120,465 L121,470 L125,473 L133,473 L139,470 L141,468 L140,459 L135,454 L130,453 L129,450 L125,450 L125,448 L109,443 L102,442 Z M127,443 Z M129,444 Z M132,444 L131,446 L134,447 L133,444 Z M135,447 Z M137,448 L140,450 L140,448 Z M25,446 L23,449 L23,472 L41,473 L46,471 L45,468 L42,468 L41,462 L46,459 L47,457 L47,451 L45,448 L38,449 L38,451 L32,453 L37,458 L37,469 L28,469 L25,467 L25,455 L30,454 L27,446 Z M59,449 L63,450 Z M58,450 Z M141,450 Z M55,451 Z M144,451 Z M146,452 Z M149,453 Z M151,454 Z M154,455 Z M156,456 Z M159,457 Z M336,457 L340,458 Z M162,458 Z M168,460 Z M172,461 Z M54,462 Z M176,462 Z M180,463 Z M184,464 Z M388,464 L388,468 L390,467 Z M188,465 Z M193,466 Z M17,467 L17,478 L30,478 L30,477 L18,477 L18,467 Z M198,467 L202,468 Z M480,467 L481,470 Z M205,468 L205,469 L213,469 L213,468 Z M306,468 Z M480,471 L480,477 L481,477 L481,471 Z M292,472 Z M301,469 L301,472 L295,472 L295,473 L303,473 Z M350,473 L354,474 Z M379,473 L383,474 Z M178,474 L177,477 L170,478 L170,479 L197,479 L195,474 Z M479,477 Z M36,478 L36,479 L56,479 L56,478 Z M440,478 Z M67,479 L67,480 L163,480 L163,479 Z " fill="#000000" transform="translate(3,0)"/>
<path d="M0,0 L24,0 L52,2 L78,6 L107,12 L122,16 L151,16 L165,13 L170,13 L170,11 L178,8 L183,8 L186,18 L192,44 L201,75 L204,82 L208,94 L210,95 L212,99 L214,100 L217,105 L219,105 L228,102 L239,102 L244,108 L245,111 L245,120 L239,127 L236,129 L231,130 L224,130 L214,127 L212,126 L212,124 L209,124 L207,121 L204,120 L197,112 L192,107 L189,106 L187,103 L184,102 L181,98 L176,95 L170,88 L166,86 L160,79 L157,78 L153,73 L150,72 L147,68 L142,65 L142,63 L139,63 L137,60 L134,59 L133,57 L124,52 L123,50 L120,49 L120,47 L115,46 L115,44 L112,44 L112,42 L107,41 L88,32 L73,27 L52,23 L40,22 L29,22 L9,25 L-11,31 L-27,38 L-29,38 L-29,40 L-34,41 L-34,43 L-46,51 L-54,58 L-57,58 L-59,62 L-67,70 L-69,70 L-69,73 L-72,74 L-74,79 L-76,79 L-77,82 L-80,85 L-83,90 L-87,94 L-88,97 L-90,97 L-91,102 L-93,102 L-95,107 L-105,128 L-112,149 L-117,173 L-119,190 L-119,218 L-116,242 L-111,263 L-105,280 L-97,297 L-97,299 L-95,299 L-92,305 L-92,307 L-90,307 L-90,310 L-88,310 L-88,313 L-85,314 L-85,317 L-82,318 L-79,323 L-71,330 L-63,338 L-58,342 L-58,344 L-54,345 L-54,347 L-51,347 L-51,349 L-48,349 L-48,351 L-45,351 L-45,353 L-40,354 L-38,355 L-38,357 L-34,357 L-34,359 L-28,360 L-14,366 L5,370 L13,371 L37,371 L60,368 L81,361 L89,357 L92,357 L92,355 L97,354 L97,352 L100,351 L101,349 L104,349 L104,347 L107,347 L109,343 L112,342 L117,336 L123,331 L124,328 L127,326 L128,323 L130,322 L131,319 L133,319 L135,313 L137,313 L138,307 L140,307 L143,298 L149,277 L152,261 L153,245 L153,233 L150,212 L145,194 L137,177 L129,166 L120,156 L116,152 L113,151 L112,149 L109,148 L108,146 L105,145 L105,143 L99,142 L99,140 L92,139 L76,135 L57,135 L41,139 L31,143 L22,150 L14,157 L5,171 L1,179 L-3,190 L-6,203 L-6,226 L-3,241 L2,254 L10,265 L21,275 L30,279 L35,279 L35,267 L38,259 L43,254 L49,252 L60,252 L66,255 L66,257 L69,258 L69,261 L71,261 L73,266 L73,276 L67,288 L51,296 L46,298 L34,299 L26,297 L16,293 L3,283 L-8,269 L-14,258 L-22,245 L-34,225 L-41,213 L-47,203 L-55,187 L-58,181 L-58,173 L-42,161 L-25,149 L-12,141 L2,133 L15,127 L30,121 L47,116 L69,113 L89,113 L105,115 L119,118 L137,124 L154,132 L165,140 L170,144 L170,146 L175,148 L176,151 L180,153 L180,155 L184,157 L185,161 L189,163 L192,167 L192,169 L195,170 L206,187 L216,208 L222,227 L225,239 L227,262 L227,280 L225,303 L219,327 L215,337 L213,337 L211,344 L209,344 L209,347 L204,352 L202,356 L198,360 L195,361 L194,363 L189,364 L188,366 L170,366 L164,364 L163,362 L160,361 L160,358 L157,357 L151,339 L149,339 L148,343 L137,354 L133,356 L128,361 L124,363 L123,365 L120,365 L120,367 L117,367 L116,369 L107,375 L100,378 L97,378 L97,380 L76,388 L57,393 L41,396 L17,398 L-4,398 L-33,395 L-61,389 L-72,385 L-81,381 L-93,375 L-93,373 L-98,372 L-101,369 L-105,368 L-107,364 L-110,364 L-110,362 L-113,362 L-114,360 L-118,358 L-118,356 L-122,355 L-123,352 L-126,351 L-126,349 L-130,348 L-135,343 L-138,340 L-140,336 L-147,330 L-150,325 L-152,324 L-153,321 L-155,320 L-156,317 L-158,316 L-161,310 L-163,309 L-163,306 L-165,306 L-165,303 L-167,302 L-170,297 L-170,295 L-173,294 L-173,290 L-176,289 L-177,283 L-179,283 L-187,267 L-192,256 L-201,232 L-207,212 L-205,200 L-198,174 L-189,147 L-183,132 L-181,132 L-180,125 L-177,119 L-175,119 L-172,110 L-170,106 L-168,106 L-167,101 L-165,98 L-163,98 L-161,92 L-160,90 L-158,90 L-158,87 L-156,87 L-156,84 L-153,81 L-152,79 L-150,79 L-148,75 L-143,69 L-142,66 L-134,59 L-122,47 L-121,45 L-117,43 L-116,41 L-113,40 L-112,38 L-109,38 L-109,36 L-106,36 L-106,34 L-103,33 L-100,30 L-95,29 L-95,27 L-87,23 L-83,23 L-83,21 L-58,12 L-40,6 L-19,2 Z M9,12 L-15,14 L-34,18 L-49,22 L-69,29 L-88,38 L-88,40 L-93,41 L-93,43 L-96,43 L-96,45 L-100,46 L-100,48 L-103,48 L-104,50 L-107,51 L-111,56 L-114,57 L-115,59 L-120,62 L-123,67 L-132,75 L-133,78 L-136,80 L-136,83 L-138,83 L-138,86 L-141,87 L-141,90 L-144,91 L-144,94 L-146,94 L-151,103 L-151,105 L-153,105 L-155,112 L-157,112 L-166,131 L-168,134 L-168,138 L-170,138 L-177,155 L-184,175 L-192,199 L-194,210 L-188,231 L-183,246 L-178,256 L-174,266 L-165,283 L-162,289 L-160,289 L-160,292 L-158,292 L-158,295 L-156,295 L-156,298 L-154,298 L-152,303 L-151,306 L-149,307 L-147,311 L-144,314 L-141,319 L-137,322 L-135,326 L-129,331 L-127,335 L-120,341 L-118,344 L-114,346 L-110,351 L-107,351 L-106,354 L-102,355 L-102,357 L-97,359 L-97,361 L-94,361 L-93,364 L-90,364 L-90,366 L-87,366 L-87,368 L-63,379 L-38,387 L-11,392 L4,393 L19,393 L40,391 L63,386 L79,381 L93,376 L93,374 L98,372 L101,371 L105,367 L117,361 L119,358 L124,355 L140,338 L144,334 L147,333 L149,330 L152,329 L152,327 L161,328 L162,331 L164,331 L166,345 L169,354 L174,358 L181,359 L191,354 L191,352 L195,351 L201,345 L202,342 L204,341 L205,336 L207,336 L210,328 L213,321 L216,309 L218,294 L219,277 L219,257 L217,239 L211,217 L204,200 L198,189 L191,178 L182,167 L174,158 L167,152 L159,146 L156,146 L156,144 L153,144 L152,142 L146,140 L145,138 L142,138 L142,136 L125,130 L108,125 L94,123 L74,123 L59,125 L40,130 L21,137 L12,141 L12,143 L3,146 L-1,148 L-1,150 L-6,151 L-8,152 L-8,154 L-11,154 L-11,156 L-16,157 L-16,159 L-19,159 L-19,161 L-23,162 L-33,169 L-33,171 L-37,172 L-37,174 L-41,175 L-41,177 L-45,178 L-49,183 L-39,201 L-32,212 L-24,225 L-18,237 L-6,258 L-3,261 L-6,252 L-10,242 L-13,231 L-14,225 L-14,205 L-12,193 L-6,177 L-1,167 L9,154 L20,144 L33,136 L46,131 L51,130 L77,130 L93,133 L106,138 L116,143 L119,144 L119,146 L125,149 L138,161 L147,172 L155,187 L160,201 L164,217 L166,232 L166,262 L163,281 L159,296 L155,305 L151,315 L151,317 L149,317 L148,322 L146,322 L140,332 L137,334 L134,339 L124,349 L120,351 L119,353 L115,355 L111,359 L101,364 L101,366 L91,369 L91,371 L82,373 L70,377 L49,381 L37,382 L22,382 L1,380 L-17,376 L-31,371 L-34,371 L-35,369 L-40,366 L-44,366 L-44,364 L-50,362 L-50,360 L-53,360 L-53,358 L-56,358 L-56,356 L-60,354 L-62,351 L-67,348 L-80,335 L-81,332 L-85,329 L-86,326 L-88,325 L-89,322 L-91,322 L-92,318 L-94,318 L-96,313 L-98,308 L-100,308 L-100,305 L-102,305 L-105,296 L-107,296 L-108,291 L-110,285 L-112,285 L-113,279 L-119,261 L-123,241 L-125,229 L-126,216 L-126,188 L-123,164 L-118,143 L-113,128 L-108,116 L-104,108 L-104,106 L-102,106 L-97,97 L-97,94 L-95,94 L-93,91 L-93,88 L-91,88 L-91,85 L-88,84 L-85,80 L-85,77 L-82,76 L-82,74 L-80,74 L-77,69 L-60,52 L-57,51 L-54,47 L-51,46 L-47,42 L-44,41 L-44,39 L-39,38 L-39,36 L-36,36 L-36,34 L-30,33 L-30,31 L-21,29 L-21,27 L-16,26 L5,20 L17,18 L29,17 L47,17 L65,19 L88,25 L104,33 L108,33 L109,35 L117,40 L120,40 L120,42 L126,44 L126,46 L129,46 L129,48 L134,49 L136,53 L139,53 L140,56 L143,56 L144,59 L147,59 L149,63 L154,67 L157,67 L158,70 L161,71 L162,73 L164,73 L166,77 L171,80 L178,88 L182,90 L187,96 L190,97 L191,100 L194,101 L201,109 L205,113 L209,115 L210,117 L215,118 L215,120 L226,125 L232,124 L236,121 L237,116 L234,113 L230,114 L229,117 L222,119 L222,117 L219,117 L218,114 L215,114 L213,110 L209,107 L205,100 L199,90 L197,90 L196,84 L193,77 L189,61 L184,41 L182,30 L179,23 L161,27 L153,28 L121,28 L99,24 L81,19 L53,14 L31,12 Z M-3,261 L-2,263 Z M53,262 L48,266 L46,272 L50,280 L51,281 L50,289 L55,287 L60,284 L64,279 L65,271 L62,266 L57,262 Z M-2,263 L-1,266 L-1,263 Z M0,266 L1,268 Z M1,268 L2,271 L2,268 Z M3,271 Z M4,272 Z M5,274 Z M6,275 Z M7,276 Z M8,277 Z M9,278 Z M10,279 Z M12,280 L14,284 L21,288 L32,292 L47,291 L47,290 L31,289 L20,285 Z M48,289 Z " fill="#000000" transform="translate(222,45)"/>
<path d="M0,0 L11,1 L11,5 L2,7 L2,15 L-4,13 L-9,10 L-9,4 L-8,2 L-3,1 Z " fill="#000000" transform="translate(192,150)"/>
<path d="M0,0 L7,0 L7,7 L-9,12 L-13,12 L-12,7 L-10,7 L-10,5 L-5,4 L-5,2 Z " fill="#000000" transform="translate(172,155)"/>
<path d="M0,0 L4,0 L5,2 L5,8 L1,8 L2,15 L-3,16 L-7,13 L-7,6 L-2,6 L-1,1 Z M-2,6 Z " fill="#000000" transform="translate(335,269)"/>
<path d="M0,0 L9,2 L11,3 L11,7 L3,6 L0,5 L-1,2 Z " fill="#000000" transform="translate(255,114)"/>
<path d="M0,0 L5,0 L7,4 L7,8 L1,8 Z " fill="#000000" transform="translate(323,283)"/>
<path d="M0,0 L4,0 L4,8 L-1,8 L-1,1 Z " fill="#000000" transform="translate(240,99)"/>
<path d="M0,0 L5,0 L5,6 L-1,6 Z " fill="#000000" transform="translate(346,323)"/>
<path d="M0,0 L5,0 L6,5 L0,5 Z " fill="#000000" transform="translate(140,307)"/>
<path d="M0,0 L5,0 L6,5 L0,5 Z " fill="#000000" transform="translate(167,147)"/>
<path d="M0,0 L5,1 L5,6 L1,5 Z " fill="#000000" transform="translate(174,142)"/>
<path d="M0,0 L4,0 L4,6 L0,6 Z " fill="#000000" transform="translate(229,101)"/>
<path d="M0,0 L4,0 L4,5 L0,5 Z " fill="#000000" transform="translate(144,320)"/>
<path d="M0,0 L4,0 L4,5 L0,5 Z " fill="#000000" transform="translate(338,263)"/>
<path d="M0,0 L4,0 L4,4 L0,4 Z " fill="#000000" transform="translate(142,313)"/>
<path d="M0,0 L4,0 L4,4 L0,4 Z " fill="#000000" transform="translate(163,153)"/>
</svg>
