<?xml version="1.0" encoding="UTF-8"?>
<!-- Generator: visioncortex VTracer 0.6.4 -->
<svg version="1.1" xmlns="http://www.w3.org/2000/svg" width="490" height="802">
<path d="M0,0 L4,1 L12,8 L25,15 L46,29 L62,41 L74,50 L84,59 L95,68 L105,77 L112,85 L117,89 L124,97 L133,106 L142,117 L152,130 L165,148 L176,166 L186,181 L196,200 L205,220 L214,240 L224,270 L233,304 L240,345 L242,368 L243,372 L244,389 L244,403 L241,451 L235,490 L231,510 L222,541 L215,562 L208,580 L199,600 L187,623 L175,643 L159,668 L146,684 L138,694 L126,708 L117,717 L110,725 L102,732 L87,746 L73,757 L62,766 L48,777 L34,786 L21,795 L13,795 L12,781 L11,749 L10,688 L8,653 L6,644 L9,634 L9,618 L8,596 L7,475 L5,435 L4,359 L-4,363 L-13,371 L-18,379 L-20,385 L-23,402 L-27,411 L-31,417 L-38,418 L-43,412 L-45,403 L-46,393 L-45,360 L-42,341 L-36,322 L-26,304 L-17,292 L-8,281 L1,272 L2,270 L2,240 L0,150 L-1,90 L-3,39 L-3,20 L-2,1 Z M112,216 L102,217 L86,223 L72,230 L63,237 L53,247 L44,253 L37,263 L39,264 L39,262 L44,260 L53,255 L61,254 L70,257 L84,266 L92,271 L105,274 L117,273 L123,269 L131,261 L131,259 L135,257 L142,251 L146,249 L152,249 L160,255 L163,254 L162,245 L155,234 L146,225 L136,220 L124,216 Z M11,437 L11,499 L13,589 L14,628 L21,627 L33,621 L47,611 L54,604 L59,600 L67,590 L75,570 L79,552 L80,531 L78,513 L72,497 L65,483 L58,470 L47,456 L35,446 L22,439 L15,437 Z " fill="#000000" transform="translate(246,0)"/>
<path d="M0,0 L5,0 L6,4 L5,21 L6,40 L7,45 L7,53 L3,55 L-21,58 L-40,63 L-53,68 L-73,77 L-84,85 L-93,92 L-101,98 L-113,109 L-120,118 L-134,136 L-143,148 L-152,163 L-159,184 L-161,202 L-162,214 L-162,224 L-159,243 L-150,270 L-143,281 L-134,295 L-126,306 L-123,316 L-123,324 L-125,335 L-131,343 L-138,348 L-143,353 L-144,354 L-144,367 L-137,381 L-131,388 L-129,389 L-104,389 L-93,393 L-87,398 L-81,409 L-78,413 L-77,431 L-76,446 L-73,458 L-73,476 L-74,489 L-72,506 L-64,520 L-57,526 L-44,531 L-46,526 L-47,518 L-47,508 L-44,493 L-40,484 L-37,474 L-35,472 L-30,472 L-27,476 L-25,493 L-22,496 L-19,495 L-18,484 L-15,475 L-11,476 L-4,493 L-4,495 L0,493 L1,489 L1,480 L2,479 L10,479 L12,486 L13,487 L13,577 L14,597 L16,694 L17,733 L17,755 L18,794 L12,793 L-6,783 L-25,771 L-35,764 L-48,755 L-61,745 L-72,735 L-83,726 L-90,719 L-98,712 L-109,700 L-121,686 L-132,673 L-142,660 L-149,649 L-156,639 L-166,623 L-179,600 L-190,578 L-201,550 L-212,516 L-219,484 L-224,457 L-226,445 L-228,421 L-228,365 L-222,317 L-217,293 L-209,262 L-199,233 L-191,215 L-178,187 L-168,168 L-154,145 L-145,132 L-138,122 L-127,109 L-118,98 L-106,84 L-99,76 L-87,64 L-79,57 L-64,44 L-51,34 L-41,27 L-31,19 L-16,10 L-10,6 L-5,3 Z " fill="#000000" transform="translate(228,8)"/>
<path d="M0,0 L17,1 L33,5 L39,9 L44,17 L48,21 L59,39 L65,49 L69,58 L71,68 L71,76 L68,83 L65,87 L60,87 L50,80 L41,77 L32,79 L23,82 L10,86 L2,90 L-8,94 L-23,95 L-33,92 L-38,86 L-55,54 L-62,37 L-62,27 L-58,21 L-49,14 L-35,7 L-20,2 L-15,1 Z " fill="#000000" transform="translate(156,190)"/>
</svg>
