<?xml version="1.0" encoding="UTF-8"?>
<!-- Generator: visioncortex VTracer 0.6.4 -->
<svg version="1.1" xmlns="http://www.w3.org/2000/svg" width="506" height="500">
<path d="M0,0 L2,0 L14,36 L19,51 L19,54 L31,55 L49,59 L62,63 L64,59 L72,55 L81,56 L88,62 L90,66 L90,76 L96,78 L114,90 L118,90 L122,85 L124,85 L124,82 L126,82 L127,78 L132,66 L146,66 L149,78 L151,83 L166,75 L176,70 L178,70 L177,74 L169,91 L161,106 L153,122 L152,127 L161,139 L170,154 L178,154 L186,158 L190,164 L191,173 L187,180 L183,184 L188,201 L191,216 L191,226 L202,229 L245,243 L254,246 L253,249 L210,263 L192,269 L188,291 L183,308 L189,315 L190,324 L186,332 L180,336 L172,337 L170,336 L168,342 L156,360 L152,366 L162,385 L182,425 L182,427 L176,425 L122,398 L118,399 L110,405 L109,421 L107,422 L97,422 L90,420 L89,426 L86,431 L78,435 L68,434 L63,430 L53,432 L32,437 L22,438 L19,449 L4,494 L2,500 L-1,499 L-10,471 L-20,440 L-20,438 L-33,437 L-58,431 L-64,430 L-69,435 L-75,437 L-82,436 L-88,432 L-90,431 L-95,434 L-112,434 L-112,419 L-109,414 L-107,414 L-106,408 L-120,398 L-136,406 L-153,414 L-168,422 L-178,427 L-180,427 L-178,421 L-170,404 L-162,389 L-154,373 L-152,369 L-153,365 L-163,351 L-171,337 L-178,337 L-186,333 L-190,327 L-191,319 L-188,312 L-184,307 L-189,290 L-193,268 L-233,255 L-251,249 L-252,246 L-215,234 L-194,227 L-192,227 L-192,218 L-188,198 L-184,184 L-190,179 L-192,175 L-192,165 L-188,159 L-183,155 L-174,154 L-170,155 L-168,150 L-160,137 L-158,134 L-156,121 L-155,119 L-157,109 L-177,69 L-178,65 L-159,74 L-148,79 L-146,72 L-143,69 L-140,66 L-129,66 L-127,68 L-126,86 L-124,87 L-123,92 L-119,93 L-106,84 L-93,76 L-92,75 L-92,67 L-88,60 L-81,56 L-72,56 L-67,59 L-64,61 L-64,63 L-42,57 L-18,53 L-8,23 L-1,1 Z M-135,73 L-140,80 L-145,89 L-148,101 L-148,115 L-142,115 L-142,118 L-145,118 L-150,127 L-151,135 L-148,159 L-146,165 L-144,176 L-138,192 L-135,198 L-126,197 L-126,204 L-123,208 L-116,206 L-119,216 L-120,232 L-115,245 L-113,245 L-112,251 L-108,255 L-106,255 L-106,257 L-98,262 L-93,263 L-86,261 L-98,278 L-102,290 L-102,300 L-100,305 L-98,314 L-94,315 L-90,312 L-87,311 L-91,317 L-91,322 L-90,323 L-79,323 L-79,325 L-84,326 L-90,333 L-90,357 L-87,361 L-80,364 L-79,367 L-86,367 L-89,371 L-89,379 L-92,400 L-95,408 L-103,422 L-106,427 L-104,429 L-95,425 L-85,416 L-80,412 L-73,403 L-67,392 L-63,385 L-63,380 L-68,376 L-70,376 L-70,373 L-60,374 L-57,369 L-52,356 L-42,330 L-40,324 L-40,316 L-41,314 L-37,313 L-35,310 L-35,302 L-41,295 L-41,293 L-35,296 L-31,295 L-30,291 L-30,273 L-27,264 L-20,250 L-28,240 L-29,237 L-31,236 L-48,236 L-60,239 L-66,242 L-65,247 L-58,257 L-62,255 L-64,258 L-63,265 L-65,265 L-67,260 L-74,255 L-81,256 L-82,259 L-84,258 L-76,247 L-68,241 L-60,237 L-54,235 L-46,234 L-31,234 L-30,230 L-31,217 L-30,208 L-26,201 L-24,200 L-25,194 L-33,178 L-39,171 L-41,171 L-41,169 L-47,164 L-53,163 L-61,170 L-63,170 L-64,165 L-71,171 L-73,176 L-73,179 L-76,179 L-73,167 L-68,164 L-67,160 L-71,152 L-77,147 L-87,141 L-97,132 L-102,125 L-113,127 L-115,122 L-121,123 L-131,127 L-126,122 L-120,119 L-113,119 L-112,117 L-115,111 L-124,103 L-128,98 L-131,92 L-133,85 L-133,73 Z M138,73 L134,83 L128,93 L114,104 L111,107 L110,114 L105,113 L102,112 L99,114 L99,116 L95,118 L86,127 L78,133 L73,138 L74,143 L76,152 L70,148 L65,149 L65,151 L62,151 L60,146 L55,148 L43,155 L38,159 L28,173 L24,181 L22,188 L21,197 L31,204 L34,209 L36,224 L36,228 L50,230 L63,235 L73,241 L82,249 L87,256 L90,262 L93,265 L97,264 L106,252 L110,246 L115,234 L119,224 L115,220 L104,223 L104,220 L111,220 L117,217 L115,212 L120,211 L126,207 L131,197 L136,178 L136,171 L141,161 L141,145 L138,144 L142,139 L144,126 L145,109 L145,90 L141,74 Z M-41,140 L-41,142 L-34,145 L-32,146 L-31,149 L-38,147 L-38,150 L-32,154 L-28,159 L-27,163 L-31,162 L-31,165 L-26,167 L-24,173 L-20,177 L-16,176 L-16,173 L-20,170 L-20,163 L-18,158 L-23,160 L-24,156 L-24,146 L-23,141 L-26,142 L-28,145 L-34,140 Z M35,143 L27,147 L26,151 L21,147 L22,151 L23,159 L20,162 L18,160 L17,168 L16,171 L14,171 L14,175 L18,173 L22,168 L29,166 L28,163 L25,163 L26,157 L35,155 L35,153 L28,153 L30,148 L35,147 L38,145 L38,143 Z M0,175 L-14,177 L-17,181 L-17,189 L-14,190 L-15,193 L-10,191 L-7,190 L6,190 L11,193 L15,192 L17,184 L16,179 L14,177 Z M-1,191 L-12,195 L-23,202 L-26,207 L-27,211 L-27,231 L-24,241 L-18,248 L-21,257 L-24,264 L-26,281 L-25,292 L-21,310 L-12,334 L-8,347 L-4,357 L-2,371 L-1,376 L2,377 L7,355 L19,324 L24,313 L28,298 L31,278 L30,265 L26,255 L23,249 L24,245 L30,237 L32,227 L32,217 L29,206 L24,201 L10,194 Z M37,232 L29,247 L27,249 L27,252 L29,252 L30,257 L33,267 L34,294 L37,311 L41,327 L42,330 L50,330 L48,337 L48,341 L59,340 L64,338 L60,344 L55,350 L54,352 L54,358 L63,358 L71,355 L74,353 L68,361 L64,365 L59,368 L58,369 L59,379 L61,385 L67,397 L71,402 L73,402 L73,404 L82,410 L94,414 L103,415 L102,411 L100,411 L98,406 L94,400 L91,392 L82,389 L81,387 L85,388 L89,387 L88,374 L88,348 L89,340 L88,338 L78,333 L76,330 L83,332 L88,332 L90,328 L92,316 L93,304 L93,293 L88,285 L90,285 L90,273 L86,264 L81,254 L75,246 L68,242 L63,244 L59,246 L61,242 L60,237 L51,233 L46,232 Z " fill="#000000" transform="translate(252,0)"/>
<path d="M0,0 L13,1 L20,5 L24,11 L24,22 L21,27 L16,30 L16,44 L12,44 L8,46 L5,46 L5,44 L-2,45 L-4,42 L-4,32 L-8,28 L-14,23 L-16,18 L-15,11 L-11,5 L-4,1 Z M-7,13 L-9,15 L-9,20 L-4,24 L0,25 L2,24 L2,18 L-3,13 Z M14,14 L9,17 L8,24 L14,23 L19,17 L18,14 Z M5,28 L1,36 L5,35 L5,33 L7,33 L9,37 L9,35 L11,34 L7,28 Z " fill="#000000" transform="translate(249,201)"/>
<path d="M0,0 L4,1 L6,6 L-4,9 L-5,12 L-7,12 L-7,14 L-11,13 L-10,6 L-5,4 L-1,2 Z " fill="#000000" transform="translate(358,173)"/>
<path d="M0,0 L2,0 L0,5 L-6,13 L-10,15 L-7,6 Z " fill="#000000" transform="translate(150,172)"/>
<path d="M0,0 L3,1 L6,11 L9,18 L8,21 L5,17 L0,3 Z " fill="#000000" transform="translate(320,174)"/>
<path d="M0,0 L3,4 L3,6 L0,6 L-1,1 Z " fill="#000000" transform="translate(312,195)"/>
<path d="M0,0 L2,0 L2,5 L0,6 Z " fill="#000000" transform="translate(311,189)"/>
</svg>
