<?xml version="1.0" encoding="UTF-8"?>
<!-- Generator: visioncortex VTracer 0.6.4 -->
<svg version="1.1" xmlns="http://www.w3.org/2000/svg" width="611" height="500">
<path d="M0,0 L3,1 L-2,5 L-11,16 L-19,24 L-24,29 L-33,38 L-26,39 L-12,34 L-3,32 L4,32 L4,34 L-8,38 L7,39 L14,41 L14,43 L-3,43 L-9,46 L-8,51 L8,56 L14,61 L14,63 L9,61 L0,59 L-1,62 L3,69 L11,76 L14,81 L11,81 L6,76 L4,75 L10,93 L8,104 L4,123 L-2,138 L-13,157 L-24,171 L-31,180 L-33,180 L-35,184 L-54,203 L-62,210 L-67,216 L-75,223 L-81,230 L-83,230 L-85,234 L-90,239 L-92,239 L-94,243 L-103,254 L-108,259 L-117,273 L-121,283 L-122,287 L-122,296 L-120,306 L-114,317 L-107,323 L-104,325 L-103,308 L-100,294 L-95,279 L-84,263 L-70,249 L-56,240 L-41,234 L-23,230 L3,230 L15,232 L31,240 L39,246 L50,258 L57,271 L58,275 L58,295 L53,312 L46,325 L38,335 L30,343 L17,352 L1,360 L-16,366 L-30,369 L-56,372 L-44,389 L-37,399 L-31,409 L-25,427 L-23,444 L-26,466 L-32,478 L-39,486 L-49,493 L-62,498 L-72,500 L-84,500 L-95,498 L-111,490 L-119,483 L-119,481 L-121,481 L-131,467 L-142,445 L-147,435 L-153,428 L-158,425 L-162,413 L-168,405 L-175,399 L-189,396 L-189,394 L-187,393 L-172,393 L-158,397 L-145,405 L-135,414 L-135,432 L-131,448 L-124,462 L-115,472 L-106,479 L-97,483 L-88,485 L-72,484 L-60,478 L-50,468 L-45,456 L-43,447 L-43,436 L-46,424 L-52,413 L-62,400 L-76,381 L-82,373 L-84,368 L-91,368 L-102,365 L-121,357 L-131,351 L-142,342 L-151,333 L-158,321 L-161,313 L-163,303 L-163,287 L-159,272 L-154,261 L-144,247 L-133,234 L-124,224 L-110,210 L-102,203 L-93,194 L-82,185 L-67,171 L-54,158 L-43,144 L-33,127 L-28,117 L-25,106 L-25,97 L-28,88 L-32,83 L-37,82 L-43,84 L-53,95 L-59,112 L-59,122 L-58,129 L-59,131 L-69,128 L-81,124 L-89,111 L-89,108 L-84,110 L-81,110 L-75,111 L-76,103 L-77,98 L-71,98 L-71,96 L-67,95 L-65,83 L-75,82 L-77,81 L-77,86 L-75,86 L-75,88 L-84,87 L-88,85 L-94,86 L-96,87 L-96,93 L-92,97 L-92,99 L-98,98 L-104,95 L-108,93 L-108,104 L-113,102 L-120,97 L-124,88 L-123,75 L-120,69 L-115,69 L-111,62 L-108,63 L-102,56 L-101,54 L-98,54 L-97,57 L-90,55 L-88,50 L-82,41 L-72,33 L-70,33 L-71,38 L-54,32 L-39,26 L-24,18 L-8,6 Z M-12,39 Z M-22,44 Z M-23,45 Z M-25,46 Z M-26,47 Z M-27,48 Z M-28,49 Z M-29,50 L-30,55 L-27,57 L-19,57 L-20,60 L-13,60 L-15,57 L-27,54 Z M-70,56 L-78,61 L-77,63 L-71,61 L-69,56 Z M-25,60 L-21,61 Z M-28,61 L-31,64 L-25,62 Z M-34,64 L-36,67 L-34,67 L-32,71 L-17,79 L-14,82 L-12,81 L-19,75 L-31,68 L-31,64 Z M-40,68 Z M-115,79 L-114,81 Z M-26,80 Z M-25,81 L-21,82 Z M-21,82 Z M-12,82 Z M-18,83 Z M-11,83 Z M-16,84 Z M-10,84 Z M-14,85 Z M-9,85 L-8,87 Z M-8,87 L-8,90 L-6,92 L-7,87 Z M-98,91 Z M-19,261 L-35,265 L-50,272 L-58,278 L-66,287 L-73,301 L-75,307 L-75,326 L-73,334 L-75,335 L-69,334 L-68,337 L-37,337 L-22,334 L-7,328 L2,323 L12,314 L17,309 L23,299 L25,292 L25,281 L21,273 L12,267 L-5,262 Z M-100,327 Z M-98,328 Z M-96,329 Z M-93,330 Z M-91,331 Z M-88,332 L-84,333 Z M-84,333 L-80,334 Z M-80,334 Z M-82,368 Z M-80,369 L-80,370 L-72,370 L-72,369 Z M-71,369 L-71,371 L-60,371 L-60,370 Z " fill="#000000" transform="translate(495,0)"/>
<path d="M0,0 L3,1 L-4,8 L-10,13 L-12,16 L-14,16 L-16,20 L-29,36 L-36,46 L-46,64 L-50,77 L-51,82 L-51,102 L-47,115 L-41,127 L-38,130 L-38,132 L-34,134 L-20,140 L-5,143 L14,144 L37,142 L52,138 L58,137 L56,141 L47,150 L45,150 L45,152 L43,152 L43,154 L32,163 L27,168 L24,168 L21,161 L9,158 L-5,157 L-22,158 L-46,162 L-59,166 L-75,174 L-91,185 L-104,198 L-105,200 L-107,200 L-107,184 L-102,150 L-96,127 L-88,104 L-76,77 L-74,72 L-82,86 L-94,113 L-102,139 L-107,161 L-110,184 L-111,203 L-114,203 L-117,191 L-124,181 L-127,177 L-132,175 L-144,175 L-155,178 L-167,183 L-181,191 L-195,202 L-208,214 L-216,223 L-223,233 L-225,233 L-225,226 L-218,207 L-208,186 L-200,172 L-190,157 L-177,138 L-165,123 L-158,115 L-149,105 L-132,88 L-124,81 L-112,71 L-98,60 L-96,58 L-115,72 L-126,81 L-135,90 L-142,96 L-147,101 L-153,106 L-160,114 L-165,119 L-179,137 L-189,150 L-202,170 L-214,191 L-222,208 L-227,222 L-229,222 L-233,207 L-237,201 L-244,198 L-267,198 L-281,202 L-294,209 L-305,216 L-318,227 L-328,236 L-338,245 L-345,253 L-351,260 L-359,271 L-366,281 L-373,295 L-374,295 L-373,287 L-365,265 L-352,242 L-342,226 L-333,211 L-324,199 L-312,183 L-300,169 L-293,162 L-289,157 L-282,151 L-277,146 L-262,133 L-249,123 L-236,113 L-220,102 L-206,93 L-188,82 L-176,74 L-158,64 L-144,56 L-128,48 L-98,34 L-74,24 L-40,12 L-14,4 Z M-62,37 Z M-64,38 Z M-66,39 Z M-68,40 Z M-69,41 Z M-71,42 Z M-73,43 Z M-75,44 Z M-77,45 Z M-78,46 Z M-80,47 Z M-82,48 Z M-83,49 Z M-85,50 Z M-87,51 L-88,53 L-85,52 Z M-90,53 L-91,55 L-88,54 Z M-93,55 L-94,57 L-91,56 Z M-66,58 Z M-67,59 L-66,61 Z M-68,61 Z M-69,62 L-68,64 Z M-70,64 L-70,67 Z M-72,67 L-71,69 Z " fill="#000000" transform="translate(374,27)"/>
<path d="M0,0 L4,2 L13,17 L21,33 L30,55 L38,83 L46,119 L52,153 L56,182 L57,193 L57,261 L54,300 L52,312 L50,312 L49,300 L47,300 L43,281 L39,270 L37,273 L32,285 L26,306 L20,324 L10,349 L1,369 L-7,387 L-17,406 L-28,430 L-40,451 L-50,465 L-55,471 L-57,471 L-55,466 L-43,445 L-34,424 L-25,402 L-21,392 L-12,367 L-3,337 L6,304 L11,280 L16,245 L19,213 L19,161 L16,96 L15,85 L14,93 L16,98 L18,151 L18,181 L17,210 L16,219 L14,219 L9,209 L4,206 L-1,207 L-4,211 L-7,218 L-9,218 L-6,204 L-8,204 L-11,192 L-15,178 L-22,166 L-29,160 L-35,158 L-53,158 L-75,163 L-95,170 L-100,173 L-102,173 L-100,169 L-90,159 L-81,148 L-77,142 L-74,142 L-73,145 L-69,147 L-62,147 L-54,143 L-45,136 L-41,132 L-39,132 L-37,128 L-28,119 L-19,107 L-10,90 L-5,77 L1,48 L3,20 L5,20 L3,11 L0,3 Z M7,26 L7,31 L8,31 L8,26 Z M8,31 L9,41 L10,41 L9,31 Z M10,42 L10,49 L11,49 L11,42 Z M11,53 Z M12,58 L12,66 L13,66 L13,58 Z M13,66 L13,75 L14,75 L14,66 Z M12,105 L13,107 Z M11,112 L8,135 L8,141 L9,141 L12,122 L12,112 Z M7,142 L1,170 L-6,200 L-5,204 L2,179 L8,148 L8,142 Z M42,263 L46,266 L45,263 Z M40,264 Z M39,266 Z M46,266 L47,268 Z M47,270 L48,272 Z M48,275 L49,277 Z " fill="#000000" transform="translate(554,21)"/>
</svg>
