<?xml version="1.0" encoding="UTF-8"?>
<!-- Generator: visioncortex VTracer 0.6.4 -->
<svg version="1.1" xmlns="http://www.w3.org/2000/svg" width="577" height="500">
<path d="M0,0 L4,1 L14,6 L19,7 L35,7 L39,16 L46,24 L56,27 L72,28 L71,37 L70,41 L70,64 L72,72 L76,80 L81,86 L92,93 L93,94 L92,110 L89,131 L82,155 L76,166 L66,181 L56,192 L47,197 L26,207 L16,214 L10,218 L7,219 L-4,219 L-10,215 L-19,209 L-34,201 L-50,193 L-61,182 L-71,166 L-78,152 L-85,126 L-89,91 L-90,84 L-87,80 L-75,80 L-62,78 L-57,74 L-52,61 L-52,37 L-37,29 L-33,24 L-31,24 L-28,15 L-26,9 L-16,10 L-7,7 L-1,2 Z M-61,90 L-61,93 L-59,94 L-51,94 L-52,101 L-46,110 L-41,114 L-37,115 L-21,115 L-18,114 L-17,120 L-15,124 L-14,130 L-13,130 L-13,120 L-18,107 L-25,98 L-34,93 L-43,91 Z M63,90 L47,91 L35,94 L29,98 L27,103 L25,103 L21,111 L18,120 L18,129 L19,129 L22,119 L24,114 L39,115 L48,113 L54,106 L57,101 L56,94 L63,94 L66,93 L66,90 Z M-17,165 L-24,171 L-31,174 L-30,176 L-20,176 L-17,175 L-6,174 L19,174 L27,176 L36,175 L36,173 L26,170 L24,166 L23,165 L16,165 L9,168 L4,169 L-3,169 L-12,165 Z M-19,181 L-19,184 L-9,185 L-7,190 L3,192 L11,190 L14,187 L14,185 L24,184 L25,181 L4,182 L-9,182 L-12,181 Z " fill="#060606" transform="translate(247,238)"/>
<path d="M0,0 L4,1 L0,7 L-5,12 L-6,14 L11,14 L8,17 L-5,22 L-16,22 L-25,24 L-29,24 L-30,30 L-36,39 L-45,52 L-51,59 L-63,68 L-67,69 L-77,69 L-89,62 L-89,60 L-92,59 L-92,57 L-104,63 L-120,66 L-131,66 L-153,59 L-164,59 L-172,64 L-175,70 L-174,78 L-172,87 L-172,101 L-174,110 L-182,123 L-187,129 L-198,133 L-219,133 L-229,130 L-235,123 L-235,117 L-230,107 L-224,98 L-222,91 L-222,80 L-224,63 L-223,52 L-217,36 L-210,25 L-202,18 L-192,12 L-175,8 L-164,8 L-150,12 L-124,23 L-118,24 L-104,24 L-101,15 L-94,7 L-86,4 L-72,3 L-54,7 L-34,13 L-23,13 L-15,9 L-13,7 L-3,3 Z " fill="#060606" transform="translate(564,135)"/>
<path d="M0,0 L2,0 L4,11 L8,21 L14,30 L16,34 L25,37 L36,39 L49,47 L61,58 L65,64 L67,70 L69,90 L75,97 L86,105 L90,107 L104,107 L113,101 L126,93 L135,89 L148,89 L158,92 L166,98 L171,105 L185,136 L187,148 L184,155 L175,165 L170,168 L168,169 L159,169 L154,167 L144,154 L136,137 L134,135 L125,135 L118,137 L106,145 L93,151 L75,151 L63,146 L54,139 L46,130 L40,118 L37,106 L28,105 L18,100 L10,92 L8,85 L8,75 L11,53 L11,44 L3,31 L-3,21 L-14,13 L-14,11 L-7,10 L-3,11 L-2,2 Z " fill="#070707" transform="translate(20,96)"/>
<path d="M0,0 L3,1 L1,13 L2,23 L4,32 L4,37 L8,39 L18,49 L28,64 L33,78 L31,88 L27,99 L23,103 L21,103 L23,118 L20,136 L13,152 L4,161 L-4,166 L-20,171 L-29,176 L-36,183 L-40,193 L-42,215 L-45,223 L-50,228 L-56,231 L-69,230 L-77,225 L-81,217 L-82,213 L-82,197 L-80,179 L-74,168 L-69,162 L-51,150 L-32,140 L-21,132 L-14,124 L-10,112 L-10,105 L-22,98 L-27,92 L-30,86 L-30,77 L-27,65 L-18,52 L-10,42 L-6,36 L-7,28 L-12,15 L-16,7 L-18,3 L-13,3 L-9,8 L-4,11 L-1,1 Z " fill="#080808" transform="translate(332,3)"/>
<path d="M0,0 L5,2 L15,9 L20,14 L31,19 L41,22 L42,27 L32,39 L27,49 L24,60 L23,66 L23,81 L26,89 L41,100 L47,108 L48,110 L48,123 L44,140 L40,151 L41,158 L46,170 L53,180 L58,185 L58,187 L52,187 L48,184 L42,181 L41,191 L40,193 L37,193 L35,189 L34,168 L31,160 L16,152 L2,141 L-3,137 L-8,132 L-12,125 L-14,120 L-14,110 L-13,101 L-25,90 L-29,82 L-31,70 L-31,56 L-30,45 L-24,30 L-15,16 L-4,4 Z " fill="#070707" transform="translate(114,296)"/>
<path d="M0,0 L6,1 L14,12 L21,25 L23,36 L22,53 L18,64 L12,72 L6,77 L5,83 L7,88 L7,95 L1,107 L-7,114 L-18,120 L-41,126 L-61,128 L-72,135 L-81,140 L-84,144 L-89,159 L-92,158 L-91,147 L-88,140 L-99,138 L-99,136 L-84,133 L-71,123 L-69,123 L-68,117 L-57,87 L-49,68 L-41,57 L-39,55 L-32,54 L-26,56 L-20,55 L-18,53 L-18,46 L-24,34 L-27,31 L-27,29 L-31,27 L-38,22 L-40,17 L-40,11 L-37,9 L-17,7 L-6,3 Z " fill="#080808" transform="translate(391,326)"/>
<path d="M0,0 L1,0 L3,8 L9,16 L18,23 L20,24 L20,22 L22,21 L39,20 L60,20 L76,24 L82,28 L85,32 L87,38 L89,48 L92,51 L107,56 L124,63 L137,73 L143,79 L143,85 L140,88 L131,93 L111,105 L105,104 L96,95 L88,88 L80,81 L72,81 L62,84 L53,84 L43,80 L35,73 L26,58 L21,47 L18,32 L10,27 L2,24 L-4,22 L-12,21 L-11,17 L-7,14 L-2,14 L-2,3 Z " fill="#080808" transform="translate(155,51)"/>
<path d="M0,0 L3,0 L2,10 L2,25 L6,39 L18,48 L31,60 L37,68 L42,80 L43,84 L43,93 L41,96 L42,100 L47,109 L51,121 L52,127 L52,140 L49,156 L39,158 L34,161 L24,167 L13,175 L4,175 L1,173 L2,163 L8,148 L14,138 L15,137 L15,129 L13,121 L11,117 L2,116 L-8,108 L-13,99 L-15,90 L-14,77 L-5,41 L-5,27 L-9,17 L-18,10 L-18,8 L-13,9 L-4,14 L-3,6 Z " fill="#090909" transform="translate(108,18)"/>
<path d="M0,0 L4,2 L6,7 L6,15 L8,14 L18,14 L20,19 L7,23 L-3,29 L-11,35 L-14,35 L-15,42 L-22,62 L-29,76 L-38,88 L-43,92 L-48,94 L-56,94 L-67,92 L-73,97 L-83,100 L-89,105 L-91,105 L-90,98 L-88,86 L-88,71 L-85,68 L-79,49 L-77,40 L-71,32 L-65,28 L-59,26 L-44,26 L-34,29 L-29,30 L-22,30 L-12,24 L-7,19 L-3,15 L-1,8 Z " fill="#0A0A0A" transform="translate(449,40)"/>
<path d="M0,0 L4,1 L8,10 L12,22 L11,36 L7,47 L1,56 L-7,64 L-16,69 L-30,72 L-45,73 L-54,70 L-64,61 L-67,55 L-68,43 L-65,25 L-62,18 L-57,20 L-50,22 L-27,22 L-15,17 L-5,9 Z " fill="#090909" transform="translate(393,254)"/>
<path d="M0,0 L14,0 L23,5 L27,11 L27,18 L25,18 L23,22 L18,31 L15,40 L15,58 L17,65 L17,74 L14,80 L5,86 L3,87 L-7,87 L-12,84 L-20,73 L-26,61 L-27,53 L-27,39 L-24,25 L-20,15 L-14,7 L-5,1 Z " fill="#080808" transform="translate(227,150)"/>
<path d="M0,0 L7,0 L15,15 L20,22 L30,30 L38,33 L44,45 L44,56 L38,64 L32,68 L17,68 L-1,61 L-13,53 L-19,46 L-24,37 L-29,20 L-29,13 L-15,8 L-1,1 Z " fill="#080808" transform="translate(142,242)"/>
<path d="M0,0 L11,0 L13,3 L14,33 L14,48 L11,60 L7,70 L2,77 L-2,79 L-13,79 L-19,77 L-24,72 L-25,71 L-25,57 L-22,50 L-21,23 L-18,14 L-9,4 L-4,1 Z " fill="#0A0A0A" transform="translate(317,178)"/>
<path d="M0,0 L7,1 L12,3 L25,5 L22,10 L15,17 L8,31 L5,41 L3,47 L-2,45 L-13,41 L-26,37 L-25,32 L-18,20 L-10,10 Z " fill="#111111" transform="translate(190,138)"/>
<path d="M0,0 L11,2 L15,4 L19,9 L20,11 L20,21 L16,28 L12,27 L4,20 L-8,11 L-12,9 L-10,4 Z " fill="#161616" transform="translate(290,97)"/>
<path d="M0,0 Z " fill="#E5E5E5" transform="translate(310,103)"/>
</svg>
