<?xml version="1.0" encoding="UTF-8"?>
<!-- Generator: visioncortex VTracer 0.6.4 -->
<svg version="1.1" xmlns="http://www.w3.org/2000/svg" width="506" height="500">
<path d="M0,0 L2,0 L14,36 L19,51 L19,54 L32,55 L51,59 L61,62 L68,56 L71,55 L78,55 L84,58 L90,65 L91,75 L109,86 L122,96 L127,95 L151,83 L170,73 L179,69 L179,72 L177,72 L175,78 L152,124 L153,128 L163,142 L170,154 L179,154 L186,158 L190,164 L191,173 L187,181 L183,183 L188,200 L191,214 L192,226 L203,229 L254,246 L254,248 L213,262 L192,269 L190,284 L184,306 L186,310 L190,318 L189,327 L182,335 L177,337 L170,338 L160,355 L153,364 L154,369 L182,425 L182,427 L176,425 L146,410 L127,400 L123,398 L118,399 L103,410 L93,416 L91,416 L90,425 L83,433 L77,435 L68,434 L63,430 L54,432 L33,437 L22,438 L19,449 L6,489 L2,500 L0,500 L-14,459 L-20,441 L-20,438 L-33,437 L-58,431 L-63,430 L-69,435 L-71,436 L-82,436 L-89,431 L-92,426 L-93,416 L-108,407 L-120,398 L-139,407 L-177,426 L-180,427 L-178,421 L-152,369 L-153,365 L-163,351 L-170,339 L-170,337 L-178,337 L-184,334 L-189,329 L-191,324 L-190,315 L-184,307 L-189,290 L-193,268 L-250,249 L-252,248 L-252,246 L-206,231 L-195,227 L-192,227 L-192,217 L-187,194 L-184,185 L-191,177 L-192,174 L-192,166 L-189,160 L-183,155 L-180,154 L-172,154 L-170,155 L-168,149 L-156,131 L-150,122 L-160,103 L-178,67 L-178,65 L-173,67 L-121,93 L-116,91 L-105,83 L-93,76 L-92,66 L-87,59 L-82,56 L-71,56 L-65,60 L-61,62 L-39,56 L-17,53 L-16,47 L-4,11 Z M-1,51 L-5,53 L-5,66 L-7,68 L-19,69 L-19,79 L-9,81 L-6,84 L-5,91 L-8,96 L-17,100 L-23,104 L-29,112 L-31,122 L-30,127 L-50,130 L-86,136 L-105,141 L-121,147 L-136,155 L-150,166 L-157,173 L-167,187 L-172,198 L-177,214 L-179,230 L-179,243 L-178,255 L-183,259 L-182,266 L-176,271 L-168,276 L-159,286 L-149,303 L-144,314 L-144,320 L-149,326 L-151,330 L-153,334 L-153,342 L-150,345 L-144,346 L-136,346 L-132,350 L-130,357 L-130,362 L-141,371 L-142,372 L-142,380 L-136,383 L-129,384 L-121,384 L-85,375 L-56,370 L-31,367 L1,365 L39,368 L75,373 L108,380 L123,384 L131,384 L141,382 L143,381 L144,372 L136,365 L132,362 L133,354 L136,347 L139,346 L148,346 L153,344 L155,342 L155,334 L149,323 L146,320 L146,314 L154,298 L162,285 L172,274 L183,268 L185,265 L185,259 L181,256 L179,256 L181,247 L181,227 L178,210 L173,195 L166,182 L157,171 L150,164 L136,154 L121,146 L97,138 L72,133 L46,129 L36,128 L32,127 L33,119 L30,110 L23,102 L11,97 L8,93 L8,84 L11,81 L21,79 L21,69 L9,68 L7,66 L7,52 Z " fill="#000000" transform="translate(252,0)"/>
<path d="M0,0 L10,0 L13,2 L13,85 L10,87 L10,94 L4,100 L3,106 L6,109 L11,112 L13,118 L20,120 L23,129 L23,132 L21,132 L19,136 L13,140 L8,141 L-10,141 L-19,138 L-25,133 L-23,123 L-15,119 L-15,113 L-10,111 L-9,104 L-9,100 L-19,98 L-21,96 L-21,90 L-26,88 L-34,88 L-36,85 L-37,61 L-37,42 L-35,32 L-28,18 L-23,12 L-12,4 Z " fill="#000000" transform="translate(219,151)"/>
<path d="M0,0 L10,0 L22,4 L33,12 L42,24 L46,35 L47,40 L47,64 L46,85 L44,88 L37,88 L31,90 L31,96 L27,98 L22,99 L19,104 L19,111 L25,113 L25,119 L33,124 L35,129 L34,134 L28,139 L21,141 L0,141 L-8,137 L-12,132 L-12,123 L-9,119 L-3,119 L1,111 L7,107 L6,101 L5,98 L3,98 L1,94 L2,88 L-3,85 L-3,2 Z " fill="#000000" transform="translate(277,151)"/>
<path d="M0,0 L2,0 L-1,9 L-8,23 L-12,36 L-14,54 L-13,77 L-12,85 L-14,89 L-13,97 L-19,100 L-21,104 L-20,111 L-19,114 L-14,114 L-13,121 L-5,124 L-1,129 L-2,134 L-8,139 L-13,141 L-25,141 L-34,136 L-37,133 L-36,126 L-33,122 L-33,117 L-35,116 L-34,112 L-31,108 L-32,104 L-38,99 L-43,99 L-45,93 L-49,90 L-55,88 L-57,72 L-57,61 L-56,47 L-52,36 L-45,26 L-43,26 L-41,22 L-27,12 L-6,2 Z " fill="#000000" transform="translate(161,163)"/>
<path d="M0,0 L5,1 L23,9 L35,16 L46,25 L54,36 L58,47 L59,57 L59,75 L57,88 L48,92 L46,94 L45,99 L38,100 L34,104 L34,110 L37,113 L37,116 L35,117 L35,122 L39,128 L39,133 L30,140 L27,141 L15,141 L7,137 L3,132 L4,127 L8,123 L15,121 L16,119 L16,114 L21,113 L23,109 L23,103 L18,98 L15,97 L16,87 L15,86 L15,77 L16,68 L16,50 L13,31 L8,18 L0,2 Z " fill="#000000" transform="translate(343,163)"/>
</svg>
