<?xml version="1.0" encoding="UTF-8"?>
<!-- Generator: visioncortex VTracer 0.6.4 -->
<svg version="1.1" xmlns="http://www.w3.org/2000/svg" width="559" height="500">
<path d="M0,0 L19,0 L20,21 L21,24 L26,25 L32,24 L41,27 L41,44 L28,45 L23,48 L22,55 L23,65 L26,69 L38,72 L46,77 L51,82 L56,91 L58,97 L59,104 L59,112 L72,113 L101,118 L143,128 L178,138 L202,146 L221,156 L232,164 L246,176 L257,189 L268,207 L275,222 L280,237 L284,256 L286,274 L286,304 L291,312 L291,321 L286,327 L275,332 L269,334 L260,343 L249,359 L241,374 L233,394 L231,400 L240,412 L246,424 L246,435 L242,440 L234,443 L218,442 L215,444 L213,450 L211,459 L212,468 L221,471 L227,475 L230,478 L231,485 L228,492 L223,497 L216,500 L202,500 L179,493 L155,488 L122,483 L78,478 L13,472 L-15,472 L-48,475 L-83,480 L-123,488 L-161,497 L-171,499 L-192,499 L-201,495 L-205,490 L-207,486 L-206,480 L-201,475 L-196,472 L-188,469 L-186,465 L-187,456 L-191,446 L-195,443 L-201,442 L-210,442 L-219,439 L-222,435 L-223,429 L-219,418 L-212,407 L-206,400 L-208,390 L-213,379 L-219,368 L-228,356 L-239,343 L-249,333 L-261,327 L-266,323 L-268,320 L-268,312 L-264,307 L-262,306 L-262,264 L-259,245 L-254,228 L-247,211 L-238,196 L-228,183 L-216,170 L-204,160 L-189,150 L-164,138 L-146,132 L-122,126 L-89,120 L-58,116 L-40,115 L-40,105 L-36,91 L-31,82 L-24,75 L-16,71 L-5,69 L-1,65 L0,58 L-2,48 L-7,45 L-21,44 L-23,37 L-23,27 L-13,25 L0,25 Z M-36,152 L-47,154 L-60,159 L-69,166 L-79,175 L-84,184 L-88,194 L-91,207 L-93,225 L-93,254 L-91,274 L-90,278 L-78,280 L-72,284 L-68,293 L-63,297 L-62,295 L-55,297 L-52,302 L-52,311 L-55,316 L-60,319 L-60,326 L-64,330 L-72,334 L-75,339 L-74,349 L-69,355 L-60,358 L-55,359 L-26,359 L-17,356 L-11,349 L-10,345 L-10,333 L-11,331 L-18,331 L-23,326 L-24,319 L-33,314 L-37,310 L-38,304 L-34,296 L-29,291 L-28,282 L-24,277 L-20,275 L-19,251 L-18,182 L-18,153 L-23,152 Z M47,152 L42,153 L42,210 L43,263 L44,275 L50,279 L52,282 L53,291 L59,298 L61,302 L61,309 L57,314 L48,319 L46,328 L41,331 L34,331 L34,347 L38,354 L45,358 L50,359 L78,359 L90,356 L96,352 L98,349 L99,341 L97,336 L93,332 L85,328 L84,327 L84,319 L78,315 L76,312 L76,301 L77,297 L85,295 L85,297 L90,295 L93,292 L95,285 L100,281 L107,279 L114,278 L116,263 L116,217 L113,200 L109,187 L104,177 L99,172 L92,165 L83,159 L75,155 L59,152 Z M-127,169 Z M150,169 Z M-131,170 L-148,176 L-164,184 L-177,193 L-189,204 L-197,214 L-204,226 L-209,241 L-211,252 L-211,278 L-208,295 L-207,298 L-196,302 L-192,307 L-191,311 L-181,315 L-173,321 L-171,324 L-172,331 L-177,337 L-175,340 L-175,350 L-179,356 L-180,357 L-180,365 L-176,371 L-169,375 L-164,376 L-155,376 L-141,374 L-136,371 L-134,367 L-134,359 L-137,352 L-145,352 L-147,350 L-149,341 L-155,339 L-157,335 L-159,330 L-160,320 L-157,314 L-152,311 L-149,310 L-150,306 L-150,299 L-146,294 L-149,274 L-149,241 L-145,217 L-139,197 L-130,177 L-127,172 L-127,170 Z M151,170 L153,176 L161,193 L168,214 L172,235 L173,246 L173,269 L171,286 L170,295 L173,298 L174,305 L172,310 L180,313 L183,318 L183,328 L180,336 L175,340 L172,342 L170,351 L169,352 L160,352 L158,358 L158,368 L163,373 L169,375 L178,376 L188,376 L197,373 L202,368 L204,363 L204,358 L199,350 L198,343 L200,335 L195,330 L195,324 L200,318 L215,310 L217,305 L222,301 L231,297 L234,283 L235,276 L235,254 L232,239 L226,223 L219,212 L208,199 L194,188 L178,179 L158,171 Z " fill="#000000" transform="translate(268,0)"/>
</svg>
