<?xml version="1.0" encoding="UTF-8"?>
<!-- Generator: visioncortex VTracer 0.6.4 -->
<svg version="1.1" xmlns="http://www.w3.org/2000/svg" width="500" height="503">
<path d="M0,0 L5,2 L9,6 L11,16 L15,17 L17,13 L18,4 L21,0 L23,0 L22,10 L23,16 L19,25 L20,33 L24,45 L25,50 L26,66 L37,51 L42,46 L45,45 L45,35 L47,29 L47,20 L46,13 L50,4 L53,3 L51,15 L54,20 L55,28 L62,20 L69,12 L73,7 L74,5 L76,5 L75,11 L68,20 L64,29 L56,38 L53,49 L46,58 L42,66 L38,71 L36,79 L32,87 L28,101 L24,112 L19,140 L18,150 L21,155 L29,134 L37,118 L42,102 L45,92 L55,78 L65,65 L76,50 L80,44 L82,44 L84,40 L90,31 L94,24 L102,20 L108,12 L109,10 L111,10 L110,19 L101,27 L101,33 L109,30 L117,26 L122,17 L126,15 L125,20 L123,23 L130,20 L129,24 L124,28 L120,32 L111,36 L106,41 L98,45 L93,51 L88,60 L78,75 L70,85 L65,96 L60,111 L52,136 L42,162 L40,183 L39,192 L52,182 L68,169 L79,160 L87,152 L88,150 L90,150 L92,145 L101,128 L103,111 L98,89 L94,80 L94,67 L96,67 L98,76 L102,82 L109,91 L110,96 L120,79 L124,53 L127,46 L130,41 L132,27 L134,27 L134,47 L131,53 L131,76 L128,89 L123,99 L122,107 L128,105 L135,100 L137,100 L137,98 L142,93 L150,87 L153,81 L156,76 L159,68 L161,51 L167,44 L169,44 L168,49 L167,54 L169,56 L173,54 L184,53 L189,51 L188,55 L186,58 L175,59 L172,65 L169,67 L164,84 L158,99 L144,114 L134,123 L133,125 L131,125 L131,128 L141,124 L157,116 L166,111 L177,109 L195,108 L199,106 L207,106 L214,108 L215,111 L201,111 L187,117 L187,120 L204,129 L209,132 L219,136 L224,143 L223,147 L221,147 L218,141 L207,138 L205,138 L206,142 L209,145 L208,148 L202,145 L199,141 L197,134 L190,131 L182,128 L175,125 L164,125 L148,133 L139,139 L127,144 L119,150 L114,155 L111,156 L109,160 L101,168 L100,170 L98,170 L98,172 L92,177 L83,188 L75,199 L55,219 L52,225 L51,230 L51,246 L57,260 L58,267 L56,277 L51,288 L50,296 L52,302 L53,306 L35,314 L28,317 L27,318 L6,319 L-9,319 L-26,316 L-32,314 L-31,278 L-32,249 L-34,225 L-37,204 L-45,192 L-45,190 L-47,190 L-51,182 L-63,169 L-65,168 L-65,166 L-69,164 L-77,157 L-77,155 L-94,151 L-107,150 L-114,148 L-121,149 L-143,154 L-153,159 L-158,164 L-163,166 L-171,172 L-173,177 L-175,177 L-178,187 L-184,200 L-186,207 L-190,215 L-191,218 L-193,218 L-193,210 L-195,214 L-202,216 L-202,213 L-197,209 L-195,204 L-190,202 L-188,189 L-181,172 L-193,177 L-202,177 L-210,178 L-212,182 L-214,182 L-213,175 L-210,173 L-192,170 L-181,163 L-172,156 L-162,147 L-158,143 L-142,135 L-138,131 L-146,124 L-153,116 L-159,111 L-171,106 L-183,105 L-194,102 L-205,103 L-214,97 L-215,93 L-211,94 L-205,97 L-193,97 L-187,98 L-179,98 L-182,91 L-191,84 L-193,82 L-193,79 L-189,81 L-174,90 L-168,94 L-158,99 L-150,104 L-142,112 L-139,116 L-135,115 L-125,121 L-122,124 L-116,126 L-109,127 L-87,128 L-83,129 L-87,121 L-92,102 L-103,89 L-119,81 L-126,76 L-130,72 L-134,69 L-144,66 L-144,64 L-130,64 L-124,68 L-123,60 L-125,48 L-122,49 L-118,55 L-114,71 L-112,75 L-102,78 L-93,86 L-93,88 L-91,88 L-90,90 L-87,77 L-88,75 L-89,65 L-94,54 L-101,35 L-100,28 L-98,28 L-96,36 L-93,40 L-88,50 L-83,49 L-80,38 L-74,28 L-72,14 L-70,14 L-69,17 L-69,33 L-73,38 L-76,46 L-76,53 L-79,60 L-78,68 L-77,73 L-78,85 L-76,90 L-73,108 L-71,115 L-61,126 L-53,136 L-45,143 L-45,145 L-40,147 L-33,156 L-25,170 L-16,180 L-16,146 L-21,110 L-23,101 L-30,91 L-35,87 L-48,81 L-55,75 L-60,66 L-69,56 L-70,51 L-66,53 L-57,59 L-52,64 L-51,58 L-53,49 L-57,43 L-57,38 L-52,42 L-47,47 L-44,55 L-41,71 L-37,75 L-25,78 L-26,51 L-28,39 L-30,24 L-38,14 L-36,5 L-35,3 L-33,3 L-32,14 L-25,18 L-22,26 L-20,25 L-18,14 L-12,7 L-10,7 L-12,12 L-14,15 L-15,29 L-18,33 L-15,44 L-14,57 L-12,60 L-12,76 L-7,83 L-5,96 L1,114 L2,118 L7,102 L13,81 L14,71 L14,52 L9,32 L7,22 L4,16 L4,7 L0,2 Z M-83,129 Z M-179,169 Z M-180,170 Z M-192,207 L-191,209 Z M27,258 L25,275 L27,277 L32,277 L34,273 L33,267 L29,258 Z " fill="#0E0E0E" transform="translate(215,0)"/>
<path d="M0,0 L66,0 L69,5 L69,12 L72,15 L82,18 L89,19 L117,19 L133,18 L143,15 L153,13 L168,9 L173,9 L174,14 L175,33 L175,62 L164,62 L155,58 L137,54 L108,51 L70,51 L68,62 L63,74 L53,95 L43,109 L31,123 L17,135 L3,144 L-13,152 L-34,159 L-51,162 L-82,162 L-99,159 L-115,154 L-131,147 L-147,137 L-157,129 L-165,122 L-172,114 L-182,101 L-190,87 L-190,85 L-192,85 L-198,70 L-203,51 L-205,33 L-202,20 L-200,20 L-192,43 L-185,56 L-184,60 L-184,62 L-181,62 L-171,75 L-163,83 L-159,86 L-158,89 L-154,90 L-141,98 L-128,104 L-112,109 L-91,112 L-79,112 L-62,111 L-53,118 L-53,120 L-49,121 L-51,115 L-50,109 L-30,101 L-17,92 L-10,84 L-3,69 L-1,58 L-5,56 L-8,51 L-10,41 L-10,22 L-6,12 L-2,7 Z " fill="#050505" transform="translate(298,215)"/>
<path d="M0,0 L24,8 L39,11 L59,13 L58,37 L58,60 L63,62 L73,70 L77,73 L80,82 L82,89 L90,94 L92,98 L101,102 L100,105 L88,102 L86,99 L81,100 L83,108 L78,107 L75,101 L74,92 L70,88 L68,81 L64,78 L59,77 L57,85 L54,91 L49,96 L49,102 L52,108 L53,122 L50,126 L49,130 L46,130 L45,127 L47,123 L46,115 L44,113 L40,119 L36,121 L32,121 L32,119 L35,117 L36,109 L36,105 L38,105 L39,95 L43,89 L46,82 L45,76 L35,60 L34,56 L34,41 L33,30 L26,37 L24,42 L25,51 L27,56 L27,63 L23,69 L16,76 L12,83 L8,86 L6,95 L8,95 L10,100 L12,100 L13,105 L12,118 L8,117 L7,103 L1,102 L-2,108 L-11,114 L-14,114 L-12,110 L-9,109 L-7,105 L-5,102 L-5,93 L-3,93 L-3,88 L2,83 L5,78 L6,71 L11,65 L10,57 L7,49 L6,43 L-5,49 L-14,53 L-18,67 L-22,74 L-26,84 L-30,90 L-36,97 L-38,101 L-38,110 L-41,109 L-42,107 L-42,99 L-40,92 L-33,86 L-28,73 L-29,64 L-34,65 L-39,70 L-44,72 L-43,68 L-38,63 L-35,60 L-29,57 L-28,54 L-29,47 L-23,38 L-18,35 L-7,32 L2,27 L4,24 L3,15 Z " fill="#171717" transform="translate(168,373)"/>
<path d="M0,0 L4,2 L18,12 L27,17 L25,21 L12,31 L4,35 L3,38 L1,58 L-6,68 L-15,80 L-19,87 L-25,93 L-29,108 L-30,114 L-33,113 L-33,100 L-31,91 L-28,89 L-28,85 L-33,85 L-36,88 L-38,96 L-45,104 L-47,104 L-45,99 L-43,96 L-42,86 L-39,83 L-37,79 L-30,76 L-23,74 L-20,71 L-16,59 L-14,54 L-12,38 L-24,39 L-26,41 L-28,52 L-33,60 L-41,64 L-52,63 L-60,68 L-64,74 L-70,76 L-79,79 L-86,83 L-88,87 L-90,87 L-90,81 L-85,76 L-73,71 L-71,68 L-69,64 L-64,56 L-57,50 L-55,49 L-42,49 L-40,46 L-41,39 L-42,36 L-42,27 L-37,22 L-31,17 L-27,16 L-9,16 L-7,11 Z " fill="#151515" transform="translate(135,352)"/>
<path d="M0,0 L2,0 L8,11 L13,17 L30,22 L57,22 L82,23 L85,22 L89,24 L91,30 L99,34 L98,37 L87,33 L83,32 L74,33 L72,33 L73,40 L77,44 L79,52 L75,51 L67,42 L65,41 L64,35 L29,34 L30,52 L41,65 L51,69 L55,74 L55,76 L57,76 L55,83 L53,83 L53,78 L48,74 L42,74 L44,79 L43,82 L44,90 L42,93 L40,93 L37,79 L30,73 L25,68 L19,59 L16,55 L14,46 L13,33 L4,32 L-3,29 L-9,22 L-15,14 L-17,9 L-1,1 Z " fill="#191919" transform="translate(310,364)"/>
<path d="M0,0 L5,3 L10,11 L10,20 L17,25 L28,29 L35,29 L40,32 L41,36 L41,49 L42,56 L43,63 L45,66 L45,73 L47,76 L53,76 L57,75 L55,80 L54,81 L47,81 L40,76 L40,69 L35,70 L34,78 L30,76 L30,66 L33,61 L33,55 L30,52 L29,46 L16,41 L8,39 L3,37 L-2,41 L-4,41 L-6,48 L-8,50 L-8,57 L-5,66 L-4,71 L-2,73 L-2,89 L-5,93 L-7,93 L-6,86 L-6,78 L-8,74 L-10,73 L-11,64 L-16,63 L-18,74 L-21,74 L-22,58 L-23,51 L-16,43 L-13,31 L-14,22 L-19,14 L-23,8 L-23,5 L-3,1 Z " fill="#1A1A1A" transform="translate(278,379)"/>
<path d="M0,0 L5,0 L15,6 L20,12 L21,14 L21,25 L15,34 L13,36 L9,36 L9,38 L1,38 L0,19 Z " fill="#0D0D0D" transform="translate(479,233)"/>
<path d="M0,0 L2,0 L3,3 L3,19 L2,19 L1,8 L0,8 Z " fill="#A9A9A9" transform="translate(143,14)"/>
<path d="M0,0 L2,0 L0,5 L-3,8 L-6,9 L-4,5 Z " fill="#9F9F9F" transform="translate(203,7)"/>
<path d="M0,0 L2,0 L0,8 L-2,8 L-2,1 Z " fill="#646464" transform="translate(24,210)"/>
<path d="M0,0 L3,3 L2,7 L0,7 L-1,2 Z " fill="#696969" transform="translate(436,140)"/>
<path d="M0,0 L1,3 L-1,7 L-4,7 L-2,1 Z " fill="#898989" transform="translate(267,3)"/>
<path d="M0,0 L2,1 Z " fill="#E3E3E3" transform="translate(204,73)"/>
</svg>
