<?xml version="1.0" encoding="UTF-8"?>
<!-- Generator: visioncortex VTracer 0.6.4 -->
<svg version="1.1" xmlns="http://www.w3.org/2000/svg" width="784" height="500">
<path d="M0,0 L50,0 L61,1 L69,5 L71,8 L71,24 L66,40 L60,57 L54,81 L42,117 L34,136 L28,146 L22,157 L13,169 L4,180 L-4,188 L-18,199 L-35,209 L-48,215 L-63,218 L-71,219 L-71,221 L-62,229 L-43,241 L-27,257 L-21,266 L-20,273 L-23,279 L-33,292 L-41,301 L-52,310 L-61,317 L-77,327 L-92,334 L-108,340 L-128,345 L-135,346 L-155,346 L-169,343 L-184,337 L-200,328 L-219,314 L-234,302 L-251,290 L-256,284 L-256,250 L-260,216 L-263,204 L-262,200 L-258,192 L-255,181 L-255,159 L-258,144 L-262,134 L-264,131 L-264,124 L-260,121 L-249,117 L-224,104 L-202,92 L-179,80 L-158,68 L-132,53 L-119,45 L-94,30 L-72,18 L-53,10 L-36,5 L-12,1 Z " fill="#000000" transform="translate(713,37)"/>
<path d="M0,0 L46,0 L73,3 L94,8 L110,14 L133,25 L153,37 L179,53 L203,67 L214,73 L240,87 L266,101 L288,113 L303,120 L310,123 L311,124 L311,130 L307,138 L303,153 L302,159 L302,182 L305,193 L309,200 L308,213 L305,230 L303,256 L303,284 L298,290 L280,303 L266,314 L250,326 L235,335 L219,342 L202,346 L182,346 L162,342 L141,335 L124,327 L106,316 L92,304 L85,298 L76,287 L67,274 L67,268 L74,257 L90,241 L104,232 L114,225 L119,220 L118,219 L99,216 L87,212 L68,201 L55,191 L43,180 L36,172 L28,161 L20,149 L12,133 L6,120 L-5,87 L-10,69 L-17,46 L-23,28 L-24,24 L-24,8 L-19,3 L-14,1 Z " fill="#000000" transform="translate(24,37)"/>
<path d="M0,0 L8,0 L23,9 L35,14 L46,16 L58,16 L72,13 L88,5 L96,0 L104,0 L108,6 L112,31 L113,48 L113,61 L111,89 L108,112 L103,136 L99,150 L90,175 L83,192 L78,204 L71,222 L64,246 L60,247 L57,242 L56,224 L53,217 L53,214 L51,214 L50,219 L48,224 L47,242 L44,247 L41,247 L38,238 L29,211 L22,193 L16,180 L6,154 L-1,130 L-6,100 L-8,78 L-8,32 L-5,12 L-2,2 Z " fill="#000000" transform="translate(340,253)"/>
<path d="M0,0 L18,0 L33,3 L44,8 L50,12 L57,18 L64,28 L68,38 L71,53 L71,70 L69,79 L65,89 L64,92 L51,102 L37,109 L16,115 L0,115 L-21,108 L-36,100 L-45,92 L-51,80 L-53,71 L-53,54 L-50,38 L-46,28 L-38,17 L-28,9 L-15,3 Z M6,19 L1,36 L-9,50 L-14,64 L-14,75 L-11,82 L-6,87 L-2,89 L6,90 L17,88 L23,83 L26,77 L27,68 L24,56 L20,48 L11,35 L8,25 L7,19 Z " fill="#000000" transform="translate(383,145)"/>
<path d="M0,0 L4,1 L10,9 L14,20 L16,40 L16,76 L18,95 L22,110 L27,120 L30,122 L35,117 L41,109 L48,105 L52,104 L60,104 L65,105 L68,104 L75,104 L84,107 L89,111 L97,122 L101,120 L107,108 L111,88 L112,73 L112,36 L114,19 L119,7 L125,0 L128,1 L123,16 L123,32 L127,48 L132,66 L133,80 L131,91 L126,101 L118,111 L109,121 L104,126 L105,129 L111,133 L112,134 L112,141 L110,148 L104,147 L88,139 L81,137 L68,136 L55,136 L43,138 L33,142 L21,148 L18,148 L16,142 L16,134 L24,128 L22,124 L10,112 L0,98 L-4,88 L-5,75 L-3,63 L5,33 L5,16 L0,1 Z " fill="#000000" transform="translate(328,0)"/>
</svg>
