<?xml version="1.0" encoding="UTF-8"?>
<!-- Generator: visioncortex VTracer 0.6.4 -->
<svg version="1.1" xmlns="http://www.w3.org/2000/svg" width="500" height="536">
<path d="M0,0 L21,0 L37,3 L51,8 L63,15 L72,23 L79,33 L84,44 L87,55 L87,81 L83,96 L75,116 L63,142 L43,181 L39,195 L37,209 L37,216 L40,225 L46,228 L56,227 L68,222 L80,214 L83,215 L78,227 L67,238 L58,249 L48,260 L39,271 L26,286 L16,299 L4,313 L-5,323 L-12,331 L-24,344 L-39,360 L-61,382 L-78,394 L-92,403 L-104,410 L-121,417 L-132,420 L-148,421 L-158,419 L-179,414 L-197,407 L-211,397 L-222,386 L-229,376 L-233,370 L-231,366 L-224,361 L-216,358 L-212,359 L-211,362 L-209,362 L-209,364 L-205,366 L-194,376 L-179,387 L-164,393 L-159,394 L-142,394 L-128,390 L-112,382 L-91,371 L-78,361 L-72,353 L-41,322 L-34,314 L-24,303 L-15,292 L-3,277 L9,259 L16,247 L18,240 L16,240 L7,254 L-5,270 L-16,283 L-25,294 L-41,311 L-45,316 L-47,316 L-49,320 L-75,346 L-86,355 L-101,366 L-119,376 L-135,382 L-147,384 L-157,384 L-166,382 L-184,374 L-194,367 L-204,358 L-213,348 L-220,336 L-225,322 L-231,319 L-242,317 L-253,313 L-271,303 L-282,295 L-287,289 L-287,280 L-282,275 L-272,269 L-267,264 L-265,261 L-263,253 L-253,239 L-245,229 L-229,221 L-215,211 L-206,201 L-203,189 L-199,182 L-194,176 L-192,176 L-192,174 L-175,161 L-168,160 L-163,165 L-162,167 L-162,185 L-157,186 L-151,184 L-149,180 L-139,173 L-127,166 L-123,168 L-111,180 L-103,185 L-92,173 L-83,163 L-73,152 L-66,144 L-58,134 L-53,134 L-47,139 L-36,155 L-32,160 L-23,159 L-2,152 L27,141 L33,138 L35,138 L32,149 L23,168 L10,191 L4,201 L2,209 L2,219 L6,227 L9,229 L7,224 L7,207 L11,196 L23,176 L38,148 L51,121 L61,97 L65,81 L66,74 L66,58 L63,46 L57,36 L48,28 L33,22 L19,20 L9,20 L-7,22 L-37,29 L-62,41 L-85,54 L-107,67 L-121,76 L-127,80 L-131,81 L-139,81 L-144,78 L-154,71 L-162,67 L-170,75 L-178,82 L-195,98 L-228,131 L-235,139 L-245,150 L-254,161 L-267,177 L-280,195 L-292,215 L-300,233 L-303,245 L-304,256 L-302,270 L-297,282 L-290,293 L-279,304 L-266,313 L-267,318 L-276,338 L-280,336 L-291,327 L-304,315 L-315,301 L-323,287 L-329,272 L-331,262 L-331,239 L-327,223 L-321,209 L-310,191 L-296,173 L-282,156 L-273,146 L-264,135 L-250,120 L-243,112 L-231,99 L-222,89 L-211,81 L-199,70 L-186,57 L-177,46 L-169,37 L-156,20 L-147,8 L-145,8 L-147,20 L-148,25 L-148,43 L-145,49 L-141,52 L-138,53 L-130,53 L-120,50 L-106,43 L-95,34 L-80,25 L-57,14 L-30,5 L-16,2 Z " fill="#000000" transform="translate(413,0)"/>
<path d="M0,0 L10,0 L21,2 L35,9 L42,15 L49,25 L52,34 L52,49 L46,69 L39,83 L32,94 L28,109 L22,111 L2,115 L-21,122 L-31,126 L-36,125 L-43,118 L-45,117 L-45,115 L-47,115 L-47,113 L-50,112 L-50,110 L-54,108 L-60,102 L-70,101 L-76,104 L-81,109 L-88,119 L-96,129 L-102,134 L-112,140 L-113,141 L-120,140 L-125,135 L-131,133 L-138,133 L-143,136 L-147,140 L-150,141 L-161,141 L-169,134 L-174,129 L-180,124 L-187,128 L-197,136 L-206,139 L-221,134 L-228,133 L-243,133 L-245,131 L-244,126 L-225,107 L-218,99 L-202,83 L-201,81 L-199,81 L-197,77 L-180,60 L-179,58 L-177,58 L-175,54 L-170,48 L-167,48 L-163,52 L-154,56 L-150,57 L-138,57 L-122,52 L-107,44 L-84,33 L-71,25 L-62,19 L-43,11 L-23,4 L-10,1 Z " fill="#000000" transform="translate(423,26)"/>
<path d="M0,0 L5,1 L17,12 L25,19 L29,22 L30,25 L30,35 L26,48 L19,61 L11,71 L3,78 L-4,82 L-14,83 L-24,80 L-33,72 L-41,62 L-45,53 L-46,42 L-42,26 L-38,19 L-22,11 Z " fill="#000000" transform="translate(61,432)"/>
<path d="M0,0 L5,2 L8,3 L23,3 L29,2 L32,6 L32,14 L28,22 L28,29 L29,34 L25,40 L19,45 L4,51 L-11,61 L-18,67 L-23,75 L-24,87 L-32,92 L-37,93 L-39,98 L-44,105 L-47,107 L-52,107 L-56,101 L-58,92 L-57,82 L-51,64 L-41,45 L-31,31 L-23,24 L-8,9 L-1,1 Z " fill="#000000" transform="translate(173,162)"/>
<path d="M0,0 L20,0 L28,3 L33,8 L35,14 L37,26 L39,30 L21,44 L11,53 L5,60 L1,64 L-5,62 L-9,51 L-20,49 L-27,44 L-25,40 L-15,25 L-1,1 Z " fill="#000000" transform="translate(154,320)"/>
<path d="M0,0 L7,1 L18,7 L28,16 L33,24 L33,27 L18,36 L7,45 L1,52 L-2,57 L-8,58 L-13,54 L-20,46 L-28,38 L-26,33 L-18,25 L-6,17 L-2,9 Z " fill="#000000" transform="translate(96,392)"/>
<path d="M0,0 L15,0 L21,3 L29,9 L33,16 L34,20 L34,32 L31,41 L26,46 L20,44 L18,41 L16,33 L12,28 L1,21 L-7,17 L-12,15 L-14,11 L-14,8 L-5,2 Z " fill="#000000" transform="translate(114,372)"/>
<path d="M0,0 L4,2 L15,13 L28,22 L27,27 L18,35 L10,39 L-1,39 L-6,35 L-10,28 L-10,15 L-3,3 Z " fill="#000000" transform="translate(10,497)"/>
</svg>
