<?xml version="1.0" encoding="UTF-8"?>
<!-- Generator: visioncortex VTracer 0.6.4 -->
<svg version="1.1" xmlns="http://www.w3.org/2000/svg" width="506" height="500">
<path d="M0,0 L2,0 L12,30 L20,37 L19,45 L18,48 L19,54 L32,55 L47,58 L70,43 L84,36 L109,29 L125,26 L154,26 L168,30 L179,36 L189,45 L196,55 L202,67 L204,75 L204,96 L197,119 L187,143 L181,156 L186,158 L190,164 L191,173 L187,181 L183,183 L187,197 L190,195 L198,196 L202,200 L201,208 L199,213 L192,220 L193,226 L250,245 L254,246 L254,249 L219,260 L192,269 L189,288 L184,306 L186,310 L189,315 L189,327 L184,334 L178,337 L170,338 L162,352 L154,363 L153,367 L161,383 L169,399 L177,415 L182,425 L182,427 L176,425 L122,398 L117,400 L103,410 L91,417 L90,425 L86,431 L82,434 L78,435 L70,435 L61,430 L44,435 L28,438 L22,438 L19,449 L2,500 L0,500 L-14,459 L-20,441 L-20,438 L-29,438 L-52,433 L-63,430 L-68,435 L-78,437 L-86,434 L-91,428 L-93,419 L-92,416 L-97,414 L-113,404 L-117,401 L-120,411 L-125,422 L-129,431 L-135,439 L-149,448 L-154,450 L-161,451 L-165,458 L-172,464 L-184,470 L-192,469 L-201,456 L-203,452 L-203,443 L-197,433 L-190,426 L-190,403 L-186,395 L-177,387 L-165,380 L-155,375 L-152,369 L-153,365 L-162,353 L-170,340 L-170,337 L-179,337 L-186,333 L-190,327 L-191,319 L-188,312 L-184,307 L-188,295 L-192,274 L-193,268 L-248,250 L-252,249 L-252,246 L-209,232 L-194,227 L-193,224 L-189,202 L-185,187 L-185,184 L-191,177 L-192,175 L-192,165 L-188,159 L-183,155 L-180,154 L-172,154 L-170,155 L-168,149 L-158,134 L-151,125 L-152,119 L-178,67 L-178,65 L-173,67 L-121,93 L-116,91 L-105,83 L-93,76 L-92,67 L-89,62 L-84,57 L-81,56 L-71,56 L-65,60 L-61,62 L-38,56 L-18,53 L-1,2 Z M128,32 L111,35 L92,40 L77,46 L61,56 L46,66 L29,74 L21,75 L15,72 L10,67 L9,64 L9,54 L13,43 L12,39 L7,43 L-6,60 L-16,74 L-25,84 L-33,90 L-42,101 L-49,108 L-56,116 L-58,120 L-62,122 L-71,132 L-83,145 L-91,154 L-91,156 L-93,156 L-101,166 L-111,179 L-121,194 L-128,206 L-132,222 L-132,239 L-128,256 L-121,270 L-111,285 L-102,295 L-93,300 L-88,301 L-81,287 L-82,282 L-91,276 L-98,271 L-105,260 L-108,251 L-109,246 L-109,220 L-102,205 L-95,191 L-83,176 L-74,165 L-62,151 L-53,141 L-46,133 L-32,118 L-17,102 L1,84 L6,86 L13,93 L15,94 L25,94 L33,91 L53,78 L77,64 L97,55 L113,50 L131,47 L149,47 L167,54 L174,59 L179,69 L181,76 L181,95 L178,107 L169,128 L159,147 L151,163 L140,186 L137,197 L136,204 L136,215 L132,211 L130,206 L131,197 L135,186 L150,158 L155,145 L154,142 L130,152 L111,159 L105,160 L97,151 L90,142 L86,138 L82,140 L69,155 L58,168 L49,179 L46,180 L38,173 L33,166 L26,167 L15,174 L6,181 L1,180 L1,166 L-3,161 L-8,160 L-16,167 L-24,174 L-30,181 L-32,190 L-38,198 L-54,209 L-65,218 L-71,223 L-77,233 L-81,243 L-96,257 L-98,263 L-89,272 L-75,280 L-57,286 L-48,289 L-46,296 L-40,307 L-33,316 L-22,328 L1,338 L18,338 L34,333 L49,325 L60,316 L72,306 L80,299 L91,287 L98,279 L105,272 L115,258 L127,244 L138,230 L142,223 L144,224 L143,230 L139,237 L125,255 L113,271 L102,284 L93,295 L78,311 L67,321 L52,332 L33,342 L19,347 L14,348 L1,348 L-6,345 L-23,335 L-28,331 L-30,331 L-32,327 L-34,327 L-36,322 L-39,320 L-44,321 L-53,327 L-52,333 L-44,343 L-36,351 L-23,359 L-10,364 L-1,366 L18,367 L29,366 L39,361 L49,358 L65,348 L81,335 L91,326 L112,305 L121,294 L130,284 L141,270 L151,258 L160,247 L171,234 L180,224 L189,214 L194,209 L196,202 L191,202 L181,209 L171,212 L163,212 L159,208 L158,204 L157,189 L177,150 L186,130 L196,102 L198,92 L198,78 L194,65 L189,55 L177,42 L163,35 L151,32 Z M128,53 L109,58 L84,70 L69,79 L49,90 L31,97 L27,98 L17,98 L6,92 L2,92 L-10,105 L-26,122 L-35,132 L-42,139 L-49,147 L-56,154 L-55,158 L-46,158 L-28,162 L-22,163 L-7,152 L-3,153 L7,162 L13,165 L19,164 L26,158 L34,157 L43,162 L46,165 L51,163 L64,150 L72,140 L79,133 L81,132 L88,132 L95,137 L102,146 L107,151 L118,150 L146,140 L158,139 L162,128 L171,111 L176,97 L177,94 L177,78 L173,68 L168,63 L163,59 L152,54 L148,53 Z M-61,162 L-71,171 L-84,188 L-92,198 L-101,217 L-104,227 L-105,232 L-103,244 L-102,246 L-97,246 L-90,238 L-82,234 L-78,221 L-75,214 L-67,208 L-54,201 L-44,195 L-39,190 L-39,180 L-36,172 L-36,165 L-46,165 L-56,163 Z M-73,288 L-78,293 L-87,310 L-95,323 L-91,327 L-82,331 L-77,339 L-73,338 L-67,331 L-55,322 L-44,315 L-46,310 L-50,294 L-53,291 L-62,291 L-71,288 Z M-106,330 L-116,336 L-115,342 L-105,347 L-93,358 L-88,366 L-84,364 L-81,355 L-82,344 L-84,339 L-90,334 L-100,330 Z M-120,347 L-127,360 L-134,367 L-140,372 L-142,379 L-138,383 L-130,390 L-124,392 L-119,387 L-114,382 L-107,376 L-95,369 L-96,365 L-104,355 L-114,348 Z M-150,380 L-167,388 L-180,397 L-183,402 L-184,406 L-184,422 L-178,433 L-176,436 L-174,436 L-174,438 L-166,443 L-163,444 L-156,444 L-146,439 L-137,432 L-133,425 L-125,407 L-125,399 L-132,391 L-138,386 L-141,381 Z M-119,399 Z M-187,432 L-194,439 L-197,446 L-196,452 L-192,458 L-188,462 L-179,461 L-171,455 L-167,450 L-169,446 L-179,438 L-185,432 Z " fill="#000000" transform="translate(252,0)"/>
</svg>
