<?xml version="1.0" encoding="UTF-8"?>
<!-- Generator: visioncortex VTracer 0.6.4 -->
<svg version="1.1" xmlns="http://www.w3.org/2000/svg" width="725" height="480">
<path d="M0,0 L24,1 L52,5 L80,12 L101,19 L122,28 L147,41 L165,53 L178,63 L191,74 L196,78 L207,83 L216,85 L238,85 L281,81 L332,78 L403,78 L429,80 L452,83 L477,89 L506,100 L517,103 L536,106 L546,110 L551,116 L549,122 L543,127 L541,127 L542,129 L558,129 L595,135 L616,137 L637,138 L662,138 L695,136 L720,134 L722,135 L721,140 L708,157 L698,172 L687,191 L679,207 L672,222 L668,231 L663,237 L652,244 L642,248 L630,266 L619,280 L611,287 L608,287 L612,271 L615,254 L609,254 L607,260 L600,270 L593,276 L589,277 L591,272 L593,266 L594,255 L591,255 L590,260 L583,271 L575,278 L571,279 L573,274 L575,268 L576,255 L570,255 L565,269 L558,280 L549,288 L541,292 L539,292 L542,282 L543,277 L543,260 L542,251 L522,249 L520,260 L517,268 L515,265 L512,256 L512,253 L499,260 L496,269 L493,277 L491,274 L488,266 L472,276 L453,290 L442,300 L434,307 L427,314 L445,310 L467,310 L481,313 L489,302 L491,305 L491,319 L497,321 L505,326 L513,315 L515,318 L516,335 L531,342 L536,337 L545,320 L547,320 L547,335 L545,348 L555,349 L559,343 L562,334 L564,325 L566,327 L567,331 L567,353 L572,353 L576,333 L577,326 L579,326 L582,339 L582,355 L589,353 L596,342 L600,330 L603,333 L606,341 L607,355 L610,357 L609,363 L600,373 L593,377 L568,385 L524,396 L479,405 L428,413 L386,418 L343,422 L292,425 L272,426 L255,434 L224,446 L188,458 L150,468 L126,473 L100,477 L81,479 L51,480 L21,478 L-2,474 L-3,472 L14,467 L38,458 L64,447 L95,432 L111,422 L118,416 L124,395 L134,353 L139,326 L141,310 L141,297 L135,277 L124,251 L113,230 L100,209 L88,192 L78,179 L66,165 L52,150 L56,134 L57,127 L57,100 L54,84 L48,66 L40,50 L31,36 L20,22 L9,11 L9,9 L5,7 L0,2 Z M438,131 L417,136 L410,138 L414,141 L425,147 L434,154 L440,158 L445,156 L460,150 L475,147 L477,145 L467,136 L459,132 L454,131 Z M200,192 Z M201,193 L204,202 L215,231 L221,252 L222,257 L222,282 L220,310 L217,332 L221,327 L230,307 L236,288 L239,271 L239,255 L235,242 L227,227 L215,210 L205,197 Z M143,194 L144,196 Z M144,196 L146,205 L156,235 L163,263 L165,275 L165,290 L163,329 L160,354 L159,362 L162,358 L171,335 L178,311 L181,294 L182,276 L180,261 L174,245 L163,224 L151,205 L145,196 Z M425,315 Z M216,332 L217,334 Z M158,363 Z " fill="#000000" transform="translate(3,0)"/>
</svg>
