<?xml version="1.0" encoding="UTF-8"?>
<!-- Generator: visioncortex VTracer 0.6.4 -->
<svg version="1.1" xmlns="http://www.w3.org/2000/svg" width="905" height="500">
<path d="M0,0 L50,0 L94,2 L144,6 L190,12 L222,17 L249,23 L270,28 L291,35 L302,38 L311,42 L318,45 L334,53 L344,59 L347,60 L347,62 L352,64 L360,71 L368,80 L373,89 L375,102 L373,112 L368,121 L351,138 L340,146 L336,150 L331,152 L331,154 L328,154 L328,156 L326,156 L325,158 L313,165 L307,169 L305,169 L304,171 L296,175 L280,183 L272,187 L255,195 L246,199 L229,206 L214,212 L203,217 L197,219 L208,220 L225,220 L276,218 L340,213 L387,209 L390,208 L409,207 L407,211 L400,222 L395,238 L393,253 L393,283 L394,295 L337,288 L303,284 L279,282 L205,281 L205,296 L209,306 L215,316 L228,330 L239,339 L251,348 L261,355 L280,367 L292,374 L296,376 L296,378 L300,379 L310,385 L320,390 L331,396 L332,398 L338,400 L353,409 L364,415 L375,421 L400,436 L403,437 L403,439 L409,441 L416,445 L416,447 L421,449 L432,456 L441,462 L441,464 L446,466 L461,479 L469,486 L478,497 L478,500 L415,500 L232,498 L223,486 L213,473 L201,458 L194,449 L185,437 L174,423 L160,405 L160,403 L158,403 L150,392 L150,390 L148,390 L140,379 L130,366 L128,364 L125,340 L120,321 L115,309 L108,299 L97,287 L90,282 L90,280 L87,280 L87,278 L81,276 L70,271 L53,267 L37,265 L13,265 L-9,268 L-20,271 L-36,279 L-42,284 L-46,288 L-51,291 L-62,305 L-69,319 L-75,343 L-77,363 L-91,381 L-101,394 L-113,409 L-120,418 L-126,427 L-128,427 L-130,431 L-137,440 L-146,452 L-156,465 L-168,480 L-174,488 L-182,498 L-365,500 L-427,500 L-426,496 L-419,487 L-410,478 L-408,476 L-400,470 L-397,469 L-397,467 L-391,463 L-389,463 L-389,461 L-381,456 L-379,456 L-379,454 L-377,454 L-376,452 L-371,449 L-369,449 L-368,447 L-357,440 L-351,438 L-351,436 L-347,434 L-344,434 L-344,432 L-335,427 L-327,423 L-325,423 L-325,421 L-313,415 L-299,407 L-292,403 L-290,403 L-289,401 L-279,396 L-277,396 L-277,394 L-272,393 L-272,391 L-267,390 L-266,388 L-262,387 L-261,385 L-251,380 L-241,374 L-239,374 L-239,372 L-235,370 L-232,370 L-232,368 L-226,366 L-226,364 L-220,361 L-218,361 L-218,359 L-212,356 L-210,356 L-210,354 L-205,352 L-204,350 L-195,344 L-193,342 L-185,336 L-173,325 L-163,314 L-157,304 L-154,294 L-154,281 L-228,282 L-263,285 L-327,293 L-343,294 L-342,277 L-342,257 L-345,236 L-349,223 L-355,213 L-358,210 L-358,207 L-339,208 L-327,210 L-238,217 L-205,219 L-175,220 L-157,220 L-147,219 L-163,213 L-173,208 L-202,196 L-215,190 L-225,185 L-235,181 L-247,174 L-250,173 L-250,171 L-256,169 L-264,165 L-264,163 L-269,161 L-272,160 L-272,158 L-277,156 L-287,149 L-289,147 L-293,144 L-298,140 L-298,138 L-302,136 L-307,131 L-319,119 L-323,110 L-324,107 L-324,95 L-321,86 L-317,80 L-308,70 L-306,67 L-301,64 L-291,57 L-280,51 L-272,47 L-261,42 L-241,35 L-227,30 L-208,25 L-171,17 L-139,12 L-110,8 L-70,4 L-24,1 Z M8,49 L-23,51 L-54,55 L-83,61 L-104,67 L-116,72 L-125,77 L-129,80 L-129,82 L-133,83 L-139,92 L-140,95 L-140,102 L-133,116 L-122,127 L-117,129 L-117,131 L-107,137 L-101,140 L-90,146 L-80,150 L-65,156 L-51,161 L-38,165 L-17,172 L8,180 L24,185 L30,184 L58,175 L86,166 L101,161 L118,155 L126,151 L140,146 L150,141 L160,136 L160,134 L166,132 L179,121 L185,113 L191,101 L190,92 L184,84 L177,78 L165,71 L152,66 L134,61 L104,55 L73,51 L43,49 Z " fill="#000000" transform="translate(427,0)"/>
<path d="M0,0 L7,0 L16,4 L24,10 L31,20 L34,31 L36,46 L52,120 L64,176 L64,179 L-57,179 L-56,169 L-29,45 L-26,25 L-20,13 L-13,6 L-3,1 Z " fill="#000000" transform="translate(449,318)"/>
</svg>
