<?xml version="1.0" encoding="UTF-8"?>
<!-- Generator: visioncortex VTracer 0.6.4 -->
<svg version="1.1" xmlns="http://www.w3.org/2000/svg" width="500" height="671">
<path d="M0,0 L4,0 L12,19 L18,31 L24,39 L24,41 L28,43 L36,48 L48,54 L48,44 L46,29 L41,13 L35,4 L35,0 L40,0 L49,8 L57,19 L65,35 L70,47 L75,62 L79,66 L82,59 L83,52 L83,21 L81,13 L81,9 L85,10 L92,18 L96,28 L102,59 L103,77 L99,100 L99,107 L106,88 L111,63 L112,50 L113,48 L115,48 L118,54 L120,62 L120,91 L116,116 L111,132 L105,151 L105,153 L116,146 L125,135 L134,121 L143,105 L149,93 L153,92 L153,105 L147,121 L139,137 L132,148 L122,161 L115,170 L106,179 L99,184 L92,188 L88,192 L87,197 L88,199 L101,199 L121,195 L142,186 L151,180 L157,178 L153,188 L148,196 L131,206 L113,213 L98,216 L79,217 L67,218 L54,223 L50,226 L48,226 L49,230 L51,234 L55,236 L60,240 L71,245 L93,251 L92,254 L88,255 L71,255 L52,250 L43,246 L21,237 L4,233 L5,242 L3,254 L-3,265 L-16,281 L-25,289 L-29,291 L-28,295 L-16,318 L-7,336 L-7,339 L4,337 L25,335 L42,331 L78,319 L98,311 L113,303 L117,298 L121,297 L126,302 L133,310 L144,316 L156,319 L168,320 L173,323 L174,327 L173,330 L155,337 L130,345 L116,349 L91,355 L64,363 L48,365 L53,381 L58,394 L65,409 L74,425 L88,446 L102,469 L112,484 L120,495 L131,509 L138,518 L152,536 L159,544 L170,554 L186,565 L196,571 L212,579 L223,583 L223,585 L211,585 L186,579 L166,571 L140,567 L127,562 L117,554 L106,542 L93,524 L81,503 L73,489 L66,475 L58,450 L48,410 L40,372 L39,366 L28,368 L14,369 L24,396 L34,435 L39,455 L48,483 L57,512 L66,536 L75,563 L82,577 L93,595 L102,604 L112,611 L116,616 L118,622 L118,634 L115,639 L103,645 L91,649 L83,650 L67,650 L55,647 L44,640 L32,629 L24,619 L17,605 L9,584 L2,557 L-3,524 L-8,499 L-12,473 L-19,431 L-25,399 L-28,378 L-29,374 L-50,376 L-65,377 L-88,374 L-92,373 L-92,394 L-94,418 L-96,451 L-100,492 L-104,513 L-110,547 L-114,567 L-119,598 L-127,618 L-137,635 L-147,646 L-156,652 L-184,662 L-200,662 L-201,660 L-196,650 L-188,634 L-182,617 L-175,600 L-166,577 L-161,559 L-154,529 L-147,500 L-143,474 L-141,458 L-131,396 L-127,373 L-125,368 L-130,366 L-153,357 L-152,369 L-152,415 L-155,442 L-161,471 L-164,482 L-174,515 L-182,535 L-190,553 L-196,562 L-198,565 L-200,565 L-201,568 L-208,574 L-213,579 L-222,586 L-243,595 L-253,598 L-263,599 L-267,597 L-265,593 L-258,585 L-243,561 L-239,556 L-231,543 L-225,534 L-218,524 L-208,509 L-198,490 L-190,474 L-181,450 L-173,424 L-168,396 L-167,380 L-168,363 L-170,353 L-181,351 L-203,348 L-229,348 L-237,345 L-244,337 L-244,329 L-242,325 L-233,320 L-225,312 L-219,284 L-213,257 L-212,248 L-212,223 L-217,199 L-218,196 L-218,186 L-212,185 L-208,193 L-204,214 L-200,228 L-194,239 L-189,238 L-181,231 L-170,208 L-160,177 L-155,158 L-152,152 L-148,151 L-145,153 L-145,167 L-151,188 L-157,206 L-167,230 L-175,250 L-181,261 L-192,273 L-198,283 L-202,294 L-204,307 L-203,314 L-202,317 L-190,319 L-169,324 L-152,329 L-136,333 L-114,337 L-109,336 L-103,328 L-94,317 L-88,310 L-78,302 L-70,295 L-62,287 L-63,282 L-72,270 L-80,262 L-87,253 L-97,245 L-105,238 L-107,233 L-110,204 L-110,193 L-109,192 L-102,192 L-72,199 L-62,200 L-55,196 L-47,197 L-40,198 L-48,183 L-50,175 L-50,156 L-47,145 L-40,134 L-29,123 L-18,118 L-14,117 L1,117 L10,120 L16,124 L21,130 L22,135 L18,135 L16,134 L6,134 L-9,140 L-18,151 L-21,161 L-21,178 L-17,188 L-11,195 L-3,200 L6,203 L24,203 L34,200 L50,192 L59,186 L66,179 L74,168 L82,152 L85,144 L86,139 L86,113 L83,102 L76,93 L66,84 L58,80 L52,78 L37,77 L28,79 L22,82 L14,82 L9,76 L10,71 L15,61 L16,59 L11,47 L5,32 L2,21 L0,9 Z M-89,217 L-88,222 L-69,235 L-59,242 L-51,253 L-40,272 L-36,270 L-30,263 L-29,260 L-29,244 L-36,236 L-44,229 L-46,233 L-51,234 L-67,226 L-81,217 Z M-53,305 L-63,312 L-75,320 L-82,328 L-88,333 L-90,336 L-90,339 L-78,341 L-66,342 L-52,342 L-35,340 L-40,328 L-48,312 L-52,305 Z " fill="#0E0E0E" transform="translate(273,4)"/>
</svg>
