<?xml version="1.0" encoding="UTF-8"?>
<!-- Generator: visioncortex VTracer 0.6.4 -->
<svg version="1.1" xmlns="http://www.w3.org/2000/svg" width="500" height="611">
<path d="M0,0 L13,0 L37,5 L58,12 L74,20 L84,27 L94,36 L113,55 L120,63 L144,87 L155,96 L165,103 L182,115 L196,124 L208,130 L218,133 L229,135 L250,137 L293,144 L326,150 L339,155 L348,163 L351,169 L351,179 L346,191 L338,201 L329,211 L322,218 L314,225 L293,246 L284,257 L273,272 L264,287 L258,300 L248,329 L237,362 L231,376 L228,379 L224,386 L216,393 L202,402 L181,414 L169,421 L160,429 L151,440 L143,450 L133,465 L126,477 L117,491 L106,507 L93,524 L84,535 L72,548 L64,556 L53,565 L43,574 L26,587 L8,599 L-7,607 L-20,611 L-43,611 L-56,606 L-61,601 L-67,593 L-77,584 L-91,576 L-107,570 L-122,567 L-136,565 L-144,561 L-148,555 L-149,552 L-149,535 L-145,521 L-138,507 L-131,486 L-127,466 L-126,458 L-127,428 L-127,385 L-125,337 L-121,306 L-118,291 L-113,276 L-97,250 L-83,228 L-75,217 L-63,200 L-53,187 L-42,173 L-32,161 L-20,140 L-7,113 L3,86 L8,67 L11,47 L11,30 L8,15 L3,5 Z M130,99 L122,102 L115,112 L107,119 L99,124 L88,129 L71,134 L46,138 L29,140 L12,146 L1,152 L-12,162 L-15,166 L-10,164 L9,156 L28,150 L50,146 L84,143 L105,136 L114,131 L122,125 L129,118 L134,110 L135,102 L132,99 Z M242,162 L233,170 L228,178 L223,190 L219,210 L218,223 L222,236 L227,260 L231,284 L233,280 L233,265 L231,254 L228,240 L228,206 L234,188 L243,171 L244,170 L244,162 Z M-16,166 Z M145,167 L139,174 L129,180 L119,183 L96,183 L77,178 L70,175 L45,173 L22,174 L12,176 L0,181 L-5,186 L-17,197 L-22,202 L-17,200 L0,193 L15,188 L27,185 L34,184 L56,184 L68,187 L83,193 L103,198 L125,198 L135,194 L143,187 L148,176 L148,167 Z M178,188 L172,191 L167,196 L161,206 L159,213 L160,223 L167,233 L176,244 L187,261 L194,275 L198,288 L200,301 L200,310 L197,335 L195,343 L196,347 L204,336 L207,330 L210,316 L210,306 L207,284 L200,266 L192,250 L181,234 L176,223 L175,219 L175,208 L178,200 L182,195 L182,189 Z M-24,202 Z M-25,203 Z M-3,236 L-18,240 L-27,245 L-36,252 L-36,253 L-25,254 L-7,260 L9,268 L14,271 L29,267 L40,261 L50,253 L59,244 L59,242 L51,243 L42,243 L32,239 L18,236 Z M59,241 Z M125,273 L120,290 L119,295 L119,317 L122,324 L128,329 L135,337 L141,342 L148,356 L154,376 L157,372 L160,363 L161,357 L161,349 L157,331 L149,315 L138,298 L129,281 L126,273 Z M-81,299 Z M-82,300 L-92,311 L-99,321 L-104,332 L-104,346 L-100,352 L-94,357 L-92,358 L-85,358 L-80,353 L-77,345 L-78,340 L-84,329 L-85,324 L-85,314 L-83,306 L-81,300 Z M37,331 Z M36,332 L36,335 Z M76,331 L67,347 L59,365 L54,382 L51,401 L46,407 L33,417 L23,422 L16,423 L7,423 L3,422 L1,410 L-1,397 L0,384 L8,377 L18,365 L29,348 L35,337 L34,335 L20,353 L9,366 L2,373 L-4,375 L-5,372 L-5,351 L-4,342 L-15,344 L-31,352 L-41,358 L-56,371 L-66,383 L-75,397 L-82,411 L-90,427 L-99,448 L-106,472 L-109,485 L-109,493 L-107,491 L-97,461 L-87,434 L-78,413 L-72,402 L-61,389 L-52,378 L-37,363 L-25,354 L-20,352 L-14,352 L-12,354 L-12,365 L-9,380 L-6,384 L-5,420 L-1,435 L3,439 L10,439 L20,432 L42,419 L59,409 L74,401 L78,400 L76,419 L71,443 L65,464 L60,478 L57,487 L62,482 L73,465 L83,444 L88,426 L89,418 L89,396 L87,386 L85,384 L81,385 L76,390 L72,395 L65,399 L60,398 L59,396 L59,388 L69,363 L75,343 L77,331 Z M194,347 Z M-44,430 L-54,434 L-64,443 L-70,452 L-76,464 L-82,482 L-86,502 L-88,516 L-83,511 L-75,503 L-61,493 L-49,488 L-45,487 L-36,487 L-26,491 L-20,495 L-16,500 L-12,510 L-11,523 L-14,541 L-7,535 L5,523 L16,509 L24,498 L29,488 L32,477 L32,470 L29,463 L24,458 L7,457 L-2,453 L-13,446 L-24,435 L-27,431 L-30,430 Z M56,487 Z M54,490 Z M-110,493 L-110,498 L-109,498 L-109,493 Z M-55,524 L-67,527 L-76,534 L-79,538 L-68,536 L-55,536 L-48,539 L-44,546 L-42,550 L-38,542 L-38,532 L-42,526 Z M-80,538 Z " fill="#000000" transform="translate(149,0)"/>
</svg>
