<?xml version="1.0" encoding="UTF-8"?>
<!-- Generator: visioncortex VTracer 0.6.4 -->
<svg version="1.1" xmlns="http://www.w3.org/2000/svg" width="506" height="500">
<path d="M0,0 L2,0 L15,39 L15,42 L20,44 L33,54 L42,57 L61,62 L68,56 L71,55 L78,55 L84,58 L89,63 L91,69 L90,76 L96,78 L110,87 L122,96 L127,95 L175,71 L179,70 L179,72 L177,72 L175,78 L151,126 L166,127 L186,130 L200,137 L207,145 L207,159 L201,171 L190,183 L185,187 L187,197 L191,215 L193,226 L250,245 L254,246 L254,249 L228,257 L192,269 L189,288 L184,306 L186,310 L189,315 L189,327 L184,334 L178,337 L170,338 L162,352 L154,363 L153,367 L161,384 L171,403 L179,419 L182,425 L182,427 L176,425 L122,398 L117,400 L103,410 L91,417 L90,425 L87,430 L79,435 L70,435 L61,430 L39,436 L28,438 L22,438 L19,449 L7,485 L2,500 L0,500 L-14,459 L-19,444 L-21,444 L-34,453 L-45,458 L-55,461 L-69,461 L-79,456 L-86,448 L-91,443 L-96,439 L-112,433 L-129,430 L-137,425 L-143,418 L-146,413 L-146,411 L-178,427 L-180,427 L-178,421 L-152,369 L-153,365 L-162,353 L-170,340 L-170,337 L-179,337 L-186,333 L-190,327 L-191,319 L-188,312 L-184,307 L-188,295 L-191,281 L-193,268 L-248,250 L-252,249 L-252,246 L-209,232 L-194,227 L-193,224 L-189,202 L-185,187 L-186,183 L-191,177 L-192,175 L-192,165 L-188,159 L-183,155 L-180,154 L-172,154 L-170,155 L-168,149 L-156,131 L-151,125 L-152,119 L-178,67 L-177,65 L-121,93 L-116,91 L-105,83 L-93,76 L-92,66 L-88,60 L-81,56 L-71,56 L-65,60 L-61,62 L-35,55 L-37,44 L-39,39 L-42,37 L-41,31 L-39,26 L-30,26 L-14,29 L-10,29 Z M-35,32 L-34,36 L-30,46 L-29,52 L-29,65 L-31,79 L-35,94 L-41,110 L-51,129 L-63,149 L-75,167 L-86,180 L-100,198 L-109,214 L-115,229 L-119,242 L-122,259 L-123,271 L-123,327 L-124,349 L-127,367 L-132,383 L-139,400 L-140,411 L-133,421 L-126,424 L-110,427 L-97,432 L-87,438 L-79,447 L-74,452 L-66,455 L-57,455 L-42,450 L-30,443 L-17,432 L-3,421 L6,414 L16,405 L27,391 L37,377 L45,364 L59,343 L67,333 L67,331 L69,331 L76,323 L92,313 L107,304 L117,295 L121,286 L135,246 L144,226 L152,214 L165,198 L171,191 L182,182 L195,169 L200,159 L201,156 L201,147 L193,140 L184,136 L129,128 L106,123 L92,116 L80,108 L69,99 L59,90 L39,70 L32,62 L24,54 L11,46 L-4,39 L-21,34 Z " fill="#000000" transform="translate(252,0)"/>
<path d="M0,0 L7,0 L13,4 L18,8 L22,13 L29,17 L42,20 L49,24 L51,28 L51,36 L45,48 L33,62 L22,76 L20,79 L18,79 L19,71 L19,58 L15,48 L9,43 L0,41 L-11,43 L-20,50 L-30,60 L-31,62 L-33,62 L-33,54 L-28,32 L-22,18 L-14,8 L-5,2 Z " fill="#000000" transform="translate(186,328)"/>
<path d="M0,0 L1,3 L-17,30 L-24,39 L-30,46 L-30,62 L-27,71 L-24,73 L-14,69 L0,60 L2,60 L6,42 L14,20 L21,6 L24,5 L21,17 L11,44 L10,49 L11,55 L17,53 L22,49 L26,42 L28,42 L31,52 L31,66 L27,82 L22,95 L14,110 L4,125 L1,126 L3,121 L9,109 L16,87 L22,60 L22,54 L9,64 L-11,74 L-20,81 L-24,84 L-31,84 L-34,75 L-35,68 L-36,45 L-39,38 L-39,24 L-48,26 L-58,34 L-69,45 L-80,60 L-87,74 L-94,91 L-105,129 L-106,131 L-108,131 L-103,100 L-99,88 L-88,64 L-80,50 L-70,37 L-61,28 L-48,20 L-35,16 L-32,16 L-34,39 L-26,34 L-14,18 L-5,7 Z " fill="#000000" transform="translate(245,252)"/>
<path d="M0,0 L4,1 L5,7 L-2,18 L-7,22 L-14,24 L-28,23 L-47,18 L-64,14 L-79,14 L-94,19 L-110,27 L-118,31 L-116,27 L-110,20 L-100,13 L-89,8 L-77,5 L-59,5 L-33,11 L-14,11 L-4,6 L-1,3 Z " fill="#000000" transform="translate(312,146)"/>
<path d="M0,0 L14,1 L33,4 L43,3 L47,2 L45,6 L36,15 L22,23 L15,26 L8,25 L-6,17 L-11,15 L-23,14 L-23,12 L-15,6 L-7,2 Z " fill="#000000" transform="translate(212,194)"/>
<path d="M0,0 L5,1 L6,2 L6,9 L3,14 L-4,21 L-14,27 L-27,31 L-47,34 L-67,37 L-80,41 L-95,49 L-99,52 L-101,52 L-101,50 L-99,50 L-99,48 L-97,48 L-95,44 L-91,42 L-91,40 L-82,34 L-65,29 L-31,22 L-19,17 L-11,11 L-2,1 Z " fill="#000000" transform="translate(301,100)"/>
<path d="M0,0 L3,1 L11,18 L20,34 L25,47 L25,63 L21,72 L19,73 L17,61 L12,51 L11,48 L9,48 L2,40 L-3,36 L-5,27 L-4,12 Z " fill="#000000" transform="translate(299,220)"/>
<path d="M0,0 L8,0 L8,2 L4,6 L2,11 L2,21 L6,33 L15,49 L22,66 L23,71 L23,90 L21,98 L16,110 L14,114 L12,114 L14,103 L15,97 L15,76 L11,60 L3,43 L-9,28 L-12,22 L-12,15 L-9,9 L-2,1 Z " fill="#000000" transform="translate(334,162)"/>
<path d="M0,0 L3,1 L2,8 L-5,20 L-8,28 L-9,36 L-9,48 L-7,63 L-6,84 L-7,88 L-9,88 L-17,48 L-17,30 L-13,18 L-7,7 L-2,1 Z " fill="#000000" transform="translate(380,143)"/>
<path d="M0,0 L1,3 L-4,16 L-4,24 L1,32 L0,39 L-6,45 L-12,45 L-18,40 L-19,38 L-19,26 L-12,12 L-5,4 Z " fill="#000000" transform="translate(162,235)"/>
<path d="M0,0 L7,2 L10,5 L11,14 L8,21 L6,21 L2,13 L-2,11 L-11,11 L-19,13 L-17,9 L-9,4 Z " fill="#000000" transform="translate(178,392)"/>
<path d="M0,0 L3,0 L3,2 L0,2 Z " fill="#000000" transform="translate(269,253)"/>
</svg>
