<?xml version="1.0" encoding="UTF-8"?>
<!-- Generator: visioncortex VTracer 0.6.4 -->
<svg version="1.1" xmlns="http://www.w3.org/2000/svg" width="935" height="600">
<path d="M0,0 L2,0 L6,36 L9,62 L9,75 L8,94 L7,142 L-3,137 L-14,135 L-33,135 L-42,137 L-52,142 L-57,146 L-64,156 L-67,165 L-55,160 L-42,158 L-24,160 L-11,165 L-7,167 L-3,166 L7,156 L8,158 L10,187 L13,223 L17,247 L20,259 L30,284 L37,300 L47,319 L59,341 L63,347 L62,353 L54,379 L44,403 L32,426 L24,438 L16,448 L15,449 L7,449 L-17,443 L-37,436 L-55,428 L-78,415 L-98,401 L-111,390 L-119,383 L-138,364 L-149,350 L-161,333 L-170,317 L-178,300 L-184,280 L-186,271 L-189,244 L-194,219 L-202,193 L-211,169 L-223,142 L-236,116 L-249,93 L-252,88 L-251,85 L-219,85 L-189,83 L-164,80 L-142,76 L-114,69 L-90,61 L-63,49 L-42,37 L-25,25 L-14,15 L-7,9 Z M-69,166 Z M-136,170 L-149,174 L-157,180 L-163,187 L-167,195 L-165,205 L-160,210 L-158,211 L-142,211 L-138,207 L-131,196 L-121,186 L-109,179 L-98,175 L-102,173 L-115,170 Z " fill="#000000" transform="translate(252,127)"/>
<path d="M0,0 L2,0 L10,10 L23,22 L41,35 L56,44 L71,52 L97,63 L123,71 L148,77 L172,81 L202,84 L220,85 L254,86 L252,92 L242,109 L227,138 L218,157 L207,184 L197,215 L192,238 L190,250 L188,271 L183,291 L177,307 L165,330 L152,349 L143,360 L132,372 L115,389 L104,398 L86,411 L68,422 L53,430 L34,438 L16,444 L-5,449 L-13,449 L-20,441 L-30,426 L-44,399 L-46,395 L-46,392 L-39,386 L-29,372 L-21,356 L-15,339 L-10,318 L-5,284 L1,232 L7,169 L15,164 L27,160 L32,159 L52,159 L65,163 L69,165 L66,156 L59,146 L50,140 L40,136 L35,135 L10,135 L9,84 L5,49 L0,25 L-1,21 L-1,6 Z M70,166 Z M118,170 L104,173 L101,175 L113,180 L124,187 L134,197 L142,210 L144,211 L160,211 L166,207 L168,203 L169,195 L163,184 L154,176 L146,172 L138,170 Z " fill="#000000" transform="translate(681,134)"/>
<path d="M0,0 L14,0 L31,7 L55,14 L83,20 L112,24 L149,27 L171,28 L203,28 L263,23 L296,19 L324,14 L346,8 L366,0 L380,0 L387,6 L387,16 L377,51 L369,85 L367,98 L367,126 L374,170 L379,192 L383,223 L384,235 L384,265 L381,298 L376,350 L367,426 L362,451 L356,471 L346,492 L337,504 L328,514 L317,525 L303,536 L285,550 L269,562 L249,576 L233,586 L218,593 L207,597 L194,600 L183,600 L164,588 L151,578 L140,569 L127,557 L115,545 L108,537 L94,520 L85,507 L71,481 L57,457 L44,433 L34,414 L24,393 L16,372 L11,349 L8,325 L5,288 L4,269 L4,240 L6,203 L10,167 L14,134 L14,105 L11,83 L5,58 L-6,18 L-7,16 L-7,6 Z M10,16 L9,19 L20,61 L24,82 L26,99 L27,129 L31,124 L40,111 L48,100 L54,87 L57,76 L57,51 L53,39 L46,27 L38,24 L16,16 Z M364,16 L345,23 L335,26 L327,40 L324,49 L323,55 L323,74 L327,89 L333,100 L345,116 L354,129 L355,129 L355,101 L357,78 L361,59 L370,24 L371,17 L370,16 Z M56,29 Z M322,29 L265,37 L230,41 L210,43 L165,43 L122,40 L85,35 L61,30 L57,30 L59,36 L63,47 L64,52 L64,74 L60,90 L52,106 L39,124 L29,141 L24,152 L20,181 L17,213 L16,233 L16,269 L19,285 L26,301 L38,318 L50,340 L58,360 L65,379 L71,404 L78,446 L84,471 L90,486 L98,500 L109,514 L118,524 L119,520 L113,492 L108,445 L106,423 L105,401 L105,363 L106,333 L109,311 L114,295 L120,285 L128,276 L137,271 L147,271 L155,257 L160,244 L164,229 L166,216 L166,201 L158,207 L149,212 L136,217 L115,222 L77,227 L78,238 L84,261 L91,279 L91,287 L88,294 L84,299 L79,302 L69,302 L63,299 L59,294 L58,292 L58,283 L63,266 L70,249 L73,238 L74,227 L65,229 L56,234 L49,240 L49,242 L46,242 L44,237 L36,221 L33,208 L33,188 L37,171 L44,155 L54,139 L67,124 L74,117 L85,108 L99,99 L117,92 L143,84 L157,77 L166,70 L167,69 L172,69 L173,88 L173,206 L171,236 L168,255 L162,271 L155,284 L150,282 L147,281 L139,281 L133,284 L131,288 L144,291 L157,298 L175,311 L184,315 L194,316 L204,313 L217,304 L229,295 L239,290 L246,288 L243,282 L239,278 L230,277 L224,280 L224,282 L221,282 L219,278 L213,268 L209,258 L205,233 L204,220 L203,71 L204,68 L211,72 L223,79 L248,89 L272,98 L288,106 L296,112 L306,121 L317,132 L327,145 L339,166 L347,184 L352,201 L353,207 L353,231 L351,240 L346,250 L344,254 L323,249 L288,237 L254,224 L227,212 L215,205 L209,200 L209,213 L211,227 L215,243 L222,257 L230,264 L245,272 L256,283 L266,298 L271,309 L281,340 L284,357 L287,386 L288,410 L288,432 L286,484 L277,526 L273,537 L271,541 L277,539 L287,533 L297,525 L307,514 L315,500 L320,488 L324,472 L325,464 L325,448 L323,426 L322,408 L322,381 L324,365 L329,346 L334,333 L342,320 L352,307 L364,290 L372,274 L374,267 L375,252 L373,225 L370,201 L362,169 L356,151 L344,126 L336,114 L327,102 L322,94 L317,78 L316,72 L316,52 L319,40 L324,29 Z M211,80 L211,112 L218,118 L234,125 L270,135 L284,143 L297,154 L307,164 L317,177 L326,192 L334,209 L340,230 L342,241 L344,239 L348,226 L348,208 L343,189 L335,172 L322,151 L309,134 L291,116 L281,109 L265,101 L251,96 L230,90 L218,84 Z M165,80 L151,88 L115,100 L103,105 L92,111 L79,122 L65,136 L54,151 L45,168 L40,185 L40,209 L44,224 L45,224 L47,207 L52,191 L60,175 L70,162 L81,151 L94,142 L110,134 L142,125 L157,119 L164,114 L166,111 L166,80 Z M26,130 Z M165,171 L161,177 L152,184 L136,191 L115,197 L90,202 L75,208 L63,217 L56,225 L59,225 L70,221 L93,218 L116,215 L139,209 L155,201 L163,194 L166,186 L166,171 Z M210,171 Z M211,172 L211,189 L215,195 L223,201 L239,210 L256,218 L285,229 L327,244 L330,243 L319,234 L298,220 L280,210 L264,202 L239,191 L223,183 L215,177 Z M45,224 L46,226 Z M55,226 Z M76,226 Z M54,227 Z M330,244 Z M332,245 Z M125,298 L121,300 L117,308 L114,323 L112,356 L112,399 L114,439 L117,473 L122,503 L128,528 L132,539 L139,546 L147,553 L150,555 L151,488 L155,472 L160,464 L167,458 L176,454 L181,453 L193,453 L202,455 L214,461 L220,466 L226,475 L230,487 L232,502 L234,564 L239,562 L248,555 L256,546 L265,532 L270,521 L275,500 L278,474 L280,431 L280,413 L278,378 L274,351 L268,330 L261,314 L256,309 L247,306 L238,307 L230,312 L219,323 L212,331 L202,340 L194,343 L184,342 L175,336 L161,319 L153,310 L145,304 L135,299 Z M366,308 Z M365,309 L356,322 L348,335 L337,356 L332,371 L329,390 L329,415 L331,437 L334,459 L334,474 L332,484 L331,490 L337,485 L344,475 L349,464 L353,449 L355,436 L358,391 L361,365 L364,326 L366,315 L366,309 Z M18,312 Z M19,314 L21,338 L26,364 L32,383 L39,399 L47,414 L62,438 L71,454 L73,456 L70,435 L64,407 L57,384 L49,364 L41,347 L30,329 L21,317 Z M183,476 L171,479 L164,483 L160,488 L158,496 L158,562 L175,574 L190,583 L210,576 L218,570 L222,562 L225,550 L226,543 L226,517 L222,501 L216,491 L208,483 L198,478 L188,476 Z M330,490 Z M329,491 L330,493 Z M328,493 Z M119,524 L120,526 Z M270,541 Z " fill="#000000" transform="translate(281,0)"/>
<path d="M0,0 L20,0 L32,2 L46,9 L58,19 L67,31 L75,47 L80,62 L82,72 L82,101 L78,116 L74,124 L72,124 L68,113 L63,105 L54,97 L41,89 L25,82 L20,81 L-3,81 L-17,85 L-27,90 L-31,94 L-33,94 L-35,98 L-41,107 L-44,115 L-46,115 L-50,91 L-51,81 L-51,67 L-48,44 L-44,31 L-39,22 L-30,12 L-25,8 L-17,4 L-7,1 Z " fill="#000000" transform="translate(460,352)"/>
</svg>
