<?xml version="1.0" encoding="UTF-8"?>
<!-- Generator: visioncortex VTracer 0.6.4 -->
<svg version="1.1" xmlns="http://www.w3.org/2000/svg" width="557" height="500">
<path d="M0,0 L6,0 L4,4 L0,12 L-1,20 L3,22 L6,23 L21,20 L28,20 L35,22 L34,25 L25,31 L21,38 L22,48 L33,49 L42,54 L48,60 L48,63 L33,66 L28,69 L24,77 L23,81 L38,77 L75,68 L81,66 L82,63 L74,63 L74,61 L85,57 L110,50 L132,45 L179,36 L204,34 L237,34 L264,37 L274,39 L275,42 L259,44 L248,48 L240,55 L234,65 L233,68 L233,80 L238,88 L244,93 L243,95 L230,90 L218,90 L208,93 L203,97 L201,97 L199,102 L196,109 L197,120 L193,118 L182,111 L176,109 L163,109 L155,112 L152,113 L150,117 L146,124 L143,137 L142,146 L140,146 L133,132 L129,128 L126,127 L118,127 L111,132 L107,140 L102,159 L100,159 L95,145 L88,137 L80,134 L73,136 L66,142 L63,149 L62,156 L59,155 L53,140 L47,132 L46,129 L41,127 L36,123 L28,119 L15,117 L13,117 L11,123 L5,133 L-6,147 L-17,161 L-24,175 L-26,179 L-28,178 L-35,155 L-34,150 L-23,136 L-13,124 L-3,108 L3,90 L5,79 L4,68 L0,62 L-8,56 L-18,53 L-27,52 L-33,41 L-32,38 L-26,39 L-31,27 L-37,22 L-36,17 L-34,15 L-24,13 L-14,6 Z " fill="#000000" transform="translate(282,0)"/>
<path d="M0,0 L42,0 L59,2 L100,9 L122,15 L128,19 L131,27 L133,28 L136,38 L139,41 L147,42 L148,35 L152,28 L158,23 L175,26 L203,32 L209,32 L212,29 L214,21 L213,10 L208,8 L205,7 L205,4 L218,5 L228,11 L228,15 L221,17 L232,17 L235,21 L234,34 L219,33 L230,37 L232,39 L231,47 L226,56 L222,54 L212,49 L208,49 L218,54 L223,58 L222,65 L215,75 L212,78 L208,76 L199,68 L191,65 L188,65 L196,69 L206,78 L208,82 L197,95 L193,97 L185,90 L176,86 L169,85 L167,86 L180,90 L189,96 L190,97 L189,105 L179,134 L178,139 L175,138 L162,96 L158,105 L150,131 L149,136 L146,135 L142,125 L144,111 L149,98 L154,88 L162,77 L178,61 L170,61 L160,65 L150,72 L143,80 L138,91 L134,103 L131,103 L128,89 L124,84 L119,81 L110,81 L104,85 L99,91 L95,102 L93,110 L89,109 L88,96 L85,86 L80,79 L80,77 L75,75 L69,73 L58,73 L49,76 L41,83 L36,88 L33,87 L35,80 L34,71 L28,62 L15,57 L3,56 L-9,62 L-13,65 L-15,65 L-14,61 L-6,53 L-3,44 L-3,37 L-7,28 L-14,20 L-19,16 L-26,13 L-40,12 L-50,12 L-50,9 L-35,5 L-9,1 Z " fill="#000000" transform="translate(50,50)"/>
<path d="M0,0 L10,0 L12,28 L16,9 L19,0 L47,0 L46,5 L41,15 L36,35 L35,41 L35,60 L38,78 L43,90 L48,96 L55,101 L66,104 L75,103 L83,99 L88,92 L90,87 L91,81 L91,71 L89,61 L85,54 L77,49 L70,47 L61,48 L53,51 L45,57 L40,64 L38,64 L38,41 L40,32 L48,22 L58,15 L62,14 L61,24 L73,22 L83,18 L94,18 L92,22 L89,27 L97,32 L109,35 L117,40 L117,43 L107,44 L111,51 L115,57 L120,63 L121,66 L121,75 L118,75 L121,88 L120,98 L117,103 L115,101 L115,96 L113,96 L112,112 L109,119 L105,125 L103,125 L102,121 L96,131 L88,137 L82,138 L84,133 L84,130 L74,136 L69,138 L62,138 L60,137 L60,134 L65,131 L59,130 L52,134 L42,134 L36,130 L34,125 L43,124 L36,118 L27,116 L22,111 L22,108 L26,107 L17,91 L9,67 L4,50 L0,26 L-1,15 L-1,1 Z " fill="#000000" transform="translate(190,248)"/>
<path d="M0,0 L2,0 L9,22 L15,33 L16,34 L15,53 L18,69 L23,82 L29,91 L38,102 L40,104 L46,99 L49,87 L51,70 L53,67 L55,67 L57,82 L61,92 L69,107 L77,129 L78,133 L78,155 L75,170 L72,179 L68,181 L61,161 L54,151 L53,148 L49,146 L41,140 L14,131 L0,120 L-9,110 L-12,107 L-12,105 L-7,106 L3,111 L9,112 L18,112 L31,110 L26,106 L19,98 L13,91 L7,82 L0,70 L-5,52 L-7,38 L-7,28 L-5,15 L-2,4 Z M41,105 L42,107 L44,106 Z M44,107 L45,109 L47,108 Z M47,109 Z M48,110 L51,114 L53,113 L50,110 Z M53,114 Z M54,115 L54,117 L56,116 Z M56,117 L57,120 L57,117 Z M58,120 Z M59,121 L60,123 Z M60,123 L61,125 Z M61,125 Z " fill="#000000" transform="translate(195,319)"/>
<path d="M0,0 L3,1 L0,13 L11,8 L12,11 L6,21 L15,29 L17,34 L17,37 L9,37 L14,49 L16,57 L8,55 L0,55 L-16,63 L-32,74 L-37,80 L-39,84 L-41,91 L-47,88 L-51,79 L-56,72 L-57,63 L-52,65 L-45,67 L-44,58 L-42,58 L-39,61 L-36,62 L-26,54 L-25,52 L-34,50 L-46,46 L-46,53 L-55,51 L-60,47 L-62,47 L-61,56 L-70,55 L-76,49 L-76,47 L-82,47 L-87,42 L-89,39 L-88,36 L-79,38 L-82,33 L-82,31 L-72,33 L-62,33 L-65,28 L-65,26 L-57,26 L-51,25 L-54,20 L-54,18 L-44,21 L-34,21 L-14,17 L-9,12 L-1,2 Z M-20,30 L-20,31 L-6,31 L-6,30 Z M-24,31 L-37,35 L-38,37 L-31,40 L-26,39 L-22,33 L-20,31 Z M-40,37 L-39,39 L-38,37 Z " fill="#000000" transform="translate(236,0)"/>
<path d="M0,0 L2,0 L0,5 L-9,21 L-15,43 L-17,55 L-19,56 L-100,56 L-102,54 L-107,37 L-115,13 L-119,4 L-118,2 L-112,7 L-103,18 L-103,20 L-100,21 L-93,31 L-90,37 L-91,40 L-94,41 L-95,46 L-81,46 L-81,41 L-86,39 L-82,23 L-76,2 L-74,2 L-66,28 L-64,39 L-66,41 L-65,45 L-54,45 L-53,40 L-56,39 L-53,28 L-44,1 L-42,1 L-37,17 L-32,36 L-33,39 L-37,39 L-37,45 L-24,44 L-23,39 L-29,39 L-28,33 L-21,21 L-13,11 L-5,3 Z " fill="#000000" transform="translate(286,150)"/>
<path d="M0,0 L83,0 L84,18 L0,18 L-1,15 L-1,4 Z " fill="#000000" transform="translate(185,217)"/>
<path d="M0,0 L90,0 L94,3 L93,7 L92,8 L-2,8 L-4,6 L-3,1 Z " fill="#000000" transform="translate(181,237)"/>
<path d="M0,0 L89,0 L91,2 L90,6 L89,7 L0,7 L-2,5 L-1,1 Z " fill="#000000" transform="translate(182,208)"/>
</svg>
