<?xml version="1.0" encoding="UTF-8"?>
<!-- Generator: visioncortex VTracer 0.6.4 -->
<svg version="1.1" xmlns="http://www.w3.org/2000/svg" width="506" height="500">
<path d="M0,0 L2,0 L19,51 L19,54 L32,55 L57,61 L61,62 L68,56 L71,55 L78,55 L84,58 L87,58 L92,59 L109,59 L125,65 L136,74 L142,83 L145,84 L145,86 L175,71 L179,70 L171,86 L152,124 L153,128 L163,142 L170,154 L178,154 L186,158 L190,164 L191,173 L187,181 L183,183 L189,205 L193,226 L250,245 L254,246 L253,249 L192,269 L189,288 L184,306 L186,310 L189,315 L189,327 L184,334 L178,337 L170,338 L162,352 L156,361 L158,365 L163,369 L163,371 L165,371 L169,378 L169,387 L167,392 L165,392 L182,425 L182,427 L176,425 L170,422 L163,422 L155,419 L152,414 L152,412 L146,410 L122,398 L117,400 L106,408 L91,417 L90,425 L83,433 L79,435 L70,435 L61,430 L39,436 L28,438 L22,438 L19,449 L7,485 L2,500 L0,500 L-14,459 L-20,441 L-20,438 L-29,438 L-52,433 L-63,430 L-68,435 L-78,437 L-86,434 L-91,428 L-93,419 L-92,416 L-95,415 L-96,417 L-102,420 L-112,429 L-115,430 L-124,430 L-125,429 L-124,421 L-118,410 L-115,406 L-115,402 L-119,399 L-122,399 L-123,403 L-129,413 L-136,425 L-144,430 L-152,430 L-157,427 L-157,420 L-162,419 L-178,427 L-180,427 L-178,421 L-152,369 L-153,365 L-162,353 L-170,339 L-170,337 L-179,337 L-186,333 L-190,327 L-191,319 L-188,312 L-184,307 L-188,295 L-192,274 L-193,268 L-251,249 L-252,246 L-209,232 L-194,227 L-193,224 L-189,202 L-186,191 L-184,185 L-191,177 L-192,175 L-192,165 L-188,159 L-183,155 L-180,154 L-172,154 L-170,155 L-168,149 L-166,146 L-168,146 L-168,143 L-173,138 L-175,131 L-174,118 L-171,109 L-164,103 L-162,99 L-178,67 L-177,65 L-141,83 L-137,82 L-135,76 L-129,68 L-123,61 L-121,61 L-119,57 L-118,55 L-115,54 L-98,53 L-89,50 L-82,49 L-70,49 L-65,52 L-61,60 L-61,62 L-38,56 L-18,53 L-1,2 Z M-81,53 L-94,56 L-96,57 L-113,58 L-115,59 L-115,61 L-118,62 L-118,64 L-122,66 L-126,71 L-128,76 L-130,76 L-137,89 L-146,98 L-156,105 L-163,107 L-169,114 L-171,128 L-169,136 L-165,140 L-160,143 L-158,143 L-158,145 L-156,145 L-158,149 L-164,153 L-165,161 L-159,172 L-150,179 L-144,180 L-137,178 L-135,174 L-135,169 L-129,173 L-124,178 L-120,180 L-119,183 L-112,187 L-103,196 L-96,197 L-90,196 L-86,197 L-84,202 L-78,221 L-71,229 L-63,236 L-58,241 L-56,245 L-57,248 L-59,248 L-64,254 L-66,256 L-72,264 L-77,270 L-77,272 L-79,272 L-86,280 L-91,288 L-96,293 L-99,297 L-101,303 L-103,308 L-103,313 L-98,313 L-94,310 L-98,322 L-97,327 L-92,328 L-84,321 L-82,320 L-88,332 L-96,342 L-101,347 L-106,353 L-110,357 L-117,369 L-119,374 L-119,381 L-115,382 L-108,377 L-102,370 L-99,368 L-99,366 L-96,365 L-96,363 L-92,361 L-84,352 L-80,347 L-78,346 L-83,358 L-83,362 L-77,362 L-72,357 L-70,355 L-70,360 L-72,360 L-79,370 L-87,378 L-95,388 L-98,394 L-109,405 L-113,411 L-121,424 L-121,426 L-117,427 L-108,420 L-94,407 L-87,399 L-78,389 L-75,385 L-75,383 L-72,382 L-67,377 L-66,381 L-63,381 L-56,376 L-53,375 L-48,370 L-38,361 L-35,356 L-30,351 L-23,343 L-19,333 L-12,324 L-10,323 L-7,317 L0,308 L5,303 L8,301 L8,303 L16,308 L20,313 L25,315 L25,317 L36,326 L41,332 L46,334 L57,334 L62,338 L63,340 L69,343 L83,355 L90,361 L92,361 L93,364 L95,364 L95,366 L103,373 L108,378 L115,385 L121,389 L126,393 L130,394 L131,391 L125,382 L113,368 L104,358 L99,353 L97,353 L95,348 L87,339 L86,337 L84,337 L82,333 L76,325 L76,323 L80,322 L88,326 L93,331 L101,339 L108,342 L113,341 L114,339 L111,335 L109,335 L107,331 L102,325 L96,320 L95,315 L103,318 L112,324 L126,336 L128,336 L128,338 L133,343 L139,349 L146,350 L149,351 L150,354 L153,355 L154,352 L148,345 L146,345 L144,341 L133,329 L124,321 L122,318 L120,318 L120,316 L112,309 L102,300 L95,294 L90,291 L87,290 L86,284 L91,286 L104,297 L111,302 L112,304 L114,304 L115,308 L125,312 L127,309 L118,296 L110,287 L102,280 L92,269 L85,260 L77,251 L71,242 L65,234 L65,229 L70,226 L73,218 L77,212 L79,202 L83,203 L87,199 L92,190 L92,187 L96,185 L104,179 L105,170 L107,169 L108,174 L111,175 L113,173 L115,168 L119,165 L121,172 L122,173 L129,172 L134,166 L138,153 L139,140 L142,111 L142,98 L139,86 L135,80 L125,70 L115,66 L104,62 L97,62 L83,66 L75,77 L69,86 L67,96 L61,105 L54,119 L48,124 L45,127 L45,129 L41,130 L42,138 L41,146 L38,147 L39,155 L34,160 L34,162 L26,161 L22,161 L18,168 L12,176 L9,178 L4,177 L0,176 L0,174 L-8,167 L-17,161 L-36,161 L-38,159 L-38,153 L-37,149 L-35,149 L-35,141 L-37,137 L-43,135 L-43,126 L-45,126 L-47,122 L-54,114 L-62,107 L-65,106 L-67,102 L-71,100 L-76,103 L-81,111 L-85,110 L-87,106 L-87,96 L-84,87 L-85,82 L-86,78 L-84,75 L-76,71 L-71,67 L-71,65 L-67,63 L-67,57 L-71,53 Z M-62,62 Z M118,173 L114,181 L109,193 L108,202 L110,205 L115,206 L121,201 L123,196 L123,177 L120,173 Z M63,347 L60,349 L62,355 L70,365 L77,369 L78,368 L78,360 L71,351 L65,347 Z M136,361 L136,370 L140,377 L153,386 L160,390 L164,388 L165,386 L165,379 L158,370 L144,361 Z M-130,393 L-134,395 L-134,397 L-138,399 L-145,406 L-153,419 L-154,424 L-151,426 L-144,425 L-139,422 L-134,413 L-130,407 L-128,403 L-128,394 Z M158,401 L154,404 L154,409 L160,417 L167,417 L168,413 L165,406 L159,401 Z " fill="#000000" transform="translate(252,0)"/>
<path d="M0,0 L2,0 L1,4 L-5,12 L-14,22 L-17,25 L-19,25 L-19,27 L-25,29 L-24,23 L-20,18 L-18,18 L-16,14 L-12,12 L-11,9 L-9,9 L-9,7 Z " fill="#000000" transform="translate(202,275)"/>
<path d="M0,0 L5,0 L5,7 L4,10 L2,10 L0,14 L-5,17 L-10,18 L-12,17 L-11,12 L-8,11 L-6,6 Z " fill="#000000" transform="translate(328,175)"/>
<path d="M0,0 L5,2 L6,5 L8,5 L8,7 L12,9 L17,13 L19,18 L13,16 L2,7 L0,3 Z " fill="#000000" transform="translate(294,282)"/>
<path d="M0,0 L4,1 L4,7 L-2,13 L-6,12 L-5,7 Z " fill="#000000" transform="translate(206,331)"/>
<path d="M0,0 L4,1 L5,6 L4,9 L1,8 L-1,4 Z " fill="#000000" transform="translate(172,125)"/>
</svg>
