<?xml version="1.0" encoding="UTF-8"?>
<!-- Generator: visioncortex VTracer 0.6.4 -->
<svg version="1.1" xmlns="http://www.w3.org/2000/svg" width="505" height="500">
<path d="M0,0 L3,1 L20,53 L40,56 L58,61 L63,60 L68,56 L70,55 L79,55 L86,59 L91,66 L91,75 L105,83 L119,93 L124,96 L178,69 L178,72 L152,124 L154,128 L164,143 L170,153 L180,154 L186,158 L190,163 L191,173 L188,179 L184,183 L186,192 L191,214 L192,226 L201,228 L253,245 L254,248 L211,262 L194,268 L192,270 L188,292 L184,305 L185,309 L189,314 L190,317 L190,324 L185,332 L181,335 L178,336 L170,336 L168,341 L159,356 L153,364 L155,370 L182,424 L182,426 L176,424 L122,397 L118,399 L97,413 L91,415 L91,422 L87,429 L79,434 L71,434 L65,431 L61,429 L47,433 L41,444 L25,472 L10,498 L9,500 L-4,500 L-18,475 L-26,462 L-32,451 L-41,435 L-62,429 L-68,434 L-70,435 L-81,435 L-86,432 L-91,426 L-92,421 L-92,416 L-106,407 L-117,399 L-122,398 L-138,406 L-154,414 L-177,426 L-180,426 L-178,421 L-168,402 L-151,368 L-153,363 L-161,352 L-169,339 L-170,337 L-179,336 L-185,332 L-189,326 L-190,318 L-187,311 L-185,308 L-183,308 L-189,286 L-191,276 L-191,267 L-203,264 L-247,249 L-251,248 L-250,245 L-195,227 L-192,227 L-190,211 L-185,190 L-183,183 L-187,181 L-191,174 L-191,165 L-187,158 L-181,154 L-173,153 L-169,154 L-167,148 L-157,133 L-150,124 L-151,119 L-177,67 L-177,65 L-171,67 L-126,90 L-120,93 L-116,91 L-103,82 L-93,76 L-91,76 L-92,69 L-89,62 L-84,57 L-75,55 L-66,58 L-61,62 L-44,57 L-20,53 L-17,52 L-4,12 Z M0,57 L-1,60 L-3,60 L-8,65 L-8,67 L-10,67 L-17,75 L-33,90 L-67,124 L-67,126 L-53,132 L-43,140 L-38,146 L-36,152 L-35,217 L-95,216 L-104,214 L-112,208 L-120,197 L-126,184 L-130,186 L-152,208 L-160,215 L-197,252 L-191,259 L-174,275 L-157,292 L-149,299 L-128,320 L-126,319 L-118,303 L-109,293 L-102,289 L-98,288 L-36,287 L-36,335 L-35,434 L-25,451 L-10,477 L2,498 L5,494 L19,470 L34,444 L40,434 L40,288 L104,289 L114,294 L121,302 L128,314 L130,320 L134,318 L146,306 L154,299 L189,264 L197,257 L200,253 L132,185 L130,185 L122,201 L116,209 L109,214 L103,216 L40,217 L41,152 L46,142 L53,136 L65,129 L72,126 L66,119 L41,94 L33,87 L17,71 L9,64 L2,57 Z " fill="#000000" transform="translate(251,0)"/>
</svg>
