<?xml version="1.0" encoding="UTF-8"?>
<!-- Generator: visioncortex VTracer 0.6.4 -->
<svg version="1.1" xmlns="http://www.w3.org/2000/svg" width="500" height="550">
<path d="M0,0 L4,0 L4,2 L8,4 L22,18 L30,25 L41,36 L49,43 L60,54 L68,61 L78,71 L80,72 L80,74 L84,76 L93,85 L93,87 L79,92 L68,99 L60,107 L55,118 L54,125 L55,170 L55,197 L124,197 L137,194 L147,189 L153,184 L160,174 L165,162 L166,158 L170,160 L253,243 L252,247 L240,259 L238,259 L238,261 L230,268 L188,310 L186,310 L186,312 L178,319 L171,326 L166,328 L161,316 L154,304 L146,296 L134,290 L129,289 L53,288 L54,382 L54,471 L38,499 L21,528 L8,550 L4,548 L-9,525 L-25,498 L-40,472 L-41,471 L-42,457 L-43,367 L-43,288 L-54,289 L-109,289 L-114,288 L-121,288 L-130,292 L-135,296 L-137,296 L-137,298 L-139,298 L-141,302 L-150,315 L-157,328 L-161,326 L-176,312 L-189,299 L-191,298 L-191,296 L-195,294 L-217,272 L-225,265 L-242,248 L-247,244 L-246,240 L-232,226 L-224,219 L-211,206 L-203,199 L-189,185 L-181,178 L-169,166 L-167,166 L-167,164 L-159,157 L-157,158 L-149,175 L-141,186 L-134,192 L-125,196 L-115,197 L-91,196 L-43,196 L-45,117 L-48,109 L-56,100 L-69,92 L-84,86 L-84,84 L-76,77 L-71,72 L-67,67 L-61,62 L-60,60 L-58,60 L-58,58 L-53,53 L-51,53 L-51,51 L-46,46 L-44,46 L-44,44 L-42,44 L-42,42 L-39,39 L-37,39 L-37,37 L-35,37 L-35,35 L-32,32 L-30,32 L-30,30 L-28,30 L-28,28 L-23,23 L-21,23 L-21,21 L-19,21 L-19,19 L-16,16 L-14,16 L-14,14 L-12,14 L-12,12 L-9,9 L-7,9 L-7,7 L-5,7 L-5,5 L-3,5 L-2,2 L0,2 Z " fill="#000000" transform="translate(247,0)"/>
</svg>
