<?xml version="1.0" encoding="UTF-8"?>
<!-- Generator: visioncortex VTracer 0.6.4 -->
<svg version="1.1" xmlns="http://www.w3.org/2000/svg" width="500" height="979">
<path d="M0,0 L5,1 L11,23 L15,36 L22,59 L27,76 L28,79 L38,81 L59,86 L71,89 L81,91 L102,96 L119,100 L119,103 L93,112 L78,117 L61,123 L68,126 L78,129 L96,135 L110,139 L133,146 L134,150 L124,152 L94,156 L73,159 L38,164 L28,165 L29,192 L35,196 L38,200 L38,212 L33,218 L28,220 L28,247 L34,249 L38,255 L38,267 L34,272 L28,274 L28,303 L34,305 L38,311 L38,322 L33,329 L28,330 L28,360 L33,361 L38,367 L38,379 L35,384 L30,387 L28,387 L28,414 L33,416 L38,422 L38,433 L34,439 L29,442 L29,474 L32,484 L39,497 L47,507 L58,515 L58,517 L64,519 L66,520 L66,522 L71,523 L76,526 L89,531 L103,535 L115,538 L132,541 L158,544 L196,545 L199,534 L197,515 L190,489 L184,472 L184,467 L188,468 L197,480 L197,482 L199,482 L208,494 L221,511 L230,523 L230,525 L232,525 L241,537 L248,547 L250,553 L252,566 L252,609 L249,634 L248,640 L244,638 L237,627 L228,617 L217,609 L214,606 L199,597 L182,589 L167,585 L148,583 L138,582 L82,579 L60,579 L28,578 L28,600 L36,601 L44,603 L53,605 L59,600 L70,600 L76,605 L78,609 L79,617 L91,624 L104,634 L109,633 L128,624 L145,615 L151,612 L153,612 L152,617 L131,659 L133,664 L137,669 L142,676 L145,682 L145,684 L154,684 L159,686 L163,693 L164,695 L163,704 L159,710 L158,711 L164,736 L165,745 L185,751 L199,756 L211,760 L218,763 L218,765 L203,770 L167,782 L164,782 L164,789 L161,803 L158,815 L162,820 L162,833 L158,838 L151,841 L146,842 L137,856 L132,863 L133,868 L134,873 L136,873 L146,894 L154,909 L157,915 L157,917 L151,916 L135,907 L130,905 L115,897 L106,893 L103,893 L96,897 L93,900 L89,901 L89,903 L79,908 L78,915 L73,922 L68,924 L61,924 L55,921 L55,919 L38,924 L26,926 L20,926 L17,937 L12,952 L7,967 L3,979 L0,978 L-12,942 L-16,930 L-16,927 L-29,925 L-39,923 L-49,920 L-54,921 L-57,924 L-67,925 L-72,923 L-77,918 L-78,915 L-78,907 L-82,906 L-86,904 L-86,902 L-91,900 L-95,898 L-95,896 L-100,894 L-104,894 L-123,903 L-137,910 L-139,910 L-140,912 L-150,917 L-153,917 L-151,911 L-129,867 L-131,863 L-138,853 L-144,843 L-144,841 L-153,840 L-157,838 L-161,832 L-162,824 L-158,815 L-156,815 L-160,802 L-163,788 L-163,781 L-172,779 L-202,769 L-214,765 L-213,762 L-195,756 L-175,749 L-166,746 L-163,746 L-163,738 L-160,722 L-157,710 L-162,705 L-163,703 L-163,693 L-159,687 L-153,684 L-144,684 L-142,679 L-133,665 L-128,659 L-130,653 L-151,611 L-151,608 L-145,610 L-128,619 L-109,628 L-102,632 L-100,632 L-96,628 L-92,627 L-92,625 L-80,618 L-78,618 L-78,610 L-74,603 L-68,600 L-60,600 L-54,604 L-50,605 L-38,602 L-30,600 L-24,600 L-24,578 L-56,579 L-79,579 L-134,582 L-151,584 L-163,585 L-178,589 L-197,598 L-210,606 L-221,615 L-229,622 L-239,636 L-242,640 L-244,640 L-246,629 L-248,609 L-248,566 L-245,549 L-238,538 L-229,527 L-228,525 L-226,525 L-224,520 L-216,510 L-204,494 L-195,482 L-193,482 L-191,477 L-183,467 L-180,467 L-181,474 L-186,489 L-193,515 L-195,534 L-192,545 L-153,544 L-122,540 L-99,535 L-83,530 L-71,525 L-65,522 L-62,522 L-62,520 L-56,517 L-54,517 L-54,515 L-46,509 L-41,504 L-33,494 L-28,484 L-25,474 L-24,441 L-29,440 L-34,432 L-34,424 L-31,419 L-25,414 L-25,387 L-31,383 L-34,377 L-34,369 L-29,361 L-24,360 L-25,330 L-31,326 L-34,320 L-34,312 L-30,306 L-26,303 L-24,303 L-24,274 L-29,273 L-34,265 L-34,257 L-31,251 L-26,247 L-24,247 L-25,220 L-32,214 L-34,210 L-34,202 L-31,197 L-26,193 L-24,193 L-25,165 L-35,164 L-62,160 L-71,159 L-107,154 L-132,150 L-131,146 L-117,142 L-99,136 L-82,131 L-64,125 L-57,124 L-57,122 L-63,121 L-74,117 L-86,113 L-115,103 L-114,100 L-95,95 L-77,91 L-55,86 L-34,81 L-24,79 L-20,67 L-14,45 L-10,33 L-3,8 Z M-56,123 Z M-25,658 L-38,662 L-54,670 L-59,674 L-33,726 L-42,722 L-59,714 L-76,705 L-84,701 L-87,701 L-95,715 L-101,730 L-103,738 L-103,745 L-86,751 L-73,755 L-55,761 L-49,763 L-48,765 L-54,766 L-70,771 L-85,776 L-100,781 L-102,782 L-101,791 L-96,804 L-90,815 L-85,823 L-75,819 L-58,810 L-39,801 L-35,799 L-44,818 L-54,837 L-58,845 L-57,849 L-47,855 L-35,860 L-26,863 L-16,865 L-9,845 L-3,827 L1,815 L3,814 L5,823 L17,859 L19,864 L28,863 L39,859 L53,852 L61,847 L59,840 L50,823 L42,806 L39,799 L54,807 L73,816 L84,822 L87,821 L92,814 L100,797 L104,782 L95,778 L82,774 L64,768 L56,765 L52,765 L52,762 L62,760 L77,755 L92,750 L105,746 L104,738 L99,721 L94,711 L90,704 L85,706 L66,715 L49,724 L39,729 L35,730 L62,676 L62,674 L50,667 L39,662 L31,659 L27,660 L20,689 L16,708 L8,744 L3,766 L3,768 L1,768 L-1,755 L-8,726 L-12,707 L-20,671 L-23,658 Z " fill="#000000" transform="translate(248,0)"/>
</svg>
