<?xml version="1.0" encoding="UTF-8"?>
<!-- Generator: visioncortex VTracer 0.6.4 -->
<svg version="1.1" xmlns="http://www.w3.org/2000/svg" width="626" height="499">
<path d="M0,0 L4,4 L20,30 L34,52 L49,76 L63,98 L62,102 L51,113 L43,120 L33,130 L26,134 L12,134 L-2,129 L-8,129 L-11,134 L-12,185 L-83,185 L-84,134 L-86,130 L-91,129 L-107,135 L-115,135 L-122,133 L-132,124 L-144,112 L-158,101 L-156,96 L-144,77 L-129,53 L-115,31 L-100,7 L-96,1 L-78,8 L-64,11 L-48,12 L-30,10 L-15,6 Z " fill="#000000" transform="translate(360,229)"/>
<path d="M0,0 L7,6 L16,14 L25,21 L23,26 L14,40 L13,43 L521,42 L509,22 L509,19 L525,7 L533,1 L536,2 L547,20 L559,39 L571,58 L578,69 L578,75 L-44,75 L-43,68 L-29,46 L-13,20 Z " fill="#000000" transform="translate(46,424)"/>
<path d="M0,0 L13,0 L29,2 L45,7 L61,15 L74,24 L96,46 L106,53 L109,54 L121,54 L134,49 L140,49 L142,51 L143,59 L143,93 L142,105 L139,108 L128,107 L122,106 L108,106 L97,110 L81,120 L67,130 L52,139 L37,145 L21,149 L13,150 L-7,150 L-24,147 L-41,141 L-56,133 L-70,123 L-86,110 L-96,103 L-98,102 L-110,102 L-122,105 L-129,104 L-132,101 L-133,98 L-133,52 L-130,48 L-121,48 L-109,51 L-102,49 L-89,40 L-72,27 L-52,15 L-36,8 L-20,3 L-10,1 Z M0,33 L-16,36 L-32,42 L-49,51 L-61,60 L-70,68 L-72,71 L-71,76 L-62,85 L-47,95 L-32,102 L-20,106 L-9,108 L12,108 L33,103 L51,95 L67,85 L77,75 L76,70 L71,64 L60,55 L50,48 L31,38 L17,34 L10,33 Z " fill="#000000" transform="translate(308,87)"/>
<path d="M0,0 L23,0 L44,5 L60,12 L73,19 L83,27 L95,39 L95,41 L99,43 L108,51 L117,55 L124,55 L137,51 L142,49 L147,50 L149,53 L149,102 L147,107 L146,108 L137,108 L125,106 L117,106 L106,109 L92,116 L73,128 L55,138 L39,145 L24,149 L17,150 L-9,150 L-25,146 L-41,139 L-59,127 L-73,116 L-83,108 L-91,103 L-107,103 L-119,107 L-124,107 L-126,105 L-126,50 L-123,48 L-114,49 L-106,51 L-99,51 L-89,46 L-70,33 L-55,23 L-38,13 L-20,5 L-6,1 Z M1,34 L-14,38 L-33,47 L-48,57 L-61,68 L-66,74 L-63,79 L-55,86 L-42,94 L-25,102 L-9,107 L4,109 L15,109 L32,106 L50,100 L66,92 L77,85 L83,79 L82,74 L73,65 L59,54 L45,45 L28,37 L17,34 Z " fill="#000000" transform="translate(126,311)"/>
<path d="M0,0 L23,0 L40,4 L61,13 L78,23 L90,31 L114,47 L122,51 L129,51 L141,48 L148,49 L149,50 L149,104 L147,107 L140,106 L130,103 L114,103 L103,110 L90,121 L75,132 L61,140 L48,146 L31,150 L6,150 L-9,147 L-24,142 L-47,130 L-66,118 L-80,110 L-88,107 L-94,106 L-102,106 L-114,108 L-123,108 L-125,106 L-126,102 L-126,53 L-122,49 L-116,50 L-106,54 L-101,55 L-93,55 L-83,50 L-76,43 L-71,38 L-57,24 L-43,15 L-26,7 L-10,2 Z M7,34 L-8,38 L-27,48 L-40,57 L-54,69 L-60,76 L-59,80 L-50,88 L-36,96 L-16,104 L1,108 L8,109 L19,109 L35,106 L48,102 L67,93 L79,85 L88,77 L87,71 L80,64 L67,54 L52,45 L37,38 L22,34 Z " fill="#000000" transform="translate(477,311)"/>
<path d="M0,0 L5,1 L19,23 L34,47 L46,66 L61,90 L72,108 L70,109 L51,97 L39,92 L20,87 L6,65 L3,60 L1,59 L-1,64 L-12,81 L-16,87 L-42,95 L-59,103 L-64,106 L-66,105 L-54,85 L-40,63 L-25,39 L-13,20 L-1,1 Z " fill="#000000" transform="translate(311,0)"/>
<path d="M0,0 L9,1 L18,7 L21,10 L20,16 L8,35 L-8,61 L-20,80 L-33,101 L-45,120 L-58,118 L-71,118 L-80,120 L-84,119 L-69,95 L-57,76 L-42,52 L-30,33 L-15,9 L-10,2 Z " fill="#000000" transform="translate(201,190)"/>
<path d="M0,0 L18,0 L23,1 L38,25 L53,49 L68,73 L83,97 L93,113 L93,115 L83,114 L64,114 L55,115 L39,89 L27,70 L12,46 L-3,22 L-12,8 L-12,5 L-4,1 Z " fill="#000000" transform="translate(415,195)"/>
<path d="M0,0 L12,0 L22,5 L28,12 L31,19 L31,32 L27,40 L23,45 L13,50 L4,51 L-5,49 L-13,43 L-18,36 L-20,25 L-18,15 L-14,9 L-7,3 Z " fill="#000000" transform="translate(129,357)"/>
<path d="M0,0 L10,1 L20,7 L26,16 L27,19 L27,32 L24,39 L17,47 L8,51 L-4,51 L-14,46 L-21,38 L-23,32 L-23,19 L-18,9 L-10,3 L-6,1 Z " fill="#000000" transform="translate(311,132)"/>
<path d="M0,0 L12,0 L22,5 L29,13 L31,18 L31,32 L26,42 L20,47 L14,50 L4,51 L-6,48 L-13,43 L-18,35 L-19,31 L-19,19 L-14,9 L-7,3 Z " fill="#000000" transform="translate(485,357)"/>
</svg>
