<?xml version="1.0" encoding="UTF-8"?>
<!-- Generator: visioncortex VTracer 0.6.4 -->
<svg version="1.1" xmlns="http://www.w3.org/2000/svg" width="500" height="500">
<path d="M0,0 L2,0 L10,25 L21,60 L21,63 L37,65 L57,70 L61,68 L66,64 L69,63 L76,63 L82,66 L86,71 L88,79 L88,83 L99,89 L111,97 L118,102 L126,99 L148,87 L165,78 L177,72 L179,72 L177,78 L165,101 L155,120 L149,131 L151,136 L159,146 L169,164 L177,164 L183,167 L187,171 L189,176 L189,183 L185,190 L182,193 L184,203 L188,222 L189,229 L220,239 L248,248 L251,249 L251,251 L226,259 L191,270 L189,271 L185,294 L184,297 L189,298 L197,298 L209,294 L210,293 L216,293 L218,295 L217,337 L211,341 L203,342 L200,340 L194,340 L210,363 L221,379 L221,386 L219,388 L159,388 L175,419 L179,427 L176,427 L160,419 L133,405 L119,398 L102,410 L88,418 L88,425 L84,433 L76,438 L69,438 L63,435 L59,431 L52,432 L29,437 L22,438 L12,469 L3,498 L2,500 L0,500 L-8,475 L-19,440 L-20,438 L-42,434 L-53,431 L-58,432 L-63,436 L-65,437 L-75,437 L-81,433 L-84,430 L-86,422 L-86,418 L-100,410 L-114,400 L-118,398 L-132,406 L-148,414 L-164,422 L-176,428 L-175,423 L-166,406 L-158,390 L-200,390 L-202,388 L-202,381 L-190,361 L-178,341 L-189,339 L-198,341 L-204,341 L-206,339 L-207,320 L-207,297 L-205,295 L-183,295 L-187,271 L-218,261 L-246,252 L-249,251 L-249,249 L-224,241 L-189,230 L-187,229 L-183,207 L-180,196 L-181,191 L-185,186 L-186,183 L-186,176 L-183,170 L-177,165 L-168,164 L-165,160 L-156,145 L-147,133 L-149,127 L-167,92 L-176,75 L-175,72 L-142,89 L-123,99 L-118,102 L-113,100 L-100,91 L-86,83 L-85,73 L-81,67 L-73,63 L-64,64 L-59,67 L-59,69 L-57,69 L-57,71 L-44,67 L-22,63 L-19,63 L-17,53 L-1,2 Z M-2,53 L-10,66 L-29,98 L-41,118 L-49,131 L-48,133 L-38,128 L-30,121 L-21,119 L-8,99 L-1,88 L-1,86 L4,91 L12,103 L16,109 L37,115 L44,117 L37,106 L29,95 L13,71 L3,57 L0,53 Z M0,118 L-14,121 L-27,126 L-42,134 L-51,140 L-61,142 L-70,140 L-75,138 L-77,171 L-77,179 L-72,178 L-66,176 L-56,176 L-48,180 L-38,188 L-30,194 L-16,201 L0,205 L16,205 L32,201 L48,193 L60,184 L72,180 L77,179 L89,179 L88,165 L84,139 L73,143 L63,142 L56,138 L53,137 L51,133 L43,127 L33,122 L17,118 Z M-70,182 L-72,183 L-72,185 L-82,188 L-88,197 L-96,211 L-112,238 L-125,260 L-125,262 L-113,260 L-102,257 L-98,252 L-86,230 L-69,198 L-61,182 Z M74,185 L71,187 L72,192 L94,225 L107,245 L118,262 L130,262 L138,263 L131,252 L121,236 L111,221 L100,204 L88,186 L86,185 Z M-38,201 L-53,228 L-67,254 L-74,266 L-73,270 L-67,275 L-65,275 L-63,279 L-54,289 L-45,295 L-38,297 L-30,296 L-19,292 L-15,293 L-14,299 L-14,329 L-7,332 L7,332 L15,328 L13,292 L20,295 L26,299 L32,301 L41,301 L49,296 L55,291 L62,282 L72,275 L81,272 L80,265 L65,242 L52,221 L43,207 L41,206 L26,211 L16,213 L-7,213 L-22,209 L-34,203 Z M-120,268 L-136,272 L-152,280 L-163,287 L-175,297 L-184,300 L-202,300 L-201,335 L-194,334 L-182,334 L-172,339 L-161,348 L-148,356 L-135,361 L-125,363 L-105,363 L-89,359 L-77,354 L-64,346 L-58,341 L-45,337 L-31,337 L-26,338 L-22,335 L-22,302 L-29,305 L-40,306 L-48,303 L-55,296 L-62,288 L-70,281 L-83,273 L-95,269 L-100,268 Z M109,268 L94,272 L80,279 L67,289 L59,296 L53,303 L41,309 L31,309 L23,303 L21,303 L20,319 L20,344 L46,341 L57,342 L66,348 L86,357 L100,361 L112,363 L121,363 L137,360 L155,354 L170,346 L178,339 L189,335 L199,334 L204,336 L209,335 L212,334 L212,300 L201,303 L185,303 L176,299 L170,295 L159,283 L145,274 L131,269 L126,268 Z M186,340 L177,346 L176,350 L187,368 L-164,366 L-159,359 L-161,355 L-170,347 L-174,346 L-187,368 L-197,384 L-197,385 L-136,385 L216,383 L209,372 L198,356 L187,340 Z M170,352 L153,361 L153,362 L176,362 L174,357 L171,352 Z M-154,359 L-154,362 L-151,361 Z " fill="#000000" transform="translate(249,0)"/>
<path d="M0,0 L13,0 L27,5 L38,11 L50,22 L56,29 L59,34 L58,38 L51,45 L35,53 L18,57 L12,58 L2,58 L-15,54 L-27,49 L-36,43 L-43,36 L-46,31 L-44,27 L-42,27 L-42,25 L-31,16 L-16,6 Z M4,17 L-2,22 L-4,27 L-3,35 L1,40 L5,42 L13,42 L19,38 L22,31 L21,24 L16,18 L14,17 Z " fill="#000000" transform="translate(359,285)"/>
<path d="M0,0 L14,0 L27,4 L39,11 L53,23 L59,30 L59,33 L42,45 L28,52 L16,55 L2,54 L-14,50 L-28,43 L-39,33 L-43,27 L-41,23 L-26,12 L-12,4 Z M6,13 L-2,16 L-6,21 L-8,30 L-5,38 L0,42 L2,43 L13,43 L19,39 L22,34 L22,23 L18,17 L13,14 Z " fill="#000000" transform="translate(128,287)"/>
<path d="M0,0 L8,0 L19,3 L34,9 L48,18 L58,27 L56,31 L48,38 L32,46 L21,49 L14,50 L0,50 L-15,47 L-27,42 L-38,35 L-48,25 L-47,22 L-28,10 L-12,3 Z M-1,11 L-8,17 L-9,19 L-9,29 L-5,35 L-1,37 L9,37 L15,33 L17,29 L17,19 L14,14 L9,11 Z " fill="#000000" transform="translate(249,134)"/>
</svg>
