<?xml version="1.0" encoding="UTF-8"?>
<!-- Generator: visioncortex VTracer 0.6.4 -->
<svg version="1.1" xmlns="http://www.w3.org/2000/svg" width="500" height="529">
<path d="M0,0 L11,0 L65,9 L83,14 L97,19 L101,24 L104,36 L107,55 L110,87 L110,99 L108,124 L106,138 L100,155 L104,154 L105,149 L109,135 L114,116 L116,99 L117,62 L123,45 L127,42 L134,43 L142,48 L146,49 L146,51 L150,53 L158,60 L164,70 L169,83 L173,86 L182,87 L188,90 L197,100 L206,111 L214,121 L218,126 L226,140 L226,143 L228,143 L232,152 L239,171 L247,198 L249,202 L249,209 L245,213 L238,216 L222,216 L215,213 L214,211 L212,211 L212,208 L210,209 L213,220 L213,230 L210,236 L201,242 L199,242 L198,244 L193,247 L192,249 L187,252 L180,260 L170,269 L168,273 L162,278 L160,282 L155,286 L145,301 L142,305 L140,305 L137,321 L132,327 L127,328 L126,330 L121,332 L120,336 L116,340 L111,350 L109,350 L108,354 L105,357 L103,361 L99,365 L94,370 L85,383 L83,388 L74,388 L67,384 L63,377 L63,375 L61,375 L59,362 L54,366 L45,366 L39,363 L38,361 L35,361 L35,359 L30,357 L13,349 L6,347 L6,345 L0,344 L-3,343 L-4,346 L0,351 L2,352 L6,365 L11,357 L18,356 L24,359 L24,361 L28,362 L46,372 L49,373 L49,375 L54,377 L59,380 L70,394 L73,402 L73,409 L69,418 L65,426 L62,438 L59,454 L56,459 L49,462 L34,461 L9,457 L4,453 L4,444 L0,442 L-8,449 L-14,450 L-23,448 L-35,443 L-39,442 L-39,440 L-44,440 L-59,433 L-69,429 L-85,421 L-94,416 L-103,410 L-103,408 L-108,407 L-116,403 L-116,392 L-120,392 L-129,392 L-134,387 L-142,380 L-147,375 L-149,369 L-151,369 L-153,364 L-153,353 L-149,345 L-143,324 L-139,315 L-133,308 L-125,304 L-122,303 L-111,303 L-94,307 L-84,311 L-78,318 L-67,318 L-54,322 L-44,327 L-44,329 L-39,331 L-23,338 L-18,340 L-19,338 L-19,328 L-15,320 L2,303 L7,296 L9,296 L10,292 L17,277 L20,264 L22,251 L28,233 L29,226 L21,244 L17,255 L12,269 L11,278 L9,278 L8,281 L3,284 L-2,296 L-14,316 L-17,321 L-19,321 L-21,325 L-25,329 L-27,330 L-36,330 L-42,326 L-47,322 L-47,320 L-50,320 L-50,318 L-54,317 L-64,313 L-80,308 L-108,299 L-121,295 L-126,291 L-126,278 L-118,247 L-117,236 L-114,231 L-104,226 L-101,224 L-102,220 L-103,216 L-105,216 L-111,204 L-112,200 L-112,187 L-104,163 L-98,139 L-90,133 L-85,131 L-85,128 L-95,128 L-98,126 L-99,122 L-99,103 L-98,94 L-97,74 L-95,61 L-94,40 L-92,32 L-89,26 L-84,22 L-77,19 L-63,16 L-42,9 L-37,6 L-26,6 L-18,11 L-14,1 L-7,1 L-4,2 Z M30,224 Z " fill="#000000" transform="translate(251,0)"/>
<path d="M0,0 L7,1 L14,9 L17,13 L23,20 L28,25 L30,27 L31,32 L31,39 L30,47 L35,43 L38,40 L47,42 L51,49 L51,51 L53,51 L53,54 L56,55 L62,64 L70,76 L73,79 L75,82 L75,85 L77,85 L84,97 L84,99 L86,99 L87,103 L90,104 L91,106 L94,107 L94,109 L97,109 L102,116 L103,125 L106,126 L116,126 L122,130 L128,138 L138,147 L145,151 L145,153 L152,155 L152,157 L161,160 L161,162 L165,163 L171,172 L178,186 L183,189 L185,179 L189,175 L199,175 L209,182 L230,187 L267,192 L305,196 L311,197 L311,199 L314,199 L319,205 L321,206 L323,210 L327,199 L332,197 L343,196 L358,188 L368,184 L371,184 L372,182 L383,176 L385,174 L391,170 L395,169 L411,169 L414,170 L414,176 L404,195 L398,211 L392,232 L388,238 L383,242 L381,242 L380,244 L374,246 L358,249 L332,249 L318,251 L310,253 L299,253 L294,247 L294,245 L292,245 L292,242 L287,241 L284,250 L276,251 L273,246 L271,242 L269,241 L267,247 L263,249 L250,249 L223,246 L203,242 L180,236 L168,232 L161,229 L150,225 L136,220 L119,214 L112,211 L112,209 L107,207 L102,204 L102,202 L98,201 L90,194 L87,180 L80,182 L69,182 L69,180 L66,180 L60,173 L57,172 L57,170 L51,168 L42,164 L37,157 L35,156 L32,151 L29,150 L23,142 L15,135 L15,132 L13,132 L11,127 L10,115 L10,105 L1,106 L-8,106 L-13,94 L-15,84 L-15,50 L-12,32 L-7,4 L-3,1 Z " fill="#000000" transform="translate(15,276)"/>
</svg>
