<?xml version="1.0" encoding="UTF-8"?>
<!-- Generator: visioncortex VTracer 0.6.4 -->
<svg version="1.1" xmlns="http://www.w3.org/2000/svg" width="506" height="500">
<path d="M0,0 L2,0 L19,51 L19,54 L32,55 L57,61 L61,62 L68,56 L71,55 L78,55 L84,58 L89,63 L91,69 L90,76 L96,78 L110,87 L122,96 L127,95 L175,71 L179,69 L177,74 L152,124 L153,128 L163,142 L170,154 L178,154 L186,158 L190,164 L191,173 L187,181 L183,183 L189,205 L191,214 L192,225 L202,229 L250,245 L254,246 L253,249 L198,267 L192,269 L189,288 L184,306 L186,310 L189,315 L189,327 L184,334 L178,337 L170,338 L162,352 L153,364 L154,369 L162,385 L171,404 L181,423 L182,427 L176,425 L122,398 L117,400 L103,410 L91,417 L90,425 L83,433 L78,435 L70,435 L61,430 L39,436 L28,438 L22,438 L19,449 L7,485 L2,500 L0,500 L-14,459 L-20,441 L-20,438 L-29,438 L-52,433 L-63,430 L-68,435 L-78,437 L-86,434 L-91,428 L-93,419 L-92,416 L-97,414 L-113,404 L-119,399 L-124,400 L-178,427 L-180,427 L-178,421 L-152,369 L-153,365 L-162,353 L-170,340 L-170,337 L-179,337 L-186,333 L-190,327 L-191,319 L-188,312 L-184,307 L-189,290 L-193,268 L-251,249 L-252,246 L-209,232 L-194,227 L-193,224 L-189,202 L-185,187 L-185,184 L-191,177 L-192,175 L-192,165 L-188,159 L-183,155 L-180,154 L-172,154 L-170,155 L-168,149 L-158,134 L-151,125 L-152,119 L-178,67 L-177,65 L-121,93 L-116,91 L-102,81 L-93,76 L-92,67 L-89,62 L-83,57 L-81,56 L-71,56 L-65,60 L-61,62 L-38,56 L-18,53 L-1,2 Z M1,56 L-3,69 L-10,101 L-14,118 L-34,122 L-55,130 L-69,138 L-78,145 L-84,143 L-99,132 L-109,125 L-125,114 L-129,111 L-131,111 L-130,118 L-124,128 L-115,142 L-104,159 L-100,165 L-102,169 L-112,185 L-118,198 L-124,216 L-126,229 L-150,233 L-176,238 L-188,240 L-190,244 L-174,248 L-144,255 L-131,258 L-126,258 L-126,267 L-121,287 L-114,304 L-106,318 L-100,326 L-101,330 L-108,340 L-118,354 L-122,359 L-129,369 L-139,383 L-140,388 L-134,386 L-101,364 L-90,356 L-80,349 L-76,350 L-62,359 L-48,366 L-34,371 L-21,374 L-15,374 L-11,393 L-9,402 L-4,425 L0,445 L2,450 L2,454 L4,454 L6,444 L10,424 L15,393 L18,377 L17,375 L30,373 L50,367 L66,359 L80,350 L85,351 L103,363 L113,370 L135,385 L139,386 L138,381 L137,379 L135,379 L134,375 L121,356 L113,344 L103,330 L105,326 L114,312 L122,296 L128,278 L130,268 L130,264 L142,262 L190,251 L203,248 L202,246 L180,241 L159,236 L134,231 L131,230 L127,211 L120,192 L112,177 L106,169 L107,165 L117,151 L125,139 L125,136 L128,135 L137,122 L140,117 L140,114 L130,119 L120,126 L106,135 L95,142 L87,147 L83,145 L70,136 L53,127 L35,121 L20,118 L14,117 L7,85 L4,67 L3,56 Z " fill="#000000" transform="translate(252,0)"/>
<path d="M0,0 L2,0 L0,5 L-8,17 L-15,27 L-28,46 L-35,56 L-48,75 L-52,80 L-55,85 L-59,91 L-61,92 L-61,96 L-27,103 L-21,105 L4,110 L31,116 L60,122 L62,123 L62,125 L31,133 L17,136 L-8,142 L-22,145 L-34,147 L-39,137 L-45,130 L-54,124 L-67,119 L-71,118 L-86,118 L-97,121 L-102,121 L-106,116 L-119,106 L-126,103 L-149,99 L-159,95 L-164,90 L-165,86 L-163,79 L-157,74 L-145,71 L-136,72 L-131,77 L-130,79 L-117,85 L-106,84 L-96,80 L-85,73 L-81,72 L-80,68 L-71,66 L-56,64 L-50,57 L-49,53 L-56,61 L-61,63 L-60,54 L-65,62 L-68,64 L-79,65 L-79,59 L-85,58 L-83,54 L-50,32 L-39,25 L-16,10 L-3,2 Z " fill="#000000" transform="translate(381,123)"/>
<path d="M0,0 L9,0 L17,9 L27,15 L39,19 L52,22 L62,27 L68,34 L70,38 L70,41 L65,39 L53,32 L33,26 L26,25 L15,25 L5,30 L0,35 L-5,43 L-6,46 L-22,43 L-59,35 L-95,27 L-112,23 L-112,20 L-73,13 L-46,8 L-27,5 L-10,2 Z " fill="#000000" transform="translate(182,221)"/>
<path d="M0,0 L2,0 L9,36 L15,64 L22,95 L23,104 L10,107 L4,108 L-5,106 L-19,105 L-22,103 L-19,83 L-15,63 L-12,48 L-9,35 L-4,15 L-1,2 Z " fill="#000000" transform="translate(252,70)"/>
<path d="M0,0 L4,1 L11,12 L21,26 L28,37 L37,50 L48,66 L53,73 L53,75 L48,73 L37,66 L27,59 L18,54 L18,52 L13,50 L2,42 L-9,35 L-21,27 L-40,14 L-49,8 L-51,11 L-58,40 L-60,39 L-64,27 L-71,18 L-71,14 L-57,4 L-54,1 L-49,2 L-39,6 L-29,8 L-15,8 L-3,3 Z " fill="#000000" transform="translate(331,303)"/>
<path d="M0,0 L6,1 L11,6 L11,8 L13,8 L16,15 L16,23 L13,28 L12,29 L6,29 L3,26 L3,20 L5,17 L1,19 L0,26 L4,32 L10,35 L18,35 L23,32 L24,30 L27,30 L21,67 L14,107 L12,115 L10,115 L4,89 L-1,65 L-9,30 L-14,7 L-14,3 Z " fill="#000000" transform="translate(244,325)"/>
<path d="M0,0 L11,7 L28,19 L44,30 L64,44 L79,55 L84,58 L84,61 L74,65 L68,70 L64,78 L62,94 L60,94 L50,79 L43,69 L36,58 L33,54 L33,52 L31,52 L26,43 L17,30 L7,14 L0,3 Z " fill="#000000" transform="translate(126,117)"/>
<path d="M0,0 L3,1 L9,10 L20,19 L29,24 L28,27 L11,38 L-5,49 L-17,57 L-29,65 L-47,77 L-57,84 L-59,84 L-57,79 L-51,71 L-47,65 L-39,54 L-30,41 L-29,39 L-27,39 L-25,34 L-15,21 L-13,17 L-11,17 L-9,12 Z " fill="#000000" transform="translate(177,298)"/>
<path d="M0,0 L11,0 L21,4 L28,12 L30,16 L29,22 L25,28 L17,31 L2,29 L-6,25 L-8,23 L-7,11 L-7,3 Z " fill="#000000" transform="translate(296,257)"/>
<path d="M0,0 L11,3 L19,8 L22,11 L20,15 L14,20 L4,23 L-3,23 L-13,19 L-19,14 L-20,9 L-17,4 L-10,1 Z " fill="#000000" transform="translate(227,274)"/>
</svg>
