<?xml version="1.0" encoding="UTF-8"?>
<!-- Generator: visioncortex VTracer 0.6.4 -->
<svg version="1.1" xmlns="http://www.w3.org/2000/svg" width="500" height="535">
<path d="M0,0 L5,1 L11,8 L23,14 L28,20 L30,21 L34,30 L34,32 L36,33 L41,45 L44,50 L49,64 L51,71 L51,73 L53,73 L56,86 L59,96 L65,104 L73,109 L82,121 L83,124 L85,124 L88,129 L91,130 L94,133 L106,138 L112,142 L114,142 L115,148 L102,149 L92,143 L82,140 L82,138 L80,138 L79,135 L67,128 L63,126 L59,126 L61,131 L64,137 L63,146 L62,148 L60,148 L57,158 L55,168 L51,172 L46,177 L39,183 L29,188 L21,190 L13,190 L2,183 L-7,173 L-25,166 L-36,160 L-43,154 L-46,150 L-49,145 L-53,135 L-56,129 L-60,124 L-65,121 L-70,116 L-72,112 L-72,103 L-68,91 L-64,81 L-63,75 L-64,61 L-61,49 L-57,39 L-55,27 L-53,22 L-52,7 L-44,7 L-38,11 L-36,16 L-31,26 L-31,29 L-29,29 L-26,34 L-25,35 L-17,36 L-15,31 L-13,31 L-13,29 L-6,29 L-3,30 L-9,17 L-9,5 Z M-2,32 L-1,39 L0,35 Z " fill="#000000" transform="translate(130,318)"/>
<path d="M0,0 L16,1 L28,0 L36,7 L39,14 L51,17 L57,22 L61,27 L66,26 L79,26 L85,30 L87,38 L92,42 L98,45 L103,50 L106,57 L108,64 L112,67 L112,76 L107,81 L105,86 L104,101 L103,104 L98,109 L97,112 L85,112 L80,109 L76,105 L63,104 L53,104 L55,106 L54,111 L53,112 L42,112 L35,114 L25,115 L15,115 L13,108 L13,94 L16,85 L20,83 L22,76 L14,83 L12,90 L11,101 L7,104 L-3,105 L-10,99 L-13,95 L-16,89 L-16,87 L-18,86 L-22,82 L-29,76 L-35,55 L-36,53 L-36,42 L-32,37 L-20,30 L-18,30 L-16,25 L-12,15 L-10,9 L-7,4 L-5,2 Z M23,73 Z " fill="#000000" transform="translate(175,238)"/>
<path d="M0,0 L7,0 L14,5 L14,7 L18,9 L21,11 L21,22 L23,22 L25,31 L30,37 L36,35 L45,35 L49,28 L51,26 L56,26 L61,33 L59,29 L58,24 L60,22 L67,22 L72,25 L76,33 L79,39 L79,43 L72,42 L71,42 L73,47 L72,69 L70,76 L67,79 L63,90 L61,97 L53,102 L35,107 L30,104 L29,101 L27,100 L23,94 L17,89 L4,85 L1,83 L-2,78 L-4,77 L-4,75 L-8,73 L-13,68 L-14,67 L-15,57 L-20,45 L-21,37 L-16,25 L-16,16 L-14,8 L-4,1 Z M63,34 L63,37 L65,36 Z M65,37 Z M66,38 Z M68,39 Z " fill="#000000" transform="translate(298,308)"/>
<path d="M0,0 L7,0 L16,3 L20,7 L20,9 L22,10 L24,15 L26,16 L27,20 L29,20 L31,24 L34,27 L36,31 L38,36 L41,42 L44,48 L45,61 L43,70 L40,82 L29,86 L26,91 L26,101 L27,111 L26,115 L24,115 L23,118 L18,119 L9,114 L7,110 L0,97 L-6,80 L-7,55 L-10,37 L-10,12 L-8,6 Z M4,10 L4,17 L9,22 L13,27 L16,27 L17,29 L17,21 L13,13 L9,10 Z " fill="#000000" transform="translate(10,184)"/>
<path d="M0,0 L11,1 L18,4 L19,6 L19,20 L16,29 L16,49 L11,54 L8,61 L7,64 L4,66 L-11,66 L-11,69 L7,69 L8,74 L9,86 L8,93 L11,97 L11,108 L9,113 L-1,117 L-6,122 L-11,125 L-13,126 L-12,131 L-13,145 L-14,146 L-32,147 L-33,144 L-32,134 L-28,128 L-24,123 L-22,122 L-26,121 L-26,112 L-29,105 L-29,98 L-25,85 L-22,77 L-20,74 L-19,67 L-17,65 L-17,55 L-14,38 L-12,23 L-9,14 L-6,5 L-4,5 L-2,1 Z " fill="#000000" transform="translate(284,79)"/>
<path d="M0,0 L8,1 L15,3 L18,7 L20,13 L21,28 L24,32 L25,35 L25,42 L22,44 L25,47 L25,51 L22,53 L23,55 L23,63 L19,73 L18,79 L18,91 L12,103 L10,103 L9,114 L14,122 L14,130 L10,135 L6,137 L1,137 L-3,134 L-3,117 L-7,106 L-9,100 L-8,82 L-11,64 L-11,50 L-6,49 L-7,42 L-5,41 L10,40 L8,39 L-5,38 L-7,35 L-6,26 L-1,2 Z M13,41 Z M16,42 Z M-2,51 Z M0,52 Z M3,53 Z M8,54 L12,56 L15,54 Z " fill="#000000" transform="translate(184,98)"/>
<path d="M0,0 L6,0 L13,6 L13,12 L9,21 L7,22 L10,31 L10,42 L8,45 L5,54 L2,60 L-2,61 L-1,63 L-1,69 L-6,70 L-1,74 L-4,84 L-9,95 L-15,100 L-23,102 L-31,102 L-42,109 L-50,108 L-50,101 L-48,93 L-45,79 L-42,73 L-40,72 L-38,66 L-34,58 L-29,53 L-25,51 L-19,52 L-15,56 L-12,59 L-8,57 L-14,54 L-15,52 L-18,51 L-19,43 L-14,31 L-12,22 L-9,17 L-3,15 L-2,16 L-2,6 Z M-6,58 Z M-4,59 Z M-12,62 L-11,64 Z M-11,64 Z M-10,65 L-9,67 Z M-9,67 Z M-8,68 Z " fill="#000000" transform="translate(362,162)"/>
<path d="M0,0 L9,1 L15,6 L14,14 L12,19 L7,20 L5,32 L3,41 L-1,47 L-7,52 L-9,60 L-13,63 L-21,62 L-33,62 L-42,65 L-45,68 L-46,71 L-48,72 L-49,75 L-51,75 L-51,79 L-53,79 L-53,81 L-55,82 L-64,81 L-64,79 L-66,79 L-69,74 L-69,69 L-63,64 L-56,60 L-53,53 L-49,46 L-44,41 L-36,34 L-22,20 L-16,16 L-13,11 L-10,8 L-1,9 L-1,2 Z M0,12 Z M1,13 L2,15 Z " fill="#000000" transform="translate(444,261)"/>
<path d="M0,0 L7,1 L9,5 L11,6 L12,9 L13,29 L16,36 L16,50 L14,57 L12,57 L10,62 L6,67 L3,77 L3,79 L-2,80 L-18,79 L-24,77 L-24,75 L-26,75 L-26,69 L-19,66 L-26,63 L-26,47 L-19,20 L-12,9 L-2,1 Z M-17,66 Z M-13,67 Z " fill="#000000" transform="translate(308,0)"/>
<path d="M0,0 L9,0 L12,1 L12,8 L11,10 L9,10 L6,19 L2,33 L0,33 L-2,37 L-9,41 L-1,44 L0,50 L-1,55 L-3,55 L-5,61 L-15,66 L-26,66 L-37,62 L-40,61 L-42,57 L-42,52 L-38,48 L-31,47 L-24,46 L-22,44 L-29,44 L-35,42 L-35,40 L-37,40 L-36,33 L-31,26 L-29,26 L-27,22 L-26,19 L-17,13 L-11,10 L-6,5 L-3,1 Z M-16,41 L-20,43 L-12,42 Z " fill="#000000" transform="translate(283,469)"/>
<path d="M0,0 L9,1 L10,4 L15,6 L19,11 L21,17 L21,26 L16,44 L15,50 L14,69 L11,72 L2,71 L-6,68 L-8,66 L-12,49 L-12,23 L-8,13 L-2,2 Z " fill="#000000" transform="translate(192,15)"/>
<path d="M0,0 L8,0 L10,1 L13,8 L13,20 L9,29 L5,33 L-5,38 L-18,45 L-19,46 L-27,46 L-34,39 L-33,32 L-31,25 L-27,16 L-16,7 L-15,5 L-12,5 L-12,3 Z " fill="#000000" transform="translate(487,221)"/>
<path d="M0,0 L6,0 L11,5 L11,27 L6,40 L2,43 L1,46 L-2,49 L-8,57 L-13,58 L-20,56 L-23,54 L-25,48 L-25,37 L-22,27 L-16,16 L-14,12 L-12,12 L-12,9 L-10,9 L-8,5 L-4,3 L-4,1 Z " fill="#000000" transform="translate(390,107)"/>
<path d="M0,0 L3,1 L6,9 L9,16 L12,25 L16,33 L16,42 L13,47 L11,48 L10,51 L7,54 L7,56 L4,58 L-1,57 L-7,52 L-8,42 L-4,8 L-2,1 Z " fill="#000000" transform="translate(44,274)"/>
<path d="M0,0 L2,0 L1,10 L-1,18 L1,27 L1,34 L-3,48 L-5,54 L-8,57 L-13,57 L-14,55 L-18,53 L-17,44 L-14,32 L-13,16 L-11,16 L-9,12 L-5,5 L-3,5 L-3,2 Z " fill="#000000" transform="translate(64,353)"/>
<path d="M0,0 L10,0 L11,5 L9,10 L7,10 L6,15 L4,15 L2,19 L1,22 L-1,22 L-2,26 L-3,29 L-5,29 L-7,34 L-13,33 L-18,30 L-20,26 L-20,20 L-16,14 L-12,10 L-10,10 L-9,7 L-6,7 L-4,3 Z " fill="#000000" transform="translate(327,268)"/>
<path d="M0,0 L2,3 L2,11 L0,11 L-1,16 L-7,32 L-10,36 L-17,35 L-21,30 L-21,22 L-19,17 L-15,13 L-13,12 L-11,8 L-7,2 Z " fill="#000000" transform="translate(62,325)"/>
<path d="M0,0 L12,0 L21,7 L21,13 L17,16 L4,16 L-5,13 L-10,11 L-9,5 L-6,2 Z " fill="#000000" transform="translate(241,245)"/>
<path d="M0,0 L17,0 L23,4 L22,9 L16,12 L0,11 L-8,7 L-7,2 Z " fill="#000000" transform="translate(219,353)"/>
<path d="M0,0 L6,1 L8,2 L8,4 L12,6 L16,12 L16,17 L9,21 L4,22 L-1,18 L-2,11 L-4,9 L-3,3 L0,2 Z " fill="#000000" transform="translate(288,286)"/>
<path d="M0,0 L6,1 L12,6 L13,13 L11,15 L2,15 L-6,12 L-11,8 L-11,3 L-6,1 Z " fill="#000000" transform="translate(209,463)"/>
<path d="M0,0 L5,0 L8,2 L7,11 L2,17 L-7,16 L-12,13 L-11,5 L-9,2 Z " fill="#000000" transform="translate(260,228)"/>
<path d="M0,0 L8,2 L13,6 L13,12 L7,13 L-7,11 L-9,9 L-9,4 L-4,1 Z " fill="#000000" transform="translate(284,455)"/>
<path d="M0,0 L14,0 L19,3 L19,8 L14,10 L7,10 L3,9 L3,7 L0,7 L-1,2 Z " fill="#000000" transform="translate(185,88)"/>
<path d="M0,0 L9,0 L10,2 L10,8 L9,9 L3,9 L-1,4 Z " fill="#000000" transform="translate(241,468)"/>
</svg>
