<?xml version="1.0" encoding="UTF-8"?>
<!-- Generator: visioncortex VTracer 0.6.4 -->
<svg version="1.1" xmlns="http://www.w3.org/2000/svg" width="500" height="665">
<path d="M0,0 L25,0 L42,1 L101,1 L116,0 L140,1 L239,1 L256,2 L270,1 L292,2 L308,2 L344,4 L358,4 L358,9 L353,14 L351,20 L351,27 L348,39 L348,48 L347,55 L346,68 L346,139 L343,173 L342,182 L342,196 L340,206 L339,223 L338,236 L335,242 L329,263 L320,284 L314,296 L313,300 L309,304 L305,310 L298,320 L292,330 L286,335 L279,343 L274,348 L270,350 L269,353 L261,360 L254,365 L251,369 L246,372 L236,378 L234,378 L234,380 L226,386 L219,390 L205,399 L191,408 L185,413 L182,413 L182,415 L172,423 L166,434 L163,442 L161,455 L162,492 L162,513 L166,536 L167,538 L168,546 L173,558 L176,565 L181,575 L188,585 L193,590 L200,598 L208,605 L216,611 L221,617 L223,618 L223,620 L227,622 L232,628 L238,632 L248,640 L261,646 L272,650 L287,655 L292,657 L296,661 L296,663 L289,664 L285,665 L278,665 L273,664 L220,663 L200,662 L138,662 L129,661 L111,661 L98,660 L77,661 L2,661 L-14,662 L-32,662 L-38,663 L-64,663 L-80,664 L-83,662 L-81,657 L-75,653 L-68,650 L-60,649 L-60,647 L-53,646 L-46,642 L-34,638 L-31,636 L-22,633 L-11,627 L-9,625 L-2,621 L3,617 L7,614 L10,614 L10,612 L15,609 L19,607 L19,605 L21,605 L21,603 L26,598 L31,594 L41,579 L47,569 L54,547 L56,537 L57,536 L59,525 L61,516 L64,488 L63,475 L63,461 L61,446 L58,438 L56,431 L54,431 L49,423 L45,421 L45,418 L41,416 L32,408 L29,405 L20,400 L20,398 L15,396 L1,389 L-5,384 L-7,383 L-7,381 L-12,379 L-12,377 L-17,375 L-31,364 L-38,359 L-38,357 L-43,356 L-47,351 L-52,346 L-58,340 L-58,338 L-61,337 L-68,329 L-75,320 L-81,315 L-85,308 L-89,303 L-100,280 L-104,270 L-110,254 L-112,249 L-114,241 L-122,211 L-126,181 L-129,157 L-128,139 L-129,119 L-129,99 L-130,95 L-129,86 L-130,77 L-132,45 L-134,29 L-139,13 L-139,10 L-141,10 L-142,3 L-128,3 L-119,2 L-109,1 L-95,1 L-57,2 L-26,1 L-7,1 Z M-2,30 L-11,31 L-62,31 L-78,33 L-95,34 L-101,34 L-102,37 L-102,55 L-100,64 L-64,64 L-50,63 L-50,75 L-51,80 L-51,122 L-85,124 L-95,124 L-96,125 L-97,142 L-97,157 L-59,156 L-52,155 L-51,165 L-49,179 L-48,181 L-45,204 L-41,224 L-38,235 L-36,240 L-34,248 L-28,266 L-20,283 L-9,301 L1,313 L8,322 L12,328 L20,335 L25,342 L30,345 L44,341 L41,335 L39,335 L39,333 L34,328 L24,316 L16,303 L11,296 L7,286 L2,277 L-5,258 L-10,239 L-13,218 L-15,212 L-19,186 L-19,176 L-21,163 L-20,154 L8,154 L25,152 L26,151 L27,141 L27,129 L25,123 L14,122 L-23,123 L-21,108 L-22,94 L-21,81 L-21,63 L-5,62 L15,62 L27,61 L82,60 L83,75 L83,102 L84,130 L84,149 L85,154 L85,188 L86,209 L68,208 L52,208 L46,209 L47,212 L47,238 L61,238 L82,236 L89,235 L88,253 L90,285 L95,323 L98,332 L99,333 L110,333 L113,319 L115,299 L116,274 L116,240 L117,233 L152,233 L155,232 L156,227 L157,210 L156,208 L153,207 L142,207 L131,208 L120,209 L119,207 L116,206 L115,200 L115,181 L114,143 L114,66 L113,59 L131,60 L174,58 L184,59 L186,58 L187,60 L195,59 L217,59 L233,58 L233,94 L234,114 L232,114 L232,116 L197,116 L185,117 L184,121 L185,127 L185,147 L187,149 L204,148 L232,148 L228,179 L222,210 L220,220 L217,231 L216,236 L210,248 L207,255 L201,268 L197,277 L193,284 L191,289 L184,299 L180,305 L170,318 L162,327 L156,335 L164,338 L170,337 L175,333 L179,327 L183,325 L188,319 L190,318 L190,316 L194,314 L203,304 L204,301 L206,301 L214,291 L216,285 L220,283 L226,273 L226,270 L230,268 L233,263 L235,258 L239,252 L245,239 L250,224 L252,217 L255,206 L257,200 L260,180 L262,151 L262,147 L300,147 L308,146 L309,137 L309,123 L308,118 L292,118 L276,117 L269,117 L269,119 L262,118 L264,109 L264,86 L263,71 L263,59 L270,58 L296,58 L297,57 L310,57 L313,53 L314,33 L313,31 L305,30 L293,31 L274,32 L269,33 L254,33 L243,32 L220,32 L216,31 L42,31 L37,32 L17,32 Z M87,420 L66,421 L73,435 L77,436 L121,436 L146,435 L152,422 L122,421 L97,420 Z M103,450 L102,462 L103,479 L101,480 L81,480 L80,488 L80,494 L81,496 L103,496 L104,508 L104,535 L103,543 L74,543 L70,552 L69,559 L80,558 L94,558 L99,556 L99,558 L101,558 L102,563 L102,572 L98,592 L95,602 L84,627 L84,630 L79,635 L78,637 L98,637 L138,635 L145,635 L142,630 L140,630 L138,624 L130,608 L126,600 L123,584 L122,578 L122,571 L121,566 L120,557 L148,556 L150,555 L149,546 L148,542 L136,542 L127,543 L118,543 L117,524 L117,496 L122,495 L145,494 L145,480 L144,479 L118,478 L117,476 L116,461 L116,450 Z " fill="#000000" transform="translate(142,0)"/>
<path d="M0,0 Z " fill="#000000" transform="translate(318,564)"/>
<path d="M0,0 Z " fill="#000000" transform="translate(105,360)"/>
<path d="M0,0 Z " fill="#000000" transform="translate(83,340)"/>
<path d="M0,0 Z " fill="#000000" transform="translate(148,288)"/>
</svg>
