<?xml version="1.0" encoding="UTF-8"?>
<!-- Generator: visioncortex VTracer 0.6.4 -->
<svg version="1.1" xmlns="http://www.w3.org/2000/svg" width="501" height="433">
<path d="M0,0 L40,0 L67,4 L90,10 L111,18 L132,28 L146,37 L158,49 L167,60 L175,68 L181,75 L192,84 L206,92 L219,100 L229,108 L238,117 L245,128 L250,143 L256,161 L265,178 L275,190 L283,205 L285,214 L284,225 L280,232 L286,239 L291,249 L293,260 L292,271 L288,283 L282,292 L277,298 L266,305 L256,308 L243,309 L228,307 L210,301 L205,299 L201,299 L206,304 L216,311 L227,316 L231,317 L242,317 L256,313 L272,313 L283,317 L291,324 L296,332 L300,345 L301,351 L301,362 L298,372 L292,383 L282,394 L269,403 L259,407 L235,411 L188,416 L168,420 L139,428 L123,431 L102,433 L81,432 L61,428 L34,419 L2,406 L-31,396 L-58,390 L-74,383 L-85,376 L-98,367 L-110,359 L-122,347 L-132,333 L-142,315 L-152,291 L-158,272 L-158,270 L-162,268 L-168,261 L-180,240 L-190,219 L-196,199 L-199,181 L-200,160 L-199,144 L-194,111 L-188,86 L-181,70 L-172,53 L-165,47 L-153,40 L-149,39 L-134,39 L-122,42 L-117,44 L-112,43 L-101,35 L-83,25 L-67,17 L-42,8 L-21,3 Z M1,10 L-15,12 L-36,17 L-57,25 L-74,33 L-96,46 L-102,51 L-97,55 L-87,62 L-69,72 L-54,81 L-46,89 L-39,103 L-36,116 L-35,126 L-35,138 L-38,153 L-43,163 L-51,172 L-62,178 L-71,180 L-65,188 L-60,195 L-59,198 L-59,209 L-67,228 L-75,241 L-84,251 L-90,255 L-97,257 L-107,256 L-107,263 L-96,286 L-87,309 L-84,319 L-83,328 L-85,335 L-89,334 L-92,324 L-97,311 L-108,295 L-112,285 L-114,276 L-115,258 L-122,256 L-126,256 L-128,280 L-133,275 L-137,270 L-137,250 L-148,241 L-164,225 L-173,214 L-180,205 L-181,207 L-168,230 L-153,255 L-141,274 L-129,293 L-119,307 L-111,318 L-102,328 L-92,338 L-76,350 L-56,362 L-54,361 L-62,347 L-67,336 L-74,312 L-78,297 L-79,290 L-79,270 L-76,253 L-72,242 L-67,236 L-62,234 L-56,234 L-52,238 L-52,245 L-57,254 L-59,260 L-59,275 L-54,301 L-48,321 L-39,340 L-29,353 L-21,361 L-6,371 L16,384 L32,392 L48,398 L70,403 L87,405 L109,405 L134,402 L155,397 L173,391 L183,387 L216,385 L236,385 L239,386 L249,386 L263,383 L275,377 L284,369 L290,359 L293,351 L291,340 L286,331 L279,325 L268,321 L263,320 L256,320 L246,325 L231,325 L218,321 L219,332 L223,333 L239,329 L249,328 L259,328 L273,330 L283,334 L287,338 L288,344 L284,352 L276,357 L270,359 L256,359 L226,356 L218,356 L213,370 L208,379 L203,383 L195,383 L188,379 L176,364 L166,350 L163,347 L154,355 L142,362 L127,368 L113,372 L104,374 L95,380 L83,386 L72,389 L54,389 L42,385 L31,377 L23,366 L18,354 L17,343 L20,328 L25,316 L31,307 L41,300 L48,298 L65,298 L71,290 L82,283 L96,278 L107,276 L115,276 L125,280 L133,281 L146,279 L157,274 L163,270 L168,266 L179,263 L190,263 L205,266 L229,276 L240,279 L249,279 L257,276 L267,266 L272,266 L273,271 L269,278 L268,281 L264,283 L260,286 L254,288 L238,288 L219,283 L199,275 L189,273 L174,273 L163,277 L153,286 L144,290 L139,291 L126,291 L106,288 L93,292 L82,298 L72,307 L67,315 L66,318 L66,330 L70,340 L77,349 L86,355 L92,357 L110,357 L124,353 L136,348 L151,340 L159,334 L155,326 L151,325 L134,333 L120,337 L106,337 L96,334 L85,327 L82,324 L82,317 L88,309 L98,302 L109,298 L116,298 L130,302 L138,302 L147,298 L160,289 L172,283 L181,281 L193,281 L208,285 L220,290 L237,297 L247,298 L258,294 L267,288 L275,280 L279,271 L279,257 L275,247 L274,246 L263,247 L247,249 L227,249 L213,246 L205,241 L197,232 L191,220 L190,212 L193,204 L198,199 L206,194 L200,187 L187,176 L172,167 L160,163 L146,163 L136,167 L126,176 L120,186 L115,196 L109,201 L97,203 L75,203 L63,200 L52,194 L44,185 L41,179 L32,181 L40,197 L51,209 L58,214 L68,217 L97,217 L102,221 L102,227 L101,230 L88,233 L64,233 L51,229 L40,222 L31,212 L23,196 L16,173 L11,147 L11,125 L15,115 L26,103 L33,96 L44,89 L53,85 L57,84 L72,84 L84,90 L99,103 L113,113 L124,118 L130,117 L134,112 L137,100 L144,92 L148,90 L154,90 L160,95 L165,105 L167,112 L167,124 L163,134 L157,141 L146,148 L146,149 L163,150 L184,157 L198,164 L210,173 L218,181 L226,194 L232,206 L231,213 L230,214 L225,214 L222,213 L220,209 L216,206 L211,205 L206,207 L204,209 L205,215 L212,223 L221,230 L230,234 L234,235 L247,235 L257,231 L271,224 L276,218 L275,208 L268,197 L256,183 L248,169 L240,148 L235,135 L234,135 L232,143 L227,147 L217,147 L212,143 L211,141 L211,131 L215,126 L217,125 L229,125 L224,118 L212,109 L186,95 L177,88 L169,78 L162,70 L145,53 L137,46 L128,38 L112,28 L97,21 L82,16 L66,13 L45,11 L18,10 Z M-144,48 L-154,52 L-162,59 L-169,70 L-175,86 L-181,113 L-183,132 L-183,146 L-181,160 L-177,173 L-169,190 L-158,206 L-149,217 L-137,229 L-127,235 L-114,240 L-109,241 L-95,241 L-85,236 L-77,227 L-71,212 L-70,208 L-70,197 L-73,192 L-78,188 L-97,183 L-107,178 L-114,172 L-118,164 L-119,159 L-119,145 L-114,135 L-108,131 L-100,129 L-89,129 L-85,131 L-83,137 L-80,135 L-80,129 L-84,125 L-87,124 L-100,124 L-113,129 L-123,136 L-126,140 L-128,152 L-126,164 L-121,174 L-114,180 L-97,188 L-84,197 L-78,204 L-77,206 L-77,215 L-82,225 L-91,231 L-101,234 L-114,234 L-125,230 L-134,223 L-145,212 L-152,204 L-161,192 L-171,174 L-177,158 L-178,151 L-178,125 L-175,113 L-171,105 L-162,91 L-157,78 L-154,66 L-150,61 L-143,58 L-129,57 L-117,60 L-87,74 L-81,76 L-85,72 L-109,59 L-133,48 Z M-81,76 Z M-141,77 L-147,80 L-151,85 L-154,96 L-160,106 L-166,113 L-169,124 L-170,134 L-170,153 L-167,170 L-161,181 L-150,194 L-134,210 L-122,219 L-114,222 L-98,224 L-91,221 L-90,218 L-105,207 L-118,198 L-132,187 L-136,182 L-139,172 L-140,164 L-140,154 L-138,142 L-134,132 L-128,124 L-119,118 L-109,114 L-103,113 L-94,113 L-84,116 L-75,123 L-71,131 L-71,139 L-74,145 L-75,147 L-69,146 L-64,141 L-64,131 L-68,121 L-75,110 L-82,101 L-91,91 L-104,82 L-114,78 L-119,77 Z M-79,77 Z M-78,78 Z M63,91 L53,93 L44,98 L35,106 L27,119 L24,127 L25,131 L30,135 L31,135 L33,127 L37,122 L47,115 L58,110 L62,109 L75,109 L86,113 L103,122 L118,137 L128,142 L137,142 L145,138 L150,133 L153,128 L154,126 L154,112 L152,106 L150,107 L146,119 L140,128 L134,131 L125,130 L119,126 L104,112 L91,102 L77,94 L66,91 Z M-46,121 L-47,134 L-50,143 L-56,151 L-66,157 L-74,160 L-82,160 L-85,158 L-87,146 L-92,148 L-94,150 L-94,157 L-90,163 L-83,167 L-76,167 L-62,160 L-52,151 L-48,146 L-45,140 L-44,135 L-44,125 Z M74,141 L64,144 L53,152 L51,157 L71,158 L82,161 L88,165 L95,169 L102,169 L108,165 L109,163 L109,157 L105,151 L95,145 L88,142 L83,141 Z M-76,147 Z M54,170 L56,176 L65,186 L74,191 L89,194 L99,194 L107,193 L109,186 L101,189 L88,189 L80,185 L71,179 L55,170 Z M-182,204 Z M174,301 L167,304 L165,307 L175,322 L187,343 L195,358 L199,369 L203,365 L207,354 L207,336 L203,322 L195,306 L192,301 Z M54,307 L44,311 L37,318 L34,325 L33,330 L33,341 L36,352 L41,360 L49,367 L57,371 L65,373 L83,373 L84,371 L72,365 L62,356 L56,346 L53,334 L53,318 L57,307 Z M103,315 L96,318 L94,322 L99,326 L109,329 L121,329 L131,326 L141,320 L143,317 L134,318 L118,318 L108,315 Z M143,316 Z M266,338 L228,345 L231,347 L251,351 L259,351 L267,349 L274,345 L275,342 L269,338 Z " fill="#000000" transform="translate(200,0)"/>
<path d="M0,0 L10,0 L23,3 L30,6 L28,8 L11,10 L-9,16 L-30,27 L-35,31 L-37,31 L-35,26 L-29,17 L-20,8 L-8,2 Z " fill="#000000" transform="translate(181,163)"/>
<path d="M0,0 L12,0 L17,4 L19,7 L19,19 L15,24 L12,26 L0,26 L-5,22 L-7,19 L-7,7 L-3,2 Z " fill="#000000" transform="translate(202,239)"/>
<path d="M0,0 L12,0 L17,4 L19,7 L19,19 L15,24 L12,26 L0,26 L-5,22 L-7,19 L-7,7 L-3,2 Z " fill="#000000" transform="translate(162,34)"/>
<path d="M0,0 L10,0 L16,5 L17,7 L17,17 L12,23 L10,24 L0,24 L-6,19 L-7,17 L-7,7 L-2,1 Z " fill="#000000" transform="translate(159,250)"/>
<path d="M0,0 L10,0 L16,5 L17,7 L17,17 L12,23 L10,24 L0,24 L-6,19 L-7,17 L-7,7 L-2,1 Z " fill="#000000" transform="translate(187,208)"/>
<path d="M0,0 L10,0 L16,5 L17,7 L17,17 L12,23 L10,24 L0,24 L-6,19 L-7,17 L-7,7 L-2,1 Z " fill="#000000" transform="translate(188,117)"/>
<path d="M0,0 L10,0 L16,5 L17,7 L17,17 L12,23 L10,24 L0,24 L-6,19 L-7,17 L-7,7 L-2,1 Z " fill="#000000" transform="translate(188,70)"/>
<path d="M0,0 L10,0 L16,5 L17,7 L17,17 L12,23 L10,24 L0,24 L-6,19 L-7,17 L-7,7 L-2,1 Z " fill="#000000" transform="translate(265,40)"/>
<path d="M0,0 L10,0 L16,5 L17,7 L17,17 L12,23 L10,24 L0,24 L-6,19 L-7,17 L-7,7 L-2,1 Z " fill="#000000" transform="translate(216,32)"/>
<path d="M0,0 L10,0 L15,4 L16,6 L16,16 L12,21 L10,22 L0,22 L-5,18 L-6,16 L-6,6 L-2,1 Z " fill="#000000" transform="translate(184,318)"/>
<path d="M0,0 L10,0 L15,4 L16,6 L16,16 L12,21 L10,22 L0,22 L-5,18 L-6,16 L-6,6 L-2,1 Z " fill="#000000" transform="translate(234,65)"/>
<path d="M0,0 L10,0 L15,4 L16,6 L16,16 L12,21 L10,22 L0,22 L-5,18 L-6,16 L-6,6 L-2,1 Z " fill="#000000" transform="translate(124,41)"/>
<path d="M0,0 L10,0 L15,5 L15,15 L10,20 L0,20 L-5,15 L-5,5 Z " fill="#000000" transform="translate(381,129)"/>
</svg>
