<?xml version="1.0" encoding="UTF-8"?>
<!-- Generator: visioncortex VTracer 0.6.4 -->
<svg version="1.1" xmlns="http://www.w3.org/2000/svg" width="506" height="500">
<path d="M0,0 L2,0 L18,48 L19,50 L24,49 L43,49 L66,54 L78,54 L91,52 L101,43 L114,35 L120,36 L138,47 L151,57 L158,64 L165,74 L165,76 L176,70 L179,70 L179,72 L177,72 L175,78 L171,86 L171,90 L167,94 L171,95 L177,91 L181,93 L190,102 L198,109 L212,123 L221,134 L230,147 L235,157 L245,181 L248,193 L249,201 L239,212 L225,220 L206,229 L205,230 L250,245 L254,246 L253,249 L192,269 L189,288 L184,305 L185,309 L189,315 L189,327 L184,334 L178,337 L170,338 L162,352 L153,364 L154,369 L162,385 L170,401 L178,417 L182,425 L182,427 L176,425 L122,398 L117,400 L106,408 L91,417 L90,425 L83,433 L79,435 L70,435 L61,430 L39,436 L26,438 L22,438 L19,449 L7,485 L2,500 L0,500 L-14,459 L-20,441 L-20,438 L-29,438 L-52,433 L-63,430 L-68,435 L-78,437 L-86,434 L-91,428 L-93,419 L-93,416 L-107,408 L-119,399 L-125,400 L-144,410 L-178,427 L-180,427 L-178,421 L-152,369 L-153,365 L-157,360 L-165,361 L-183,367 L-189,371 L-197,380 L-202,392 L-214,398 L-218,397 L-226,385 L-229,374 L-229,363 L-226,352 L-220,341 L-210,333 L-196,324 L-191,322 L-189,313 L-184,307 L-188,295 L-192,274 L-193,268 L-251,249 L-252,246 L-209,232 L-194,227 L-193,224 L-189,202 L-186,191 L-184,185 L-191,177 L-192,175 L-192,165 L-188,159 L-183,155 L-180,154 L-172,154 L-170,155 L-168,149 L-158,134 L-151,125 L-152,119 L-178,67 L-177,65 L-121,93 L-116,91 L-102,81 L-93,76 L-92,67 L-89,62 L-83,57 L-81,56 L-72,56 L-66,59 L-63,62 L-47,58 L-33,55 L-18,53 L-1,2 Z M114,47 L102,56 L92,66 L83,80 L79,88 L77,92 L80,92 L90,86 L96,84 L104,83 L128,83 L152,87 L158,87 L157,82 L150,71 L141,62 L123,50 L118,47 Z M28,59 L9,64 L-4,68 L-6,82 L-7,98 L-7,129 L-5,148 L1,169 L9,185 L14,192 L15,190 L17,190 L16,177 L16,156 L18,145 L25,126 L32,115 L44,101 L55,91 L69,80 L80,71 L86,66 L87,63 L80,65 L68,65 L48,61 L38,59 Z M116,91 L106,99 L98,107 L93,116 L91,124 L113,125 L129,129 L139,134 L144,138 L148,142 L151,144 L152,147 L133,138 L125,137 L124,140 L129,145 L131,152 L131,162 L127,174 L125,181 L132,180 L137,177 L143,167 L151,152 L151,148 L155,148 L154,137 L146,121 L138,111 L129,101 L121,94 L118,91 Z M95,94 L74,100 L58,108 L53,111 L47,120 L43,130 L42,136 L42,147 L44,156 L47,155 L52,139 L58,131 L65,127 L82,125 L82,127 L76,128 L62,135 L55,143 L51,156 L49,172 L49,178 L59,187 L75,200 L88,208 L94,211 L103,213 L116,213 L121,210 L118,205 L118,203 L133,193 L136,192 L129,201 L125,205 L125,207 L130,206 L153,195 L162,188 L168,181 L170,172 L167,162 L163,156 L156,150 L154,151 L153,161 L149,170 L142,182 L139,186 L139,188 L125,184 L116,176 L108,162 L103,151 L101,153 L99,164 L99,174 L103,189 L106,195 L108,198 L99,192 L91,183 L84,171 L80,158 L79,146 L80,137 L84,130 L87,127 L83,126 L85,123 L87,113 L93,102 L97,97 Z M136,97 L133,98 L133,100 L138,104 L140,104 L142,108 L149,118 L157,135 L162,151 L168,155 L173,165 L175,176 L178,175 L182,161 L182,138 L179,126 L174,114 L165,104 L153,98 L149,97 Z M176,104 L176,107 L180,116 L184,133 L186,149 L186,178 L183,194 L177,210 L170,221 L161,231 L151,239 L143,242 L143,246 L156,246 L171,241 L184,232 L197,222 L212,214 L229,206 L237,199 L237,192 L232,177 L224,158 L219,149 L209,136 L200,126 L182,108 Z M39,113 Z M38,114 L34,119 L31,125 L23,161 L21,174 L21,194 L25,207 L28,213 L37,220 L49,230 L61,237 L67,239 L77,239 L72,232 L67,227 L58,215 L49,198 L43,182 L38,160 L36,140 L38,140 L38,128 L40,119 L39,114 Z M90,128 L86,139 L86,157 L91,172 L93,175 L95,175 L96,158 L100,148 L104,143 L112,139 L119,136 L120,134 L112,131 Z M170,188 L159,196 L144,205 L127,213 L110,218 L96,218 L84,214 L74,208 L65,200 L60,193 L55,191 L58,200 L66,216 L74,226 L85,237 L99,245 L116,245 L131,241 L143,236 L158,228 L167,218 L175,202 L175,195 L173,189 Z M16,210 L8,223 L8,225 L6,225 L-1,244 L-11,263 L-20,276 L-24,281 L-24,283 L-26,283 L-33,291 L-40,298 L-55,308 L-67,314 L-93,322 L-117,328 L-164,328 L-182,331 L-192,334 L-207,344 L-212,348 L-217,358 L-218,364 L-218,374 L-214,385 L-210,383 L-205,373 L-196,363 L-191,359 L-178,354 L-161,349 L-146,346 L-119,343 L-82,339 L-64,335 L-49,330 L-31,322 L-19,311 L-11,301 L-2,289 L1,286 L1,284 L3,284 L12,268 L19,255 L19,253 L21,253 L23,248 L21,241 L21,216 L19,210 Z M26,220 L31,251 L37,265 L46,277 L55,287 L57,289 L77,288 L96,286 L111,283 L129,275 L140,268 L147,260 L149,254 L144,252 L95,251 L76,248 L62,244 L45,235 L37,228 L32,221 Z M15,321 L16,324 L22,327 L25,335 L25,342 L22,350 L16,355 L12,357 L-1,357 L-8,353 L-17,344 L-22,332 L-24,322 L-29,324 L-38,329 L-44,331 L-42,336 L-34,346 L-26,355 L-15,362 L-8,364 L5,364 L18,360 L24,355 L28,346 L28,333 L24,324 L18,321 Z " fill="#000000" transform="translate(252,0)"/>
</svg>
