<?xml version="1.0" encoding="UTF-8"?>
<!-- Generator: visioncortex VTracer 0.6.4 -->
<svg version="1.1" xmlns="http://www.w3.org/2000/svg" width="680" height="500">
<path d="M0,0 L5,1 L8,8 L9,19 L9,51 L8,59 L0,71 L-6,89 L-16,106 L-28,123 L-40,137 L-51,149 L-56,154 L-69,165 L-84,174 L-103,182 L-127,189 L-148,193 L-163,195 L-197,197 L-226,200 L-255,205 L-276,210 L-301,217 L-311,223 L-321,232 L-328,240 L-337,254 L-339,259 L-343,258 L-349,250 L-352,242 L-352,229 L-348,218 L-341,203 L-328,193 L-311,184 L-296,179 L-280,176 L-269,175 L-262,176 L-218,176 L-193,173 L-174,169 L-146,162 L-121,152 L-104,143 L-84,129 L-76,122 L-67,113 L-54,96 L-41,75 L-31,57 L-27,50 L-22,36 L-12,18 Z " fill="#000000" transform="translate(352,241)"/>
<path d="M0,0 L11,0 L33,3 L41,7 L48,9 L60,10 L74,8 L83,5 L87,6 L76,18 L65,27 L59,31 L45,42 L34,52 L26,59 L19,66 L10,77 L4,84 L-5,99 L-12,115 L-17,132 L-19,144 L-19,173 L-16,182 L-16,191 L-18,194 L-23,193 L-34,176 L-42,160 L-49,141 L-53,122 L-54,115 L-56,74 L-56,63 L-54,28 L-52,10 L-37,9 L-19,3 Z " fill="#000000" transform="translate(369,20)"/>
<path d="M0,0 L4,2 L11,8 L11,10 L15,12 L31,28 L33,29 L33,31 L35,31 L42,39 L55,52 L65,65 L71,75 L78,86 L88,105 L95,124 L99,142 L99,152 L96,155 L87,158 L70,168 L56,174 L44,177 L29,187 L23,192 L19,198 L10,206 L-4,213 L-13,216 L-26,218 L-43,218 L-41,212 L-36,206 L-19,197 L-10,189 L-8,189 L-6,185 L1,177 L9,163 L14,151 L18,135 L21,120 L22,108 L22,87 L20,64 L17,47 L12,27 L3,6 L0,2 Z " fill="#000000" transform="translate(581,78)"/>
<path d="M0,0 L7,0 L-1,20 L-3,29 L-3,50 L1,65 L9,80 L20,93 L31,101 L35,102 L29,90 L26,79 L25,71 L25,62 L28,41 L30,34 L32,34 L39,53 L48,70 L58,81 L66,86 L73,88 L84,88 L88,84 L98,66 L104,52 L105,49 L106,36 L116,38 L121,42 L126,51 L129,66 L129,80 L125,86 L116,94 L96,106 L72,118 L64,121 L65,117 L73,107 L79,97 L62,108 L52,114 L57,119 L61,123 L61,125 L49,129 L30,129 L13,124 L-4,115 L-18,105 L-31,94 L-50,75 L-50,64 L-47,47 L-42,33 L-36,23 L-26,12 L-15,5 L-5,1 Z M81,94 Z M80,95 Z " fill="#000000" transform="translate(448,118)"/>
<path d="M0,0 L10,0 L18,11 L25,18 L36,26 L53,35 L64,39 L78,42 L98,44 L175,47 L184,48 L184,56 L180,63 L175,69 L162,78 L143,88 L126,95 L102,99 L62,103 L47,103 L35,90 L22,73 L15,62 L6,35 L2,18 Z " fill="#000000" transform="translate(363,257)"/>
<path d="M0,0 L2,0 L2,22 L-2,35 L-9,46 L-16,54 L-29,64 L-46,73 L-73,82 L-95,86 L-107,86 L-126,75 L-140,64 L-155,49 L-166,33 L-173,19 L-177,6 L-177,2 L-173,4 L-164,13 L-156,20 L-143,33 L-127,41 L-117,44 L-113,45 L-93,45 L-80,41 L-72,37 L-43,25 L-19,13 L-2,2 Z " fill="#000000" transform="translate(583,209)"/>
<path d="M0,0 L2,0 L1,10 L-3,23 L-1,60 L3,87 L7,103 L13,120 L21,136 L29,150 L39,163 L44,169 L55,178 L58,180 L59,186 L55,187 L32,181 L20,176 L11,170 L2,160 L-11,151 L-17,148 L-24,125 L-26,113 L-26,80 L-22,60 L-16,31 L-10,13 L-5,5 Z " fill="#000000" transform="translate(383,100)"/>
<path d="M0,0 L6,4 L21,17 L35,31 L46,45 L53,57 L57,68 L59,84 L52,92 L46,102 L43,109 L40,119 L34,128 L27,133 L20,135 L16,135 L18,126 L22,112 L24,101 L24,92 L21,82 L16,76 L10,75 L10,72 L25,72 L38,75 L53,81 L46,74 L32,65 L19,59 L6,55 L-7,53 L-36,53 L-36,44 L-28,28 L-20,18 L-11,9 Z M54,82 Z " fill="#000000" transform="translate(497,65)"/>
<path d="M0,0 L6,1 L23,11 L41,24 L54,36 L61,45 L65,53 L66,63 L35,57 L18,55 L-8,55 L-28,58 L-46,64 L-54,69 L-56,69 L-54,64 L-46,50 L-38,38 L-27,24 L-10,7 Z " fill="#000000" transform="translate(494,0)"/>
<path d="M0,0 L20,0 L31,4 L41,10 L51,19 L60,31 L66,47 L68,56 L69,65 L69,85 L67,98 L62,114 L60,118 L58,118 L55,103 L51,93 L45,84 L35,79 L31,61 L26,47 L18,30 L9,17 L1,9 L-7,4 L-7,2 Z " fill="#000000" transform="translate(529,76)"/>
<path d="M0,0 L6,0 L7,4 L4,9 L1,9 L-1,13 L-7,22 L-12,35 L-15,46 L-20,47 L-31,47 L-42,50 L-52,56 L-58,64 L-63,75 L-65,88 L-68,92 L-73,92 L-75,83 L-76,74 L-76,62 L-74,50 L-70,39 L-63,29 L-53,20 L-37,12 L-19,5 Z " fill="#000000" transform="translate(464,71)"/>
<path d="M0,0 L10,2 L16,6 L21,14 L22,18 L22,39 L16,51 L9,58 L-2,63 L-19,65 L-29,65 L-40,62 L-50,58 L-62,49 L-74,37 L-86,21 L-90,17 L-90,15 L-73,12 L-63,7 L-57,2 L-50,24 L-42,39 L-37,45 L-28,51 L-18,54 L-5,53 L8,49 L13,44 L15,41 L15,18 L9,8 L0,2 Z " fill="#000000" transform="translate(348,405)"/>
<path d="M0,0 L8,1 L30,2 L41,6 L47,9 L47,11 L33,16 L24,22 L19,26 L12,37 L9,48 L9,72 L7,72 L-1,58 L-5,45 L-6,40 L-6,20 L-2,5 Z " fill="#000000" transform="translate(458,121)"/>
</svg>
