<?xml version="1.0" encoding="UTF-8"?>
<!-- Generator: visioncortex VTracer 0.6.4 -->
<svg version="1.1" xmlns="http://www.w3.org/2000/svg" width="502" height="500">
<path d="M0,0 L38,1 L176,5 L260,8 L260,269 L253,263 L248,258 L248,256 L246,256 L239,248 L219,228 L219,226 L217,226 L210,218 L191,199 L184,191 L163,170 L165,174 L172,186 L182,210 L187,225 L192,248 L194,265 L194,302 L192,319 L187,342 L180,363 L172,381 L164,395 L157,406 L145,422 L130,438 L115,452 L97,465 L78,476 L59,485 L32,494 L7,499 L0,500 L-48,500 L-72,496 L-94,490 L-114,482 L-130,474 L-144,466 L-163,452 L-176,440 L-180,437 L-180,435 L-182,435 L-189,427 L-200,414 L-213,394 L-224,373 L-233,350 L-239,327 L-242,308 L-242,260 L-238,236 L-232,215 L-226,199 L-216,178 L-206,162 L-194,146 L-183,134 L-168,119 L-155,109 L-137,97 L-114,85 L-93,77 L-75,72 L-55,68 L-47,67 L-1,67 L23,71 L42,76 L61,83 L80,92 L95,101 L98,102 L75,79 L75,77 L72,76 L65,68 L46,49 L46,47 L43,46 L36,38 L15,17 L8,9 L0,1 Z M100,104 Z M-33,105 L-53,107 L-71,111 L-90,117 L-106,124 L-123,134 L-139,146 L-147,153 L-147,154 L-142,155 L-4,156 L100,156 L95,150 L81,139 L66,129 L41,117 L15,109 L-3,106 L-16,105 Z M101,105 Z M102,106 Z M100,156 Z M-153,159 L-161,167 L-171,180 L-182,198 L-190,214 L-198,236 L-203,261 L-204,273 L-204,296 L-202,313 L-198,332 L-192,350 L-181,373 L-172,387 L-162,400 L-155,408 L-154,408 L-153,347 L-152,247 L-152,159 Z M107,163 L107,232 L108,404 L114,399 L127,381 L137,363 L145,344 L151,324 L154,307 L155,293 L155,275 L153,256 L149,238 L143,219 L136,203 L126,186 L117,174 L108,163 Z M158,164 Z M159,165 Z M160,166 L161,168 Z M-152,410 L-146,417 L-130,430 L-113,441 L-94,450 L-74,457 L-57,461 L-42,463 L-20,464 L1,462 L21,458 L45,450 L61,442 L75,434 L92,421 L100,414 L100,413 L66,412 L-97,410 Z " fill="#000000" transform="translate(242,0)"/>
</svg>
