<?xml version="1.0" encoding="UTF-8"?>
<!-- Generator: visioncortex VTracer 0.6.4 -->
<svg version="1.1" xmlns="http://www.w3.org/2000/svg" width="506" height="500">
<path d="M0,0 L2,0 L14,36 L19,51 L19,54 L36,56 L56,61 L62,63 L64,59 L69,56 L76,55 L83,57 L89,64 L90,66 L90,76 L95,78 L111,88 L121,96 L127,95 L175,71 L179,70 L179,72 L177,72 L175,78 L152,124 L153,129 L160,138 L168,151 L169,155 L178,154 L184,157 L190,164 L191,171 L188,179 L183,184 L188,201 L192,225 L202,229 L254,246 L253,249 L216,261 L192,269 L187,294 L183,308 L188,314 L190,319 L189,327 L182,335 L177,337 L171,337 L165,346 L158,357 L152,366 L162,385 L182,425 L182,428 L122,398 L118,399 L104,409 L92,416 L90,416 L90,424 L86,430 L81,434 L72,435 L64,431 L60,430 L37,436 L22,438 L19,449 L6,489 L2,500 L0,500 L-12,464 L-20,441 L-20,438 L-32,437 L-54,432 L-64,429 L-66,433 L-71,436 L-82,436 L-89,431 L-92,425 L-92,416 L-103,410 L-117,400 L-121,398 L-140,408 L-178,427 L-180,427 L-178,421 L-152,369 L-152,366 L-163,350 L-170,339 L-170,336 L-172,337 L-181,336 L-188,330 L-190,326 L-190,316 L-186,310 L-184,306 L-189,289 L-192,270 L-193,268 L-250,249 L-252,248 L-252,246 L-203,230 L-192,227 L-191,213 L-186,192 L-184,184 L-191,176 L-192,167 L-189,160 L-184,156 L-179,154 L-170,154 L-162,140 L-150,124 L-152,118 L-163,96 L-173,77 L-178,67 L-177,65 L-121,93 L-117,92 L-104,83 L-92,76 L-92,67 L-88,61 L-83,57 L-81,56 L-72,56 L-65,60 L-62,63 L-41,57 L-23,54 L-17,54 L-15,44 L-3,8 Z M-8,119 L-2,126 L40,168 L42,168 L41,170 L31,164 L16,157 L-2,152 L-15,150 L-43,150 L-60,153 L-78,159 L-95,169 L-107,178 L-119,189 L-127,198 L-135,211 L-143,228 L-149,248 L-151,258 L-151,284 L-148,301 L-143,317 L-136,333 L-129,344 L-121,354 L-112,364 L-99,375 L-94,379 L-75,387 L-67,390 L-52,394 L-38,396 L-12,396 L7,392 L26,385 L40,377 L53,367 L64,357 L75,342 L84,326 L90,312 L95,291 L96,281 L96,265 L92,242 L89,232 L82,216 L77,208 L76,205 L79,208 L81,208 L83,212 L97,226 L104,234 L131,261 L132,261 L132,120 L122,119 Z " fill="#000000" transform="translate(252,0)"/>
<path d="M0,0 L4,2 L12,13 L18,25 L23,41 L25,53 L25,79 L22,95 L18,108 L10,125 L1,137 L-1,137 L-1,86 Z " fill="#000000" transform="translate(297,204)"/>
<path d="M0,0 L2,0 L2,51 L1,138 L-2,137 L-11,125 L-19,108 L-23,93 L-24,85 L-24,58 L-21,41 L-15,24 L-8,11 Z " fill="#000000" transform="translate(152,205)"/>
<path d="M0,0 L99,1 L137,2 L137,4 L125,13 L111,20 L98,24 L88,26 L67,27 L49,25 L33,21 L15,13 L2,4 Z " fill="#000000" transform="translate(157,344)"/>
<path d="M0,0 L21,0 L39,3 L57,9 L74,18 L83,25 L83,27 L-44,25 L-55,25 L-53,21 L-42,13 L-25,5 L-8,1 Z " fill="#000000" transform="translate(211,176)"/>
</svg>
