<?xml version="1.0" encoding="UTF-8"?>
<!-- Generator: visioncortex VTracer 0.6.4 -->
<svg version="1.1" xmlns="http://www.w3.org/2000/svg" width="500" height="500">
<path d="M0,0 L24,0 L46,2 L67,6 L93,14 L108,20 L124,28 L137,36 L140,37 L140,39 L145,41 L150,44 L155,49 L168,59 L173,64 L173,66 L177,68 L177,70 L181,72 L186,77 L197,91 L204,100 L205,104 L207,104 L213,115 L219,125 L228,145 L232,156 L238,176 L243,203 L244,216 L244,249 L242,269 L237,292 L232,308 L226,324 L219,340 L217,340 L214,349 L212,349 L212,353 L210,353 L208,359 L206,359 L204,364 L194,377 L194,379 L189,384 L185,386 L183,391 L174,399 L169,404 L166,405 L164,409 L148,421 L141,426 L139,426 L139,428 L129,433 L127,433 L127,435 L118,438 L118,440 L108,444 L91,451 L69,458 L49,462 L29,464 L-5,464 L-24,462 L-47,457 L-67,451 L-80,446 L-96,438 L-104,434 L-123,422 L-123,420 L-126,420 L-130,416 L-139,409 L-145,404 L-149,400 L-149,398 L-153,396 L-153,394 L-157,392 L-157,390 L-161,388 L-173,373 L-173,371 L-176,370 L-182,360 L-182,358 L-184,358 L-191,346 L-192,341 L-194,341 L-198,333 L-203,320 L-207,310 L-212,294 L-217,273 L-219,259 L-220,240 L-220,220 L-218,197 L-213,173 L-206,150 L-202,141 L-194,124 L-186,110 L-184,106 L-182,106 L-181,101 L-179,101 L-177,97 L-174,92 L-172,92 L-172,89 L-170,87 L-164,80 L-155,70 L-152,67 L-150,67 L-148,63 L-134,51 L-130,47 L-127,47 L-127,45 L-122,42 L-116,38 L-114,38 L-114,36 L-103,30 L-86,21 L-66,13 L-43,6 L-22,2 Z M8,27 L-11,28 L-38,33 L-60,40 L-81,49 L-94,57 L-97,58 L-97,60 L-102,62 L-110,67 L-114,71 L-124,79 L-134,88 L-144,99 L-151,108 L-151,110 L-153,110 L-155,113 L-155,116 L-157,116 L-160,121 L-160,123 L-162,123 L-168,135 L-176,150 L-182,165 L-188,186 L-192,209 L-193,235 L-192,255 L-188,278 L-181,302 L-176,314 L-169,329 L-167,329 L-165,335 L-157,348 L-155,348 L-154,353 L-150,357 L-143,366 L-140,367 L-139,371 L-126,384 L-112,395 L-103,402 L-90,410 L-87,410 L-87,412 L-66,422 L-42,430 L-25,434 L-13,436 L1,437 L23,437 L43,435 L67,430 L85,424 L101,417 L118,408 L133,398 L133,396 L138,394 L151,383 L157,376 L165,369 L176,355 L178,350 L180,350 L186,340 L186,338 L188,338 L198,319 L203,306 L206,300 L210,286 L214,268 L216,257 L217,243 L217,221 L215,201 L210,177 L205,162 L202,155 L197,143 L192,133 L190,133 L189,128 L178,111 L174,107 L167,98 L158,88 L150,80 L136,69 L127,62 L105,49 L82,39 L58,32 L35,28 Z " fill="#000000" transform="translate(238,18)"/>
<path d="M0,0 L51,0 L68,1 L88,5 L105,10 L117,14 L138,23 L155,32 L169,41 L173,43 L177,47 L188,55 L205,71 L213,79 L215,80 L218,85 L227,95 L231,101 L231,103 L233,103 L237,109 L237,111 L239,112 L239,115 L241,115 L245,122 L255,141 L264,162 L269,177 L274,196 L277,213 L277,285 L273,308 L268,327 L264,339 L259,351 L254,362 L246,376 L242,384 L240,384 L238,389 L234,396 L232,396 L230,401 L224,409 L222,409 L221,413 L216,418 L195,439 L184,448 L175,455 L173,455 L173,457 L166,461 L161,463 L161,465 L150,471 L135,479 L117,486 L109,489 L93,494 L71,499 L63,500 L-7,500 L-31,496 L-52,490 L-69,484 L-96,471 L-105,465 L-114,460 L-126,451 L-136,443 L-151,429 L-159,421 L-161,420 L-164,415 L-173,405 L-177,399 L-177,397 L-179,397 L-183,391 L-183,389 L-185,388 L-185,385 L-187,385 L-191,378 L-201,359 L-207,346 L-218,313 L-222,291 L-223,276 L-223,225 L-222,209 L-217,185 L-214,174 L-211,164 L-206,152 L-199,137 L-196,131 L-194,130 L-192,123 L-190,123 L-188,117 L-184,110 L-182,110 L-180,105 L-177,100 L-172,95 L-167,88 L-165,88 L-164,84 L-156,77 L-149,69 L-140,61 L-137,58 L-135,58 L-134,55 L-122,46 L-120,46 L-120,44 L-110,38 L-108,38 L-108,36 L-82,22 L-58,12 L-38,6 L-14,1 Z M6,15 L-16,18 L-41,24 L-58,30 L-76,38 L-93,47 L-107,56 L-117,64 L-124,69 L-125,71 L-129,73 L-133,78 L-141,85 L-148,93 L-151,95 L-152,98 L-155,100 L-155,103 L-159,105 L-165,114 L-167,116 L-167,119 L-169,119 L-174,127 L-174,130 L-176,130 L-186,149 L-194,167 L-201,189 L-205,207 L-208,229 L-209,251 L-207,281 L-203,303 L-196,328 L-191,339 L-186,352 L-181,361 L-173,375 L-168,383 L-166,383 L-164,388 L-155,400 L-153,400 L-151,405 L-146,410 L-131,425 L-126,430 L-106,445 L-90,455 L-87,455 L-87,457 L-71,465 L-48,474 L-27,480 L-6,484 L16,486 L38,486 L60,484 L85,479 L105,473 L125,465 L141,457 L159,446 L159,444 L163,443 L175,434 L175,432 L179,431 L184,426 L196,415 L203,407 L207,402 L209,401 L209,398 L213,396 L219,387 L221,385 L221,382 L223,382 L228,374 L228,371 L230,371 L240,352 L244,344 L250,328 L255,312 L259,294 L262,274 L263,260 L263,240 L261,218 L257,196 L253,182 L247,164 L242,153 L234,136 L232,136 L231,131 L221,116 L219,115 L217,110 L209,100 L204,95 L195,85 L185,75 L177,68 L165,59 L163,59 L163,57 L152,50 L131,38 L112,30 L98,25 L76,19 L59,16 L48,15 Z " fill="#000000" transform="translate(223,0)"/>
<path d="M0,0 L3,0 L8,13 L14,30 L17,37 L23,54 L24,59 L19,58 L10,53 L9,120 L9,142 L20,144 L27,147 L30,142 L32,142 L34,137 L37,131 L39,131 L41,126 L44,121 L46,120 L48,115 L55,104 L58,99 L60,99 L62,94 L65,88 L67,88 L69,83 L73,77 L58,76 L59,72 L61,72 L61,70 L75,60 L86,52 L98,43 L101,40 L105,38 L109,38 L107,50 L99,85 L96,100 L93,100 L86,86 L86,88 L84,88 L82,93 L81,95 L79,95 L77,101 L74,106 L72,106 L70,111 L67,116 L65,117 L63,122 L56,133 L53,138 L51,138 L49,143 L46,149 L44,149 L43,154 L41,154 L42,158 L51,171 L55,181 L57,191 L57,202 L54,216 L50,226 L42,237 L40,237 L39,240 L36,240 L35,243 L18,251 L9,253 L8,254 L8,342 L18,335 L22,335 L21,342 L15,359 L9,375 L3,390 L2,394 L-2,393 L-7,379 L-11,369 L-17,353 L-22,340 L-22,335 L-17,336 L-8,342 L-8,252 L-16,251 L-26,247 L-28,251 L-30,251 L-32,256 L-36,261 L-40,268 L-42,272 L-44,272 L-46,278 L-49,283 L-51,283 L-53,288 L-56,294 L-58,294 L-60,299 L-69,313 L-71,316 L-56,317 L-57,321 L-62,325 L-64,325 L-64,327 L-75,334 L-76,336 L-79,336 L-79,338 L-90,345 L-91,347 L-94,347 L-94,349 L-104,356 L-107,356 L-106,346 L-99,314 L-95,296 L-91,294 L-86,307 L-85,308 L-84,305 L-82,305 L-80,300 L-77,294 L-75,294 L-73,289 L-66,278 L-65,276 L-63,276 L-61,271 L-56,263 L-55,260 L-53,260 L-51,256 L-46,247 L-43,242 L-41,242 L-40,236 L-44,231 L-44,229 L-46,229 L-53,215 L-55,206 L-55,190 L-52,178 L-48,169 L-46,165 L-44,165 L-43,160 L-32,151 L-20,145 L-7,141 L-7,52 L-15,57 L-17,57 L-17,59 L-21,59 L-20,51 L-13,33 L-6,15 L-1,1 Z M9,170 L8,176 L10,176 L10,173 L12,173 L11,170 Z M-8,170 L-14,173 L-22,180 L-26,187 L-28,195 L-27,204 L-24,212 L-20,210 L-20,191 L-16,183 L-11,179 L-7,177 L-6,170 Z M23,181 L21,184 L22,193 L22,202 L17,212 L12,216 L7,219 L7,224 L9,225 L17,221 L23,216 L27,209 L29,204 L29,190 L25,181 Z M-9,218 L-10,222 L-12,223 L-7,224 L-7,218 Z " fill="#000000" transform="translate(250,53)"/>
</svg>
