<?xml version="1.0" encoding="UTF-8"?>
<!-- Generator: visioncortex VTracer 0.6.4 -->
<svg version="1.1" xmlns="http://www.w3.org/2000/svg" width="500" height="500">
<path d="M0,0 L2,0 L10,25 L19,53 L19,56 L23,57 L24,58 L24,64 L37,65 L57,70 L61,68 L66,64 L69,63 L76,63 L82,66 L86,71 L88,79 L88,83 L99,89 L111,97 L118,102 L126,99 L148,87 L165,78 L177,72 L179,72 L177,78 L165,101 L155,120 L149,131 L151,136 L159,146 L169,164 L177,164 L183,167 L187,171 L189,176 L189,183 L185,190 L182,193 L184,203 L188,222 L189,229 L220,239 L248,248 L251,249 L251,251 L226,259 L191,270 L189,271 L185,294 L181,308 L187,315 L189,322 L186,331 L180,336 L177,337 L168,337 L166,342 L159,354 L151,365 L149,369 L164,398 L174,417 L179,427 L176,427 L160,419 L133,405 L119,398 L102,410 L88,418 L88,425 L84,433 L76,438 L69,438 L63,435 L59,431 L52,432 L29,437 L22,438 L12,469 L3,498 L2,500 L0,500 L-8,475 L-19,440 L-20,438 L-42,434 L-53,431 L-58,432 L-63,436 L-65,437 L-75,437 L-81,433 L-84,430 L-86,422 L-86,418 L-100,410 L-114,400 L-118,398 L-132,406 L-148,414 L-164,422 L-176,428 L-175,423 L-166,406 L-158,390 L-147,369 L-151,362 L-155,357 L-163,344 L-166,339 L-166,337 L-176,337 L-184,330 L-186,321 L-184,314 L-179,308 L-184,290 L-187,271 L-218,261 L-246,252 L-249,251 L-249,249 L-224,241 L-189,230 L-187,229 L-183,207 L-180,196 L-181,191 L-185,186 L-186,183 L-186,176 L-183,170 L-177,165 L-168,164 L-165,160 L-156,145 L-147,133 L-149,127 L-167,92 L-176,75 L-175,72 L-142,89 L-123,99 L-118,102 L-113,100 L-110,97 L-110,90 L-108,88 L-102,88 L-98,90 L-88,84 L-86,83 L-85,73 L-81,67 L-73,63 L-64,64 L-59,67 L-59,69 L-57,69 L-57,71 L-44,67 L-22,63 L-19,63 L-17,53 L-1,2 Z M11,51 L5,59 L-6,70 L-19,78 L-32,82 L-44,82 L-56,78 L-64,73 L-61,82 L-60,84 L-57,84 L-58,86 L-69,84 L-77,80 L-75,86 L-70,93 L-67,93 L-67,96 L-78,98 L-96,98 L-103,96 L-103,101 L-99,105 L-100,109 L-103,111 L-111,112 L-107,117 L-100,121 L-89,123 L-83,130 L-80,132 L-77,132 L-78,120 L-76,118 L-69,119 L-52,126 L-49,116 L-47,113 L-35,112 L-8,112 L9,115 L27,121 L37,126 L39,126 L37,117 L29,101 L26,96 L36,97 L29,86 L26,83 L15,82 L19,71 L19,64 L7,69 L7,66 L11,65 L13,56 L12,51 Z M26,76 Z M27,77 L33,85 L40,94 L47,106 L47,108 L39,104 L36,104 L39,114 L44,129 L63,139 L77,148 L90,158 L97,165 L110,182 L119,198 L126,216 L130,235 L131,252 L130,269 L125,292 L119,307 L109,324 L99,337 L90,347 L79,357 L64,367 L47,375 L27,381 L15,383 L-7,384 L-24,383 L-41,380 L-57,375 L-80,364 L-97,352 L-110,340 L-119,330 L-129,315 L-137,300 L-143,283 L-143,260 L-139,241 L-138,236 L-145,242 L-148,243 L-148,233 L-144,215 L-137,199 L-129,186 L-121,176 L-111,165 L-101,157 L-83,146 L-65,138 L-44,133 L-44,132 L-57,128 L-68,123 L-73,123 L-72,132 L-69,137 L-78,136 L-86,132 L-91,128 L-96,129 L-115,141 L-128,151 L-135,158 L-144,169 L-154,184 L-162,200 L-167,214 L-171,233 L-172,242 L-172,264 L-169,285 L-164,304 L-158,320 L-148,339 L-139,352 L-130,363 L-116,377 L-103,387 L-82,399 L-62,407 L-43,412 L-26,415 L-13,416 L7,416 L27,413 L50,407 L69,400 L85,392 L99,384 L115,372 L123,365 L130,357 L138,349 L148,336 L157,320 L163,307 L169,289 L173,268 L174,258 L174,242 L170,216 L164,193 L156,174 L147,157 L136,142 L125,130 L114,119 L101,109 L87,100 L66,89 L45,81 L31,77 Z M-78,79 Z M-104,95 Z M36,97 Z M35,103 Z M-43,115 L-46,117 L-46,122 L-43,127 L-42,131 L-44,132 L-17,132 L2,135 L19,140 L38,149 L50,157 L60,166 L63,167 L65,171 L72,179 L80,192 L86,208 L89,221 L90,224 L82,220 L77,220 L82,225 L88,232 L92,242 L91,256 L87,274 L80,290 L74,300 L67,309 L57,319 L43,329 L29,336 L15,340 L-4,342 L-24,340 L-35,337 L-39,337 L-39,335 L-4,335 L-4,319 L-1,312 L4,307 L13,304 L10,302 L7,301 L-8,301 L-21,305 L-31,310 L-39,314 L-58,319 L-70,319 L-79,315 L-88,308 L-95,298 L-96,302 L-90,320 L-82,336 L-73,349 L-64,358 L-49,369 L-34,376 L-25,379 L-15,381 L5,381 L13,379 L10,377 L6,374 L4,374 L2,370 L-4,360 L-6,356 L-18,355 L-31,350 L-41,344 L-22,348 L-10,350 L3,350 L19,348 L34,344 L49,338 L59,332 L68,325 L78,315 L86,305 L96,298 L99,296 L96,295 L98,285 L104,271 L107,257 L108,247 L108,234 L106,222 L104,215 L104,196 L98,198 L95,188 L86,174 L76,161 L67,151 L57,142 L39,131 L23,124 L5,119 L-4,117 L-26,115 Z M39,126 Z M-77,132 Z M-32,134 L-43,142 L-44,147 L-50,148 L-62,144 L-60,150 L-55,156 L-53,157 L-50,167 L-46,174 L-44,170 L-41,161 L-34,152 L-24,144 L-13,138 L-13,136 L-23,134 Z M-63,143 Z M101,295 Z M-97,296 L-96,298 Z " fill="#000000" transform="translate(249,0)"/>
<path d="M0,0 L18,0 L24,2 L24,4 L10,5 L10,7 L8,7 L8,9 L0,13 L-8,11 L-12,7 L-11,4 Z " fill="#000000" transform="translate(224,89)"/>
</svg>
