<?xml version="1.0" encoding="UTF-8"?>
<!-- Generator: visioncortex VTracer 0.6.4 -->
<svg version="1.1" xmlns="http://www.w3.org/2000/svg" width="506" height="500">
<path d="M0,0 L2,0 L15,40 L19,52 L19,54 L31,55 L53,60 L61,62 L68,56 L71,55 L78,55 L77,53 L77,47 L81,43 L86,41 L94,39 L108,30 L113,32 L126,42 L131,46 L135,44 L140,39 L144,36 L150,35 L154,38 L160,33 L165,34 L174,43 L184,47 L182,51 L176,59 L179,62 L180,67 L175,78 L179,94 L182,101 L200,110 L200,112 L180,113 L179,119 L173,128 L170,135 L165,139 L161,140 L167,149 L169,155 L171,154 L178,154 L184,157 L190,164 L190,176 L185,183 L183,185 L187,198 L191,217 L191,226 L202,229 L238,241 L254,246 L254,248 L235,255 L195,268 L191,269 L190,281 L185,302 L184,309 L188,313 L190,319 L189,326 L185,332 L180,336 L170,338 L161,353 L152,365 L161,384 L169,400 L177,416 L182,425 L182,427 L176,425 L122,398 L117,400 L103,410 L91,417 L89,427 L81,434 L78,435 L70,435 L64,431 L61,430 L38,436 L22,439 L9,479 L2,500 L0,500 L-14,459 L-20,440 L-20,438 L-28,438 L-48,434 L-61,430 L-65,432 L-71,436 L-82,436 L-88,432 L-91,428 L-93,416 L-107,408 L-119,399 L-124,400 L-136,406 L-137,409 L-134,416 L-134,422 L-137,428 L-145,429 L-155,438 L-163,443 L-175,443 L-179,442 L-190,450 L-197,450 L-200,447 L-200,437 L-197,430 L-195,429 L-196,422 L-196,413 L-192,406 L-185,396 L-184,389 L-182,389 L-181,382 L-167,380 L-159,375 L-154,370 L-152,366 L-162,353 L-170,339 L-170,337 L-179,337 L-186,333 L-190,326 L-191,319 L-188,312 L-184,307 L-188,294 L-193,268 L-236,254 L-251,249 L-252,246 L-209,232 L-194,227 L-192,227 L-192,219 L-187,194 L-184,185 L-191,177 L-192,175 L-192,166 L-188,159 L-180,154 L-172,154 L-170,155 L-168,150 L-161,138 L-151,125 L-150,123 L-178,67 L-177,65 L-127,90 L-121,93 L-116,91 L-106,84 L-93,76 L-92,67 L-89,61 L-81,56 L-72,56 L-64,61 L-64,63 L-42,57 L-24,54 L-17,54 L-16,48 L-2,5 Z M107,38 L94,46 L84,48 L83,51 L83,57 L78,66 L75,69 L80,75 L82,85 L81,95 L75,104 L66,114 L60,138 L58,139 L56,138 L50,138 L44,145 L42,152 L41,161 L34,163 L33,168 L33,175 L31,178 L22,180 L16,183 L10,182 L8,180 L7,185 L11,188 L11,193 L5,202 L6,208 L2,210 L-7,221 L-20,236 L-29,246 L-29,248 L-31,248 L-40,259 L-54,274 L-58,279 L-58,281 L-60,280 L-67,280 L-77,287 L-83,288 L-87,287 L-87,285 L-90,286 L-89,289 L-87,289 L-86,296 L-90,304 L-90,309 L-88,313 L-99,325 L-104,331 L-104,333 L-106,333 L-115,344 L-126,356 L-131,362 L-131,364 L-133,364 L-138,369 L-144,372 L-149,374 L-156,381 L-165,386 L-178,389 L-179,397 L-182,403 L-190,414 L-189,423 L-188,431 L-193,435 L-194,444 L-189,442 L-183,437 L-181,436 L-175,436 L-173,437 L-165,437 L-159,433 L-149,424 L-140,421 L-141,416 L-143,411 L-142,405 L-136,397 L-131,391 L-131,384 L-117,370 L-106,356 L-93,340 L-82,328 L-76,323 L-66,323 L-56,319 L-49,321 L-47,315 L-50,312 L-49,306 L-47,300 L-47,293 L-48,291 L-44,289 L-44,287 L-42,287 L-33,276 L-26,269 L-21,263 L-18,262 L-6,246 L3,236 L12,227 L25,218 L33,214 L39,214 L40,212 L40,203 L45,193 L45,188 L50,187 L55,189 L60,189 L59,182 L63,179 L73,176 L81,169 L84,164 L86,158 L100,156 L108,145 L116,139 L127,134 L140,131 L160,131 L164,133 L167,126 L173,118 L176,109 L179,106 L175,102 L170,84 L168,82 L152,81 L153,71 L157,72 L160,78 L164,77 L173,68 L172,64 L163,60 L164,57 L174,52 L169,47 L163,40 L159,42 L157,48 L151,48 L149,42 L143,44 L134,54 L137,56 L142,59 L141,63 L136,65 L131,55 L123,47 L110,38 Z " fill="#000000" transform="translate(252,0)"/>
<path d="M0,0 L10,0 L18,5 L20,7 L20,13 L16,19 L10,24 L0,27 L-2,19 L-9,17 L-10,16 L-9,8 L-4,2 Z " fill="#000000" transform="translate(389,92)"/>
<path d="M0,0 L9,0 L15,7 L17,11 L16,21 L13,27 L10,29 L3,30 L1,28 L2,20 L-2,21 L-6,22 L-9,20 L-9,11 L-4,3 Z M2,6 L-2,10 L-2,13 L6,16 L8,22 L10,19 L11,12 L8,7 Z " fill="#000000" transform="translate(354,59)"/>
<path d="M0,0 L2,1 L2,8 L-2,12 L-9,12 L-9,9 L-7,9 L-5,4 Z " fill="#000000" transform="translate(323,158)"/>
<path d="M0,0 L3,1 L2,5 L-2,10 L-5,9 L-4,2 Z " fill="#000000" transform="translate(307,146)"/>
<path d="M0,0 L7,1 L7,5 L1,6 L0,5 Z " fill="#000000" transform="translate(386,74)"/>
</svg>
