<?xml version="1.0" encoding="UTF-8"?>
<!-- Generator: visioncortex VTracer 0.6.4 -->
<svg version="1.1" xmlns="http://www.w3.org/2000/svg" width="500" height="541">
<path d="M0,0 L6,1 L17,8 L26,15 L30,20 L38,23 L37,31 L38,33 L45,32 L47,30 L42,24 L37,20 L37,18 L39,18 L41,14 L45,9 L51,5 L55,5 L61,12 L65,13 L69,9 L71,2 L74,2 L80,10 L87,14 L91,15 L91,18 L81,24 L77,28 L77,31 L89,35 L90,39 L83,47 L81,47 L79,51 L73,57 L70,57 L68,45 L63,48 L62,49 L62,56 L64,58 L71,58 L81,55 L84,54 L87,67 L90,70 L93,70 L91,77 L91,85 L95,89 L97,89 L97,92 L95,92 L93,96 L90,104 L89,109 L82,115 L80,119 L79,125 L41,125 L29,127 L11,137 L2,144 L-7,156 L-14,159 L-29,159 L-28,166 L-33,176 L-38,181 L-45,187 L-55,191 L-61,191 L-63,193 L-63,199 L-63,203 L-68,204 L-73,200 L-78,202 L-81,206 L-87,219 L-88,223 L-88,230 L-87,236 L-100,238 L-112,243 L-126,253 L-134,261 L-136,261 L-138,265 L-148,276 L-161,295 L-168,302 L-169,304 L-171,304 L-171,306 L-173,306 L-175,310 L-178,311 L-178,313 L-180,313 L-182,317 L-190,325 L-192,325 L-194,329 L-197,330 L-197,332 L-199,332 L-200,335 L-202,335 L-202,337 L-204,337 L-205,340 L-204,342 L-204,350 L-208,358 L-208,366 L-205,370 L-205,373 L-207,373 L-209,377 L-213,380 L-217,377 L-224,378 L-229,383 L-237,384 L-244,382 L-257,397 L-272,413 L-279,421 L-293,436 L-305,449 L-316,461 L-317,472 L-326,482 L-328,482 L-330,486 L-333,491 L-334,501 L-331,510 L-329,510 L-329,512 L-340,516 L-346,520 L-354,530 L-360,534 L-366,536 L-373,535 L-377,532 L-377,530 L-383,530 L-393,537 L-401,541 L-403,541 L-402,532 L-398,526 L-395,524 L-396,516 L-398,513 L-398,504 L-393,494 L-387,489 L-383,480 L-382,469 L-368,467 L-357,463 L-351,458 L-347,451 L-341,447 L-330,444 L-322,436 L-315,428 L-303,415 L-296,407 L-284,393 L-272,380 L-265,372 L-262,367 L-264,361 L-264,355 L-262,351 L-259,348 L-259,341 L-265,333 L-265,328 L-262,327 L-253,333 L-247,333 L-238,326 L-228,322 L-220,322 L-211,311 L-199,297 L-187,283 L-178,273 L-169,262 L-158,250 L-149,239 L-138,227 L-136,217 L-129,208 L-130,202 L-134,197 L-135,192 L-130,191 L-127,192 L-119,192 L-112,188 L-105,188 L-100,185 L-99,177 L-100,175 L-100,167 L-96,164 L-90,164 L-87,152 L-84,142 L-78,134 L-76,133 L-69,133 L-63,136 L-58,111 L-54,102 L-47,91 L-39,83 L-35,77 L-33,71 L-33,62 L-37,51 L-45,41 L-45,39 L-40,37 L-36,32 L-33,22 L-32,13 L-25,12 L-21,6 L-6,5 L-1,2 Z M-4,28 L-11,36 L-15,46 L-16,50 L-16,59 L-12,57 L-6,58 L-4,66 L2,66 L13,60 L14,56 L14,40 L10,33 L2,28 Z M41,48 L37,52 L38,56 L43,57 L45,56 L46,52 L42,48 Z M44,73 L34,77 L31,81 L29,89 L29,94 L30,95 L39,96 L40,103 L40,106 L50,103 L58,98 L63,93 L66,90 L67,83 L61,76 L55,73 Z M-73,147 L-77,151 L-78,155 L-74,157 L-68,150 L-69,147 Z M-48,163 L-55,170 L-56,174 L-51,174 L-46,170 L-46,164 Z " fill="#000000" transform="translate(403,0)"/>
</svg>
