<?xml version="1.0" encoding="UTF-8"?>
<!-- Generator: visioncortex VTracer 0.6.4 -->
<svg version="1.1" xmlns="http://www.w3.org/2000/svg" width="500" height="929">
<path d="M0,0 L20,1 L36,5 L52,13 L56,17 L56,19 L58,19 L64,27 L68,35 L68,47 L65,56 L59,65 L50,74 L48,74 L48,76 L32,84 L23,86 L40,95 L49,102 L55,109 L59,113 L67,126 L71,137 L72,153 L71,165 L69,171 L66,185 L58,202 L50,213 L45,217 L43,220 L41,220 L41,222 L33,229 L23,235 L16,238 L8,242 L-11,247 L-32,252 L-48,254 L-61,256 L-74,260 L-82,266 L-85,271 L-86,281 L-81,290 L-72,296 L-66,318 L-57,341 L-52,351 L-48,358 L-43,365 L-42,370 L-55,370 L-69,369 L-93,363 L-109,356 L-118,350 L-120,351 L-115,357 L-107,373 L-101,390 L-96,409 L-93,420 L-90,436 L-84,461 L-78,473 L-70,484 L-68,485 L-68,487 L-63,489 L-57,493 L-40,501 L-26,506 L-13,509 L-5,510 L22,510 L41,507 L65,500 L80,494 L91,488 L102,480 L115,469 L120,464 L131,452 L137,439 L139,433 L138,425 L135,413 L129,403 L120,393 L109,385 L97,379 L88,376 L76,371 L68,370 L50,367 L27,367 L30,357 L36,341 L42,331 L45,328 L47,328 L47,325 L33,325 L16,322 L5,316 L0,311 L-7,303 L-14,289 L-14,287 L-9,285 L16,281 L55,279 L69,279 L96,281 L111,285 L128,291 L140,296 L158,306 L171,315 L179,321 L184,325 L191,333 L201,345 L212,363 L220,379 L224,388 L227,396 L230,420 L230,440 L228,456 L224,472 L216,488 L210,500 L200,515 L195,521 L193,521 L191,525 L178,537 L164,548 L153,555 L139,564 L128,570 L107,580 L92,587 L79,592 L63,595 L48,599 L18,601 L0,600 L-28,594 L-45,589 L-56,584 L-79,573 L-93,564 L-109,551 L-120,542 L-129,533 L-129,531 L-132,530 L-136,524 L-142,515 L-151,498 L-159,474 L-162,459 L-169,473 L-177,486 L-183,494 L-194,507 L-203,518 L-209,529 L-216,538 L-221,542 L-230,543 L-229,557 L-222,581 L-222,592 L-224,591 L-228,577 L-231,572 L-233,570 L-233,582 L-236,593 L-238,593 L-238,576 L-241,561 L-241,549 L-239,542 L-247,536 L-250,528 L-252,520 L-252,513 L-257,497 L-261,487 L-265,470 L-266,466 L-267,458 L-267,448 L-264,435 L-258,428 L-242,420 L-240,417 L-239,408 L-241,401 L-252,388 L-259,379 L-265,369 L-269,358 L-270,352 L-270,338 L-266,326 L-265,322 L-262,321 L-256,312 L-248,305 L-236,298 L-224,294 L-212,292 L-189,292 L-176,296 L-166,302 L-158,306 L-147,317 L-149,313 L-153,303 L-154,286 L-153,270 L-148,253 L-142,240 L-130,226 L-117,214 L-108,208 L-98,201 L-85,196 L-81,194 L-61,191 L-48,189 L-22,187 L-15,185 L-1,178 L5,170 L6,167 L6,160 L3,153 L2,150 L-3,148 L-9,145 L-16,143 L-27,142 L-27,129 L-23,101 L-21,91 L-19,77 L-13,58 L-4,55 L12,49 L24,42 L27,39 L28,32 L25,26 L19,22 L8,19 L1,18 L-20,18 L-53,25 L-69,31 L-85,39 L-95,45 L-100,50 L-95,51 L-95,53 L-86,52 L-68,55 L-69,61 L-75,92 L-79,116 L-82,144 L-85,167 L-92,173 L-109,186 L-118,192 L-128,197 L-138,202 L-156,208 L-174,210 L-186,210 L-198,208 L-210,204 L-217,201 L-226,198 L-234,193 L-237,192 L-237,195 L-245,198 L-256,200 L-261,200 L-261,198 L-248,193 L-242,189 L-242,186 L-247,181 L-253,174 L-260,160 L-263,147 L-264,133 L-262,118 L-258,106 L-251,94 L-248,88 L-241,78 L-227,67 L-220,61 L-207,55 L-187,50 L-181,49 L-139,47 L-127,48 L-117,48 L-114,44 L-111,44 L-110,41 L-97,31 L-82,22 L-66,14 L-50,8 L-32,3 L-22,1 L-8,1 Z M-142,101 L-145,106 L-151,116 L-157,123 L-157,125 L-161,127 L-165,132 L-165,134 L-169,136 L-179,145 L-181,146 L-180,149 L-167,148 L-149,140 L-135,131 L-126,124 L-111,113 L-99,107 L-96,106 L-96,104 L-106,103 L-116,102 Z M-162,103 L-165,105 L-174,107 L-186,112 L-195,119 L-198,124 L-198,136 L-194,143 L-191,145 L-187,145 L-181,138 L-178,136 L-178,134 L-176,134 L-168,124 L-165,121 L-158,112 L-157,109 L-155,108 L-154,103 Z M-207,348 L-213,350 L-216,357 L-212,370 L-206,380 L-205,383 L-203,383 L-201,387 L-190,399 L-181,412 L-178,421 L-173,426 L-166,432 L-165,434 L-163,434 L-168,400 L-172,384 L-177,371 L-183,361 L-192,352 L-201,348 Z M-242,474 L-246,479 L-250,486 L-249,494 L-247,497 L-245,497 L-243,502 L-240,502 L-238,479 L-237,475 Z M-201,481 L-206,486 L-208,495 L-213,504 L-215,508 L-211,510 L-204,507 L-199,502 L-198,492 L-199,482 Z " fill="#000000" transform="translate(270,154)"/>
<path d="M0,0 L7,0 L13,25 L22,45 L30,56 L35,62 L40,66 L57,71 L65,72 L64,75 L62,75 L61,85 L57,95 L53,109 L49,126 L44,144 L42,157 L39,169 L35,187 L32,203 L28,225 L25,237 L18,237 L5,233 L-3,230 L-2,219 L4,198 L10,174 L12,159 L14,121 L14,109 L13,100 L8,91 L3,88 L-6,91 L-12,81 L-19,63 L-28,38 L-27,33 L-29,33 L-34,12 L-34,7 L-19,3 Z " fill="#000000" transform="translate(234,416)"/>
<path d="M0,0 L5,1 L20,9 L32,15 L47,20 L63,24 L74,26 L73,29 L62,35 L59,38 L57,38 L55,42 L48,50 L40,66 L37,73 L35,74 L34,79 L29,93 L25,104 L19,120 L14,132 L4,155 L-5,174 L-12,189 L-14,190 L-16,196 L-21,195 L-26,193 L-26,191 L-28,191 L-28,189 L-32,187 L-36,184 L-36,182 L-40,180 L-40,178 L-44,176 L-57,158 L-60,152 L-59,148 L-46,148 L-32,141 L-22,132 L-18,126 L-17,123 L-15,123 L-13,118 L-7,104 L1,77 L5,55 L6,44 L4,27 L0,15 L-4,9 L-7,5 L-6,2 Z " fill="#000000" transform="translate(184,733)"/>
<path d="M0,0 L3,1 L6,8 L11,30 L13,49 L15,59 L17,86 L13,85 L1,85 L-8,88 L-13,91 L-16,91 L-16,93 L-23,99 L-24,101 L-26,101 L-26,103 L-29,106 L-32,113 L-36,117 L-36,119 L-38,119 L-41,129 L-43,133 L-45,133 L-46,139 L-48,140 L-51,146 L-60,148 L-78,150 L-85,151 L-89,150 L-89,145 L-84,133 L-77,116 L-75,110 L-67,93 L-64,87 L-64,85 L-61,85 L-59,77 L-52,67 L-49,62 L-47,62 L-46,57 L-40,49 L-35,42 L-33,42 L-31,37 L-22,26 L-10,12 L-3,4 Z " fill="#000000" transform="translate(317,0)"/>
<path d="M0,0 L4,0 L2,11 L-3,30 L-6,46 L-12,81 L-15,99 L-19,157 L-40,159 L-59,160 L-60,153 L-60,130 L-58,107 L-54,78 L-49,53 L-47,44 L-46,40 L-40,19 L-37,11 L-30,8 L-9,2 Z " fill="#000000" transform="translate(253,177)"/>
<path d="M0,0 Z " fill="#000000" transform="translate(278,122)"/>
</svg>
