<?xml version="1.0" encoding="UTF-8"?>
<svg version="1.1" xmlns="http://www.w3.org/2000/svg" width="500" height="552">
<path d="M0 0 C3.57097168 0.01077512 7.14144519 0.00000056 10.71240234 -0.01269531 C23.87598512 -0.01951088 36.758663 0.5112574 49.81005859 2.26074219 C49.81005859 2.59074219 49.81005859 2.92074219 49.81005859 3.26074219 C52.45005859 3.59074219 55.09005859 3.92074219 57.81005859 4.26074219 C57.81005859 4.92074219 57.81005859 5.58074219 57.81005859 6.26074219 C58.94443359 6.24011719 60.07880859 6.21949219 61.24755859 6.19824219 C64.81005859 6.26074219 64.81005859 6.26074219 65.81005859 7.26074219 C67.11225395 7.61372908 68.42787815 7.91760715 69.74755859 8.19824219 C70.54935547 8.3696875 71.35115234 8.54113281 72.17724609 8.71777344 C76.38429029 9.58539828 80.59488054 10.4335465 84.81005859 11.26074219 C84.81005859 11.59074219 84.81005859 11.92074219 84.81005859 12.26074219 C86.46005859 12.59074219 88.11005859 12.92074219 89.81005859 13.26074219 C89.81005859 13.92074219 89.81005859 14.58074219 89.81005859 15.26074219 C90.44943359 15.38449219 91.08880859 15.50824219 91.74755859 15.63574219 C95.78017135 16.45872438 99.79429766 17.35960194 103.81005859 18.26074219 C103.81005859 18.92074219 103.81005859 19.58074219 103.81005859 20.26074219 C105.13005859 20.26074219 106.45005859 20.26074219 107.81005859 20.26074219 C107.81005859 20.92074219 107.81005859 21.58074219 107.81005859 22.26074219 C108.35533203 22.38578125 108.90060547 22.51082031 109.46240234 22.63964844 C112.15996836 23.35331399 114.74761835 24.25183516 117.37255859 25.19824219 C118.79761719 25.70677734 118.79761719 25.70677734 120.25146484 26.22558594 C122.81005859 27.26074219 122.81005859 27.26074219 125.81005859 29.26074219 C125.81005859 29.92074219 125.81005859 30.58074219 125.81005859 31.26074219 C126.34630859 31.38449219 126.88255859 31.50824219 127.43505859 31.63574219 C132.75920586 33.03683357 136.72695315 34.41781942 140.81005859 38.26074219 C140.81005859 38.92074219 140.81005859 39.58074219 140.81005859 40.26074219 C141.38755859 40.38449219 141.96505859 40.50824219 142.56005859 40.63574219 C144.83341626 41.26723043 146.73541149 42.1493241 148.81005859 43.26074219 C148.81005859 43.92074219 148.81005859 44.58074219 148.81005859 45.26074219 C149.80005859 45.26074219 150.79005859 45.26074219 151.81005859 45.26074219 C151.81005859 45.92074219 151.81005859 46.58074219 151.81005859 47.26074219 C152.59380859 47.57011719 153.37755859 47.87949219 154.18505859 48.19824219 C156.81005859 49.26074219 156.81005859 49.26074219 158.81005859 50.26074219 C158.81005859 50.92074219 158.81005859 51.58074219 158.81005859 52.26074219 C159.80005859 52.26074219 160.79005859 52.26074219 161.81005859 52.26074219 C161.81005859 52.92074219 161.81005859 53.58074219 161.81005859 54.26074219 C162.47005859 54.26074219 163.13005859 54.26074219 163.81005859 54.26074219 C163.81005859 54.92074219 163.81005859 55.58074219 163.81005859 56.26074219 C165.13005859 56.59074219 166.45005859 56.92074219 167.81005859 57.26074219 C167.81005859 57.92074219 167.81005859 58.58074219 167.81005859 59.26074219 C168.80005859 59.26074219 169.79005859 59.26074219 170.81005859 59.26074219 C170.81005859 59.92074219 170.81005859 60.58074219 170.81005859 61.26074219 C171.47005859 61.26074219 172.13005859 61.26074219 172.81005859 61.26074219 C175.43505859 63.38574219 175.43505859 63.38574219 177.81005859 66.26074219 C178.12255859 69.57324219 178.12255859 69.57324219 177.81005859 72.26074219 C180.45005859 72.59074219 183.09005859 72.92074219 185.81005859 73.26074219 C185.81005859 73.92074219 185.81005859 74.58074219 185.81005859 75.26074219 C186.47005859 75.26074219 187.13005859 75.26074219 187.81005859 75.26074219 C188.14005859 76.58074219 188.47005859 77.90074219 188.81005859 79.26074219 C189.47005859 79.26074219 190.13005859 79.26074219 190.81005859 79.26074219 C192.43505859 80.63574219 192.43505859 80.63574219 193.81005859 82.26074219 C193.81005859 82.92074219 193.81005859 83.58074219 193.81005859 84.26074219 C194.47005859 84.26074219 195.13005859 84.26074219 195.81005859 84.26074219 C195.81005859 84.92074219 195.81005859 85.58074219 195.81005859 86.26074219 C196.47005859 86.26074219 197.13005859 86.26074219 197.81005859 86.26074219 C199.43505859 87.63574219 199.43505859 87.63574219 200.81005859 89.26074219 C200.81005859 89.92074219 200.81005859 90.58074219 200.81005859 91.26074219 C201.47005859 91.26074219 202.13005859 91.26074219 202.81005859 91.26074219 C204.09912109 92.72167969 204.09912109 92.72167969 205.43505859 94.63574219 C205.88107422 95.26222656 206.32708984 95.88871094 206.78662109 96.53417969 C207.81005859 98.26074219 207.81005859 98.26074219 207.81005859 100.26074219 C208.47005859 100.26074219 209.13005859 100.26074219 209.81005859 100.26074219 C210.24318359 101.21980469 210.24318359 101.21980469 210.68505859 102.19824219 C211.6382931 104.41280298 211.6382931 104.41280298 213.81005859 105.26074219 C218.17058062 112.26400483 218.17058062 112.26400483 218.81005859 116.26074219 C219.47005859 116.26074219 220.13005859 116.26074219 220.81005859 116.26074219 C220.81005859 116.92074219 220.81005859 117.58074219 220.81005859 118.26074219 C221.47005859 118.26074219 222.13005859 118.26074219 222.81005859 118.26074219 C223.14005859 119.91074219 223.47005859 121.56074219 223.81005859 123.26074219 C224.47005859 123.26074219 225.13005859 123.26074219 225.81005859 123.26074219 C227.2706871 125.90813135 227.81005859 127.15522553 227.81005859 130.26074219 C228.47005859 130.26074219 229.13005859 130.26074219 229.81005859 130.26074219 C229.81005859 131.25074219 229.81005859 132.24074219 229.81005859 133.26074219 C230.47005859 133.26074219 231.13005859 133.26074219 231.81005859 133.26074219 C233.64697116 137.042621 233.96843486 139.20642527 232.81005859 143.26074219 C234.13005859 143.59074219 235.45005859 143.92074219 236.81005859 144.26074219 C236.81005859 144.92074219 236.81005859 145.58074219 236.81005859 146.26074219 C237.47005859 146.26074219 238.13005859 146.26074219 238.81005859 146.26074219 C239.03693359 147.02386719 239.26380859 147.78699219 239.49755859 148.57324219 C240.98728243 152.75865678 242.85060303 156.67966914 244.78662109 160.67480469 C245.81005859 163.26074219 245.81005859 163.26074219 245.81005859 167.26074219 C246.47005859 167.26074219 247.13005859 167.26074219 247.81005859 167.26074219 C247.91962891 167.82921875 248.02919922 168.39769531 248.14208984 168.98339844 C248.93214218 172.83088907 249.75044512 176.38740044 251.43505859 179.94824219 C252.84931391 183.3553118 253.0766409 185.61745073 252.81005859 189.26074219 C253.47005859 189.26074219 254.13005859 189.26074219 254.81005859 189.26074219 C254.81005859 191.57074219 254.81005859 193.88074219 254.81005859 196.26074219 C255.47005859 196.26074219 256.13005859 196.26074219 256.81005859 196.26074219 C258.57779753 205.33092647 260.25224097 213.97491225 259.81005859 223.26074219 C260.47005859 223.26074219 261.13005859 223.26074219 261.81005859 223.26074219 C262.2504731 228.63379918 262.2504731 228.63379918 261.81005859 231.26074219 C259.31005859 233.26074219 259.31005859 233.26074219 256.81005859 234.26074219 C258.94860709 236.39929068 259.94281173 236.68729281 262.81005859 237.26074219 C262.83568823 243.69790789 262.85304116 250.13506014 262.86499023 256.57226562 C262.86997857 258.7561899 262.87677162 260.9401109 262.88549805 263.12402344 C262.988625 289.62158484 262.988625 289.62158484 261.81005859 298.26074219 C261.48005859 298.59074219 261.15005859 298.92074219 260.81005859 299.26074219 C260.62383192 300.77715935 260.48653425 302.29969011 260.37255859 303.82324219 C260.0759543 307.12826148 259.6592429 310.2402126 258.81005859 313.44824219 C257.7347705 317.25165529 257.7347705 317.25165529 257.24755859 321.19824219 C256.81005859 324.26074219 256.81005859 324.26074219 255.81005859 325.26074219 C255.44245128 327.58892182 255.10764278 329.92258069 254.81005859 332.26074219 C254.15005859 332.26074219 253.49005859 332.26074219 252.81005859 332.26074219 C252.90287109 333.52917969 252.90287109 333.52917969 252.99755859 334.82324219 C252.76990232 338.99694062 251.60798045 341.51507165 249.81005859 345.26074219 C249.15005859 345.26074219 248.49005859 345.26074219 247.81005859 345.26074219 C247.81005859 345.92074219 247.81005859 346.58074219 247.81005859 347.26074219 C247.15005859 347.26074219 246.49005859 347.26074219 245.81005859 347.26074219 C245.81005859 351.22074219 245.81005859 355.18074219 245.81005859 359.26074219 C245.15005859 359.26074219 244.49005859 359.26074219 243.81005859 359.26074219 C243.68630859 359.98261719 243.56255859 360.70449219 243.43505859 361.44824219 C242.81952934 364.21812385 241.87335884 366.63793491 240.81005859 369.26074219 C240.81005859 369.92074219 240.81005859 370.58074219 240.81005859 371.26074219 C240.15005859 371.26074219 239.49005859 371.26074219 238.81005859 371.26074219 C238.81005859 372.58074219 238.81005859 373.90074219 238.81005859 375.26074219 C238.15005859 375.26074219 237.49005859 375.26074219 236.81005859 375.26074219 C236.66568359 375.85886719 236.52130859 376.45699219 236.37255859 377.07324219 C235.9228147 378.82224623 235.38113518 380.54751242 234.81005859 382.26074219 C234.15005859 382.26074219 233.49005859 382.26074219 232.81005859 382.26074219 C232.48005859 384.24074219 232.15005859 386.22074219 231.81005859 388.26074219 C231.15005859 388.26074219 230.49005859 388.26074219 229.81005859 388.26074219 C229.81005859 389.25074219 229.81005859 390.24074219 229.81005859 391.26074219 C229.15005859 391.26074219 228.49005859 391.26074219 227.81005859 391.26074219 C227.68759766 391.83308594 227.56513672 392.40542969 227.43896484 392.99511719 C226.78242991 395.3602741 225.87282347 397.33281016 224.74755859 399.51074219 C224.38533203 400.21714844 224.02310547 400.92355469 223.64990234 401.65136719 C223.37275391 402.18246094 223.09560547 402.71355469 222.81005859 403.26074219 C222.15005859 403.26074219 221.49005859 403.26074219 220.81005859 403.26074219 C220.15005859 405.24074219 219.49005859 407.22074219 218.81005859 409.26074219 C218.15005859 409.26074219 217.49005859 409.26074219 216.81005859 409.26074219 C216.50068359 410.04449219 216.19130859 410.82824219 215.87255859 411.63574219 C214.81005859 414.26074219 214.81005859 414.26074219 213.81005859 416.26074219 C213.15005859 416.26074219 212.49005859 416.26074219 211.81005859 416.26074219 C211.81005859 416.92074219 211.81005859 417.58074219 211.81005859 418.26074219 C210.82005859 418.26074219 209.83005859 418.26074219 208.81005859 418.26074219 C208.81005859 417.60074219 208.81005859 416.94074219 208.81005859 416.26074219 C208.15005859 416.26074219 207.49005859 416.26074219 206.81005859 416.26074219 C206.41173828 415.5246875 206.01341797 414.78863281 205.60302734 414.03027344 C205.07322266 413.05445313 204.54341797 412.07863281 203.99755859 411.07324219 C203.47548828 410.1103125 202.95341797 409.14738281 202.41552734 408.15527344 C201.37702772 406.28294201 200.2779715 404.44242894 199.11083984 402.64746094 C197.81005859 400.26074219 197.81005859 400.26074219 197.81005859 396.26074219 C197.15005859 396.26074219 196.49005859 396.26074219 195.81005859 396.26074219 C193.05532697 391.05610579 190.67923372 386.02018617 188.93505859 380.38574219 C187.67815159 376.81188612 186.7682196 374.64621532 183.49755859 372.63574219 C179.87273296 371.28411229 176.62537609 370.77434262 172.81005859 370.26074219 C172.35501953 369.80183594 171.89998047 369.34292969 171.43115234 368.87011719 C169.36099938 366.81492919 167.3413411 366.09719924 164.62255859 365.07324219 C163.27097656 364.55697266 163.27097656 364.55697266 161.89208984 364.03027344 C161.20501953 363.77632813 160.51794922 363.52238281 159.81005859 363.26074219 C159.81005859 362.60074219 159.81005859 361.94074219 159.81005859 361.26074219 C159.15005859 361.26074219 158.49005859 361.26074219 157.81005859 361.26074219 C157.81005859 360.60074219 157.81005859 359.94074219 157.81005859 359.26074219 C155.47791711 358.05446211 153.31363721 357.09526839 150.81005859 356.26074219 C150.81005859 355.60074219 150.81005859 354.94074219 150.81005859 354.26074219 C149.82005859 354.26074219 148.83005859 354.26074219 147.81005859 354.26074219 C146.10121854 352.63734414 144.43559142 350.96755166 142.81005859 349.26074219 C141.82005859 348.60074219 140.83005859 347.94074219 139.81005859 347.26074219 C139.81005859 346.60074219 139.81005859 345.94074219 139.81005859 345.26074219 C139.15005859 345.26074219 138.49005859 345.26074219 137.81005859 345.26074219 C137.81005859 344.60074219 137.81005859 343.94074219 137.81005859 343.26074219 C137.15005859 343.26074219 136.49005859 343.26074219 135.81005859 343.26074219 C134.18505859 341.88574219 134.18505859 341.88574219 132.81005859 340.26074219 C132.81005859 339.60074219 132.81005859 338.94074219 132.81005859 338.26074219 C132.15005859 338.26074219 131.49005859 338.26074219 130.81005859 338.26074219 C130.81005859 337.60074219 130.81005859 336.94074219 130.81005859 336.26074219 C130.15005859 336.26074219 129.49005859 336.26074219 128.81005859 336.26074219 C127.37255859 334.87011719 127.37255859 334.87011719 125.81005859 333.01074219 C125.03662109 332.10582031 125.03662109 332.10582031 124.24755859 331.18261719 C122.81005859 329.26074219 122.81005859 329.26074219 121.74755859 327.08886719 C120.94626536 325.08225977 120.94626536 325.08225977 118.81005859 324.26074219 C118.81005859 323.60074219 118.81005859 322.94074219 118.81005859 322.26074219 C118.15005859 322.26074219 117.49005859 322.26074219 116.81005859 322.26074219 C116.81005859 321.60074219 116.81005859 320.94074219 116.81005859 320.26074219 C109.80205671 317.86776593 103.16996636 316.03546932 95.81005859 315.26074219 C95.81005859 314.60074219 95.81005859 313.94074219 95.81005859 313.26074219 C94.82005859 313.32261719 93.83005859 313.38449219 92.81005859 313.44824219 C89.23971984 313.45532619 86.6222515 312.4370185 83.32958984 311.05371094 C78.727054 309.6051609 73.88527425 309.2917328 69.10302734 308.78808594 C65.81005859 308.26074219 65.81005859 308.26074219 62.81005859 306.26074219 C62.81005859 305.60074219 62.81005859 304.94074219 62.81005859 304.26074219 C62.06755859 304.13699219 61.32505859 304.01324219 60.56005859 303.88574219 C58.00864375 303.30587518 56.08330129 302.5236548 53.81005859 301.26074219 C53.81005859 300.60074219 53.81005859 299.94074219 53.81005859 299.26074219 C52.82005859 299.26074219 51.83005859 299.26074219 50.81005859 299.26074219 C50.44742 293.45852468 51.55321317 289.62075008 53.81005859 284.26074219 C54.47005859 284.26074219 55.13005859 284.26074219 55.81005859 284.26074219 C55.95443359 283.49761719 56.09880859 282.73449219 56.24755859 281.94824219 C56.81005859 279.26074219 56.81005859 279.26074219 57.81005859 276.26074219 C58.47005859 276.26074219 59.13005859 276.26074219 59.81005859 276.26074219 C60.14005859 273.29074219 60.47005859 270.32074219 60.81005859 267.26074219 C61.47005859 267.26074219 62.13005859 267.26074219 62.81005859 267.26074219 C62.74818359 266.60074219 62.68630859 265.94074219 62.62255859 265.26074219 C62.8247674 262.02540125 63.76053815 259.48772985 64.94677734 256.49121094 C67.54237275 249.78494408 69.12843794 243.37785735 69.59912109 236.19433594 C69.81005859 234.26074219 69.81005859 234.26074219 70.81005859 233.26074219 C71.01989139 231.11869908 71.17829244 228.97150105 71.31005859 226.82324219 C71.69992092 220.48101753 71.69992092 220.48101753 72.81005859 218.26074219 C72.96073073 216.81421799 73.05866895 215.36194879 73.12646484 213.90917969 C73.16835938 213.05839844 73.21025391 212.20761719 73.25341797 211.33105469 C73.29273438 210.44160156 73.33205078 209.55214844 73.37255859 208.63574219 C73.43733398 207.28996094 73.43733398 207.28996094 73.50341797 205.91699219 C73.6096272 203.69839936 73.71167054 201.47969339 73.81005859 199.26074219 C75.46005859 199.26074219 77.11005859 199.26074219 78.81005859 199.26074219 C78.81005859 200.58074219 78.81005859 201.90074219 78.81005859 203.26074219 C79.47005859 203.26074219 80.13005859 203.26074219 80.81005859 203.26074219 C81.80005859 205.73574219 81.80005859 205.73574219 82.81005859 208.26074219 C83.47005859 208.26074219 84.13005859 208.26074219 84.81005859 208.26074219 C84.81005859 208.92074219 84.81005859 209.58074219 84.81005859 210.26074219 C85.47005859 210.26074219 86.13005859 210.26074219 86.81005859 210.26074219 C88.43505859 211.63574219 88.43505859 211.63574219 89.81005859 213.26074219 C89.81005859 213.92074219 89.81005859 214.58074219 89.81005859 215.26074219 C90.80005859 215.26074219 91.79005859 215.26074219 92.81005859 215.26074219 C92.81005859 215.92074219 92.81005859 216.58074219 92.81005859 217.26074219 C93.47005859 217.26074219 94.13005859 217.26074219 94.81005859 217.26074219 C98.81005859 221.73133042 98.81005859 221.73133042 98.81005859 224.26074219 C99.47005859 224.26074219 100.13005859 224.26074219 100.81005859 224.26074219 C100.81005859 224.92074219 100.81005859 225.58074219 100.81005859 226.26074219 C101.80005859 226.59074219 102.79005859 226.92074219 103.81005859 227.26074219 C103.81005859 227.92074219 103.81005859 228.58074219 103.81005859 229.26074219 C104.47005859 229.26074219 105.13005859 229.26074219 105.81005859 229.26074219 C105.81005859 229.92074219 105.81005859 230.58074219 105.81005859 231.26074219 C106.47005859 231.26074219 107.13005859 231.26074219 107.81005859 231.26074219 C108.14005859 232.58074219 108.47005859 233.90074219 108.81005859 235.26074219 C109.47005859 235.26074219 110.13005859 235.26074219 110.81005859 235.26074219 C110.81005859 235.92074219 110.81005859 236.58074219 110.81005859 237.26074219 C111.92247925 237.27476074 111.92247925 237.27476074 113.05737305 237.2890625 C116.41311574 237.34269969 119.76745421 237.42636012 123.12255859 237.51074219 C124.28980469 237.52492187 125.45705078 237.53910156 126.65966797 237.55371094 C127.77792969 237.5859375 128.89619141 237.61816406 130.04833984 237.65136719 C131.07999268 237.67231445 132.11164551 237.69326172 133.17456055 237.71484375 C135.81005859 238.26074219 135.81005859 238.26074219 137.67016602 240.04882812 C138.81005859 242.26074219 138.81005859 242.26074219 138.81005859 246.26074219 C140.46005859 246.59074219 142.11005859 246.92074219 143.81005859 247.26074219 C143.81005859 247.59074219 143.81005859 247.92074219 143.81005859 248.26074219 C144.94443359 248.40511719 146.07880859 248.54949219 147.24755859 248.69824219 C150.81005859 249.26074219 150.81005859 249.26074219 151.81005859 250.26074219 C153.93172079 250.44900235 156.05806204 250.58520224 158.18505859 250.69824219 C175.42758875 251.87827234 175.42758875 251.87827234 178.93505859 255.38574219 C180.04320547 259.02679621 180.43122621 262.47241837 180.81005859 266.26074219 C181.14005859 266.59074219 181.47005859 266.92074219 181.81005859 267.26074219 C181.85069691 268.92691334 181.8527796 270.59462314 181.81005859 272.26074219 C182.47005859 272.26074219 183.13005859 272.26074219 183.81005859 272.26074219 C183.81005859 272.92074219 183.81005859 273.58074219 183.81005859 274.26074219 C184.47005859 274.26074219 185.13005859 274.26074219 185.81005859 274.26074219 C185.81005859 274.92074219 185.81005859 275.58074219 185.81005859 276.26074219 C187.79005859 276.59074219 189.77005859 276.92074219 191.81005859 277.26074219 C192.47005859 279.24074219 193.13005859 281.22074219 193.81005859 283.26074219 C194.47005859 283.26074219 195.13005859 283.26074219 195.81005859 283.26074219 C196.14005859 283.92074219 196.47005859 284.58074219 196.81005859 285.26074219 C199.33739094 285.91629338 199.33739094 285.91629338 201.81005859 286.26074219 C201.81005859 286.92074219 201.81005859 287.58074219 201.81005859 288.26074219 C209.07005859 288.26074219 216.33005859 288.26074219 223.81005859 288.26074219 C223.81005859 288.92074219 223.81005859 289.58074219 223.81005859 290.26074219 C225.75912109 290.16792969 225.75912109 290.16792969 227.74755859 290.07324219 C232.86555649 290.04887077 237.09074081 291.38640321 241.81005859 293.26074219 C241.81005859 293.92074219 241.81005859 294.58074219 241.81005859 295.26074219 C243.13005859 295.26074219 244.45005859 295.26074219 245.81005859 295.26074219 C245.81005859 295.92074219 245.81005859 296.58074219 245.81005859 297.26074219 C247.13005859 297.26074219 248.45005859 297.26074219 249.81005859 297.26074219 C249.81005859 297.92074219 249.81005859 298.58074219 249.81005859 299.26074219 C251.79005859 299.26074219 253.77005859 299.26074219 255.81005859 299.26074219 C255.31505859 298.04386719 254.82005859 296.82699219 254.31005859 295.57324219 C253.08526419 292.33587481 252.48202674 289.75974862 252.81005859 286.26074219 C252.15005859 286.26074219 251.49005859 286.26074219 250.81005859 286.26074219 C250.39433594 284.79701172 250.39433594 284.79701172 249.97021484 283.30371094 C249.60436459 282.01854468 249.23847724 280.73338898 248.87255859 279.44824219 C248.51291016 278.18367188 248.15326172 276.91910156 247.78271484 275.61621094 C247.16514598 273.48572237 246.51151229 271.36510327 245.81005859 269.26074219 C244.16005859 269.26074219 242.51005859 269.26074219 240.81005859 269.26074219 C240.81005859 268.60074219 240.81005859 267.94074219 240.81005859 267.26074219 C239.49005859 267.26074219 238.17005859 267.26074219 236.81005859 267.26074219 C236.81005859 266.60074219 236.81005859 265.94074219 236.81005859 265.26074219 C235.82005859 265.26074219 234.83005859 265.26074219 233.81005859 265.26074219 C233.81005859 264.60074219 233.81005859 263.94074219 233.81005859 263.26074219 C233.29443359 263.13699219 232.77880859 263.01324219 232.24755859 262.88574219 C223.31005859 260.59407552 223.31005859 260.59407552 219.81005859 258.26074219 C219.81005859 257.60074219 219.81005859 256.94074219 219.81005859 256.26074219 C218.49005859 256.26074219 217.17005859 256.26074219 215.81005859 256.26074219 C215.81005859 255.60074219 215.81005859 254.94074219 215.81005859 254.26074219 C214.16005859 253.93074219 212.51005859 253.60074219 210.81005859 253.26074219 C210.81005859 252.60074219 210.81005859 251.94074219 210.81005859 251.26074219 C210.15005859 251.26074219 209.49005859 251.26074219 208.81005859 251.26074219 C208.81005859 250.60074219 208.81005859 249.94074219 208.81005859 249.26074219 C207.82005859 249.26074219 206.83005859 249.26074219 205.81005859 249.26074219 C205.81005859 248.60074219 205.81005859 247.94074219 205.81005859 247.26074219 C204.97474609 246.92042969 204.97474609 246.92042969 204.12255859 246.57324219 C201.17282586 244.89906955 199.1726702 242.68241908 196.81005859 240.26074219 C196.04693359 239.70386719 195.28380859 239.14699219 194.49755859 238.57324219 C193.94068359 238.14011719 193.38380859 237.70699219 192.81005859 237.26074219 C192.81005859 236.60074219 192.81005859 235.94074219 192.81005859 235.26074219 C192.15005859 235.26074219 191.49005859 235.26074219 190.81005859 235.26074219 C190.81005859 234.60074219 190.81005859 233.94074219 190.81005859 233.26074219 C190.15005859 233.26074219 189.49005859 233.26074219 188.81005859 233.26074219 C188.81005859 232.60074219 188.81005859 231.94074219 188.81005859 231.26074219 C187.49005859 230.93074219 186.17005859 230.60074219 184.81005859 230.26074219 C184.81005859 229.60074219 184.81005859 228.94074219 184.81005859 228.26074219 C183.82005859 228.26074219 182.83005859 228.26074219 181.81005859 228.26074219 C181.81005859 227.60074219 181.81005859 226.94074219 181.81005859 226.26074219 C180.49005859 226.26074219 179.17005859 226.26074219 177.81005859 226.26074219 C177.81005859 225.60074219 177.81005859 224.94074219 177.81005859 224.26074219 C176.38693359 224.29167969 176.38693359 224.29167969 174.93505859 224.32324219 C171.81005859 224.26074219 171.81005859 224.26074219 169.81005859 223.26074219 C167.60798511 223.06043642 165.40082942 222.91493644 163.19287109 222.79589844 C161.85040903 222.71736388 160.50796153 222.63858 159.16552734 222.55957031 C157.05029183 222.44003913 154.9349811 222.32323808 152.81933594 222.21118164 C150.77666335 222.10125028 148.73484813 221.98048662 146.69287109 221.85839844 C145.46971191 221.79144775 144.24655273 221.72449707 142.98632812 221.65551758 C140.07141382 221.29322577 138.28564324 220.77881843 135.81005859 219.26074219 C135.81005859 218.60074219 135.81005859 217.94074219 135.81005859 217.26074219 C135.17068359 217.32261719 134.53130859 217.38449219 133.87255859 217.44824219 C129.57513185 217.18513443 125.83129692 215.73256798 121.81005859 214.26074219 C121.81005859 213.60074219 121.81005859 212.94074219 121.81005859 212.26074219 C120.49005859 212.26074219 119.17005859 212.26074219 117.81005859 212.26074219 C117.81005859 211.60074219 117.81005859 210.94074219 117.81005859 210.26074219 C117.25447266 210.13441406 116.69888672 210.00808594 116.12646484 209.87792969 C113.58766625 209.20148757 111.19601196 208.338534 108.74755859 207.38574219 C107.89033203 207.05832031 107.03310547 206.73089844 106.14990234 206.39355469 C103.79865361 205.25522058 102.60055843 204.11432196 100.81005859 202.26074219 C97.28783666 199.99192356 93.66680754 199.66809853 89.56005859 199.13574219 C87.66513672 198.884375 87.66513672 198.884375 85.73193359 198.62792969 C84.76771484 198.50675781 83.80349609 198.38558594 82.81005859 198.26074219 C82.81005859 197.60074219 82.81005859 196.94074219 82.81005859 196.26074219 C81.49005859 196.26074219 80.17005859 196.26074219 78.81005859 196.26074219 C78.81005859 195.60074219 78.81005859 194.94074219 78.81005859 194.26074219 C78.17068359 194.11636719 77.53130859 193.97199219 76.87255859 193.82324219 C74.81005859 193.26074219 74.81005859 193.26074219 73.81005859 192.26074219 C73.6006225 190.28564346 73.44202037 188.30502536 73.31005859 186.32324219 C73.13270776 182.13906803 73.13270776 182.13906803 71.81005859 178.26074219 C71.49573336 175.14804927 71.29915985 172.03456641 71.09130859 168.91308594 C71.09953862 166.34068814 71.09953862 166.34068814 69.81005859 165.26074219 C69.48355997 163.26613243 69.19944734 161.26453061 68.93505859 159.26074219 C68.2182384 154.30273587 67.1284798 149.89276124 65.40771484 145.20605469 C64.58373576 142.52408355 64.59629162 140.03971282 64.81005859 137.26074219 C64.15005859 137.26074219 63.49005859 137.26074219 62.81005859 137.26074219 C62.81005859 135.61074219 62.81005859 133.96074219 62.81005859 132.26074219 C62.15005859 132.26074219 61.49005859 132.26074219 60.81005859 132.26074219 C60.31505859 127.80574219 60.31505859 127.80574219 59.81005859 123.26074219 C59.15005859 123.26074219 58.49005859 123.26074219 57.81005859 123.26074219 C57.81005859 121.94074219 57.81005859 120.62074219 57.81005859 119.26074219 C57.15005859 119.26074219 56.49005859 119.26074219 55.81005859 119.26074219 C54.04543176 116.17264523 53.81005859 115.02762083 53.81005859 111.26074219 C55.68505859 109.01074219 55.68505859 109.01074219 57.81005859 107.26074219 C58.47005859 107.26074219 59.13005859 107.26074219 59.81005859 107.26074219 C59.81005859 106.60074219 59.81005859 105.94074219 59.81005859 105.26074219 C59.14619141 105.35355469 58.48232422 105.44636719 57.79833984 105.54199219 C54.96475639 105.77364281 52.6035008 105.81771686 49.81005859 105.26074219 C47.35986741 102.9593944 46.15775022 100.30674441 44.81005859 97.26074219 C44.21193359 96.14699219 43.61380859 95.03324219 42.99755859 93.88574219 C41.81005859 91.26074219 41.81005859 91.26074219 41.81005859 89.26074219 C41.15005859 89.26074219 40.49005859 89.26074219 39.81005859 89.26074219 C39.55611328 88.70644531 39.30216797 88.15214844 39.04052734 87.58105469 C38.69634766 86.85660156 38.35216797 86.13214844 37.99755859 85.38574219 C37.66111328 84.66644531 37.32466797 83.94714844 36.97802734 83.20605469 C35.81538762 80.95531412 35.81538762 80.95531412 32.81005859 79.26074219 C32.81005859 77.94074219 32.81005859 76.62074219 32.81005859 75.26074219 C32.15005859 75.26074219 31.49005859 75.26074219 30.81005859 75.26074219 C29.18896484 73.39746094 29.18896484 73.39746094 27.37255859 70.94824219 C24.90028882 67.62165715 24.90028882 67.62165715 22.08740234 64.59277344 C20.81005859 63.26074219 20.81005859 63.26074219 20.81005859 61.26074219 C20.15005859 61.26074219 19.49005859 61.26074219 18.81005859 61.26074219 C17.25927734 59.65136719 17.25927734 59.65136719 15.49755859 57.51074219 C12.82243625 54.3431287 10.07080173 51.82981254 6.81005859 49.26074219 C6.81005859 48.60074219 6.81005859 47.94074219 6.81005859 47.26074219 C6.15005859 47.26074219 5.49005859 47.26074219 4.81005859 47.26074219 C4.81005859 46.60074219 4.81005859 45.94074219 4.81005859 45.26074219 C4.15005859 45.26074219 3.49005859 45.26074219 2.81005859 45.26074219 C1.45573184 43.94873815 0.12272377 42.61442815 -1.18994141 41.26074219 C-2.17994141 40.76574219 -2.17994141 40.76574219 -3.18994141 40.26074219 C-3.18994141 39.60074219 -3.18994141 38.94074219 -3.18994141 38.26074219 C-4.17994141 38.26074219 -5.16994141 38.26074219 -6.18994141 38.26074219 C-6.18994141 37.60074219 -6.18994141 36.94074219 -6.18994141 36.26074219 C-6.84994141 36.26074219 -7.50994141 36.26074219 -8.18994141 36.26074219 C-8.18994141 35.60074219 -8.18994141 34.94074219 -8.18994141 34.26074219 C-9.83994141 33.93074219 -11.48994141 33.60074219 -13.18994141 33.26074219 C-13.18994141 32.60074219 -13.18994141 31.94074219 -13.18994141 31.26074219 C-15.66494141 30.27074219 -15.66494141 30.27074219 -18.18994141 29.26074219 C-18.18994141 28.60074219 -18.18994141 27.94074219 -18.18994141 27.26074219 C-18.78162109 27.09058594 -19.37330078 26.92042969 -19.98291016 26.74511719 C-24.91836398 25.23147066 -28.20645298 23.61525875 -32.18994141 20.26074219 C-34.48558497 19.12016981 -36.79961851 18.19812372 -39.18994141 17.26074219 C-39.18994141 16.60074219 -39.18994141 15.94074219 -39.18994141 15.26074219 C-40.50994141 15.26074219 -41.82994141 15.26074219 -43.18994141 15.26074219 C-43.18994141 14.60074219 -43.18994141 13.94074219 -43.18994141 13.26074219 C-44.17994141 13.10605469 -44.17994141 13.10605469 -45.18994141 12.94824219 C-49.02835149 12.06860654 -52.52090831 10.69104322 -56.18994141 9.26074219 C-55.85994141 7.61074219 -55.52994141 5.96074219 -55.18994141 4.26074219 C-52.54994141 3.93074219 -49.90994141 3.60074219 -47.18994141 3.26074219 C-47.18994141 2.93074219 -47.18994141 2.60074219 -47.18994141 2.26074219 C-31.43841979 0.56746944 -15.83853151 -0.0567142 0 0 Z M34.81005859 317.26074219 C37.43505859 317.07324219 37.43505859 317.07324219 39.81005859 317.26074219 C39.81005859 318.25074219 39.81005859 319.24074219 39.81005859 320.26074219 C40.47005859 320.26074219 41.13005859 320.26074219 41.81005859 320.26074219 C42.22255859 320.90011719 42.63505859 321.53949219 43.06005859 322.19824219 C44.68031059 324.58847059 44.68031059 324.58847059 47.74755859 324.57324219 C50.81005859 325.26074219 50.81005859 325.26074219 52.08740234 326.79980469 C54.81005859 331.50874041 54.81005859 331.50874041 54.81005859 334.26074219 C55.80005859 334.26074219 56.79005859 334.26074219 57.81005859 334.26074219 C57.81005859 334.92074219 57.81005859 335.58074219 57.81005859 336.26074219 C59.13005859 336.26074219 60.45005859 336.26074219 61.81005859 336.26074219 C61.81005859 336.92074219 61.81005859 337.58074219 61.81005859 338.26074219 C62.55255859 338.38449219 63.29505859 338.50824219 64.06005859 338.63574219 C66.68344969 339.23196744 68.58770428 339.75271604 70.81005859 341.26074219 C71.56005859 343.38574219 71.56005859 343.38574219 71.81005859 345.26074219 C72.47005859 345.26074219 73.13005859 345.26074219 73.81005859 345.26074219 C76.81005859 349.64535757 76.81005859 349.64535757 76.81005859 352.26074219 C77.47005859 352.26074219 78.13005859 352.26074219 78.81005859 352.26074219 C78.81005859 352.92074219 78.81005859 353.58074219 78.81005859 354.26074219 C79.58349609 354.44636719 79.58349609 354.44636719 80.37255859 354.63574219 C83.5370821 355.44715847 86.67130844 356.35533349 89.81005859 357.26074219 C89.81005859 357.92074219 89.81005859 358.58074219 89.81005859 359.26074219 C90.53451172 359.39480469 91.25896484 359.52886719 92.00537109 359.66699219 C94.63662587 360.22402663 97.12489376 360.94279815 99.68505859 361.76074219 C103.7435432 363.00623522 107.59434668 363.80251263 111.81005859 364.26074219 C111.81005859 364.92074219 111.81005859 365.58074219 111.81005859 366.26074219 C113.13005859 366.26074219 114.45005859 366.26074219 115.81005859 366.26074219 C115.81005859 366.92074219 115.81005859 367.58074219 115.81005859 368.26074219 C116.32568359 368.34324219 116.84130859 368.42574219 117.37255859 368.51074219 C120.85461592 369.58214444 123.68206744 371.39597823 126.81005859 373.26074219 C126.81005859 373.92074219 126.81005859 374.58074219 126.81005859 375.26074219 C127.80005859 375.26074219 128.79005859 375.26074219 129.81005859 375.26074219 C129.81005859 375.92074219 129.81005859 376.58074219 129.81005859 377.26074219 C130.51130859 377.38449219 131.21255859 377.50824219 131.93505859 377.63574219 C134.98662247 378.29912564 137.86346797 379.23286174 140.81005859 380.26074219 C140.81005859 380.92074219 140.81005859 381.58074219 140.81005859 382.26074219 C141.47005859 382.26074219 142.13005859 382.26074219 142.81005859 382.26074219 C142.81005859 382.92074219 142.81005859 383.58074219 142.81005859 384.26074219 C143.47005859 384.26074219 144.13005859 384.26074219 144.81005859 384.26074219 C144.81005859 385.25074219 144.81005859 386.24074219 144.81005859 387.26074219 C145.47005859 387.26074219 146.13005859 387.26074219 146.81005859 387.26074219 C147.14005859 389.90074219 147.47005859 392.54074219 147.81005859 395.26074219 C148.47005859 395.26074219 149.13005859 395.26074219 149.81005859 395.26074219 C149.81005859 396.25074219 149.81005859 397.24074219 149.81005859 398.26074219 C150.47005859 398.26074219 151.13005859 398.26074219 151.81005859 398.26074219 C151.81005859 399.91074219 151.81005859 401.56074219 151.81005859 403.26074219 C152.47005859 403.26074219 153.13005859 403.26074219 153.81005859 403.26074219 C153.81005859 403.92074219 153.81005859 404.58074219 153.81005859 405.26074219 C156.45005859 405.26074219 159.09005859 405.26074219 161.81005859 405.26074219 C161.81005859 405.92074219 161.81005859 406.58074219 161.81005859 407.26074219 C163.13005859 407.92074219 164.45005859 408.58074219 165.81005859 409.26074219 C165.81005859 409.92074219 165.81005859 410.58074219 165.81005859 411.26074219 C172.74005859 411.75574219 172.74005859 411.75574219 179.81005859 412.26074219 C179.81005859 412.92074219 179.81005859 413.58074219 179.81005859 414.26074219 C180.90318359 414.15761719 181.99630859 414.05449219 183.12255859 413.94824219 C188.95581143 413.89587906 193.73060695 416.64631854 198.81005859 419.26074219 C198.81005859 419.92074219 198.81005859 420.58074219 198.81005859 421.26074219 C199.80005859 421.26074219 200.79005859 421.26074219 201.81005859 421.26074219 C201.81005859 421.92074219 201.81005859 422.58074219 201.81005859 423.26074219 C202.80005859 423.26074219 203.79005859 423.26074219 204.81005859 423.26074219 C203.93505859 428.01074219 203.93505859 428.01074219 202.81005859 430.26074219 C202.15005859 430.26074219 201.49005859 430.26074219 200.81005859 430.26074219 C200.81005859 430.92074219 200.81005859 431.58074219 200.81005859 432.26074219 C200.15005859 432.26074219 199.49005859 432.26074219 198.81005859 432.26074219 C198.48005859 433.25074219 198.15005859 434.24074219 197.81005859 435.26074219 C197.15005859 435.26074219 196.49005859 435.26074219 195.81005859 435.26074219 C195.81005859 435.92074219 195.81005859 436.58074219 195.81005859 437.26074219 C195.15005859 437.26074219 194.49005859 437.26074219 193.81005859 437.26074219 C193.48005859 438.58074219 193.15005859 439.90074219 192.81005859 441.26074219 C192.15005859 441.26074219 191.49005859 441.26074219 190.81005859 441.26074219 C190.81005859 441.92074219 190.81005859 442.58074219 190.81005859 443.26074219 C190.15005859 443.26074219 189.49005859 443.26074219 188.81005859 443.26074219 C188.48005859 444.25074219 188.15005859 445.24074219 187.81005859 446.26074219 C187.15005859 446.26074219 186.49005859 446.26074219 185.81005859 446.26074219 C185.81005859 446.92074219 185.81005859 447.58074219 185.81005859 448.26074219 C185.15005859 448.26074219 184.49005859 448.26074219 183.81005859 448.26074219 C183.81005859 448.92074219 183.81005859 449.58074219 183.81005859 450.26074219 C181.43505859 452.88574219 181.43505859 452.88574219 178.81005859 455.26074219 C178.15005859 455.26074219 177.49005859 455.26074219 176.81005859 455.26074219 C176.81005859 455.92074219 176.81005859 456.58074219 176.81005859 457.26074219 C175.15473237 458.27940448 173.48745721 459.27885031 171.81005859 460.26074219 C171.48005859 460.92074219 171.15005859 461.58074219 170.81005859 462.26074219 C169.82005859 462.26074219 168.83005859 462.26074219 167.81005859 462.26074219 C167.81005859 462.92074219 167.81005859 463.58074219 167.81005859 464.26074219 C167.15005859 464.26074219 166.49005859 464.26074219 165.81005859 464.26074219 C165.81005859 464.92074219 165.81005859 465.58074219 165.81005859 466.26074219 C164.49005859 466.59074219 163.17005859 466.92074219 161.81005859 467.26074219 C161.81005859 467.92074219 161.81005859 468.58074219 161.81005859 469.26074219 C160.82005859 469.26074219 159.83005859 469.26074219 158.81005859 469.26074219 C158.81005859 469.92074219 158.81005859 470.58074219 158.81005859 471.26074219 C158.15005859 471.26074219 157.49005859 471.26074219 156.81005859 471.26074219 C156.81005859 471.92074219 156.81005859 472.58074219 156.81005859 473.26074219 C155.16005859 473.59074219 153.51005859 473.92074219 151.81005859 474.26074219 C151.81005859 474.92074219 151.81005859 475.58074219 151.81005859 476.26074219 C150.82005859 476.26074219 149.83005859 476.26074219 148.81005859 476.26074219 C148.81005859 476.92074219 148.81005859 477.58074219 148.81005859 478.26074219 C147.16552734 479.47949219 147.16552734 479.47949219 144.99755859 480.76074219 C144.28986328 481.18355469 143.58216797 481.60636719 142.85302734 482.04199219 C142.17884766 482.44417969 141.50466797 482.84636719 140.81005859 483.26074219 C139.82005859 483.92074219 138.83005859 484.58074219 137.81005859 485.26074219 C136.82005859 485.26074219 135.83005859 485.26074219 134.81005859 485.26074219 C134.81005859 485.92074219 134.81005859 486.58074219 134.81005859 487.26074219 C133.82005859 487.26074219 132.83005859 487.26074219 131.81005859 487.26074219 C131.81005859 487.92074219 131.81005859 488.58074219 131.81005859 489.26074219 C129.83005859 489.59074219 127.85005859 489.92074219 125.81005859 490.26074219 C125.81005859 490.92074219 125.81005859 491.58074219 125.81005859 492.26074219 C124.69630859 492.73511719 123.58255859 493.20949219 122.43505859 493.69824219 C120.54294865 494.51380682 118.6529315 495.33930573 116.81005859 496.26074219 C115.82005859 491.97074219 114.83005859 487.68074219 113.81005859 483.26074219 C112.16005859 482.93074219 110.51005859 482.60074219 108.81005859 482.26074219 C108.48005859 480.94074219 108.15005859 479.62074219 107.81005859 478.26074219 C107.15005859 478.26074219 106.49005859 478.26074219 105.81005859 478.26074219 C103.73379546 473.63633794 102.10982908 469.15987709 100.81005859 464.26074219 C99.16005859 464.26074219 97.51005859 464.26074219 95.81005859 464.26074219 C95.81005859 463.93074219 95.81005859 463.60074219 95.81005859 463.26074219 C94.16005859 462.93074219 92.51005859 462.60074219 90.81005859 462.26074219 C90.81005859 461.60074219 90.81005859 460.94074219 90.81005859 460.26074219 C90.12943359 460.32261719 89.44880859 460.38449219 88.74755859 460.44824219 C84.89069734 460.20205955 82.29926266 458.90272057 78.81005859 457.26074219 C78.81005859 456.60074219 78.81005859 455.94074219 78.81005859 455.26074219 C73.20005859 455.26074219 67.59005859 455.26074219 61.81005859 455.26074219 C61.81005859 454.60074219 61.81005859 453.94074219 61.81005859 453.26074219 C61.15005859 453.26074219 60.49005859 453.26074219 59.81005859 453.26074219 C57.27696626 448.61870322 55.3449026 444.60918226 54.81005859 439.26074219 C53.94380859 439.07511719 53.94380859 439.07511719 53.06005859 438.88574219 C50.78670093 438.25425395 48.8847057 437.37216028 46.81005859 436.26074219 C46.81005859 435.60074219 46.81005859 434.94074219 46.81005859 434.26074219 C46.15005859 434.26074219 45.49005859 434.26074219 44.81005859 434.26074219 C43.61988868 431.88040237 43.53013804 430.03455547 43.31005859 427.38574219 C42.95953237 422.7440657 42.95953237 422.7440657 41.81005859 418.26074219 C39.31971473 416.96413785 39.31971473 416.96413785 36.81005859 416.26074219 C36.81005859 415.60074219 36.81005859 414.94074219 36.81005859 414.26074219 C35.49005859 414.26074219 34.17005859 414.26074219 32.81005859 414.26074219 C32.81005859 414.92074219 32.81005859 415.58074219 32.81005859 416.26074219 C21.59005859 416.26074219 10.37005859 416.26074219 -1.18994141 416.26074219 C-1.18994141 415.60074219 -1.18994141 414.94074219 -1.18994141 414.26074219 C-1.91181641 414.21949219 -2.63369141 414.17824219 -3.37744141 414.13574219 C-8.46661372 412.55244414 -10.8958197 407.89794351 -13.50244141 403.51074219 C-15.18994141 400.26074219 -15.18994141 400.26074219 -15.18994141 398.26074219 C-15.78806641 397.99261719 -16.38619141 397.72449219 -17.00244141 397.44824219 C-19.18841994 396.26156812 -20.60326734 395.16475106 -22.18994141 393.26074219 C-22.18994141 392.60074219 -22.18994141 391.94074219 -22.18994141 391.26074219 C-22.84994141 391.26074219 -23.50994141 391.26074219 -24.18994141 391.26074219 C-24.18994141 390.60074219 -24.18994141 389.94074219 -24.18994141 389.26074219 C-24.91181641 388.99261719 -25.63369141 388.72449219 -26.37744141 388.44824219 C-29.18760524 387.26172857 -31.67410697 385.9858858 -34.18994141 384.26074219 C-34.18994141 383.60074219 -34.18994141 382.94074219 -34.18994141 382.26074219 C-34.84994141 382.26074219 -35.50994141 382.26074219 -36.18994141 382.26074219 C-35.85994141 380.61074219 -35.52994141 378.96074219 -35.18994141 377.26074219 C-34.19994141 377.26074219 -33.20994141 377.26074219 -32.18994141 377.26074219 C-32.18994141 376.60074219 -32.18994141 375.94074219 -32.18994141 375.26074219 C-31.19994141 375.26074219 -30.20994141 375.26074219 -29.18994141 375.26074219 C-29.18994141 374.60074219 -29.18994141 373.94074219 -29.18994141 373.26074219 C-25.20805423 371.54306537 -21.22514738 369.85036878 -17.18994141 368.26074219 C-17.18994141 367.60074219 -17.18994141 366.94074219 -17.18994141 366.26074219 C-16.19994141 366.26074219 -15.20994141 366.26074219 -14.18994141 366.26074219 C-14.18994141 365.60074219 -14.18994141 364.94074219 -14.18994141 364.26074219 C-11.71494141 363.76574219 -11.71494141 363.76574219 -9.18994141 363.26074219 C-9.18994141 362.60074219 -9.18994141 361.94074219 -9.18994141 361.26074219 C-8.52994141 361.26074219 -7.86994141 361.26074219 -7.18994141 361.26074219 C-7.18994141 360.60074219 -7.18994141 359.94074219 -7.18994141 359.26074219 C-5.17822266 357.49902344 -5.17822266 357.49902344 -2.50244141 355.57324219 C-1.63232422 354.93 -0.76220703 354.28675781 0.13427734 353.62402344 C3.37166988 351.97460739 4.40819281 352.17928486 7.81005859 353.26074219 C8.76525391 353.50953125 9.72044922 353.75832031 10.70458984 354.01464844 C13.40641276 354.76334635 16.10823568 355.51204427 18.81005859 356.26074219 C18.81005859 349.66074219 18.81005859 343.06074219 18.81005859 336.26074219 C19.47005859 336.26074219 20.13005859 336.26074219 20.81005859 336.26074219 C20.81005859 335.60074219 20.81005859 334.94074219 20.81005859 334.26074219 C21.47005859 334.26074219 22.13005859 334.26074219 22.81005859 334.26074219 C23.14005859 332.94074219 23.47005859 331.62074219 23.81005859 330.26074219 C24.47005859 330.26074219 25.13005859 330.26074219 25.81005859 330.26074219 C26.03693359 329.53886719 26.26380859 328.81699219 26.49755859 328.07324219 C28.06468536 324.71511339 30.1382746 322.79893698 32.81005859 320.26074219 C33.47005859 319.27074219 34.13005859 318.28074219 34.81005859 317.26074219 Z M-234.18994141 370.26074219 C-230.47105902 370.76786251 -227.45539902 371.37682433 -224.18994141 373.26074219 C-224.18994141 373.92074219 -224.18994141 374.58074219 -224.18994141 375.26074219 C-223.63306641 375.36386719 -223.07619141 375.46699219 -222.50244141 375.57324219 C-219.74974725 376.39161072 -217.64662611 377.78673137 -215.18994141 379.26074219 C-212.99863606 379.95653673 -212.99863606 379.95653673 -211.18994141 380.26074219 C-211.18994141 380.92074219 -211.18994141 381.58074219 -211.18994141 382.26074219 C-210.61244141 382.39480469 -210.03494141 382.52886719 -209.43994141 382.66699219 C-206.59745488 383.4170928 -203.92518675 384.47353697 -201.18994141 385.54199219 C-199.20838388 386.25411442 -197.23975492 386.78489262 -195.18994141 387.26074219 C-195.18994141 387.92074219 -195.18994141 388.58074219 -195.18994141 389.26074219 C-193.20994141 389.26074219 -191.22994141 389.26074219 -189.18994141 389.26074219 C-189.18994141 389.92074219 -189.18994141 390.58074219 -189.18994141 391.26074219 C-188.50931641 391.21949219 -187.82869141 391.17824219 -187.12744141 391.13574219 C-182.49816329 391.33273275 -178.32086211 392.89101811 -173.93994141 394.32324219 C-169.05210157 395.54520215 -164.20614185 395.91604849 -159.18994141 396.26074219 C-159.18994141 396.59074219 -159.18994141 396.92074219 -159.18994141 397.26074219 C-154.89994141 397.59074219 -150.60994141 397.92074219 -146.18994141 398.26074219 C-146.18994141 398.92074219 -146.18994141 399.58074219 -146.18994141 400.26074219 C-133.97994141 400.26074219 -121.76994141 400.26074219 -109.18994141 400.26074219 C-109.18994141 399.60074219 -109.18994141 398.94074219 -109.18994141 398.26074219 C-104.56994141 397.93074219 -99.94994141 397.60074219 -95.18994141 397.26074219 C-95.18994141 396.93074219 -95.18994141 396.60074219 -95.18994141 396.26074219 C-94.21154297 396.13957031 -93.23314453 396.01839844 -92.22509766 395.89355469 C-80.36339504 395.36441124 -80.36339504 395.36441124 -70.18994141 391.26074219 C-68.52377026 391.22010387 -66.85606046 391.21802119 -65.18994141 391.26074219 C-65.18994141 390.60074219 -65.18994141 389.94074219 -65.18994141 389.26074219 C-63.20994141 389.26074219 -61.22994141 389.26074219 -59.18994141 389.26074219 C-59.18994141 388.60074219 -59.18994141 387.94074219 -59.18994141 387.26074219 C-57.44759844 386.67495447 -55.69558862 386.1178605 -53.93994141 385.57324219 C-52.96541016 385.26 -51.99087891 384.94675781 -50.98681641 384.62402344 C-48.18994141 384.26074219 -48.18994141 384.26074219 -45.83056641 385.55371094 C-44.18994141 387.26074219 -44.18994141 387.26074219 -44.18994141 389.26074219 C-43.52994141 389.26074219 -42.86994141 389.26074219 -42.18994141 389.26074219 C-42.18994141 389.92074219 -42.18994141 390.58074219 -42.18994141 391.26074219 C-41.52994141 391.26074219 -40.86994141 391.26074219 -40.18994141 391.26074219 C-39.19994141 393.73574219 -39.19994141 393.73574219 -38.18994141 396.26074219 C-37.52994141 396.26074219 -36.86994141 396.26074219 -36.18994141 396.26074219 C-36.18994141 396.92074219 -36.18994141 397.58074219 -36.18994141 398.26074219 C-35.52994141 398.26074219 -34.86994141 398.26074219 -34.18994141 398.26074219 C-34.18994141 398.92074219 -34.18994141 399.58074219 -34.18994141 400.26074219 C-33.19994141 400.59074219 -32.20994141 400.92074219 -31.18994141 401.26074219 C-30.00244141 403.82324219 -30.00244141 403.82324219 -29.18994141 406.26074219 C-28.52994141 406.26074219 -27.86994141 406.26074219 -27.18994141 406.26074219 C-26.19994141 414.67574219 -26.19994141 414.67574219 -25.18994141 423.26074219 C-22.87994141 423.59074219 -20.56994141 423.92074219 -18.18994141 424.26074219 C-17.85994141 426.24074219 -17.52994141 428.22074219 -17.18994141 430.26074219 C-16.52994141 430.26074219 -15.86994141 430.26074219 -15.18994141 430.26074219 C-14.78775391 431.21980469 -14.78775391 431.21980469 -14.37744141 432.19824219 C-13.30326388 434.59205905 -13.30326388 434.59205905 -10.18994141 435.26074219 C-9.85994141 438.56074219 -9.52994141 441.86074219 -9.18994141 445.26074219 C-8.05556641 445.40511719 -6.92119141 445.54949219 -5.75244141 445.69824219 C-2.18994141 446.26074219 -2.18994141 446.26074219 -1.18994141 447.26074219 C1.28517663 447.79724318 3.77287043 448.22466332 6.26708984 448.66308594 C8.71386857 449.23813532 10.62323786 450.04244346 12.81005859 451.26074219 C12.81005859 451.92074219 12.81005859 452.58074219 12.81005859 453.26074219 C13.57318359 453.40511719 14.33630859 453.54949219 15.12255859 453.69824219 C17.81005859 454.26074219 17.81005859 454.26074219 20.81005859 455.26074219 C21.36474609 457.18652344 21.36474609 457.18652344 21.68505859 459.57324219 C22.35129652 463.07099129 22.60922562 464.05462413 25.18505859 466.69824219 C26.05130859 467.21386719 26.91755859 467.72949219 27.81005859 468.26074219 C28.44943359 468.65261719 29.08880859 469.04449219 29.74755859 469.44824219 C32.3932544 470.49048599 35.00066087 470.8776425 37.81005859 471.26074219 C38.47005859 473.57074219 39.13005859 475.88074219 39.81005859 478.26074219 C40.43654297 478.2259375 41.06302734 478.19113281 41.70849609 478.15527344 C42.52576172 478.12820313 43.34302734 478.10113281 44.18505859 478.07324219 C44.99716797 478.0384375 45.80927734 478.00363281 46.64599609 477.96777344 C47.36013672 478.06445312 48.07427734 478.16113281 48.81005859 478.26074219 C49.47005859 479.25074219 50.13005859 480.24074219 50.81005859 481.26074219 C54.36678039 482.47955429 54.36678039 482.47955429 57.81005859 483.26074219 C57.81005859 483.92074219 57.81005859 484.58074219 57.81005859 485.26074219 C58.90318359 485.15761719 59.99630859 485.05449219 61.12255859 484.94824219 C67.0970938 485.05417366 72.09758128 486.52012592 76.81005859 490.26074219 C80.51186994 495.40043446 83.37163873 501.82881037 84.17333984 508.10449219 C83.99351562 509.17183594 83.99351562 509.17183594 83.81005859 510.26074219 C80.48282538 512.47889766 78.60525204 512.71169335 74.68505859 513.19824219 C69.78404215 513.88514772 65.39281127 514.90255947 60.75537109 516.59667969 C58.15031204 517.48595688 55.53453902 517.91144983 52.81005859 518.26074219 C52.81005859 518.59074219 52.81005859 518.92074219 52.81005859 519.26074219 C49.18005859 519.26074219 45.55005859 519.26074219 41.81005859 519.26074219 C41.81005859 519.92074219 41.81005859 520.58074219 41.81005859 521.26074219 C31.52701321 521.28386594 21.24397397 521.30165744 10.96090794 521.31255436 C6.1865758 521.31778312 1.41226139 521.32488063 -3.36206055 521.33618164 C-7.96560402 521.34701078 -12.5691304 521.35301908 -17.17268562 521.35561943 C-18.93303764 521.35747363 -20.69338867 521.36109415 -22.45373344 521.36647224 C-24.91066418 521.37368304 -27.36752336 521.37473311 -29.82446289 521.37426758 C-30.55957596 521.37786285 -31.29468903 521.38145813 -32.05207825 521.38516235 C-37.07588924 521.37479435 -37.07588924 521.37479435 -38.18994141 520.26074219 C-39.87178088 520.02787211 -41.56118301 519.84810053 -43.25244141 519.69824219 C-44.17154297 519.61445312 -45.09064453 519.53066406 -46.03759766 519.44433594 C-46.74787109 519.38375 -47.45814453 519.32316406 -48.18994141 519.26074219 C-48.18994141 518.93074219 -48.18994141 518.60074219 -48.18994141 518.26074219 C-50.82994141 517.93074219 -53.46994141 517.60074219 -56.18994141 517.26074219 C-56.18994141 516.60074219 -56.18994141 515.94074219 -56.18994141 515.26074219 C-57.20056641 515.32261719 -58.21119141 515.38449219 -59.25244141 515.44824219 C-63.75182468 515.23398584 -66.17932122 514.18583988 -70.18994141 512.26074219 C-70.51994141 512.26074219 -70.84994141 512.26074219 -71.18994141 512.26074219 C-72.85660807 512.26074219 -74.52327474 512.26074219 -76.18994141 512.26074219 C-76.18994141 511.60074219 -76.18994141 510.94074219 -76.18994141 510.26074219 C-77.83994141 510.26074219 -79.48994141 510.26074219 -81.18994141 510.26074219 C-81.18994141 509.60074219 -81.18994141 508.94074219 -81.18994141 508.26074219 C-81.91181641 508.30199219 -82.63369141 508.34324219 -83.37744141 508.38574219 C-86.43660939 508.24977917 -88.39005398 507.45069434 -91.18994141 506.26074219 C-92.03556641 506.09574219 -92.88119141 505.93074219 -93.75244141 505.76074219 C-96.19203419 505.2603129 -98.02308001 504.46455407 -100.18994141 503.26074219 C-100.18994141 502.60074219 -100.18994141 501.94074219 -100.18994141 501.26074219 C-101.50994141 501.26074219 -102.82994141 501.26074219 -104.18994141 501.26074219 C-104.18994141 500.60074219 -104.18994141 499.94074219 -104.18994141 499.26074219 C-104.87056641 499.13699219 -105.55119141 499.01324219 -106.25244141 498.88574219 C-109.61768261 498.16973342 -112.89007565 497.23129094 -116.18994141 496.26074219 C-116.18994141 495.60074219 -116.18994141 494.94074219 -116.18994141 494.26074219 C-117.50994141 494.26074219 -118.82994141 494.26074219 -120.18994141 494.26074219 C-120.18994141 493.60074219 -120.18994141 492.94074219 -120.18994141 492.26074219 C-121.17994141 492.26074219 -122.16994141 492.26074219 -123.18994141 492.26074219 C-123.18994141 491.60074219 -123.18994141 490.94074219 -123.18994141 490.26074219 C-124.50994141 490.26074219 -125.82994141 490.26074219 -127.18994141 490.26074219 C-128.18994141 489.26074219 -128.18994141 489.26074219 -129.18994141 487.26074219 C-130.17994141 487.26074219 -131.16994141 487.26074219 -132.18994141 487.26074219 C-132.18994141 486.60074219 -132.18994141 485.94074219 -132.18994141 485.26074219 C-132.70556641 485.17824219 -133.22119141 485.09574219 -133.75244141 485.01074219 C-137.23449873 483.93933993 -140.06195026 482.12550614 -143.18994141 480.26074219 C-143.18994141 479.60074219 -143.18994141 478.94074219 -143.18994141 478.26074219 C-144.17994141 478.26074219 -145.16994141 478.26074219 -146.18994141 478.26074219 C-146.18994141 477.60074219 -146.18994141 476.94074219 -146.18994141 476.26074219 C-147.05619141 476.07511719 -147.05619141 476.07511719 -147.93994141 475.88574219 C-150.21329907 475.25425395 -152.1152943 474.37216028 -154.18994141 473.26074219 C-154.18994141 472.60074219 -154.18994141 471.94074219 -154.18994141 471.26074219 C-154.84994141 471.26074219 -155.50994141 471.26074219 -156.18994141 471.26074219 C-156.18994141 470.60074219 -156.18994141 469.94074219 -156.18994141 469.26074219 C-156.74681641 468.99261719 -157.30369141 468.72449219 -157.87744141 468.44824219 C-160.40219475 467.15174723 -162.82708625 465.83597896 -165.18994141 464.26074219 C-165.18994141 463.60074219 -165.18994141 462.94074219 -165.18994141 462.26074219 C-165.84994141 462.26074219 -166.50994141 462.26074219 -167.18994141 462.26074219 C-167.18994141 461.60074219 -167.18994141 460.94074219 -167.18994141 460.26074219 C-167.80869141 459.95136719 -168.42744141 459.64199219 -169.06494141 459.32324219 C-170.43994141 458.63574219 -171.81494141 457.94824219 -173.18994141 457.26074219 C-173.18994141 456.60074219 -173.18994141 455.94074219 -173.18994141 455.26074219 C-173.76744141 454.99261719 -174.34494141 454.72449219 -174.93994141 454.44824219 C-177.24544183 453.2314503 -179.21050333 451.9574034 -181.18994141 450.26074219 C-181.18994141 449.60074219 -181.18994141 448.94074219 -181.18994141 448.26074219 C-181.84994141 448.26074219 -182.50994141 448.26074219 -183.18994141 448.26074219 C-183.18994141 447.60074219 -183.18994141 446.94074219 -183.18994141 446.26074219 C-183.84994141 446.26074219 -184.50994141 446.26074219 -185.18994141 446.26074219 C-187.81494141 443.88574219 -187.81494141 443.88574219 -190.18994141 441.26074219 C-190.18994141 440.60074219 -190.18994141 439.94074219 -190.18994141 439.26074219 C-190.84994141 439.26074219 -191.50994141 439.26074219 -192.18994141 439.26074219 C-192.84994141 437.61074219 -193.50994141 435.96074219 -194.18994141 434.26074219 C-194.84994141 434.26074219 -195.50994141 434.26074219 -196.18994141 434.26074219 C-196.18994141 433.60074219 -196.18994141 432.94074219 -196.18994141 432.26074219 C-196.84994141 432.26074219 -197.50994141 432.26074219 -198.18994141 432.26074219 C-198.68494141 430.28074219 -198.68494141 430.28074219 -199.18994141 428.26074219 C-199.84994141 428.26074219 -200.50994141 428.26074219 -201.18994141 428.26074219 C-201.84994141 426.61074219 -202.50994141 424.96074219 -203.18994141 423.26074219 C-203.84994141 423.26074219 -204.50994141 423.26074219 -205.18994141 423.26074219 C-205.45806641 422.66261719 -205.72619141 422.06449219 -206.00244141 421.44824219 C-207.05563272 419.24345493 -207.05563272 419.24345493 -208.68994141 417.82324219 C-210.58897453 415.84508268 -211.28893172 413.82515437 -212.18994141 411.26074219 C-212.84994141 411.26074219 -213.50994141 411.26074219 -214.18994141 411.26074219 C-217.18994141 405.51074219 -217.18994141 405.51074219 -217.18994141 403.26074219 C-217.84994141 403.26074219 -218.50994141 403.26074219 -219.18994141 403.26074219 C-219.18994141 402.27074219 -219.18994141 401.28074219 -219.18994141 400.26074219 C-219.84994141 400.26074219 -220.50994141 400.26074219 -221.18994141 400.26074219 C-222.02842945 398.80536651 -222.86058075 397.34633846 -223.68994141 395.88574219 C-224.15400391 395.07363281 -224.61806641 394.26152344 -225.09619141 393.42480469 C-226.18994141 391.26074219 -226.18994141 391.26074219 -226.18994141 389.26074219 C-226.84994141 389.26074219 -227.50994141 389.26074219 -228.18994141 389.26074219 C-228.53927734 388.48988281 -228.88861328 387.71902344 -229.24853516 386.92480469 C-229.70357422 385.92191406 -230.15861328 384.91902344 -230.62744141 383.88574219 C-231.07990234 382.88800781 -231.53236328 381.89027344 -231.99853516 380.86230469 C-232.70591457 379.31766636 -233.43016602 377.78029296 -234.18994141 376.26074219 C-234.22993341 374.26114207 -234.2334094 372.26026977 -234.18994141 370.26074219 Z " fill="#FF0100" transform="translate(236.18994140625,13.7392578125)"/>
</svg>
