<?xml version="1.0" encoding="UTF-8"?>
<svg version="1.1" xmlns="http://www.w3.org/2000/svg" width="500" height="552">
<path d="M0 0 C1.5305856 0.01509325 3.06118581 0.02877335 4.59179688 0.04101562 C8.2906753 0.0736097 11.98898945 0.12512782 15.6875 0.1875 C15.6875 1.1775 15.6875 2.1675 15.6875 3.1875 C14.7903125 3.5278125 13.893125 3.868125 12.96875 4.21875 C3.22821539 7.97941126 -6.03694907 12.40428907 -15.3125 17.1875 C-16.64456027 17.85670675 -17.97714445 18.5248932 -19.3125 19.1875 C-17.0025 19.8475 -14.6925 20.5075 -12.3125 21.1875 C-13.01171875 23.08203125 -13.01171875 23.08203125 -14.3125 25.1875 C-16.51953125 26.19921875 -16.51953125 26.19921875 -19.125 26.875 C-19.97707031 27.10574219 -20.82914062 27.33648437 -21.70703125 27.57421875 C-24.23341843 28.1688856 -26.76382277 28.69789773 -29.3125 29.1875 C-24.02442761 28.86374047 -19.6165572 27.66318423 -14.625 25.875 C-5.06003267 22.53273366 4.71976031 20.87404816 14.6875 19.1875 C16.573479 18.86168945 16.573479 18.86168945 18.49755859 18.52929688 C21.93461746 17.93616068 25.37353835 17.35500832 28.81396484 16.78173828 C30.17094155 16.55509327 31.52756269 16.32630738 32.88378906 16.09521484 C44.34174365 14.15333321 54.14343971 13.78665013 65.5625 15.6875 C84.53090999 18.52657884 105.43118729 19.60852482 123.765625 13.09375 C126.57138537 12.22351416 128.64933332 11.97422222 131.5625 12.0625 C132.34367187 12.08054687 133.12484375 12.09859375 133.9296875 12.1171875 C134.50976562 12.14039062 135.08984375 12.16359375 135.6875 12.1875 C135.6875 13.1775 135.6875 14.1675 135.6875 15.1875 C135.09324219 15.46722656 134.49898438 15.74695313 133.88671875 16.03515625 C127.16018676 19.28857996 120.92128256 23.07509972 114.6875 27.1875 C115.3475 27.8475 116.0075 28.5075 116.6875 29.1875 C116.6875 30.1775 116.6875 31.1675 116.6875 32.1875 C115.48480469 32.22617188 115.48480469 32.22617188 114.2578125 32.265625 C104.07539643 32.77359133 94.5679387 34.77900304 84.6875 37.1875 C88.6475 37.6825 88.6475 37.6825 92.6875 38.1875 C92.625 41.5 92.625 41.5 91.6875 45.1875 C89.22943985 46.59957711 87.34833221 47.36989883 84.6875 48.1875 C74.98498657 51.57851222 66.44178906 56.17788764 60.13671875 64.51171875 C58.6875 66.1875 58.6875 66.1875 56.26953125 68.0859375 C53.62637005 70.23725479 51.75233078 72.42323553 49.6875 75.125 C47.47135135 77.97493358 45.30372141 80.6976302 42.6875 83.1875 C42.0275 83.8475 41.3675 84.5075 40.6875 85.1875 C40.6875 85.8475 40.6875 86.5075 40.6875 87.1875 C41.50202637 87.45377197 42.31655273 87.72004395 43.15576172 87.99438477 C71.0673335 97.14271839 71.0673335 97.14271839 82.95996094 101.92626953 C86.87242324 103.49855871 90.7825532 104.88707751 94.8125 106.125 C100.23352178 107.87012345 105.16251669 110.36700503 110.19921875 112.98193359 C115.61521617 115.75240497 121.14402579 118.04845298 126.8125 120.25 C155.41349971 131.42583791 155.41349971 131.42583791 161.6875 141.1875 C161.6875 142.1775 161.6875 143.1675 161.6875 144.1875 C156.7013459 143.68962768 153.74050929 142.17937358 149.625 139.375 C137.65596197 131.65204303 124.74527403 130.25015516 110.8828125 128.91796875 C107.46890649 128.57887708 104.60170544 128.15512469 101.375 126.9375 C98.67716941 125.86057321 98.67716941 125.86057321 96.3125 127.375 C94.35372749 129.15406926 94.35372749 129.15406926 94.6875 132.1875 C95.265 132.39375 95.8425 132.6 96.4375 132.8125 C98.6875 134.1875 98.6875 134.1875 100.3125 137 C103.6656168 141.50023571 107.64966498 142.92507801 112.6875 145.1875 C128.79534582 152.6926941 128.79534582 152.6926941 132.6875 158.1875 C133.0625 162.0625 133.0625 162.0625 132.6875 165.1875 C128.91495547 164.67769669 127.23762877 163.98049818 124.6875 161.1875 C124.0275 161.1875 123.3675 161.1875 122.6875 161.1875 C133.23474357 172.75544456 148.19837431 177.06368222 162.4375 182.5 C163.6234375 182.95439453 164.809375 183.40878906 166.03125 183.87695312 C168.91607451 184.98202703 171.80149343 186.08551772 174.6875 187.1875 C174.6875 188.1775 174.6875 189.1675 174.6875 190.1875 C166.41544089 190.78789139 160.34342069 190.09710149 152.81640625 186.61328125 C136.18751478 179.03582134 116.16034077 173.98666642 97.875 174 C96.95952393 173.99935547 96.04404785 173.99871094 95.10083008 173.99804688 C86.53062349 174.06334934 78.15829764 174.94408016 69.6875 176.1875 C70.79222656 176.56519531 71.89695312 176.94289062 73.03515625 177.33203125 C82.57698349 180.67686786 91.80633466 184.46436107 100.9375 188.8125 C101.90051025 189.26729736 102.86352051 189.72209473 103.85571289 190.19067383 C109.18973751 192.77328258 114.07147012 195.45132112 118.6875 199.1875 C118.6875 199.8475 118.6875 200.5075 118.6875 201.1875 C110.78831715 202.09894418 105.48213373 198.99249489 98.6875 195.1875 C98.6875 196.1775 98.6875 197.1675 98.6875 198.1875 C94.95841669 197.68550802 91.32602314 197.14542977 87.6875 196.1875 C88.74066406 196.72117187 89.79382813 197.25484375 90.87890625 197.8046875 C98.2425602 201.58974327 105.37312462 205.47419288 112.1875 210.1875 C117.62075068 213.93150097 123.17999133 217.2634582 129 220.375 C129.73605469 220.77396484 130.47210938 221.17292969 131.23046875 221.58398438 C133.01596162 222.51884149 134.84867792 223.3624691 136.6875 224.1875 C137.3475 223.8575 138.0075 223.5275 138.6875 223.1875 C138.0275 221.2075 137.3675 219.2275 136.6875 217.1875 C139.87968343 218.03874892 142.16149831 218.6790317 144.5625 221 C145.88943689 223.58015507 145.92611338 225.32413949 145.6875 228.1875 C140.00331163 231.53971365 134.5420541 232.88701848 128.0090332 231.70141602 C125.16788988 230.95308699 122.36668561 230.12654776 119.5625 229.25 C113.44819806 227.37920612 108.11532082 225.75126285 101.6875 226.1875 C105.76853297 228.00521173 109.85270387 229.81576264 113.9375 231.625 C115.67580078 232.3994043 115.67580078 232.3994043 117.44921875 233.18945312 C118.56425781 233.68251953 119.67929687 234.17558594 120.828125 234.68359375 C122.36774902 235.36699829 122.36774902 235.36699829 123.93847656 236.06420898 C126.20106474 236.98873547 128.30315472 237.68618891 130.6875 238.1875 C130.6875 239.1775 130.6875 240.1675 130.6875 241.1875 C123.18093249 244.94078375 112.19899662 241.60570587 104.6875 239.1875 C99.30969432 237.30300208 93.99219308 235.2676398 88.6875 233.1875 C90.13849145 235.74846648 91.63182084 238.07045729 93.6875 240.1875 C97.28669423 241.08342083 97.28669423 241.08342083 100.6875 241.1875 C102.6875 243.1875 102.6875 243.1875 102.6875 246.1875 C90.32215362 244.48905063 79.16600513 242.1588877 67.84375 236.85546875 C66.8846875 236.40816406 65.925625 235.96085938 64.9375 235.5 C64.07640625 235.08363281 63.2153125 234.66726563 62.328125 234.23828125 C59.45151843 233.09359609 56.74897516 232.59480152 53.6875 232.1875 C64.25884417 239.22321814 75.13137201 245.66396522 86.23486328 251.82421875 C87.71953236 252.64946184 89.20075595 253.48100525 90.67529297 254.32421875 C100.86393025 260.12882302 111.74624027 263.7062288 122.82437134 267.3999939 C133.25289077 270.88317192 143.13484651 274.69472424 152.6875 280.1875 C153.5846875 280.65800781 154.481875 281.12851562 155.40625 281.61328125 C157.6875 282.875 157.6875 282.875 160.6875 285.1875 C161.1875 288 161.1875 288 160.6875 290.1875 C156.41422888 291.42963914 153.97208881 290.87896302 149.875 289.25 C148.89917969 288.86972656 147.92335938 288.48945313 146.91796875 288.09765625 C146.18191406 287.79730469 145.44585937 287.49695313 144.6875 287.1875 C145.86119141 287.78498047 145.86119141 287.78498047 147.05859375 288.39453125 C148.07050781 288.92433594 149.08242188 289.45414062 150.125 290 C151.13433594 290.52207031 152.14367187 291.04414063 153.18359375 291.58203125 C155.6875 293.1875 155.6875 293.1875 156.6875 296.1875 C150.93854525 295.63310938 146.2941578 293.99873076 141 291.75 C106.11903798 277.42301042 70.14301906 266.16280333 32.6875 261.1875 C35.05785772 263.93853097 37.16773967 264.90440881 40.59375 266.02734375 C48.06847773 268.61276356 55.1861934 271.91627238 62.37109375 275.20898438 C70.71424794 278.95773165 78.87532283 281.67822686 87.9375 283 C91.52812408 283.66867647 93.39686472 284.510532 96 287.0625 C103.41886301 294.28144321 116.72665723 295.13435194 126.5 297.0625 C137.07101047 299.24936652 146.80241068 301.85153461 156.6875 306.1875 C158.16518712 306.81291946 159.64306069 307.43789853 161.12109375 308.0625 C170.92601578 312.26668149 180.36064599 317.01508539 189.6875 322.1875 C189.6875 323.1775 189.6875 324.1675 189.6875 325.1875 C184.3714159 324.87478917 180.19430906 323.70120334 175.25 321.6875 C169.91488376 319.52982478 165.41877504 318.47892076 159.6875 318.1875 C160.0175 319.8375 160.3475 321.4875 160.6875 323.1875 C156.25031583 322.62048984 152.78553067 321.46576415 148.75 319.5625 C132.01880565 312.15130679 114.04328749 308.17931147 96.3125 303.9375 C94.97378845 303.61573792 94.97378845 303.61573792 93.60803223 303.28747559 C76.46951499 299.1856608 59.47293494 296.05405575 41.9387207 294.25219727 C39.48989189 293.99895468 37.0428953 293.73144027 34.59570312 293.46289062 C32.98706912 293.29341481 31.37834768 293.12476647 29.76953125 292.95703125 C29.06391556 292.8789473 28.35829987 292.80086334 27.63130188 292.72041321 C20.65724159 292.02385913 13.68976872 292.11844287 6.6875 292.1875 C14.38191259 294.04652464 22.07788152 295.8989282 29.77567482 297.74389839 C33.35377962 298.60167861 36.93139973 299.46136165 40.5078125 300.32617188 C59.30536948 304.86980321 78.12358705 309.02809798 97.12265015 312.64816284 C99.6875 313.1875 99.6875 313.1875 102.6875 314.1875 C102.6875 315.1775 102.6875 316.1675 102.6875 317.1875 C81.59703783 319.68000917 60.16509821 317.23007454 39.22924805 314.44702148 C36.69591484 314.18835918 34.23204167 314.14200555 31.6875 314.1875 C46.43297055 319.74068202 61.7110374 322.50869809 77.15625 325.40234375 C104.47817559 330.58283779 104.47817559 330.58283779 115.6875 336.1875 C115.6875 337.1775 115.6875 338.1675 115.6875 339.1875 C107.98982994 338.3911893 100.34397079 337.30928733 92.6875 336.1875 C94.9975 336.8475 97.3075 337.5075 99.6875 338.1875 C99.6875 339.1775 99.6875 340.1675 99.6875 341.1875 C85.91173957 339.40493849 72.16931219 337.40416929 58.4375 335.3125 C57.59555084 335.18435913 56.75360168 335.05621826 55.88613892 334.92419434 C44.10899349 333.12219591 32.39927358 331.13497102 20.74121094 328.66064453 C14.92329304 327.4590964 9.631185 326.98002024 3.6875 327.1875 C4.45489502 327.37747559 5.22229004 327.56745117 6.01293945 327.76318359 C24.75807654 332.45399164 42.70175991 338.08267217 60.6875 345.1875 C60.6875 346.5075 60.6875 347.8275 60.6875 349.1875 C59.89053711 349.00574219 59.09357422 348.82398438 58.27246094 348.63671875 C54.6617995 347.8158747 51.04968399 347.00161659 47.4375 346.1875 C46.18324219 345.90132813 44.92898438 345.61515625 43.63671875 345.3203125 C41.82880859 344.91425781 41.82880859 344.91425781 39.984375 344.5 C38.87416992 344.24863281 37.76396484 343.99726563 36.62011719 343.73828125 C33.52960407 343.06444338 33.52960407 343.06444338 29.6875 343.1875 C30.29634033 343.50912109 30.90518066 343.83074219 31.5324707 344.16210938 C61.63919147 360.1339654 61.63919147 360.1339654 63.44921875 365.40625 C63.52785156 365.9940625 63.60648437 366.581875 63.6875 367.1875 C62.69105469 366.75050781 61.69460938 366.31351562 60.66796875 365.86328125 C35.32742904 355.04108928 9.18925386 351.26062058 -18.13818359 351.29760742 C-21.28430011 351.18847817 -24.22055611 350.75849762 -27.3125 350.1875 C-35.30130596 349.46661662 -41.14046727 350.70949618 -48.3125 354.1875 C-49.2715625 354.62320312 -50.230625 355.05890625 -51.21875 355.5078125 C-65.90419088 362.43419312 -78.1503925 373.30910943 -90.07421875 384.16796875 C-92.75862148 386.59002147 -95.51131784 388.90232508 -98.3125 391.1875 C-97.9825 391.8475 -97.6525 392.5075 -97.3125 393.1875 C-96.3225 393.5175 -95.3325 393.8475 -94.3125 394.1875 C-93.29230427 395.1668879 -92.29100195 396.16645449 -91.3125 397.1875 C-89.01620006 398.33564997 -87.23551914 398.49519809 -84.6875 398.75 C-83.87023437 398.83378906 -83.05296875 398.91757812 -82.2109375 399.00390625 C-81.58445313 399.06449219 -80.95796875 399.12507813 -80.3125 399.1875 C-81.2574633 401.54990825 -81.95645012 402.93523147 -84.0546875 404.421875 C-93.02500017 407.46371113 -105.29451429 405.04661183 -114.625 404.4375 C-115.72150879 404.37594727 -116.81801758 404.31439453 -117.94775391 404.25097656 C-129.64196649 403.39836569 -137.9285857 399.19470567 -147.5625 392.75 C-148.42101562 392.18990234 -149.27953125 391.62980469 -150.1640625 391.05273438 C-162.11729785 383.17279384 -167.81400919 375.43460277 -173.0625 362.125 C-173.35632568 361.38161377 -173.65015137 360.63822754 -173.95288086 359.87231445 C-176.67368972 352.71572928 -178.60371157 345.64406309 -178.5625 337.9375 C-178.57023437 336.47570312 -178.57023437 336.47570312 -178.578125 334.984375 C-178.29929157 332.04842298 -177.5392251 329.8551403 -176.3125 327.1875 C-174.00390625 327.3046875 -174.00390625 327.3046875 -171.3125 328.1875 C-169.65234375 330.8828125 -169.65234375 330.8828125 -168.25 334.3125 C-165.85132704 339.9734763 -165.85132704 339.9734763 -162.9375 345.375 C-161.3125 348.1875 -161.3125 348.1875 -161.3125 350.1875 C-160.6525 350.1875 -159.9925 350.1875 -159.3125 350.1875 C-158.05078125 351.7265625 -158.05078125 351.7265625 -156.625 353.8125 C-153.64960805 357.94131549 -150.30916602 361.0658437 -146.3125 364.1875 C-133.53741499 357.05517584 -133.53741499 357.05517584 -124.3671875 346.18359375 C-124.28968687 343.35482072 -125.37303461 342.17403037 -127.0625 339.9375 C-130.77861022 334.64951787 -132.64864733 329.34427639 -134.53125 323.234375 C-134.75224365 322.51967041 -134.9732373 321.80496582 -135.20092773 321.06860352 C-135.64431076 319.62572176 -136.08150597 318.18092148 -136.51196289 316.73413086 C-137.4914427 313.50343668 -138.42489942 311.01890087 -140.3125 308.1875 C-139.9375 306 -139.9375 306 -139.3125 304.1875 C-137.6625 303.8575 -136.0125 303.5275 -134.3125 303.1875 C-133.76722656 303.90035156 -133.22195312 304.61320312 -132.66015625 305.34765625 C-124.94977661 315.1404974 -116.18018964 322.07558566 -105.3125 328.1875 C-104.6525 328.1875 -103.9925 328.1875 -103.3125 328.1875 C-103.05670166 327.25703857 -102.80090332 326.32657715 -102.53735352 325.36791992 C-97.90353735 308.61436894 -93.34362374 292.37852513 -85.19775391 276.93408203 C-83.99487528 274.56083502 -83.04982886 272.11785144 -82.125 269.625 C-79.72785108 263.32834154 -76.03491057 257.77111585 -72.3125 252.1875 C-72.5240791 249.65471034 -72.98842055 248.51978881 -74.76782227 246.6953125 C-75.38197998 246.23898437 -75.9961377 245.78265625 -76.62890625 245.3125 C-77.31146484 244.80203125 -77.99402344 244.2915625 -78.69726562 243.765625 C-79.77524414 242.98445313 -79.77524414 242.98445313 -80.875 242.1875 C-81.91237305 241.40632813 -81.91237305 241.40632813 -82.97070312 240.609375 C-94.16865893 232.34396867 -103.30608121 230.67974482 -117.08203125 232.56689453 C-127.36108531 234.23428507 -137.23912311 236.59512841 -146.625 241.1875 C-147.28250244 241.5071875 -147.94000488 241.826875 -148.61743164 242.15625 C-151.45359445 243.67560926 -153.13357252 244.87327393 -154.73828125 247.69140625 C-155.97609208 253.07209416 -155.04503828 256.988801 -152.25 261.5625 C-151.610625 262.42875 -150.97125 263.295 -150.3125 264.1875 C-150.3125 264.8475 -150.3125 265.5075 -150.3125 266.1875 C-149.6525 266.1875 -148.9925 266.1875 -148.3125 266.1875 C-146.75390625 267.953125 -146.75390625 267.953125 -144.875 270.4375 C-142.47511622 273.55026438 -140.03995267 276.52837566 -137.3046875 279.34765625 C-136.5456311 280.1351123 -136.5456311 280.1351123 -135.77124023 280.93847656 C-134.76969407 281.96654417 -133.75634425 282.98326383 -132.73071289 283.98730469 C-130.41894305 286.37820304 -129.30543338 287.56033728 -129.34375 290.9609375 C-130.3125 293.1875 -130.3125 293.1875 -132.875 294.5 C-133.679375 294.726875 -134.48375 294.95375 -135.3125 295.1875 C-135.745625 294.56875 -136.17875 293.95 -136.625 293.3125 C-140.13065151 290.54058951 -143.09800498 290.40347798 -147.44140625 289.734375 C-161.93411545 286.97385896 -174.41039221 275.31513474 -183.3125 264.1875 C-183.9725 263.8575 -184.6325 263.5275 -185.3125 263.1875 C-186.36058041 261.21227154 -187.3645411 259.21268491 -188.3125 257.1875 C-191.9425 257.1875 -195.5725 257.1875 -199.3125 257.1875 C-199.76561917 265.65354444 -199.76561917 265.65354444 -196.3125 273.1875 C-195.3946875 273.8784375 -194.476875 274.569375 -193.53125 275.28125 C-189.47671936 278.58500995 -187.34948313 282.80972075 -184.9375 287.375 C-184.26267578 288.60379883 -184.26267578 288.60379883 -183.57421875 289.85742188 C-180.3125 295.88020042 -180.3125 295.88020042 -180.3125 298.1875 C-186.79621175 296.91275827 -192.61998241 295.10063081 -198.6875 292.5 C-199.51531982 292.1484082 -200.34313965 291.79681641 -201.19604492 291.43457031 C-208.86394207 288.09463507 -215.9253278 284.14226724 -222.25 278.625 C-226.5386061 276.61198081 -229.48770588 277.6524866 -234.03125 278.5859375 C-247.32866953 281.02379775 -257.70573049 278.0074878 -268.73046875 270.5546875 C-269.51357422 269.87792969 -269.51357422 269.87792969 -270.3125 269.1875 C-270.3125 268.5275 -270.3125 267.8675 -270.3125 267.1875 C-271.3025 266.8575 -272.2925 266.5275 -273.3125 266.1875 C-274.49817942 265.05888537 -275.6766329 263.92127543 -276.80908203 262.73925781 C-278.52337784 260.96984174 -280.30173336 259.28068206 -282.08984375 257.5859375 C-292.71637846 247.37230509 -302.03786928 237.60960457 -302.55078125 222.0390625 C-302.57690719 220.63023336 -302.60162083 219.2213774 -302.625 217.8125 C-302.93678089 209.12243693 -305.51369358 203.38570963 -310.3125 196.1875 C-310.71875 194.1015625 -310.71875 194.1015625 -310.8125 191.8125 C-310.8640625 191.06226563 -310.915625 190.31203125 -310.96875 189.5390625 C-309.95259238 185.89783104 -307.34687731 184.18063667 -304.3125 182.1875 C-301.86315904 180.94925224 -299.4393031 179.80133978 -296.9375 178.6875 C-281.21803237 171.23460363 -267.7475554 158.05199562 -255.8125 145.5625 C-247.11312644 136.73392782 -236.17476781 129.57303917 -225.40625 123.56640625 C-224.4884375 123.04949219 -223.570625 122.53257812 -222.625 122 C-221.79613281 121.55269531 -220.96726562 121.10539062 -220.11328125 120.64453125 C-219.51902344 120.16371094 -218.92476563 119.68289062 -218.3125 119.1875 C-218.3125 114.66709554 -219.0527724 114.26297966 -221.86328125 111.08203125 C-225.5487733 106.26406995 -228.72123984 100.03723402 -228.875 93.875 C-228.24957381 91.02583623 -227.46713221 90.29520933 -225.046875 88.609375 C-221.85348147 86.98706278 -218.61346305 85.57757222 -215.3125 84.1875 C-200.86409712 77.6007281 -189.96194425 68.93154703 -178.3125 58.1875 C-175.67577826 55.81797951 -173.00947865 53.4881669 -170.3125 51.1875 C-169.17554688 50.21490234 -169.17554688 50.21490234 -168.015625 49.22265625 C-147.69179125 32.36164131 -126.45189609 28.57822673 -100.71166992 29.34838867 C-90.15879903 29.55208718 -81.54840346 27.46056614 -72.5625 21.9375 C-71.18072901 21.12879481 -69.79655575 20.32418189 -68.41015625 19.5234375 C-67.72453613 19.12737305 -67.03891602 18.73130859 -66.33251953 18.32324219 C-57.83057814 13.54308369 -48.80129062 9.8689382 -39.6875 6.4375 C-38.94846436 6.15567871 -38.20942871 5.87385742 -37.44799805 5.58349609 C-24.86255112 0.98224681 -13.25149454 -0.23039777 0 0 Z M-155.015625 111.5546875 C-159.79701283 116.7225947 -163.84693991 122.06501051 -167.3125 128.1875 C-159.03476824 127.99376585 -151.4013297 126.36925765 -145.421875 120.25390625 C-142.06008779 115.93743676 -139.3125 111.79128879 -139.3125 106.1875 C-145.42355369 106.1875 -150.3490566 107.46806835 -155.015625 111.5546875 Z M153.6875 315.1875 C154.0175 315.8475 154.3475 316.5075 154.6875 317.1875 C155.6775 317.1875 156.6675 317.1875 157.6875 317.1875 C157.6875 316.5275 157.6875 315.8675 157.6875 315.1875 C156.3675 315.1875 155.0475 315.1875 153.6875 315.1875 Z M169.6875 296.1875 C170.0175 297.1775 170.3475 298.1675 170.6875 299.1875 C167.0575 299.1875 163.4275 299.1875 159.6875 299.1875 C159.6875 298.1975 159.6875 297.2075 159.6875 296.1875 C162.9705098 294.5459951 166.11295033 295.66861376 169.6875 296.1875 Z " fill="#FF0100" transform="translate(310.3125,72.8125)"/>
</svg>
