<?xml version="1.0" encoding="UTF-8"?>
<svg version="1.1" xmlns="http://www.w3.org/2000/svg" width="500" height="552">
<path d="M0 0 C8.06138546 3.33332234 12.04532156 14.3963016 16 21.6875 C16.78165527 23.12246826 16.78165527 23.12246826 17.57910156 24.58642578 C21.51129759 31.89381821 24.99092573 39.26615121 28 47 C30.3335527 46.85719144 32.66679588 46.71081563 35 46.5625 C36.90494792 46.44344076 38.80989583 46.32438151 40.71484375 46.20532227 C42.69578832 46.02733355 44.66894658 45.76641019 46.63867188 45.49072266 C51.37743593 44.88993168 56.07203462 44.83812804 60.84375 44.83203125 C62.23478943 44.82703865 62.23478943 44.82703865 63.65393066 44.82194519 C65.61042794 44.81690553 67.56693374 44.81453594 69.5234375 44.81469727 C72.46369255 44.8125268 75.40356193 44.79438345 78.34375 44.77539062 C92.89264902 44.7303514 107.07068053 45.35035351 121.125 49.5 C121.98899414 49.75136719 122.85298828 50.00273437 123.74316406 50.26171875 C136.78716473 54.25506714 149.73245728 59.77977552 160.93994141 67.60693359 C163.10898407 69.07369792 165.33656853 70.35418266 167.625 71.625 C173.581572 75.15652798 178.81644234 79.50920159 184.16015625 83.88671875 C186.52533192 85.82272233 188.91217273 87.70421555 191.37109375 89.51953125 C208.311056 102.11392714 223.35348723 118.007525 235.80078125 135.01953125 C237.12976178 136.82061855 238.49332024 138.59781169 239.91796875 140.32421875 C244.14841471 145.67531264 246.36685841 151.19582758 248.4375 157.625 C248.69684326 158.42494385 248.95618652 159.2248877 249.22338867 160.04907227 C250.7715685 165.20452706 251.25229369 169.62183695 251 175 C248 174 248 174 246.5 171.4375 C237.67458547 157.56899145 216.22058877 150.96917004 200.84326172 147.515625 C180.50324353 143.30890851 158.308225 142.08671976 138 147 C138.433125 148.34578125 138.433125 148.34578125 138.875 149.71875 C141.99073771 160.19109063 144.95467727 172.65463386 140 183 C137.02518628 180.24733146 134.678775 177.03748117 132.25 173.8125 C128.35894612 168.69288056 124.33682744 163.75327776 120 159 C119.51273437 159.49628906 119.02546875 159.99257813 118.5234375 160.50390625 C112.05959111 166.69744634 105.05035874 170.36435412 97 174 C96.30261719 174.36351562 95.60523438 174.72703125 94.88671875 175.1015625 C86.86434444 178.90818801 75.32864447 178.10055563 67.0625 175.5625 C58.35536018 171.8177752 52.44417867 164.77966531 48.86328125 156.12890625 C47.22204138 150.18034003 47.09129837 144.15018999 47 138 C47.66 138 48.32 138 49 138 C49.61875 138.94875 50.2375 139.8975 50.875 140.875 C53.00459419 144.00675616 53.63381267 144.71275063 57 146 C65.60132427 147.36414993 73.41145674 145.01377495 81 141 C84.11984086 138.43222975 85.71227815 135.86316556 87 132 C72.55403282 126.05166057 59.6280161 127.18955112 45.26171875 133.1328125 C37.19203922 137.22868345 32.33902382 143.69524845 29 152 C23.89108334 169.49680525 28.92313992 189.70526491 37.35546875 205.2890625 C43.55412524 215.50727534 50.79255455 222.76240981 62.625 225.98828125 C64.8999932 226.47471072 67.18548657 226.91573917 69.48046875 227.296875 C70.31191406 227.52890625 71.14335937 227.7609375 72 228 C72.33 228.99 72.66 229.98 73 231 C64.31057386 236.94655173 56.12589056 237.72650029 45.8125 236.375 C40.20431212 235.31099597 35.73645758 233.13371688 31 230 C31.04640625 230.66644531 31.0928125 231.33289063 31.140625 232.01953125 C31.57109706 243.01194276 28.38157397 251.85683506 21 260 C17.11449124 264.11638681 13.125853 268.12464522 9 272 C8.49339844 272.49838379 7.98679687 272.99676758 7.46484375 273.51025391 C5.18819669 275.62022828 3.67940993 276.95499177 0.5234375 277.1640625 C-3.02777151 275.52588869 -5.60873341 273.07284876 -8.375 270.375 C-8.94935791 269.82521484 -9.52371582 269.27542969 -10.11547852 268.70898438 C-11.24716443 267.62328371 -12.37530702 266.53387504 -13.49951172 265.44042969 C-14.70154555 264.2865085 -15.94087683 263.1714917 -17.19140625 262.0703125 C-23.06041869 256.79214024 -27.66498755 248.84128002 -29 241 C-29.06688591 239.08438746 -29.08531719 237.16664408 -29.0625 235.25 C-29.05347656 234.26515625 -29.04445312 233.2803125 -29.03515625 232.265625 C-29.01775391 231.14414062 -29.01775391 231.14414062 -29 230 C-29.76570313 230.50660156 -29.76570313 230.50660156 -30.546875 231.0234375 C-40.09621564 236.88172094 -51.03510783 238.4065607 -62 236 C-65.21493851 234.61370027 -68.11307549 232.97564783 -71 231 C-70.67 230.01 -70.34 229.02 -70 228 C-67.48046875 227.296875 -67.48046875 227.296875 -64.1875 226.75 C-53.53993121 224.47338167 -45.25370883 219.72197036 -38.80859375 210.8515625 C-30.0155584 196.98781346 -25.6963418 183.4444768 -25.5625 167.0625 C-25.55226807 166.09127197 -25.54203613 165.12004395 -25.53149414 164.11938477 C-25.66089586 153.61431796 -29.24476291 144.64956516 -36.8125 137.25 C-47.76677911 129.51756769 -60.6417264 126.64123241 -74 128 C-76.89701906 128.75040525 -79.2648904 129.73374556 -82 131 C-82.99 131.33 -83.98 131.66 -85 132 C-81.26603832 140.00134646 -77.71700153 141.95214827 -69.49609375 144.9765625 C-63.00477198 146.87681535 -57.57046134 147.26268276 -51.4375 144.25 C-49.21477342 142.19825238 -48.00743126 140.82080752 -47 138 C-46.34 138 -45.68 138 -45 138 C-45.03400483 150.44576702 -47.11057406 159.9171383 -55.6875 169.5 C-62.76946119 175.90177282 -71.10395752 177.74194623 -80.51782227 177.75219727 C-94.74659567 177.01562149 -108.23505806 168.91379776 -118 159 C-123.55720939 164.9302628 -128.61421964 170.98947048 -133.2734375 177.65234375 C-134.73702149 179.64242062 -136.19604994 181.32332249 -138 183 C-143.35851405 171.81142266 -139.59409175 158.16735652 -136 147 C-160.35165103 141.34585314 -187.30323994 143.22231488 -211 151 C-212.10214844 151.35835937 -213.20429688 151.71671875 -214.33984375 152.0859375 C-224.96075112 155.84935058 -238.41817774 162.00234945 -244.6875 171.75 C-245.450625 172.8225 -246.21375 173.895 -247 175 C-247.66 175 -248.32 175 -249 175 C-249.29572973 168.69590775 -248.37840088 163.61170545 -246.4375 157.625 C-246.03204956 156.36610962 -246.03204956 156.36610962 -245.6184082 155.08178711 C-243.38029229 148.48021016 -240.43179362 143.38803125 -236 138 C-235.37867188 137.12085938 -234.75734375 136.24171875 -234.1171875 135.3359375 C-227.85433737 126.50127059 -220.49029659 118.79473898 -212.96630859 111.03369141 C-211.18879707 109.1952669 -209.43032346 107.34076419 -207.67578125 105.48046875 C-200.12183122 97.57818266 -191.83806412 91.04336812 -183.06054688 84.55224609 C-180.50097009 82.62407202 -178.02043899 80.60903873 -175.53637695 78.58520508 C-164.95614408 70.00684037 -153.25282359 63.90640253 -141 58 C-140.19046875 57.58105469 -139.3809375 57.16210938 -138.546875 56.73046875 C-132.50764359 53.73933998 -126.25886407 51.71685685 -119.8125 49.8125 C-118.9882251 49.56242187 -118.1639502 49.31234375 -117.31469727 49.0546875 C-103.07211838 45.01075143 -88.67581604 44.67378814 -73.98291016 44.73925781 C-71.13552435 44.74996044 -68.28877286 44.73930678 -65.44140625 44.7265625 C-55.06482927 44.7198316 -44.93903061 45.22562233 -34.64794922 46.57128906 C-31.70901351 46.91667597 -28.95074172 47.09057088 -26 47 C-25.72325439 46.37544922 -25.44650879 45.75089844 -25.16137695 45.10742188 C-23.88458159 42.23549592 -22.59861537 39.36776364 -21.3125 36.5 C-20.87744141 35.51773438 -20.44238281 34.53546875 -19.99414062 33.5234375 C-17.66694515 28.351892 -15.2128254 23.4803941 -12.11401367 18.72949219 C-10.58610897 16.35743938 -9.29943567 13.8778903 -8 11.375 C-5.70475195 7.09965453 -3.27812639 3.56737283 0 0 Z " fill="#FF0100" transform="translate(249,138)"/>
</svg>
