<?xml version="1.0" encoding="UTF-8"?>
<svg version="1.1" xmlns="http://www.w3.org/2000/svg" width="500" height="552">
<path d="M0 0 C1.32 0 2.64 0 4 0 C4.31710938 1.16789062 4.63421875 2.33578125 4.9609375 3.5390625 C8.47493177 16.24796548 12.49686203 28.74185475 16.74755859 41.21923828 C17.16859863 42.46044434 17.58963867 43.70165039 18.0234375 44.98046875 C18.40419434 46.09317139 18.78495117 47.20587402 19.17724609 48.35229492 C20 51 20 51 20 53 C21.30710937 53.15855469 22.61421875 53.31710938 23.9609375 53.48046875 C34.0230261 54.77315119 43.65116811 56.38415064 53.31201172 59.54956055 C57.28610842 60.84579181 57.28610842 60.84579181 61.3203125 60.265625 C61.87460937 59.84796875 62.42890625 59.4303125 63 59 C67.41167554 55.76477127 70.45829998 54.09554655 76 54 C82.21774898 55.23405705 85.41089816 57.8882489 89 63 C90.26237731 65.52475462 90.09856404 67.31200466 90.0625 70.125 C90.05347656 71.03507812 90.04445313 71.94515625 90.03515625 72.8828125 C90.01775391 73.93082031 90.01775391 73.93082031 90 75 C90.73605469 75.29132813 91.47210938 75.58265625 92.23046875 75.8828125 C102.52374614 80.03496671 110.76713213 86.07216537 119.46289062 92.86425781 C121.01483222 94.0790172 121.01483222 94.0790172 123 95 C125.62744438 93.96664701 125.62744438 93.96664701 128.6015625 92.39453125 C130.29732422 91.53698242 130.29732422 91.53698242 132.02734375 90.66210938 C133.22667095 90.04578391 134.42588896 89.42924591 135.625 88.8125 C136.78902344 88.22146484 137.95304687 87.63042969 139.15234375 87.02148438 C141.42598028 85.86664181 143.69823326 84.70907071 145.96899414 83.54858398 C152.5343181 80.19426664 159.1412353 76.9508796 165.8125 73.8125 C166.56208984 73.45736328 167.31167969 73.10222656 168.08398438 72.73632812 C168.80521484 72.39666016 169.52644531 72.05699219 170.26953125 71.70703125 C171.23789917 71.25034058 171.23789917 71.25034058 172.22583008 70.78442383 C174 70 174 70 177 69 C176.40390416 72.68035858 175.37798287 75.59595597 173.68334961 78.91040039 C173.20292709 79.85810806 172.72250458 80.80581573 172.2275238 81.78224182 C171.70771439 82.79382858 171.18790497 83.80541534 170.65234375 84.84765625 C169.56177247 87.0006123 168.47128006 89.1536083 167.38085938 91.30664062 C165.65600925 94.69404436 163.92851849 98.08007833 162.19897461 101.46508789 C160.53088182 104.7350812 158.87246397 108.00984499 157.21484375 111.28515625 C156.43209328 112.80557274 156.43209328 112.80557274 155.63352966 114.35670471 C155.15625931 115.30126022 154.67898895 116.24581573 154.18725586 117.21899414 C153.76391464 118.04774551 153.34057343 118.87649689 152.90440369 119.73036194 C151.75321833 122.21210948 151.75321833 122.21210948 152 126 C153.43135806 128.27609397 154.87947195 130.36721755 156.5 132.5 C161.89545819 139.73031597 161.89545819 139.73031597 164.19921875 143.5859375 C164.85535156 144.67132813 165.51148438 145.75671875 166.1875 146.875 C166.75855469 147.86242187 167.32960938 148.84984375 167.91796875 149.8671875 C169.91797985 152.38862787 169.91797985 152.38862787 173.54296875 152.25 C174.68378906 152.1675 175.82460938 152.085 177 152 C182.67549553 154.04317839 186.29873721 157.59747441 189 163 C189.76534811 169.86303964 189.0576499 174.39089573 185 180 C184.34 180.33 183.68 180.66 183 181 C183.81084073 187.69626892 185.43250873 194.11708916 187.09570312 200.64648438 C188.91662899 208.03408451 190.02157602 215.45795318 191 223 C211.29143237 229.80072186 231.59072436 236.55922576 252 243 C252 243.99 252 244.98 252 246 C251.2786084 246.22026855 250.5572168 246.44053711 249.81396484 246.66748047 C246.33312489 247.73282016 242.85364379 248.80251567 239.375 249.875 C238.73572571 250.07197479 238.09645142 250.26894958 237.43780518 250.47189331 C229.76407182 252.84116475 222.11393929 255.26877017 214.5 257.82421875 C213.81507477 258.05409485 213.13014954 258.28397095 212.42446899 258.52081299 C209.10091975 259.63891923 205.78034804 260.76528164 202.46240234 261.89990234 C201.26566895 262.30547363 200.06893555 262.71104492 198.8359375 263.12890625 C197.77938965 263.49056885 196.7228418 263.85223145 195.63427734 264.22485352 C193 265 193 265 190 265 C189.98582031 265.62261719 189.97164063 266.24523437 189.95703125 266.88671875 C189.5364369 275.03715516 187.80824734 282.62851741 185.81567383 290.52416992 C183.98736541 297.68934368 183.98736541 297.68934368 183 305 C184.76440022 307.83132801 184.76440022 307.83132801 187 310 C189.07794433 314.15588866 188.75028694 319.72341506 187.31640625 324.07421875 C185.06517857 328.38050905 182.27645011 330.81984897 178 333 C171.72093023 334.36046512 171.72093023 334.36046512 169 333 C168.61328125 334.30324219 168.61328125 334.30324219 168.21875 335.6328125 C166.97873798 339.05874315 165.45968465 341.8109168 163.5 344.875 C162.8915625 345.84179688 162.283125 346.80859375 161.65625 347.8046875 C161.1096875 348.52914063 160.563125 349.25359375 160 350 C159.34 350 158.68 350 158 350 C157.7525 350.721875 157.505 351.44375 157.25 352.1875 C156 355 156 355 153.75 357.4375 C152.88375 358.7059375 152.88375 358.7059375 152 360 C153.20608331 365.1429213 155.80333549 369.58785881 158.3125 374.1875 C163.34929263 383.56661554 167.97381626 393.12926724 172.5324707 402.74682617 C175.74932357 409.53778409 175.74932357 409.53778409 179.3828125 416.109375 C181 419 181 419 181 422 C176.26360742 420.54278926 171.867491 418.60983751 167.42578125 416.4375 C166.70777344 416.08956894 165.98976563 415.74163788 165.25 415.38316345 C162.93544163 414.25961795 160.62382463 413.13018109 158.3125 412 C157.52942474 411.6186087 156.74634949 411.23721741 155.93954468 410.8442688 C144.17572195 405.11398849 132.49892647 399.24841532 121 393 C120.52433594 393.31710937 120.04867188 393.63421875 119.55859375 393.9609375 C118.03275237 394.97816508 116.50668332 395.99505118 114.98046875 397.01171875 C112.7314985 398.51201476 110.48431021 400.01484418 108.23828125 401.51953125 C106.90885572 402.40885648 105.57942863 403.29817939 104.25 404.1875 C103.61247803 404.61530762 102.97495605 405.04311523 102.31811523 405.48388672 C92.56946867 412 92.56946867 412 90 412 C90.0825 413.03125 90.165 414.0625 90.25 415.125 C89.95271596 419.73290254 88.95689208 421.49841728 86 425 C81.78991577 428.46162481 78.46931699 429.90570143 73 430 C69.07188203 429.0019301 65.88771322 427.88771322 63 425 C60.89789879 425.10856635 60.89789879 425.10856635 58.53515625 425.71484375 C57.63812988 425.91577637 56.74110352 426.11670898 55.81689453 426.32373047 C54.88731934 426.54689941 53.95774414 426.77006836 53 427 C51.69264893 427.3096167 51.69264893 427.3096167 50.35888672 427.62548828 C46.82371964 428.47575179 43.29423153 429.34753371 39.76757812 430.23242188 C38.89423828 430.44576172 38.02089844 430.65910156 37.12109375 430.87890625 C36.3520874 431.0704126 35.58308105 431.26191895 34.79077148 431.45922852 C30.88588117 432.21588428 26.9555805 432.60341277 23 433 C20.77242778 439.77567447 18.54919479 446.55276186 16.32885742 453.33081055 C15.57430316 455.6325642 14.8187858 457.93400237 14.06225586 460.23510742 C12.96990659 463.55823983 11.88111968 466.88252208 10.79296875 470.20703125 C10.29122383 471.72959282 10.29122383 471.72959282 9.77934265 473.28291321 C7.64906883 479.80596572 5.74255592 486.36289034 4 493 C2.68 493.33 1.36 493.66 0 494 C-0.18473877 493.38519775 -0.36947754 492.77039551 -0.55981445 492.13696289 C-5.26753082 476.52611247 -10.25769123 461.03480858 -15.4934082 445.59399414 C-15.72655228 444.90302139 -15.95969635 444.21204865 -16.1999054 443.50013733 C-16.83657163 441.6138537 -17.47676669 439.7287622 -18.1171875 437.84375 C-19 435 -19 435 -19 433 C-19.72340576 432.96189209 -20.44681152 432.92378418 -21.19213867 432.88452148 C-28.83656318 432.37898823 -35.91867545 431.02508742 -43.3125 429.0625 C-44.8603418 428.66514648 -44.8603418 428.66514648 -46.43945312 428.25976562 C-51.64880722 426.91487792 -56.83552248 425.50782348 -62 424 C-62.20625 424.598125 -62.4125 425.19625 -62.625 425.8125 C-64.62109037 428.98809831 -66.48599992 429.72218179 -70 431 C-75.39108278 431.8135634 -79.89103324 431.35577168 -84.49609375 428.33203125 C-88.72744705 424.58426118 -90.61911615 419.5862964 -91 414 C-90.67 413.01 -90.34 412.02 -90 411 C-90.66128906 410.76925781 -91.32257813 410.53851563 -92.00390625 410.30078125 C-95.89144553 408.61297085 -99.35798038 406.44422593 -102.9375 404.1875 C-103.62779297 403.76146484 -104.31808594 403.33542969 -105.02929688 402.89648438 C-108.35355151 400.81370493 -111.29633745 398.77082208 -114.12890625 396.05078125 C-115.07636719 395.37402344 -116.02382812 394.69726562 -117 394 C-121.51511229 395.09457268 -125.52283329 397.14471104 -129.65625 399.23046875 C-130.28043823 399.54397781 -130.90462646 399.85748688 -131.54772949 400.18049622 C-133.53374768 401.1790557 -135.5169186 402.18312304 -137.5 403.1875 C-138.79929009 403.84217225 -140.09876798 404.49647194 -141.3984375 405.15039062 C-143.98240157 406.45099507 -146.56529109 407.75369867 -149.14746094 409.05786133 C-154.09682661 411.55571829 -159.05757907 414.03067375 -164.01855469 416.50537109 C-165.87242906 417.4347372 -167.72274967 418.37127175 -169.56738281 419.31884766 C-174.79861414 422 -174.79861414 422 -177 422 C-176.3823197 417.13457978 -174.29685579 413.28679943 -172.0625 409 C-168.77101703 402.62001105 -168.77101703 402.62001105 -166 396 C-165.34 396 -164.68 396 -164 396 C-163.90017822 395.31139893 -163.80035645 394.62279785 -163.69750977 393.91333008 C-162.86176843 390.42264005 -161.46280781 387.58878298 -159.83984375 384.38671875 C-159.53051407 383.77230423 -159.22118439 383.15788971 -158.90248108 382.52485657 C-157.91978419 380.5761644 -156.92879726 378.63182887 -155.9375 376.6875 C-155.26702497 375.3616077 -154.59709714 374.03543854 -153.92773438 372.70898438 C-152.29147782 369.46942749 -150.64776275 366.23372251 -149 363 C-149.93722484 361.57968713 -150.87641472 360.16067084 -151.81640625 358.7421875 C-152.60059937 357.55665283 -152.60059937 357.55665283 -153.40063477 356.34716797 C-154.85196043 354.21725728 -156.36189596 352.16385084 -157.9375 350.125 C-168 336.88627321 -168 336.88627321 -168 333 C-168.56847656 333.18691406 -169.13695312 333.37382812 -169.72265625 333.56640625 C-173.8058659 334.34382695 -177.35607559 332.8187145 -181 331 C-184.19473016 328.17360343 -186.80718557 324.93446609 -187.23828125 320.609375 C-187.39781247 314.46322475 -187.14219143 310.87316639 -183 306 C-182.34 305.01 -181.68 304.02 -181 303 C-181.61162063 300.33960089 -182.32064292 297.88895199 -183.1875 295.3125 C-186.38200454 285.19275428 -189.31210943 274.69385456 -189 264 C-189.54794724 263.88671356 -190.09589447 263.77342712 -190.66044617 263.65670776 C-196.13602563 262.4876692 -201.44020928 261.02954891 -206.76953125 259.3203125 C-207.97291389 258.93925858 -207.97291389 258.93925858 -209.2006073 258.55050659 C-211.73906553 257.74560665 -214.27576209 256.93530311 -216.8125 256.125 C-218.50054493 255.58950914 -220.18869527 255.05435043 -221.87695312 254.51953125 C-230.60817693 251.74861883 -239.32231069 248.93492509 -248 246 C-248 245.01 -248 244.02 -248 243 C-246.9891333 242.67314209 -245.9782666 242.34628418 -244.93676758 242.00952148 C-217.43185306 233.11588584 -217.43185306 233.11588584 -190 224 C-189.90501221 223.36723145 -189.81002441 222.73446289 -189.7121582 222.08251953 C-187.63107669 208.42519053 -185.06926814 195.20844411 -181 182 C-181.78761719 181.39671875 -182.57523437 180.7934375 -183.38671875 180.171875 C-187.62090482 176.6528803 -188.83436559 173.49070967 -189.4375 168.0625 C-189.24364381 163.65437884 -187.80889592 160.38441894 -185 157 C-179.5951743 152.80850252 -175.79210762 151.75301427 -169 152 C-168.34 152.33 -167.68 152.66 -167 153 C-166.76667969 152.16082031 -166.53335938 151.32164062 -166.29296875 150.45703125 C-164.78290479 146.41954906 -162.73936667 143.22328729 -160.3125 139.6875 C-159.87131836 139.02886963 -159.43013672 138.37023926 -158.97558594 137.69165039 C-155.93399935 133.20040261 -152.67111295 129.0158722 -148.984375 125.02734375 C-147.68761907 122.92603237 -147.68761907 122.92603237 -148.77986145 120.19975281 C-149.89264884 117.2815231 -151.11713627 114.55537153 -152.5378418 111.77661133 C-153.29323494 110.29025932 -153.29323494 110.29025932 -154.06388855 108.77388 C-154.60354752 107.72056992 -155.14320648 106.66725983 -155.69921875 105.58203125 C-156.83692491 103.33675895 -157.97428447 101.091311 -159.11132812 98.84570312 C-160.9048239 95.31468896 -162.70139134 91.78532779 -164.50415039 88.2590332 C-166.24464628 84.85025626 -167.97276943 81.4354387 -169.69921875 78.01953125 C-170.24495041 76.96014847 -170.79068207 75.90076569 -171.35295105 74.8092804 C-171.84709 73.82783554 -172.34122894 72.84639069 -172.8503418 71.83520508 C-173.29065231 70.97171951 -173.73096283 70.10823395 -174.18461609 69.21858215 C-175 67 -175 67 -174 64 C-172.30768229 64.84615885 -170.61537207 65.69233268 -168.9230957 66.53857422 C-167.45561478 67.27223225 -165.98800078 68.00562416 -164.52026367 68.73876953 C-161.34509144 70.32514599 -158.17113445 71.91342873 -155.00390625 73.515625 C-147.58018249 77.2651981 -140.0771671 80.84086811 -132.55981445 84.39794922 C-127.34050974 86.87048301 -122.15605059 89.39799307 -117 92 C-116.2265625 91.40832031 -115.453125 90.81664063 -114.65625 90.20703125 C-98.49629918 77.94706856 -98.49629918 77.94706856 -90 76 C-90.226875 75.175 -90.45375 74.35 -90.6875 73.5 C-91.09157849 68.97432093 -90.30023571 65.90884649 -88 62 C-84.09377957 57.73448099 -80.68855217 55.26358355 -74.8125 54.6875 C-70.22385558 55.0636184 -66.81845105 56.4481571 -63 59 C-62.67 59.66 -62.34 60.32 -62 61 C-56.32569993 60.32030591 -50.95714795 59.02116956 -45.4375 57.5625 C-35.72252131 55.06334073 -26.08552575 52.92895277 -16 53 C-15.84797119 52.33460205 -15.69594238 51.6692041 -15.53930664 50.98364258 C-13.32990638 41.71476786 -10.41637247 32.72935728 -7.4375 23.6875 C-6.69237582 21.41534314 -5.94845927 19.14279941 -5.20582581 16.86982727 C-4.74780615 15.46904319 -4.28823306 14.06876565 -3.82676697 12.66911316 C-2.44944989 8.46998215 -1.18959671 4.25495035 0 0 Z M33 79 C34 82 34 82 34 82 Z M32 84 C32.66 85.32 33.32 86.64 34 88 C34.66 87.67 35.32 87.34 36 87 C35.34 86.01 34.68 85.02 34 84 C33.34 84 32.68 84 32 84 Z M-51 87 C-50 89 -50 89 -50 89 Z M-17 88 C-18.37432457 91.81756824 -17.67975039 95.07255329 -17 99 C-16.01 98.67 -15.02 98.34 -14 98 C-14.66 98 -15.32 98 -16 98 C-16 94.7 -16 91.4 -16 88 C-16.33 88 -16.66 88 -17 88 Z M6 89 C6.33 91.31 6.66 93.62 7 96 C7.33 96 7.66 96 8 96 C8 94.02 8 92.04 8 90 C7.34 89.67 6.68 89.34 6 89 Z M51 90 C52 94 52 94 52 94 Z M37 92 C38 94 38 94 38 94 Z M-75 95 C-74 97 -74 97 -74 97 Z M36 94 C35.34 94.66 34.68 95.32 34 96 C34.99 96 35.98 96 37 96 C36.67 95.34 36.34 94.68 36 94 Z M44 95 C43.67 95.66 43.34 96.32 43 97 C43.66 97.66 44.32 98.32 45 99 C45.33 98.01 45.66 97.02 46 96 C45.34 95.67 44.68 95.34 44 95 Z M51 95 C52 98 52 98 52 98 Z M-41 96 C-37 97 -37 97 -37 97 Z M-23 97 C-22 99 -22 99 -22 99 Z M26 97 C26.66 97.66 27.32 98.32 28 99 C28 98.34 28 97.68 28 97 C27.34 97 26.68 97 26 97 Z M68 99 C68.66 99.66 69.32 100.32 70 101 C70 100.34 70 99.68 70 99 C69.34 99 68.68 99 68 99 Z M-51 100 C-50 103 -50 103 -50 103 Z M51 100 C52 102 52 102 52 102 Z M62 100 C62.66 100.66 63.32 101.32 64 102 C64 101.34 64 100.68 64 100 C63.34 100 62.68 100 62 100 Z M92 102 C93 104 93 104 93 104 Z M-85 104 C-84.34 104.66 -83.68 105.32 -83 106 C-83 105.34 -83 104.68 -83 104 C-83.66 104 -84.32 104 -85 104 Z M88 106 C86.96986723 107.64821244 85.96885372 109.31503702 85 111 C85.99 110.67 86.98 110.34 88 110 C88.73323796 107.98491642 88.73323796 107.98491642 89 106 C88.67 106 88.34 106 88 106 Z M60 107 C61.65 108.32 63.3 109.64 65 111 C65.33 110.01 65.66 109.02 66 108 C64.93354885 106.70366379 64.93354885 106.70366379 62.4375 106.9375 C61.633125 106.958125 60.82875 106.97875 60 107 Z M84 113 C85 115 85 115 85 115 Z M92 116 C96 117 96 117 96 117 Z M1 117 C1 117.66 1 118.32 1 119 C1.66 118.67 2.32 118.34 3 118 C2.34 117.67 1.68 117.34 1 117 Z M-50 118 C-49.67 118.66 -49.34 119.32 -49 120 C-48.67 119.34 -48.34 118.68 -48 118 C-48.66 118 -49.32 118 -50 118 Z M-92 119 C-91 121 -91 121 -91 121 Z M-44 120 C-44 120.33 -44 120.66 -44 121 C-41.69 121 -39.38 121 -37 121 C-37 120.67 -37 120.34 -37 120 C-39.31 120 -41.62 120 -44 120 Z M37 120 C37 120.33 37 120.66 37 121 C38.98 121 40.96 121 43 121 C43 120.67 43 120.34 43 120 C41.02 120 39.04 120 37 120 Z M-114 121 C-114.33 123.31 -114.66 125.62 -115 128 C-113.25372522 125.38058783 -112.61277612 123.96175123 -112 121 C-112.66 121 -113.32 121 -114 121 Z M33 121 C32.67 121.66 32.34 122.32 32 123 C33.65 123 35.3 123 37 123 C37 122.34 37 121.68 37 121 C35.68 121 34.36 121 33 121 Z M-89 123 C-88 126 -88 126 -88 126 Z M-38 124 C-34 125 -34 125 -34 125 Z M-29 123 C-29.99 123.66 -30.98 124.32 -32 125 C-30.35 125 -28.7 125 -27 125 C-27.66 124.34 -28.32 123.68 -29 123 Z M-45 127 C-42.525 127.495 -42.525 127.495 -40 128 C-39.67 127.01 -39.34 126.02 -39 125 C-42.18490007 124.7226499 -42.18490007 124.7226499 -45 127 Z M57 125 C58 127 58 127 58 127 Z M95 126 C95.33 126.66 95.66 127.32 96 128 C96.33 127.34 96.66 126.68 97 126 C96.34 126 95.68 126 95 126 Z M45 128 C45 128.66 45 129.32 45 130 C46.32 129.34 47.64 128.68 49 128 C47.68 128 46.36 128 45 128 Z M58 128 C59 130 59 130 59 130 Z M-35 129 C-35 129.33 -35 129.66 -35 130 C-32.03 130 -29.06 130 -26 130 C-26 129.67 -26 129.34 -26 129 C-28.97 129 -31.94 129 -35 129 Z M118 129 C118 129.66 118 130.32 118 131 C118.99 130.67 119.98 130.34 121 130 C120.01 129.67 119.02 129.34 118 129 Z M-50 129 C-50.66 129.66 -51.32 130.32 -52 131 C-51.01 131.33 -50.02 131.66 -49 132 C-49.33 131.01 -49.66 130.02 -50 129 Z M98 130 C98 130.33 98 130.66 98 131 C99.98 131 101.96 131 104 131 C104 130.67 104 130.34 104 130 C102.02 130 100.04 130 98 130 Z M123 130 C123.33 131.32 123.66 132.64 124 134 C124.33 133.34 124.66 132.68 125 132 C124.34 131.34 123.68 130.68 123 130 Z M-3 131 C-2 133 -2 133 -2 133 Z M33 131 C33 131.33 33 131.66 33 132 C34.65 132 36.3 132 38 132 C38 131.67 38 131.34 38 131 C36.35 131 34.7 131 33 131 Z M-63 134 C-63.33 135.65 -63.66 137.3 -64 139 C-62.68 137.68 -61.36 136.36 -60 135 C-60.99 134.67 -61.98 134.34 -63 134 Z M-107 135 C-106.67 135.99 -106.34 136.98 -106 138 C-105.34 137.34 -104.68 136.68 -104 136 C-104.99 135.67 -105.98 135.34 -107 135 Z M5 135 C6 137 6 137 6 137 Z M63 136 C62.67 136.99 62.34 137.98 62 139 C63.37168238 141.19038423 63.37168238 141.19038423 65 143 C64.67 140.69 64.34 138.38 64 136 C63.67 136 63.34 136 63 136 Z M30 139 C30 139.33 30 139.66 30 140 C31.98 140 33.96 140 36 140 C36 139.67 36 139.34 36 139 C34.02 139 32.04 139 30 139 Z M-126 140 C-125 142 -125 142 -125 142 Z M124 141 C128 142 128 142 128 142 Z M110 143 C111 145 111 145 111 145 Z M121 143 C121 143.99 121 144.98 121 146 C121.66 146.33 122.32 146.66 123 147 C122.34 145.68 121.68 144.36 121 143 Z M-62 148 C-61 150 -61 150 -61 150 Z M-133 149 C-133.33 149.66 -133.66 150.32 -134 151 C-133.34 151 -132.68 151 -132 151 C-132.33 150.34 -132.66 149.68 -133 149 Z M-127 149 C-127.33 149.99 -127.66 150.98 -128 152 C-127.34 152 -126.68 152 -126 152 C-126.33 151.01 -126.66 150.02 -127 149 Z M-63 151 C-62 153 -62 153 -62 153 Z M-12 152 C-11 154 -11 154 -11 154 Z M-130 153 C-129 155 -129 155 -129 155 Z M-64 154 C-63 156 -63 156 -63 156 Z M58 154 C58 155.98 58 157.96 58 160 C58.33 160 58.66 160 59 160 C59 158.02 59 156.04 59 154 C58.67 154 58.34 154 58 154 Z M-137 155 C-137 157.31 -137 159.62 -137 162 C-136.67 162 -136.34 162 -136 162 C-136 159.69 -136 157.38 -136 155 C-136.33 155 -136.66 155 -137 155 Z M92 155 C93 157 93 157 93 157 Z M135 155 C139 156 139 156 139 156 Z M65 156 C66 158 66 158 66 158 Z M-140 157 C-139 161 -139 161 -139 161 Z M-55 157 C-54 160 -54 160 -54 160 Z M66 162 C67 166 67 166 67 166 Z M-67 165 C-66 167 -66 167 -66 167 Z M-132 166 C-131 168 -131 168 -131 168 Z M-75 167 C-74 169 -74 169 -74 169 Z M-57 168 C-57 169.65 -57 171.3 -57 173 C-56.67 173 -56.34 173 -56 173 C-56 171.35 -56 169.7 -56 168 C-56.33 168 -56.66 168 -57 168 Z M-133 169 C-132 171 -132 171 -132 171 Z M-68 169 C-67 172 -67 172 -67 172 Z M58 169 C57.67 170.65 57.34 172.3 57 174 C57.66 174 58.32 174 59 174 C59 172.35 59 170.7 59 169 C58.67 169 58.34 169 58 169 Z M-80 170 C-76 171 -76 171 -76 171 Z M-135 172 C-134 175 -134 175 -134 175 Z M34 174 C34 174.33 34 174.66 34 175 C36.31 175 38.62 175 41 175 C41 174.67 41 174.34 41 174 C38.69 174 36.38 174 34 174 Z M-141 175 C-140 177 -140 177 -140 177 Z M-136 175 C-136.33 176.32 -136.66 177.64 -137 179 C-136.34 178.67 -135.68 178.34 -135 178 C-135.33 177.01 -135.66 176.02 -136 175 Z M153 175 C154 177 154 177 154 177 Z M-150 178 C-149 180 -149 180 -149 180 Z M-85 178 C-85 178.33 -85 178.66 -85 179 C-83.35 179 -81.7 179 -80 179 C-80 178.67 -80 178.34 -80 178 C-81.65 178 -83.3 178 -85 178 Z M79 178 C79 178.33 79 178.66 79 179 C83.29 179 87.58 179 92 179 C92 178.67 92 178.34 92 178 C87.71 178 83.42 178 79 178 Z M-138 179 C-138 180.98 -138 182.96 -138 185 C-137.67 185 -137.34 185 -137 185 C-137 183.02 -137 181.04 -137 179 C-137.33 179 -137.66 179 -138 179 Z M-109 180 C-108.34 180.66 -107.68 181.32 -107 182 C-106.34 181.34 -105.68 180.68 -105 180 C-106.32 180 -107.64 180 -109 180 Z M158 180 C158.99 181.485 158.99 181.485 160 183 C160 182.01 160 181.02 160 180 C159.34 180 158.68 180 158 180 Z M-59 181 C-59 181.33 -59 181.66 -59 182 C-57.02 182 -55.04 182 -53 182 C-53 181.67 -53 181.34 -53 181 C-54.98 181 -56.96 181 -59 181 Z M109 181 C109.99 181.99 110.98 182.98 112 184 C112.33 183.34 112.66 182.68 113 182 C111.68 181.67 110.36 181.34 109 181 Z M-64 182 C-63 185 -63 185 -63 185 Z M63 183 C63 186.3 63 189.6 63 193 C63.33 193 63.66 193 64 193 C64 189.7 64 186.4 64 183 C63.67 183 63.34 183 63 183 Z M39 184 C39 184.99 39 185.98 39 187 C39.66 186.01 40.32 185.02 41 184 C40.34 184 39.68 184 39 184 Z M144 184 C144 184.66 144 185.32 144 186 C144.99 185.67 145.98 185.34 147 185 C146.01 184.67 145.02 184.34 144 184 Z M151 184 C155 185 155 185 155 185 Z M-38 185 C-38 185.66 -38 186.32 -38 187 C-37.34 187 -36.68 187 -36 187 C-36 186.34 -36 185.68 -36 185 C-36.66 185 -37.32 185 -38 185 Z M75 185 C75 185.33 75 185.66 75 186 C78.63 186 82.26 186 86 186 C86 185.67 86 185.34 86 185 C82.37 185 78.74 185 75 185 Z M74 186 C74 189.63 74 193.26 74 197 C74.33 197 74.66 197 75 197 C75 193.37 75 189.74 75 186 C74.67 186 74.34 186 74 186 Z M-152 187 C-152 189.31 -152 191.62 -152 194 C-151.67 194 -151.34 194 -151 194 C-151 191.69 -151 189.38 -151 187 C-151.33 187 -151.66 187 -152 187 Z M-112 187 C-111 189 -111 189 -111 189 Z M-91 188 C-91 188.33 -91 188.66 -91 189 C-89.35 189 -87.7 189 -86 189 C-86 188.67 -86 188.34 -86 188 C-87.65 188 -89.3 188 -91 188 Z M23 188 C23.33 188.99 23.66 189.98 24 191 C24 190.01 24 189.02 24 188 C23.67 188 23.34 188 23 188 Z M-125 189 C-124.67 190.32 -124.34 191.64 -124 193 C-123.67 191.68 -123.34 190.36 -123 189 C-123.66 189 -124.32 189 -125 189 Z M-94 189 C-93.67 189.66 -93.34 190.32 -93 191 C-92.67 190.34 -92.34 189.68 -92 189 C-92.66 189 -93.32 189 -94 189 Z M158 189 C157.67 189.66 157.34 190.32 157 191 C157.99 190.67 158.98 190.34 160 190 C159.34 189.67 158.68 189.34 158 189 Z M-63 190 C-63 191.65 -63 193.3 -63 195 C-62.67 195 -62.34 195 -62 195 C-62 193.35 -62 191.7 -62 190 C-62.33 190 -62.66 190 -63 190 Z M-114 191 C-114 191.66 -114 192.32 -114 193 C-113.34 192.67 -112.68 192.34 -112 192 C-112.66 191.67 -113.32 191.34 -114 191 Z M-41 192 C-40 194 -40 194 -40 194 Z M23 193 C24 197 24 197 24 197 Z M26 193 C26 194.65 26 196.3 26 198 C26.33 198 26.66 198 27 198 C27 196.35 27 194.7 27 193 C26.67 193 26.34 193 26 193 Z M43 193 C44 195 44 195 44 195 Z M161 193 C160.67 193.66 160.34 194.32 160 195 C160.99 194.67 161.98 194.34 163 194 C162.34 193.67 161.68 193.34 161 193 Z M-142 194 C-141 196 -141 196 -141 196 Z M-42 194 C-41 196 -41 196 -41 196 Z M115 194 C116 196 116 196 116 196 Z M-20 195 C-19 197 -19 197 -19 197 Z M-16 195 C-15 197 -15 197 -15 197 Z M-5 195 C-5.33 197.97 -5.66 200.94 -6 204 C-5.34 204 -4.68 204 -4 204 C-4 201.03 -4 198.06 -4 195 C-4.33 195 -4.66 195 -5 195 Z M-143 196 C-145.31 197.32 -147.62 198.64 -150 200 C-148.515 200.99 -148.515 200.99 -147 202 C-145.35 200.68 -143.7 199.36 -142 198 C-142.33 197.34 -142.66 196.68 -143 196 Z M-73 196 C-72 198 -72 198 -72 198 Z M44 196 C45 198 45 198 45 198 Z M-125 197 C-124 200 -124 200 -124 200 Z M-62 197 C-61 199 -61 199 -61 199 Z M148 197 C148.33 197.99 148.66 198.98 149 200 C149 199.01 149 198.02 149 197 C148.67 197 148.34 197 148 197 Z M8 198 C9 201 9 201 9 201 Z M45 198 C46 201 46 201 46 201 Z M155 199 C156.65 199 158.3 199 160 199 C160.33 198.34 160.66 197.68 161 197 C158.53721199 197 157.14775881 197.85452863 155 199 Z M34 199 C35 201 35 201 35 201 Z M62 199 C63 203 63 203 63 203 Z M-44 200 C-43 202 -43 202 -43 202 Z M-32 200 C-31 202 -31 202 -31 202 Z M29 200 C28.67 201.65 28.34 203.3 28 205 C28.66 205 29.32 205 30 205 C30 203.35 30 201.7 30 200 C29.67 200 29.34 200 29 200 Z M-116 201 C-115 203 -115 203 -115 203 Z M-72 202 C-71 204 -71 204 -71 204 Z M-61 202 C-60 204 -60 204 -60 204 Z M118 202 C118 202.99 118 203.98 118 205 C118.66 204.67 119.32 204.34 120 204 C119.34 203.34 118.68 202.68 118 202 Z M124 202 C125 206 125 206 125 206 Z M157 202 C157.99 202.495 157.99 202.495 159 203 C158.67 203.99 158.34 204.98 158 206 C158.66 206.33 159.32 206.66 160 207 C160 205.35 160 203.7 160 202 C159.01 202 158.02 202 157 202 Z M-121 204 C-120 206 -120 206 -120 206 Z M-126 205 C-125 207 -125 207 -125 207 Z M-115 205 C-114 208 -114 208 -114 208 Z M-60 205 C-60 205.99 -60 206.98 -60 208 C-59.34 207.67 -58.68 207.34 -58 207 C-58.66 206.34 -59.32 205.68 -60 205 Z M61 205 C61 205.66 61 206.32 61 207 C60.01 207.495 60.01 207.495 59 208 C59.99 208 60.98 208 62 208 C61.67 207.01 61.34 206.02 61 205 Z M161 205 C162 207 162 207 162 207 Z M72 206 C73 208 73 208 73 208 Z M-149 207 C-148.67 207.99 -148.34 208.98 -148 210 C-147.67 209.01 -147.34 208.02 -147 207 C-147.66 207 -148.32 207 -149 207 Z M-18 207 C-18.33 207.99 -18.66 208.98 -19 210 C-18.34 210 -17.68 210 -17 210 C-17.33 209.01 -17.66 208.02 -18 207 Z M29 207 C30 209 30 209 30 209 Z M-127 208 C-126 212 -126 212 -126 212 Z M-105 208 C-104 211 -104 211 -104 211 Z M37 208 C37 208.66 37 209.32 37 210 C37.66 209.67 38.32 209.34 39 209 C38.34 208.67 37.68 208.34 37 208 Z M116 208 C117 210 117 210 117 210 Z M125 208 C126 211 126 211 126 211 Z M-9 209 C-8 211 -8 211 -8 211 Z M107 210 C107 211.98 107 213.96 107 216 C107.33 216 107.66 216 108 216 C108 214.02 108 212.04 108 210 C107.67 210 107.34 210 107 210 Z M33 211 C32.67 212.65 32.34 214.3 32 216 C32.66 216 33.32 216 34 216 C34 214.35 34 212.7 34 211 C33.67 211 33.34 211 33 211 Z M71 211 C72 213 72 213 72 213 Z M122 211 C123 213 123 213 123 213 Z M-126 213 C-125.67 214.65 -125.34 216.3 -125 218 C-124.67 218 -124.34 218 -124 218 C-124 216.35 -124 214.7 -124 213 C-124.66 213 -125.32 213 -126 213 Z M-114 213 C-113 215 -113 215 -113 215 Z M115 213 C115 215.97 115 218.94 115 222 C115.33 222 115.66 222 116 222 C116 219.03 116 216.06 116 213 C115.67 213 115.34 213 115 213 Z M39 214 C39 216.31 39 218.62 39 221 C39.66 220.67 40.32 220.34 41 220 C40.67 218.02 40.34 216.04 40 214 C39.67 214 39.34 214 39 214 Z M123 214 C122.67 216.64 122.34 219.28 122 222 C123.32 220.68 124.64 219.36 126 218 C125.34 218 124.68 218 124 218 C123.67 216.68 123.34 215.36 123 214 Z M126 214 C127 217 127 217 127 217 Z M-68 215 C-68.33 215.99 -68.66 216.98 -69 218 C-68.34 218 -67.68 218 -67 218 C-67.33 217.01 -67.66 216.02 -68 215 Z M-32 215 C-31 217 -31 217 -31 217 Z M70 215 C71 217 71 217 71 217 Z M-150 216 C-150 218.31 -150 220.62 -150 223 C-149.67 223 -149.34 223 -149 223 C-149 220.69 -149 218.38 -149 216 C-149.33 216 -149.66 216 -150 216 Z M-12 216 C-11 218 -11 218 -11 218 Z M-115 217 C-114 219 -114 219 -114 219 Z M-3 217 C-2 219 -2 219 -2 219 Z M152 217 C152 218.65 152 220.3 152 222 C152.33 222 152.66 222 153 222 C153 220.35 153 218.7 153 217 C152.67 217 152.34 217 152 217 Z M-166 218 C-165.67 218.99 -165.34 219.98 -165 221 C-164.01 220.34 -163.02 219.68 -162 219 C-163.32 218.67 -164.64 218.34 -166 218 Z M33 218 C34 221 34 221 34 221 Z M163 218 C164 220 164 220 164 220 Z M166 218 C167 220 167 220 167 220 Z M-157 220 C-156.34 220.66 -155.68 221.32 -155 222 C-155 221.34 -155 220.68 -155 220 C-155.66 220 -156.32 220 -157 220 Z M-61 220 C-60 223 -60 223 -60 223 Z M-34 220 C-33 222 -33 222 -33 222 Z M48 220 C49 223 49 223 49 223 Z M-145 221 C-145.33 221.66 -145.66 222.32 -146 223 C-145.34 223 -144.68 223 -144 223 C-144.33 222.34 -144.66 221.68 -145 221 Z M61 221 C61.66 221.66 62.32 222.32 63 223 C63 222.34 63 221.68 63 221 C62.34 221 61.68 221 61 221 Z M-35 222 C-34 225 -34 225 -34 225 Z M29 222 C30 224 30 224 30 224 Z M49 223 C48.67 224.65 48.34 226.3 48 228 C49.485 228.99 49.485 228.99 51 230 C50.67 227.69 50.34 225.38 50 223 C49.67 223 49.34 223 49 223 Z M-54 224 C-53 226 -53 226 -53 226 Z M158 224 C157.67 224.66 157.34 225.32 157 226 C157.66 226 158.32 226 159 226 C158.67 225.34 158.34 224.68 158 224 Z M-148 226 C-147 228 -147 228 -147 228 Z M-47 226 C-46 229 -46 229 -46 229 Z M-4 226 C-4.33 226.66 -4.66 227.32 -5 228 C-3.68 227.34 -2.36 226.68 -1 226 C-1.99 226 -2.98 226 -4 226 Z M15 227 C16 229 16 229 16 229 Z M40 227 C41 229 41 229 41 229 Z M44 227 C43.67 228.65 43.34 230.3 43 232 C43.66 232 44.32 232 45 232 C45 230.35 45 228.7 45 227 C44.67 227 44.34 227 44 227 Z M60 228 C61 230 61 230 61 230 Z M-41 229 C-40.67 229.66 -40.34 230.32 -40 231 C-39.67 230.34 -39.34 229.68 -39 229 C-39.66 229 -40.32 229 -41 229 Z M-51 230 C-50 232 -50 232 -50 232 Z M36 230 C37 232 37 232 37 232 Z M29 231 C30 235 30 235 30 235 Z M39 231 C40 233 40 233 40 233 Z M-67 233 C-66 235 -66 235 -66 235 Z M-50 233 C-49 235 -49 235 -49 235 Z M-160 234 C-160 234.66 -160 235.32 -160 236 C-159.34 236 -158.68 236 -158 236 C-158 235.34 -158 234.68 -158 234 C-158.66 234 -159.32 234 -160 234 Z M50 234 C51 238 51 238 51 238 Z M160 234 C159.67 235.32 159.34 236.64 159 238 C159.66 238 160.32 238 161 238 C161.33 237.01 161.66 236.02 162 235 C161.34 234.67 160.68 234.34 160 234 Z M-92 236 C-91.67 236.66 -91.34 237.32 -91 238 C-90.67 237.34 -90.34 236.68 -90 236 C-90.66 236 -91.32 236 -92 236 Z M-167 237 C-166.67 237.99 -166.34 238.98 -166 240 C-166 239.01 -166 238.02 -166 237 C-166.33 237 -166.66 237 -167 237 Z M46 237 C47 240 47 240 47 240 Z M152 237 C151.67 237.66 151.34 238.32 151 239 C151.99 238.67 152.98 238.34 154 238 C153.34 237.67 152.68 237.34 152 237 Z M168 237 C168 237.66 168 238.32 168 239 C168.66 238.67 169.32 238.34 170 238 C169.34 237.67 168.68 237.34 168 237 Z M-152 238 C-151.34 238.66 -150.68 239.32 -150 240 C-150 239.34 -150 238.68 -150 238 C-150.66 238 -151.32 238 -152 238 Z M24 238 C25 240 25 240 25 240 Z M-40 239 C-40.33 239.66 -40.66 240.32 -41 241 C-40.34 241 -39.68 241 -39 241 C-39.33 240.34 -39.66 239.68 -40 239 Z M27 240 C28 244 28 244 28 244 Z M49 240 C50 242 50 242 50 242 Z M24 243 C25 245 25 245 25 245 Z M-161 244 C-161.33 245.32 -161.66 246.64 -162 248 C-160.68 248.33 -159.36 248.66 -158 249 C-157.67 247.68 -157.34 246.36 -157 245 C-158.32 244.67 -159.64 244.34 -161 244 Z M-109 244 C-108 247 -108 247 -108 247 Z M-50 244 C-49 246 -49 246 -49 246 Z M-40 244 C-40.33 245.65 -40.66 247.3 -41 249 C-40.34 248.67 -39.68 248.34 -39 248 C-38.34786708 245.97536745 -38.34786708 245.97536745 -38 244 C-38.66 244 -39.32 244 -40 244 Z M109 244 C110 247 110 247 110 247 Z M159 244 C158.67 245.32 158.34 246.64 158 248 C159.32 248.33 160.64 248.66 162 249 C162.33 247.35 162.66 245.7 163 244 C161.68 244 160.36 244 159 244 Z M-87 245 C-86 247 -86 247 -86 247 Z M64 245 C65 247 65 247 65 247 Z M88 245 C89 247 89 247 89 247 Z M-35 247 C-35 248.65 -35 250.3 -35 252 C-34.67 252 -34.34 252 -34 252 C-34 250.35 -34 248.7 -34 247 C-34.33 247 -34.66 247 -35 247 Z M-22 247 C-22.33 248.98 -22.66 250.96 -23 253 C-20.89767656 250.1315587 -20.89767656 250.1315587 -20 247 C-20.66 247 -21.32 247 -22 247 Z M30 249 C30 249.66 30 250.32 30 251 C30.66 250.67 31.32 250.34 32 250 C31.34 249.67 30.68 249.34 30 249 Z M-27 250 C-26 253 -26 253 -26 253 Z M14 251 C15 254 15 254 15 254 Z M49 251 C49.65585189 254.60992379 49.65585189 254.60992379 51 258 C51.66 257.67 52.32 257.34 53 257 C52.01 255.02 51.02 253.04 50 251 C49.67 251 49.34 251 49 251 Z M153 252 C152.67 252.99 152.34 253.98 152 255 C152.99 254.67 153.98 254.34 155 254 C154.34 253.34 153.68 252.68 153 252 Z M-168 253 C-168 253.66 -168 254.32 -168 255 C-167.34 255 -166.68 255 -166 255 C-166 254.34 -166 253.68 -166 253 C-166.66 253 -167.32 253 -168 253 Z M-45 253 C-44 257 -44 257 -44 257 Z M-24 253 C-23 256 -23 256 -23 256 Z M41 253 C42 255 42 255 42 255 Z M-152 254 C-151.67 254.66 -151.34 255.32 -151 256 C-150.34 256 -149.68 256 -149 256 C-149 255.34 -149 254.68 -149 254 C-149.99 254 -150.98 254 -152 254 Z M46 254 C46 255.65 46 257.3 46 259 C46.66 258.34 47.32 257.68 48 257 C47.34 256.01 46.68 255.02 46 254 Z M68 254 C69 256 69 256 69 256 Z M-49 255 C-48.67 255.99 -48.34 256.98 -48 258 C-47.67 257.01 -47.34 256.02 -47 255 C-47.66 255 -48.32 255 -49 255 Z M-28 256 C-27 258 -27 258 -27 258 Z M42 256 C43 260 43 260 43 260 Z M160 256 C160 256.66 160 257.32 160 258 C160.66 258 161.32 258 162 258 C162 257.34 162 256.68 162 256 C161.34 256 160.68 256 160 256 Z M-160 257 C-160 257.99 -160 258.98 -160 260 C-159.34 259.34 -158.68 258.68 -158 258 C-158.66 257.67 -159.32 257.34 -160 257 Z M-50 258 C-49 260 -49 260 -49 260 Z M69 258 C69 258.66 69 259.32 69 260 C69.99 259.67 70.98 259.34 72 259 C71.01 258.67 70.02 258.34 69 258 Z M3 261 C3.66 261.66 4.32 262.32 5 263 C5.33 262.34 5.66 261.68 6 261 C5.01 261 4.02 261 3 261 Z M50 261 C50.66 261.66 51.32 262.32 52 263 C52 262.34 52 261.68 52 261 C51.34 261 50.68 261 50 261 Z M32 262 C32 262.33 32 262.66 32 263 C34.31 263 36.62 263 39 263 C39 262.67 39 262.34 39 262 C36.69 262 34.38 262 32 262 Z M55 263 C56 265 56 265 56 265 Z M-60 264 C-59 266 -59 266 -59 266 Z M16 264 C16.33 264.66 16.66 265.32 17 266 C17.33 265.34 17.66 264.68 18 264 C17.34 264 16.68 264 16 264 Z M148 264 C149 268 149 268 149 268 Z M47 265 C47 265.66 47 266.32 47 267 C47.66 266.67 48.32 266.34 49 266 C48.34 265.67 47.68 265.34 47 265 Z M151 265 C152 267 152 267 152 267 Z M61 267 C62 270 62 270 62 270 Z M-114 268 C-114 270.97 -114 273.94 -114 277 C-113.67 277 -113.34 277 -113 277 C-113 274.03 -113 271.06 -113 268 C-113.33 268 -113.66 268 -114 268 Z M-1 268 C-0.67 268.66 -0.34 269.32 0 270 C0.33 269.34 0.66 268.68 1 268 C0.34 268 -0.32 268 -1 268 Z M115 268 C115 270.31 115 272.62 115 275 C115.33 275 115.66 275 116 275 C116 272.69 116 270.38 116 268 C115.67 268 115.34 268 115 268 Z M147 268 C148 270 148 270 148 270 Z M163 269 C163.33 269.66 163.66 270.32 164 271 C164.66 270.67 165.32 270.34 166 270 C165.01 269.67 164.02 269.34 163 269 Z M-18 271 C-17 273 -17 273 -17 273 Z M124 271 C125 273 125 273 125 273 Z M-10 273 C-9 275 -9 275 -9 275 Z M125 273 C125 273.99 125 274.98 125 276 C125.66 275.67 126.32 275.34 127 275 C126.34 274.34 125.68 273.68 125 273 Z M-126 274 C-126.66 275.65 -127.32 277.3 -128 279 C-127.01 279 -126.02 279 -125 279 C-125 277.35 -125 275.7 -125 274 C-125.33 274 -125.66 274 -126 274 Z M70 275 C71 277 71 277 71 277 Z M-105 277 C-105 278.65 -105 280.3 -105 282 C-104.67 282 -104.34 282 -104 282 C-104 280.35 -104 278.7 -104 277 C-104.33 277 -104.66 277 -105 277 Z M-71 277 C-70 280 -70 280 -70 280 Z M16 277 C16 277.33 16 277.66 16 278 C17.65 278 19.3 278 21 278 C21 277.67 21 277.34 21 277 C19.35 277 17.7 277 16 277 Z M127 277 C127 278.65 127 280.3 127 282 C127.33 282 127.66 282 128 282 C128 280.35 128 278.7 128 277 C127.67 277 127.34 277 127 277 Z M116 278 C117 280 117 280 117 280 Z M24 279 C25 281 25 281 25 281 Z M-116 280 C-115 282 -115 282 -115 282 Z M-128 281 C-127 285 -127 285 -127 285 Z M-37 281 C-35.515 281.99 -35.515 281.99 -34 283 C-34 282.34 -34 281.68 -34 281 C-34.99 281 -35.98 281 -37 281 Z M71 282 C72 285 72 285 72 285 Z M117 282 C118 285 118 285 118 285 Z M-117 283 C-116 285 -116 285 -116 285 Z M-72 283 C-72 284.98 -72 286.96 -72 289 C-71.67 289 -71.34 289 -71 289 C-71 287.02 -71 285.04 -71 283 C-71.33 283 -71.66 283 -72 283 Z M-60 283 C-60.33 284.32 -60.66 285.64 -61 287 C-60.67 286.34 -60.34 285.68 -60 285 C-59.34 284.67 -58.68 284.34 -58 284 C-58.66 283.67 -59.32 283.34 -60 283 Z M108 283 C109 285 109 285 109 285 Z M122 283 C123 285 123 285 123 285 Z M151 283 C152 285 152 285 152 285 Z M-29 284 C-29 285.65 -29 287.3 -29 289 C-28.34 287.68 -27.68 286.36 -27 285 C-27.66 284.67 -28.32 284.34 -29 284 Z M-2 284 C2 285 2 285 2 285 Z M-34 285 C-33 287 -33 287 -33 287 Z M-127 286 C-126 289 -126 289 -126 289 Z M-157 287 C-157 287.66 -157 288.32 -157 289 C-156.01 288.67 -155.02 288.34 -154 288 C-154.99 287.67 -155.98 287.34 -157 287 Z M-108 287 C-108.33 287.99 -108.66 288.98 -109 290 C-107.68 289.67 -106.36 289.34 -105 289 C-105.66 289 -106.32 289 -107 289 C-107.33 288.34 -107.66 287.68 -108 287 Z M2 287 C2 287.33 2 287.66 2 288 C3.98 288 5.96 288 8 288 C8 287.67 8 287.34 8 287 C6.02 287 4.04 287 2 287 Z M119 287 C119.66 287.66 120.32 288.32 121 289 C121 288.34 121 287.68 121 287 C120.34 287 119.68 287 119 287 Z M-146 288 C-145 290 -145 290 -145 290 Z M-122 288 C-121 290 -121 290 -121 290 Z M34 288 C35 290 35 290 35 290 Z M72 288 C73 291 73 291 73 291 Z M-62 289 C-61 293 -61 293 -61 293 Z M45 289 C46 291 46 291 46 291 Z M-121 290 C-120.67 290.99 -120.34 291.98 -120 293 C-119.67 292.01 -119.34 291.02 -119 290 C-119.66 290 -120.32 290 -121 290 Z M-127 292 C-126 295 -126 295 -126 295 Z M-44 292 C-43 294 -43 294 -43 294 Z M116 293 C116.66 294.32 117.32 295.64 118 297 C118.33 295.68 118.66 294.36 119 293 C118.01 293 117.02 293 116 293 Z M26 294 C27 297 27 297 27 297 Z M44 294 C45 296 45 296 45 296 Z M127 294 C128 296 128 296 128 296 Z M-43 295 C-42 297 -42 297 -42 297 Z M-22 295 C-22 298 -22 298 -22 298 Z M63 295 C63 297.31 63 299.62 63 302 C63.33 302 63.66 302 64 302 C64 299.69 64 297.38 64 295 C63.67 295 63.34 295 63 295 Z M-128 296 C-128 296.66 -128 297.32 -128 298 C-127.34 297.67 -126.68 297.34 -126 297 C-126.66 296.67 -127.32 296.34 -128 296 Z M-119 296 C-118.34 296.66 -117.68 297.32 -117 298 C-117 297.34 -117 296.68 -117 296 C-117.66 296 -118.32 296 -119 296 Z M-63 297 C-62 301 -62 301 -62 301 Z M73 297 C73 298.65 73 300.3 73 302 C73.33 302 73.66 302 74 302 C74 300.35 74 298.7 74 297 C73.67 297 73.34 297 73 297 Z M97 297 C98 299 98 299 98 299 Z M116 298 C117 301 117 301 117 301 Z M95 300 C94.67 300.66 94.34 301.32 94 302 C94.66 302 95.32 302 96 302 C95.67 301.34 95.34 300.68 95 300 Z M41 301 C42 303 42 303 42 303 Z M152 301 C152 302.65 152 304.3 152 306 C152.33 306 152.66 306 153 306 C153 304.35 153 302.7 153 301 C152.67 301 152.34 301 152 301 Z M-72 302 C-71 304 -71 304 -71 304 Z M88 302 C88 302.33 88 302.66 88 303 C89.98 303 91.96 303 94 303 C94 302.67 94 302.34 94 302 C92.02 302 90.04 302 88 302 Z M144 302 C145 304 145 304 145 304 Z M43 303 C47 304 47 304 47 304 Z M28 304 C27.67 304.66 27.34 305.32 27 306 C27.66 306 28.32 306 29 306 C28.67 305.34 28.34 304.68 28 304 Z M49 304 C49 304.33 49 304.66 49 305 C50.98 305 52.96 305 55 305 C55 304.67 55 304.34 55 304 C53.02 304 51.04 304 49 304 Z M148 306 C149 308 149 308 149 308 Z M-149 307 C-149 307.33 -149 307.66 -149 308 C-147.35 308 -145.7 308 -144 308 C-144 307.67 -144 307.34 -144 307 C-145.65 307 -147.3 307 -149 307 Z M-63 307 C-62 309 -62 309 -62 309 Z M142 307 C143 309 143 309 143 309 Z M-108 309 C-108 309.66 -108 310.32 -108 311 C-107.34 310.67 -106.68 310.34 -106 310 C-106.66 309.67 -107.32 309.34 -108 309 Z M-62 309 C-62 309.33 -62 309.66 -62 310 C-60.02 310 -58.04 310 -56 310 C-56 309.67 -56 309.34 -56 309 C-57.98 309 -59.96 309 -62 309 Z M96 309 C100 310 100 310 100 310 Z M90 310 C94 311 94 311 94 311 Z M145 310 C146 312 146 312 146 312 Z M151 310 C152 314 152 314 152 314 Z M110 311 C110 311.33 110 311.66 110 312 C111.65 312 113.3 312 115 312 C115 311.67 115 311.34 115 311 C113.35 311 111.7 311 110 311 Z M138 311 C137.67 312.32 137.34 313.64 137 315 C137.66 315 138.32 315 139 315 C138.67 313.68 138.34 312.36 138 311 Z M35 312 C39 313 39 313 39 313 Z M72 312 C76 313 76 313 76 313 Z M54 313 C54 313.33 54 313.66 54 314 C56.31 314 58.62 314 61 314 C61 313.67 61 313.34 61 313 C58.69 313 56.38 313 54 313 Z M71 313 C72 315 72 315 72 315 Z M-76 314 C-76 314.33 -76 314.66 -76 315 C-74.35 315 -72.7 315 -71 315 C-71 314.67 -71 314.34 -71 314 C-72.65 314 -74.3 314 -76 314 Z M-13 314 C-12 316 -12 316 -12 316 Z M-70 315 C-70 316.65 -70 318.3 -70 320 C-69.67 320 -69.34 320 -69 320 C-69 318.35 -69 316.7 -69 315 C-69.33 315 -69.66 315 -70 315 Z M-60 319 C-60 323.95 -60 328.9 -60 334 C-59.67 334 -59.34 334 -59 334 C-59 329.38 -59 324.76 -59 320 C-58.34 319.67 -57.68 319.34 -57 319 C-57.99 319 -58.98 319 -60 319 Z M62 319 C63 322 63 322 63 322 Z M81 320 C85 321 85 321 85 321 Z M133 320 C134 322 134 322 134 322 Z M70 322 C71 326 71 326 71 326 Z M-69 323 C-69 324.65 -69 326.3 -69 328 C-68.67 328 -68.34 328 -68 328 C-68 326.35 -68 324.7 -68 323 C-68.33 323 -68.66 323 -69 323 Z M-76 324 C-75 326 -75 326 -75 326 Z M61 326 C62 328 62 328 62 328 Z M69 328 C70 332 70 332 70 332 Z M60 330 C61 332 61 332 61 332 Z M-68 331 C-67 334 -67 334 -67 334 Z M92 332 C92 332.99 92 333.98 92 335 C92.66 334.67 93.32 334.34 94 334 C93.34 333.34 92.68 332.68 92 332 Z M-9 334 C-8 336 -8 336 -8 336 Z M-91 335 C-91.33 335.66 -91.66 336.32 -92 337 C-91.01 336.67 -90.02 336.34 -89 336 C-89.66 335.67 -90.32 335.34 -91 335 Z M-67 336 C-66 339 -66 339 -66 339 Z M-59 336 C-58 339 -58 339 -58 339 Z M125 336 C125 337.98 125 339.96 125 342 C125.33 342 125.66 342 126 342 C126 340.02 126 338.04 126 336 C125.67 336 125.34 336 125 336 Z M136 340 C137 342 137 342 137 342 Z M-114 345 C-113 347 -113 347 -113 347 Z M112 344 C111.34 344.66 110.68 345.32 110 346 C110.99 346 111.98 346 113 346 C112.67 345.34 112.34 344.68 112 344 Z M25 346 C25 346.33 25 346.66 25 347 C26.65 347 28.3 347 30 347 C30 346.67 30 346.34 30 346 C28.35 346 26.7 346 25 346 Z M67 347 C66.67 347.99 66.34 348.98 66 350 C66.66 350 67.32 350 68 350 C67.67 349.01 67.34 348.02 67 347 Z M107 347 C108 349 108 349 108 349 Z M-116 349 C-115 351 -115 351 -115 351 Z M-36 349 C-36 349.33 -36 349.66 -36 350 C-33.36 350 -30.72 350 -28 350 C-28 349.67 -28 349.34 -28 349 C-30.64 349 -33.28 349 -36 349 Z M121 349 C120.67 350.32 120.34 351.64 120 353 C120.99 353.495 120.99 353.495 122 354 C122 352.35 122 350.7 122 349 C121.67 349 121.34 349 121 349 Z M-67 350 C-67 351.98 -67 353.96 -67 356 C-66.67 355.34 -66.34 354.68 -66 354 C-65.34 353.67 -64.68 353.34 -64 353 C-64.66 353 -65.32 353 -66 353 C-66.33 352.01 -66.66 351.02 -67 350 Z M-120 353 C-119.01 354.485 -119.01 354.485 -118 356 C-118 355.01 -118 354.02 -118 353 C-118.66 353 -119.32 353 -120 353 Z M53 353 C54 355 54 355 54 355 Z M104 353 C105 355 105 355 105 355 Z M24 354 C24 354.33 24 354.66 24 355 C26.97 355 29.94 355 33 355 C33 354.67 33 354.34 33 354 C30.03 354 27.06 354 24 354 Z M127 354 C128 356 128 356 128 356 Z M35 355 C39 356 39 356 39 356 Z M-52 356 C-52 356.66 -52 357.32 -52 358 C-51.34 357.67 -50.68 357.34 -50 357 C-50.66 356.67 -51.32 356.34 -52 356 Z M52 356 C52 356.66 52 357.32 52 358 C53.65 358 55.3 358 57 358 C54.61837991 356.58614089 54.61837991 356.58614089 52 356 Z M-38 357 C-34 358 -34 358 -34 358 Z M-30 357 C-26 358 -26 358 -26 358 Z M-46 359 C-46 359.66 -46 360.32 -46 361 C-45.34 361 -44.68 361 -44 361 C-44 360.34 -44 359.68 -44 359 C-44.66 359 -45.32 359 -46 359 Z M47 359 C47 359.66 47 360.32 47 361 C47.66 360.67 48.32 360.34 49 360 C48.34 359.67 47.68 359.34 47 359 Z M-116 360 C-115.34 360.66 -114.68 361.32 -114 362 C-113.67 361.34 -113.34 360.68 -113 360 C-113.99 360 -114.98 360 -116 360 Z M92 361 C92.33 361.99 92.66 362.98 93 364 C93.33 363.01 93.66 362.02 94 361 C93.34 361 92.68 361 92 361 Z M-119 362 C-118 365 -118 365 -118 365 Z M-104 362 C-103 364 -103 364 -103 364 Z M-3 365 C-2 367 -2 367 -2 367 Z M30 365 C30.33 365.66 30.66 366.32 31 367 C31.66 366.67 32.32 366.34 33 366 C32.01 365.67 31.02 365.34 30 365 Z M56 365 C57 367 57 367 57 367 Z M-55 367 C-54 371 -54 371 -54 371 Z M53 368 C54.485 368.99 54.485 368.99 56 370 C56 369.34 56 368.68 56 368 C55.01 368 54.02 368 53 368 Z M-33 369 C-33 369.66 -33 370.32 -33 371 C-31.68 370.67 -30.36 370.34 -29 370 C-30.32 369.67 -31.64 369.34 -33 369 Z M-94 370 C-93 372 -93 372 -93 372 Z M0 370 C1 373 1 373 1 373 Z M-85 373 C-85 373.33 -85 373.66 -85 374 C-83.35 374 -81.7 374 -80 374 C-80 373.67 -80 373.34 -80 373 C-81.65 373 -83.3 373 -85 373 Z M97 373 C98 375 98 375 98 375 Z M-76 376 C-75 378 -75 378 -75 378 Z M-75 378 C-74.67 378.66 -74.34 379.32 -74 380 C-73.67 379.34 -73.34 378.68 -73 378 C-73.66 378 -74.32 378 -75 378 Z M-95 381 C-95.33 381.66 -95.66 382.32 -96 383 C-95.34 383 -94.68 383 -94 383 C-94.33 382.34 -94.66 381.68 -95 381 Z M60 382 C61 385 61 385 61 385 Z M-66 384 C-65 388 -65 388 -65 388 Z M-49 387 C-49 387.66 -49 388.32 -49 389 C-48.34 389 -47.68 389 -47 389 C-47 388.34 -47 387.68 -47 387 C-47.66 387 -48.32 387 -49 387 Z M44 389 C45 391 45 391 45 391 Z M23 391 C24 394 24 394 24 394 Z M66 391 C67 393 67 393 67 393 Z M36 393 C34.89163577 394.88316159 34.89163577 394.88316159 34 397 C34.33 397.66 34.66 398.32 35 399 C35.66 398.67 36.32 398.34 37 398 C37 396.35 37 394.7 37 393 C36.67 393 36.34 393 36 393 Z M44 393 C44.33 393.99 44.66 394.98 45 396 C45.33 395.01 45.66 394.02 46 393 C45.34 393 44.68 393 44 393 Z M22 396 C23 400 23 400 23 400 Z M-15 399 C-15 399.33 -15 399.66 -15 400 C-13.35 400 -11.7 400 -10 400 C-10 399.67 -10 399.34 -10 399 C-11.65 399 -13.3 399 -15 399 Z M32 400 C33 402 33 402 33 402 Z M33 404 C34 407 34 407 34 407 Z " fill="#FF0100" transform="translate(248,29)"/>
</svg>
