<?xml version="1.0" encoding="UTF-8"?>
<svg version="1.1" xmlns="http://www.w3.org/2000/svg" width="500" height="509">
<path d="M0 0 C1.65 0.33 3.3 0.66 5 1 C4.64368257 7.72434949 1.86568777 12.30762104 -1.5625 18 C-2.66042219 19.87147682 -3.7567694 21.74387848 -4.8515625 23.6171875 C-5.38942383 24.53209961 -5.92728516 25.44701172 -6.48144531 26.38964844 C-11.87051476 35.65330287 -16.74521436 45.16080821 -21 55 C-20.01 55 -19.02 55 -18 55 C-17.46300236 60.01197794 -17.43820915 62.80411463 -20.625 66.8125 C-21.17542969 67.47507812 -21.72585938 68.13765625 -22.29296875 68.8203125 C-25.45233514 72.85446913 -27.62697224 77.47550481 -30 82 C-30.96734531 83.80371156 -31.93953718 85.60475179 -32.91235352 87.40551758 C-34.27877107 89.93493216 -35.63917349 92.46757433 -37 95 C-36.34 95 -35.68 95 -35 95 C-35.4226101 101.26457322 -37.58403016 105.4316403 -40.8125 110.75 C-41.29807373 111.56911865 -41.78364746 112.3882373 -42.28393555 113.23217773 C-46.82249731 120.83559163 -51.55811335 128.31658554 -56.3203125 135.78125 C-61.44247971 143.72716506 -61.44247971 143.72716506 -66 152 C-65.11348542 154.37812731 -65.11348542 154.37812731 -63.75 156.9375 C-63.09257813 158.25041016 -63.09257813 158.25041016 -62.421875 159.58984375 C-61.13204783 162.00643948 -61.13204783 162.00643948 -59.34375 163.65234375 C-58 165 -58 165 -57.75 167.625 C-58 170 -58 170 -59 171 C-61.75 171.375 -61.75 171.375 -65 171 C-67.625 168.6875 -67.625 168.6875 -70 166 C-71.31175986 164.97186389 -72.6369893 163.95915568 -74 163 C-74.69159401 164.84725052 -74.69159401 164.84725052 -75 167 C-74.34 167.99 -73.68 168.98 -73 170 C-73.04125 170.845625 -73.0825 171.69125 -73.125 172.5625 C-72.97117509 176.79268492 -71.59219549 179.80489755 -69.875 183.6328125 C-69 186 -69 186 -69 190 C-68.2575 190 -67.515 190 -66.75 190 C-64 191 -64 191 -62 194.125 C-55 209.84631148 -55 209.84631148 -55 216 C-54.16597656 215.83242187 -53.33195312 215.66484375 -52.47265625 215.4921875 C-45.27683557 214.18985111 -40.00955452 213.86149184 -33 216 C-32.67 217.65 -32.34 219.3 -32 221 C-33.32 221.33 -34.64 221.66 -36 222 C-35.07058594 221.84402344 -34.14117187 221.68804687 -33.18359375 221.52734375 C-31.94738281 221.33269531 -30.71117187 221.13804687 -29.4375 220.9375 C-28.21933594 220.74027344 -27.00117188 220.54304687 -25.74609375 220.33984375 C-20.44082988 219.85855287 -16.47988502 220.01340999 -12 223 C-11.8125 225.625 -11.8125 225.625 -12 228 C-13.2065625 228.32613281 -14.413125 228.65226563 -15.65625 228.98828125 C-17.27088724 229.42949026 -18.88546755 229.87090766 -20.5 230.3125 C-21.29148437 230.52583984 -22.08296875 230.73917969 -22.8984375 230.95898438 C-26.77674387 232.02392916 -30.54462014 233.16805694 -34.2890625 234.640625 C-38.11987141 236.04391079 -41.10817876 236.39132871 -45.1171875 236.49609375 C-47.16801124 236.82466985 -47.16801124 236.82466985 -48.21875 238.80078125 C-49.29106083 241.81933624 -49.63391991 244.82730592 -50 248 C-49.01 248.33 -48.02 248.66 -47 249 C-46.2603626 261.54096308 -48.11338607 272.46257323 -51.36621094 284.5625 C-52.35170906 288.35264378 -53.1742399 292.17217747 -54 296 C-52.35 291.71 -50.7 287.42 -49 283 C-48.01 283.33 -47.02 283.66 -46 284 C-46.25130943 291.16231862 -48.38021571 296.8939881 -51.12890625 303.4453125 C-53.39931513 308.88005004 -55.40029991 314.41220955 -57.4375 319.9375 C-61.38424026 330.56314758 -65.4354768 341.18305471 -70.6953125 351.2421875 C-72.21382299 353.94349669 -72.21382299 353.94349669 -72 357 C-69.03 351.72 -66.06 346.44 -63 341 C-61.68 341.33 -60.36 341.66 -59 342 C-59.63205873 346.83006075 -61.6338195 350.71381186 -63.8125 355 C-64.15603516 355.69867188 -64.49957031 356.39734375 -64.85351562 357.1171875 C-66.881641 361.15060757 -69.12727158 364.49376597 -72 368 C-72.268125 368.969375 -72.53625 369.93875 -72.8125 370.9375 C-74.23962564 374.61798191 -75.89010891 375.71068242 -78.92578125 378.078125 C-82.53571714 381.42292436 -85.18462851 385.56252559 -87.984375 389.5859375 C-88.64953125 390.38257813 -89.3146875 391.17921875 -90 392 C-90.99 392 -91.98 392 -93 392 C-93.061875 392.7425 -93.12375 393.485 -93.1875 394.25 C-94.26283527 397.8895963 -95.96237153 398.79081566 -99 401 C-99.71285156 401.76054687 -100.42570312 402.52109375 -101.16015625 403.3046875 C-104.55603209 406.52773335 -108.1756089 408.75054138 -112.1875 411.125 C-113.62206311 411.97577385 -115.05321979 412.83232476 -116.48046875 413.6953125 C-117.10848389 414.06672363 -117.73649902 414.43813477 -118.38354492 414.82080078 C-120.30049622 416.07668386 -120.30049622 416.07668386 -122 419 C-122 420.32 -122 421.64 -122 423 C-124.10384698 423.81332743 -126.20808857 424.62563417 -128.3125 425.4375 C-129.48425781 425.88996094 -130.65601563 426.34242188 -131.86328125 426.80859375 C-133.89382815 427.57984755 -135.93937926 428.31312642 -138 429 C-138.33 429.99 -138.66 430.98 -139 432 C-141.6088419 433.03680821 -144.12983602 433.88935435 -146.8125 434.6875 C-152.77124468 436.54677618 -158.55325472 438.58374015 -164.29980469 441.02319336 C-172.12178317 444.34106526 -179.74694572 446.85396681 -188.0625 448.625 C-188.97281982 448.82222656 -189.88313965 449.01945312 -190.82104492 449.22265625 C-192.17806519 449.5165625 -192.17806519 449.5165625 -193.5625 449.81640625 C-195.37531976 450.20946563 -197.18782177 450.60399343 -199 451 C-199.90363281 451.19706543 -200.80726563 451.39413086 -201.73828125 451.59716797 C-212.23751946 453.63723606 -212.23751946 453.63723606 -220.21875 460.015625 C-221.43592623 463.00195272 -222.22818131 465.87874581 -223 469 C-223.66 469.33 -224.32 469.66 -225 470 C-226.12706706 472.11015954 -226.12706706 472.11015954 -227.125 474.5625 C-227.47820312 475.38878906 -227.83140625 476.21507812 -228.1953125 477.06640625 C-228.46085937 477.70449219 -228.72640625 478.34257812 -229 479 C-230.65 479 -232.3 479 -234 479 C-234.12955078 479.85658203 -234.12955078 479.85658203 -234.26171875 480.73046875 C-235.53082852 488.05404717 -237.43945882 495.4401399 -241 502 C-243.6171875 503.7421875 -243.6171875 503.7421875 -246 505 C-246.87822312 507.08533633 -246.87822312 507.08533633 -247 509 C-248.65 509 -250.3 509 -252 509 C-251.01 503.72 -250.02 498.44 -249 493 C-249.99 494.98 -250.98 496.96 -252 499 C-252.99 499 -253.98 499 -255 499 C-256.28035438 494.69335345 -255.78485009 491.80512313 -254.5 487.625 C-252.97236053 482.57203867 -252.9329475 479.14125297 -254 474 C-255.32 474 -256.64 474 -258 474 C-258.34933594 473.07316406 -258.69867188 472.14632813 -259.05859375 471.19140625 C-259.51363281 469.99386719 -259.96867188 468.79632813 -260.4375 467.5625 C-260.88996094 466.36753906 -261.34242188 465.17257812 -261.80859375 463.94140625 C-262.7144826 461.15554277 -262.7144826 461.15554277 -264 460 C-264.0825 458.906875 -264.165 457.81375 -264.25 456.6875 C-264.70253503 453.01653103 -264.70253503 453.01653103 -266.8125 450.75 C-270.72242086 448.60337679 -274.50667706 447.82588058 -278.83984375 446.859375 C-283.57734591 445.5710555 -287.73221872 443.38882448 -292 441 C-292 441.66 -292 442.32 -292 443 C-291.43410156 443.25394531 -290.86820313 443.50789063 -290.28515625 443.76953125 C-289.55167969 444.11371094 -288.81820312 444.45789063 -288.0625 444.8125 C-287.33160156 445.14894531 -286.60070312 445.48539062 -285.84765625 445.83203125 C-284 447 -284 447 -283 450 C-292.92474299 449.26041579 -300.72656459 444.06467492 -309 439 C-309.85980469 438.48050781 -310.71960938 437.96101563 -311.60546875 437.42578125 C-317.22124711 433.85582378 -322.24243663 429.57408334 -327.30078125 425.26953125 C-331.88101504 421.33014294 -331.88101504 421.33014294 -337.375 419.0625 C-343.84569413 417.16591724 -347.4773527 413.64413962 -351.66015625 408.6171875 C-353.6252055 406.41921922 -355.63269469 404.3718433 -357.74609375 402.3203125 C-358.4222876 401.66200439 -359.09848145 401.00369629 -359.79516602 400.32543945 C-361.16666155 398.99805588 -362.54593177 397.67865211 -363.93334961 396.36791992 C-364.57151611 395.74763916 -365.20968262 395.1273584 -365.8671875 394.48828125 C-366.44581543 393.93696533 -367.02444336 393.38564941 -367.62060547 392.81762695 C-369.30974638 390.59184747 -369.6345927 388.74114128 -370 386 C-370.99 385.67 -371.98 385.34 -373 385 C-373.72045764 383.0187415 -374.38001259 381.01495907 -375 379 C-375.556875 378.13375 -376.11375 377.2675 -376.6875 376.375 C-378 374 -378 374 -377.6875 371.6875 C-377.460625 371.130625 -377.23375 370.57375 -377 370 C-378.98 370.66 -380.96 371.32 -383 372 C-387.39011799 365.43876912 -390.52803792 358.62393321 -393.625 351.375 C-394.57419021 349.17390488 -395.52467055 346.97336557 -396.4765625 344.7734375 C-396.88986816 343.80841309 -397.30317383 342.84338867 -397.72900391 341.84912109 C-398.64607556 339.79337269 -399.63136247 337.7675879 -400.65771484 335.76416016 C-402 333 -402 333 -402 331 C-403.155 331.350625 -404.31 331.70125 -405.5 332.0625 C-409.9834299 333.20737585 -413.472146 332.80854536 -418 332 C-417.9375 330.1875 -417.9375 330.1875 -417 328 C-414.6470707 326.82353535 -412.45581916 325.8895093 -410 325 C-405.21605495 323.46271506 -405.21605495 323.46271506 -402 320 C-405.39868264 320.4385397 -408.12589597 321.47726687 -411.1875 322.9375 C-415.13125062 324.74478342 -418.76964494 325.63482179 -423.0234375 326.37890625 C-426.79513377 327.16591374 -430.43938422 328.25906137 -434.125 329.375 C-439.5139854 331.00629545 -444.88687746 332.47722265 -450.375 333.75 C-459.25446345 335.83218417 -467.82717866 338.88689063 -476.42138672 341.91503906 C-482.69559687 344.08221132 -488.36657245 345.58497113 -495 346 C-495 345.01 -495 344.02 -495 343 C-491.06848822 340.49812887 -487.38550854 338.70934204 -482.9375 337.3125 C-473.05651684 334.18752837 -463.55762632 329.98532096 -454 326 C-454 325.67 -454 325.34 -454 325 C-455.093125 325.185625 -456.18625 325.37125 -457.3125 325.5625 C-461 326 -461 326 -464 325 C-463.67 323.35 -463.34 321.7 -463 320 C-461.9378125 319.75765625 -460.875625 319.5153125 -459.78125 319.265625 C-452.38786383 317.5290877 -445.61940368 315.86131881 -439 312 C-439 311.01 -439 310.02 -439 309 C-437.35 308.67 -435.7 308.34 -434 308 C-434 307.34 -434 306.68 -434 306 C-434.99 306.433125 -435.98 306.86625 -437 307.3125 C-438.33301794 307.87574702 -439.66636947 308.43820498 -441 309 C-441.64839844 309.28617187 -442.29679687 309.57234375 -442.96484375 309.8671875 C-447.86080148 311.90313032 -451.70361588 312.28373486 -457 312 C-457 310.68 -457 309.36 -457 308 C-447.61609199 303.9110511 -438.48110986 300.36407298 -428.52734375 297.91015625 C-424.0578786 296.75690555 -419.73799543 295.27852297 -415.390625 293.734375 C-413 293 -413 293 -410 293 C-410 289.37 -410 285.74 -410 282 C-410.99 281.67 -411.98 281.34 -413 281 C-413.48935965 269.03787513 -412.00850548 257.7760589 -410 246 C-410.99 246 -411.98 246 -413 246 C-413.69560197 239.04398031 -411.69744426 233.89452208 -409.09375 227.46484375 C-407.82671124 224.07222078 -407.82671124 224.07222078 -408.02734375 220.64453125 C-407.99181758 215.90939978 -406.66989241 212.16653298 -405.0625 207.75 C-404.75691162 206.89116211 -404.45132324 206.03232422 -404.13647461 205.14746094 C-400.71777813 195.80501069 -396.43689639 186.89391476 -392 178 C-393.98 177.01 -393.98 177.01 -396 176 C-394.57992029 162.1542228 -384.59338727 150.28974424 -376 140 C-375.01 140.33 -374.02 140.66 -373 141 C-373.2165625 141.68707031 -373.433125 142.37414062 -373.65625 143.08203125 C-373.9346875 143.98308594 -374.213125 144.88414062 -374.5 145.8125 C-374.7784375 146.70582031 -375.056875 147.59914062 -375.34375 148.51953125 C-376.12788351 151.05573395 -376.12788351 151.05573395 -376 154 C-373.32364368 150.82358618 -370.90608298 147.90990591 -371.11767578 143.60693359 C-371.78363778 141.05399409 -372.61160894 138.6482908 -373.5625 136.1875 C-373.85447266 135.34251953 -374.14644531 134.49753906 -374.44726562 133.62695312 C-375.70439104 130.07027695 -376.89478727 127.15781909 -379 124 C-379.45648982 122.45906167 -379.84599666 120.89770013 -380.19140625 119.328125 C-380.40966064 118.3685791 -380.62791504 117.4090332 -380.8527832 116.42041016 C-381.20409302 114.85105713 -381.20409302 114.85105713 -381.5625 113.25 C-383.29479004 105.71534676 -385.16214714 98.2476143 -387.359375 90.8359375 C-387.56187363 90.15208984 -387.76437225 89.46824219 -387.9730072 88.76367188 C-388.97051533 85.41165229 -389.98462456 82.06541684 -391.01586914 78.72363281 C-393.20832421 71.44485271 -394.71231571 64.60939671 -395 57 C-394.360625 57.165 -393.72125 57.33 -393.0625 57.5 C-391.19173179 58.03926667 -391.19173179 58.03926667 -390 58 C-390.22139648 57.29617187 -390.44279297 56.59234375 -390.67089844 55.8671875 C-402.93232434 16.77352572 -402.93232434 16.77352572 -402 6 C-400.14086914 6.14941406 -400.14086914 6.14941406 -398 7 C-396.76733398 9.42089844 -396.76733398 9.42089844 -395.74609375 12.609375 C-395.36646484 13.75664062 -394.98683594 14.90390625 -394.59570312 16.0859375 C-394.21349609 17.29507812 -393.83128906 18.50421875 -393.4375 19.75 C-392.67049032 22.12145563 -391.89852698 24.49131604 -391.12109375 26.859375 C-390.7852124 27.91608398 -390.44933105 28.97279297 -390.10327148 30.06152344 C-389.01109316 32.97045424 -387.61558413 35.35663745 -386 38 C-385.20043945 40.12817383 -385.20043945 40.12817383 -384.61328125 42.20703125 C-384.39736328 42.95791016 -384.18144531 43.70878906 -383.95898438 44.48242188 C-383.74564453 45.25134766 -383.53230469 46.02027344 -383.3125 46.8125 C-382.97508789 47.99489258 -382.97508789 47.99489258 -382.63085938 49.20117188 C-382.08078405 51.13228739 -381.53949994 53.06590336 -381 55 C-379.35 55 -377.7 55 -376 55 C-371.05 67.375 -371.05 67.375 -366 80 C-365.67 79.01 -365.34 78.02 -365 77 C-364.01 77 -363.02 77 -362 77 C-361.8141333 77.51796143 -361.6282666 78.03592285 -361.43676758 78.56958008 C-358.31631047 87.23473847 -355.21820231 95.82948714 -351.265625 104.15625 C-348.528367 110.30663217 -346.3080183 116.67872652 -344 123 C-345.84642744 116.50804174 -345.84642744 116.50804174 -348.1875 110.1875 C-349.12125922 107.67353287 -349.15203075 105.66053815 -349 103 C-345.65699563 103.94390712 -344.29109693 104.53424492 -342.41796875 107.53125 C-342.01191406 108.5109375 -341.60585938 109.490625 -341.1875 110.5 C-340.76855469 111.4796875 -340.34960938 112.459375 -339.91796875 113.46875 C-339 116 -339 116 -339 118 C-332.28542711 114.56870524 -326.01980848 110.76088476 -319.86328125 106.40429688 C-315.38775444 103.2403778 -310.80323028 100.29541202 -306.14453125 97.41015625 C-303.90859939 96.04347999 -303.90859939 96.04347999 -302 94 C-299.67724823 93.59952556 -297.34260643 93.2602896 -295 93 C-294.67 94.32 -294.34 95.64 -294 97 C-290.7 95.68 -287.4 94.36 -284 93 C-284 92.01 -284 91.02 -284 90 C-273.26799599 84.66254056 -264.01705302 81.70688547 -252 81 C-250.97003906 80.91878906 -249.94007813 80.83757812 -248.87890625 80.75390625 C-243.99694567 80.5200823 -243.99694567 80.5200823 -242 81 C-240.23828125 83.0234375 -240.23828125 83.0234375 -239 85 C-238.11957031 84.83242187 -237.23914063 84.66484375 -236.33203125 84.4921875 C-234.58986328 84.18667969 -234.58986328 84.18667969 -232.8125 83.875 C-231.08966797 83.56175781 -231.08966797 83.56175781 -229.33203125 83.2421875 C-225.68992079 82.977462 -224.31988723 83.66271451 -221 85 C-218.87082883 85.42549179 -216.72934605 85.7916413 -214.58203125 86.11328125 C-212.71272949 86.40332031 -212.71272949 86.40332031 -210.80566406 86.69921875 C-210.15311646 86.79895996 -209.50056885 86.89870117 -208.82824707 87.00146484 C-177.62812763 91.8157266 -177.62812763 91.8157266 -164.75 99.08203125 C-163.03417139 100.15484132 -163.03417139 100.15484132 -161 100 C-161.66 99.566875 -162.32 99.13375 -163 98.6875 C-163.66 98.130625 -164.32 97.57375 -165 97 C-165 96.01 -165 95.02 -165 94 C-160.85351967 94.47844004 -157.68439654 95.09837598 -154 97 C-153.10796875 97.09667969 -152.2159375 97.19335938 -151.296875 97.29296875 C-147.30625226 98.14877766 -144.57312776 99.9857004 -141.3125 102.3125 C-139.98865293 103.22768632 -138.663045 104.14032931 -137.3359375 105.05078125 C-136.6356543 105.53240723 -135.93537109 106.0140332 -135.21386719 106.51025391 C-131.35259876 109.10856224 -127.38860112 111.54151945 -123.4375 114 C-117.52155759 117.72098145 -111.63173269 121.47347707 -105.875 125.4375 C-105.28904053 125.82615234 -104.70308105 126.21480469 -104.09936523 126.61523438 C-101.41754567 128.50224459 -100.12241108 129.60685091 -99.1328125 132.78515625 C-99.08898437 133.51605469 -99.04515625 134.24695313 -99 135 C-99.68707031 134.9278125 -100.37414062 134.855625 -101.08203125 134.78125 C-101.98308594 134.6884375 -102.88414062 134.595625 -103.8125 134.5 C-104.70582031 134.4071875 -105.59914063 134.314375 -106.51953125 134.21875 C-109.08305099 133.95607599 -109.08305099 133.95607599 -112 134 C-106.92497504 137.85701897 -102.62558499 141 -96 141 C-94.60290801 139.4622017 -94.60290801 139.4622017 -93.3984375 137.37109375 C-92.91318604 136.5915332 -92.42793457 135.81197266 -91.92797852 135.00878906 C-91.41549561 134.16026367 -90.9030127 133.31173828 -90.375 132.4375 C-89.83866943 131.56706055 -89.30233887 130.69662109 -88.74975586 129.79980469 C-87.15594645 127.20614916 -85.57710217 124.60383731 -84 122 C-83.22337031 120.73523834 -82.44610937 119.47086388 -81.66796875 118.20703125 C-75.96536212 108.88203882 -70.64641041 99.33782048 -65.28125 89.81640625 C-45.97080675 55.56308764 -45.97080675 55.56308764 -37 53 C-30.77023431 45.83920056 -26.35481615 36.91698481 -21.71875 28.68359375 C-18.89983638 23.79432969 -16.5995492 20.37004008 -12 17 C-10.12370923 14.74675051 -8.47100242 12.35374482 -6.8125 9.9375 C-6.15604492 9.00067383 -6.15604492 9.00067383 -5.48632812 8.04492188 C-3.62601057 5.38367371 -1.80111153 2.70166729 0 0 Z M-380 58 C-379 61 -379 61 -379 61 Z M-379 62 C-378 64 -378 64 -378 64 Z M-389 63 C-388 66 -388 66 -388 66 Z M-388 67 C-387 69 -387 69 -387 69 Z M-387 70 C-386 72 -386 72 -386 72 Z M-386 73 C-385 75 -385 75 -385 75 Z M-385 76 C-384 78 -384 78 -384 78 Z M-365 83 C-364 85 -364 85 -364 85 Z M-252.16015625 116.94140625 C-256.74956447 118.20664494 -261.20968199 118.68637354 -265.9375 119.125 C-266.81212891 119.21136719 -267.68675781 119.29773438 -268.58789062 119.38671875 C-270.72470254 119.59689697 -272.86228122 119.79925518 -275 120 C-275.495 119.01 -275.495 119.01 -276 118 C-290.49645598 123.14482065 -303.24466898 131.67355658 -315.31640625 141.06640625 C-318.66120196 143.47641189 -322.13884004 145.21215639 -325.87109375 146.9375 C-328.55419086 148.276587 -330.71603275 150.07290263 -333 152 C-333.66 152 -334.32 152 -335 152 C-335.66 151.01 -336.32 150.02 -337 149 C-337.99 149.66 -338.98 150.32 -340 151 C-339.35661604 154.81680248 -338.24819349 158.15002285 -336.77734375 161.7265625 C-336.32472168 162.83225586 -335.87209961 163.93794922 -335.40576172 165.07714844 C-334.67897217 166.83333496 -334.67897217 166.83333496 -333.9375 168.625 C-333.44523926 169.82672852 -332.95297852 171.02845703 -332.44580078 172.26660156 C-330.18077316 177.78177105 -327.8908667 183.28408391 -325.52734375 188.7578125 C-325.16068604 189.61036621 -324.79402832 190.46291992 -324.41625977 191.34130859 C-323.74367495 192.89716364 -323.06367901 194.44984533 -322.37475586 195.99853516 C-320.48174695 200.37121885 -319.63249112 204.24522027 -319 209 C-318.23193041 210.96428608 -317.39805336 212.9041366 -316.5 214.8125 C-314.11846 220.25503953 -313.14400432 225.08273144 -313 231 C-313.99 231 -314.98 231 -316 231 C-315.57388649 232.75280733 -315.13360733 234.50217435 -314.6875 236.25 C-314.44386719 237.22453125 -314.20023438 238.1990625 -313.94921875 239.203125 C-313.00347644 241.98975665 -311.89291287 243.77304368 -310 246 C-306.74755362 237.21839477 -304.94231107 228.13970744 -303 219 C-301.68 219 -300.36 219 -299 219 C-299.09087891 219.67579102 -299.18175781 220.35158203 -299.27539062 221.04785156 C-299.68629441 224.11487958 -300.09318918 227.18242653 -300.5 230.25 C-300.64308594 231.31347656 -300.78617188 232.37695312 -300.93359375 233.47265625 C-301.13662109 235.00986328 -301.13662109 235.00986328 -301.34375 236.578125 C-301.46943359 237.52075195 -301.59511719 238.46337891 -301.72460938 239.43457031 C-302.07115572 242.23283035 -302.07115572 242.23283035 -302 246 C-297.92705509 244.6423517 -296.46334447 241.96972564 -294.34375 238.4609375 C-293.9003125 237.97882813 -293.456875 237.49671875 -293 237 C-291.68 237 -290.36 237 -289 237 C-288 242.75 -288 242.75 -288 245 C-284.29115966 243.31268143 -281.6722904 241.0622868 -278.68359375 238.33984375 C-277 237 -277 237 -274 236 C-275.56740588 242.90638216 -278.41836956 247.10849647 -283.35546875 252.15234375 C-285.22161793 253.83673732 -285.22161793 253.83673732 -285 256 C-282.95833333 255.5625 -280.91666667 255.125 -278.875 254.6875 C-277.60011719 254.41550781 -276.32523438 254.14351562 -275.01171875 253.86328125 C-272.42796175 253.31020066 -269.84858243 252.74319168 -267.26953125 252.16796875 C-260.84117334 250.74489715 -254.56156474 249.56565213 -248 249 C-248.495 251.97 -248.495 251.97 -249 255 C-255.93 257.475 -255.93 257.475 -263 260 C-263 260.33 -263 260.66 -263 261 C-258.79052161 261.07653597 -254.6339092 261.04801625 -250.4375 260.6875 C-249.41462891 260.60048828 -249.41462891 260.60048828 -248.37109375 260.51171875 C-245.72029538 259.93963541 -243.43194762 258.88451328 -240.96459961 257.78198242 C-237.43911014 256.37870881 -233.76006799 255.62678875 -230.0625 254.8125 C-228.89364258 254.54663086 -228.89364258 254.54663086 -227.70117188 254.27539062 C-225.80212046 253.8443176 -223.90124122 253.42130992 -222 253 C-224.8424854 251.42726432 -224.8424854 251.42726432 -228 251 C-227.67 250.01 -227.34 249.02 -227 248 C-224.5 247.04296875 -224.5 247.04296875 -221 246.1875 C-220.34410889 246.02427246 -219.68821777 245.86104492 -219.01245117 245.69287109 C-217.51549097 245.32316344 -216.01690185 244.96001385 -214.51708984 244.60205078 C-211.81631463 243.95606517 -209.12113923 243.28930739 -206.42578125 242.62109375 C-190.6865264 238.75183362 -174.86206103 235.32456541 -159 232 C-159 229.69 -159 227.38 -159 225 C-157.35 225 -155.7 225 -154 225 C-154.40530199 219.0555708 -156.42247703 214.28689734 -158.84375 208.8671875 C-159.91056297 206.22177966 -160.54749378 203.80759543 -161 201 C-156.06087179 205.23353847 -153.67865488 210.12975632 -151 216 C-148.42272446 213.42272446 -148.54952639 211.98191318 -148.1484375 208.390625 C-148.01928955 207.24891846 -147.8901416 206.10721191 -147.75708008 204.9309082 C-147.63099365 203.7162085 -147.50490723 202.50150879 -147.375 201.25 C-147.24311279 200.02692139 -147.11122559 198.80384277 -146.9753418 197.54370117 C-146.13018837 189.32544458 -145.58759191 181.26343614 -146 173 C-145.01 173.33 -144.02 173.66 -143 174 C-142.98018066 174.83772949 -142.96036133 175.67545898 -142.93994141 176.53857422 C-142.86189388 179.64365834 -142.77520365 182.74834539 -142.68261719 185.85302734 C-142.62545964 187.85886971 -142.57831404 189.86498918 -142.53125 191.87109375 C-142.49257813 193.12792969 -142.45390625 194.38476562 -142.4140625 195.6796875 C-142.3826416 196.84226074 -142.3512207 198.00483398 -142.31884766 199.20263672 C-142.27842131 202.13656482 -142.27842131 202.13656482 -140 204 C-139.28591666 205.98356483 -138.61382258 207.98315437 -138 210 C-133.93147133 205.30412451 -131.24909058 200.11798207 -128.44335938 194.61914062 C-126.07856681 190.21333126 -124.79375461 188.73107805 -120 187 C-118.32659003 184.40363416 -118.32659003 184.40363416 -117.1875 181.375 C-116.76855469 180.37210937 -116.34960938 179.36921875 -115.91796875 178.3359375 C-115.61503906 177.56507813 -115.31210937 176.79421875 -115 176 C-117.65198895 172.6547246 -120.32015784 169.32300428 -123 166 C-123.52335938 165.34773438 -124.04671875 164.69546875 -124.5859375 164.0234375 C-128.31871718 159.50698031 -132.5344144 155.77795014 -137 152 C-138.61060862 150.63255144 -140.21475881 149.25746113 -141.8125 147.875 C-142.54082031 147.25367188 -143.26914062 146.63234375 -144.01953125 145.9921875 C-146 144 -146 144 -147.25 141.5625 C-149.82140721 137.79722515 -153.21249874 136.22557324 -157.1875 134.125 C-157.9810791 133.69662842 -158.7746582 133.26825684 -159.59228516 132.8269043 C-164.9392554 129.98350552 -170.35542173 127.30421377 -175.875 124.8125 C-176.53395264 124.50908691 -177.19290527 124.20567383 -177.87182617 123.89306641 C-180.57288122 122.72182181 -182.48659495 121.93192872 -185.4453125 122.32421875 C-185.95835937 122.54722656 -186.47140625 122.77023438 -187 123 C-182.7710277 125.15293135 -178.57347547 127.18808882 -174.1875 129 C-170.88783346 130.45891992 -168.51291844 131.5419007 -167 135 C-167.1875 137.1875 -167.1875 137.1875 -168 139 C-168.66 139.33 -169.32 139.66 -170 140 C-170 141.32 -170 142.64 -170 144 C-170.99 144 -171.98 144 -173 144 C-173.4021875 143.1028125 -173.4021875 143.1028125 -173.8125 142.1875 C-175.07084418 139.86949757 -175.93810833 138.64073933 -178 137 C-181.07127296 136.04990399 -181.07127296 136.04990399 -184.5625 135.4375 C-185.80902344 135.18871094 -187.05554688 134.93992188 -188.33984375 134.68359375 C-190.55919807 134.26909321 -192.78018251 133.86303688 -195.00390625 133.47265625 C-195.86886719 133.31667969 -196.73382813 133.16070312 -197.625 133 C-198.38039063 132.87625 -199.13578125 132.7525 -199.9140625 132.625 C-202.49013963 131.85314168 -204.04290265 130.8407061 -206 129 C-206.75 125.3125 -206.75 125.3125 -207 122 C-206.08476562 122.30035156 -205.16953125 122.60070312 -204.2265625 122.91015625 C-203.03804687 123.29042969 -201.84953125 123.67070313 -200.625 124.0625 C-199.44164062 124.44535156 -198.25828125 124.82820313 -197.0390625 125.22265625 C-194.10656794 126.32616286 -194.10656794 126.32616286 -192 125 C-192.33 124.01 -192.66 123.02 -193 122 C-197.380916 120.30737336 -202.32624426 119.69846737 -207 120 C-207.33 119.34 -207.66 118.68 -208 118 C-208.7206665 117.97494385 -209.44133301 117.9498877 -210.18383789 117.92407227 C-213.47687464 117.80739924 -216.76967501 117.68499821 -220.0625 117.5625 C-221.19623047 117.52318359 -222.32996094 117.48386719 -223.49804688 117.44335938 C-229.07711435 117.23190784 -234.48949891 116.88341805 -240 116 C-241.49765709 115.89545576 -242.9987638 115.82650407 -244.5 115.8125 C-245.1909375 115.79832031 -245.881875 115.78414063 -246.59375 115.76953125 C-249.16095402 115.93737597 -249.16095402 115.93737597 -252.16015625 116.94140625 Z M-378 155 C-377 157 -377 157 -377 157 Z M-360 172 C-364.455 179.425 -364.455 179.425 -369 187 C-368.34 187.33 -367.68 187.66 -367 188 C-366.64239566 192.97666044 -367.63478781 195.89187755 -370 200.25 C-372.21425487 203.93453775 -372.21425487 203.93453775 -373 208 C-372.01 208 -371.02 208 -370 208 C-370.70845809 217.61176716 -371.39231713 225.94591188 -375.890625 234.625 C-380.41094235 244.30229911 -377.96416452 257.88400932 -377 268.125 C-376.90460938 269.176875 -376.80921875 270.22875 -376.7109375 271.3125 C-376.47794718 273.87539348 -376.24090324 276.43784031 -376 279 C-374.68 279 -373.36 279 -372 279 C-372 278.34 -372 277.68 -372 277 C-372.99 277 -373.98 277 -375 277 C-374.67 276.01 -374.34 275.02 -374 274 C-372.21484375 273.15625 -372.21484375 273.15625 -369.9375 272.5 C-369.13183594 272.25121094 -368.32617188 272.00242187 -367.49609375 271.74609375 C-366.67238281 271.49988281 -365.84867188 271.25367188 -365 271 C-362.19349596 270.14258725 -359.69683781 269.20394545 -357 268 C-356.67 266.68 -356.34 265.36 -356 264 C-351.38 263.01 -346.76 262.02 -342 261 C-342.66 260.13375 -343.32 259.2675 -344 258.375 C-346.12695385 254.78576537 -346.38790972 253.07305202 -346 249 C-342.28400809 248.79913557 -341.22791555 248.8480563 -338 251 C-335.91706039 246.83412078 -335.95175282 244.50005104 -337 240 C-338.02504363 237.27618175 -339.21841673 234.64176088 -340.4375 232 C-346.33209281 219.06835722 -346.33209281 219.06835722 -345.9375 213.625 C-345.85523681 209.79659761 -346.56475722 207.04283403 -348.08203125 203.48828125 C-349.33013164 200.10513254 -350.11094613 196.62864981 -350.9375 193.125 C-353.54204967 181.58617724 -353.54204967 181.58617724 -360 172 Z M-70 194 C-70.33 194.66 -70.66 195.32 -71 196 C-70.34 196 -69.68 196 -69 196 C-69.33 195.34 -69.66 194.68 -70 194 Z M-93 200 C-93.82011312 201.55851755 -94.63076213 203.12201716 -95.4375 204.6875 C-96.11619141 205.99267578 -96.11619141 205.99267578 -96.80859375 207.32421875 C-98.24993849 210.29766388 -98.24993849 210.29766388 -99 215 C-94.71 214.01 -90.42 213.02 -86 212 C-87.65 208.04 -89.3 204.08 -91 200 C-91.66 200 -92.32 200 -93 200 Z M-375 209 C-375.69965443 210.26418246 -376.38434763 211.53665402 -377.0625 212.8125 C-377.44535156 213.52019531 -377.82820313 214.22789062 -378.22265625 214.95703125 C-379.30263511 217.14697801 -379.30263511 217.14697801 -378 220 C-378 219.34 -378 218.68 -378 218 C-377.01 218 -376.02 218 -375 218 C-374.67 215.03 -374.34 212.06 -374 209 C-374.33 209 -374.66 209 -375 209 Z M-139 210 C-138 212 -138 212 -138 212 Z M-317 229 C-316 231 -316 231 -316 231 Z M-90.16796875 250.42578125 C-93.85783955 252.47684047 -97.16030155 252.78304099 -101.3125 253.1875 C-102.42334961 253.3102832 -102.42334961 253.3102832 -103.55664062 253.43554688 C-105.36994923 253.63442588 -107.18484969 253.81869827 -109 254 C-107.68 254.33 -106.36 254.66 -105 255 C-105.77842082 259.04778825 -106.36665934 261.41537786 -109.4375 264.25 C-113.43911752 266.21570685 -117.2486384 267.14420122 -121.609375 267.99609375 C-124.14951366 268.78705412 -124.14951366 268.78705412 -125.2578125 271.078125 C-126.2047103 274.80591214 -126.70860574 278.49327727 -127.125 282.3125 C-127.21136719 283.05306641 -127.29773438 283.79363281 -127.38671875 284.55664062 C-127.59734705 286.37038435 -127.79952986 288.18510543 -128 290 C-128.763125 290.144375 -129.52625 290.28875 -130.3125 290.4375 C-133.08172908 290.9632594 -133.08172908 290.9632594 -136 292 C-137.44869017 294.17592368 -137.44869017 294.17592368 -138.75 296.875 C-141.45189447 302.08142133 -144.49461911 306.92728136 -147.77734375 311.78515625 C-148.18082031 312.51605469 -148.58429688 313.24695313 -149 314 C-148.67 314.66 -148.34 315.32 -148 316 C-147.39671875 315.19175781 -146.7934375 314.38351562 -146.171875 313.55078125 C-145.3646269 312.47132158 -144.55733278 311.39189633 -143.75 310.3125 C-142.96109375 309.25675781 -142.1721875 308.20101562 -141.359375 307.11328125 C-139.88126915 305.16286674 -138.37359158 303.23413979 -136.82421875 301.33984375 C-135.25912928 299.33237354 -134.15600826 297.52772227 -133.0625 295.25 C-131 292 -131 292 -128.25 291.0625 C-127.5075 291.041875 -126.765 291.02125 -126 291 C-127.3200602 297.32619014 -129.50230577 302.51282161 -132.5625 308.1875 C-133.00215088 309.0139502 -133.44180176 309.84040039 -133.89477539 310.69189453 C-137.24552527 316.87484729 -140.95764863 322.65135692 -145.08984375 328.3359375 C-147.77706183 332.02892224 -147.77706183 332.02892224 -150 336 C-149.70148526 337.67325367 -149.36761435 339.34055775 -149 341 C-150.85216754 346.72407968 -153.72511223 351.88916875 -159 355 C-161.3125 355.75 -161.3125 355.75 -163 356 C-163.33 354.68 -163.66 353.36 -164 352 C-165.65 351.67 -167.3 351.34 -169 351 C-172.06802099 356.62470514 -173.89061647 361.69403048 -175 368 C-172.69 367.01 -170.38 366.02 -168 365 C-170.51323904 370.82614505 -173.78524601 375.41092536 -177.7253418 380.37133789 C-183.53897081 387.80703341 -188.49910041 395.81175899 -193.55810547 403.76953125 C-194.78527552 405.66784239 -196.04492042 407.52825827 -197.34765625 409.375 C-201.40699901 415.24312588 -203.10921729 419.80726137 -203 427 C-200.36 426.01 -197.72 425.02 -195 424 C-195 422.35 -195 420.7 -195 419 C-194.09121094 418.65388672 -194.09121094 418.65388672 -193.1640625 418.30078125 C-192.32617188 417.97464844 -191.48828125 417.64851562 -190.625 417.3125 C-189.81289063 416.99925781 -189.00078125 416.68601562 -188.1640625 416.36328125 C-185.48661755 415.20966608 -182.92423821 413.96592774 -180.328125 412.64453125 C-174.12822675 409.51103164 -167.7447312 406.87142519 -161.328125 404.21875 C-160.43867188 403.84492188 -159.54921875 403.47109375 -158.6328125 403.0859375 C-157.83762207 402.7564209 -157.04243164 402.4269043 -156.22314453 402.08740234 C-153.90358251 400.9528395 -152.04953965 399.56017588 -150 398 C-148.4840625 397.38125 -148.4840625 397.38125 -146.9375 396.75 C-139.6918837 393.77663694 -131.89863452 389.16279827 -127 383 C-125.66436389 379.83298577 -125.66436389 379.83298577 -125 377 C-126.65 377 -128.3 377 -130 377 C-128.0134028 371.7243346 -125.81726273 368.26943005 -121.875 364.125 C-121.39071533 363.61251709 -120.90643066 363.10003418 -120.4074707 362.57202148 C-118.94933967 361.03693287 -117.47730667 359.51662087 -116 358 C-115.17113281 357.14277344 -114.34226562 356.28554688 -113.48828125 355.40234375 C-110.39319416 352.2547085 -107.42894063 349.31741607 -103.875 346.6875 C-98.01325719 341.20804477 -93.91795316 333.99930614 -93 326 C-95.34058637 328.12780579 -96.70700306 330.11562221 -98 333 C-98.66 333 -99.32 333 -100 333 C-101.04396673 323.34330776 -94.87698124 313.22646636 -91.0625 304.625 C-90.18278184 302.59279919 -89.30386851 300.56024978 -88.42578125 298.52734375 C-87.06875654 295.40046927 -85.68288839 292.30715871 -84.16796875 289.25390625 C-79.83935117 279.89312168 -81.31940526 271.82739369 -83 262 C-83.20335146 260.65426383 -83.4027937 259.30792905 -83.59765625 257.9609375 C-84.0377096 254.96857473 -84.50449403 251.98357849 -85 249 C-88.01471117 248.72526088 -88.01471117 248.72526088 -90.16796875 250.42578125 Z M-222 251 C-218 252 -218 252 -218 252 Z M-241.625 263.875 C-242.42164063 264.22304688 -243.21828125 264.57109375 -244.0390625 264.9296875 C-246.16060853 265.84552094 -246.16060853 265.84552094 -247 268 C-241.60204011 266.84941444 -236.29012667 265.57578241 -231 264 C-235.24392006 261.17071996 -237.2247447 261.91136815 -241.625 263.875 Z M-241.0625 271.5 C-241.82111328 271.73847656 -242.57972656 271.97695313 -243.36132812 272.22265625 C-245.24128423 272.81383742 -247.12069327 273.40675774 -249 274 C-248.505 274.61875 -248.01 275.2375 -247.5 275.875 C-246 278 -246 278 -246 280 C-247.88802083 280.1953125 -249.77604167 280.390625 -251.6640625 280.5859375 C-254.08396119 280.95598753 -254.08396119 280.95598753 -256.65234375 281.88671875 C-261.86818357 283.62127458 -267.22055286 284.79809967 -272.56835938 286.05664062 C-277.64832743 287.28919523 -282.26069795 288.78832571 -287 291 C-286.72325439 291.71953857 -286.44650879 292.43907715 -286.16137695 293.18041992 C-281.44091797 305.45361328 -276.72045898 317.72680664 -272 330 C-271.00352897 326.85501403 -271.04027865 324.69745776 -271.70703125 321.48046875 C-271.88169922 320.62259766 -272.05636719 319.76472656 -272.23632812 318.88085938 C-272.42646484 317.99205078 -272.61660156 317.10324219 -272.8125 316.1875 C-272.99103516 315.31029297 -273.16957031 314.43308594 -273.35351562 313.52929688 C-274.37161818 308.61520622 -275.55139776 303.80464002 -277 299 C-273.34494611 299.54983313 -273.34494611 299.54983313 -271.82666016 301.53125 C-269.48346785 306.58622666 -267.7441789 311.60062649 -266.375 317 C-266.16335205 317.81871582 -265.9517041 318.63743164 -265.73364258 319.48095703 C-263.48123925 328.54134352 -261.2785751 338.63825365 -262 348 C-262.99 348.99 -262.99 348.99 -264 350 C-265.07159988 353.10022605 -265.1053968 355.98984329 -265.0625 359.25 C-265.05347656 360.14203125 -265.04445313 361.0340625 -265.03515625 361.953125 C-265.02355469 362.62859375 -265.01195312 363.3040625 -265 364 C-264.34 364 -263.68 364 -263 364 C-262.8046875 365.98567708 -262.609375 367.97135417 -262.4140625 369.95703125 C-262.07334609 372.29988142 -262.07334609 372.29988142 -260 375 C-259.56930891 376.48990182 -259.20230359 377.99881373 -258.87890625 379.515625 C-255.47246143 394.43828085 -250.09241693 407.45700527 -243 421 C-242.01 421 -241.02 421 -240 421 C-236.32387778 413.21481378 -233.18036436 405.31855211 -230.1875 397.25 C-226.44887246 387.35675825 -222.38672964 378.1044939 -217 369 C-216.39671875 367.97003906 -215.7934375 366.94007813 -215.171875 365.87890625 C-213.80235987 363.57184923 -212.4156243 361.27894063 -211 359 C-211.99 359 -212.98 359 -214 359 C-210.70533778 349.98302971 -206.41848483 341.50258942 -202 333 C-201.44812012 331.9373291 -200.89624023 330.8746582 -200.32763672 329.77978516 C-193.18443456 316.08944116 -186.0207698 302.56992513 -177 290 C-175.72805003 288.18828344 -174.45711795 286.37585155 -173.1875 284.5625 C-172.64351563 283.79035156 -172.09953125 283.01820313 -171.5390625 282.22265625 C-167.05172686 276.55895372 -167.05172686 276.55895372 -165 270 C-182.90291399 271.97936508 -201.02828984 275.02797165 -218.21801758 280.47583008 C-223.02399306 281.94925113 -227.03225755 282.19362025 -232 282 C-232 281.34 -232 280.68 -232 280 C-228.535 278.515 -228.535 278.515 -225 277 C-225 276.34 -225 275.68 -225 275 C-227.64 275 -230.28 275 -233 275 C-232.67 273.02 -232.34 271.04 -232 269 C-234.94592343 269 -238.23119387 270.60539431 -241.0625 271.5 Z M-336.11328125 314.58203125 C-337.10779297 314.93652344 -338.10230469 315.29101562 -339.12695312 315.65625 C-340.17818359 316.0378125 -341.22941406 316.419375 -342.3125 316.8125 C-351.57700306 320.05870156 -360.19103045 322.3712199 -370 323 C-369.60404157 324.48484412 -369.18249294 325.9628831 -368.75 327.4375 C-368.51796875 328.26121094 -368.2859375 329.08492188 -368.046875 329.93359375 C-367.70140625 330.61550781 -367.3559375 331.29742187 -367 332 C-366.08577271 332.0937793 -366.08577271 332.0937793 -365.15307617 332.18945312 C-363 333 -363 333 -361.24829102 336.01586914 C-360.65207059 337.34912905 -360.07163187 338.68951573 -359.50390625 340.03515625 C-359.18848373 340.7472374 -358.87306122 341.45931854 -358.54808044 342.19297791 C-357.53880509 344.47693534 -356.5496612 346.76890807 -355.5625 349.0625 C-350.23352899 362.05678014 -350.23352899 362.05678014 -343 374 C-341.10985814 374.45624114 -339.21313104 374.900814 -337.29296875 375.20703125 C-332.99909785 376.69196446 -330.09399083 380.17014307 -326.87890625 383.2734375 C-324.07360723 385.93028786 -321.16514418 388.30612192 -318.125 390.6875 C-314.89212521 393.25827473 -312.48500764 395.4520077 -310.375 399 C-308.42455563 402.14872824 -308.42455563 402.14872824 -306.05859375 402.3359375 C-304.94677734 402.35527344 -304.94677734 402.35527344 -303.8125 402.375 C-298.06765187 402.52819595 -295.3256657 405.83423094 -291.45703125 409.7734375 C-288.46842882 412.48170997 -285.17348601 415 -281 415 C-281.64722153 411.00150684 -282.89717636 407.61508129 -284.51171875 403.90625 C-285.01968994 402.7207959 -285.52766113 401.5353418 -286.05102539 400.31396484 C-286.31867706 399.69140808 -286.58632874 399.06885132 -286.86209106 398.4274292 C-292.24861428 385.84924925 -296.65798155 373.28166887 -300 360 C-300.5785866 357.79041827 -301.1609418 355.58181316 -301.75 353.375 C-301.95109375 352.57835937 -302.1521875 351.78171875 -302.359375 350.9609375 C-302.99589433 348.71486142 -302.99589433 348.71486142 -305 346 C-305.15275391 344.51306641 -305.15275391 344.51306641 -305.30859375 342.99609375 C-305.95852309 337.56668407 -308.65787017 332.90152811 -311.0625 328.0625 C-311.77116211 326.6074707 -311.77116211 326.6074707 -312.49414062 325.12304688 C-313.65420146 322.74433627 -314.82295355 320.37033901 -316 318 C-316.66 318 -317.32 318 -318 318 C-318.49628906 318.99257813 -318.99257813 319.98515625 -319.50390625 321.0078125 C-324.00260417 330.00520833 -328.50130208 339.00260417 -333 348 C-333.99 348 -334.98 348 -336 348 C-335.67 345.36 -335.34 342.72 -335 340 C-335.99 339.67 -336.98 339.34 -338 339 C-335.4621689 330.11759114 -331.22230349 322.17381793 -327 314 C-330.57396241 312.72629235 -332.60096464 313.28755081 -336.11328125 314.58203125 Z M-150 316 C-149 318 -149 318 -149 318 Z M-93 324 C-92 326 -92 326 -92 326 Z M-74 358 C-73 360 -73 360 -73 360 Z " fill="#FC0000" transform="translate(495,0)"/>
<path d="M0 0 C0.66 0.33 1.32 0.66 2 1 C-3.11987376 8.37579059 -9.28559399 14.45252247 -15.6875 20.6875 C-17.75981164 22.70632441 -19.82517535 24.73190601 -21.88671875 26.76171875 C-22.79639404 27.64819092 -23.70606934 28.53466309 -24.64331055 29.44799805 C-26.85763057 31.84583159 -28.44684441 34.14135851 -30 37 C-29.01 37.33 -28.02 37.66 -27 38 C-28.32 38 -29.64 38 -31 38 C-29.19570502 25.87345934 -14.378464 14.10102128 -5.15234375 6.72265625 C-2.69870404 4.75885387 -1.45739796 2.76138562 0 0 Z " fill="#EE0404" transform="translate(396,339)"/>
<path d="M0 0 C1 3 1 3 0.22265625 5.04296875 C-0.16019531 5.75066406 -0.54304688 6.45835938 -0.9375 7.1875 C-1.31777344 7.90292969 -1.69804687 8.61835937 -2.08984375 9.35546875 C-2.39019531 9.89816406 -2.69054687 10.44085938 -3 11 C-2.01 11 -1.02 11 0 11 C0 13.31 0 15.62 0 18 C-0.66 16.68 -1.32 15.36 -2 14 C-3.32 15.32 -4.64 16.64 -6 18 C-6.71484375 16.453125 -6.71484375 16.453125 -7 14 C-5.94608774 11.46142115 -4.86034426 9.15504473 -3.5625 6.75 C-3.22412109 6.1003125 -2.88574219 5.450625 -2.53710938 4.78125 C-1.70213113 3.18185506 -0.85246886 1.59014141 0 0 Z " fill="#E90505" transform="translate(477,44)"/>
<path d="M0 0 C0.99 0.33 1.98 0.66 3 1 C3 2.98 3 4.96 3 7 C2.01 7 1.02 7 0 7 C-0.99 9.31 -1.98 11.62 -3 14 C-4.25955231 10.22134307 -3.48087189 8.96588214 -2.0625 5.3125 C-1.68222656 4.31863281 -1.30195313 3.32476562 -0.91015625 2.30078125 C-0.60980469 1.54152344 -0.30945313 0.78226562 0 0 Z " fill="#D01010" transform="translate(446,283)"/>
<path d="M0 0 C0.99 0 1.98 0 3 0 C5.125 4.625 5.125 4.625 4 8 C3.67 6.68 3.34 5.36 3 4 C3 5.32 3 6.64 3 8 C2.69595322 9.67225729 2.36871088 11.34080104 2 13 C0.4375 11.1875 0.4375 11.1875 -1 9 C-0.67 8.01 -0.34 7.02 0 6 C0.03920815 4.00038436 0.04443347 1.99950636 0 0 Z " fill="#E20606" transform="translate(130,77)"/>
<path d="M0 0 C0.66 0.66 1.32 1.32 2 2 C2.66 1.34 3.32 0.68 4 0 C5.32 0 6.64 0 8 0 C7.67 1.65 7.34 3.3 7 5 C6.34 4.01 5.68 3.02 5 2 C2.03 4.475 2.03 4.475 -1 7 C-0.67 4.69 -0.34 2.38 0 0 Z " fill="#CE0D0D" transform="translate(319,365)"/>
<path d="M0 0 C0.66 0.33 1.32 0.66 2 1 C1.34 1.66 0.68 2.32 0 3 C0.33 3.66 0.66 4.32 1 5 C-1.31 5.33 -3.62 5.66 -6 6 C-6 5.01 -6 4.02 -6 3 C-4.03533587 1.93224776 -2.03144641 0.93446535 0 0 Z " fill="#A10D0D" transform="translate(6,340)"/>
<path d="M0 0 C2.62386487 3.06117568 3 3.73173127 3 8 C1.35 8 -0.3 8 -2 8 C-1.34 5.36 -0.68 2.72 0 0 Z " fill="#DA0B0B" transform="translate(245,501)"/>
<path d="M0 0 C0.99 0.33 1.98 0.66 3 1 C2.01 2.485 2.01 2.485 1 4 C0.34 4 -0.32 4 -1 4 C-2.35712166 5.55855981 -2.35712166 5.55855981 -3.625 7.5 C-4.07101563 8.1496875 -4.51703125 8.799375 -4.9765625 9.46875 C-5.48316406 10.22671875 -5.48316406 10.22671875 -6 11 C-6.33 10.34 -6.66 9.68 -7 9 C-4.69 6.03 -2.38 3.06 0 0 Z " fill="#AA1818" transform="translate(119,140)"/>
<path d="M0 0 C0.99 0.33 1.98 0.66 3 1 C2.67 1.99 2.34 2.98 2 4 C2.53194603 6.54018266 2.53194603 6.54018266 3.4375 9.1875 C3.72496094 10.08855469 4.01242188 10.98960938 4.30859375 11.91796875 C4.53675781 12.60503906 4.76492187 13.29210937 5 14 C1.99174436 12.49587218 1.69337029 10.13951699 0.59765625 7.078125 C-0.10104707 4.64864679 -0.23571669 2.51431136 0 0 Z " fill="#D20E0E" transform="translate(146,103)"/>
<path d="M0 0 C-0.598125 0.28875 -1.19625 0.5775 -1.8125 0.875 C-4.19327792 2.04742026 -4.19327792 2.04742026 -7 4 C-6.67 4.66 -6.34 5.32 -6 6 C-7.32 6 -8.64 6 -10 6 C-9.75 4.125 -9.75 4.125 -9 2 C-6.04454879 -0.11103658 -3.56144099 -0.19785783 0 0 Z " fill="#E70505" transform="translate(130,271)"/>
<path d="M0 0 C0.99 0.33 1.98 0.66 3 1 C2.34 1.66 1.68 2.32 1 3 C3.97 3.495 3.97 3.495 7 4 C4 6 4 6 1.3125 5.625 C0.549375 5.41875 -0.21375 5.2125 -1 5 C-0.67 3.35 -0.34 1.7 0 0 Z " fill="#D81010" transform="translate(32,320)"/>
<path d="M0 0 C0.33 0.66 0.66 1.32 1 2 C1.99 1.67 2.98 1.34 4 1 C4 3.64 4 6.28 4 9 C3.67 7.68 3.34 6.36 3 5 C2.01 5 1.02 5 0 5 C0 3.35 0 1.7 0 0 Z " fill="#DB0809" transform="translate(82,241)"/>
<path d="M0 0 C4.1666604 0.47348414 6.92884715 1.04696841 10 4 C10 4.66 10 5.32 10 6 C9.01 6 8.02 6 7 6 C7 5.01 7 4.02 7 3 C4.69 2.34 2.38 1.68 0 1 C0 0.67 0 0.34 0 0 Z " fill="#9E1111" transform="translate(202,444)"/>
<path d="M0 0 C3.96 1.98 3.96 1.98 8 4 C7.34 4.66 6.68 5.32 6 6 C5.401875 5.690625 4.80375 5.38125 4.1875 5.0625 C1.91043228 3.89790296 1.91043228 3.89790296 -1 3 C-0.67 2.01 -0.34 1.02 0 0 Z " fill="#DA0A0A" transform="translate(377,127)"/>
</svg>
