<?xml version="1.0" encoding="UTF-8"?>
<svg version="1.1" xmlns="http://www.w3.org/2000/svg" width="500" height="552">
<path d="M0 0 C1.07722278 1.13391871 2.12063428 2.30107129 3.125 3.5 C6.06694986 6.95774626 9.13216056 10.26256452 12.25 13.5625 C35.907443 39.09505374 49.43712726 70.06315558 48.37890625 105.10546875 C46.64769544 138.42177967 29.58046424 171.46449506 6.125 194.87109375 C4.13727683 196.65747427 2.08569779 198.32867926 0 200 C-1.07884337 200.90018141 -2.15689721 201.80130949 -3.234375 202.703125 C-57.29894581 247.47215305 -126.53533408 263.99432755 -195 270 C-174.90639937 289.50886622 -150.5361023 298.76892988 -123 301 C-123.83282899 305.14995519 -125.54123182 306.82461266 -128.625 309.75 C-132.40387104 313.41061334 -135.9373839 317.14228236 -139.35546875 321.13671875 C-141.00398752 323.00451793 -142.72303581 324.75455624 -144.5 326.5 C-148.21413929 330.15610586 -151.60323635 334.05079567 -155 338 C-156.31122788 339.50111215 -157.62369046 341.00114686 -158.9375 342.5 C-159.52402344 343.1703125 -160.11054688 343.840625 -160.71484375 344.53125 C-161.13894531 345.0159375 -161.56304687 345.500625 -162 346 C-162.99 345.67 -163.98 345.34 -165 345 C-165.8515625 342.91796875 -165.8515625 342.91796875 -166.625 340.1875 C-169.04635464 333.05331716 -173.19825201 327.72738616 -178 322 C-178.53238281 321.36449219 -179.06476563 320.72898437 -179.61328125 320.07421875 C-191.61255439 307.08275765 -208.70707347 298.4439205 -224 290 C-224.35078613 290.42595459 -224.70157227 290.85190918 -225.06298828 291.29077148 C-241.5546875 311.31640625 -241.5546875 311.31640625 -243.28149414 313.41308594 C-244.43453124 314.81330772 -245.58736069 316.21370052 -246.73999023 317.61425781 C-249.69033473 321.19867299 -252.64438117 324.77992149 -255.60546875 328.35546875 C-261.50852233 335.49076372 -267.3421298 342.66377377 -273.02807617 349.97338867 C-276.09442874 353.89698897 -279.26243552 357.71683642 -282.5 361.5 C-286.71028703 366.42081486 -290.75494343 371.44587578 -294.73217773 376.55639648 C-298.28132864 381.109373 -301.9088035 385.59313669 -305.5625 390.0625 C-310.66342999 396.316019 -315.64531814 402.63962029 -320.52734375 409.06640625 C-322.25158513 411.3303306 -323.98517594 413.58696445 -325.71875 415.84375 C-350.65092926 448.35323809 -374.26072085 482.04745433 -394 518 C-402.7743616 516.14225505 -409.81820314 507.34775399 -415.87890625 501.125 C-418.50274481 498.49632932 -421.2839608 496.09636564 -424.1015625 493.6796875 C-426.59234411 491.47590954 -428.89707999 489.11383259 -431.2265625 486.7421875 C-433.04800415 484.95284173 -434.93714279 483.28711468 -436.875 481.625 C-440.83370275 478.22298983 -444.47875655 474.56016313 -448.1171875 470.8203125 C-449.87753339 468.93616102 -449.87753339 468.93616102 -452 468 C-452 467.01 -452 466.02 -452 465 C-450.48828125 463.78125 -450.48828125 463.78125 -448.3125 462.5 C-441.67838324 458.30397347 -435.908631 453.13905248 -430 448 C-428.88238281 447.03513672 -428.88238281 447.03513672 -427.7421875 446.05078125 C-425.81721632 444.37909575 -423.90574247 442.69356467 -422 441 C-421.28070313 440.36191406 -420.56140625 439.72382813 -419.8203125 439.06640625 C-406.89354014 427.51707684 -394.39227995 415.55896698 -382.15380859 403.28417969 C-379.97738731 401.10233092 -377.79557761 398.92597087 -375.61328125 396.75 C-374.20019963 395.33625848 -372.78742777 393.92220726 -371.375 392.5078125 C-370.7363501 391.87118683 -370.0977002 391.23456116 -369.43969727 390.5786438 C-365.63627868 386.75562706 -362.02183131 382.81739348 -358.50695801 378.72714233 C-355.96411426 375.81275914 -353.18006018 373.15975987 -350.40625 370.46875 C-348.42638317 368.43745806 -346.56066838 366.37511246 -344.703125 364.234375 C-340.9970755 359.96366989 -337.14218058 355.8507495 -333.25 351.75 C-326.76737009 344.89108937 -320.35933177 337.97320391 -314 331 C-313.0434978 329.959149 -312.08645372 328.91879573 -311.12890625 327.87890625 C-306.64652679 323.00905789 -302.19880532 318.118476 -297.8671875 313.11328125 C-295.96116108 310.95604214 -294.01217312 308.84192957 -292.05517578 306.73095703 C-288.10111739 302.4637059 -284.26495819 298.16825663 -280.625 293.625 C-276.58213754 288.59678038 -272.24597405 283.91536985 -267.82592773 279.22265625 C-262.95118639 274.01831633 -258.42085658 268.59746699 -254 263 C-258.68898101 258.02295872 -263.72905279 253.66094742 -269.05859375 249.3828125 C-271.01105201 247.80113981 -272.94133146 246.19166873 -274.84765625 244.5546875 C-288.8703606 232.51365738 -307.63541354 217.47701884 -326.9375 217.875 C-328.08089844 217.89304688 -329.22429687 217.91109375 -330.40234375 217.9296875 C-331.25957031 217.95289063 -332.11679687 217.97609375 -333 218 C-332.4234559 214.59986814 -331.39002339 213.07329515 -328.875 210.75 C-326.43721794 208.41522281 -324.13009994 206.06640197 -321.9375 203.5 C-318.47614326 199.48638185 -314.87293275 195.61704999 -311.25 191.75 C-298.88597092 178.58952306 -298.88597092 178.58952306 -287 165 C-286.01 165.33 -285.02 165.66 -284 166 C-283.02166191 168.3132667 -282.21167573 170.55615339 -281.4375 172.9375 C-275.16528102 190.78702123 -264.61162909 206.97005112 -251.9375 220.9375 C-251.47939941 221.44514893 -251.02129883 221.95279785 -250.54931641 222.47583008 C-246.44815175 226.84720429 -241.78918673 230.41325855 -237 234 C-236.98018066 232.80963135 -236.96036133 231.6192627 -236.93994141 230.39282227 C-234.04755753 61.92558745 -234.04755753 61.92558745 -178.86328125 8.578125 C-173.47877708 3.7298675 -167.83933561 -0.7143644 -162 -5 C-161.1344751 -5.64001953 -161.1344751 -5.64001953 -160.25146484 -6.29296875 C-109.28557577 -43.48390661 -47.66981571 -40.16076509 0 0 Z M-163 29 C-163.73863281 29.65484375 -164.47726562 30.3096875 -165.23828125 30.984375 C-209.49798579 72.49447865 -211.12799534 158.29905895 -213 215 C-213.21906248 225.99838486 -213.13757902 237.00108639 -213 248 C-201.74774085 247.46000832 -190.74774491 246.12185062 -179.625 244.375 C-178.78095612 244.24339478 -177.93691223 244.11178955 -177.06729126 243.97619629 C-125.86884266 235.94182134 -68.3536725 224.00623876 -27 191 C-26.16202881 190.34499512 -26.16202881 190.34499512 -25.30712891 189.67675781 C-2.76584635 171.95253394 18.6518356 141.85600012 23 113 C23.10957031 112.28972656 23.21914063 111.57945312 23.33203125 110.84765625 C25.52048946 94.24455329 22.83357892 78.23809553 16 63 C15.38898438 61.56140625 15.38898438 61.56140625 14.765625 60.09375 C2.24558177 32.69694953 -22.33698139 11.43326627 -50.10351562 0.70654297 C-91.5781727 -14.74500924 -131.5793643 0.67478455 -163 29 Z " fill="#FF0100" transform="translate(452,33)"/>
</svg>
