<?xml version="1.0" encoding="UTF-8"?>
<!-- Generator: visioncortex VTracer 0.6.4 -->
<svg version="1.1" xmlns="http://www.w3.org/2000/svg" width="500" height="552">
<path d="M0,0 L8,0 L16,3 L28,12 L36,20 L43,30 L49,39 L56,53 L64,69 L72,87 L81,111 L80,114 L78,114 L81,130 L83,158 L83,175 L80,175 L79,173 L80,196 L77,203 L77,218 L75,244 L70,267 L65,280 L61,282 L62,274 L62,254 L61,253 L58,282 L52,311 L42,344 L34,365 L29,377 L21,392 L18,395 L16,395 L17,388 L21,372 L22,360 L16,374 L12,384 L4,400 L-4,414 L-10,424 L-23,444 L-33,458 L-44,472 L-55,485 L-56,487 L-58,487 L-58,489 L-60,489 L-59,494 L-49,503 L-49,506 L-54,504 L-66,497 L-74,506 L-70,516 L-60,535 L-48,548 L-46,552 L-51,551 L-63,543 L-74,533 L-80,528 L-87,520 L-91,522 L-109,540 L-122,550 L-125,550 L-123,546 L-109,532 L-99,518 L-95,512 L-97,507 L-100,504 L-107,510 L-110,510 L-109,506 L-105,502 L-103,502 L-104,498 L-114,484 L-121,474 L-128,463 L-145,434 L-159,406 L-166,390 L-160,408 L-153,423 L-154,425 L-158,423 L-158,421 L-160,421 L-163,417 L-163,415 L-165,415 L-175,399 L-183,386 L-195,363 L-206,338 L-211,323 L-218,297 L-222,278 L-222,285 L-226,284 L-230,270 L-234,250 L-237,227 L-239,200 L-240,182 L-243,181 L-245,163 L-245,126 L-244,113 L-247,115 L-248,114 L-248,101 L-245,84 L-240,67 L-234,53 L-225,38 L-216,27 L-204,14 L-195,7 L-186,4 L-179,4 L-172,8 L-168,16 L-167,20 L-166,70 L-164,73 L-157,72 L-153,70 L-149,71 L-143,78 L-139,86 L-136,94 L-134,112 L-136,134 L-140,135 L-142,124 L-144,122 L-144,136 L-142,147 L-136,164 L-132,172 L-132,174 L-137,173 L-144,166 L-151,179 L-154,177 L-156,163 L-161,146 L-162,144 L-162,160 L-165,161 L-160,175 L-153,186 L-151,187 L-152,190 L-157,189 L-169,182 L-166,192 L-156,210 L-153,213 L-154,216 L-164,211 L-154,233 L-144,250 L-133,263 L-133,266 L-137,265 L-144,262 L-149,259 L-148,264 L-142,279 L-139,284 L-139,286 L-137,286 L-133,292 L-127,299 L-127,301 L-124,302 L-124,304 L-122,304 L-123,308 L-137,300 L-144,295 L-130,317 L-117,334 L-109,347 L-101,363 L-96,372 L-85,388 L-80,394 L-71,385 L-62,371 L-54,354 L-44,341 L-37,334 L-29,321 L-20,304 L-14,288 L-13,283 L-22,293 L-29,299 L-31,299 L-29,293 L-24,281 L-18,264 L-15,253 L-12,226 L-22,234 L-25,237 L-27,237 L-25,231 L-19,221 L-11,197 L-8,179 L-8,170 L-9,165 L-11,165 L-12,160 L-11,152 L-13,152 L-15,157 L-20,159 L-18,145 L-18,124 L-21,117 L-24,117 L-25,124 L-28,125 L-30,118 L-30,94 L-28,82 L-23,67 L-22,66 L-15,67 L-12,69 L-5,69 L-5,50 L-7,26 L-7,9 L-3,2 Z M11,12 Z M12,13 L14,18 L16,25 L14,26 L13,23 L5,17 L3,16 L2,23 L5,23 L9,39 L11,36 L12,32 L15,32 L15,42 L18,55 L21,60 L22,60 L23,53 L22,46 L25,46 L27,50 L31,60 L33,58 L33,54 L36,54 L37,61 L38,64 L38,76 L33,89 L29,94 L29,96 L27,96 L27,89 L25,88 L21,100 L16,106 L14,107 L15,105 L15,99 L13,100 L9,109 L3,117 L1,119 L-1,116 L-3,124 L-3,140 L-1,141 L0,135 L0,125 L2,126 L5,136 L6,141 L8,138 L11,130 L11,114 L13,114 L16,124 L18,134 L21,130 L25,117 L25,101 L28,105 L31,114 L32,120 L35,117 L38,103 L37,92 L36,89 L45,96 L52,106 L56,111 L55,95 L51,86 L58,90 L60,91 L59,85 L52,71 L44,60 L43,57 L49,60 L47,56 L39,45 L32,38 L27,33 L34,33 L30,25 L26,23 L24,19 L17,14 Z M-185,16 L-193,21 L-193,18 L-198,20 L-210,31 L-212,35 L-208,35 L-208,37 L-212,39 L-220,48 L-229,64 L-227,65 L-224,64 L-226,68 L-233,82 L-234,92 L-227,86 L-223,85 L-224,95 L-222,109 L-220,108 L-216,98 L-212,92 L-208,91 L-210,81 L-211,66 L-208,53 L-206,53 L-205,60 L-203,60 L-197,42 L-194,36 L-192,36 L-193,49 L-192,60 L-190,63 L-188,54 L-187,25 L-184,18 L-182,17 L-179,32 L-177,33 L-177,23 L-179,17 L-180,16 Z M-193,17 Z M1,24 Z M-178,35 Z M-208,91 L-207,103 L-204,112 L-200,120 L-198,121 L-195,109 L-193,105 L-191,105 L-189,123 L-186,133 L-181,142 L-180,142 L-178,126 L-176,118 L-178,112 L-180,116 L-182,120 L-184,121 L-186,111 L-194,95 L-195,93 L-197,93 L-197,105 L-201,103 L-207,91 Z M-243,109 L-242,111 Z M-235,111 L-236,119 L-233,120 L-234,111 Z M70,117 L68,126 L71,126 L69,136 L72,142 L73,142 L73,132 L71,117 Z M-237,122 L-238,131 L-238,142 L-235,139 L-233,135 L-234,128 L-236,122 Z M-222,128 L-222,132 L-220,131 Z M-222,137 L-222,145 L-220,149 L-218,144 L-221,137 Z M73,142 Z M68,160 L69,162 Z M69,162 L70,166 Z M-146,164 Z M77,166 Z M-233,173 L-234,179 L-233,182 L-230,183 L-232,173 Z M-216,175 Z M-215,177 Z M51,177 L49,187 L49,191 L51,191 L47,203 L48,211 L50,215 L52,208 L52,177 Z M-216,178 L-216,191 L-211,214 L-207,224 L-206,224 L-205,211 L-212,199 L-213,195 L-209,196 L-211,191 L-215,178 Z M33,179 L31,187 L34,186 L34,179 Z M-240,180 Z M-234,183 L-233,185 Z M-198,184 L-197,186 Z M-233,186 L-233,203 L-232,200 L-227,203 L-228,196 L-232,186 Z M-197,186 L-196,193 L-193,201 L-192,201 L-192,193 L-196,186 Z M34,190 Z M48,191 Z M66,191 L66,196 L67,196 L67,191 Z M33,192 L30,199 L33,210 L34,210 L34,192 Z M67,199 L63,206 L63,210 L67,210 L62,220 L60,223 L61,230 L65,238 L67,238 L68,232 L68,199 Z M-232,204 L-231,220 L-228,234 L-226,232 L-225,228 L-225,217 L-231,204 Z M-169,246 Z M-168,247 L-168,249 L-166,249 L-166,247 Z M-166,252 Z M-165,253 Z M-164,254 L-162,260 L-157,265 L-158,257 L-161,254 Z M-179,256 Z M-151,257 Z M-178,258 L-175,267 L-172,267 L-174,262 Z M-157,265 L-156,267 Z M-224,266 L-223,268 Z M-215,267 L-214,277 L-208,304 L-201,327 L-192,348 L-184,363 L-181,366 L-181,359 L-185,342 L-189,333 L-199,321 L-202,315 L-196,317 L-199,307 L-208,292 L-209,288 L-205,290 L-206,282 L-210,273 L-214,267 Z M-174,269 Z M52,269 L47,281 L46,288 L49,288 L50,292 L53,273 Z M-224,270 L-223,272 Z M-173,270 L-171,276 L-162,296 L-153,315 L-141,335 L-132,347 L-120,360 L-115,363 L-118,354 L-123,341 L-130,331 L-143,319 L-149,314 L-150,311 L-145,313 L-148,304 L-156,293 L-162,288 L-164,288 L-165,284 L-162,284 L-164,278 L-168,273 Z M-12,280 L-11,282 Z M48,292 L41,304 L38,315 L42,315 L36,326 L31,335 L30,339 L30,352 L33,348 L43,321 L49,297 L49,292 Z M18,295 L14,304 L14,308 L16,308 L19,298 Z M14,310 Z M-171,311 Z M-170,313 L-169,315 Z M13,313 Z M12,314 L6,321 L-1,335 L-5,344 L-8,355 L-3,354 L-2,357 L7,335 L12,321 L13,314 Z M-169,315 L-168,317 Z M-19,315 L-18,317 Z M-168,317 L-166,324 L-163,323 L-167,317 Z M-20,317 L-24,325 L-26,332 L-34,341 L-35,344 L-33,344 L-33,347 L-36,348 L-36,350 L-41,352 L-48,359 L-50,366 L-43,361 L-43,359 L-41,359 L-30,345 L-22,329 L-19,320 Z M-164,328 Z M-163,330 Z M-162,331 L-160,338 L-154,351 L-150,348 L-157,335 Z M-153,352 Z M-152,353 L-149,362 L-137,385 L-125,406 L-117,419 L-110,430 L-100,444 L-97,444 L-98,435 L-105,419 L-112,409 L-114,409 L-116,405 L-122,398 L-131,391 L-132,388 L-127,389 L-132,379 L-143,364 L-151,353 Z M23,355 Z M-4,358 L-11,366 L-14,369 L-17,374 L-17,376 L-14,376 L-18,383 L-25,391 L-30,396 L-40,413 L-41,417 L-38,417 L-38,420 L-42,422 L-51,429 L-58,437 L-64,453 L-63,455 L-56,448 L-47,437 L-38,425 L-27,407 L-21,396 L-7,369 L-3,360 Z M-38,364 Z M-39,365 L-40,368 L-43,369 L-48,375 L-56,382 L-70,392 L-78,396 L-76,400 L-67,408 L-63,404 L-56,394 L-47,382 L-38,367 Z M-181,366 Z M-129,369 Z M-128,370 Z M-127,371 L-125,376 L-118,387 L-106,404 L-96,418 L-89,432 L-83,449 L-80,446 L-74,431 L-68,415 L-68,412 L-84,404 L-96,397 L-105,390 L-118,379 L-126,371 Z M-127,389 Z " fill="#FF0100" transform="translate(332,0)"/>
</svg>
