<?xml version="1.0" encoding="UTF-8"?>
<!-- Generator: visioncortex VTracer 0.6.4 -->
<svg version="1.1" xmlns="http://www.w3.org/2000/svg" width="1080" height="1336">
<path d="M0,0 L28,1 L52,4 L76,9 L97,15 L125,26 L149,37 L167,47 L185,59 L197,68 L207,76 L217,85 L225,92 L233,100 L242,111 L253,126 L266,147 L280,174 L288,195 L293,212 L298,238 L299,247 L299,287 L296,311 L291,336 L284,359 L274,383 L266,399 L256,417 L246,432 L235,446 L224,458 L217,466 L205,477 L188,490 L172,501 L152,513 L130,525 L118,531 L148,531 L175,528 L199,523 L223,516 L247,507 L271,496 L295,483 L314,471 L333,458 L345,449 L359,438 L370,429 L384,417 L391,413 L395,414 L397,422 L398,432 L398,445 L396,460 L395,463 L407,458 L422,451 L428,448 L431,448 L430,455 L425,467 L417,482 L406,498 L393,514 L380,528 L372,535 L357,547 L338,559 L321,568 L301,576 L283,582 L256,588 L226,592 L210,593 L171,593 L142,591 L110,587 L71,580 L41,573 L10,565 L-7,560 L-16,561 L-56,569 L-94,575 L-133,579 L-149,580 L-205,580 L-237,577 L-261,573 L-282,568 L-312,558 L-332,549 L-351,538 L-368,526 L-382,514 L-397,499 L-408,485 L-418,471 L-430,450 L-440,427 L-442,420 L-442,415 L-438,416 L-424,426 L-405,436 L-407,423 L-406,403 L-403,389 L-400,385 L-396,386 L-375,407 L-367,414 L-354,426 L-343,435 L-327,448 L-309,461 L-292,472 L-271,484 L-252,494 L-225,505 L-207,511 L-183,517 L-157,521 L-146,522 L-134,522 L-150,513 L-171,499 L-185,489 L-199,478 L-209,469 L-217,462 L-227,452 L-236,441 L-246,428 L-257,411 L-270,386 L-280,362 L-287,341 L-292,320 L-296,292 L-297,279 L-297,244 L-294,222 L-289,201 L-280,174 L-272,158 L-264,143 L-250,122 L-238,106 L-226,92 L-215,81 L-204,72 L-187,59 L-170,48 L-149,36 L-137,30 L-114,21 L-88,13 L-58,6 L-32,2 L-22,1 Z M-3,9 L-29,12 L-55,18 L-76,25 L-102,35 L-122,44 L-140,55 L-152,64 L-163,73 L-176,85 L-187,98 L-199,115 L-207,129 L-216,148 L-224,173 L-228,194 L-230,214 L-230,248 L-228,269 L-224,292 L-217,315 L-206,343 L-193,370 L-182,388 L-172,401 L-163,411 L-152,423 L-142,432 L-126,444 L-109,455 L-88,467 L-71,475 L-29,491 L-11,497 L-2,497 L25,490 L63,478 L82,470 L106,458 L124,447 L138,437 L152,425 L170,407 L180,394 L190,379 L200,361 L208,345 L217,326 L224,306 L230,282 L234,254 L235,240 L235,214 L232,189 L226,164 L219,145 L211,129 L202,114 L192,100 L181,88 L166,73 L149,60 L139,53 L117,40 L99,30 L75,20 L54,14 L32,10 L20,9 Z " fill="#FE0000" transform="translate(531,99)"/>
<path d="M0,0 L9,1 L24,10 L42,18 L64,24 L81,27 L85,30 L85,37 L77,54 L67,81 L59,110 L53,136 L47,169 L42,205 L37,255 L34,302 L32,353 L32,511 L27,515 L16,522 L6,531 L-2,541 L-11,557 L-14,562 L-18,562 L-26,543 L-34,531 L-45,519 L-59,509 L-60,508 L-59,492 L-53,421 L-50,373 L-48,328 L-47,281 L-47,255 L-48,215 L-51,167 L-55,131 L-60,101 L-65,77 L-72,53 L-80,31 L-80,25 L-77,22 L-53,19 L-32,14 L-16,8 Z " fill="#FE0000" transform="translate(518,670)"/>
</svg>
