<?xml version="1.0" encoding="UTF-8"?>
<svg version="1.1" xmlns="http://www.w3.org/2000/svg" width="500" height="552">
<path d="M0 0 C0.71639648 0.28407715 1.43279297 0.5681543 2.17089844 0.86083984 C12.65908028 5.10255302 21.47270954 10.59377989 30 18 C31.11955078 18.96873047 31.11955078 18.96873047 32.26171875 19.95703125 C46.18942352 32.95439817 56.18581799 52.86672287 57 72 C57.0515625 73.01578125 57.103125 74.0315625 57.15625 75.078125 C58.36904524 121.77074172 34.94713858 166.10486609 7 202 C6.22011719 203.00675781 5.44023437 204.01351562 4.63671875 205.05078125 C0.79596769 209.93309192 -3.16468189 214.404642 -7.75390625 218.60546875 C-11.85751275 222.48633251 -14.14384936 225.64991873 -16 231 C0.43985359 232.32817489 15.44284733 226.75826239 30.10351562 219.86865234 C32.61961987 218.71619368 35.17538375 217.67387288 37.73706055 216.62768555 C51.83666739 210.81397846 56.48250493 203.53633592 63 190 C65.68518377 191.00849805 66.82208084 191.70506414 68.32446289 194.19555664 C68.8928186 195.53928345 68.8928186 195.53928345 69.47265625 196.91015625 C69.89740234 197.90080078 70.32214844 198.89144531 70.75976562 199.91210938 C71.18966797 200.95173828 71.61957031 201.99136719 72.0625 203.0625 C72.7131543 204.58133789 72.7131543 204.58133789 73.37695312 206.13085938 C82.73607308 228.22522018 82.73607308 228.22522018 79.2265625 239.48046875 C74.75313444 248.44318809 66.06465506 256.73900915 57 261 C54 261.8125 54 261.8125 52 262 C51.31640625 260.234375 51.31640625 260.234375 51 258 C52.21484375 256.078125 52.21484375 256.078125 53.9375 254.25 C54.50339844 253.63640625 55.06929687 253.0228125 55.65234375 252.390625 C56.09707031 251.93171875 56.54179687 251.4728125 57 251 C52.1666528 250.91666643 47.76307437 251.04738513 43 252 C42.67 255.63 42.34 259.26 42 263 C39.7309401 261.86547005 37.47179298 260.70888591 35.25 259.484375 C21.62013775 252.21074659 6.19277296 246.79063422 -9.375 246.9375 C-10.62023437 246.94652344 -11.86546875 246.95554688 -13.1484375 246.96484375 C-14.08945312 246.97644531 -15.03046875 246.98804688 -16 247 C-15.21172254 248.29373782 -14.41924884 249.58491951 -13.625 250.875 C-13.18414062 251.59429687 -12.74328125 252.31359375 -12.2890625 253.0546875 C-11.0146287 255.11793582 -11.0146287 255.11793582 -9 257 C-9.1875 259 -9.1875 259 -10 261 C-10.99 261.66 -11.98 262.32 -13 263 C-16.24102757 270.61719764 -16.68019949 279.02741278 -17.125 287.1875 C-17.24174072 289.15106445 -17.24174072 289.15106445 -17.36083984 291.15429688 C-18.66126465 314.73244132 -18.69721949 338.39292376 -19 362 C-17.23086176 362.22226864 -15.45955629 362.42733873 -13.6875 362.625 C-12.20830078 362.79902344 -12.20830078 362.79902344 -10.69921875 362.9765625 C-7.77342584 363.25476995 -7.77342584 363.25476995 -5 361 C-1.47556916 361.14997578 0.4491803 361.57158468 3.25 363.75 C5 366 5 366 5.8125 368.42578125 C7.28436708 371.61644048 8.76863875 372.62609718 11.75 374.4375 C12.59046875 374.97246094 13.4309375 375.50742187 14.296875 376.05859375 C18.51697902 377.52831206 21.05514594 375.92622575 24.94238281 374.07495117 C27.05874586 373.03346728 29.1558587 371.96042489 31.25 370.875 C38.73183391 367 38.73183391 367 41 367 C40.39723343 373.21238446 37.67861589 377.81418175 34.70703125 383.16601562 C32.51694465 387.23997056 32.51694465 387.23997056 32.125 391.76953125 C33.74507778 395.89928309 35.82938742 399.79566012 39.81640625 402.0078125 C41.5370651 402.69032854 43.26812691 403.34646299 45 404 C47.58772586 407.8815888 46.87719799 409.53426477 46 414 C45.67 414.99 45.34 415.98 45 417 C44.60172156 421.2937689 44.71982349 425.33550172 46.55712891 429.31298828 C51.56631346 435.16975059 62.55142772 436.38649113 69.73095703 438.03369141 C70.47974121 438.35257324 71.22852539 438.67145508 72 439 C72.82763672 441.10302734 72.82763672 441.10302734 73 443 C72.25314941 443.21503174 71.50629883 443.43006348 70.73681641 443.65161133 C67.34959961 444.65680391 63.98930305 445.73321106 60.625 446.8125 C58.8615625 447.31813477 58.8615625 447.31813477 57.0625 447.83398438 C53.69427834 448.94704613 50.92708393 449.99027959 48 452 C44.69777316 458.64605956 46.07481797 466.0883602 47.19921875 473.15234375 C47 476 47 476 44.76953125 478.37890625 C42 480 42 480 38 480 C37.731875 480.9075 37.46375 481.815 37.1875 482.75 C36 486 36 486 34.25 488 C33.8375 488.66 33.425 489.32 33 490 C34.49741648 496.11907228 37.84522864 501.44761678 40.8984375 506.8984375 C41.29546875 507.62546875 41.6925 508.3525 42.1015625 509.1015625 C42.46588379 509.75463379 42.83020508 510.40770508 43.20556641 511.08056641 C44 513 44 513 44 517 C37.96356567 516.33063732 32.85784822 512.96617044 27.59375 510.15039062 C26.8203125 509.74884766 26.046875 509.34730469 25.25 508.93359375 C24.55390625 508.56290771 23.8578125 508.19222168 23.140625 507.81030273 C20.60778216 506.85153159 18.68853405 506.78410383 16 507 C14.01541483 508.04180915 14.01541483 508.04180915 12.3125 509.5 C9.18055556 512 9.18055556 512 7 512 C6.938125 512.7425 6.87625 513.485 6.8125 514.25 C6 517 6 517 4.125 519.375 C-0.01596285 521.52830068 -2.75672491 520.84468519 -7.28125 520.23046875 C-10.85468157 519.92754855 -13.63326043 520.85530855 -17 522 C-18.66616105 522.04105034 -20.33402475 522.04800268 -22 522 C-22.17015625 522.72703125 -22.3403125 523.4540625 -22.515625 524.203125 C-23.84981428 529.73859115 -25.28257896 535.23868884 -26.9375 540.6875 C-27.38416016 542.17830078 -27.38416016 542.17830078 -27.83984375 543.69921875 C-29 546 -29 546 -31.12890625 546.83203125 C-31.74636719 546.88746094 -32.36382812 546.94289063 -33 547 C-41 530.53191489 -41 530.53191489 -41 523 C-42.87387477 522.6603981 -44.74916697 522.32861309 -46.625 522 C-47.66914063 521.814375 -48.71328125 521.62875 -49.7890625 521.4375 C-55.54159101 520.56246746 -55.54159101 520.56246746 -61 522 C-64.57529739 522.38861928 -66.32640241 522.50519819 -69.25 520.3125 C-71 518 -71 518 -71.75 515.5625 C-73.64448903 511.67879749 -76.98726966 509.5183304 -81 508 C-84.67319354 508.47757659 -87.52949434 509.60449567 -90.79296875 511.3203125 C-91.67017578 511.77277344 -92.54738281 512.22523438 -93.45117188 512.69140625 C-95.28779754 513.65363554 -97.12372672 514.6171953 -98.95898438 515.58203125 C-99.83232422 516.03191406 -100.70566406 516.48179687 -101.60546875 516.9453125 C-102.79885864 517.57203857 -102.79885864 517.57203857 -104.01635742 518.21142578 C-104.9982605 518.60177002 -104.9982605 518.60177002 -106 519 C-106.66 518.67 -107.32 518.34 -108 518 C-106.27820387 512.20932775 -103.58877775 507.13081945 -100.74609375 501.83398438 C-98.04146519 496.70093637 -98.04146519 496.70093637 -98 491 C-100.13499311 486.29206648 -102.78770635 482.07046677 -107.75 480.1875 C-108.8225 479.795625 -109.895 479.40375 -111 479 C-112.5 477.1875 -112.5 477.1875 -113 475 C-112.67231698 471.7887064 -112.02051744 469.06155231 -111 466 C-110.59962148 461.9907302 -110.73667253 458.26658925 -112.55712891 454.59326172 C-117.72262712 448.88936301 -128.54146118 447.60315217 -135.73095703 445.86865234 C-136.47974121 445.58199707 -137.22852539 445.2953418 -138 445 C-138.495 443.515 -138.495 443.515 -139 442 C-135.21008507 440.66165014 -131.41779164 439.33017337 -127.625 438 C-126.54476562 437.6184375 -125.46453125 437.236875 -124.3515625 436.84375 C-123.3203125 436.4828125 -122.2890625 436.121875 -121.2265625 435.75 C-120.27346191 435.41484375 -119.32036133 435.0796875 -118.33837891 434.734375 C-116 434 -116 434 -114 434 C-113.90912109 433.1646875 -113.90912109 433.1646875 -113.81640625 432.3125 C-113.73261719 431.549375 -113.64882812 430.78625 -113.5625 430 C-113.47484375 429.18273437 -113.3871875 428.36546875 -113.296875 427.5234375 C-113.10831048 425.92063909 -112.89260685 424.32062161 -112.640625 422.7265625 C-111.85507145 418.11118152 -111.85507145 418.11118152 -114 414 C-113.82087351 410.65630561 -113.67369151 408.028266 -111.8125 405.1875 C-110 404 -110 404 -107.1875 403.375 C-102.51296648 401.35853456 -99.96075683 397.66156585 -98 393 C-98.13859504 387.27800457 -102.11424327 382.01095771 -104.84960938 377.15039062 C-105.25115234 376.41884766 -105.65269531 375.68730469 -106.06640625 374.93359375 C-106.43709229 374.27415771 -106.80777832 373.61472168 -107.18969727 372.93530273 C-108 371 -108 371 -108 367 C-104.40588878 367.58014246 -101.64542966 368.54244003 -98.453125 370.27734375 C-97.6075 370.70724609 -96.761875 371.13714844 -95.890625 371.58007812 C-94.13122675 372.48450252 -92.38597991 373.41700513 -90.65625 374.37695312 C-88.02157491 375.68031891 -85.91652192 376.59979792 -83 377 C-78.78326264 375.44308761 -75.18102822 373.06606542 -72.91967773 369.11010742 C-72.25321764 367.41695655 -71.62447246 365.70908253 -71 364 C-69.1875 362.5 -69.1875 362.5 -67 362 C-64.18819741 362.2928961 -61.67294417 362.76867544 -59 363.6875 C-56.03175194 364.15128876 -53.79557728 362.99010029 -51 362 C-49.68 362 -48.36 362 -47 362 C-46.7881859 341.79130524 -46.85908896 321.76997445 -48.5 301.61328125 C-49.09615143 294.24886711 -49.36257886 286.87750633 -49.48217773 279.49047852 C-49.64887341 273.81909763 -50.13926787 268.02379106 -53 263 C-55.01965346 261.72847902 -55.01965346 261.72847902 -57 261 C-57 260.01 -57 259.02 -57 258 C-56.21625 257.236875 -55.4325 256.47375 -54.625 255.6875 C-51.82891158 252.82483805 -50.97842689 250.82475967 -50 247 C-66.85117276 245.93008427 -88.07916637 252.36742317 -102 262 C-103.02513069 262.97422126 -104.03325603 263.9678149 -105 265 C-105.99 264.67 -106.98 264.34 -108 264 C-107.95875 262.906875 -107.9175 261.81375 -107.875 260.6875 C-107.67925334 256.91107771 -107.67925334 256.91107771 -110 254 C-112.87759068 253.19663887 -112.87759068 253.19663887 -116.125 252.8125 C-117.22070312 252.65394531 -118.31640625 252.49539063 -119.4453125 252.33203125 C-120.28835937 252.22246094 -121.13140625 252.11289062 -122 252 C-121.154375 252.9075 -120.30875 253.815 -119.4375 254.75 C-116.97396749 257.67025483 -116.97396749 257.67025483 -117.1875 260.375 C-117.455625 260.91125 -117.72375 261.4475 -118 262 C-128.16563284 259.59235012 -137.20850213 251.33452261 -143.3828125 243.171875 C-146.98375009 237.17870615 -147.0238589 230.76577029 -146 224 C-143.01199024 212.79249803 -138.21730505 200.81841738 -132 191 C-131.01 190.67 -130.02 190.34 -129 190 C-128.48050781 191.01320312 -127.96101563 192.02640625 -127.42578125 193.0703125 C-126.72173823 194.4220751 -126.01728941 195.77362641 -125.3125 197.125 C-124.97283203 197.79015625 -124.63316406 198.4553125 -124.28320312 199.140625 C-120.50023484 206.35301313 -116.24469576 211.43877613 -109 215.375 C-108.31647461 215.75221191 -107.63294922 216.12942383 -106.92871094 216.51806641 C-92.2146015 224.35969794 -69.71650972 235.04141201 -52.65625 231.515625 C-52.1096875 231.34546875 -51.563125 231.1753125 -51 231 C-51.59490502 227.59623963 -52.75450161 225.79458137 -55.0625 223.25 C-55.69285156 222.55390625 -56.32320313 221.8578125 -56.97265625 221.140625 C-59.52477683 218.44590038 -62.14256548 215.82786781 -64.8125 213.25 C-94.80696651 182.39854873 -118.08191422 140.57116735 -125 98 C-125.19078125 96.87851563 -125.3815625 95.75703125 -125.578125 94.6015625 C-128.45794574 70.0164262 -123.43447957 47.48744683 -108.0625 27.8125 C-83.24098615 -2.21730882 -36.52835386 -15.08779833 0 0 Z M-87.6875 39.75 C-100.82852374 55.70474882 -104.6338731 72.84516811 -103 93 C-101.99942764 104.44243748 -101.99942764 104.44243748 -98 115 C-97.29037109 113.44152344 -97.29037109 113.44152344 -96.56640625 111.8515625 C-88.03117243 93.6183937 -76.10551577 82.92924557 -57.23046875 75.97265625 C-49.50139158 73.64552177 -42.3940673 72.63861098 -34.3125 72.6875 C-32.86447998 72.69487183 -32.86447998 72.69487183 -31.38720703 72.70239258 C-14.67591389 72.97463169 -0.28792413 77.76567424 13 88 C14.051875 88.763125 15.10375 89.52625 16.1875 90.3125 C22.587374 96.42793515 26.81158927 103.80122955 30 112 C32.95344474 106.86563212 33.03566626 101.16122858 33.6875 95.375 C33.82994141 94.23675781 33.97238281 93.09851563 34.11914062 91.92578125 C36.11119645 74.66129747 32.477698 57.45168248 21.76757812 43.38085938 C11.24087072 30.44536603 -4.21767243 19.77180656 -21.0625 17.2109375 C-46.8383463 15.36001237 -69.46933181 20.32798809 -87.6875 39.75 Z M-73 105 C-81.75862879 115.94349462 -84.0426363 127.66842215 -82.65625 141.40625 C-80.22393597 160.0539909 -72.68696517 171.57944611 -60.40869141 185.39892578 C-59.16008453 186.81805297 -57.94281594 188.26461777 -56.73046875 189.71484375 C-52.64348985 194.55956627 -48.61579937 198.02780831 -43 201 C-42.67 200.34 -42.34 199.68 -42 199 C-44.56768754 193.65920992 -47.58093243 189.93873414 -52 186 C-52.66 186 -53.32 186 -54 186 C-52.82648048 182.47944145 -52.09677617 182.17776613 -49 180.375 C-46.3413953 178.8943999 -46.3413953 178.8943999 -44 177 C-44.38790728 170.39911115 -45.80069539 164.92533895 -48.25 158.8125 C-48.53746094 158.04486328 -48.82492188 157.27722656 -49.12109375 156.48632812 C-51.08550668 151.48093534 -53.45769265 148.02479404 -57 144 C-57 143.34 -57 142.68 -57 142 C-55.9275 142.061875 -54.855 142.12375 -53.75 142.1875 C-49.76879556 141.98843978 -48.69104261 141.80341581 -46 139 C-45.63410661 136.27359976 -45.63410661 136.27359976 -45.8125 133.1875 C-45.55779994 127.06781477 -43.91759465 123.24881034 -40.625 118.25 C-40.22514893 117.6418042 -39.82529785 117.0336084 -39.41333008 116.40698242 C-37.40013002 113.5166053 -36.41579956 112.13859985 -33 111 C-31.70759488 112.77029446 -30.41610207 114.54125498 -29.125 116.3125 C-28.40570313 117.29863281 -27.68640625 118.28476563 -26.9453125 119.30078125 C-24.04554052 123.32436044 -22.78553272 125.44124584 -22.5625 130.375 C-22.24918682 136.30514159 -22.24918682 136.30514159 -19 141 C-15.95561731 141.40014977 -13.05073912 141.28780558 -10 141 C-10.556875 141.928125 -11.11375 142.85625 -11.6875 143.8125 C-20.8292152 159.19158843 -20.8292152 159.19158843 -23 176 C-19.98001951 179.01998049 -16.94144164 181.332467 -13 183 C-13 183.99 -13 184.98 -13 186 C-14.64453125 187.61328125 -14.64453125 187.61328125 -16.8125 189.3125 C-20.27767452 192.21243328 -22.47800284 194.63694146 -24 199 C-23.67 199.66 -23.34 200.32 -23 201 C-10.07606767 191.3257992 -0.78264199 179.43026577 8 166 C8.60070312 165.08992188 9.20140625 164.17984375 9.8203125 163.2421875 C17.14453187 151.67204386 19.03070527 136.3087395 16.38671875 122.88671875 C12.61165855 110.06481826 4.5104284 100.85667777 -6.95703125 94.3125 C-15.3549801 89.91810161 -22.77367562 87.61081298 -32.25 87.6875 C-32.98943848 87.69313965 -33.72887695 87.6987793 -34.49072266 87.70458984 C-49.63990823 88.03641976 -62.60600023 93.91711916 -73 105 Z M-61 399 C-58.03 405.27 -55.06 411.54 -52 418 C-51.67 418 -51.34 418 -51 418 C-49.87486367 409.98340366 -49.90420616 402.07861415 -50 394 C-54.14833104 393.73500053 -54.14833104 393.73500053 -61 399 Z M-16 394 C-15.67 402.58 -15.34 411.16 -15 420 C-12.64681475 416.47022213 -10.70305746 412.82381929 -8.75 409.0625 C-8.16605469 407.98838867 -8.16605469 407.98838867 -7.5703125 406.89257812 C-7.21195313 406.19712891 -6.85359375 405.50167969 -6.484375 404.78515625 C-6.15147461 404.15488525 -5.81857422 403.52461426 -5.47558594 402.87524414 C-4.67257156 400.5659117 -4.67257156 400.5659117 -7 397 C-9.97 396.01 -12.94 395.02 -16 394 Z M-76 414 C-79.27764137 420.26888689 -82.14565118 425.77812909 -82 433 C-78.2318169 434.34090793 -74.46004479 435.6714179 -70.6875 437 C-69.61564453 437.3815625 -68.54378906 437.763125 -67.43945312 438.15625 C-66.41142578 438.5171875 -65.38339844 438.878125 -64.32421875 439.25 C-62.9024231 439.75273437 -62.9024231 439.75273437 -61.4519043 440.265625 C-58.94760921 441.14345953 -58.94760921 441.14345953 -56 441 C-56 441.99 -56 442.98 -56 444 C-56.62003906 444.15855469 -57.24007812 444.31710937 -57.87890625 444.48046875 C-66.04593509 446.63218959 -74.01192996 449.27262926 -82 452 C-80.29259116 458.77410989 -78.03882065 464.28498896 -74 470 C-69.08649239 468.5396386 -64.83955518 466.454616 -60.375 464 C-52.72364756 459.842966 -52.72364756 459.842966 -49 458 C-47.7530639 439.68797133 -47.7530639 439.68797133 -52.45410156 422.70019531 C-56.4116996 419.20050118 -60.94430605 418.14602491 -66 417 C-67.2783083 416.48302528 -68.54615434 415.93924195 -69.80078125 415.3671875 C-72.87992396 413.80351473 -72.87992396 413.80351473 -76 414 Z M9 414 C1.08 417.96 -6.84 421.92 -15 426 C-15.0825 428.97 -15.165 431.94 -15.25 435 C-15.90700559 453.06004619 -18.09183988 471.0388959 -20 489 C-16.15827097 488.29920108 -13.16160747 487.24403589 -9.6875 485.4375 C-8.80449219 484.98246094 -7.92148437 484.52742188 -7.01171875 484.05859375 C-6.34785156 483.70925781 -5.68398438 483.35992187 -5 483 C-5 479.77767269 -5.52094819 478.65706547 -7.00390625 475.875 C-7.41447266 475.08609375 -7.82503906 474.2971875 -8.24804688 473.484375 C-9.12520478 471.82650746 -10.00542204 470.17025502 -10.88867188 468.515625 C-11.29794922 467.72671875 -11.70722656 466.9378125 -12.12890625 466.125 C-12.51119385 465.40570313 -12.89348145 464.68640625 -13.28735352 463.9453125 C-14 462 -14 462 -13 459 C-12.40461426 459.30292969 -11.80922852 459.60585938 -11.19580078 459.91796875 C-8.50761715 461.28279543 -5.81636828 462.64146485 -3.125 464 C-1.71927734 464.71542969 -1.71927734 464.71542969 -0.28515625 465.4453125 C0.61074219 465.89648438 1.50664062 466.34765625 2.4296875 466.8125 C3.25710449 467.23144531 4.08452148 467.65039062 4.93701172 468.08203125 C6.92821018 469.13551324 6.92821018 469.13551324 9 469 C9.98929461 467.13032395 10.96600469 465.25398622 11.9375 463.375 C12.48277344 462.33085937 13.02804687 461.28671875 13.58984375 460.2109375 C15.31156078 456.64831463 15.31156078 456.64831463 16 451 C8.08 448.36 0.16 445.72 -8 443 C-8 442.34 -8 441.68 -8 441 C-0.08 438.36 7.84 435.72 16 433 C15.26204675 426.09829184 15.26204675 426.09829184 13.0625 420.125 C12.72347656 419.38507813 12.38445312 418.64515625 12.03515625 417.8828125 C11.02610342 415.84012797 11.02610342 415.84012797 9 414 Z M-50 462 C-51.294174 464.56126064 -52.58540784 467.12393358 -53.875 469.6875 C-54.23980469 470.40873047 -54.60460937 471.12996094 -54.98046875 471.87304688 C-56.8179242 475.53125364 -58.56138502 479.1611695 -60 483 C-58.04414675 484.00484204 -56.08523763 485.00373805 -54.125 486 C-53.03445312 486.556875 -51.94390625 487.11375 -50.8203125 487.6875 C-48.21624918 489.14064094 -48.21624918 489.14064094 -46 489 C-46.64121274 479.93865155 -47.73480542 470.99147995 -49 462 C-49.33 462 -49.66 462 -50 462 Z " fill="#FF0100" transform="translate(283,5)"/>
</svg>
