<?xml version="1.0" encoding="UTF-8"?>
<svg version="1.1" xmlns="http://www.w3.org/2000/svg" width="500" height="552">
<path d="M0 0 C5.75 0.875 5.75 0.875 8 2 C8 2.66 8 3.32 8 4 C8.99 4 9.98 4 11 4 C11 4.66 11 5.32 11 6 C11.721875 6.28875 12.44375 6.5775 13.1875 6.875 C14.115625 7.24625 15.04375 7.6175 16 8 C17.2684375 8.433125 17.2684375 8.433125 18.5625 8.875 C21.37849334 10.17468923 22.84771813 11.78249747 25 14 C28.00975577 16.14982555 30.48826767 17.82942256 34 19 C34 19.66 34 20.32 34 21 C35.03447266 21.36738281 35.03447266 21.36738281 36.08984375 21.7421875 C39.4846607 23.20947751 42.48525342 25.09845794 45.5625 27.125 C46.48494507 27.72550171 46.48494507 27.72550171 47.42602539 28.33813477 C54.65385082 33.05452607 61.82623513 37.85462957 68.9765625 42.6875 C70.33854009 43.60416901 71.70051924 44.5208357 73.0625 45.4375 C74.02820923 46.09383423 74.02820923 46.09383423 75.01342773 46.76342773 C77.66049517 48.54235007 79.95840042 49.98613347 83 51 C83 51.66 83 52.32 83 53 C83.7425 53.268125 84.485 53.53625 85.25 53.8125 C88 55 88 55 90.0625 56.5625 C92.07687729 58.05703799 93.55493989 58.56338212 96 59 C96 59.66 96 60.32 96 61 C96.99 61 97.98 61 99 61 C99 61.66 99 62.32 99 63 C103.81261981 64.54003834 108.36444421 64.69075463 113.04296875 62.71484375 C114.59951172 61.83505859 114.59951172 61.83505859 116.1875 60.9375 C157.18226567 39.05493151 203.45181203 39.00812392 247 52 C248.175625 52.3403125 249.35125 52.680625 250.5625 53.03125 C257.34113285 55.12253035 263.45831732 58.13941253 269.67578125 61.51171875 C276.0741425 64.37631997 280.61579532 64.21492815 287 62 C287 61.34 287 60.68 287 60 C287.99 60 288.98 60 290 60 C290.33 59.34 290.66 58.68 291 58 C292.77734375 56.7109375 292.77734375 56.7109375 294.9375 55.375 C296.00291016 54.70597656 296.00291016 54.70597656 297.08984375 54.0234375 C299 53 299 53 301 53 C301 52.34 301 51.68 301 51 C301.99 51 302.98 51 304 51 C304.33 50.34 304.66 49.68 305 49 C306.6533116 47.97807117 308.32458945 46.9852803 310 46 C311.44962091 45.02320195 312.89161174 44.03503683 314.328125 43.0390625 C315.12863281 42.48476562 315.92914063 41.93046875 316.75390625 41.359375 C318.40377158 40.2129897 320.05223649 39.06458599 321.69921875 37.9140625 C326.34365806 34.70382605 331.0294531 31.80514715 335.99560547 29.12109375 C338.6150573 27.65598744 341.02006748 25.96286244 343.4375 24.1875 C347.7803838 21 347.7803838 21 350 21 C350 20.34 350 19.68 350 19 C351.093125 18.505 352.18625 18.01 353.3125 17.5 C358.07282111 15.13252236 362.19846137 12.06202255 366.453125 8.89453125 C369.24536153 6.81748414 372.07343565 4.8813628 375 3 C375.845625 2.4225 376.69125 1.845 377.5625 1.25 C380.30906794 -0.15849638 381.96439419 -0.1010185 385 0 C384.19092719 5.45822251 382.95301156 10.43883695 380.765625 15.515625 C380.09720581 17.08521973 380.09720581 17.08521973 379.4152832 18.68652344 C378.94823975 19.7799707 378.48119629 20.87341797 378 22 C376.13162723 26.49418499 374.28432446 30.99692454 372.4375 35.5 C371.73463867 37.19962891 371.73463867 37.19962891 371.01757812 38.93359375 C368.39268317 45.34347708 366.04834076 51.76924408 363.90942383 58.35595703 C362.72536045 61.79848223 361.25182184 64.93003748 359.625 68.1875 C356.65092369 74.30239329 354.31761848 80.50906067 352.12939453 86.94189453 C350.76570811 90.91999646 349.29389571 94.75189988 347.5 98.5625 C345.38442452 103.06240484 343.486462 107.61629394 341.6875 112.25 C341.42066406 112.91201416 341.15382813 113.57402832 340.87890625 114.25610352 C338.75612207 119.82492056 337.84494674 124.40625615 340.3203125 129.96484375 C340.91585938 130.94582031 341.51140625 131.92679688 342.125 132.9375 C356.36208414 158.11737315 361.87894351 187.78267797 360.80224609 216.40844727 C360.63355512 223.01613861 360.52586214 228.76779861 365 234 C367.55764867 236.06121556 370.27424816 237.56034464 373.1875 239.0625 C374.73313298 239.91183618 376.27613818 240.76597292 377.81640625 241.625 C378.54875488 242.03105469 379.28110352 242.43710937 380.03564453 242.85546875 C383.15144988 244.670892 385.83396681 246.90461101 388.59765625 249.203125 C392.54552941 252.15600574 396.83917507 254.55349292 401.12548828 256.98071289 C402.78116746 257.9355542 404.39523198 258.96186944 406 260 C406 260.66 406 261.32 406 262 C406.99 262 407.98 262 409 262 C409 262.66 409 263.32 409 264 C410.08003296 264.39964966 410.08003296 264.39964966 411.18188477 264.80737305 C414.03105104 266.01314081 416.4797704 267.42513383 419.08984375 269.08203125 C420.03923828 269.68466797 420.98863281 270.28730469 421.96679688 270.90820312 C423.43729492 271.85083008 423.43729492 271.85083008 424.9375 272.8125 C425.91396484 273.42931641 426.89042969 274.04613281 427.89648438 274.68164062 C438.31731433 281.32977689 438.31731433 281.32977689 442 285 C442 286.32 442 287.64 442 289 C440.21261162 289.00879936 440.21261162 289.00879936 438.38911438 289.01777649 C427.16212016 289.07497745 415.93532013 289.14772546 404.70852375 289.23571491 C398.93663744 289.28045156 393.16482226 289.31970057 387.39282227 289.34643555 C381.82302041 289.37243543 376.25349178 289.41281467 370.68385887 289.46318626 C368.55842676 289.47987736 366.43294737 289.49137764 364.30745888 289.49761391 C361.33138986 289.50723044 358.3560234 289.53526096 355.38012695 289.56762695 C354.06058517 289.56547432 354.06058517 289.56547432 352.71438599 289.5632782 C347.90196566 289.63734701 345.01984747 290.09568871 341 293 C340.34 293 339.68 293 339 293 C338.7421875 293.69480469 338.484375 294.38960938 338.21875 295.10546875 C336.86111864 298.32984322 335.24670987 301.28166232 333.5 304.3125 C332.8915625 305.38113281 332.283125 306.44976562 331.65625 307.55078125 C331.1096875 308.35902344 330.563125 309.16726563 330 310 C329.34 310 328.68 310 328 310 C327.731875 310.94875 327.46375 311.8975 327.1875 312.875 C326 316 326 316 323 318 C322.67 318.99 322.34 319.98 322 321 C320.37897032 322.71108689 318.70496537 324.37253306 317 326 C316.23429687 326.76957031 315.46859375 327.53914063 314.6796875 328.33203125 C306.63311585 336.34341381 298.4002728 343.61394511 289 350 C287.4840625 351.05960937 287.4840625 351.05960937 285.9375 352.140625 C273.65778024 360.42364352 260.15610588 366.90920138 246.21777344 371.89916992 C240.96795461 374.505008 239.02799745 378.57462532 236.99609375 383.83203125 C236.58248596 384.86401894 236.58248596 384.86401894 236.16052246 385.91685486 C235.2432262 388.21169929 234.34046605 390.51198335 233.4375 392.8125 C232.79019775 394.44019814 232.14181616 396.06746741 231.49243164 397.69433594 C230.45074119 400.30521456 229.41018265 402.91650887 228.3735199 405.52938843 C225.61882018 412.47080226 222.81782796 419.39259132 220 426.30859375 C219.15041464 428.39670518 218.30088651 430.48483989 217.45141602 432.57299805 C216.20816545 435.62887634 214.96424792 438.68446938 213.71749878 441.73892212 C209.58198549 451.8787759 205.50051943 462.00936181 201.97459412 472.38018799 C199.68744544 479.08530082 196.88889664 485.53583765 194 492 C192.68 492 191.36 492 190 492 C188.35307607 487.72958642 186.70764718 483.45859834 185.0625 479.1875 C184.59392578 477.97255859 184.12535156 476.75761719 183.64257812 475.50585938 C183.19462891 474.34248047 182.74667969 473.17910156 182.28515625 471.98046875 C181.87144775 470.90692139 181.45773926 469.83337402 181.03149414 468.72729492 C179.85725214 465.62257128 179 463.34270582 179 460 C178.34 459.67 177.68 459.34 177 459 C176.0604618 456.80055649 175.23148051 454.62737871 174.4375 452.375 C173.90004854 450.8991519 173.36088606 449.42392614 172.8203125 447.94921875 C172.52801758 447.14919434 172.23572266 446.34916992 171.93457031 445.52490234 C164.06419628 424.26173405 155.49016401 403.18749567 146.5 382.375 C146.18603271 381.62887451 145.87206543 380.88274902 145.54858398 380.11401367 C144.78153145 378.37067429 143.900702 376.67819477 143 375 C142.01 374.67 141.02 374.34 140 374 C139.67 373.34 139.34 372.68 139 372 C136.90043684 371.10450908 134.76799009 370.28591534 132.625 369.5 C113.25272515 362.03247506 95.26650988 351.25225208 80.15234375 336.96484375 C77.46663058 334.51309471 74.59447034 332.43434144 71.59375 330.38671875 C69.73883253 328.77275869 69.03792038 327.20558081 68 325 C67.01 324.2575 67.01 324.2575 66 323.5 C63.78083906 321.8356293 63.1529545 320.47061679 62 318 C61.34 317.67 60.68 317.34 60 317 C59.54625 316.071875 59.0925 315.14375 58.625 314.1875 C57.22981183 311.02566766 57.22981183 311.02566766 55.1171875 309.17578125 C51.89258837 305.86194045 49.99707829 301.9037787 47.78125 297.875 C45.34895195 293.9491856 43.42784482 291.47594827 39 290 C37.65485404 289.90099675 36.30547041 289.8539952 34.95674133 289.84178162 C34.1364444 289.8319928 33.31614746 289.82220398 32.47099304 289.81211853 C31.57475723 289.80636307 30.67852142 289.8006076 29.75512695 289.79467773 C28.80859253 289.78477814 27.86205811 289.77487854 26.88684082 289.76467896 C23.75401319 289.73305761 20.62117039 289.70830394 17.48828125 289.68359375 C15.31780093 289.66302478 13.14732463 289.64202832 10.97685242 289.62062073 C5.26076504 289.56539423 -0.45535853 289.51598745 -6.17150879 289.46777344 C-12.00304387 289.41756267 -17.83452633 289.36187438 -23.66601562 289.30664062 C-35.11063214 289.19905196 -46.55529432 289.09760852 -58 289 C-57.16215434 284.76342956 -55.63668161 283.56809957 -52.125 281 C-51.60760254 280.62117676 -51.09020508 280.24235352 -50.55712891 279.85205078 C-44.83786111 275.74477103 -38.85305375 272.04087583 -32.87841797 268.3203125 C-27.80671729 265.16105926 -22.86937613 261.88210418 -18.015625 258.39453125 C-16.05977134 257.04135343 -14.07518109 255.84740813 -12 254.6875 C-8.99478394 253.17453723 -8.99478394 253.17453723 -7 251 C-5.33333333 250 -3.66666667 249 -2 248 C-0.16862556 246.68172616 1.64546944 245.34409282 3.44921875 243.98828125 C5 243 5 243 7 243 C7 242.34 7 241.68 7 241 C8.0725 240.54625 9.145 240.0925 10.25 239.625 C17.39656039 236.72902632 17.39656039 236.72902632 22.05737305 230.84643555 C23.19876618 227.39978894 23.33888315 224.39908671 23.45703125 220.76953125 C23.51426672 219.32466575 23.57257934 217.87984261 23.63183594 216.43505859 C23.67479797 215.30375519 23.67479797 215.30375519 23.71862793 214.14959717 C24.6959868 189.81666586 28.43727854 166.95737155 38.3828125 144.61328125 C38.7943457 143.68169189 39.20587891 142.75010254 39.62988281 141.7902832 C40.43660541 139.98243368 41.26048633 138.18210457 42.10449219 136.39135742 C45.61263525 128.63203757 46.16732201 122.86529342 43.35546875 114.7734375 C42.64819548 112.96785675 41.92525145 111.16834328 41.1875 109.375 C40.83107422 108.47265625 40.47464844 107.5703125 40.10742188 106.640625 C38.59872858 102.84259345 37.04044913 99.06937866 35.4140625 95.3203125 C33.89419948 91.75157336 32.52663974 88.13895683 31.1875 84.5 C27.56630491 74.76725606 23.93575459 65.02086356 19.5 55.625 C17.17940426 50.61778395 15.36978723 45.47941342 13.59301758 40.26245117 C10.83639454 32.28871217 7.60793075 24.50578158 4.33911133 16.72998047 C2.01087128 11.06509068 0.3897444 6.12560544 0 0 Z M36 44 C36.84484425 48.22422123 37.90345709 51.53575465 39.51171875 55.48828125 C39.76025101 56.1033403 40.00878326 56.71839935 40.2648468 57.35209656 C40.79461684 58.6623079 41.32625687 59.97176445 41.85961914 61.28051758 C43.25288836 64.70021081 44.63202445 68.12559352 46.01171875 71.55078125 C46.41449539 72.54949753 46.41449539 72.54949753 46.82540894 73.56838989 C48.61828217 78.02316426 50.34417818 82.49276297 52 87 C54.56726464 93.97808429 57.34981901 100.8645575 60.13354492 107.75842285 C64.24361829 117.93999694 68.26334502 128.1242799 71.76928711 138.53417969 C73.3126994 143.11542753 75.005732 147.60475035 76.82177734 152.08496094 C78.23029098 155.5697626 79.61065739 159.06541006 80.98828125 162.5625 C81.25493088 163.23896072 81.52158051 163.91542145 81.79631042 164.61238098 C82.6353716 166.74145696 83.47398005 168.87071081 84.3125 171 C84.59902435 171.72734344 84.88554871 172.45468689 85.18075562 173.20407104 C89.48242255 184.12498307 93.76581731 195.05271312 98 206 C97.27039063 206.26425781 96.54078125 206.52851563 95.7890625 206.80078125 C92.98878 208.00482429 90.83089307 209.39280891 88.375 211.1875 C84.99616462 213.6495524 81.54382993 215.94215982 78.01171875 218.17578125 C72.00961167 221.97378459 66.08995899 225.88938827 60.18383789 229.83398438 C58.4368571 231.00042926 56.68823807 232.16438722 54.93945312 233.328125 C48.89556546 237.35717049 42.90024056 241.43760172 37.00805664 245.6875 C35 247 35 247 32 248 C32 248.66 32 249.32 32 250 C31.28585938 250.26039063 30.57171875 250.52078125 29.8359375 250.7890625 C26.85474264 252.06202449 24.33346842 253.59781012 21.625 255.375 C18.57849665 257.35033974 15.55162589 259.30348052 12.375 261.0625 C8.12290417 263.50351798 3.9495096 266.08936368 0 269 C0 269.33 0 269.66 0 270 C17.82426201 270.68362771 35.63574349 271.08632953 53.47265625 271.2109375 C55.33312068 271.22523608 57.19358415 271.23966128 59.05404663 271.25421143 C66.67393517 271.31242221 74.29377226 271.36853173 81.91381836 271.40136719 C86.65817108 271.42231595 91.40223442 271.45754285 96.14642143 271.50212479 C97.92968811 271.51619474 99.71300521 271.52498666 101.49632454 271.52817917 C103.96799632 271.5330955 106.43888794 271.55624617 108.91040039 271.58349609 C109.989459 271.57898689 109.989459 271.57898689 111.09031677 271.5743866 C116.17012932 271.65742801 119.51224295 272.83296228 124 275 C124.99 275.33 125.98 275.66 127 276 C127.08765625 276.95519531 127.1753125 277.91039062 127.265625 278.89453125 C127.96950187 283.79336659 129.85586075 288.14365492 131.75 292.6875 C132.08515625 293.50927734 132.4203125 294.33105469 132.765625 295.17773438 C134.2362803 298.773598 135.72855466 302.35956365 137.24462891 305.93652344 C140.02227591 312.51421215 142.52477351 319.13446771 144.875 325.875 C150.22948758 340.97549236 156.18127478 355.83464497 162.10754395 370.71739197 C164.3160793 376.26693018 166.50424464 381.82413141 168.6796875 387.38671875 C169.26658192 388.88542436 169.85349561 390.38412242 170.44042969 391.8828125 C171.26993075 394.00121234 172.09866334 396.1198909 172.92443848 398.23974609 C175.70596662 405.37761564 178.6066291 412.41997263 181.83007812 419.37133789 C184.24434325 424.79587725 186.2009964 430.40514828 188.22460938 435.984375 C188.55654297 436.87898438 188.88847656 437.77359375 189.23046875 438.6953125 C189.52332764 439.49984863 189.81618652 440.30438477 190.11791992 441.13330078 C190.85144744 443.18306567 190.85144744 443.18306567 193 444 C193.30591064 443.20231201 193.61182129 442.40462402 193.92700195 441.58276367 C199.25199748 427.71556715 204.59597618 413.86219176 210.25 400.125 C220.01991914 376.35685101 229.25665401 352.36028364 238.35546875 328.328125 C240.00315114 323.97956243 241.6850504 319.64478398 243.375 315.3125 C246.34475178 307.69190635 249.30341014 300.06708212 252.25 292.4375 C252.88687744 290.79551636 252.88687744 290.79551636 253.53662109 289.12036133 C253.94219238 288.06872803 254.34776367 287.01709473 254.765625 285.93359375 C255.12430664 285.00603271 255.48298828 284.07847168 255.85253906 283.12280273 C257.32556263 279.11398478 258.64942902 275.05171295 260 271 C301.91 271 343.82 271 387 271 C383.46058668 268.16846934 380.10612553 265.6721238 376.3125 263.25 C375.35988281 262.63640625 374.40726562 262.0228125 373.42578125 261.390625 C371.17683413 259.83421931 371.17683413 259.83421931 369 260 C369 259.34 369 258.68 369 258 C368.01 258 367.02 258 366 258 C366 257.34 366 256.68 366 256 C365.01 256 364.02 256 363 256 C363 255.34 363 254.68 363 254 C362.12730469 253.57847656 361.25460937 253.15695312 360.35546875 252.72265625 C357.20417611 251.1048215 354.28519858 249.36101084 351.3125 247.4375 C350.74942139 247.07325928 350.18634277 246.70901855 349.60620117 246.33374023 C339.20418844 239.56892447 328.91122103 232.63409153 318.59692383 225.73657227 C314.6585146 222.81950517 314.6585146 222.81950517 310 222 C310 221.34 310 220.68 310 220 C309.01 220 308.02 220 307 220 C307 219.34 307 218.68 307 218 C304.77727913 216.43399212 302.56311296 214.9829533 300.25 213.5625 C298.98351194 212.77351913 297.71786502 211.9831862 296.453125 211.19140625 C295.85306641 210.81773926 295.25300781 210.44407227 294.63476562 210.05908203 C293.27013667 209.17500789 291.96219053 208.20422998 290.671875 207.21484375 C289.07478001 205.80405517 289.07478001 205.80405517 287 206 C291.68250893 191.82924929 297.11529363 178.00089848 302.76025391 164.19213867 C305.8638866 156.56479182 308.77595178 148.9092126 311.453125 141.12109375 C314.59897898 131.97703105 318.09581813 123.00817814 321.73806763 114.05178833 C323.49640073 109.72640237 325.23910313 105.39473979 326.98046875 101.0625 C327.3258519 100.20350601 327.67123505 99.34451202 328.02708435 98.45948792 C331.60590965 89.53253341 335.0058381 80.54262882 338.38500977 71.53857422 C341.74200303 62.61383734 345.27778917 53.77831975 349 45 C348.34 44.67 347.68 44.34 347 44 C344.51139906 45.14718881 344.51139906 45.14718881 341.875 46.8125 C340.96492188 47.35519531 340.05484375 47.89789063 339.1171875 48.45703125 C338.06917969 49.22080078 338.06917969 49.22080078 337 50 C337 50.66 337 51.32 337 52 C336.01 52 335.02 52 334 52 C334 52.66 334 53.32 334 54 C333.01 54 332.02 54 331 54 C331 54.66 331 55.32 331 56 C330.4112207 56.12383057 329.82244141 56.24766113 329.21582031 56.37524414 C325.68852578 57.36977331 322.79573077 59.45963215 319.75 61.4375 C319.1003125 61.84548828 318.450625 62.25347656 317.78125 62.67382812 C316.14890716 63.72490602 314.56913882 64.85671035 313 66 C313 66.66 313 67.32 313 68 C311.93458984 68.13535156 311.93458984 68.13535156 310.84765625 68.2734375 C307.43969882 69.1429575 305.30935142 70.60102852 302.4375 72.625 C298.30857922 75.46553518 294.16131958 78.13360464 289.8125 80.625 C282.14628273 84.9214807 282.14628273 84.9214807 275 90 C275 90.66 275 91.32 275 92 C274.44981201 92.09514893 273.89962402 92.19029785 273.33276367 92.28833008 C270.37293726 93.19130172 268.23977869 94.65325241 265.67578125 96.38671875 C264.64646484 97.07830078 263.61714844 97.76988281 262.55664062 98.48242188 C260.95079102 99.57393555 260.95079102 99.57393555 259.3125 100.6875 C258.26126953 101.39583984 257.21003906 102.10417969 256.12695312 102.83398438 C254.05349296 104.23134428 251.98128336 105.63056182 249.91040039 107.03173828 C247.28233483 108.80906104 244.65173035 110.58228342 242.015625 112.34765625 C241.3443457 112.79761963 240.67306641 113.24758301 239.98144531 113.71118164 C237.18134353 115.53248984 234.31665652 117.23587338 231.43359375 118.921875 C230.96050781 119.27765625 230.48742187 119.6334375 230 120 C230 120.66 230 121.32 230 122 C229.01 122 228.02 122 227 122 C227 122.66 227 123.32 227 124 C226.29101562 124.09023437 225.58203125 124.18046875 224.8515625 124.2734375 C221.43280303 125.14451868 219.26489359 126.60752712 216.375 128.625 C212.24557203 131.46142639 208.10339733 134.25024222 203.875 136.9375 C202.98554688 137.50339844 202.09609375 138.06929688 201.1796875 138.65234375 C196.48193802 141.55686628 192.45878387 141.93452006 187 141 C183.04791179 139.03424779 179.54997075 136.6107938 176 134 C173.18490007 131.7226499 173.18490007 131.7226499 170 132 C170 131.34 170 130.68 170 130 C168.31792068 128.63180519 168.31792068 128.63180519 166.1875 127.375 C165.12595703 126.70597656 165.12595703 126.70597656 164.04296875 126.0234375 C161.93378793 124.77605136 161.93378793 124.77605136 159 125 C159 124.34 159 123.68 159 123 C157.34031844 121.6448255 157.34031844 121.6448255 155.15234375 120.3125 C154.32621582 119.78325928 153.50008789 119.25401855 152.64892578 118.70874023 C151.75415527 118.14485596 150.85938477 117.58097168 149.9375 117 C148.09978215 115.82496641 146.26254707 114.64917747 144.42578125 113.47265625 C143.50877441 112.88758301 142.59176758 112.30250977 141.64697266 111.69970703 C137.94397029 109.32188906 134.2802771 106.88783893 130.625 104.4375 C130.038396 104.04498047 129.45179199 103.65246094 128.84741211 103.24804688 C127.23116926 102.16601976 125.61557057 101.08303064 124 100 C123.01128906 99.34128906 122.02257812 98.68257812 121.00390625 98.00390625 C118.9327984 96.62226993 116.86529647 95.23521813 114.80078125 93.84375 C107.50675042 88.93422551 100.15466665 84.11602095 92.75 79.375 C91.51697144 78.57545898 91.51697144 78.57545898 90.2590332 77.75976562 C89.487771 77.26927734 88.71650879 76.77878906 87.921875 76.2734375 C87.23706055 75.83435059 86.55224609 75.39526367 85.84667969 74.94287109 C83.90026269 73.77263328 83.90026269 73.77263328 81 74 C81 73.34 81 72.68 81 72 C78.76755803 70.33232734 78.76755803 70.33232734 75.890625 68.62890625 C74.82585937 67.97212891 73.76109375 67.31535156 72.6640625 66.63867188 C71.53742188 65.95353516 70.41078125 65.26839844 69.25 64.5625 C67.04593482 63.21116769 64.84277329 61.85836011 62.640625 60.50390625 C61.65610352 59.90392822 60.67158203 59.3039502 59.65722656 58.68579102 C57 57 57 57 54.83496094 55.28100586 C52.96299864 53.71378891 52.96299864 53.71378891 50 54 C50 53.34 50 52.68 50 52 C45.38 49.36 40.76 46.72 36 44 Z M54 65 C56.9761265 65.61240554 59.15944436 66.54676562 61.71484375 68.1796875 C62.74448242 68.83130859 62.74448242 68.83130859 63.79492188 69.49609375 C64.50197266 69.95113281 65.20902344 70.40617187 65.9375 70.875 C67.34223176 71.76856906 68.74717483 72.66180603 70.15234375 73.5546875 C70.81218262 73.9784668 71.47202148 74.40224609 72.15185547 74.83886719 C73.74104593 75.83730706 75.36943344 76.77286621 77.00390625 77.6953125 C77.66261719 78.12585938 78.32132813 78.55640625 79 79 C79 79.66 79 80.32 79 81 C80.04607422 81.36738281 80.04607422 81.36738281 81.11328125 81.7421875 C84.44594245 83.1943078 87.20131792 85.05507503 90.1875 87.125 C93.78398198 89.96729334 93.78398198 89.96729334 98 91 C98 91.66 98 92.32 98 93 C98.69222656 93.23847656 99.38445312 93.47695312 100.09765625 93.72265625 C103.52505112 95.23107902 106.42073033 97.25342933 109.4375 99.4375 C113.46915016 102.34845588 117.48496209 104.88208629 122 107 C122 107.66 122 108.32 122 109 C123.0828125 109.433125 123.0828125 109.433125 124.1875 109.875 C125.115625 110.24625 126.04375 110.6175 127 111 C127.886875 111.33 128.77375 111.66 129.6875 112 C132 113 132 113 134 115 C135.31747324 115.69748583 136.64914193 116.36959957 138 117 C138 117.66 138 118.32 138 119 C139.0828125 119.433125 139.0828125 119.433125 140.1875 119.875 C141.115625 120.24625 142.04375 120.6175 143 121 C143.886875 121.33 144.77375 121.66 145.6875 122 C148 123 148 123 150 125 C151.31747324 125.69748583 152.64914193 126.36959957 154 127 C154 127.66 154 128.32 154 129 C154.66 129.226875 155.32 129.45375 156 129.6875 C159.88658628 131.3878815 163.63679817 133.39623084 167 136 C167 136.66 167 137.32 167 138 C167.72960937 138.26683594 168.45921875 138.53367187 169.2109375 138.80859375 C171.96354259 139.98442646 174.1775238 141.35094877 176.625 143.0625 C179.17156156 144.83987829 181.03197816 146.01065939 184 147 C183.62631129 149.49303276 183.32037853 150.70945992 181.42456055 152.42871094 C180.75207275 152.85958008 180.07958496 153.29044922 179.38671875 153.734375 C178.63841797 154.22244629 177.89011719 154.71051758 177.11914062 155.21337891 C176.31669922 155.72046387 175.51425781 156.22754883 174.6875 156.75 C173.87603516 157.2764209 173.06457031 157.8028418 172.22851562 158.34521484 C170.5919139 159.40680309 168.95244396 160.46398334 167.31005859 161.51660156 C164.18611524 163.52263409 161.09136656 165.56910945 158 167.625 C157.071875 168.23601562 156.14375 168.84703125 155.1875 169.4765625 C152.92731954 170.95524762 152.92731954 170.95524762 151 173 C149.6700795 173.6734491 148.3362151 174.33912827 147 175 C144.64769831 176.54946835 142.33708086 178.15132924 140.0234375 179.7578125 C138 181 138 181 136 181 C136 181.66 136 182.32 136 183 C134.35 183.33 132.7 183.66 131 184 C131 184.66 131 185.32 131 186 C128.09451118 188.04169485 126.59857954 189 123 189 C123 189.66 123 190.32 123 191 C121.54462432 191.83848804 120.08559627 192.67063934 118.625 193.5 C117.81289062 193.9640625 117.00078125 194.428125 116.1640625 194.90625 C114 196 114 196 112 196 C112 196.66 112 197.32 112 198 C108.91190305 199.76462683 107.76687864 200 104 200 C102.34480744 195.87447951 100.6908015 191.74848578 99.0378418 187.62207031 C98.47663568 186.22155249 97.91511871 184.82115919 97.35327148 183.42089844 C92.06494822 170.2400465 92.06494822 170.2400465 89.7902832 164.08154297 C88.02624748 159.43521346 86.13200797 154.83898851 84.27294922 150.23007202 C79.23822253 137.7396641 74.36256078 125.19845524 69.65429688 112.58129883 C67.852428 107.77367883 66.04815392 103.00097151 63.91796875 98.328125 C61.72553274 93.51501699 60.01499552 88.56613063 58.3125 83.5625 C57.70556105 81.79257949 57.09754202 80.02302887 56.48828125 78.25390625 C56.09443237 77.09870483 56.09443237 77.09870483 55.69262695 75.92016602 C55.02569279 73.95372565 55.02569279 73.95372565 54 72 C53.95977609 69.6670134 53.95679753 67.33293334 54 65 Z M330 67 C329.53592529 74.73457854 327.08180956 81.92431885 324 89 C323.34 89.33 322.68 89.66 322 90 C322 91.65 322 93.3 322 95 C321.34 95 320.68 95 320 95 C319.89220215 95.83128418 319.7844043 96.66256836 319.67333984 97.51904297 C318.91762922 101.42583127 317.65382663 104.9979213 316.2265625 108.6953125 C315.94694672 109.43246994 315.66733093 110.16962738 315.37924194 110.92912292 C314.46673148 113.32991357 313.54606332 115.7274791 312.625 118.125 C311.98924855 119.79178315 311.35383494 121.4586952 310.71875 123.12573242 C306.42754893 134.36881795 302.05753488 145.58024426 297.63232422 156.77124023 C295.27952223 162.72283389 292.9670595 168.6840358 290.75 174.6875 C288.381451 181.08673764 285.82144852 187.39283272 283.18261719 193.68432617 C281.66661809 196.74381404 281.66661809 196.74381404 281 200 C277.28400809 200.20086443 276.22791555 200.1519437 273 198 C273 197.34 273 196.68 273 196 C272.01 195.62875 272.01 195.62875 271 195.25 C267.23639093 193.68182955 263.6288576 191.85494954 260 190 C260 189.34 260 188.68 260 188 C259.01 188 258.02 188 257 188 C257 187.34 257 186.68 257 186 C256.13375 185.814375 256.13375 185.814375 255.25 185.625 C252.97664233 184.99351176 251.0746471 184.11141809 249 183 C249 182.34 249 181.68 249 181 C248.27941406 180.73832031 247.55882812 180.47664063 246.81640625 180.20703125 C243.90117881 178.95764806 241.54936941 177.48388147 238.9375 175.6875 C233.3119445 171.872148 227.63826106 168.13958153 221.9375 164.4375 C221.07406982 163.87385742 220.21063965 163.31021484 219.32104492 162.72949219 C215.66738818 160.34971844 212.01532157 157.98268681 208.26953125 155.75 C207.27308594 155.151875 206.27664063 154.55375 205.25 153.9375 C204.40953125 153.45152344 203.5690625 152.96554688 202.703125 152.46484375 C202.14109375 151.98144531 201.5790625 151.49804688 201 151 C201 149.68 201 148.36 201 147 C202.4777832 145.66308594 202.4777832 145.66308594 204.55078125 144.484375 C205.30746094 144.04134033 206.06414062 143.59830566 206.84375 143.1418457 C207.6584375 142.68253662 208.473125 142.22322754 209.3125 141.75 C210.96709297 140.78378936 212.61944304 139.81372763 214.26953125 138.83984375 C215.0785791 138.36272949 215.88762695 137.88561523 216.72119141 137.39404297 C220.68586509 134.96868549 224.34981288 132.19821508 228.03125 129.36328125 C230 128 230 128 232 128 C232.33 127.34 232.66 126.68 233 126 C234.63790712 124.95355934 236.31008021 123.9601817 238 123 C238.886875 122.443125 239.77375 121.88625 240.6875 121.3125 C243 120 243 120 245 120 C245 119.34 245 118.68 245 118 C245.99 118 246.98 118 248 118 C248.495 117.01 248.495 117.01 249 116 C250.64044122 114.95753638 252.31596285 113.97046209 254 113 C255.38759885 112.13839872 256.77136142 111.27060443 258.15234375 110.3984375 C259.30778687 109.66923096 259.30778687 109.66923096 260.48657227 108.92529297 C264.65924736 106.28593777 268.83077154 103.64479691 273 101 C273.73250977 100.5359375 274.46501953 100.071875 275.21972656 99.59375 C277.16928387 98.35722097 279.11639412 97.1169519 281.0625 95.875 C282.16722656 95.17117187 283.27195312 94.46734375 284.41015625 93.7421875 C287.0232911 92.10472899 287.0232911 92.10472899 289 90 C290.29738173 89.26434179 291.61274324 88.56013641 292.9375 87.875 C296.50153244 85.93200926 299.74543526 83.79977495 303 81.375 C307.89173019 77.75997669 312.87154479 74.30440184 317.9375 70.9375 C318.67162109 70.43589355 319.40574219 69.93428711 320.16210938 69.41748047 C320.86013672 68.95873535 321.55816406 68.49999023 322.27734375 68.02734375 C323.20921509 67.40460571 323.20921509 67.40460571 324.15991211 66.76928711 C326.48584116 65.79688398 327.66790096 66.17302138 330 67 Z M196 156 C202.41534392 158.83068783 202.41534392 158.83068783 204 162 C204.99 162 205.98 162 207 162 C207 162.66 207 163.32 207 164 C207.70769531 164.25523437 208.41539062 164.51046875 209.14453125 164.7734375 C213.27690558 166.54849296 216.83528342 169.05993082 220.57421875 171.5390625 C222.81358986 173.17197169 222.81358986 173.17197169 225 173 C227 175 227 175 228 177 C229.65249487 177.70105843 231.32367583 178.35800351 233 179 C235.68691519 180.29369991 238.34471893 181.64270993 241 183 C241 183.66 241 184.32 241 185 C241.99 185.3403125 241.99 185.3403125 243 185.6875 C246.88658628 187.3878815 250.63679817 189.39623084 254 192 C254 192.66 254 193.32 254 194 C255.175625 194.185625 255.175625 194.185625 256.375 194.375 C259 195 259 195 261 197 C262.44591479 197.97696945 263.90600715 198.93308764 265.375 199.875 C272.52098375 204.68501805 272.52098375 204.68501805 274 207 C274.96303753 214.35513384 273.25538951 220.1518627 270.3125 226.8125 C269.57228364 228.57004603 268.8326999 230.32785862 268.09375 232.0859375 C267.55234375 233.35002441 267.55234375 233.35002441 267 234.63964844 C265.6974564 237.71410927 264.49738424 240.81578576 263.3125 243.9375 C262.93222656 244.93136719 262.55195313 245.92523438 262.16015625 246.94921875 C261.31175089 249.18021063 260.46572924 251.4121094 259.62109375 253.64453125 C258.94240234 255.42923828 258.94240234 255.42923828 258.25 257.25 C257.84265625 258.32765625 257.4353125 259.4053125 257.015625 260.515625 C256 263 256 263 255 264 C253.45750284 264.1023681 251.91033754 264.13519373 250.36445618 264.14044189 C249.36205399 264.14615204 248.35965179 264.15186218 247.32687378 264.15774536 C246.2178067 264.15886322 245.10873962 264.15998108 243.96606445 264.16113281 C242.80512772 264.16609772 241.64419098 264.17106262 240.44807434 264.17617798 C236.58647073 264.19084769 232.72490822 264.19761041 228.86328125 264.203125 C226.8641804 264.20742162 224.86507956 264.21171874 222.8659789 264.2160995 C217.29136658 264.22792347 211.71676427 264.235452 206.14214069 264.2388947 C198.93429342 264.24337028 191.72663628 264.26089056 184.51884681 264.2898953 C178.94849902 264.31153168 173.37820461 264.32160011 167.80781525 264.32293582 C164.48090078 264.32398298 161.15420526 264.33131934 157.82732582 264.34775543 C154.11170682 264.36479797 150.39655037 264.36293943 146.6809082 264.35644531 C145.58196228 264.3656601 144.48301636 264.37487488 143.35076904 264.3843689 C137.83645237 264.35415735 133.71919644 264.20687131 129 261 C127.49609375 258.94140625 127.49609375 258.94140625 126.4375 256.5625 C126.02886719 255.66144531 125.62023437 254.76039063 125.19921875 253.83203125 C124.80347656 252.89746094 124.40773437 251.96289062 124 251 C123.63519531 250.15824219 123.27039063 249.31648438 122.89453125 248.44921875 C121.84952871 245.98472472 120.83706181 243.50882577 119.83203125 241.02783203 C118.81168756 238.54104368 117.76457801 236.0660204 116.71875 233.58984375 C115.89558991 231.62249767 115.07267529 229.65504886 114.25 227.6875 C113.64816895 226.27259277 113.64816895 226.27259277 113.03417969 224.82910156 C109.07901986 215.3009155 109.07901986 215.3009155 109 210 C111.07715362 205.53378361 113.77455961 203.4561467 117.84765625 200.78515625 C118.7046537 200.21782021 118.7046537 200.21782021 119.57896423 199.63902283 C121.40051992 198.43694821 123.23132337 197.24985262 125.0625 196.0625 C126.26557712 195.26979487 127.46805691 194.47618239 128.66992188 193.68164062 C147.92269171 181 147.92269171 181 151 181 C151 180.34 151 179.68 151 179 C152.11375 178.54625 153.2275 178.0925 154.375 177.625 C157.96199008 176.27534014 157.96199008 176.27534014 160 174 C161.65365406 172.97862543 163.32376502 171.98387706 165 171 C167.07953348 169.66686337 169.15765409 168.33184563 171.23046875 166.98828125 C173 166 173 166 175 166 C175 165.34 175 164.68 175 164 C176.7634375 163.13375 176.7634375 163.13375 178.5625 162.25 C181.34982522 160.8735431 183.99194126 159.39934328 186.625 157.75 C190.29711942 155.84593808 191.94858601 155.32476433 196 156 Z M282 213 C289.43542104 216.43157242 296.20586243 220.57977975 303.00750732 225.12731934 C305.87805598 227.04560715 308.76106528 228.94495438 311.64453125 230.84375 C312.205354 231.21336853 312.76617676 231.58298706 313.34399414 231.96380615 C317.46041074 234.6678618 321.62539311 237.26174731 325.875 239.75 C332.79381609 243.815203 339.50467479 248.17266338 346.21435547 252.57324219 C347.02275879 253.10336914 347.83116211 253.63349609 348.6640625 254.1796875 C349.41977539 254.67823242 350.17548828 255.17677734 350.95410156 255.69042969 C352.6236506 256.75910046 354.34856431 257.74085685 356.0859375 258.6953125 C356.71757812 259.12585938 357.34921875 259.55640625 358 260 C358 260.99 358 261.98 358 263 C326.98 263 295.96 263 264 263 C264.80980374 258.14117755 265.92126103 254.28609337 267.80078125 249.8359375 C268.07842819 249.16261383 268.35607513 248.48929016 268.64213562 247.79556274 C269.52635013 245.65287089 270.41867565 243.513699 271.3125 241.375 C275.21485304 232.00978259 278.97247084 222.69594803 282 213 Z M102 214 C106.45477241 225.07949128 110.87343462 236.17313453 115.24984741 247.28381348 C115.75074581 248.55495957 116.25223297 249.82587382 116.75430298 251.09655762 C117.46289659 252.89052624 118.16900448 254.68547609 118.875 256.48046875 C119.28492188 257.52098389 119.69484375 258.56149902 120.1171875 259.63354492 C121 262 121 262 121 263 C89.98 263 58.96 263 27 263 C27 262.01 27 261.02 27 260 C28.6862793 258.58056641 28.6862793 258.58056641 31.07421875 257.1015625 C31.95907959 256.54629883 32.84394043 255.99103516 33.75561523 255.41894531 C35.20689819 254.53094238 35.20689819 254.53094238 36.6875 253.625 C38.17262085 252.6983252 38.17262085 252.6983252 39.68774414 251.75292969 C42.7849434 249.82390545 45.89122118 247.91029641 49 246 C51.76641671 244.29388567 54.53218027 242.58671686 57.29785156 240.87939453 C59.05703545 239.7934906 60.8168012 238.70852873 62.57714844 237.62451172 C69.56693084 233.30651475 76.40256397 228.78673857 83.21630859 224.19824219 C86.38200381 222.07160215 89.55947236 219.96418881 92.75 217.875 C93.33515381 217.4840918 93.92030762 217.09318359 94.52319336 216.69042969 C97.26130718 214.9079999 98.66072779 214 102 214 Z M133 272 C172.27 272 211.54 272 252 272 C250.17118445 278.09605183 248.49548716 283.55292516 246.06640625 289.32421875 C245.79244522 289.98056305 245.51848419 290.63690735 245.23622131 291.31314087 C244.65144585 292.71400895 244.06471207 294.11406099 243.47613525 295.51333618 C241.89678526 299.27169117 240.3361637 303.03777942 238.77734375 306.8046875 C238.45975098 307.57208755 238.1421582 308.33948761 237.81494141 309.13014221 C234.6448579 316.81649175 231.61209923 324.55348129 228.625 332.3125 C228.37574768 332.95943817 228.12649536 333.60637634 227.86968994 334.2729187 C225.51447995 340.39191067 223.17867013 346.51816729 220.86328125 352.65234375 C220.22152846 354.35162833 219.5796074 356.05084938 218.9375 357.75 C218.63021973 358.56388184 218.32293945 359.37776367 218.00634766 360.21630859 C214.8543168 368.49993012 211.45835184 376.6818885 208.08374023 384.87670898 C204.68461235 393.18403726 201.52070338 401.55380655 198.54882812 410.02319336 C196.96001755 414.52236071 195.25828595 418.77948387 193 423 C190 422 190 422 189.02026367 420.22851562 C188.73900635 419.46216797 188.45774902 418.69582031 188.16796875 417.90625 C187.84763672 417.04950684 187.52730469 416.19276367 187.19726562 415.31005859 C186.86404297 414.38273926 186.53082031 413.45541992 186.1875 412.5 C185.83494141 411.54818848 185.48238281 410.59637695 185.11914062 409.61572266 C182.75724506 403.20624108 180.51442008 396.75681152 178.28320312 390.30102539 C176.18361494 384.32069838 173.73026004 378.51816884 171.22309875 372.69917297 C168.58558547 366.5228171 166.19753099 360.27708163 163.875 353.9765625 C159.06492226 341.04431178 153.96325372 328.23707924 148.8125 315.4375 C147.94050542 313.2650742 147.06876011 311.09254834 146.19726562 308.91992188 C145.77202606 307.86036285 145.3467865 306.80080383 144.90866089 305.70913696 C144.07672955 303.63574549 143.24527534 301.56216249 142.41433716 299.4883728 C140.64525617 295.0770877 138.86926968 290.66961216 137.05224609 286.27783203 C136.76653244 285.58166275 136.48081879 284.88549347 136.18644714 284.16822815 C135.45180749 282.38100353 134.71001341 280.59672413 133.9675293 278.81274414 C133 276 133 276 133 272 Z " fill="#FF0100" transform="translate(58,30)"/>
</svg>
