<?xml version="1.0" encoding="UTF-8"?>
<svg version="1.1" xmlns="http://www.w3.org/2000/svg" width="500" height="552">
<path d="M0 0 C4 1 4 1 4 1 Z M37 3 C39 4 39 4 39 4 Z M32 4 C34.125 4.375 34.125 4.375 36 5 C34.02 5.33 32.04 5.66 30 6 C30.66 5.34 31.32 4.68 32 4 Z M27 6 C27.99 6.33 28.98 6.66 30 7 C28.68 7.33 27.36 7.66 26 8 C26.33 7.34 26.66 6.68 27 6 Z M-26 7 C-29.53411321 9.12046792 -32.94393835 9.53199289 -37 10 C-33.72430636 6.72430636 -30.48909309 6.87530297 -26 7 Z M24.1875 8.375 C24.785625 8.58125 25.38375 8.7875 26 9 C23.69 9.33 21.38 9.66 19 10 C22 8 22 8 24.1875 8.375 Z M-41 10 C-40.34 10 -39.68 10 -39 10 C-39 10.66 -39 11.32 -39 12 C-39.99 11.67 -40.98 11.34 -42 11 C-41.67 10.67 -41.34 10.34 -41 10 Z M16 10 C19 11 19 11 19 11 Z M-46 12 C-43 13 -43 13 -43 13 Z M7.1875 14.375 C7.785625 14.58125 8.38375 14.7875 9 15 C6.69 15.33 4.38 15.66 2 16 C5 14 5 14 7.1875 14.375 Z M-61 18 C-58 19 -58 19 -58 19 Z M-64 19 C-61 20 -61 20 -61 20 Z M-67 20 C-64 21 -64 21 -64 21 Z M-20 25 C-18 26 -18 26 -18 26 Z M-22.8125 26.375 C-22.214375 26.58125 -21.61625 26.7875 -21 27 C-23.31 27.33 -25.62 27.66 -28 28 C-25 26 -25 26 -22.8125 26.375 Z M-28 28 C-28 28.66 -28 29.32 -28 30 C-29.98 30.33 -31.96 30.66 -34 31 C-30.25 28 -30.25 28 -28 28 Z M-92 30 C-89 31 -89 31 -89 31 Z M-49 36 C-46 37 -46 37 -46 37 Z M-52 37 C-49 38 -49 38 -49 38 Z M-55 38 C-52 39 -52 39 -52 39 Z M-112 40 C-111.01 40.33 -110.02 40.66 -109 41 C-110.32 41.33 -111.64 41.66 -113 42 C-112.67 41.34 -112.34 40.68 -112 40 Z M-116 42 C-113 43 -113 43 -113 43 Z M-66 44 C-64 45 -64 45 -64 45 Z M-69 45 C-68.01 45.33 -67.02 45.66 -66 46 C-66.99 46.33 -67.98 46.66 -69 47 C-69 46.34 -69 45.68 -69 45 Z M-124 46 C-123.01 46.33 -122.02 46.66 -121 47 C-122.65 47.33 -124.3 47.66 -126 48 C-125.34 47.34 -124.68 46.68 -124 46 Z M-71 46 C-70.67 46.66 -70.34 47.32 -70 48 C-71.65 48.33 -73.3 48.66 -75 49 C-73.68 48.01 -72.36 47.02 -71 46 Z M-128 48 C-127.34 48.33 -126.68 48.66 -126 49 C-127.65 49.66 -129.3 50.32 -131 51 C-130.01 50.01 -129.02 49.02 -128 48 Z M-78 49 C-77.01 49.33 -76.02 49.66 -75 50 C-77.3125 51.5625 -77.3125 51.5625 -80 53 C-80.99 52.67 -81.98 52.34 -83 52 C-80.6875 50.4375 -80.6875 50.4375 -78 49 Z M-133 51 C-132.34 51.33 -131.68 51.66 -131 52 C-131.99 52 -132.98 52 -134 52 C-133.67 51.67 -133.34 51.34 -133 51 Z M-86 53 C-83 54 -83 54 -83 54 Z M-95 58 C-93 59 -93 59 -93 59 Z M-148 60 C-146 61 -146 61 -146 61 Z M-149 61 C-148.67 61.66 -148.34 62.32 -148 63 C-148.66 62.67 -149.32 62.34 -150 62 C-149.67 61.67 -149.34 61.34 -149 61 Z M-152 63 C-150 64 -150 64 -150 64 Z M-154 64 C-152 65 -152 65 -152 65 Z M-114 69 C-113.34 69.33 -112.68 69.66 -112 70 C-113.28524261 70.86380259 -114.57842419 71.71580369 -115.875 72.5625 C-116.59429687 73.03816406 -117.31359375 73.51382813 -118.0546875 74.00390625 C-118.69664062 74.33261719 -119.33859375 74.66132812 -120 75 C-120.66 74.67 -121.32 74.34 -122 74 C-120.71475739 73.13619741 -119.42157581 72.28419631 -118.125 71.4375 C-117.04605469 70.72400391 -117.04605469 70.72400391 -115.9453125 69.99609375 C-115.30335938 69.66738281 -114.66140625 69.33867188 -114 69 Z M-165 71 C-164.01 71.495 -164.01 71.495 -163 72 C-163.99 72.495 -163.99 72.495 -165 73 C-165 72.34 -165 71.68 -165 71 Z M-169 74 C-167 75 -167 75 -167 75 Z M-11 74 C38.83 74 88.66 74 140 74 C140 74.33 140 74.66 140 75 C90.17 75 40.34 75 -11 75 C-11 74.67 -11 74.34 -11 74 Z M-125 76 C-123 77 -123 77 -123 77 Z M-127 77 C-125 78 -125 78 -125 78 Z M4 1 C4.66 0.67 5.32 0.34 6 0 C8.55362604 -0.08658569 11.0795442 -0.11562516 13.6328125 -0.09765625 C14.76056595 -0.09553383 14.76056595 -0.09553383 15.91110229 -0.09336853 C18.3157751 -0.08776465 20.72035527 -0.07521157 23.125 -0.0625 C24.75390491 -0.0574855 26.38281127 -0.0529225 28.01171875 -0.04882812 C32.00784827 -0.03779397 36.00390842 -0.02052679 40 0 C35.9205038 2.08238498 31.73292662 3.81974159 27.5 5.5625 C26.74074219 5.87896484 25.98148437 6.19542969 25.19921875 6.52148438 C24.46316406 6.82505859 23.72710937 7.12863281 22.96875 7.44140625 C22.30294922 7.71670166 21.63714844 7.99199707 20.95117188 8.27563477 C18.98722231 9.00474367 17.04026547 9.53115973 15 10 C15 10.99 15 11.98 15 13 C13.0085944 13.38133299 11.00720923 13.71325582 9 14 C8.67 13.67 8.34 13.34 8 13 C5.00847418 13.77479736 5.00847418 13.77479736 2 15 C1.67 15.99 1.34 16.98 1 18 C-0.09634766 17.69255859 -0.09634766 17.69255859 -1.21484375 17.37890625 C-4.50383655 16.93145562 -5.6451381 17.43316017 -8.5625 18.9375 C-14.17266093 21.67303302 -19.88777108 24.0162099 -25.6875 26.3125 C-26.59765869 26.67400146 -27.50781738 27.03550293 -28.44555664 27.40795898 C-30.62950691 28.27418376 -32.81428479 29.13824043 -35 30 C-34.67 30.66 -34.34 31.32 -34 32 C-38.30014094 34.18565083 -42.18407807 36.14297955 -47.0625 36.3125 C-54.50085261 36.88070749 -61.36006626 40.82094347 -68 44 C-68.74459473 44.35642578 -69.48918945 44.71285156 -70.25634766 45.08007812 C-72.46793951 46.1469863 -74.67321146 47.22551572 -76.875 48.3125 C-77.55892822 48.64967041 -78.24285645 48.98684082 -78.94750977 49.33422852 C-81.64420723 50.69200866 -83.85063345 51.85063345 -86 54 C-87.65893182 55.34294481 -89.32476605 56.67744688 -91 58 C-91.66 57.67 -92.32 57.34 -93 57 C-96.45614784 58.15204928 -99.50519593 59.82136939 -102.6875 61.5625 C-103.29400391 61.89185547 -103.90050781 62.22121094 -104.52539062 62.56054688 C-106.01809845 63.37154562 -107.50920695 64.18548682 -109 65 C-108.34 65.66 -107.68 66.32 -107 67 C-109.90600261 68.25664978 -111.79604584 69 -115 69 C-117.27283895 70.41572153 -119.40743776 71.85932692 -121.5625 73.4375 C-122.18656738 73.88907471 -122.81063477 74.34064941 -123.45361328 74.8059082 C-128.05232804 78.18439916 -132.35587535 81.7968651 -136.5234375 85.69921875 C-138.59240683 87.62133694 -140.69043203 89.48638361 -142.8203125 91.33984375 C-159.01705655 105.46719248 -173.77019648 120.91241657 -188 137 C-187.67 137.99 -187.34 138.98 -187 140 C-187.99 140 -188.98 140 -190 140 C-190.33 140.66 -190.66 141.32 -191 142 C-191.66 142 -192.32 142 -193 142 C-193.24621094 142.70769531 -193.49242187 143.41539062 -193.74609375 144.14453125 C-195.16098612 147.36660701 -196.9497531 149.87689478 -199.0625 152.6875 C-201.75920044 156.20307017 -201.75920044 156.20307017 -204 160 C-204.66 160 -205.32 160 -206 160 C-205.95875 160.94875 -205.9175 161.8975 -205.875 162.875 C-206 166 -206 166 -208 168 C-208.66 168.33 -209.32 168.66 -210 169 C-210 170.32 -210 171.64 -210 173 C-211.3125 176.1875 -211.3125 176.1875 -213 179 C-213.99 179.33 -214.98 179.66 -216 180 C-217.20152841 181.84649637 -217.20152841 181.84649637 -218.15625 184.15625 C-218.73052734 185.44402344 -218.73052734 185.44402344 -219.31640625 186.7578125 C-219.70699219 187.66273438 -220.09757812 188.56765625 -220.5 189.5 C-220.89058594 190.37398437 -221.28117187 191.24796875 -221.68359375 192.1484375 C-226.61716888 202.55052541 -226.61716888 202.55052541 -228.125 213.75 C-227.99962607 217.00402335 -228.17923453 219.81953382 -229 223 C-229.66 223 -230.32 223 -231 223 C-236.15045697 242.91510027 -234.72537876 264.17718471 -230 284 C-229.34 284 -228.68 284 -228 284 C-228.0825 285.134375 -228.165 286.26875 -228.25 287.4375 C-228.25 292.6231596 -226.32953284 296.45898497 -224 301 C-223.42765625 302.16208984 -223.42765625 302.16208984 -222.84375 303.34765625 C-221.9098683 305.2387667 -220.95687699 307.12042021 -220 309 C-219.34 308.34 -218.68 307.68 -218 307 C-214 313.5 -214 313.5 -214 318 C-212.3290335 320.6301222 -212.3290335 320.6301222 -210.125 323.1875 C-209.40570313 324.06792969 -208.68640625 324.94835937 -207.9453125 325.85546875 C-206.18122864 328.06022296 -206.18122864 328.06022296 -204 329 C-204 329.66 -204 330.32 -204 331 C-203.47535156 331.23074219 -202.95070313 331.46148437 -202.41015625 331.69921875 C-199.84226314 333.08513189 -197.56667953 334.734464 -195.23120117 336.4777832 C-183.65422926 345.09236133 -171.79175955 349.2003945 -158 353 C-158.66 352.34 -159.32 351.68 -160 351 C-158.69804687 351.0721875 -157.39609375 351.144375 -156.0546875 351.21875 C-154.3281296 351.31258467 -152.60156684 351.40632995 -150.875 351.5 C-150.0190625 351.54769531 -149.163125 351.59539062 -148.28125 351.64453125 C-144.66967184 351.83900084 -141.12608219 352.00338476 -137.5078125 351.90625 C-135 352 -135 352 -133 354 C-104.83799197 346.45898837 -80.13027591 330.05830392 -62 307 C-61.67 306.34 -61.34 305.68 -61 305 C-60.34 305 -59.68 305 -59 305 C-58.71125 304.401875 -58.4225 303.80375 -58.125 303.1875 C-57 301 -57 301 -55 298 C-55 296.68 -55 295.36 -55 294 C-53.92105469 293.39091797 -53.92105469 293.39091797 -52.8203125 292.76953125 C-48.77511294 290.23147668 -47.15776764 286.79578367 -44.875 282.6875 C-44.44574219 281.94048828 -44.01648438 281.19347656 -43.57421875 280.42382812 C-38.834241 273.51312842 -38.834241 273.51312842 -37.5 266.0625 C-38.33425173 262.62121161 -36.49895276 260.11782174 -35 257 C-34.34 257 -33.68 257 -33 257 C-26.87068423 241.82264667 -25.86982814 227.52673459 -25 211 C-2.89 211 19.22 211 42 211 C42.0825 201.76 42.165 192.52 42.25 183 C42.28641602 180.11765625 42.32283203 177.2353125 42.36035156 174.265625 C42.49143991 156.571862 41.74946339 139.45289948 32 124 C30.68988266 123.28879344 29.35690791 122.61727073 28 122 C26.76953125 120.23046875 26.76953125 120.23046875 25.8125 118.1875 C25.48894531 117.52105469 25.16539062 116.85460937 24.83203125 116.16796875 C24 114 24 114 23.69921875 111.6015625 C22.72898046 107.99162563 20.53091023 105.81115945 18 103.1875 C17.50306641 102.66196533 17.00613281 102.13643066 16.49414062 101.5949707 C7.96471636 92.67648019 -1.25170804 84.35278443 -13 80 C-13 79.01 -13 78.02 -13 77 C37.82 77 88.64 77 141 77 C141 77.99 141 78.98 141 80 C140.071875 80.474375 139.14375 80.94875 138.1875 81.4375 C126.37373796 88.24583274 112.91879743 100.07103891 106 112 C105.64080679 113.99551782 105.30503431 115.99548879 105 118 C103 120.6875 103 120.6875 101 123 C96.77234584 135.68296247 95.69866881 148.89151852 95.5859375 162.171875 C95.56717545 163.58963076 95.54759853 165.00737595 95.5272522 166.42510986 C95.47645578 170.11399021 95.43655339 173.80290656 95.39910889 177.49194336 C95.35873533 181.27336137 95.30779722 185.05463649 95.2578125 188.8359375 C95.16167685 196.22386657 95.07805721 203.61185375 95 211 C101.27 211 107.54 211 114 211 C114 211.66 114 212.32 114 213 C115.98 212.34 117.96 211.68 120 211 C119.67 210.34 119.34 209.68 119 209 C122.67173961 207.27653039 125.312619 206.06652074 129.390625 205.671875 C133.63499985 204.88179657 135.45838792 203.50203278 138.6875 200.6875 C139.59886719 199.90761719 140.51023437 199.12773437 141.44921875 198.32421875 C142.29097656 197.55722656 143.13273437 196.79023438 144 196 C144.74894531 195.34644531 145.49789063 194.69289062 146.26953125 194.01953125 C148.32239414 191.62375222 148.43945889 190.06212955 149 187 C150.62890625 184.32421875 150.62890625 184.32421875 152.5625 181.6875 C153.20316406 180.80449219 153.84382813 179.92148438 154.50390625 179.01171875 C154.99761719 178.34785156 155.49132812 177.68398437 156 177 C156.66 177.33 157.32 177.66 158 178 C159.31582063 175.73103368 160.62775236 173.45996813 161.9375 171.1875 C162.31068359 170.54490234 162.68386719 169.90230469 163.06835938 169.24023438 C164.63466635 166.51683576 166.00369374 163.98891878 167 161 C167.66 161 168.32 161 169 161 C169 209.84 169 258.68 169 309 C168.34 309 167.68 309 167 309 C166.77828125 308.50113281 166.5565625 308.00226563 166.328125 307.48828125 C157.31749262 289.3037804 139.63838499 276.81745527 120.89404297 270.26367188 C113.72275779 267.97949737 107.27011351 266.92135113 99.7331543 266.96289062 C98.47230515 266.96824829 97.21145599 266.97360596 95.91239929 266.97912598 C94.95130753 266.9860144 93.99021576 266.99290283 93 267 C93.03720435 295.72076283 93.09712075 324.4414011 93.18390274 353.16205883 C93.22367263 366.49826564 93.25607558 379.8343946 93.27099609 393.1706543 C93.28402317 404.79768155 93.31101502 416.42457924 93.35461307 428.05153352 C93.37720386 434.20506532 93.39291209 440.35843745 93.39188385 446.51201439 C93.39113585 452.31098413 93.40914337 458.10960123 93.44116783 463.90847969 C93.44964499 466.02996587 93.45143171 468.15149171 93.44580269 470.27298737 C93.39339654 493.07128964 98.93394892 508.60559167 115 525 C115.66644531 525.70511719 116.33289063 526.41023437 117.01953125 527.13671875 C122.44523342 532.78287835 127.04868394 536.98493838 135 538 C137.02915769 538.93942486 139.03875312 539.92598385 141 541 C141 541.99 141 542.98 141 544 C145.29 546.31 149.58 548.62 154 551 C154 551.33 154 551.66 154 552 C97.9 552 41.8 552 -16 552 C-15.34 551.67 -14.68 551.34 -14 551 C-14 550.34 -14 549.68 -14 549 C-13.14019531 548.53851562 -12.28039062 548.07703125 -11.39453125 547.6015625 C9.47748801 536.59198926 9.47748801 536.59198926 23.64453125 519.84765625 C23.76183594 519.23792969 23.87914062 518.62820313 24 518 C25.92467295 516.32367195 27.72136768 515.13931616 30 514 C29.67 513.01 29.34 512.02 29 511 C29.66 511 30.32 511 31 511 C31.33 510.34 31.66 509.68 32 509 C32.33 509.33 32.66 509.66 33 510 C33.95932264 508.4508026 34.89087676 506.88441701 35.8125 505.3125 C36.33457031 504.44238281 36.85664063 503.57226562 37.39453125 502.67578125 C43.16721741 490.70056501 42.44335397 477.35418952 42.43237305 464.4206543 C42.44140315 462.26112309 42.45173341 460.10159698 42.46325684 457.94207764 C42.49070622 452.11450717 42.50009493 446.28703428 42.50611091 440.45940757 C42.51552608 434.35618499 42.54173194 428.25303439 42.56611633 422.14985657 C42.60969873 410.60824012 42.6382964 399.06663771 42.66143972 387.52496415 C42.68853573 374.37855917 42.73244449 361.23222691 42.77772844 348.08587396 C42.8704564 321.05728879 42.94219131 294.02868083 43 267 C42.34 267.33 41.68 267.66 41 268 C39.21268076 268.0908238 37.42194511 268.11753799 35.63232422 268.11352539 C34.51131317 268.11344986 33.39030212 268.11337433 32.23532104 268.11329651 C31.02071198 268.10813522 29.80610291 268.10297394 28.5546875 268.09765625 C26.69446457 268.09553383 26.69446457 268.09553383 24.79666138 268.09336853 C21.49881867 268.08871096 18.20102454 268.07972439 14.90319824 268.06866455 C11.53833613 268.05843731 8.17346692 268.05386809 4.80859375 268.04882812 C-1.79428993 268.03778269 -8.39714099 268.02103247 -15 268 C-15.8680908 269.91040052 -16.71901783 271.82860737 -17.5625 273.75 C-18.03816406 274.81734375 -18.51382813 275.8846875 -19.00390625 276.984375 C-20.02007803 280.06078525 -20.05138834 281.0549486 -19 284 C-19.72727063 286.50221782 -20.86447968 288.63811773 -22 291 C-22.66 290.67 -23.32 290.34 -24 290 C-23.9175 290.845625 -23.835 291.69125 -23.75 292.5625 C-24.07537023 297.03634062 -25.59932129 299.24893952 -28 303 C-28.66 302.67 -29.32 302.34 -30 302 C-30.43570313 302.82242187 -30.87140625 303.64484375 -31.3203125 304.4921875 C-31.91585937 305.60851562 -32.51140625 306.72484375 -33.125 307.875 C-33.43832275 308.46273193 -33.75164551 309.05046387 -34.07446289 309.65600586 C-36.51032608 314.18571667 -39.14241161 318.55731093 -41.93359375 322.87890625 C-43.29945797 325.19994501 -43.29945797 325.19994501 -43 329 C-44.390625 331.9453125 -44.390625 331.9453125 -46.25 335.125 C-46.85328125 336.17945313 -47.4565625 337.23390625 -48.078125 338.3203125 C-50.06770427 341.09440068 -51.03461656 341.60925815 -54 343 C-55.3897434 344.61992865 -56.71443788 346.29621434 -58 348 C-58.91559549 349.09622088 -59.83931199 350.18569203 -60.76953125 351.26953125 C-61.26187256 351.84388916 -61.75421387 352.41824707 -62.26147461 353.01000977 C-64.37747602 355.46907453 -66.49394397 357.92773281 -68.61230469 360.38476562 C-69.70954912 361.66192417 -70.79782061 362.94679126 -71.8828125 364.234375 C-83.38831905 377.7634631 -96.26359361 388.17572908 -111 398 C-110.67 398.66 -110.34 399.32 -110 400 C-111.57533086 400.86883706 -113.16064509 401.71959068 -114.75 402.5625 C-115.63171875 403.03816406 -116.5134375 403.51382812 -117.421875 404.00390625 C-120 405 -120 405 -121.8359375 404.50390625 C-125.38489383 403.67752472 -128.52808752 405.22046872 -131.875 406.375 C-140.68453054 409.34964668 -148.50663672 410.18180834 -157.8125 410.1875 C-158.85470703 410.19974609 -159.89691406 410.21199219 -160.97070312 410.22460938 C-167.26028923 410.23645417 -172.94060501 409.69165111 -179 408 C-179.71188477 407.80317627 -180.42376953 407.60635254 -181.15722656 407.40356445 C-181.7859668 407.22913818 -182.41470703 407.05471191 -183.0625 406.875 C-186.42861646 405.99688266 -189.42138524 406.0707454 -192.90234375 406.1953125 C-196.9315686 405.8201519 -200.44883873 403.84134288 -204 402 C-204 401.34 -204 400.68 -204 400 C-205.93343582 398.70008565 -207.92482019 397.48598685 -209.9375 396.3125 C-215.63590292 392.90859017 -220.90845535 389.27653121 -226 385 C-226.79921875 384.34644531 -227.5984375 383.69289063 -228.421875 383.01953125 C-235.36863947 377.09752241 -240.66545803 370.34350778 -246 363 C-246.66 363.33 -247.32 363.66 -248 364 C-248.04125 363.195625 -248.0825 362.39125 -248.125 361.5625 C-248.96029837 358.16164234 -249.71154699 356.76014323 -251.6875 354 C-255.85038179 348.12358333 -258.3302358 341.65547601 -261 335 C-261.66 335.33 -262.32 335.66 -263 336 C-263.19335938 335.26394531 -263.38671875 334.52789062 -263.5859375 333.76953125 C-263.84632813 332.79371094 -264.10671875 331.81789063 -264.375 330.8125 C-264.63023437 329.84957031 -264.88546875 328.88664062 -265.1484375 327.89453125 C-265.92617704 325.02290926 -265.92617704 325.02290926 -267.1015625 322.49609375 C-268.45159873 318.74534091 -268.04339236 315.26429652 -267.875 311.328125 C-267.88602887 307.87712247 -267.88602887 307.87712247 -268.99121094 304.16113281 C-270.43058742 297.84138541 -270.28636483 291.54662157 -270.265625 285.09375 C-270.26753845 283.77387085 -270.2694519 282.4539917 -270.27142334 281.09411621 C-270.27435478 278.31383527 -270.27014132 275.53368374 -270.26074219 272.75341797 C-270.24934874 269.2132105 -270.25591892 265.67330643 -270.26788712 262.13311005 C-270.27690597 258.72413324 -270.27056707 255.31523539 -270.265625 251.90625 C-270.26967346 250.64663452 -270.27372192 249.38701904 -270.27789307 248.0892334 C-270.25024871 242.8643613 -270.15503992 237.97354069 -268.92089844 232.88085938 C-268.01822575 229.07680715 -268.13336449 228.45157642 -269 225 C-268.3450352 222.15894654 -267.61785945 219.46129389 -266.75 216.6875 C-266.53214844 215.95337891 -266.31429687 215.21925781 -266.08984375 214.46289062 C-264.68141616 209.82166872 -262.98696514 205.42391945 -261 201 C-260.67 202.32 -260.34 203.64 -260 205 C-259.47212891 203.40285156 -259.47212891 203.40285156 -258.93359375 201.7734375 C-256.44200444 194.39946065 -253.84303035 187.32101885 -250.1875 180.4375 C-247.46855646 175.30385408 -247.46855646 175.30385408 -246.375 169.6875 C-245.86627507 164.68503817 -243.63707014 161.2037428 -241 157 C-240.34 157.33 -239.68 157.66 -239 158 C-238.68248779 157.47567383 -238.36497559 156.95134766 -238.0378418 156.41113281 C-236.58988055 154.02277579 -235.13872394 151.63637581 -233.6875 149.25 C-233.18798828 148.425 -232.68847656 147.6 -232.17382812 146.75 C-231.68720703 145.95078125 -231.20058594 145.1515625 -230.69921875 144.328125 C-230.25408936 143.5949707 -229.80895996 142.86181641 -229.3503418 142.10644531 C-228 140 -228 140 -226.36035156 137.91162109 C-224.77644308 135.98544557 -224.77644308 135.98544557 -224.53515625 133.0859375 C-223.90587856 129.45725593 -222.62081839 127.56255566 -220.4375 124.625 C-219.79683594 123.75101562 -219.15617187 122.87703125 -218.49609375 121.9765625 C-218.00238281 121.32429688 -217.50867188 120.67203125 -217 120 C-216.01 120.33 -215.02 120.66 -214 121 C-213.5359375 120.40316406 -213.071875 119.80632812 -212.59375 119.19140625 C-207.57360356 112.88812537 -202.26258912 106.93693145 -196.75 101.0625 C-195.72229492 99.96240601 -195.72229492 99.96240601 -194.67382812 98.84008789 C-191.88809271 95.89366311 -189.22540779 93.17495657 -186.015625 90.68359375 C-185.35046875 90.12800781 -184.6853125 89.57242188 -184 89 C-184 88.01 -184 87.02 -184 86 C-183.01 85.67 -182.02 85.34 -181 85 C-181 84.34 -181 83.68 -181 83 C-179.68 83 -178.36 83 -177 83 C-175.00930409 81.91836355 -175.00930409 81.91836355 -173.109375 80.375 C-172.40039062 79.83359375 -171.69140625 79.2921875 -170.9609375 78.734375 C-170.23132813 78.16203125 -169.50171875 77.5896875 -168.75 77 C-168.00492187 76.42765625 -167.25984375 75.8553125 -166.4921875 75.265625 C-164.65468555 73.85216196 -162.82449817 72.43018342 -161 71 C-161.33 70.34 -161.66 69.68 -162 69 C-160.68 68.67 -159.36 68.34 -158 68 C-158 67.34 -158 66.68 -158 66 C-155.92446352 65.4465236 -154.15634036 65 -152 65 C-150.24112977 64.07344072 -148.51274344 63.08872979 -146.80078125 62.078125 C-145.23360352 61.15773438 -145.23360352 61.15773438 -143.63476562 60.21875 C-141.99024414 59.24421875 -141.99024414 59.24421875 -140.3125 58.25 C-138.16288715 56.98415976 -136.01315067 55.71852944 -133.86328125 54.453125 C-132.34468506 53.5569043 -132.34468506 53.5569043 -130.79541016 52.64257812 C-127.54589784 50.73317036 -124.27924617 48.85777036 -121 47 C-121 46.01 -121 45.02 -121 44 C-120.46375 43.9484375 -119.9275 43.896875 -119.375 43.84375 C-111.73508111 42.73797227 -105.57483095 39.5214982 -98.83203125 35.97265625 C-95.29396852 34.11208439 -91.69316246 32.52803998 -88 31 C-88.33 30.34 -88.66 29.68 -89 29 C-82.13045202 25.69582578 -75.36988707 22.966369 -68 21 C-68 21.66 -68 22.32 -68 23 C-66.55947266 22.36191406 -66.55947266 22.36191406 -65.08984375 21.7109375 C-60.65084147 19.81057668 -56.12245601 18.20844075 -51.5625 16.625 C-50.69592773 16.32263428 -49.82935547 16.02026855 -48.93652344 15.70874023 C-41.01077549 12.96404008 -33.02636145 10.43257044 -25 8 C-25 7.01 -25 6.02 -25 5 C-21.67236595 4.122526 -18.33729945 3.27739445 -15 2.4375 C-14.06542969 2.19064453 -13.13085938 1.94378906 -12.16796875 1.68945312 C-6.29476207 0.2314193 -1.95133916 -0.0211957 4 1 Z M-6 2 C-6 2.33 -6 2.66 -6 3 C-4.35 3 -2.7 3 -1 3 C-1 2.67 -1 2.34 -1 2 C-2.65 2 -4.3 2 -6 2 Z M-11 3 C-11 3.33 -11 3.66 -11 4 C-9.35 4 -7.7 4 -6 4 C-6 3.67 -6 3.34 -6 3 C-7.65 3 -9.3 3 -11 3 Z M-18 6 C-14.535 5.505 -14.535 5.505 -11 5 C-11 4.67 -11 4.34 -11 4 C-14.95457848 3.65176193 -14.95457848 3.65176193 -18 6 Z M-80 26 C-80.66 26.66 -81.32 27.32 -82 28 C-80.35 27.67 -78.7 27.34 -77 27 C-77.99 26.67 -78.98 26.34 -80 26 Z M-84 28 C-84.66 28.66 -85.32 29.32 -86 30 C-84.68 29.67 -83.36 29.34 -82 29 C-82.66 28.67 -83.32 28.34 -84 28 Z M103 116 C102.67 116.66 102.34 117.32 102 118 C102.66 118 103.32 118 104 118 C103.67 117.34 103.34 116.68 103 116 Z M28 117 C28.33 117.99 28.66 118.98 29 120 C29 119.01 29 118.02 29 117 C28.67 117 28.34 117 28 117 Z M98 126 C99 128 99 128 99 128 Z M97 128 C98 130 98 130 98 130 Z M96 130 C97 133 97 133 97 133 Z M95 133 C92.78023502 141.60404335 92.60416294 150.17180478 92.48046875 159 C92.45408642 160.52791978 92.42733129 162.05583317 92.40022278 163.58374023 C92.34615231 166.76393473 92.29927134 169.94413841 92.25708008 173.12451172 C92.2019716 177.20489474 92.12441958 181.28451783 92.04113293 185.3644104 C91.98008585 188.50916936 91.93286325 191.65402194 91.88967323 194.79907227 C91.86692067 196.30468717 91.83934253 197.81023709 91.80687523 199.31567383 C91.76335458 201.40976223 91.73893102 203.50322528 91.71948242 205.59765625 C91.7010881 206.78883057 91.68269379 207.98000488 91.66374207 209.20727539 C91.77470718 210.12887451 91.8856723 211.05047363 92 212 C95.79163027 214.52775351 98.80874031 214.22443035 103.1875 214.125 C103.93708984 214.11597656 104.68667969 214.10695313 105.45898438 214.09765625 C107.30612654 214.07412578 109.15310412 214.03825561 111 214 C111 213.67 111 213.34 111 213 C105.39 212.67 99.78 212.34 94 212 C94.10873361 203.61912124 94.22102849 195.23831226 94.33933926 186.85756397 C94.39415738 182.96471947 94.44750428 179.07186714 94.49731445 175.17895508 C94.54557364 171.41171938 94.59792513 167.64455948 94.65294075 163.87741661 C94.67308969 162.4507712 94.69184226 161.02410527 94.70907402 159.59742165 C94.8176855 150.69817123 95.19663954 141.86660321 96 133 C95.67 133 95.34 133 95 133 Z M-242 162 C-241 164 -241 164 -241 164 Z M-244 166 C-244 169 -244 169 -244 169 Z M-212 170 C-211 172 -211 172 -211 172 Z M-213 172 C-212 174 -212 174 -212 174 Z M156 179 C157 181 157 181 157 181 Z M152 184 C152.33 184.66 152.66 185.32 153 186 C153.33 185.34 153.66 184.68 154 184 C153.34 184 152.68 184 152 184 Z M-262 206 C-261 209 -261 209 -261 209 Z M-263 209 C-262 212 -262 212 -262 212 Z M-264 213 C-263 216 -263 216 -263 216 Z M-230 213 C-229 217 -229 217 -229 217 Z M-265 217 C-264 220 -264 220 -264 220 Z M-267 220 C-267 221.65 -267 223.3 -267 225 C-266.34 223.68 -265.68 222.36 -265 221 C-265.66 220.67 -266.32 220.34 -267 220 Z M-35 261 C-34 263 -34 263 -34 263 Z M-36 264 C-35 266 -35 266 -35 266 Z M-23 285 C-22 287 -22 287 -22 287 Z M-28 296 C-27 298 -27 298 -27 298 Z M-29 298 C-28 300 -28 300 -28 300 Z M-219 310 C-218 312 -218 312 -218 312 Z M-218 312 C-217 314 -217 314 -217 314 Z M-267 314 C-267 315.65 -267 317.3 -267 319 C-266.01 319.495 -266.01 319.495 -265 320 C-265.33 318.02 -265.66 316.04 -266 314 C-266.33 314 -266.66 314 -267 314 Z M-265 320 C-264 324 -264 324 -264 324 Z M-264 325 C-263 328 -263 328 -263 328 Z M-46 328 C-45 330 -45 330 -45 330 Z M-263 329 C-262 332 -262 332 -262 332 Z M-47 330 C-47.66 331.32 -48.32 332.64 -49 334 C-48.34 334 -47.68 334 -47 334 C-46.67 332.68 -46.34 331.36 -46 330 C-46.33 330 -46.66 330 -47 330 Z M-52 338 C-52 341 -52 341 -52 341 Z M-16 78 C-14 79 -14 79 -14 79 Z M-178 81 C-176 82 -176 82 -176 82 Z M-138 87 C-137.34 87.33 -136.68 87.66 -136 88 C-137.98 88.99 -137.98 88.99 -140 90 C-139.34 89.01 -138.68 88.02 -138 87 Z M-3 87 C1.01018103 88.38952413 3.90032723 90.26698294 7.1875 92.9375 C8.04730469 93.62714844 8.90710938 94.31679687 9.79296875 95.02734375 C12 97 12 97 14 100 C10.56546802 98.46203092 7.85610724 96.4264398 4.9375 94.0625 C4.08027344 93.37285156 3.22304688 92.68320313 2.33984375 91.97265625 C0.45530297 90.38385308 -1.29868089 88.77941245 -3 87 Z M-187 88 C-186.01 88.495 -186.01 88.495 -185 89 C-185.99 89.495 -185.99 89.495 -187 90 C-187 89.34 -187 88.68 -187 88 Z M128 89 C130 90 130 90 130 90 Z M127 90 C127.33 90.66 127.66 91.32 128 92 C127.34 91.67 126.68 91.34 126 91 C126.33 90.67 126.66 90.34 127 90 Z M124 92 C124.66 92.33 125.32 92.66 126 93 C125.01 93 124.02 93 123 93 C123.33 92.67 123.66 92.34 124 92 Z M-145 93 C-143 94 -143 94 -143 94 Z M-146 94 C-146 94.99 -146 95.98 -146 97 C-146.99 97 -147.98 97 -149 97 C-148.01 96.01 -147.02 95.02 -146 94 Z M122 94 C122 94.99 122 95.98 122 97 C121.01 97 120.02 97 119 97 C119.99 96.01 120.98 95.02 122 94 Z M-198 99 C-198 99.99 -198 100.98 -198 102 C-200 103.6875 -200 103.6875 -202 105 C-200.84826645 102.53199953 -199.95216435 100.95216435 -198 99 Z M117 99 C117 102 117 102 117 102 Z M-203 105 C-203 105.99 -203 106.98 -203 108 C-203.99 108 -204.98 108 -206 108 C-205.01 107.01 -204.02 106.02 -203 105 Z M111 106 C111.99 106.495 111.99 106.495 113 107 C112.01 107.495 112.01 107.495 111 108 C111 107.34 111 106.68 111 106 Z M21 108 C21.99 108.495 21.99 108.495 23 109 C22.67 109.66 22.34 110.32 22 111 C21.67 110.01 21.34 109.02 21 108 Z M-207 109 C-207 112 -207 112 -207 112 Z M-167 114 C-166.34 114.33 -165.68 114.66 -165 115 C-166.32 116.65 -167.64 118.3 -169 120 C-169.66 119.67 -170.32 119.34 -171 119 C-169.68 117.35 -168.36 115.7 -167 114 Z M31 124 C31.66 124.66 32.32 125.32 33 126 C32.67 126.99 32.34 127.98 32 129 C31.67 127.35 31.34 125.7 31 124 Z M-177 125 C-177 128 -177 128 -177 128 Z M-184 133 C-182 134 -182 134 -182 134 Z M34 133 C34.99 133.495 34.99 133.495 36 134 C35.67 134.66 35.34 135.32 35 136 C34.67 135.01 34.34 134.02 34 133 Z M36 136 C37 140 37 140 37 140 Z M37 140 C38 144 38 144 38 144 Z M-194 145 C-193.01 145.495 -193.01 145.495 -192 146 C-192.99 146.495 -192.99 146.495 -194 147 C-194 146.34 -194 145.68 -194 145 Z M-195 147 C-194.67 147.66 -194.34 148.32 -194 149 C-194.99 149.99 -195.98 150.98 -197 152 C-196.34 150.35 -195.68 148.7 -195 147 Z M-238 152 C-237.67 152.99 -237.34 153.98 -237 155 C-237.99 155.66 -238.98 156.32 -240 157 C-239.34 155.35 -238.68 153.7 -238 152 Z M-199 152 C-198.01 152.495 -198.01 152.495 -197 153 C-197.99 153.495 -197.99 153.495 -199 154 C-199 153.34 -199 152.68 -199 152 Z M-200 154 C-200 157 -200 157 -200 157 Z M157 174 C157.66 174 158.32 174 159 174 C158.67 174.99 158.34 175.98 158 177 C157.67 176.01 157.34 175.02 157 174 Z M-215 179 C-214.67 179.66 -214.34 180.32 -214 181 C-214.99 182.32 -215.98 183.64 -217 185 C-216.125 180.125 -216.125 180.125 -215 179 Z M-257 190 C-256.67 190.66 -256.34 191.32 -256 192 C-256.99 193.485 -256.99 193.485 -258 195 C-257.67 193.35 -257.34 191.7 -257 190 Z M-259 195 C-258.67 195.99 -258.34 196.98 -258 198 C-258.66 198.99 -259.32 199.98 -260 201 C-259.67 199.02 -259.34 197.04 -259 195 Z M139 197 C139.66 197.33 140.32 197.66 141 198 C140.01 198.66 139.02 199.32 138 200 C138.33 199.01 138.66 198.02 139 197 Z M131 204 C133 205 133 205 133 205 Z M-25 209 C-2.97556742 208.89276494 18.99859032 208.84719481 41 210 C41 210.33 41 210.66 41 211 C34.975833 211.02517331 28.9516982 211.04307763 22.92749023 211.05493164 C20.88842229 211.05988588 18.84935775 211.06665114 16.81030273 211.07543945 C2.83993746 211.13403709 -11.05208283 210.80404254 -25 210 C-25 209.67 -25 209.34 -25 209 Z M114 210 C115.65 210 117.3 210 119 210 C119 210.33 119 210.66 119 211 C117.35 211 115.7 211 114 211 C114 210.67 114 210.34 114 210 Z M-28 212 C-27.67 212 -27.34 212 -27 212 C-26.7928648 222.89761308 -26.84270956 233.27133239 -29 244 C-29.33 244 -29.66 244 -30 244 C-29.93941406 243.11441406 -29.87882812 242.22882813 -29.81640625 241.31640625 C-29.15564193 231.54725986 -28.56234768 221.77527767 -28 212 Z M-231 223 C-230.67 223 -230.34 223 -230 223 C-230 225.64 -230 228.28 -230 231 C-230.33 231 -230.66 231 -231 231 C-231 228.36 -231 225.72 -231 223 Z M-232 231 C-231.67 231 -231.34 231 -231 231 C-231 244.2 -231 257.4 -231 271 C-231.66 270.67 -232.32 270.34 -233 270 C-234.99498716 236.98997432 -234.99498716 236.98997432 -232 231 Z M-31 244 C-30.67 244 -30.34 244 -30 244 C-30.47939368 248.71403788 -30.96834048 252.66579301 -33 257 C-34.18771723 253.57056481 -33.80226223 251.62215325 -32.5625 248.25 C-32.27503906 247.45078125 -31.98757813 246.6515625 -31.69140625 245.828125 C-31.46324219 245.22484375 -31.23507812 244.6215625 -31 244 Z M94 268 C94.33 268 94.66 268 95 268 C95.00331015 269.1161393 95.00662029 270.23227859 95.01003075 271.3822403 C95.09102487 298.54037661 95.18334047 325.69845646 95.28752708 352.85651398 C95.33764883 365.98994278 95.38409188 379.12336536 95.421875 392.25683594 C95.45481608 403.7039605 95.49465912 415.15103667 95.54279006 426.59810781 C95.56803389 432.65921919 95.58982152 438.72029856 95.60334396 444.78144836 C95.61618338 450.4875637 95.63825833 456.19356913 95.66738319 461.89962387 C95.67644422 463.99257595 95.68214576 466.08554572 95.68421364 468.17851639 C95.68754655 471.03974888 95.70305205 473.9006717 95.7215271 476.76184082 C95.71959237 477.58676482 95.71765763 478.41168881 95.71566427 479.26161051 C95.76601787 484.490948 96.56867329 488.96658161 98 494 C98.38309865 495.66482377 98.7599345 497.33112914 99.125 499 C99.37636719 500.1446875 99.37636719 500.1446875 99.6328125 501.3125 C99.75398438 501.869375 99.87515625 502.42625 100 503 C95.25218055 499.03291392 94.72295406 492.86314763 94 487 C93.48546334 479.82053223 93.61968686 472.61345088 93.65942383 465.4206543 C93.66027137 463.26112886 93.65979249 461.10160257 93.65809631 458.94207764 C93.65723988 453.11444404 93.67480841 447.28699784 93.69581819 441.45940757 C93.71464397 435.35623371 93.71634007 429.25305498 93.71989441 423.14985657 C93.72919758 411.60818459 93.75378792 400.06659844 93.78394288 388.52496415 C93.81754078 375.37861292 93.83398643 362.23225748 93.84902918 349.08587396 C93.88033904 322.05720183 93.93306582 295.02860574 94 268 Z M116 271 C120 272 120 272 120 272 Z M-231 272 C-230.67 272 -230.34 272 -230 272 C-230 273.98 -230 275.96 -230 278 C-230.33 278 -230.66 278 -231 278 C-231 276.02 -231 274.04 -231 272 Z M120 272 C124 273 124 273 124 273 Z M124 273 C127 274 127 274 127 274 Z M128 274 C133.31027254 275.46032495 137.46330032 277.98320986 142 281 C141.01 281.495 141.01 281.495 140 282 C137.1796875 280.78515625 137.1796875 280.78515625 133.875 279.0625 C132.77929688 278.49660156 131.68359375 277.93070312 130.5546875 277.34765625 C129.71164062 276.90292969 128.86859375 276.45820313 128 276 C128 275.34 128 274.68 128 274 Z M-230 279 C-229.67 279 -229.34 279 -229 279 C-229 280.65 -229 282.3 -229 284 C-229.33 284 -229.66 284 -230 284 C-230 282.35 -230 280.7 -230 279 Z M143 283 C145 284 145 284 145 284 Z M-51 288 C-50.67 288.66 -50.34 289.32 -50 290 C-50.66 290.66 -51.32 291.32 -52 292 C-51.67 290.68 -51.34 289.36 -51 288 Z M154 292 C156.5 294.3125 156.5 294.3125 159 297 C159 297.99 159 298.98 159 300 C154 294.25 154 294.25 154 292 Z M-57 297 C-56.67 297.66 -56.34 298.32 -56 299 C-56.99 299.99 -57.98 300.98 -59 302 C-58.34 300.35 -57.68 298.7 -57 297 Z M-30 303 C-29.67 303.99 -29.34 304.98 -29 306 C-29.66 306 -30.32 306 -31 306 C-30.67 305.01 -30.34 304.02 -30 303 Z M-269 308 C-268.67 308 -268.34 308 -268 308 C-268 309.98 -268 311.96 -268 314 C-268.33 314 -268.66 314 -269 314 C-269 312.02 -269 310.04 -269 308 Z M-68 310 C-68 313 -68 313 -68 313 Z M-72 314 C-71.34 314 -70.68 314 -70 314 C-70 314.66 -70 315.32 -70 316 C-71.98 316.99 -71.98 316.99 -74 318 C-73.34 316.68 -72.68 315.36 -72 314 Z M-214 316 C-213.01 316.495 -213.01 316.495 -212 317 C-212.33 317.66 -212.66 318.32 -213 319 C-213.33 318.01 -213.66 317.02 -214 316 Z M-75 318 C-75 318.99 -75 319.98 -75 321 C-75.99 321.33 -76.98 321.66 -78 322 C-78 321.34 -78 320.68 -78 320 C-77.01 319.34 -76.02 318.68 -75 318 Z M-212 319 C-211.01 319.99 -210.02 320.98 -209 322 C-209.99 321.67 -210.98 321.34 -212 321 C-212 320.34 -212 319.68 -212 319 Z M-88 329 C-87.34 329.33 -86.68 329.66 -86 330 C-86.99 330.99 -87.98 331.98 -89 333 C-89.66 332.67 -90.32 332.34 -91 332 C-90.01 331.01 -89.02 330.02 -88 329 Z M-201 330 C-200.01 330.99 -199.02 331.98 -198 333 C-198.99 332.67 -199.98 332.34 -201 332 C-201 331.34 -201 330.68 -201 330 Z M-198 333 C-194.88801935 334.49836105 -191.9465385 336.19933758 -189 338 C-189.99 338.495 -189.99 338.495 -191 339 C-196.875 335.25 -196.875 335.25 -198 333 Z M-93 333 C-92.34 333.33 -91.68 333.66 -91 334 C-92.98 334.99 -92.98 334.99 -95 336 C-95 335.34 -95 334.68 -95 334 C-94.34 333.67 -93.68 333.34 -93 333 Z M-262 336 C-259.2289312 338.34591852 -258.47940716 340.14776201 -257.8125 343.6875 C-257.65394531 344.49574219 -257.49539063 345.30398438 -257.33203125 346.13671875 C-257.22246094 346.75160156 -257.11289062 347.36648438 -257 348 C-259.34914492 345.65085508 -259.73140357 344.04320554 -260.625 340.875 C-260.88539063 339.96492188 -261.14578125 339.05484375 -261.4140625 338.1171875 C-261.60742188 337.41851562 -261.80078125 336.71984375 -262 336 Z M-97 336 C-96.34 336.33 -95.68 336.66 -95 337 C-95.99 337.66 -96.98 338.32 -98 339 C-98.99 338.67 -99.98 338.34 -101 338 C-99.125 336.9375 -99.125 336.9375 -97 336 Z M-188 339 C-187.34 339.66 -186.68 340.32 -186 341 C-186.66 341 -187.32 341 -188 341 C-188 340.34 -188 339.68 -188 339 Z M-186 341 C-184 342 -184 342 -184 342 Z M-184 342 C-182 343 -182 343 -182 343 Z M-108 342 C-105 343 -105 343 -105 343 Z M-172 348 C-169 349 -169 349 -169 349 Z M-117.8125 348.375 C-117.214375 348.58125 -116.61625 348.7875 -116 349 C-118.31 349.33 -120.62 349.66 -123 350 C-120 348 -120 348 -117.8125 348.375 Z M-169 349 C-165 350 -165 350 -165 350 Z M-165 350 C-163.35 350 -161.7 350 -160 350 C-160 350.33 -160 350.66 -160 351 C-161.65 351 -163.3 351 -165 351 C-165 350.67 -165 350.34 -165 350 Z M-128 350 C-126.35 350 -124.7 350 -123 350 C-123 350.33 -123 350.66 -123 351 C-124.65 351 -126.3 351 -128 351 C-128 350.67 -128 350.34 -128 350 Z M-133 351 C-131.35 351 -129.7 351 -128 351 C-128.33 351.66 -128.66 352.32 -129 353 C-130.65 353 -132.3 353 -134 353 C-133.67 352.34 -133.34 351.68 -133 351 Z M-64 356 C-64 359.96130371 -65.34877125 360.82914401 -68 363.6875 C-68.7425 364.49574219 -69.485 365.30398438 -70.25 366.13671875 C-70.8275 366.75160156 -71.405 367.36648438 -72 368 C-72 364.03869629 -70.65122875 363.17085599 -68 360.3125 C-67.2575 359.50425781 -66.515 358.69601562 -65.75 357.86328125 C-65.1725 357.24839844 -64.595 356.63351562 -64 356 Z M-247 364 C-246.01 364.495 -246.01 364.495 -245 365 C-245.33 365.66 -245.66 366.32 -246 367 C-246.33 366.01 -246.66 365.02 -247 364 Z M-245 367 C-244.34 367.66 -243.68 368.32 -243 369 C-243.66 369 -244.32 369 -245 369 C-245 368.34 -245 367.68 -245 367 Z M-243 369 C-242.01 369.495 -242.01 369.495 -241 370 C-241.33 370.66 -241.66 371.32 -242 372 C-242.33 371.01 -242.66 370.02 -243 369 Z M-241 372 C-240.01 372.99 -239.02 373.98 -238 375 C-238.99 374.67 -239.98 374.34 -241 374 C-241 373.34 -241 372.68 -241 372 Z M-237 376 C-236.01 377.32 -235.02 378.64 -234 380 C-234.99 379.67 -235.98 379.34 -237 379 C-237 378.01 -237 377.02 -237 376 Z M-85 378 C-84.34 378.33 -83.68 378.66 -83 379 C-86.3 381.97 -89.6 384.94 -93 388 C-93 385 -93 385 -91.25 383.17578125 C-90.5075 382.56089844 -89.765 381.94601562 -89 381.3125 C-88.2575 380.68988281 -87.515 380.06726563 -86.75 379.42578125 C-86.1725 378.95527344 -85.595 378.48476563 -85 378 Z M-232 381 C-230.68 382.32 -229.36 383.64 -228 385 C-229.32 384.34 -230.64 383.68 -232 383 C-232 382.34 -232 381.68 -232 381 Z M-228 385 C-227.01 385.33 -226.02 385.66 -225 386 C-225.33 386.66 -225.66 387.32 -226 388 C-226.66 387.01 -227.32 386.02 -228 385 Z M-225 388 C-223 389 -223 389 -223 389 Z M-223 389 C-221 390 -221 390 -221 390 Z M-98 389 C-96 390 -96 390 -96 390 Z M-216 394 C-215.34 394.66 -214.68 395.32 -214 396 C-214.66 396 -215.32 396 -216 396 C-216 395.34 -216 394.68 -216 394 Z M-106 395 C-105.34 395.33 -104.68 395.66 -104 396 C-106.475 397.485 -106.475 397.485 -109 399 C-108.67 398.01 -108.34 397.02 -108 396 C-107.34 395.67 -106.68 395.34 -106 395 Z M-214 396 C-212 397 -212 397 -212 397 Z M-212 397 C-211.01 397.33 -210.02 397.66 -209 398 C-209.99 398 -210.98 398 -212 398 C-212 397.67 -212 397.34 -212 397 Z M-208 399 C-206.02 399.99 -206.02 399.99 -204 401 C-205.32 400.67 -206.64 400.34 -208 400 C-208 399.67 -208 399.34 -208 399 Z M-126 405 C-123 406 -123 406 -123 406 Z M-191 406 C-188.36 406.33 -185.72 406.66 -183 407 C-183.66 407.66 -184.32 408.32 -185 409 C-186.98 408.34 -188.96 407.68 -191 407 C-191 406.67 -191 406.34 -191 406 Z M-126 407 C-128.64 407.66 -131.28 408.32 -134 409 C-134 408.34 -134 407.68 -134 407 C-130.63458162 405.91825838 -129.70152678 406.07461831 -126 407 Z M-182 409 C-179 410 -179 410 -179 410 Z M-138 409 C-135 410 -135 410 -135 410 Z M-175 410 C-173 411 -173 411 -173 411 Z M-145 410 C-142 411 -142 411 -142 411 Z M34 503 C36 504 36 504 36 504 Z M100 503 C104 507.75 104 507.75 104 510 C103.34 510 102.68 510 102 510 C100.5393715 507.35261084 100 506.10551666 100 503 Z M33 505 C33.33 505.99 33.66 506.98 34 508 C33.01 508.495 33.01 508.495 32 509 C32.33 507.68 32.66 506.36 33 505 Z M111 519 C115.43379675 521.21689838 117.46636932 523.77728219 120 528 C116.18063472 526.44396229 113.73955562 524.04395069 111 521 C111 520.34 111 519.68 111 519 Z M22 520 C22 520.99 22 521.98 22 523 C21.01 523.495 21.01 523.495 20 524 C20.66 522.68 21.32 521.36 22 520 Z M15 526 C15.66 526.33 16.32 526.66 17 527 C16.01 527.66 15.02 528.32 14 529 C14.33 528.01 14.66 527.02 15 526 Z M10 531 C10.33 531.66 10.66 532.32 11 533 C10.34 532.67 9.68 532.34 9 532 C9.33 531.67 9.66 531.34 10 531 Z M6 534 C8 535 8 535 8 535 Z M4 535 C4.66 535.33 5.32 535.66 6 536 C4.35 537.32 2.7 538.64 1 540 C0.34 539.67 -0.32 539.34 -1 539 C0.65 537.68 2.3 536.36 4 535 Z M129 535 C129.66 535 130.32 535 131 535 C130.67 535.66 130.34 536.32 130 537 C129.67 536.34 129.34 535.68 129 535 Z M-3 540 C-1 541 -1 541 -1 541 Z M-3 541 C-3 541.66 -3 542.32 -3 543 C-5.3125 544.6875 -5.3125 544.6875 -8 546 C-8.99 545.67 -9.98 545.34 -11 545 C-5.25 541 -5.25 541 -3 541 Z M141 543 C143.475 543.495 143.475 543.495 146 544 C145.01 544.33 144.02 544.66 143 545 C142.34 544.34 141.68 543.68 141 543 Z M146 545 C148 546 148 546 148 546 Z M-18 549 C-16 550 -16 550 -16 550 Z " fill="#FF0100" transform="translate(301,0)"/>
</svg>
