<?xml version="1.0" encoding="UTF-8"?>
<svg version="1.1" xmlns="http://www.w3.org/2000/svg" width="500" height="552">
<path d="M0 0 C3.82421875 0.5546875 3.82421875 0.5546875 6.38671875 3.2421875 C7.98572884 6.92686292 7.90437546 7.82759628 6.82421875 11.5546875 C5.73608398 13.7043457 5.73608398 13.7043457 4.3828125 15.85546875 C3.88499268 16.66032715 3.38717285 17.46518555 2.87426758 18.29443359 C2.34212646 19.14344238 1.80998535 19.99245117 1.26171875 20.8671875 C-2.66930465 27.28204445 -6.47555096 33.7094486 -9.86328125 40.4296875 C-10.18949463 41.06430908 -10.51570801 41.69893066 -10.85180664 42.3527832 C-13.21092029 47.1306456 -14.65292899 51.26437833 -13.55078125 56.5546875 C-13.0569362 60.5054479 -14.10653584 62.20108287 -16.17578125 65.5546875 C-16.77390625 66.2765625 -17.37203125 66.9984375 -17.98828125 67.7421875 C-21.30703032 72.00915059 -23.68086417 76.77157504 -26.17578125 81.5546875 C-26.5625 82.24820313 -26.94921875 82.94171875 -27.34765625 83.65625 C-28.41866399 85.79240273 -28.41866399 85.79240273 -28.30078125 89.3671875 C-29.73206592 103.4074086 -42.31784234 117.86013404 -49.79052734 129.3190918 C-52.45134684 133.36492402 -52.45134684 133.36492402 -53.0078125 137.99609375 C-52.04477149 140.9575579 -50.71028367 142.98864888 -48.86328125 145.4921875 C-46.77160154 148.33059263 -44.8586555 151.08584445 -43.17578125 154.1796875 C-42.51578125 154.9634375 -41.85578125 155.7471875 -41.17578125 156.5546875 C-37.75935366 156.80484623 -37.75935366 156.80484623 -34.17578125 156.5546875 C-28.82359219 158.58851934 -25.20954558 161.74615581 -21.86328125 166.3671875 C-20.57191505 170.47607994 -20.33063451 174.49386171 -21.96875 178.48828125 C-23.38631445 181.01382711 -24.91967233 183.27874327 -26.890625 185.40234375 C-28.46270556 187.53777746 -28.46270556 187.53777746 -27.84765625 190.31640625 C-27.5434375 191.28191406 -27.23921875 192.24742187 -26.92578125 193.2421875 C-26.631875 194.21542969 -26.33796875 195.18867188 -26.03515625 196.19140625 C-25.39158971 198.47984086 -25.39158971 198.47984086 -24.17578125 199.5546875 C-23.16515625 199.5134375 -22.15453125 199.4721875 -21.11328125 199.4296875 C-16.43746699 199.57812605 -13.46090781 200.75042369 -9.17578125 202.5546875 C-8.50717551 205.96457679 -8.06473975 208.85671235 -8.61328125 212.3046875 C-10.9780853 215.71000533 -14.23512272 216.59488354 -18.17578125 217.5546875 C-19.16578125 217.5546875 -20.15578125 217.5546875 -21.17578125 217.5546875 C-20.84578125 221.1846875 -20.51578125 224.8146875 -20.17578125 228.5546875 C-18.71785156 228.82152344 -17.25992187 229.08835938 -15.7578125 229.36328125 C-10.62479017 230.39276792 -5.79671181 231.88653215 -0.86328125 233.6171875 C5.586436 235.84438919 12.05569697 237.94754366 18.6015625 239.875 C19.93519298 240.27187596 21.26877056 240.66892974 22.60229492 241.06616211 C24.58333555 241.65585042 26.56520455 242.23962065 28.5531311 242.80569458 C30.41344426 243.33598542 32.2674532 243.88824252 34.12109375 244.44140625 C35.19713867 244.75295654 36.27318359 245.06450684 37.38183594 245.38549805 C39.82421875 246.5546875 39.82421875 246.5546875 40.68066406 248.68676758 C40.72803711 249.30318115 40.77541016 249.91959473 40.82421875 250.5546875 C20.53606678 257.36484968 0.20420711 264.02452432 -20.17578125 270.5546875 C-20.28390137 271.41739258 -20.39202148 272.28009766 -20.50341797 273.16894531 C-21.59587633 281.38754198 -23.18153423 289.29413655 -25.30078125 297.3046875 C-25.84698928 299.40314255 -26.3913602 301.50207694 -26.93359375 303.6015625 C-27.17223145 304.50745117 -27.41086914 305.41333984 -27.65673828 306.34667969 C-28.2520597 308.50114354 -28.2520597 308.50114354 -28.17578125 310.5546875 C-27.51578125 310.5546875 -26.85578125 310.5546875 -26.17578125 310.5546875 C-22.89538399 314.12140372 -22.40372722 317.23967673 -22.02734375 321.9375 C-22.26882158 326.1951355 -23.97191368 328.94835875 -26.17578125 332.5546875 C-26.83578125 332.5546875 -27.49578125 332.5546875 -28.17578125 332.5546875 C-28.17578125 333.2146875 -28.17578125 333.8746875 -28.17578125 334.5546875 C-33.18510879 337.56028402 -36.50301614 337.84810638 -42.17578125 337.5546875 C-42.45164062 338.28429687 -42.7275 339.01390625 -43.01171875 339.765625 C-46.28717735 347.61353588 -51.44223742 354.45980567 -56.5390625 361.20703125 C-58.32636698 363.53453196 -58.32636698 363.53453196 -59.17578125 366.5546875 C-58.53500173 368.54525815 -58.53500173 368.54525815 -57.40234375 370.625 C-56.79024048 371.83265015 -56.79024048 371.83265015 -56.16577148 373.06469727 C-55.71532471 373.92764404 -55.26487793 374.79059082 -54.80078125 375.6796875 C-54.34324463 376.57550537 -53.88570801 377.47132324 -53.41430664 378.39428711 C-50.18690371 384.68808496 -46.85829937 390.92735425 -43.51782227 397.16162109 C-38.2822622 407.00981998 -33.15928961 417.12665514 -29.17578125 427.5546875 C-33.76679277 426.17529406 -37.81832067 424.25218301 -41.98828125 421.9296875 C-47.3866312 418.98330088 -52.83933706 416.25071777 -58.42578125 413.6796875 C-65.7014014 410.32599558 -72.7887311 406.67231256 -79.84472656 402.87939453 C-81.31806252 402.09044486 -82.79722871 401.31224268 -84.28320312 400.54736328 C-85.81584984 399.74347505 -87.30818258 398.86304118 -88.78515625 397.9609375 C-91.45646595 397.2442113 -91.45646595 397.2442113 -94.48828125 399.484375 C-95.73064753 400.44938831 -96.95917619 401.43239276 -98.17578125 402.4296875 C-99.49772361 403.46552071 -100.82331597 404.49671105 -102.15234375 405.5234375 C-102.81911133 406.0390625 -103.48587891 406.5546875 -104.17285156 407.0859375 C-108.14175229 409.99633569 -112.45939666 412.32690331 -116.76171875 414.703125 C-119.37047156 416.33218979 -119.37047156 416.33218979 -119.9296875 419.03125 C-120.01089844 419.86398437 -120.09210938 420.69671875 -120.17578125 421.5546875 C-122.06751042 427.1978118 -124.71053808 430.81362038 -129.95703125 433.7109375 C-133.74020756 435.14961018 -137.21080763 435.27215892 -141.17578125 434.5546875 C-143.59447703 433.3957291 -145.29900221 432.43146654 -147.17578125 430.5546875 C-152.72248735 430.8367234 -157.60647499 431.8993673 -162.92578125 433.4921875 C-171.57545306 436.06649459 -180.13005878 437.71621826 -189.17578125 437.5546875 C-189.29727539 438.57256348 -189.41876953 439.59043945 -189.54394531 440.63916016 C-190.14576769 444.36869155 -191.06021657 447.63632805 -192.28515625 451.203125 C-192.70796875 452.44827881 -193.13078125 453.69343262 -193.56640625 454.97631836 C-193.78876953 455.62277313 -194.01113281 456.26922791 -194.24023438 456.93527222 C-195.39405759 460.29201228 -196.52732314 463.65565988 -197.66015625 467.01953125 C-197.88175415 467.67665604 -198.10335205 468.33378082 -198.33166504 469.01081848 C-200.83488114 476.46523498 -203.05549989 483.98351614 -205.17578125 491.5546875 C-205.84048107 493.88858611 -206.50832626 496.22157474 -207.17578125 498.5546875 C-208.49578125 498.5546875 -209.81578125 498.5546875 -211.17578125 498.5546875 C-214.78157247 487.9536613 -218.22273629 477.35935788 -221.17578125 466.5546875 C-221.91183594 467.18890625 -222.64789063 467.823125 -223.40625 468.4765625 C-227.03125442 471.19659403 -229.78226872 471.66109173 -234.17578125 472.5546875 C-235.65410385 469.59804231 -235.23610908 466.81239013 -235.17578125 463.5546875 C-235.52769531 464.07160156 -235.87960938 464.58851563 -236.2421875 465.12109375 C-237.77648902 467.16816444 -239.2174532 468.90421888 -241.17578125 470.5546875 C-244.86328125 470.7421875 -244.86328125 470.7421875 -248.17578125 469.5546875 C-252.05235924 465.38553759 -252.18385066 461.04995525 -252.17578125 455.5546875 C-251.53187224 450.04176791 -249.91234225 445.40586381 -247.17578125 440.5546875 C-242.50116274 440.22855132 -240.00903742 440.84885962 -236.17578125 443.5546875 C-236.55482333 440.26392754 -236.55482333 440.26392754 -238.17578125 437.5546875 C-239.48156683 437.23634405 -240.7996505 436.96802588 -242.12109375 436.72265625 C-242.94448242 436.56571289 -243.76787109 436.40876953 -244.61621094 436.24707031 C-245.50211914 436.08045898 -246.38802734 435.91384766 -247.30078125 435.7421875 C-256.0497115 434.05280399 -264.60650852 431.99563185 -273.17578125 429.5546875 C-273.17578125 430.2146875 -273.17578125 430.8746875 -273.17578125 431.5546875 C-277.79972129 435.46725215 -282.10379403 436.81960841 -288.17578125 436.5546875 C-293.41860122 434.98184151 -296.63924381 432.71531978 -300.17578125 428.5546875 C-301.18074977 425.53978193 -301.27913428 423.51287058 -301.23828125 420.3671875 C-301.22925781 419.46613281 -301.22023438 418.56507813 -301.2109375 417.63671875 C-301.19353516 416.60611328 -301.19353516 416.60611328 -301.17578125 415.5546875 C-301.83707031 415.32394531 -302.49835938 415.09320313 -303.1796875 414.85546875 C-307.06722678 413.16765835 -310.53376163 410.99891343 -314.11328125 408.7421875 C-314.80357422 408.31615234 -315.49386719 407.89011719 -316.20507812 407.45117188 C-319.51467236 405.37757776 -322.53663998 403.29743355 -325.4296875 400.66796875 C-327.85687896 398.2883311 -327.85687896 398.2883311 -330.08642578 398.7902832 C-332.29530924 399.59841759 -334.2826789 400.5521558 -336.3515625 401.671875 C-337.16834473 402.10862549 -337.98512695 402.54537598 -338.82666016 402.99536133 C-339.70499512 403.46868896 -340.58333008 403.9420166 -341.48828125 404.4296875 C-350.24651599 409.09197394 -359.10692574 413.47185093 -368.0949707 417.67333984 C-373.84815724 420.37834685 -379.42535027 423.28843472 -384.95654297 426.42456055 C-387.17578125 427.5546875 -387.17578125 427.5546875 -389.17578125 427.5546875 C-387.74155883 422.84638156 -385.79069301 418.54654251 -383.55078125 414.1796875 C-382.82924504 412.7566027 -382.10789614 411.33342292 -381.38671875 409.91015625 C-381.01901367 409.18747559 -380.65130859 408.46479492 -380.27246094 407.72021484 C-379.22173193 405.64542271 -378.1841213 403.56474024 -377.15234375 401.48046875 C-373.50882475 394.12341487 -369.77500189 386.82718153 -365.87695312 379.60131836 C-364.97125325 377.92196061 -364.07336242 376.23839851 -363.17578125 374.5546875 C-362.56347656 373.50539063 -361.95117188 372.45609375 -361.3203125 371.375 C-359.91873613 368.73072914 -359.91873613 368.73072914 -360.6953125 366.5859375 C-361.18386719 365.915625 -361.67242187 365.2453125 -362.17578125 364.5546875 C-362.88089844 363.554375 -363.58601563 362.5540625 -364.3125 361.5234375 C-365.16062798 360.36562241 -366.0110018 359.20945006 -366.86328125 358.0546875 C-370.25470056 353.45586462 -373.08724283 348.91998538 -375.67578125 343.8046875 C-377.84182525 339.81180973 -377.84182525 339.81180973 -381.58203125 337.54296875 C-384.16237878 337.085666 -384.16237878 337.085666 -386.73828125 336.89453125 C-390.87388593 336.31793252 -393.06913445 334.27300345 -396.17578125 331.5546875 C-398.32615824 328.56285865 -398.3777393 326.18993237 -398.17578125 322.5546875 C-398.69140625 322.4721875 -399.20703125 322.3896875 -399.73828125 322.3046875 C-403.22033857 321.23328525 -406.0477901 319.41945145 -409.17578125 317.5546875 C-409.17578125 316.5646875 -409.17578125 315.5746875 -409.17578125 314.5546875 C-403.89578125 312.2446875 -398.61578125 309.9346875 -393.17578125 307.5546875 C-405.69710544 307.5546875 -418.86429212 313.30330607 -430.46875 317.38061523 C-448.4034959 323.58849254 -448.4034959 323.58849254 -453.42138672 321.71728516 C-455.17578125 320.5546875 -455.17578125 320.5546875 -456.17578125 318.5546875 C-456.21600516 316.2217009 -456.21898372 313.88762084 -456.17578125 311.5546875 C-455.32306641 311.28205078 -455.32306641 311.28205078 -454.453125 311.00390625 C-450.28849228 309.64814101 -446.21787703 308.22617451 -442.2109375 306.4453125 C-438.38843117 304.77250742 -434.51358763 303.2215313 -430.65234375 301.640625 C-428.27861049 300.7787264 -428.27861049 300.7787264 -427.17578125 299.5546875 C-427.10429926 298.20224833 -427.09178671 296.84634383 -427.11328125 295.4921875 C-427.13390625 294.1928125 -427.15453125 292.8934375 -427.17578125 291.5546875 C-425.19578125 290.8946875 -423.21578125 290.2346875 -421.17578125 289.5546875 C-421.67078125 288.0696875 -421.67078125 288.0696875 -422.17578125 286.5546875 C-421.01483199 282.02698538 -418.91886164 280.2135653 -415.17578125 277.5546875 C-411.9140625 276.0703125 -411.9140625 276.0703125 -408.48828125 274.8046875 C-406.78091797 274.16273438 -406.78091797 274.16273438 -405.0390625 273.5078125 C-402.17578125 272.5546875 -402.17578125 272.5546875 -400.17578125 272.5546875 C-400.81425814 269.46272934 -400.81425814 269.46272934 -403.03222656 268.62255859 C-403.84788086 268.36039551 -404.66353516 268.09823242 -405.50390625 267.828125 C-406.43549561 267.52277832 -407.36708496 267.21743164 -408.3269043 266.90283203 C-409.34953369 266.58169434 -410.37216309 266.26055664 -411.42578125 265.9296875 C-412.47741455 265.58921387 -413.52904785 265.24874023 -414.61254883 264.89794922 C-424.59296821 261.68587695 -434.61337275 258.59086329 -444.63964844 255.52490234 C-445.81043945 255.16605957 -446.98123047 254.8072168 -448.1875 254.4375 C-449.22350342 254.12184082 -450.25950684 253.80618164 -451.3269043 253.48095703 C-453.99796933 252.61250037 -456.58246956 251.63108907 -459.17578125 250.5546875 C-458.91194153 248.65368652 -458.91194153 248.65368652 -458.17578125 246.5546875 C-456.54179382 245.60705566 -456.54179382 245.60705566 -454.3972168 244.97070312 C-453.59515305 244.72364624 -452.79308929 244.47658936 -451.96672058 244.2220459 C-451.09082779 243.97088013 -450.214935 243.71971436 -449.3125 243.4609375 C-447.95896172 243.05083435 -447.95896172 243.05083435 -446.57807922 242.63244629 C-443.67764404 241.75727931 -440.77094052 240.9055103 -437.86328125 240.0546875 C-435.94548979 239.482053 -434.0281654 238.90785172 -432.11132812 238.33203125 C-429.32313606 237.49455298 -426.53458162 236.65868844 -423.74337769 235.83129883 C-417.88584478 234.09176266 -412.09236378 232.24011487 -406.33129883 230.20117188 C-404.17578125 229.5546875 -404.17578125 229.5546875 -401.17578125 229.5546875 C-401.01722656 228.25917969 -400.85867188 226.96367187 -400.6953125 225.62890625 C-399.26804798 214.56891517 -397.21242009 203.99262388 -394.1640625 193.265625 C-393.04710821 189.71157466 -393.04710821 189.71157466 -393.17578125 186.5546875 C-394.82066419 184.86651817 -396.48915667 183.20115435 -398.17578125 181.5546875 C-400.89571379 177.08086743 -401.04585279 172.64536921 -400.17578125 167.5546875 C-398.04818225 163.18944127 -395.26335063 160.3112575 -391.30078125 157.5546875 C-387.00559271 156.18022717 -382.36343151 155.46086237 -378.17578125 157.5546875 C-378.05211182 156.96768066 -377.92844238 156.38067383 -377.80102539 155.77587891 C-377.1750433 153.55206591 -376.38360883 151.97194411 -375.171875 150.015625 C-374.76428955 149.35731689 -374.3567041 148.69900879 -373.93676758 148.02075195 C-373.50001709 147.33070068 -373.0632666 146.64064941 -372.61328125 145.9296875 C-372.16944092 145.2183667 -371.72560059 144.5070459 -371.26831055 143.77416992 C-368.05402641 138.70772278 -364.5328172 134.10228214 -360.4765625 129.66796875 C-358.92001024 127.62922448 -358.92001024 127.62922448 -359.45556641 125.20288086 C-360.1735878 122.56275272 -361.09554278 120.47014963 -362.3984375 118.0703125 C-362.85057617 117.22597656 -363.30271484 116.38164062 -363.76855469 115.51171875 C-364.25356445 114.61839844 -364.73857422 113.72507812 -365.23828125 112.8046875 C-369.16810554 105.44997416 -372.8990433 98.05592337 -376.37915039 90.47900391 C-378.97570335 84.86655367 -381.87594264 79.47181362 -384.92578125 74.09375 C-386.17578125 71.5546875 -386.17578125 71.5546875 -386.17578125 68.5546875 C-380.12543813 70.24552413 -374.81163254 73.2375799 -369.30078125 76.1796875 C-367.83898437 76.953125 -367.83898437 76.953125 -366.34765625 77.7421875 C-363.95484419 79.00897036 -361.56433589 80.27990068 -359.17578125 81.5546875 C-359.52511719 80.43191406 -359.87445313 79.30914062 -360.234375 78.15234375 C-365.17578125 62.02074128 -365.17578125 62.02074128 -365.17578125 55.5546875 C-364.40234375 54.91660156 -364.40234375 54.91660156 -363.61328125 54.265625 C-361.84275746 52.54444228 -361.84275746 52.54444228 -362.26953125 49.55859375 C-363.26447595 44.4121882 -365.02226676 39.45605129 -366.67578125 34.4921875 C-369.22032984 26.82277499 -371.32309065 19.89627314 -371.30078125 11.7421875 C-371.30335938 10.78699219 -371.3059375 9.83179688 -371.30859375 8.84765625 C-371.17578125 6.5546875 -371.17578125 6.5546875 -370.17578125 5.5546875 C-368.48969159 5.48263239 -366.80077466 5.47082682 -365.11328125 5.4921875 C-364.19417969 5.50121094 -363.27507812 5.51023437 -362.328125 5.51953125 C-361.61785156 5.53113281 -360.90757812 5.54273438 -360.17578125 5.5546875 C-359.9240918 6.29517334 -359.67240234 7.03565918 -359.41308594 7.79858398 C-358.2549361 11.19792891 -357.09040764 14.59505628 -355.92578125 17.9921875 C-355.53003906 19.15685547 -355.13429688 20.32152344 -354.7265625 21.52148438 C-352.71184292 27.38398808 -350.57411439 33.07754558 -347.97949219 38.70678711 C-346.99533677 40.9695673 -346.38701564 43.19570694 -345.92578125 45.6171875 C-345.77625 46.37128906 -345.62671875 47.12539062 -345.47265625 47.90234375 C-345.3746875 48.44761719 -345.27671875 48.99289063 -345.17578125 49.5546875 C-344.42425781 49.5546875 -343.67273438 49.5546875 -342.8984375 49.5546875 C-340.17578125 50.5546875 -340.17578125 50.5546875 -339.17138672 52.12109375 C-338.241566 54.2434316 -337.40799483 56.37810725 -336.61328125 58.5546875 C-335.5843459 61.33352915 -334.48635612 63.88076294 -333.17578125 66.5546875 C-331.17515571 67.18003827 -331.17515571 67.18003827 -329.17578125 67.5546875 C-327.796875 69.5234375 -327.796875 69.5234375 -326.61328125 72.0546875 C-326.19046875 72.951875 -325.76765625 73.8490625 -325.33203125 74.7734375 C-323.97496622 78.03772906 -322.93253509 81.32170715 -322.046875 84.7421875 C-321.26457109 86.66880597 -321.26457109 86.66880597 -319.5 88.04296875 C-316.96201283 88.85218747 -316.96201283 88.85218747 -314.01171875 87.03515625 C-312.84755316 86.28695393 -311.69411611 85.52185 -310.55078125 84.7421875 C-309.39207281 83.9854539 -308.23322465 83.22893418 -307.07421875 82.47265625 C-306.11773437 81.83972656 -305.16125 81.20679687 -304.17578125 80.5546875 C-303.51578125 80.2246875 -302.85578125 79.8946875 -302.17578125 79.5546875 C-301.83388397 77.64941375 -301.57678682 75.72858385 -301.36328125 73.8046875 C-300.73702101 69.64770021 -300.42347824 67.87408625 -297.80078125 64.4921875 C-296.93453125 63.8528125 -296.06828125 63.2134375 -295.17578125 62.5546875 C-294.24765625 61.6884375 -294.24765625 61.6884375 -293.30078125 60.8046875 C-289.70325842 58.6884976 -286.22353177 58.08362702 -282.12109375 59.02734375 C-278.7094943 60.20531111 -276.54177938 61.18482319 -273.95703125 63.796875 C-271.16215677 65.98897038 -271.16215677 65.98897038 -267.27734375 64.95703125 C-265.77792363 64.49143334 -264.28585956 64.0016819 -262.80078125 63.4921875 C-261.18880863 62.99185795 -259.57549785 62.49582115 -257.9609375 62.00390625 C-257.15672363 61.75431152 -256.35250977 61.5047168 -255.52392578 61.24755859 C-246.2870296 58.52201156 -236.76488185 57.18985339 -227.17578125 56.5546875 C-225.59355428 51.29260237 -224.01885958 46.02838053 -222.45571899 40.7605896 C-221.60662037 37.90440896 -220.75203945 35.04988233 -219.89672852 32.19555664 C-219.45741882 30.72548991 -219.02024678 29.25478269 -218.58520508 27.78344727 C-216.22644202 19.8118741 -213.8137124 12.05844803 -210.17578125 4.5546875 C-209.18578125 4.5546875 -208.19578125 4.5546875 -207.17578125 4.5546875 C-206.76851807 5.91279541 -206.76851807 5.91279541 -206.35302734 7.29833984 C-200.18670612 27.99022399 -200.18670612 27.99022399 -193.61328125 48.5546875 C-193.25532471 49.6362915 -193.25532471 49.6362915 -192.89013672 50.73974609 C-191.97979176 53.89902795 -191.97979176 53.89902795 -190.17578125 56.5546875 C-188.72353514 56.8744361 -187.25975045 57.14215917 -185.79296875 57.38671875 C-184.8795874 57.54374268 -183.96620605 57.7007666 -183.02514648 57.86254883 C-181.55283569 58.11234497 -181.55283569 58.11234497 -180.05078125 58.3671875 C-171.91947187 59.77722972 -164.06298423 61.50853812 -156.171875 63.91796875 C-153.02420142 64.58690068 -151.21713683 64.53695606 -148.17578125 63.5546875 C-146.47803187 62.26116417 -144.80838839 60.92951457 -143.17578125 59.5546875 C-138.61705944 58.03511356 -134.51401848 57.6498362 -130.015625 59.390625 C-125.49762169 61.90719507 -123.01579989 64.66878703 -120.76953125 69.296875 C-120.17578125 71.5546875 -120.17578125 71.5546875 -120.48828125 75.05078125 C-120.38515625 76.20707031 -120.28203125 77.36335938 -120.17578125 78.5546875 C-117.94200141 80.38728561 -116.21198809 81.4859794 -113.67578125 82.7421875 C-106.70783192 86.4904695 -100.61299758 90.84299845 -94.54492188 95.9206543 C-92.79589984 97.31454609 -91.17317462 98.54841255 -89.17578125 99.5546875 C-86.57447326 99.19843858 -86.57447326 99.19843858 -84.17578125 97.5546875 C-82.97566406 97.1215625 -81.77554687 96.6884375 -80.5390625 96.2421875 C-68.80851633 91.56729415 -64.67152646 85.16339263 -59.3984375 74.02734375 C-57.29273668 69.76884977 -54.83559322 65.73283484 -52.36328125 61.6796875 C-51.91879639 60.92510254 -51.47431152 60.17051758 -51.01635742 59.39306641 C-48.03972438 54.47700153 -45.23813137 50.62025562 -39.59375 48.65625 C-36.21987176 47.11920046 -35.31594717 45.12512943 -33.48828125 41.9296875 C-32.80409007 40.76651231 -32.11915721 39.60377316 -31.43359375 38.44140625 C-31.07297852 37.81927246 -30.71236328 37.19713867 -30.34082031 36.55615234 C-28.22650309 32.92388651 -26.05295554 29.32938094 -23.86328125 25.7421875 C-23.23256714 24.67460205 -23.23256714 24.67460205 -22.58911133 23.58544922 C-21.53281867 21.85604347 -20.36280165 20.19711892 -19.17578125 18.5546875 C-18.18578125 18.5546875 -17.19578125 18.5546875 -16.17578125 18.5546875 C-15.82386719 17.52794922 -15.82386719 17.52794922 -15.46484375 16.48046875 C-13.8936085 12.91424087 -11.84364812 9.8678738 -9.55078125 6.7421875 C-9.14988281 6.14470703 -8.74898438 5.54722656 -8.3359375 4.93164062 C-5.86952783 1.59091546 -4.08923781 0.14469825 0 0 Z M-365.17578125 11.5546875 C-364.17578125 13.5546875 -364.17578125 13.5546875 -364.17578125 13.5546875 Z M-358.17578125 60.5546875 C-357.17578125 62.5546875 -357.17578125 62.5546875 -357.17578125 62.5546875 Z M-331.17578125 78.5546875 C-330.17578125 80.5546875 -330.17578125 80.5546875 -330.17578125 80.5546875 Z M-1.17578125 6.5546875 C-1.88863281 7.5446875 -2.60148437 8.5346875 -3.3359375 9.5546875 C-4.30318114 10.88816903 -5.27064075 12.22149392 -6.23828125 13.5546875 C-6.70427734 14.20308594 -7.17027344 14.85148437 -7.65039062 15.51953125 C-10.17328504 18.98636575 -12.77122493 22.25539063 -15.6640625 25.421875 C-19.55751732 29.79913822 -22.40366195 34.60782773 -25.30078125 39.6796875 C-30.87024637 49.36508809 -30.87024637 49.36508809 -34.04296875 53.046875 C-36.39173293 55.25992309 -36.39173293 55.25992309 -36.17578125 57.5546875 C-37.49578125 56.8946875 -38.81578125 56.2346875 -40.17578125 55.5546875 C-44.09212161 59.99274282 -47.08922496 64.5307416 -49.98828125 69.6796875 C-50.44984619 70.48664063 -50.91141113 71.29359375 -51.38696289 72.125 C-53.6200511 76.03354052 -55.83494685 79.95232791 -58.05175781 83.87011719 C-60.06873085 87.43365223 -62.0893162 90.99511904 -64.11328125 94.5546875 C-64.45393616 95.15400085 -64.79459106 95.75331421 -65.14556885 96.37078857 C-70.78786214 106.28113744 -76.69734135 115.99142505 -82.89599609 125.56445312 C-85.02353186 128.87305129 -87.10005939 132.21341786 -89.17578125 135.5546875 C-96.33835857 132.868721 -101.86685072 130.16698548 -107.17578125 124.5546875 C-108.16578125 124.2246875 -109.15578125 123.8946875 -110.17578125 123.5546875 C-110.17578125 122.2346875 -110.17578125 120.9146875 -110.17578125 119.5546875 C-109.17998047 120.11349609 -109.17998047 120.11349609 -108.1640625 120.68359375 C-107.28105469 121.15667969 -106.39804687 121.62976563 -105.48828125 122.1171875 C-104.18310547 122.83068359 -104.18310547 122.83068359 -102.8515625 123.55859375 C-99.79249372 124.69737118 -98.25715086 124.48187439 -95.17578125 123.5546875 C-106.12991603 114.74123751 -117.71348002 107.32395603 -129.73974609 100.06494141 C-131.33746985 99.07441032 -132.91248659 98.04606626 -134.45947266 96.97802734 C-135.1560498 96.50187988 -135.85262695 96.02573242 -136.5703125 95.53515625 C-137.47487183 94.88969849 -137.47487183 94.88969849 -138.39770508 94.23120117 C-140.25330738 93.29677603 -140.25330738 93.29677603 -142.40112305 94.4309082 C-143.27957886 94.98717896 -143.27957886 94.98717896 -144.17578125 95.5546875 C-142.85578125 95.5546875 -141.53578125 95.5546875 -140.17578125 95.5546875 C-140.50578125 96.5446875 -140.83578125 97.5346875 -141.17578125 98.5546875 C-145.96605852 98.05044779 -149.95257496 96.53363752 -154.35644531 94.70947266 C-162.98069761 91.17702432 -171.38603223 88.65133597 -180.55078125 86.9296875 C-181.64406738 86.71731445 -182.73735352 86.50494141 -183.86376953 86.28613281 C-190.52816311 85.00661686 -197.19317146 83.83024742 -203.91796875 82.9140625 C-206.17578125 82.5546875 -206.17578125 82.5546875 -209.17578125 81.5546875 C-211.21807009 81.68903424 -211.21807009 81.68903424 -213.40625 82.11328125 C-214.20869141 82.25185547 -215.01113281 82.39042969 -215.83789062 82.53320312 C-216.67126953 82.68466797 -217.50464844 82.83613281 -218.36328125 82.9921875 C-219.20826172 83.13978516 -220.05324219 83.28738281 -220.92382812 83.43945312 C-223.00897035 83.80464753 -225.09253798 84.1788118 -227.17578125 84.5546875 C-227.17578125 83.5646875 -227.17578125 82.5746875 -227.17578125 81.5546875 C-225.52578125 81.5546875 -223.87578125 81.5546875 -222.17578125 81.5546875 C-222.17578125 80.8946875 -222.17578125 80.2346875 -222.17578125 79.5546875 C-235.06130162 79.5826995 -245.40367478 81.24506155 -257.17578125 86.5546875 C-256.84578125 87.8746875 -256.51578125 89.1946875 -256.17578125 90.5546875 C-256.86027344 90.67714844 -257.54476562 90.79960938 -258.25 90.92578125 C-261.56770814 91.63893347 -264.75014662 92.60322615 -267.98828125 93.6171875 C-269.73044922 94.16052734 -269.73044922 94.16052734 -271.5078125 94.71484375 C-272.38824219 94.99199219 -273.26867187 95.26914063 -274.17578125 95.5546875 C-274.17578125 94.8946875 -274.17578125 94.2346875 -274.17578125 93.5546875 C-272.17578125 91.9296875 -272.17578125 91.9296875 -270.17578125 90.5546875 C-274.72958966 90.83930053 -277.11189527 92.9062556 -280.54296875 95.61328125 C-284.6129045 98.61440598 -288.92504776 101.20924689 -293.23046875 103.85644531 C-297.76287158 106.6487292 -302.17235488 109.55415472 -306.4765625 112.69140625 C-307.03730469 112.97628906 -307.59804688 113.26117188 -308.17578125 113.5546875 C-309.16578125 113.2246875 -310.15578125 112.8946875 -311.17578125 112.5546875 C-311.83578125 114.8646875 -312.49578125 117.1746875 -313.17578125 119.5546875 C-313.83578125 119.5546875 -314.49578125 119.5546875 -315.17578125 119.5546875 C-315.34013672 118.52794922 -315.34013672 118.52794922 -315.5078125 117.48046875 C-316.29151492 114.04776048 -317.51955953 110.99745035 -318.86328125 107.7421875 C-321.1829038 102.06589269 -323.40894011 96.36300748 -325.55078125 90.6171875 C-325.81334717 89.91295654 -326.07591309 89.20872559 -326.34643555 88.4831543 C-326.95756524 86.84083293 -327.56688678 85.19783889 -328.17578125 83.5546875 C-328.50578125 83.5546875 -328.83578125 83.5546875 -329.17578125 83.5546875 C-329.50578125 85.2046875 -329.83578125 86.8546875 -330.17578125 88.5546875 C-330.83578125 88.5546875 -331.49578125 88.5546875 -332.17578125 88.5546875 C-332.23765625 87.7915625 -332.29953125 87.0284375 -332.36328125 86.2421875 C-333.30308644 81.97691777 -334.97280862 78.45807144 -336.83203125 74.5234375 C-338.89393115 69.96807725 -340.54079679 65.27696104 -342.17578125 60.5546875 C-342.50578125 60.5546875 -342.83578125 60.5546875 -343.17578125 60.5546875 C-342.69592094 66.12359267 -341.87662944 71.22536318 -340.17578125 76.5546875 C-342.17578125 75.5546875 -342.17578125 75.5546875 -343.07373047 73.44433594 C-343.3729541 72.5268457 -343.67217773 71.60935547 -343.98046875 70.6640625 C-344.31473877 69.64997314 -344.64900879 68.63588379 -344.9934082 67.59106445 C-345.34234131 66.50656006 -345.69127441 65.42205566 -346.05078125 64.3046875 C-346.40938232 63.2118042 -346.7679834 62.1189209 -347.13745117 60.99291992 C-349.29960059 54.37468726 -351.38966556 47.74181746 -353.2890625 41.04296875 C-354.09088829 38.51146799 -354.09088829 38.51146799 -355.58203125 36.3046875 C-357.80114796 32.47562337 -359.01995134 28.44465417 -360.36328125 24.2421875 C-360.63591797 23.40623047 -360.90855469 22.57027344 -361.18945312 21.70898438 C-361.85705399 19.65933261 -362.51717207 17.6072462 -363.17578125 15.5546875 C-363.50578125 15.5546875 -363.83578125 15.5546875 -364.17578125 15.5546875 C-363.77564149 22.97178359 -362.55302547 29.43045414 -360.11328125 36.4296875 C-357.10096695 45.46107556 -354.43197383 54.55925434 -351.92578125 63.7421875 C-351.59698975 64.94665527 -351.26819824 66.15112305 -350.92944336 67.39208984 C-350.00838785 70.77877266 -349.09192533 74.16667343 -348.17578125 77.5546875 C-347.17738453 81.22179216 -346.1768462 84.88831042 -345.17578125 88.5546875 C-344.51578125 88.5546875 -343.85578125 88.5546875 -343.17578125 88.5546875 C-343.50578125 90.2046875 -343.83578125 91.8546875 -344.17578125 93.5546875 C-345.47585463 90.95454074 -346.45334783 88.27178823 -347.48828125 85.5546875 C-349.07898308 81.39403676 -350.6916585 77.24597 -352.36328125 73.1171875 C-353.76690444 69.6337016 -355.04420372 66.13801635 -356.17578125 62.5546875 C-357.35731526 66.00720894 -356.97865087 68.13848669 -355.953125 71.60546875 C-355.6646167 72.60352539 -355.3761084 73.60158203 -355.07885742 74.62988281 C-354.76021729 75.69819336 -354.44157715 76.76650391 -354.11328125 77.8671875 C-353.46030271 80.11792857 -352.80930723 82.36924577 -352.16015625 84.62109375 C-351.82822266 85.76852051 -351.49628906 86.91594727 -351.15429688 88.09814453 C-349.36025403 94.4354845 -347.74401852 100.81901054 -346.13061523 107.2043457 C-345.04403937 111.45228705 -343.94397191 115.52953803 -342.17578125 119.5546875 C-340.71739797 123.18688736 -339.39043087 126.83353632 -338.17578125 130.5546875 C-337.9128125 131.31136719 -337.64984375 132.06804687 -337.37890625 132.84765625 C-336.76130177 135.41632942 -336.61819887 136.9526364 -337.17578125 139.5546875 C-339.30571876 142.99666652 -341.57409615 145.94534485 -344.171875 149.05078125 C-346.38406244 151.28042871 -346.38406244 151.28042871 -346.17578125 153.5546875 C-347.16578125 153.5546875 -348.15578125 153.5546875 -349.17578125 153.5546875 C-348.88703125 152.89082031 -348.59828125 152.22695312 -348.30078125 151.54296875 C-347.92953125 150.65996094 -347.55828125 149.77695313 -347.17578125 148.8671875 C-346.61890625 147.56201172 -346.61890625 147.56201172 -346.05078125 146.23046875 C-345.15707637 143.4974873 -345.01128449 141.40767816 -345.17578125 138.5546875 C-351.72970349 144.11559122 -356.43170618 152.46175545 -359.17578125 160.5546875 C-358.888382 162.79709532 -358.888382 162.79709532 -358.17578125 164.5546875 C-357.51578125 164.5546875 -356.85578125 164.5546875 -356.17578125 164.5546875 C-355.15711896 162.89936127 -354.15767312 161.23208612 -353.17578125 159.5546875 C-352.51578125 159.2246875 -351.85578125 158.8946875 -351.17578125 158.5546875 C-351.53929687 159.20953125 -351.9028125 159.864375 -352.27734375 160.5390625 C-353.92766062 163.53502236 -355.55327444 166.54358218 -357.17578125 169.5546875 C-357.91248047 170.89080078 -357.91248047 170.89080078 -358.6640625 172.25390625 C-362.02223642 178.59913514 -364.62896625 185.12136092 -367.05078125 191.8671875 C-367.36136475 192.71531006 -367.67194824 193.56343262 -367.99194336 194.43725586 C-369.70692848 199.36401974 -370.34121075 203.28639406 -370.17578125 208.5546875 C-370.83203125 211.42578125 -370.83203125 211.42578125 -371.67578125 213.9921875 C-371.95421875 214.85714844 -372.23265625 215.72210938 -372.51953125 216.61328125 C-372.73609375 217.25394531 -372.95265625 217.89460937 -373.17578125 218.5546875 C-372.51578125 218.5546875 -371.85578125 218.5546875 -371.17578125 218.5546875 C-371.35753906 219.84717407 -371.35753906 219.84717407 -371.54296875 221.16577148 C-371.99513183 224.40243305 -372.44174129 227.63976535 -372.88476562 230.87768555 C-373.07659985 232.27154147 -373.27056083 233.66510659 -373.46679688 235.05834961 C-374.52557539 242.58594073 -375.44569995 249.93791916 -375.17578125 257.5546875 C-374.18578125 257.5546875 -373.19578125 257.5546875 -372.17578125 257.5546875 C-372.50578125 258.2146875 -372.83578125 258.8746875 -373.17578125 259.5546875 C-373.24643742 261.59523755 -373.26000101 263.63803007 -373.23828125 265.6796875 C-373.22925781 266.77539062 -373.22023438 267.87109375 -373.2109375 269 C-373.19933594 269.84304688 -373.18773437 270.68609375 -373.17578125 271.5546875 C-374.41714844 271.81378906 -375.65851563 272.07289063 -376.9375 272.33984375 C-382.70304834 273.62346005 -388.33675438 275.2825734 -393.98828125 276.9921875 C-395.01115234 277.29189453 -396.03402344 277.59160156 -397.08789062 277.90039062 C-398.07208984 278.19751953 -399.05628906 278.49464844 -400.0703125 278.80078125 C-401.39832886 279.19801392 -401.39832886 279.19801392 -402.75317383 279.60327148 C-405.28061647 280.5958588 -407.09170528 281.83082219 -409.17578125 283.5546875 C-405.65872167 282.90197194 -402.28253048 282.04075726 -398.86328125 280.9921875 C-397.98027344 280.72277344 -397.09726562 280.45335937 -396.1875 280.17578125 C-395.19169922 279.86833984 -395.19169922 279.86833984 -394.17578125 279.5546875 C-394.17578125 280.2146875 -394.17578125 280.8746875 -394.17578125 281.5546875 C-393.51578125 281.5546875 -392.85578125 281.5546875 -392.17578125 281.5546875 C-392.17578125 282.5446875 -392.17578125 283.5346875 -392.17578125 284.5546875 C-393.82578125 284.8846875 -395.47578125 285.2146875 -397.17578125 285.5546875 C-396.68078125 287.0396875 -396.68078125 287.0396875 -396.17578125 288.5546875 C-397.16578125 288.8228125 -398.15578125 289.0909375 -399.17578125 289.3671875 C-401.85285933 290.12363642 -404.40734457 291.01915893 -406.98828125 292.0546875 C-411.59419133 293.83732853 -416.32330979 294.70948243 -421.17578125 295.5546875 C-421.17578125 296.2146875 -421.17578125 296.8746875 -421.17578125 297.5546875 C-417.70636579 297.09646282 -414.50183076 296.66337067 -411.17578125 295.5546875 C-411.17578125 296.5446875 -411.17578125 297.5346875 -411.17578125 298.5546875 C-410.51578125 298.5546875 -409.85578125 298.5546875 -409.17578125 298.5546875 C-409.17578125 299.2146875 -409.17578125 299.8746875 -409.17578125 300.5546875 C-410.43390625 300.8846875 -411.69203125 301.2146875 -412.98828125 301.5546875 C-421.65199533 304.12496447 -429.89548365 307.96791861 -438.17578125 311.5546875 C-434.57104605 312.7562659 -433.60156676 312.25179468 -430.08984375 311.0078125 C-429.08348877 310.65895996 -428.07713379 310.31010742 -427.0402832 309.95068359 C-425.97124756 309.57250488 -424.90221191 309.19432617 -423.80078125 308.8046875 C-416.43710798 306.27124163 -409.21038269 303.91213814 -401.578125 302.32421875 C-390.23155337 299.75788739 -378.81839864 296.50503429 -368.0390625 292.12109375 C-366.17578125 291.5546875 -366.17578125 291.5546875 -364.17578125 292.5546875 C-363.68078125 294.0396875 -363.68078125 294.0396875 -363.17578125 295.5546875 C-363.83578125 295.5546875 -364.49578125 295.5546875 -365.17578125 295.5546875 C-365.17578125 296.5446875 -365.17578125 297.5346875 -365.17578125 298.5546875 C-366.01882813 298.74804688 -366.861875 298.94140625 -367.73046875 299.140625 C-368.82617188 299.40101563 -369.921875 299.66140625 -371.05078125 299.9296875 C-372.68660156 300.31253906 -372.68660156 300.31253906 -374.35546875 300.703125 C-377.2798658 301.34374965 -377.2798658 301.34374965 -379.17578125 303.5546875 C-375.90392572 304.62779608 -373.74630533 304.44731852 -370.42578125 303.6171875 C-369.6265625 303.42253906 -368.82734375 303.22789062 -368.00390625 303.02734375 C-367.400625 302.87136719 -366.79734375 302.71539062 -366.17578125 302.5546875 C-364.81835832 305.3864995 -363.4645436 308.2199358 -362.11328125 311.0546875 C-361.7056958 311.90659668 -361.29811035 312.75850586 -360.87817383 313.63623047 C-358.88177041 317.83815833 -356.94002781 322.0450905 -355.16015625 326.34375 C-354.854729 327.07658203 -354.54930176 327.80941406 -354.23461914 328.56445312 C-353.6634274 329.95106148 -353.10481894 331.34293526 -352.56030273 332.74023438 C-351.17795904 336.29835748 -351.17795904 336.29835748 -348.2265625 338.484375 C-346.21068374 338.55349084 -344.19284451 338.5546875 -342.17578125 338.5546875 C-341.51578125 339.8746875 -340.85578125 341.1946875 -340.17578125 342.5546875 C-341.16578125 342.2246875 -342.15578125 341.8946875 -343.17578125 341.5546875 C-342.74265625 342.4209375 -342.74265625 342.4209375 -342.30078125 343.3046875 C-341.59656528 344.71311945 -340.90662657 346.12888414 -340.23828125 347.5546875 C-339.21525277 349.61687549 -339.21525277 349.61687549 -337.67578125 351.4921875 C-336.17578125 353.5546875 -336.17578125 353.5546875 -335.48828125 355.8671875 C-333.73667349 359.4538129 -331.16968997 361.3313797 -328.1328125 363.859375 C-325.8094093 365.8720636 -324.03742791 368.11528843 -322.17578125 370.5546875 C-321.33015625 371.4003125 -320.48453125 372.2459375 -319.61328125 373.1171875 C-317.17578125 375.5546875 -317.17578125 375.5546875 -315.80078125 377.6796875 C-313.36941486 380.48511026 -310.64126466 381.37889849 -307.17578125 382.5546875 C-306.18578125 382.2246875 -305.19578125 381.8946875 -304.17578125 381.5546875 C-304.17578125 382.2146875 -304.17578125 382.8746875 -304.17578125 383.5546875 C-302.35207915 385.0567334 -300.46464358 386.48184919 -298.55078125 387.8671875 C-295.35621137 390.19015251 -292.28379149 392.46145915 -289.29296875 395.04296875 C-285.78626103 398.00243672 -281.92436513 400.20336973 -277.92578125 402.4296875 C-277.20648438 402.84476562 -276.4871875 403.25984375 -275.74609375 403.6875 C-273.92543247 404.71034342 -272.05361327 405.6410338 -270.17578125 406.5546875 C-269.51578125 406.2246875 -268.85578125 405.8946875 -268.17578125 405.5546875 C-268.93375 404.93980469 -268.93375 404.93980469 -269.70703125 404.3125 C-270.6815625 403.50425781 -270.6815625 403.50425781 -271.67578125 402.6796875 C-272.32546875 402.14601563 -272.97515625 401.61234375 -273.64453125 401.0625 C-274.14984375 400.56492187 -274.65515625 400.06734375 -275.17578125 399.5546875 C-275.17578125 398.8946875 -275.17578125 398.2346875 -275.17578125 397.5546875 C-274.59199707 397.84190674 -274.00821289 398.12912598 -273.40673828 398.42504883 C-270.70853651 399.74698125 -268.00475659 401.0571078 -265.30078125 402.3671875 C-264.38296875 402.81900391 -263.46515625 403.27082031 -262.51953125 403.73632812 C-257.17392688 406.31501756 -251.97261842 408.38564083 -246.22851562 409.89770508 C-243.33402867 410.82409237 -241.82239261 412.00992449 -240.17578125 414.5546875 C-240.17578125 416.22135417 -240.17578125 417.88802083 -240.17578125 419.5546875 C-238.61796963 423.84245054 -236.705336 427.76035537 -234.17578125 431.5546875 C-233.18578125 431.5546875 -232.19578125 431.5546875 -231.17578125 431.5546875 C-230.83086675 432.88507199 -230.50061543 434.21925811 -230.17578125 435.5546875 C-229.80453125 436.6375 -229.80453125 436.6375 -229.42578125 437.7421875 C-229.0998881 441.40848545 -230.21822086 443.9790458 -231.47265625 447.39453125 C-232.27574003 449.86178308 -232.4254484 451.97479363 -232.17578125 454.5546875 C-231.51578125 454.2246875 -230.85578125 453.8946875 -230.17578125 453.5546875 C-229.76848897 451.23312153 -229.43139448 448.8978088 -229.17578125 446.5546875 C-228.18578125 446.8846875 -227.19578125 447.2146875 -226.17578125 447.5546875 C-226.21058594 448.25335938 -226.24539062 448.95203125 -226.28125 449.671875 C-226.30832031 450.58195312 -226.33539063 451.49203125 -226.36328125 452.4296875 C-226.39808594 453.33460938 -226.43289062 454.23953125 -226.46875 455.171875 C-226.32373047 456.35136719 -226.32373047 456.35136719 -226.17578125 457.5546875 C-225.18578125 458.2146875 -224.19578125 458.8746875 -223.17578125 459.5546875 C-222.38137053 457.68084847 -221.59038151 455.80555864 -220.80078125 453.9296875 C-220.35992187 452.88554687 -219.9190625 451.84140625 -219.46484375 450.765625 C-217.16281127 445.03147136 -215.51510718 439.20808304 -213.95703125 433.23828125 C-213.17578125 430.5546875 -213.17578125 430.5546875 -212.12109375 427.921875 C-211.01764704 425.15869853 -210.58584177 422.49345457 -210.17578125 419.5546875 C-209.18578125 419.2246875 -208.19578125 418.8946875 -207.17578125 418.5546875 C-207.50578125 421.5246875 -207.83578125 424.4946875 -208.17578125 427.5546875 C-206.85578125 427.2246875 -205.53578125 426.8946875 -204.17578125 426.5546875 C-203.83546875 424.6675 -203.83546875 424.6675 -203.48828125 422.7421875 C-202.96558589 419.84360412 -202.52422498 418.83002637 -200.18359375 416.98046875 C-196.14388764 415.06554313 -192.02477691 413.80182908 -187.73828125 412.5546875 C-186.39540039 412.15515869 -186.39540039 412.15515869 -185.02539062 411.74755859 C-180.10204799 410.30996375 -175.22472165 409.10642984 -170.17578125 408.1796875 C-163.25450571 406.81504403 -157.00227009 404.24034443 -150.51904297 401.53442383 C-145.6533151 399.50991846 -140.87704319 397.7827394 -135.80078125 396.3671875 C-132.25196871 395.34808758 -129.69895561 394.5161763 -126.98828125 391.9921875 C-123.13378478 388.65162389 -119.06224772 387.74250445 -114.17578125 386.5546875 C-114.83578125 386.2246875 -115.49578125 385.8946875 -116.17578125 385.5546875 C-113.70398135 379.95194106 -109.17228668 377.65977132 -104.17578125 374.5546875 C-98.99031438 371.2487426 -94.34179367 368.09942832 -90.17578125 363.5546875 C-89.51578125 362.8946875 -88.85578125 362.2346875 -88.17578125 361.5546875 C-88.50578125 360.5646875 -88.83578125 359.5746875 -89.17578125 358.5546875 C-88.44359375 358.33425781 -87.71140625 358.11382812 -86.95703125 357.88671875 C-83.49936311 356.23072881 -82.00341333 354.27056798 -79.67578125 351.2421875 C-77.38036763 348.27997239 -75.16994831 345.54903183 -72.4765625 342.9375 C-70.3343673 340.71892772 -69.4951491 339.67175663 -68.86328125 336.7421875 C-68.52296875 335.164375 -68.52296875 335.164375 -68.17578125 333.5546875 C-71.70101229 336.80532811 -71.70101229 336.80532811 -74.23828125 340.8046875 C-74.54765625 341.3821875 -74.85703125 341.9596875 -75.17578125 342.5546875 C-77.234375 343.1640625 -77.234375 343.1640625 -79.17578125 343.5546875 C-77.24867582 339.4863538 -75.51367616 335.98788611 -72.73828125 332.4296875 C-69.57077729 328.17425664 -68.2309115 323.33029251 -66.55078125 318.34765625 C-65.2303971 314.56028965 -63.55623066 310.96961182 -61.80078125 307.3671875 C-56.69091911 296.80286751 -52.82992253 285.69536213 -49.17578125 274.5546875 C-50.49578125 274.8846875 -51.81578125 275.2146875 -53.17578125 275.5546875 C-53.17578125 276.2146875 -53.17578125 276.8746875 -53.17578125 277.5546875 C-53.83578125 277.5546875 -54.49578125 277.5546875 -55.17578125 277.5546875 C-54.94503906 276.87148438 -54.71429688 276.18828125 -54.4765625 275.484375 C-52.06176848 268.0204662 -50.15906085 260.51550916 -48.42578125 252.8671875 C-48.09187378 251.39644775 -48.09187378 251.39644775 -47.7512207 249.89599609 C-46.61617068 245.26817966 -46.61617068 245.26817966 -46.17578125 240.5546875 C-46.83578125 240.5546875 -47.49578125 240.5546875 -48.17578125 240.5546875 C-47.84578125 237.5846875 -47.51578125 234.6146875 -47.17578125 231.5546875 C-47.83578125 231.2246875 -48.49578125 230.8946875 -49.17578125 230.5546875 C-48.51578125 226.5946875 -47.85578125 222.6346875 -47.17578125 218.5546875 C-44.94828125 218.1525 -44.94828125 218.1525 -42.67578125 217.7421875 C-38.71527476 216.95562537 -35.18837135 215.86449806 -31.46484375 214.33984375 C-27.36559541 212.93378758 -23.08525886 212.21805402 -18.8359375 211.3984375 C-17.95808594 211.12 -17.08023437 210.8415625 -16.17578125 210.5546875 C-15.84578125 209.5646875 -15.51578125 208.5746875 -15.17578125 207.5546875 C-18.92139197 205.06070413 -21.60028894 205.64781914 -25.92578125 206.3671875 C-31.6524558 207.25811477 -37.32629842 207.85333919 -43.11328125 208.1796875 C-43.81743164 208.21940674 -44.52158203 208.25912598 -45.24707031 208.30004883 C-46.88974577 208.38923553 -48.53273358 208.47264307 -50.17578125 208.5546875 C-50.17578125 207.5646875 -50.17578125 206.5746875 -50.17578125 205.5546875 C-49.61890625 205.49410156 -49.06203125 205.43351563 -48.48828125 205.37109375 C-43.37784668 204.80998185 -38.27578572 204.20377898 -33.17578125 203.5546875 C-33.50578125 202.8946875 -33.83578125 202.2346875 -34.17578125 201.5546875 C-40.86389467 200.06844007 -46.54948114 201.08082295 -53.17578125 202.5546875 C-53.41361328 201.57242188 -53.41361328 201.57242188 -53.65625 200.5703125 C-55.52668476 193.25391577 -58.12784995 186.45770976 -61.17578125 179.5546875 C-61.60890625 180.2146875 -62.04203125 180.8746875 -62.48828125 181.5546875 C-63.04515625 182.2146875 -63.60203125 182.8746875 -64.17578125 183.5546875 C-65.16578125 183.5546875 -66.15578125 183.5546875 -67.17578125 183.5546875 C-66.80453125 181.6365625 -66.80453125 181.6365625 -66.42578125 179.6796875 C-65.57928088 172.22578145 -69.11718681 165.64257916 -73.17578125 159.5546875 C-72.18578125 159.8846875 -71.19578125 160.2146875 -70.17578125 160.5546875 C-70.56765625 159.6678125 -70.95953125 158.7809375 -71.36328125 157.8671875 C-72.17578125 154.5546875 -72.17578125 154.5546875 -70.92578125 151.7421875 C-69.17578125 149.5546875 -69.17578125 149.5546875 -67.17578125 148.5546875 C-66.83546875 149.6375 -66.83546875 149.6375 -66.48828125 150.7421875 C-64.88808477 154.17117995 -63.11163382 156.17804494 -60.17578125 158.5546875 C-57.90055036 158.50970908 -57.90055036 158.50970908 -56.17578125 157.5546875 C-57.24726209 155.40175856 -58.32959707 153.25568105 -59.4296875 151.1171875 C-60.07744141 149.84875 -60.07744141 149.84875 -60.73828125 148.5546875 C-61.17269531 147.7090625 -61.60710937 146.8634375 -62.0546875 145.9921875 C-63.04923629 143.82982358 -63.69730404 141.87718364 -64.17578125 139.5546875 C-63.51578125 139.5546875 -62.85578125 139.5546875 -62.17578125 139.5546875 C-61.87027344 138.96945313 -61.56476563 138.38421875 -61.25 137.78125 C-55.56557543 127.11694926 -49.15567113 116.87365655 -42.72265625 106.6484375 C-42.35317871 106.05788574 -41.98370117 105.46733398 -41.60302734 104.85888672 C-40.61891329 103.28841423 -39.62806267 101.72216876 -38.63671875 100.15625 C-37.35837643 97.87984362 -36.6229508 96.1047625 -36.17578125 93.5546875 C-37.82578125 94.2146875 -39.47578125 94.8746875 -41.17578125 95.5546875 C-39.30265649 92.26195047 -37.42692684 88.97070411 -35.55078125 85.6796875 C-35.02871094 84.761875 -34.50664062 83.8440625 -33.96875 82.8984375 C-29.26095313 74.64526274 -24.5437768 66.40021945 -19.17578125 58.5546875 C-19.83578125 57.8946875 -20.49578125 57.2346875 -21.17578125 56.5546875 C-21.79066406 57.52921875 -21.79066406 57.52921875 -22.41796875 58.5234375 C-23.22621094 59.77640625 -23.22621094 59.77640625 -24.05078125 61.0546875 C-24.58445312 61.89 -25.118125 62.7253125 -25.66796875 63.5859375 C-26.16554688 64.235625 -26.663125 64.8853125 -27.17578125 65.5546875 C-27.83578125 65.5546875 -28.49578125 65.5546875 -29.17578125 65.5546875 C-28.84964844 64.98621094 -28.52351563 64.41773438 -28.1875 63.83203125 C-27.75050781 63.05988281 -27.31351562 62.28773437 -26.86328125 61.4921875 C-26.21939453 60.36103516 -26.21939453 60.36103516 -25.5625 59.20703125 C-24.23181283 56.66185777 -23.08205553 54.07772713 -21.96850586 51.43139648 C-17.61896955 41.13423429 -12.69986157 31.43918569 -6.62915039 22.04907227 C-3.6243377 17.37682176 -1.21256047 12.73921642 0.82421875 7.5546875 C0.16421875 7.2246875 -0.49578125 6.8946875 -1.17578125 6.5546875 Z M-330.17578125 81.5546875 C-329.17578125 83.5546875 -329.17578125 83.5546875 -329.17578125 83.5546875 Z M-315.17578125 102.5546875 C-314.69633495 106.77381497 -314.00953006 109.35131928 -311.17578125 112.5546875 C-311.78569016 108.99688554 -312.75414935 105.8718286 -314.17578125 102.5546875 C-314.50578125 102.5546875 -314.83578125 102.5546875 -315.17578125 102.5546875 Z M-345.17578125 136.5546875 C-344.17578125 138.5546875 -344.17578125 138.5546875 -344.17578125 138.5546875 Z M-374.17578125 218.5546875 C-373.17578125 220.5546875 -373.17578125 220.5546875 -373.17578125 220.5546875 Z M-375.17578125 221.5546875 C-374.17578125 224.5546875 -374.17578125 224.5546875 -374.17578125 224.5546875 Z M-37.17578125 233.5546875 C-38.02027936 237.35647571 -38.43489105 241.06616542 -38.7109375 244.94921875 C-38.79794922 246.15126953 -38.88496094 247.35332031 -38.97460938 248.59179688 C-39.06162109 249.83767578 -39.14863281 251.08355469 -39.23828125 252.3671875 C-39.32916016 253.63240234 -39.42003906 254.89761719 -39.51367188 256.20117188 C-39.73720137 259.31882007 -39.95780082 262.43664723 -40.17578125 265.5546875 C-34.71442945 260.0933357 -35.13554377 250.88655804 -35.10986328 243.64038086 C-35.11482693 240.61148932 -35.14028878 237.58337829 -35.17578125 234.5546875 C-35.83578125 234.2246875 -36.49578125 233.8946875 -37.17578125 233.5546875 Z M-46.17578125 262.5546875 C-45.17578125 264.5546875 -45.17578125 264.5546875 -45.17578125 264.5546875 Z M-47.17578125 265.5546875 C-46.17578125 268.5546875 -46.17578125 268.5546875 -46.17578125 268.5546875 Z M-45.17578125 274.5546875 C-44.17578125 276.5546875 -44.17578125 276.5546875 -44.17578125 276.5546875 Z M-46.17578125 278.5546875 C-46.17578125 280.2046875 -46.17578125 281.8546875 -46.17578125 283.5546875 C-45.84578125 283.5546875 -45.51578125 283.5546875 -45.17578125 283.5546875 C-45.17578125 281.9046875 -45.17578125 280.2546875 -45.17578125 278.5546875 C-45.50578125 278.5546875 -45.83578125 278.5546875 -46.17578125 278.5546875 Z M-47.17578125 283.5546875 C-46.17578125 285.5546875 -46.17578125 285.5546875 -46.17578125 285.5546875 Z M-59.17578125 315.5546875 C-59.50578125 317.2046875 -59.83578125 318.8546875 -60.17578125 320.5546875 C-59.51578125 319.8946875 -58.85578125 319.2346875 -58.17578125 318.5546875 C-58.50578125 317.5646875 -58.83578125 316.5746875 -59.17578125 315.5546875 Z M-61.17578125 320.5546875 C-62.4296379 322.31479613 -63.62911143 324.11383268 -64.80078125 325.9296875 C-65.45304687 326.92742187 -66.1053125 327.92515625 -66.77734375 328.953125 C-67.23882812 329.81164062 -67.7003125 330.67015625 -68.17578125 331.5546875 C-67.84578125 332.2146875 -67.51578125 332.8746875 -67.17578125 333.5546875 C-66.18942288 332.14301864 -65.2119687 330.72512566 -64.23828125 329.3046875 C-63.69300781 328.51578125 -63.14773438 327.726875 -62.5859375 326.9140625 C-61.27955684 324.72831757 -60.62597614 323.0393074 -60.17578125 320.5546875 C-60.50578125 320.5546875 -60.83578125 320.5546875 -61.17578125 320.5546875 Z M-346.17578125 349.5546875 C-345.17578125 351.5546875 -345.17578125 351.5546875 -345.17578125 351.5546875 Z M-344.17578125 352.5546875 C-344.46923961 355.60665439 -344.60373039 358.51149359 -344.17578125 361.5546875 C-341.98905263 363.90411396 -341.98905263 363.90411396 -339.17578125 365.5546875 C-338.55703125 366.3590625 -337.93828125 367.1634375 -337.30078125 367.9921875 C-334.60348798 371.24480585 -331.67664181 373.19833904 -328.17578125 375.5546875 C-327.51578125 375.2246875 -326.85578125 374.8946875 -326.17578125 374.5546875 C-326.90023437 373.636875 -327.6246875 372.7190625 -328.37109375 371.7734375 C-329.34785012 370.53400693 -330.32439922 369.29441299 -331.30078125 368.0546875 C-332.05367432 367.09925049 -332.05367432 367.09925049 -332.82177734 366.12451172 C-335.53112593 362.67760364 -338.20063524 359.21027792 -340.80078125 355.6796875 C-341.58453125 354.6484375 -342.36828125 353.6171875 -343.17578125 352.5546875 C-343.50578125 352.5546875 -343.83578125 352.5546875 -344.17578125 352.5546875 Z M-243.17578125 446.5546875 C-244.88213758 449.57577739 -245.56867903 452.10970135 -245.92578125 455.5546875 C-246.02375 456.4003125 -246.12171875 457.2459375 -246.22265625 458.1171875 C-246.17092553 460.8071852 -245.54962513 462.27199305 -244.17578125 464.5546875 C-243.51578125 464.2246875 -242.85578125 463.8946875 -242.17578125 463.5546875 C-240.95249051 459.88481529 -241.29557119 457.21500928 -241.61328125 453.3671875 C-241.76603516 451.45873047 -241.76603516 451.45873047 -241.921875 449.51171875 C-242.00566406 448.53589844 -242.08945313 447.56007813 -242.17578125 446.5546875 C-242.50578125 446.5546875 -242.83578125 446.5546875 -243.17578125 446.5546875 Z M-340.17578125 81.5546875 C-339.18578125 81.5546875 -338.19578125 81.5546875 -337.17578125 81.5546875 C-337.17578125 82.5446875 -337.17578125 83.5346875 -337.17578125 84.5546875 C-338.16578125 84.5546875 -339.15578125 84.5546875 -340.17578125 84.5546875 C-340.17578125 83.5646875 -340.17578125 82.5746875 -340.17578125 81.5546875 Z M-230.17578125 85.5546875 C-231.16578125 87.0396875 -231.16578125 87.0396875 -232.17578125 88.5546875 C-235.80078125 89.2421875 -235.80078125 89.2421875 -239.17578125 89.5546875 C-239.17578125 88.5646875 -239.17578125 87.5746875 -239.17578125 86.5546875 C-236.10255581 85.64410219 -233.37480764 85.46582566 -230.17578125 85.5546875 Z M-212.61328125 108.4296875 C-204.6159373 109.30552955 -196.9134366 109.69482392 -188.87890625 109.33203125 C-187.986875 109.40550781 -187.09484375 109.47898438 -186.17578125 109.5546875 C-185.18578125 111.0396875 -185.18578125 111.0396875 -184.17578125 112.5546875 C-180.75922101 112.72146032 -180.75922101 112.72146032 -177.17578125 112.5546875 C-174.86328125 112.8046875 -174.86328125 112.8046875 -173.17578125 113.5546875 C-171.4547659 116.13621052 -171.17578125 117.40386775 -171.17578125 120.5546875 C-175.92976795 119.40717347 -180.55471032 118.17206233 -185.17578125 116.5546875 C-185.17578125 117.8746875 -185.17578125 119.1946875 -185.17578125 120.5546875 C-182.31004191 122.12495563 -179.76025229 122.96924653 -176.55078125 123.5546875 C-175.679375 123.7196875 -174.80796875 123.8846875 -173.91015625 124.0546875 C-173.0078125 124.2196875 -172.10546875 124.3846875 -171.17578125 124.5546875 C-169.38309497 124.88249299 -167.5913754 125.21564009 -165.80078125 125.5546875 C-165.00929688 125.6990625 -164.2178125 125.8434375 -163.40234375 125.9921875 C-159.29195298 127.03060201 -157.56820031 127.9660589 -155.17578125 131.5546875 C-154.18578125 130.8946875 -153.19578125 130.2346875 -152.17578125 129.5546875 C-152.14044373 127.13873782 -152.14044373 127.13873782 -153.17578125 124.5546875 C-155.50461166 123.24716823 -157.50826544 122.32199469 -159.98828125 121.4296875 C-168.21493083 118.31417026 -168.21493083 118.31417026 -171.17578125 115.5546875 C-171.17578125 114.8946875 -171.17578125 114.2346875 -171.17578125 113.5546875 C-157.74642036 112.02862376 -141.93826722 123.37969685 -131.17578125 130.5546875 C-130.56476563 131.64136719 -130.56476563 131.64136719 -129.94140625 132.75 C-127.50016653 136.62789849 -124.31164487 139.37512169 -120.92578125 142.4296875 C-105.06950183 156.88781804 -105.06950183 156.88781804 -102.17578125 162.5546875 C-102.04975502 168.22586784 -105.33361438 172.83522222 -108.17578125 177.5546875 C-109.16578125 177.5546875 -110.15578125 177.5546875 -111.17578125 177.5546875 C-112.59490676 180.05331874 -114.01111965 182.55353031 -115.42578125 185.0546875 C-115.82152344 185.75078125 -116.21726562 186.446875 -116.625 187.1640625 C-119.29572155 191.89255311 -121.78226652 196.67982264 -124.17578125 201.5546875 C-125.16578125 201.5546875 -126.15578125 201.5546875 -127.17578125 201.5546875 C-127.15257812 200.78382813 -127.129375 200.01296875 -127.10546875 199.21875 C-127.08742188 198.21585937 -127.069375 197.21296875 -127.05078125 196.1796875 C-127.02757812 195.18195313 -127.004375 194.18421875 -126.98046875 193.15625 C-126.90361277 190.39206577 -126.90361277 190.39206577 -129.17578125 188.5546875 C-129.21924924 186.55515992 -129.21577325 184.55428762 -129.17578125 182.5546875 C-129.61519648 180.28902407 -129.61519648 180.28902407 -130.17578125 178.5546875 C-130.917643 184.38264644 -131.59628984 190.21494341 -132.23828125 196.0546875 C-132.32916016 196.87710938 -132.42003906 197.69953125 -132.51367188 198.546875 C-132.73488358 200.54942305 -132.95540525 202.55204731 -133.17578125 204.5546875 C-136.17578125 203.5546875 -136.17578125 203.5546875 -137.5625 201.26953125 C-137.99175781 200.35300781 -138.42101562 199.43648438 -138.86328125 198.4921875 C-139.30027344 197.57308594 -139.73726562 196.65398437 -140.1875 195.70703125 C-140.51363281 194.99675781 -140.83976563 194.28648437 -141.17578125 193.5546875 C-137.90254651 200.57311175 -136.46987632 206.81998717 -136.17578125 214.5546875 C-137.16578125 214.5546875 -138.15578125 214.5546875 -139.17578125 214.5546875 C-139.50578125 213.2346875 -139.83578125 211.9146875 -140.17578125 210.5546875 C-141.16578125 211.0496875 -141.16578125 211.0496875 -142.17578125 211.5546875 C-142.17578125 213.2046875 -142.17578125 214.8546875 -142.17578125 216.5546875 C-142.8313501 216.6997876 -143.48691895 216.8448877 -144.16235352 216.99438477 C-162.84476265 221.13188319 -181.5132173 225.32870342 -200.17578125 229.5546875 C-194.95825365 229.0101415 -189.78528466 228.38391223 -184.61328125 227.4921875 C-183.58074219 227.31558594 -182.54820312 227.13898438 -181.484375 226.95703125 C-180.72253906 226.82425781 -179.96070313 226.69148438 -179.17578125 226.5546875 C-179.17578125 227.5446875 -179.17578125 228.5346875 -179.17578125 229.5546875 C-182.92460505 230.66287328 -186.67505294 231.76546648 -190.42578125 232.8671875 C-191.46992188 233.17591797 -192.5140625 233.48464844 -193.58984375 233.80273438 C-200.74459897 235.90057927 -207.92895179 237.80150097 -215.17578125 239.5546875 C-212.20578125 239.8846875 -209.23578125 240.2146875 -206.17578125 240.5546875 C-206.17578125 241.8746875 -206.17578125 243.1946875 -206.17578125 244.5546875 C-213.10578125 246.5346875 -213.10578125 246.5346875 -220.17578125 248.5546875 C-210.13113839 245.34040179 -210.13113839 245.34040179 -205.17578125 245.5546875 C-205.30078125 247.3671875 -205.30078125 247.3671875 -206.17578125 249.5546875 C-209.23828125 251.3046875 -209.23828125 251.3046875 -212.17578125 252.5546875 C-208.87578125 252.2246875 -205.57578125 251.8946875 -202.17578125 251.5546875 C-201.84578125 252.8746875 -201.51578125 254.1946875 -201.17578125 255.5546875 C-202.49578125 256.5446875 -203.81578125 257.5346875 -205.17578125 258.5546875 C-204.11746094 258.25175781 -203.05914062 257.94882812 -201.96875 257.63671875 C-192.07558614 254.88233419 -182.1507094 252.66808938 -172.05078125 250.8046875 C-170.91406982 250.59432861 -169.7773584 250.38396973 -168.60620117 250.16723633 C-162.47259693 249.06218421 -156.37903315 248.15796358 -150.17578125 247.5546875 C-151.38670823 255.85396757 -157.30638511 262.44045246 -162.24584961 268.97265625 C-167.20408423 275.54187269 -171.13475011 281.98983576 -174.63671875 289.43359375 C-175.96601955 292.12930781 -177.3669789 294.43450428 -179.11328125 296.8671875 C-183.79009058 303.50851024 -186.8404645 311.18143652 -190.17578125 318.5546875 C-189.51578125 318.8846875 -188.85578125 319.2146875 -188.17578125 319.5546875 C-189.23670616 328.04208681 -194.81198579 335.33300793 -199.2734375 342.40625 C-201.22749687 345.53234197 -201.22749687 345.53234197 -202.796875 348.890625 C-204.17578125 351.5546875 -204.17578125 351.5546875 -206.17578125 352.5546875 C-206.38193301 354.16954295 -206.58430871 355.78495409 -206.76953125 357.40234375 C-207.41141887 360.80311375 -208.80420411 363.84702835 -210.1484375 367.0234375 C-211.0765205 369.31012109 -211.79811453 371.56340159 -212.48828125 373.9296875 C-214.41459499 379.89055834 -217.58441614 385.44023743 -221.17578125 390.5546875 C-221.83578125 390.5546875 -222.49578125 390.5546875 -223.17578125 390.5546875 C-230.09874546 376.73697494 -236.15564022 363.37377659 -239.36328125 348.1796875 C-239.84107291 344.53250579 -239.84107291 344.53250579 -242.17578125 342.5546875 C-242.30078125 339.4296875 -242.30078125 339.4296875 -242.17578125 336.5546875 C-242.50578125 337.5446875 -242.83578125 338.5346875 -243.17578125 339.5546875 C-243.83578125 339.5546875 -244.49578125 339.5546875 -245.17578125 339.5546875 C-246.16578125 336.5846875 -247.15578125 333.6146875 -248.17578125 330.5546875 C-247.18578125 330.8846875 -246.19578125 331.2146875 -245.17578125 331.5546875 C-245.21703125 330.6884375 -245.25828125 329.8221875 -245.30078125 328.9296875 C-245.17120404 325.43110282 -244.41558469 322.80917153 -243.17578125 319.5546875 C-242.51578125 319.5546875 -241.85578125 319.5546875 -241.17578125 319.5546875 C-243.10069519 305.79947128 -245.03218152 292.51908846 -250.17578125 279.5546875 C-250.50578125 279.5546875 -250.83578125 279.5546875 -251.17578125 279.5546875 C-250.41000986 283.15994828 -249.63720615 286.76366897 -248.86328125 290.3671875 C-248.54327148 291.87442383 -248.54327148 291.87442383 -248.21679688 293.41210938 C-246.91924878 299.43505651 -245.45439535 305.36612067 -243.73754883 311.28393555 C-243.17578125 313.5546875 -243.17578125 313.5546875 -243.17578125 316.5546875 C-244.16578125 316.5546875 -245.15578125 316.5546875 -246.17578125 316.5546875 C-246.48128906 315.72453125 -246.78679687 314.894375 -247.1015625 314.0390625 C-249.65889892 307.15226358 -252.26917034 300.29371839 -254.98828125 293.46875 C-255.48657542 292.21517052 -255.98486641 290.96158979 -256.4831543 289.70800781 C-257.47557243 287.21245861 -258.47569879 284.72043881 -259.47973633 282.22949219 C-259.94275146 281.06579102 -260.4057666 279.90208984 -260.8828125 278.703125 C-261.30022705 277.66333496 -261.7176416 276.62354492 -262.14770508 275.55224609 C-263.17755685 272.5495104 -263.74756223 269.69496028 -264.17578125 266.5546875 C-255.00837575 263.77701853 -245.89375903 261.12831643 -236.51953125 259.1328125 C-234.23143066 258.78273207 -234.23143066 258.78273207 -233.17578125 257.5546875 C-233.83578125 257.2246875 -234.49578125 256.8946875 -235.17578125 256.5546875 C-235.17578125 255.5646875 -235.17578125 254.5746875 -235.17578125 253.5546875 C-234.51578125 253.2246875 -233.85578125 252.8946875 -233.17578125 252.5546875 C-237.29573241 255.49300831 -240.47374164 256.00786322 -245.48828125 256.2421875 C-246.74253906 256.30792969 -247.99679688 256.37367188 -249.2890625 256.44140625 C-250.24167969 256.47878906 -251.19429687 256.51617187 -252.17578125 256.5546875 C-252.50578125 255.8946875 -252.83578125 255.2346875 -253.17578125 254.5546875 C-252.84578125 253.8946875 -252.51578125 253.2346875 -252.17578125 252.5546875 C-249.21586853 251.94182214 -246.25191538 251.59513309 -243.25390625 251.21484375 C-239.97211459 250.51100772 -237.96639984 249.37879916 -235.17578125 247.5546875 C-233.62701747 246.79678182 -232.06470627 246.06573916 -230.48828125 245.3671875 C-229.72128906 245.02300781 -228.95429688 244.67882812 -228.1640625 244.32421875 C-226.17578125 243.5546875 -226.17578125 243.5546875 -224.17578125 243.5546875 C-224.17578125 242.8946875 -224.17578125 242.2346875 -224.17578125 241.5546875 C-229.78578125 242.5446875 -235.39578125 243.5346875 -241.17578125 244.5546875 C-241.17578125 243.2346875 -241.17578125 241.9146875 -241.17578125 240.5546875 C-236.68095707 236.92982929 -229.94666284 234.5546875 -224.17578125 234.5546875 C-224.17578125 233.5646875 -224.17578125 232.5746875 -224.17578125 231.5546875 C-225.07820557 231.76150146 -225.98062988 231.96831543 -226.91040039 232.18139648 C-230.28505306 232.95335885 -233.66026905 233.72276013 -237.03588867 234.49047852 C-238.49184874 234.82214883 -239.94758256 235.15481404 -241.40307617 235.48852539 C-243.50509708 235.97028352 -245.6079278 236.44836037 -247.7109375 236.92578125 C-248.97301025 237.21380615 -250.23508301 237.50183105 -251.53540039 237.79858398 C-255.08351143 238.53552315 -258.58511022 239.08334871 -262.17578125 239.5546875 C-262.17578125 238.5646875 -262.17578125 237.5746875 -262.17578125 236.5546875 C-260.85578125 236.5546875 -259.53578125 236.5546875 -258.17578125 236.5546875 C-258.08167969 235.9771875 -257.98757813 235.3996875 -257.890625 234.8046875 C-257.01505133 232.04878348 -255.71100213 230.6545484 -253.73828125 228.5546875 C-251.35277879 226.00483936 -249.59721088 223.75468988 -248.17578125 220.5546875 C-248.91183594 221.15796875 -249.64789063 221.76125 -250.40625 222.3828125 C-251.38207031 223.18203125 -252.35789063 223.98125 -253.36328125 224.8046875 C-254.80767578 225.98804688 -254.80767578 225.98804688 -256.28125 227.1953125 C-257.23644531 227.97390625 -258.19164062 228.7525 -259.17578125 229.5546875 C-260.07941406 230.31265625 -260.98304688 231.070625 -261.9140625 231.8515625 C-264.17578125 233.5546875 -264.17578125 233.5546875 -266.17578125 233.5546875 C-265.56012293 229.55290842 -263.40282295 226.85933002 -261.17578125 223.5546875 C-261.17578125 222.8946875 -261.17578125 222.2346875 -261.17578125 221.5546875 C-262.16578125 221.5546875 -263.15578125 221.5546875 -264.17578125 221.5546875 C-264.60890625 222.5034375 -265.04203125 223.4521875 -265.48828125 224.4296875 C-267.17578125 227.5546875 -267.17578125 227.5546875 -270.17578125 229.5546875 C-271.16578125 229.5546875 -272.15578125 229.5546875 -273.17578125 229.5546875 C-274.04266984 226.65558466 -274.22163745 224.44015919 -273.8359375 221.4453125 C-273.752229 220.76500977 -273.66852051 220.08470703 -273.58227539 219.38378906 C-273.46875732 218.53268555 -273.35523926 217.68158203 -273.23828125 216.8046875 C-272.71234375 212.7209375 -272.71234375 212.7209375 -272.17578125 208.5546875 C-274.15578125 216.1446875 -276.13578125 223.7346875 -278.17578125 231.5546875 C-279.16578125 231.5546875 -280.15578125 231.5546875 -281.17578125 231.5546875 C-281.39492188 230.75546875 -281.6140625 229.95625 -281.83984375 229.1328125 C-283.90603362 221.97674028 -286.45586336 215.56720915 -290.00390625 209.015625 C-291.17578125 206.5546875 -291.17578125 206.5546875 -291.17578125 203.5546875 C-290.18578125 203.5546875 -289.19578125 203.5546875 -288.17578125 203.5546875 C-285.98828125 206.5546875 -285.98828125 206.5546875 -284.17578125 209.5546875 C-284.7998767 207.51274415 -285.42509954 205.47114535 -286.05078125 203.4296875 C-286.39882813 202.29273438 -286.746875 201.15578125 -287.10546875 199.984375 C-288.09078446 196.82704946 -289.12466961 193.69057657 -290.17578125 190.5546875 C-290.56765625 189.2965625 -290.95953125 188.0384375 -291.36328125 186.7421875 C-293.13451473 181.41050499 -295.31970784 176.25725931 -297.48046875 171.07495117 C-299.77331415 165.56837336 -301.92933814 160.0194314 -304.04296875 154.44140625 C-305.39823714 150.98780853 -306.90046084 147.61950055 -308.4765625 144.26171875 C-309.17578125 142.5546875 -309.17578125 142.5546875 -309.17578125 140.5546875 C-307.42578125 138.8671875 -307.42578125 138.8671875 -305.17578125 137.5546875 C-302.98828125 137.7421875 -302.98828125 137.7421875 -301.17578125 138.5546875 C-300.84578125 139.2146875 -300.51578125 139.8746875 -300.17578125 140.5546875 C-299.58410156 140.07257813 -298.99242187 139.59046875 -298.3828125 139.09375 C-297.59261719 138.46210938 -296.80242187 137.83046875 -295.98828125 137.1796875 C-295.21097656 136.55320313 -294.43367187 135.92671875 -293.6328125 135.28125 C-291.17578125 133.5546875 -291.17578125 133.5546875 -288.82421875 132.65625 C-285.10114041 131.10771299 -282.17972571 128.7399116 -278.98828125 126.3046875 C-268.92789846 118.79757733 -258.76852497 111.80577974 -246.17578125 109.5546875 C-245.68078125 110.5446875 -245.68078125 110.5446875 -245.17578125 111.5546875 C-243.00837856 111.26854164 -240.84188859 110.97547947 -238.67578125 110.6796875 C-236.8659375 110.43605469 -236.8659375 110.43605469 -235.01953125 110.1875 C-231.14534693 109.63108914 -231.14534693 109.63108914 -227.3671875 108.4296875 C-222.36232677 107.13213101 -217.68772754 107.81244128 -212.61328125 108.4296875 Z M-298.17578125 148.5546875 C-296.16457279 161.02417996 -292.36309965 172.66284071 -288.17578125 184.5546875 C-286.69078125 184.0596875 -286.69078125 184.0596875 -285.17578125 183.5546875 C-285.62438621 176.9377643 -287.08472259 171.15836838 -289.12890625 164.85546875 C-290.40222867 160.84070216 -291.44780136 156.78533613 -292.46484375 152.69921875 C-293.05785739 150.37349131 -293.05785739 150.37349131 -295.17578125 148.5546875 C-296.16578125 148.5546875 -297.15578125 148.5546875 -298.17578125 148.5546875 Z M-192.17578125 319.5546875 C-191.17578125 321.5546875 -191.17578125 321.5546875 -191.17578125 321.5546875 Z M-193.17578125 321.5546875 C-192.17578125 324.5546875 -192.17578125 324.5546875 -192.17578125 324.5546875 Z M-194.17578125 324.5546875 C-194.83578125 325.8746875 -195.49578125 327.1946875 -196.17578125 328.5546875 C-195.18578125 328.5546875 -194.19578125 328.5546875 -193.17578125 328.5546875 C-193.50578125 327.2346875 -193.83578125 325.9146875 -194.17578125 324.5546875 Z M-140.17578125 111.5546875 C-139.18578125 111.5546875 -138.19578125 111.5546875 -137.17578125 111.5546875 C-137.17578125 112.5446875 -137.17578125 113.5346875 -137.17578125 114.5546875 C-138.16578125 114.5546875 -139.15578125 114.5546875 -140.17578125 114.5546875 C-140.17578125 113.5646875 -140.17578125 112.5746875 -140.17578125 111.5546875 Z M-298.17578125 132.5546875 C-297.18578125 132.5546875 -296.19578125 132.5546875 -295.17578125 132.5546875 C-295.17578125 133.5446875 -295.17578125 134.5346875 -295.17578125 135.5546875 C-296.49578125 135.8846875 -297.81578125 136.2146875 -299.17578125 136.5546875 C-298.84578125 135.2346875 -298.51578125 133.9146875 -298.17578125 132.5546875 Z M-110.17578125 145.5546875 C-109.18578125 145.8846875 -108.19578125 146.2146875 -107.17578125 146.5546875 C-107.17578125 147.2146875 -107.17578125 147.8746875 -107.17578125 148.5546875 C-108.16578125 148.5546875 -109.15578125 148.5546875 -110.17578125 148.5546875 C-110.17578125 147.5646875 -110.17578125 146.5746875 -110.17578125 145.5546875 Z M-103.17578125 154.5546875 C-102.18578125 154.5546875 -101.19578125 154.5546875 -100.17578125 154.5546875 C-100.17578125 155.2146875 -100.17578125 155.8746875 -100.17578125 156.5546875 C-99.51578125 156.5546875 -98.85578125 156.5546875 -98.17578125 156.5546875 C-98.83578125 158.5346875 -99.49578125 160.5146875 -100.17578125 162.5546875 C-101.16578125 162.2246875 -102.15578125 161.8946875 -103.17578125 161.5546875 C-102.89734375 160.6575 -102.89734375 160.6575 -102.61328125 159.7421875 C-101.95484438 157.39059988 -101.95484438 157.39059988 -103.17578125 154.5546875 Z M-328.17578125 165.5546875 C-327.18578125 165.5546875 -326.19578125 165.5546875 -325.17578125 165.5546875 C-325.17578125 166.5446875 -325.17578125 167.5346875 -325.17578125 168.5546875 C-324.51578125 168.5546875 -323.85578125 168.5546875 -323.17578125 168.5546875 C-318.52680845 180.92019302 -314.12619248 193.56935437 -312.8671875 206.796875 C-311.78842041 212.66000463 -309.30853032 217.88872983 -306.97070312 223.34765625 C-306.61427734 224.20230469 -306.25785156 225.05695313 -305.890625 225.9375 C-305.5618335 226.70465332 -305.23304199 227.47180664 -304.89428711 228.26220703 C-303.64787442 232.23903856 -304.08674139 235.606918 -305.17578125 239.5546875 C-305.17578125 240.2146875 -305.17578125 240.8746875 -305.17578125 241.5546875 C-306.16578125 241.5546875 -307.15578125 241.5546875 -308.17578125 241.5546875 C-308.83578125 240.5646875 -309.49578125 239.5746875 -310.17578125 238.5546875 C-312.23503264 237.83086283 -312.23503264 237.83086283 -314.17578125 237.5546875 C-312.89954006 241.18941828 -312.89954006 241.18941828 -310.55078125 244.1796875 C-310.09703125 244.6334375 -309.64328125 245.0871875 -309.17578125 245.5546875 C-309.17578125 246.5446875 -309.17578125 247.5346875 -309.17578125 248.5546875 C-310.56603516 248.95300781 -310.56603516 248.95300781 -311.984375 249.359375 C-313.18191406 249.71257812 -314.37945312 250.06578125 -315.61328125 250.4296875 C-316.80824219 250.77773438 -318.00320313 251.12578125 -319.234375 251.484375 C-322.29269156 252.2155166 -322.29269156 252.2155166 -323.17578125 254.5546875 C-321.69078125 255.0496875 -321.69078125 255.0496875 -320.17578125 255.5546875 C-320.41650391 257.44824219 -320.41650391 257.44824219 -321.17578125 259.5546875 C-322.98583984 260.55957031 -322.98583984 260.55957031 -325.32421875 261.2578125 C-326.1646875 261.515625 -327.00515625 261.7734375 -327.87109375 262.0390625 C-328.75539063 262.29171875 -329.6396875 262.544375 -330.55078125 262.8046875 C-331.865625 263.206875 -331.865625 263.206875 -333.20703125 263.6171875 C-339.67195472 265.5546875 -339.67195472 265.5546875 -343.17578125 265.5546875 C-346.99644294 227.82057267 -346.99644294 227.82057267 -341.61328125 218.9921875 C-339.58037572 215.54508682 -339.51228758 212.52546219 -339.17578125 208.5546875 C-339.50578125 209.2146875 -339.83578125 209.8746875 -340.17578125 210.5546875 C-341.16578125 210.5546875 -342.15578125 210.5546875 -343.17578125 210.5546875 C-343.83578125 213.5246875 -344.49578125 216.4946875 -345.17578125 219.5546875 C-346.16578125 219.5546875 -347.15578125 219.5546875 -348.17578125 219.5546875 C-346.73565056 205.96736747 -340.859137 195.29168449 -334.17578125 183.5546875 C-334.83578125 183.5546875 -335.49578125 183.5546875 -336.17578125 183.5546875 C-336.50578125 184.5446875 -336.83578125 185.5346875 -337.17578125 186.5546875 C-338.16578125 186.2246875 -339.15578125 185.8946875 -340.17578125 185.5546875 C-331.8022708 169.66877228 -331.8022708 169.66877228 -328.17578125 165.5546875 Z M-339.17578125 259.5546875 C-336.3875447 260.5873677 -335.30805385 260.59978043 -332.42578125 259.6171875 C-331.68328125 259.2665625 -330.94078125 258.9159375 -330.17578125 258.5546875 C-333.79523024 257.21415084 -335.74945292 257.93669912 -339.17578125 259.5546875 Z M-87.17578125 182.5546875 C-86.18578125 182.5546875 -85.19578125 182.5546875 -84.17578125 182.5546875 C-83.33066301 184.27812505 -82.50014771 186.00872803 -81.67578125 187.7421875 C-81.21171875 188.70511719 -80.74765625 189.66804687 -80.26953125 190.66015625 C-79.17578125 193.5546875 -79.17578125 193.5546875 -79.17578125 198.5546875 C-86.60078125 200.0396875 -86.60078125 200.0396875 -94.17578125 201.5546875 C-93.31938206 196.41629234 -92.31178379 193.26379919 -90.11328125 188.6796875 C-89.56542969 187.52726563 -89.01757812 186.37484375 -88.453125 185.1875 C-88.03160156 184.31867188 -87.61007812 183.44984375 -87.17578125 182.5546875 Z M-78.17578125 200.5546875 C-77.84578125 201.5446875 -77.51578125 202.5346875 -77.17578125 203.5546875 C-83.15622531 205.27420035 -88.98337663 206.86664254 -95.17578125 207.5546875 C-94.65234375 205.6640625 -94.65234375 205.6640625 -93.17578125 203.5546875 C-90.55690149 202.76608101 -88.22656644 202.22432171 -85.55078125 201.8046875 C-84.844375 201.67964844 -84.13796875 201.55460938 -83.41015625 201.42578125 C-81.66804683 201.119735 -79.92219461 200.83513344 -78.17578125 200.5546875 Z M-166.17578125 223.5546875 C-166.17578125 224.5446875 -166.17578125 225.5346875 -166.17578125 226.5546875 C-170.29541895 227.84712286 -173.84409808 228.81721375 -178.17578125 228.5546875 C-177.84578125 227.5646875 -177.51578125 226.5746875 -177.17578125 225.5546875 C-173.29716041 224.16423852 -170.31116122 223.5546875 -166.17578125 223.5546875 Z M-352.17578125 225.5546875 C-351.18578125 225.5546875 -350.19578125 225.5546875 -349.17578125 225.5546875 C-349.50578125 227.8646875 -349.83578125 230.1746875 -350.17578125 232.5546875 C-350.83578125 232.5546875 -351.49578125 232.5546875 -352.17578125 232.5546875 C-352.17578125 230.2446875 -352.17578125 227.9346875 -352.17578125 225.5546875 Z M-78.17578125 225.5546875 C-77.47270929 229.76057238 -76.79109062 233.96966365 -76.11328125 238.1796875 C-75.91412109 239.36949219 -75.71496094 240.55929687 -75.50976562 241.78515625 C-75.32607422 242.93886719 -75.14238281 244.09257812 -74.953125 245.28125 C-74.78031006 246.33908691 -74.60749512 247.39692383 -74.42944336 248.48681641 C-73.94873679 254.30063613 -75.56372402 258.97198585 -77.73828125 264.3046875 C-77.99714111 264.94301514 -78.25600098 265.58134277 -78.52270508 266.23901367 C-81.00171069 272.28354304 -83.71328106 278.22120065 -86.40649414 284.17236328 C-88.79435088 289.51719719 -90.80010158 294.85134885 -92.17578125 300.5546875 C-89.71396574 298.09287199 -88.40672402 294.20284458 -86.84375 291.12109375 C-85.11934256 288.46784857 -84.10090343 287.61433046 -81.17578125 286.5546875 C-85.21619788 300.94101946 -89.2083318 311.70814159 -101.18359375 321.0546875 C-107.76309759 326.55192308 -114.00487566 333.03608138 -118.17578125 340.5546875 C-116.52578125 339.8946875 -114.87578125 339.2346875 -113.17578125 338.5546875 C-113.90448991 346.20612848 -117.89736199 350.91623585 -123.6015625 355.703125 C-132.69623893 362.24466768 -143.28742467 366.64972849 -153.55078125 371.01171875 C-156.57214755 372.2977529 -159.56423554 373.62814018 -162.55078125 374.9921875 C-166.17578125 376.5546875 -166.17578125 376.5546875 -168.17578125 376.5546875 C-168.17578125 377.2146875 -168.17578125 377.8746875 -168.17578125 378.5546875 C-165.70078125 377.5646875 -165.70078125 377.5646875 -163.17578125 376.5546875 C-163.4765625 378.43359375 -163.4765625 378.43359375 -164.17578125 380.5546875 C-170.9813344 384.69139628 -181.13977241 389.5546875 -189.17578125 389.5546875 C-189.03140625 389.0390625 -188.88703125 388.5234375 -188.73828125 387.9921875 C-188.08060094 385.45235491 -188.08060094 385.45235491 -187.98828125 382.3671875 C-187.05385056 377.98255119 -185.36127095 375.49116349 -182.79296875 371.890625 C-181.20264631 369.59349259 -179.86771685 367.26678448 -178.55078125 364.8046875 C-176.71254534 361.41102121 -174.652221 358.5264152 -172.17578125 355.5546875 C-171.7375 354.80960938 -171.29921875 354.06453125 -170.84765625 353.296875 C-168.26341593 349.05823784 -165.1640801 345.22558665 -162.13671875 341.296875 C-160.04688769 338.6590081 -160.04688769 338.6590081 -159.17578125 335.5546875 C-160.16578125 336.8746875 -161.15578125 338.1946875 -162.17578125 339.5546875 C-163.66078125 339.0596875 -163.66078125 339.0596875 -165.17578125 338.5546875 C-164.89863281 337.97460938 -164.62148438 337.39453125 -164.3359375 336.796875 C-161.99296854 331.74856713 -161.99296854 331.74856713 -160.67578125 326.3671875 C-160.009466 322.61916423 -158.64170238 320.43159548 -156.17578125 317.5546875 C-153.42578125 317.1796875 -153.42578125 317.1796875 -151.17578125 317.5546875 C-150.94890625 316.5028125 -150.72203125 315.4509375 -150.48828125 314.3671875 C-149.35427857 310.38197809 -147.42543601 308.17026329 -144.17578125 305.5546875 C-143.18578125 305.5546875 -142.19578125 305.5546875 -141.17578125 305.5546875 C-141.17578125 306.5446875 -141.17578125 307.5346875 -141.17578125 308.5546875 C-141.83578125 308.5546875 -142.49578125 308.5546875 -143.17578125 308.5546875 C-143.42328125 309.2765625 -143.67078125 309.9984375 -143.92578125 310.7421875 C-145.28386776 313.79788214 -147.07961838 315.96941996 -149.17578125 318.5546875 C-149.17578125 319.2146875 -149.17578125 319.8746875 -149.17578125 320.5546875 C-145.67125375 319.58120764 -144.28720712 318.69476573 -141.98828125 315.8046875 C-140.28396562 312.74867326 -139.1347022 309.91091083 -138.17578125 306.5546875 C-138.83578125 306.5546875 -139.49578125 306.5546875 -140.17578125 306.5546875 C-139.95570544 302.92343665 -138.92320375 301.0902035 -136.5078125 298.52734375 C-132.61410099 294.10515024 -129.84971308 289.18277953 -126.98828125 284.0546875 C-126.46814453 283.14332031 -125.94800781 282.23195313 -125.41210938 281.29296875 C-122.69035314 276.47514736 -120.2299148 271.69355082 -118.17578125 266.5546875 C-120.64018491 268.84306233 -122.44820369 270.97133359 -124.30078125 273.8046875 C-124.91953125 274.7121875 -125.53828125 275.6196875 -126.17578125 276.5546875 C-126.83578125 276.5546875 -127.49578125 276.5546875 -128.17578125 276.5546875 C-128.41167969 277.2559375 -128.64757812 277.9571875 -128.890625 278.6796875 C-130.41840548 282.09745781 -132.40185936 284.62958968 -134.73828125 287.5546875 C-140.58950008 294.97611226 -145.93357111 302.6913723 -151.17578125 310.5546875 C-152.16578125 310.2246875 -153.15578125 309.8946875 -154.17578125 309.5546875 C-153.59570312 308.58789062 -153.015625 307.62109375 -152.41796875 306.625 C-151.85553467 305.68756958 -151.85553467 305.68756958 -151.28173828 304.73120117 C-150.45208115 303.34849414 -149.62232649 301.96584563 -148.79248047 300.58325195 C-147.06910654 297.71174289 -145.34619326 294.83999851 -143.62890625 291.96484375 C-138.5438372 283.45483114 -133.35240054 275.00918746 -128.17578125 266.5546875 C-128.62953125 267.0496875 -129.08328125 267.5446875 -129.55078125 268.0546875 C-131.17578125 269.5546875 -131.17578125 269.5546875 -133.17578125 269.5546875 C-132.71429689 264.63218763 -130.37187956 260.27731068 -127.17578125 256.5546875 C-126.18578125 256.5546875 -125.19578125 256.5546875 -124.17578125 256.5546875 C-124.50578125 258.5346875 -124.83578125 260.5146875 -125.17578125 262.5546875 C-124.51578125 262.8846875 -123.85578125 263.2146875 -123.17578125 263.5546875 C-123.17578125 262.8946875 -123.17578125 262.2346875 -123.17578125 261.5546875 C-121.85578125 261.5546875 -120.53578125 261.5546875 -119.17578125 261.5546875 C-119.04623047 259.76611328 -119.04623047 259.76611328 -118.9140625 257.94140625 C-118.77335743 256.37488976 -118.63136293 254.80848871 -118.48828125 253.2421875 C-118.43478516 252.45650391 -118.38128906 251.67082031 -118.32617188 250.86132812 C-117.75700847 245.04596289 -117.75700847 245.04596289 -114.87890625 242.61328125 C-113.986875 242.26394531 -113.09484375 241.91460937 -112.17578125 241.5546875 C-111.41136719 241.25304687 -110.64695312 240.95140625 -109.859375 240.640625 C-108.74755859 240.28871094 -108.74755859 240.28871094 -107.61328125 239.9296875 C-106.86949219 239.68992187 -106.12570312 239.45015625 -105.359375 239.203125 C-103.30913313 238.59428752 -101.25502118 238.05445946 -99.17578125 237.5546875 C-99.17578125 236.2346875 -99.17578125 234.9146875 -99.17578125 233.5546875 C-102.14578125 233.5546875 -105.11578125 233.5546875 -108.17578125 233.5546875 C-107.84578125 232.5646875 -107.51578125 231.5746875 -107.17578125 230.5546875 C-106.55533936 230.47428223 -105.93489746 230.39387695 -105.2956543 230.31103516 C-102.48373271 229.94200828 -99.67356324 229.56099125 -96.86328125 229.1796875 C-95.88681641 229.05335938 -94.91035156 228.92703125 -93.90429688 228.796875 C-92.96650391 228.66796875 -92.02871094 228.5390625 -91.0625 228.40625 C-90.19842529 228.29104004 -89.33435059 228.17583008 -88.4440918 228.05712891 C-84.39485376 227.16020372 -82.57879425 225.3166868 -78.17578125 225.5546875 Z M-179.17578125 381.5546875 C-176.12314461 382.53589214 -174.22841789 382.53589214 -171.17578125 381.5546875 C-171.17578125 380.8946875 -171.17578125 380.2346875 -171.17578125 379.5546875 C-174.37973541 379.5546875 -176.26977864 380.29803772 -179.17578125 381.5546875 Z M-353.17578125 235.5546875 C-352.18578125 235.5546875 -351.19578125 235.5546875 -350.17578125 235.5546875 C-350.17578125 240.1746875 -350.17578125 244.7946875 -350.17578125 249.5546875 C-350.83578125 249.5546875 -351.49578125 249.5546875 -352.17578125 249.5546875 C-353.55804141 246.79016717 -353.27103512 244.5085512 -353.23828125 241.4296875 C-353.22925781 240.33398438 -353.22023438 239.23828125 -353.2109375 238.109375 C-353.19933594 237.26632812 -353.18773437 236.42328125 -353.17578125 235.5546875 Z M-378.17578125 278.5546875 C-377.51578125 278.5546875 -376.85578125 278.5546875 -376.17578125 278.5546875 C-376.17578125 279.5446875 -376.17578125 280.5346875 -376.17578125 281.5546875 C-377.16578125 281.2246875 -378.15578125 280.8946875 -379.17578125 280.5546875 C-378.84578125 279.8946875 -378.51578125 279.2346875 -378.17578125 278.5546875 Z M-383.17578125 280.5546875 C-382.84578125 281.2146875 -382.51578125 281.8746875 -382.17578125 282.5546875 C-382.50578125 283.2146875 -382.83578125 283.8746875 -383.17578125 284.5546875 C-384.16578125 284.5546875 -385.15578125 284.5546875 -386.17578125 284.5546875 C-385.84578125 283.5646875 -385.51578125 282.5746875 -385.17578125 281.5546875 C-384.51578125 281.2246875 -383.85578125 280.8946875 -383.17578125 280.5546875 Z M-297.17578125 281.5546875 C-295.92953016 285.29344078 -296.57159314 285.99060062 -298.265625 289.44140625 C-298.72001953 290.37919922 -299.17441406 291.31699219 -299.64257812 292.28320312 C-300.12791016 293.25966797 -300.61324219 294.23613281 -301.11328125 295.2421875 C-301.59474609 296.23025391 -302.07621094 297.21832031 -302.57226562 298.23632812 C-303.76470081 300.68022994 -304.96613676 303.11926992 -306.17578125 305.5546875 C-305.18578125 305.8846875 -304.19578125 306.2146875 -303.17578125 306.5546875 C-303.50578125 308.5346875 -303.83578125 310.5146875 -304.17578125 312.5546875 C-302.5910308 309.55543408 -301.00824604 306.55514742 -299.42578125 303.5546875 C-298.760625 302.29591797 -298.760625 302.29591797 -298.08203125 301.01171875 C-295.38208879 295.88976909 -292.74592671 290.74301851 -290.17578125 285.5546875 C-285.7515892 289.20945484 -283.8339279 293.89513984 -281.48828125 298.9921875 C-281.08544922 299.83845703 -280.68261719 300.68472656 -280.26757812 301.55664062 C-278.38372144 305.58626373 -276.97043617 309.16100894 -276.17578125 313.5546875 C-275.70717753 314.89937643 -275.20831239 316.23401026 -274.67578125 317.5546875 C-273.47023575 320.54444034 -272.78967411 323.39112285 -272.17578125 326.5546875 C-269.23330658 338.70344559 -265.13108049 349.94134137 -260.1171875 361.37744141 C-258.73330677 364.57802448 -257.44471635 367.80664624 -256.17578125 371.0546875 C-255.78390625 372.055 -255.39203125 373.0553125 -254.98828125 374.0859375 C-254.17578125 376.5546875 -254.17578125 376.5546875 -254.17578125 379.5546875 C-262.82713776 377.54857585 -268.96418731 372.76628144 -275.17578125 366.5546875 C-276.22765625 366.6990625 -277.27953125 366.8434375 -278.36328125 366.9921875 C-282.17578125 366.5546875 -282.17578125 366.5546875 -283.8046875 364.875 C-284.93300846 363.3035072 -286.04934351 361.723368 -287.15625 360.13671875 C-290.78391851 355.4986358 -295.5421442 352.13775519 -300.17578125 348.5546875 C-302.23635457 346.93228207 -304.21725302 345.30148295 -306.17578125 343.5546875 C-306.17578125 342.8946875 -306.17578125 342.2346875 -306.17578125 341.5546875 C-307.66078125 342.0496875 -307.66078125 342.0496875 -309.17578125 342.5546875 C-309.17578125 343.2146875 -309.17578125 343.8746875 -309.17578125 344.5546875 C-310.16578125 344.5546875 -311.15578125 344.5546875 -312.17578125 344.5546875 C-316.4486113 339.26009375 -319.17614259 332.6355983 -321.90234375 326.44921875 C-322.61970703 324.82886719 -322.61970703 324.82886719 -323.3515625 323.17578125 C-324.3125331 320.98186724 -325.25550404 318.77997494 -326.1796875 316.5703125 C-326.62441406 315.55066406 -327.06914062 314.53101563 -327.52734375 313.48046875 C-327.91744629 312.55661377 -328.30754883 311.63275879 -328.70947266 310.6809082 C-330.02736015 308.29739609 -330.02736015 308.29739609 -332.84130859 307.74682617 C-333.61168457 307.68342041 -334.38206055 307.62001465 -335.17578125 307.5546875 C-335.85188548 305.66219931 -336.51628564 303.7655273 -337.17578125 301.8671875 C-337.73265625 300.28357422 -337.73265625 300.28357422 -338.30078125 298.66796875 C-339.11496695 295.77106694 -339.35287921 293.53768127 -339.17578125 290.5546875 C-337.85578125 290.8846875 -336.53578125 291.2146875 -335.17578125 291.5546875 C-334.84578125 290.5646875 -334.51578125 289.5746875 -334.17578125 288.5546875 C-332.65234375 287.38671875 -332.65234375 287.38671875 -330.80078125 286.3671875 C-329.89199219 285.85091797 -329.89199219 285.85091797 -328.96484375 285.32421875 C-327.17578125 284.5546875 -327.17578125 284.5546875 -324.17578125 284.5546875 C-325.56737788 288.03367908 -326.80829613 289.03521251 -330.17578125 290.5546875 C-322.65544003 289.34172924 -315.68584508 287.16642475 -308.51025391 284.67529297 C-304.74946492 283.37619995 -301.1187271 282.19216976 -297.17578125 281.5546875 Z M-333.17578125 302.5546875 C-332.17578125 304.5546875 -332.17578125 304.5546875 -332.17578125 304.5546875 Z M-332.17578125 304.5546875 C-331.17578125 306.5546875 -331.17578125 306.5546875 -331.17578125 306.5546875 Z M-254.17578125 315.5546875 C-253.18578125 315.5546875 -252.19578125 315.5546875 -251.17578125 315.5546875 C-250.66744534 316.80132081 -250.1694698 318.05218137 -249.67578125 319.3046875 C-249.39734375 320.00078125 -249.11890625 320.696875 -248.83203125 321.4140625 C-248.17578125 323.5546875 -248.17578125 323.5546875 -248.17578125 327.5546875 C-251.17578125 326.5546875 -251.17578125 326.5546875 -252.125 324.8125 C-252.36863281 324.10867188 -252.61226562 323.40484375 -252.86328125 322.6796875 C-253.11464844 321.98101562 -253.36601562 321.28234375 -253.625 320.5625 C-254.17578125 318.5546875 -254.17578125 318.5546875 -254.17578125 315.5546875 Z M-245.05078125 474.5546875 C-242.17578125 475.5546875 -242.17578125 475.5546875 -240.23828125 477.0546875 C-238.62770019 480.84428999 -238.98064226 484.63644701 -240.17578125 488.5546875 C-243.70150932 490.90517288 -245.0259177 491.21866567 -249.17578125 490.5546875 C-252.11328125 487.9296875 -252.11328125 487.9296875 -254.17578125 484.5546875 C-254.33680512 480.52909082 -253.67434142 479.11022597 -250.98828125 476.1171875 C-248.17578125 474.5546875 -248.17578125 474.5546875 -245.05078125 474.5546875 Z M-247.17578125 481.5546875 C-246.84578125 482.5446875 -246.51578125 483.5346875 -246.17578125 484.5546875 C-245.84578125 483.5646875 -245.51578125 482.5746875 -245.17578125 481.5546875 C-245.83578125 481.5546875 -246.49578125 481.5546875 -247.17578125 481.5546875 Z " fill="#FF0100" transform="translate(459.17578125,26.4453125)"/>
</svg>
