<?xml version="1.0" encoding="UTF-8"?>
<!-- Generator: visioncortex VTracer 0.6.4 -->
<svg version="1.1" xmlns="http://www.w3.org/2000/svg" width="500" height="552">
<path d="M0,0 L14,0 L33,1 L75,6 L109,11 L119,15 L120,22 L128,19 L133,18 L144,22 L161,33 L166,38 L166,44 L160,56 L152,66 L143,77 L135,86 L126,86 L115,81 L114,84 L110,87 L108,87 L108,89 L97,98 L85,109 L72,119 L59,128 L44,138 L33,146 L17,156 L16,156 L16,147 L20,130 L27,116 L31,110 L44,101 L55,92 L71,76 L78,68 L84,61 L85,53 L81,52 L45,41 L33,38 L25,37 L-1,37 L-41,41 L-44,37 L-45,33 L-53,40 L-54,41 L-69,42 L-96,48 L-116,56 L-133,65 L-144,72 L-149,76 L-151,76 L-148,66 L-140,55 L-127,42 L-102,27 L-83,18 L-66,12 L-40,5 L-9,1 Z M-240,89 L-165,91 L-40,91 L34,89 L36,90 L35,95 L25,107 L17,121 L13,132 L11,143 L11,168 L13,183 L19,202 L22,214 L27,231 L29,246 L29,258 L26,278 L20,294 L12,312 L2,331 L-6,342 L-20,356 L-34,367 L-44,373 L-55,380 L-71,388 L-88,396 L-98,400 L-102,403 L-105,403 L-108,400 L-128,391 L-144,383 L-159,375 L-174,365 L-184,357 L-196,346 L-202,339 L-209,328 L-221,305 L-231,280 L-234,265 L-234,240 L-231,224 L-226,209 L-222,194 L-218,180 L-216,157 L-217,139 L-221,125 L-228,111 L-235,102 L-242,94 L-242,90 Z M-180,126 Z M-24,126 Z M-179,127 L-177,132 L-173,137 L-167,152 L-163,161 L-160,172 L-160,176 L-164,178 L-165,187 L-160,192 L-158,193 L-156,199 L-155,206 L-148,206 L-140,204 L-121,202 L-110,201 L-93,201 L-69,203 L-57,205 L-55,206 L-48,206 L-46,196 L-45,193 L-39,189 L-38,182 L-39,178 L-43,176 L-41,164 L-37,153 L-33,144 L-28,134 L-24,127 L-29,128 L-40,135 L-50,142 L-58,146 L-64,148 L-60,153 L-58,153 L-57,157 L-57,171 L-62,179 L-67,183 L-75,185 L-72,173 L-68,168 L-70,162 L-73,155 L-77,160 L-81,165 L-83,167 L-81,172 L-81,184 L-88,183 L-93,179 L-96,174 L-96,165 L-90,155 L-88,152 L-93,148 L-100,134 L-102,127 L-103,127 L-104,137 L-110,148 L-115,153 L-111,158 L-107,166 L-107,174 L-113,182 L-118,184 L-122,184 L-122,172 L-120,166 L-125,161 L-129,155 L-131,158 L-135,166 L-133,170 L-130,175 L-128,185 L-137,182 L-143,177 L-146,170 L-146,157 L-141,150 L-139,148 L-151,143 L-163,135 L-175,127 Z M-104,207 L-130,209 L-154,214 L-158,217 L-158,222 L-155,223 L-130,219 L-122,218 L-81,218 L-53,222 L-46,223 L-45,222 L-45,217 L-49,214 L-73,209 Z M-126,224 L-142,227 L-154,229 L-160,236 L-167,247 L-170,256 L-170,264 L-166,277 L-163,282 L-153,287 L-142,289 L-135,292 L-131,300 L-130,307 L-135,302 L-137,302 L-137,300 L-143,299 L-139,314 L-137,332 L-134,341 L-127,349 L-126,347 L-126,338 L-123,330 L-118,331 L-114,332 L-110,329 L-110,331 L-105,330 L-104,326 L-99,329 L-95,332 L-91,330 L-89,332 L-85,331 L-80,330 L-77,338 L-77,349 L-72,345 L-68,339 L-65,326 L-63,312 L-61,303 L-61,299 L-66,300 L-71,306 L-73,307 L-72,296 L-70,296 L-68,292 L-61,289 L-47,286 L-39,281 L-34,269 L-33,257 L-36,246 L-47,231 L-52,228 L-72,225 L-77,224 Z M-126,349 Z M-78,349 Z M-126,241 L-121,243 L-118,246 L-116,252 L-113,258 L-113,267 L-117,271 L-129,274 L-135,277 L-141,277 L-149,271 L-152,268 L-152,257 L-149,253 L-135,247 L-130,242 Z M-78,241 L-71,243 L-66,248 L-53,254 L-51,256 L-51,268 L-60,276 L-67,277 L-76,273 L-86,271 L-90,267 L-90,258 L-87,252 L-83,244 Z M-104,267 L-100,268 L-96,275 L-96,277 L-93,278 L-89,283 L-87,289 L-87,297 L-91,299 L-94,296 L-95,292 L-101,289 L-108,292 L-110,297 L-113,299 L-116,296 L-116,289 L-113,282 L-107,275 Z M-219,326 L-217,326 L-211,337 L-204,346 L-201,349 L-201,351 L-210,357 L-223,367 L-234,378 L-241,386 L-251,397 L-253,402 L-253,406 L-243,409 L-210,419 L-195,422 L-164,422 L-135,419 L-126,419 L-124,421 L-124,427 L-113,418 L-99,417 L-71,411 L-47,401 L-26,389 L-18,383 L-17,385 L-21,395 L-27,403 L-33,410 L-35,410 L-35,412 L-45,420 L-67,433 L-84,441 L-105,448 L-127,454 L-156,458 L-165,459 L-183,459 L-210,457 L-244,453 L-277,448 L-286,444 L-288,437 L-299,442 L-301,442 L-301,440 L-308,439 L-318,433 L-325,429 L-333,423 L-334,416 L-327,402 L-316,389 L-305,375 L-303,373 L-295,373 L-286,377 L-282,376 L-271,366 L-260,357 L-249,347 L-231,334 Z " fill="#FF0100" transform="translate(334,47)"/>
</svg>
