<?xml version="1.0" encoding="UTF-8"?>
<!-- Generator: visioncortex VTracer 0.6.4 -->
<svg version="1.1" xmlns="http://www.w3.org/2000/svg" width="500" height="552">
<path d="M0,0 L32,0 L44,2 L63,10 L79,21 L87,28 L93,38 L99,50 L100,53 L100,78 L96,93 L89,109 L82,119 L75,126 L67,133 L57,141 L47,147 L31,154 L16,159 L4,161 L-24,161 L-26,160 L-27,153 L-62,152 L-61,149 L-51,142 L-38,132 L-28,125 L-26,122 L-1,121 L21,115 L34,107 L47,95 L53,83 L54,74 L51,62 L43,51 L35,45 L19,38 L10,36 L-14,36 L-27,39 L-39,44 L-49,44 L-53,42 L-55,38 L-55,30 L-53,24 L-51,24 L-49,20 L-41,14 L-29,8 L-14,3 Z M-266,41 L-254,41 L-252,43 L-250,50 L-242,57 L-218,81 L-211,89 L-201,99 L-194,107 L-187,114 L-187,115 L-203,116 L-204,117 L-204,123 L-192,133 L-182,140 L-171,148 L-168,150 L-168,152 L-191,152 L-205,137 L-212,129 L-222,118 L-231,107 L-243,94 L-250,86 L-260,75 L-267,67 L-277,61 L-277,54 L-273,46 L-268,42 Z M-159,53 L-71,53 L-71,78 L-159,78 Z M-277,74 L-272,76 L-267,79 L-268,84 L-275,100 L-282,115 L-292,137 L-303,161 L-311,181 L-316,194 L-320,202 L-333,236 L-341,260 L-345,277 L-348,293 L-354,312 L-360,341 L-362,346 L-365,349 L-372,348 L-382,339 L-382,337 L-384,337 L-395,323 L-400,317 L-400,310 L-396,297 L-392,287 L-385,271 L-377,255 L-369,238 L-361,222 L-353,206 L-344,189 L-335,174 L-327,158 L-321,147 L-310,127 L-300,110 L-287,88 L-279,77 Z M-267,82 L-263,83 L-258,90 L-259,103 L-262,123 L-263,130 L-268,156 L-271,176 L-273,199 L-277,235 L-279,266 L-279,290 L-277,308 L-276,317 L-287,324 L-298,333 L-311,343 L-314,343 L-315,336 L-315,318 L-313,283 L-309,252 L-305,225 L-303,216 L-295,174 L-288,150 L-281,125 L-277,112 L-272,93 Z M-200,83 L-29,83 L-31,87 L-37,91 L-53,103 L-65,112 L-70,116 L-159,116 L-169,108 L-185,96 L-196,88 L-200,85 Z M-200,119 L-30,119 L-32,123 L-47,134 L-63,146 L-71,152 L-159,152 L-167,146 L-186,132 L-197,124 L-200,121 Z M-200,156 L-30,156 L-31,160 L-40,166 L-56,178 L-68,187 L-71,189 L-159,189 L-175,177 L-191,165 L-200,159 Z M-200,192 L-30,192 L-31,196 L-50,210 L-63,220 L-70,225 L-70,425 L-60,433 L-44,445 L-33,453 L-30,455 L-30,457 L-200,457 L-199,454 L-193,450 L-177,438 L-165,429 L-160,425 L-160,225 L-176,213 L-195,199 L-200,195 Z M-167,226 L-164,227 L-164,271 L-171,273 L-182,284 L-185,288 L-187,288 L-187,290 L-192,295 L-222,325 L-223,327 L-225,327 L-227,331 L-264,368 L-271,376 L-292,397 L-292,408 L-294,410 L-302,409 L-314,403 L-325,393 L-332,382 L-334,378 L-333,373 L-331,371 L-320,371 L-310,362 L-304,356 L-302,356 L-302,354 L-294,347 L-284,337 L-276,330 L-263,319 L-251,307 L-243,300 L-240,297 L-238,297 L-238,295 L-236,295 L-236,293 L-234,293 L-234,291 L-226,284 L-219,278 L-214,273 L-210,271 L-208,267 L-199,259 L-194,254 L-177,237 L-170,229 Z M-67,243 L-63,245 L-51,258 L-41,268 L-34,276 L-23,287 L-16,295 L-8,303 L-8,305 L-6,305 L1,313 L11,323 L18,331 L29,342 L36,350 L48,362 L55,370 L59,375 L63,376 L65,375 L69,377 L70,384 L65,394 L55,405 L41,413 L32,416 L28,411 L29,402 L22,395 L19,390 L10,380 L3,372 L-7,361 L-16,350 L-28,337 L-37,326 L-42,321 L-42,319 L-44,319 L-53,308 L-67,293 Z M93,431 L96,432 L96,434 L94,434 Z M96,431 L100,431 L99,433 Z M82,433 L84,435 L81,435 Z M89,432 L93,432 L92,434 L85,435 L84,433 Z M75,434 L78,435 L75,436 Z M79,434 Z M70,435 L71,437 L69,436 Z M72,435 L74,436 Z M62,436 L63,438 L61,437 Z M64,436 L68,437 L64,438 Z M55,438 L57,440 L55,440 Z M57,438 Z M53,439 Z M47,440 L47,443 Z M49,440 Z M51,440 Z M41,442 L44,443 L41,443 Z M34,445 Z " fill="#FF0100" transform="translate(400,47)"/>
</svg>
