<?xml version="1.0" encoding="UTF-8"?>
<!-- Generator: visioncortex VTracer 0.6.4 -->
<svg version="1.1" xmlns="http://www.w3.org/2000/svg" width="500" height="552">
<path d="M0,0 L8,0 L14,8 L16,13 L20,19 L25,33 L25,55 L24,58 L24,65 L27,80 L27,83 L23,84 L20,82 L16,83 L15,82 L6,101 L4,113 L3,127 L3,137 L6,147 L7,151 L11,153 L16,158 L21,163 L23,149 L26,148 L31,153 L35,165 L40,152 L44,150 L47,153 L47,165 L50,174 L53,177 L53,184 L48,192 L39,202 L32,205 L22,206 L0,206 L-14,210 L-9,213 L-8,214 L-8,227 L-15,251 L-19,266 L-21,268 L-25,267 L-26,261 L-31,262 L-34,272 L-39,285 L-45,301 L-56,329 L-67,355 L-77,373 L-82,378 L-87,377 L-84,367 L-77,348 L-77,346 L-82,347 L-81,339 L-74,316 L-74,313 L-79,321 L-81,323 L-85,322 L-89,327 L-97,334 L-101,333 L-100,328 L-90,305 L-83,284 L-78,269 L-77,262 L-86,277 L-92,286 L-95,287 L-97,286 L-98,282 L-105,290 L-114,302 L-117,305 L-121,305 L-120,298 L-112,281 L-112,279 L-122,294 L-132,309 L-140,320 L-145,325 L-148,326 L-150,322 L-146,312 L-134,286 L-123,263 L-129,266 L-136,265 L-149,278 L-157,285 L-173,301 L-174,303 L-176,303 L-178,307 L-190,319 L-201,328 L-203,330 L-208,329 L-206,324 L-198,315 L-194,310 L-190,304 L-188,304 L-186,300 L-182,295 L-180,295 L-178,291 L-177,288 L-174,287 L-171,282 L-166,275 L-164,275 L-164,273 L-159,268 L-150,257 L-147,253 L-145,253 L-143,249 L-135,239 L-129,231 L-127,231 L-126,227 L-141,242 L-152,251 L-162,261 L-167,261 L-169,261 L-176,269 L-178,269 L-180,273 L-191,286 L-198,294 L-205,301 L-214,312 L-219,318 L-221,318 L-223,322 L-230,328 L-231,330 L-233,330 L-234,333 L-245,342 L-249,345 L-254,345 L-253,340 L-247,329 L-240,320 L-234,312 L-224,298 L-218,289 L-222,290 L-229,293 L-233,293 L-232,286 L-220,269 L-219,267 L-232,272 L-238,272 L-240,268 L-236,260 L-255,270 L-261,274 L-273,280 L-289,290 L-294,293 L-299,292 L-298,288 L-290,281 L-309,290 L-336,304 L-359,315 L-383,326 L-397,331 L-405,328 L-403,324 L-385,313 L-377,309 L-384,307 L-385,304 L-409,311 L-436,321 L-441,323 L-447,322 L-446,317 L-429,307 L-413,299 L-389,286 L-369,276 L-355,268 L-377,269 L-395,271 L-403,270 L-403,267 L-387,260 L-369,254 L-345,247 L-327,240 L-323,239 L-329,236 L-328,233 L-317,229 L-283,220 L-288,217 L-286,213 L-277,210 L-261,207 L-261,206 L-275,202 L-295,192 L-307,187 L-310,186 L-330,186 L-331,181 L-327,177 L-325,174 L-323,174 L-321,170 L-311,163 L-297,157 L-288,154 L-269,151 L-254,146 L-245,140 L-231,134 L-219,129 L-205,119 L-192,113 L-174,106 L-170,101 L-160,88 L-150,78 L-135,67 L-124,61 L-112,59 L-87,59 L-79,57 L-74,54 L-65,50 L-52,40 L-39,33 L-35,28 L-25,20 L-15,14 L-9,6 Z M-90,77 L-95,79 L-97,83 L-102,85 L-110,92 L-113,96 L-112,99 L-105,97 L-96,91 L-87,87 L-85,78 Z M-114,99 Z M-115,101 Z M-121,221 Z M-122,222 Z M-123,223 Z M-124,224 Z M-166,257 Z M-235,258 Z M-167,258 Z M-236,259 Z M-76,259 Z M-111,276 L-110,278 Z M-288,278 Z M-289,279 Z M-217,286 Z M-71,304 L-70,307 Z M-72,307 L-71,309 Z M-73,309 L-72,312 Z M-72,334 Z M-73,336 Z M-74,339 L-73,341 Z M-75,341 L-74,343 Z " fill="#FF0100" transform="translate(447,87)"/>
</svg>
