<?xml version="1.0" encoding="UTF-8"?>
<!-- Generator: visioncortex VTracer 0.6.4 -->
<svg version="1.1" xmlns="http://www.w3.org/2000/svg" width="500" height="552">
<path d="M0,0 L4,0 L18,42 L22,53 L41,56 L59,61 L62,61 L67,56 L76,54 L84,57 L90,64 L91,67 L91,74 L113,88 L122,95 L134,90 L175,69 L177,69 L176,75 L156,115 L151,125 L160,137 L169,152 L176,152 L183,155 L188,157 L202,160 L210,158 L214,159 L231,157 L239,155 L246,158 L247,159 L247,169 L240,188 L234,195 L231,200 L229,218 L224,233 L234,237 L252,243 L251,247 L194,266 L192,266 L188,285 L183,303 L185,307 L188,311 L189,321 L185,329 L179,333 L179,344 L182,349 L182,355 L179,360 L175,369 L168,375 L159,376 L181,419 L181,423 L175,421 L137,402 L122,395 L118,396 L96,410 L93,412 L96,415 L95,418 L91,419 L97,423 L101,428 L114,434 L121,437 L120,442 L114,444 L127,450 L136,452 L136,455 L131,459 L124,459 L113,455 L101,453 L99,452 L98,455 L96,456 L85,455 L76,451 L71,453 L66,453 L88,459 L89,462 L88,464 L78,464 L59,461 L47,460 L31,455 L18,451 L15,462 L4,495 L0,495 L-12,459 L-20,435 L-29,433 L-52,428 L-61,426 L-67,431 L-70,432 L-79,432 L-87,427 L-90,421 L-91,412 L-115,397 L-118,395 L-159,415 L-175,423 L-177,423 L-176,417 L-162,390 L-149,364 L-150,363 L-178,371 L-191,373 L-191,367 L-174,360 L-176,356 L-183,358 L-189,358 L-188,353 L-173,346 L-193,353 L-221,363 L-237,367 L-239,366 L-238,362 L-217,353 L-214,353 L-214,349 L-208,346 L-210,345 L-209,342 L-197,336 L-199,334 L-198,330 L-187,323 L-188,318 L-195,323 L-200,323 L-200,318 L-199,316 L-202,315 L-202,312 L-212,319 L-217,320 L-217,315 L-222,316 L-223,312 L-211,300 L-209,300 L-211,296 L-201,288 L-191,279 L-188,275 L-190,266 L-247,247 L-248,243 L-191,224 L-189,224 L-188,211 L-183,190 L-181,183 L-186,179 L-189,173 L-189,164 L-184,156 L-179,153 L-171,152 L-167,152 L-159,138 L-156,134 L-157,125 L-162,108 L-165,87 L-175,68 L-175,65 L-166,66 L-171,61 L-175,58 L-175,55 L-167,55 L-164,57 L-162,44 L-159,43 L-155,48 L-155,51 L-150,53 L-148,55 L-147,63 L-137,68 L-122,74 L-105,82 L-100,81 L-92,76 L-90,76 L-90,66 L-86,60 L-81,56 L-78,55 L-71,55 L-63,59 L-60,62 L-43,57 L-39,57 L-38,50 L-32,48 L-46,39 L-60,31 L-60,27 L-54,27 L-33,37 L-35,35 L-35,32 L-26,33 L-12,40 L-11,34 Z M-30,39 Z M-29,40 Z M-21,41 Z M-20,42 L-20,44 L-24,45 L-26,47 L-18,53 L-18,56 L-26,55 L-31,54 L-33,57 L-22,64 L-19,66 L-18,71 L-17,74 L-20,75 L-14,77 L-16,90 L-18,96 L-18,101 L-21,103 L-34,104 L-49,109 L-60,109 L-69,102 L-83,95 L-110,85 L-131,75 L-146,69 L-151,65 L-156,63 L-159,59 L-161,65 L-159,72 L-161,72 L-159,81 L-159,96 L-156,113 L-148,139 L-144,156 L-141,162 L-141,168 L-153,187 L-152,189 L-142,183 L-134,181 L-136,186 L-147,198 L-159,210 L-170,219 L-180,228 L-178,229 L-169,223 L-165,219 L-159,219 L-159,222 L-161,222 L-162,226 L-153,223 L-148,219 L-144,214 L-137,213 L-133,209 L-127,208 L-131,215 L-142,229 L-153,242 L-163,255 L-174,267 L-179,274 L-187,281 L-197,291 L-197,293 L-189,292 L-189,296 L-192,297 L-191,299 L-189,299 L-189,307 L-181,304 L-181,302 L-176,302 L-175,304 L-156,293 L-145,287 L-128,277 L-117,270 L-100,261 L-81,249 L-65,238 L-48,226 L-26,211 L-19,209 L-22,214 L-39,228 L-54,241 L-67,252 L-80,263 L-94,274 L-98,277 L-105,281 L-113,288 L-128,298 L-153,311 L-169,319 L-180,325 L-184,328 L-175,329 L-175,332 L-182,334 L-181,339 L-201,348 L-200,351 L-171,340 L-161,337 L-156,338 L-155,340 L-159,342 L-158,345 L-162,346 L-160,347 L-154,347 L-150,349 L-149,351 L-158,354 L-159,358 L-166,361 L-162,362 L-121,348 L-92,336 L-72,326 L-56,316 L-43,308 L-40,307 L-44,318 L-47,324 L-52,341 L-54,353 L-54,374 L-51,389 L-44,405 L-35,415 L-29,422 L-18,431 L-9,437 L26,449 L47,455 L59,456 L59,451 L63,448 L70,448 L71,447 L78,447 L84,450 L87,449 L85,448 L87,444 L93,445 L104,449 L114,450 L109,446 L100,440 L98,440 L99,437 L108,437 L105,435 L95,429 L91,424 L82,417 L72,408 L69,405 L68,402 L75,403 L70,398 L61,388 L55,377 L53,362 L60,366 L66,367 L68,371 L78,385 L85,391 L87,390 L86,386 L77,372 L73,364 L73,357 L74,355 L82,356 L94,361 L109,371 L114,374 L120,373 L127,370 L135,370 L138,371 L140,370 L150,370 L155,371 L166,371 L171,367 L176,355 L177,350 L174,343 L174,334 L175,328 L175,317 L173,315 L165,335 L157,340 L149,341 L131,337 L127,333 L126,319 L125,315 L118,325 L111,330 L106,329 L95,318 L85,303 L73,294 L52,284 L48,283 L49,275 L58,263 L67,250 L76,239 L79,237 L94,241 L110,246 L121,248 L126,248 L127,262 L128,263 L128,275 L132,273 L140,263 L148,250 L159,251 L167,252 L180,251 L181,256 L183,256 L184,265 L182,269 L183,272 L193,259 L198,251 L211,247 L217,238 L225,214 L226,202 L227,197 L236,185 L242,169 L242,161 L237,160 L230,162 L221,163 L207,163 L205,164 L194,163 L172,159 L155,157 L132,156 L132,147 L133,139 L129,134 L108,127 L84,119 L69,110 L59,102 L48,94 L34,82 L27,74 L14,62 L-3,50 L-19,42 Z M-30,49 Z M-165,67 Z M-154,189 Z M-164,226 L-168,231 L-164,229 L-162,226 Z M-181,229 Z M-182,230 Z M-169,231 Z M-171,232 L-173,236 L-169,232 Z M181,272 Z M127,275 Z M-207,306 Z M-196,306 Z M-197,307 Z M-198,308 Z M-211,309 Z M-200,309 L-201,311 L-198,310 Z M-212,310 Z M-213,311 Z M-202,311 Z M-215,312 Z M-216,313 Z M-186,328 Z M-188,329 Z M-194,334 Z M-184,335 Z M-186,336 Z M-189,337 Z M-164,347 Z M-166,348 Z M-168,349 Z M-173,354 Z M-169,362 Z M-170,363 Z M75,403 Z M76,404 Z M79,406 Z M80,407 Z M81,408 Z M82,409 Z M108,437 Z M111,442 Z M87,450 Z M115,450 Z M-91,24 L-80,26 L-64,32 L-64,35 L-69,37 L-85,32 L-91,29 L-92,26 Z M48,140 L56,140 L66,143 L72,147 L81,155 L81,158 L65,160 L52,165 L49,167 L44,166 L32,157 L18,150 L18,147 L41,141 Z M-209,365 L-204,365 L-203,369 L-214,376 L-230,381 L-242,383 L-247,383 L-248,382 L-248,377 L-246,375 L-217,367 Z M-220,372 Z M-223,373 Z M-226,374 Z M-230,375 Z M-233,376 Z M105,460 L119,460 L132,464 L135,465 L135,468 L132,470 L110,467 L102,465 L102,461 Z " fill="#FF0100" transform="translate(248,28)"/>
</svg>
