<?xml version="1.0" encoding="UTF-8"?>
<!-- Generator: visioncortex VTracer 0.6.4 -->
<svg version="1.1" xmlns="http://www.w3.org/2000/svg" width="500" height="529">
<path d="M0,0 L37,0 L43,4 L45,9 L45,16 L53,52 L58,79 L64,122 L67,154 L67,166 L74,163 L79,158 L85,149 L91,133 L96,110 L100,74 L101,54 L103,44 L110,38 L120,34 L134,32 L151,32 L170,34 L171,37 L170,55 L165,80 L158,100 L150,116 L144,127 L132,144 L119,159 L108,170 L97,179 L96,180 L109,183 L140,189 L155,194 L165,199 L175,212 L186,225 L193,228 L205,233 L215,242 L221,250 L234,270 L250,295 L264,317 L280,342 L280,348 L271,354 L263,357 L257,358 L247,358 L235,355 L220,347 L210,339 L199,330 L187,324 L179,322 L169,323 L161,327 L154,336 L139,369 L135,382 L130,390 L125,395 L118,399 L105,402 L84,405 L70,406 L49,406 L47,360 L43,313 L39,283 L33,274 L26,268 L20,265 L16,259 L16,250 L21,238 L28,228 L40,206 L42,199 L41,189 L36,176 L28,160 L16,132 L2,97 L-8,70 L-20,34 L-22,27 L-22,14 L-18,8 L-13,4 L-7,1 Z M101,218 L105,219 Z M106,219 L110,221 L132,227 L146,231 L146,235 L139,236 L117,236 L117,237 L133,241 L136,246 L136,253 L122,255 L122,256 L131,256 L140,253 L148,247 L152,241 L159,242 L168,245 L173,245 L169,242 L155,235 L152,235 L150,231 L137,224 L114,219 Z M108,237 L108,238 L113,238 L113,237 Z M101,238 L93,240 L97,244 L103,248 L105,247 L103,245 L103,241 L108,239 L108,238 Z M173,245 Z M105,248 Z M108,250 Z " fill="#FD0000" transform="translate(220,0)"/>
<path d="M0,0 L4,2 L9,8 L11,13 L11,25 L7,35 L-2,50 L-10,66 L-15,78 L-16,87 L-13,93 L0,100 L8,107 L12,143 L15,188 L17,235 L19,246 L24,258 L33,274 L42,285 L48,292 L56,299 L68,308 L83,317 L102,326 L117,331 L128,334 L129,335 L129,343 L127,350 L122,355 L112,355 L91,351 L76,346 L58,338 L44,330 L30,320 L16,308 L1,293 L-10,279 L-19,264 L-29,243 L-36,222 L-42,196 L-46,170 L-49,136 L-49,63 L-55,67 L-57,67 L-56,95 L-51,151 L-42,226 L-38,255 L-38,259 L-46,258 L-66,251 L-69,250 L-71,238 L-74,200 L-77,143 L-79,79 L-80,71 L-83,71 L-83,141 L-80,227 L-80,248 L-96,256 L-109,262 L-112,262 L-113,253 L-113,190 L-111,147 L-107,98 L-104,72 L-107,76 L-111,95 L-115,128 L-119,190 L-122,264 L-125,271 L-133,281 L-145,295 L-174,324 L-182,331 L-192,340 L-202,349 L-205,350 L-204,341 L-190,291 L-171,223 L-159,179 L-177,225 L-191,264 L-204,304 L-215,344 L-217,349 L-239,348 L-249,347 L-248,338 L-233,292 L-214,239 L-196,192 L-183,160 L-169,127 L-154,94 L-144,74 L-134,59 L-124,48 L-114,41 L-101,37 L-89,37 L-57,34 L-45,29 L-22,16 L-6,5 Z M-158,175 Z " fill="#FC0000" transform="translate(249,174)"/>
<path d="M0,0 L9,0 L7,2 L8,4 L-5,4 L-7,1 Z " fill="#C10000" transform="translate(335,235)"/>
</svg>
