<?xml version="1.0" encoding="UTF-8"?>
<!-- Generator: visioncortex VTracer 0.6.4 -->
<svg version="1.1" xmlns="http://www.w3.org/2000/svg" width="360" height="322">
<path d="M0,0 L8,1 L14,3 L22,4 L28,3 L43,11 L54,18 L67,29 L81,43 L100,57 L106,62 L115,65 L130,70 L134,71 L138,73 L144,75 L149,81 L149,89 L148,91 L162,91 L178,93 L179,94 L190,95 L194,97 L203,96 L222,94 L228,94 L229,95 L229,110 L228,113 L222,123 L218,129 L218,140 L213,155 L210,160 L207,165 L205,167 L196,169 L190,178 L181,188 L178,189 L175,186 L177,180 L178,179 L177,169 L165,169 L158,170 L149,183 L143,188 L140,189 L135,188 L137,179 L137,176 L136,174 L136,167 L126,166 L123,164 L117,163 L105,160 L94,174 L87,185 L89,187 L105,195 L115,204 L122,215 L126,219 L131,219 L133,215 L137,209 L139,209 L140,207 L143,208 L144,211 L145,225 L153,227 L163,227 L166,224 L172,210 L179,209 L181,213 L181,235 L182,242 L180,248 L178,252 L174,257 L170,258 L157,258 L153,257 L151,256 L151,258 L146,258 L142,257 L140,259 L135,260 L128,260 L114,251 L107,248 L104,249 L108,254 L115,265 L117,270 L116,275 L112,276 L104,270 L96,261 L94,256 L90,255 L96,266 L99,269 L99,271 L103,273 L117,286 L116,290 L121,296 L134,301 L135,304 L138,305 L135,309 L137,311 L143,313 L145,315 L145,320 L135,320 L129,318 L120,316 L111,319 L111,322 L89,322 L85,321 L76,320 L72,318 L62,316 L54,313 L50,312 L37,307 L27,300 L20,294 L13,286 L6,276 L5,270 L3,268 L2,259 L2,234 L4,226 L5,223 L7,217 L-4,224 L-24,234 L-29,236 L-34,237 L-36,239 L-42,241 L-61,248 L-80,254 L-88,256 L-94,256 L-98,253 L-95,252 L-94,250 L-85,246 L-82,245 L-90,245 L-95,243 L-95,241 L-102,243 L-110,247 L-119,250 L-131,250 L-131,248 L-128,246 L-125,244 L-114,239 L-111,236 L-108,235 L-108,232 L-104,229 L-99,227 L-101,227 L-100,222 L-89,216 L-85,213 L-82,212 L-61,202 L-43,191 L-33,183 L-25,178 L-11,167 L-23,174 L-37,182 L-45,186 L-55,193 L-78,206 L-94,216 L-98,217 L-102,218 L-104,217 L-104,215 L-98,214 L-98,212 L-107,211 L-112,215 L-115,216 L-117,215 L-117,213 L-121,212 L-119,210 L-117,208 L-111,201 L-109,196 L-101,189 L-90,179 L-83,171 L-73,159 L-64,148 L-63,146 L-66,149 L-72,151 L-84,160 L-87,161 L-92,160 L-91,156 L-96,158 L-101,157 L-99,153 L-95,149 L-93,149 L-92,146 L-84,139 L-74,130 L-68,125 L-72,126 L-78,126 L-76,122 L-63,102 L-67,90 L-68,86 L-75,64 L-77,54 L-78,36 L-81,31 L-80,28 L-80,26 L-84,23 L-83,20 L-78,19 L-76,13 L-71,12 L-69,16 L-65,18 L-61,27 L-54,29 L-51,30 L-41,35 L-31,39 L-10,47 L1,54 L3,56 L10,56 L12,57 L12,55 L19,53 L23,51 L29,51 L30,43 L31,41 L31,38 L25,36 L22,33 L24,28 L17,22 L17,17 L20,15 L20,13 L15,11 L10,7 L6,4 L0,2 Z M15,4 Z M27,4 Z M29,5 Z M20,6 Z M22,6 Z M31,6 Z M35,8 Z M15,9 Z M37,9 Z M39,10 Z M18,11 Z M41,11 Z M46,14 Z M-71,15 L-70,17 Z M25,16 Z M49,16 Z M-76,17 L-75,21 Z M-69,17 Z M-65,22 L-64,25 Z M57,22 Z M-64,26 Z M24,26 Z M26,27 Z M-60,28 Z M-58,29 Z M-52,31 Z M-49,32 Z M-47,33 Z M-45,34 Z M25,34 Z M-43,35 Z M27,35 Z M29,36 Z M-39,37 Z M31,37 Z M-76,38 L-75,41 Z M-37,38 Z M-35,39 Z M32,39 Z M75,39 Z M-32,40 Z M-29,41 Z M-27,42 Z M-24,43 Z M-21,44 Z M-76,45 L-76,54 L-75,54 L-75,45 Z M-19,45 Z M-16,46 Z M-13,47 Z M-11,48 Z M23,52 L23,53 L30,53 L30,52 Z M17,54 Z M94,54 Z M-75,55 L-74,59 Z M0,55 Z M14,55 Z M7,57 Z M-74,62 Z M107,63 Z M109,64 Z M111,65 Z M-73,66 Z M113,66 Z M116,67 Z M-72,68 Z M119,68 Z M122,69 Z M126,70 Z M-71,72 Z M132,72 Z M139,74 Z M-70,75 L-69,77 Z M142,75 Z M-69,78 Z M-68,81 L-67,83 Z M147,86 L148,88 Z M-66,88 L-65,90 Z M146,90 Z M77,91 L77,92 L85,92 L85,91 Z M-65,92 L-64,94 Z M72,92 L76,93 Z M86,92 Z M146,92 L146,93 L162,93 L162,92 Z M68,93 Z M76,93 L64,94 L66,95 L67,98 L72,101 L76,104 L81,103 L95,98 L90,94 L86,93 Z M90,93 Z M166,93 L166,94 L173,94 L173,93 Z M-64,95 L-63,97 Z M62,95 Z M93,95 Z M181,95 L185,96 Z M220,95 Z M227,95 Z M64,96 Z M187,96 Z M214,96 L218,97 Z M199,97 Z M204,97 L204,98 L212,98 L212,97 Z M196,98 Z M69,99 Z M92,99 L96,100 Z M89,100 Z M86,101 Z M-62,102 Z M83,102 Z M81,103 Z M79,104 Z M77,105 Z M226,112 Z M225,114 Z M224,116 Z M-60,117 Z M-62,118 Z M-65,120 L-64,122 Z M-66,122 Z M-76,123 Z M-67,123 Z M-71,124 Z M216,137 L217,140 Z M-59,140 Z M-60,141 L-60,144 Z M215,142 Z M214,145 Z M-69,147 Z M213,148 Z M212,150 Z M-86,151 Z M211,153 Z M-90,156 Z M-83,157 Z M-85,158 Z M-2,158 Z M106,158 Z M-1,159 Z M111,159 Z M-5,160 Z M115,160 Z M117,161 Z M-8,162 Z M-6,162 Z M120,162 Z M-7,163 Z M-11,164 Z M-9,164 Z M126,164 L126,165 L132,165 L132,164 Z M-10,165 Z M133,165 Z M-14,166 Z M197,166 Z M158,167 L162,168 Z M195,167 Z M137,168 L137,174 L138,174 L138,168 Z M-22,171 Z M-25,173 Z M-27,174 Z M-19,174 Z M-30,176 Z M-32,177 Z M-34,178 Z M-24,178 Z M-36,179 Z M-38,180 Z M-40,181 Z M-42,182 Z M-30,182 Z M-32,183 Z M144,185 Z M-48,186 Z M180,186 Z M-51,188 Z M91,189 Z M93,190 Z M-56,191 Z M95,191 Z M97,192 Z M-45,193 Z M99,193 Z M-61,194 Z M101,194 Z M-48,195 Z M104,196 Z M-66,197 Z M-68,198 Z M-53,198 Z M-70,199 Z M108,199 Z M-109,200 Z M-58,201 Z M-75,202 Z M-80,205 Z M-82,206 Z M-67,206 Z M-102,207 Z M-69,207 Z M-110,208 Z M-85,208 Z M-71,208 Z M-111,209 Z M-87,209 Z M-73,209 Z M-115,210 Z M-112,210 Z M-75,210 Z M-116,211 Z M-113,211 Z M-90,211 Z M-77,211 Z M178,211 Z M-117,212 Z M-114,212 Z M-79,212 Z M11,212 Z M172,212 Z M179,213 L179,225 L180,225 L180,213 Z M-85,214 Z M8,214 Z M142,214 L142,221 L143,221 L143,214 Z M170,217 Z M-91,218 Z M8,218 Z M-93,219 Z M169,219 Z M-95,220 Z M7,220 Z M129,220 Z M-3,221 Z M127,221 Z M-5,222 Z M-100,223 Z M-7,223 Z M6,223 Z M-95,226 Z M144,226 Z M-98,227 Z M146,227 Z M165,227 Z M178,227 L178,234 L179,234 L179,227 Z M149,228 L153,229 Z M163,228 Z M-102,229 Z M-19,229 Z M4,229 L5,231 Z M156,229 L156,230 L161,230 L161,229 Z M-104,230 Z M-21,230 Z M-106,231 Z M-23,231 Z M-25,232 Z M-30,234 Z M3,234 L4,237 Z M-85,235 Z M-32,235 Z M-88,236 Z M-83,236 Z M-111,237 Z M-90,237 Z M-85,237 Z M-37,237 Z M-93,238 Z M-88,238 Z M-40,238 Z M-90,239 Z M-74,239 Z M-98,240 Z M-92,240 Z M-76,240 Z M-45,240 Z M-116,241 Z M-101,241 Z M-82,241 L-80,243 L-78,241 Z M-48,241 Z M-118,242 Z M-85,242 Z M-51,242 Z M-121,243 Z M-106,243 Z M-88,243 Z M-54,243 Z M-123,244 Z M-109,244 Z M-57,244 Z M179,244 Z M-112,245 Z M-60,245 Z M103,245 Z M-115,246 Z M-63,246 Z M107,246 Z M-118,247 Z M-85,247 Z M-66,247 Z M110,247 Z M-121,248 Z M-88,248 Z M-69,248 Z M112,248 Z M-91,249 Z M-72,249 Z M114,249 Z M-76,250 Z M116,250 Z M-79,251 Z M-82,252 Z M88,252 Z M119,252 Z M-87,253 Z M90,253 Z M-91,254 Z M122,254 Z M125,256 Z M171,256 Z M139,257 Z M136,258 Z M3,260 L4,263 Z M4,266 Z M115,268 Z M107,271 Z M6,272 Z M110,273 Z M110,281 Z M111,288 Z M125,299 Z M29,300 Z M127,300 Z M129,301 Z M131,302 Z M35,304 Z M39,306 Z M41,307 Z M44,308 Z M47,309 Z M50,310 Z M56,312 Z M59,313 Z M100,313 Z M139,313 Z M62,314 Z M95,314 Z M120,314 Z M65,315 Z M99,315 L99,318 L109,318 L105,315 Z M122,315 L126,316 Z M69,316 Z M96,316 Z M109,316 Z M129,316 Z M133,317 Z M76,318 Z M103,318 Z M135,318 Z M79,319 Z M107,319 Z " fill="#F70000" transform="translate(131,0)"/>
<path d="M0,0 L4,1 L3,6 L5,8 L-4,11 L-16,11 L-16,9 L-13,7 L-10,5 Z M-1,2 Z M-3,3 Z M-6,4 Z M-8,5 Z M0,7 Z M-3,8 Z M-6,9 Z " fill="#9F0F0F" transform="translate(16,239)"/>
<path d="M0,0 L2,1 L-2,7 L-9,14 L-6,15 L-3,14 L-5,18 L-10,19 L-13,20 L-18,19 L-16,15 L-12,11 L-10,11 L-9,8 L-1,1 Z " fill="#A70A0A" transform="translate(48,138)"/>
<path d="M0,0 L4,1 L-3,4 L1,7 L5,9 L1,10 L-6,10 L-11,8 L-10,4 Z M-6,4 Z M-8,5 Z M-4,8 Z " fill="#781212" transform="translate(47,235)"/>
<path d="M0,0 L4,0 L2,4 L-2,8 L1,10 L-4,13 L-8,15 L-12,14 L-10,12 L-8,10 L-2,3 Z M0,2 Z " fill="#9A1212" transform="translate(22,198)"/>
<path d="M0,0 L3,0 L9,8 L20,19 L18,21 L11,15 L4,7 L0,2 Z " fill="#9F0808" transform="translate(140,279)"/>
<path d="M0,0 L6,2 L20,11 L20,14 L11,9 L-1,3 Z M2,2 Z M4,3 Z M6,4 Z M8,5 Z M11,7 Z M14,9 Z M17,11 Z " fill="#9E0D0D" transform="translate(239,245)"/>
<path d="M0,0 L9,2 L9,5 L-4,5 L-9,4 L-9,3 L-3,3 L-3,1 Z M1,1 Z M5,2 Z " fill="#D40606" transform="translate(233,317)"/>
<path d="M0,0 L2,1 L-13,17 L-16,15 L-12,11 L-10,11 L-9,8 L-1,1 Z " fill="#7E0E0E" transform="translate(48,138)"/>
<path d="M0,0 L6,2 L10,5 L4,5 L0,4 L-2,6 L-10,2 L-6,1 Z M1,1 Z M3,2 Z M-4,3 Z M5,3 Z " fill="#751111" transform="translate(157,3)"/>
<path d="M0,0 L5,1 L1,4 L0,7 L3,8 L-3,8 L-7,5 L-4,4 L-3,2 Z M0,1 Z " fill="#A40A0A" transform="translate(40,248)"/>
<path d="M0,0 L6,4 L14,10 L13,12 L8,10 L0,2 Z M8,8 Z M11,10 Z " fill="#980E0E" transform="translate(230,263)"/>
<path d="M0,0 L3,0 L3,2 L9,4 L12,6 L11,10 L9,10 L9,7 L3,5 L0,2 Z M3,3 Z M5,4 Z M7,5 Z M9,6 Z " fill="#8A0B0B" transform="translate(153,31)"/>
<path d="M0,0 L3,0 L1,4 L-5,7 L-7,6 L-5,2 L-1,1 Z M-4,3 Z " fill="#242222" transform="translate(21,209)"/>
<path d="M0,0 L5,2 L9,8 L7,10 L4,6 L4,4 L0,2 Z " fill="#910F0F" transform="translate(221,252)"/>
<path d="M0,0 L8,1 L12,3 L11,6 L0,2 Z " fill="#343232" transform="translate(131,0)"/>
<path d="M0,0 L4,5 L5,13 L3,14 L0,5 Z M2,7 Z M3,9 Z " fill="#671616" transform="translate(56,59)"/>
<path d="M0,0 L3,0 L9,9 L6,9 L0,2 Z " fill="#8F0B0B" transform="translate(140,279)"/>
<path d="M0,0 L1,4 L-3,9 L-7,10 L-1,1 Z " fill="#801111" transform="translate(61,155)"/>
<path d="M0,0 L5,2 L8,6 L7,7 L2,7 L2,4 L0,2 Z M3,3 Z " fill="#8C0D0D" transform="translate(221,92)"/>
<path d="M0,0 L6,1 L6,4 L-1,4 L-2,2 L0,2 Z M2,1 Z " fill="#B00A0A" transform="translate(236,318)"/>
<path d="M0,0 L2,3 L6,11 L3,11 L0,4 Z " fill="#611111" transform="translate(221,256)"/>
<path d="M0,0 L3,0 L6,5 L5,8 L2,5 Z " fill="#990C0C" transform="translate(233,249)"/>
<path d="M0,0 L1,0 L1,20 L0,20 Z " fill="#232323" transform="translate(132,239)"/>
<path d="M0,0 L1,4 L-1,7 L-3,7 L-3,9 L-5,8 Z " fill="#710D0D" transform="translate(65,107)"/>
<path d="M0,0 L3,3 L1,8 L-2,5 L-1,2 Z " fill="#761010" transform="translate(52,26)"/>
<path d="M0,0 L5,1 L4,5 L2,5 L2,3 L-2,4 L-2,1 Z M0,1 Z " fill="#B10A0A" transform="translate(10,242)"/>
<path d="M0,0 L2,4 L0,9 L-2,5 Z M-1,5 Z " fill="#880C0C" transform="translate(302,212)"/>
<path d="M0,0 L3,0 L2,3 L-2,4 L-4,3 L-4,1 Z " fill="#262323" transform="translate(31,214)"/>
<path d="M0,0 L3,3 L5,7 L2,7 L0,3 Z " fill="#860707" transform="translate(148,17)"/>
<path d="M0,0 L3,2 L3,4 L5,5 L2,6 L-2,2 Z " fill="#7A1010" transform="translate(59,12)"/>
<path d="M0,0 L10,0 L10,1 L0,1 Z " fill="#151515" transform="translate(296,169)"/>
<path d="M0,0 L9,0 L9,1 L0,1 Z " fill="#171717" transform="translate(292,258)"/>
<path d="M0,0 L1,0 L1,7 L0,7 Z " fill="#343434" transform="translate(307,172)"/>
<path d="M0,0 L1,0 L1,6 L0,6 Z " fill="#404040" transform="translate(349,129)"/>
<path d="M0,0 L5,0 L5,1 L0,1 Z " fill="#181818" transform="translate(269,320)"/>
<path d="M0,0 L4,1 Z " fill="#3C3C3C" transform="translate(261,260)"/>
<path d="M0,0 L4,1 Z " fill="#161616" transform="translate(4,250)"/>
<path d="M0,0 L2,1 L-1,1 Z " fill="#212121" transform="translate(24,211)"/>
<path d="M0,0 L4,1 Z " fill="#1B1B1B" transform="translate(153,2)"/>
<path d="M0,0 L3,1 Z " fill="#404040" transform="translate(245,318)"/>
<path d="M0,0 L3,1 Z " fill="#2E2E2E" transform="translate(244,276)"/>
<path d="M0,0 L3,1 Z " fill="#323232" transform="translate(37,245)"/>
<path d="M0,0 Z " fill="#393939" transform="translate(313,239)"/>
<path d="M0,0 Z " fill="#414141" transform="translate(275,208)"/>
<path d="M0,0 L3,1 Z " fill="#151515" transform="translate(268,189)"/>
<path d="M0,0 L3,1 Z " fill="#474747" transform="translate(41,161)"/>
<path d="M0,0 L3,1 Z " fill="#303030" transform="translate(32,158)"/>
<path d="M0,0 Z " fill="#1F1F1F" transform="translate(277,316)"/>
<path d="M0,0 Z " fill="#0E0E0E" transform="translate(248,287)"/>
<path d="M0,0 Z " fill="#0F0F0F" transform="translate(248,273)"/>
<path d="M0,0 L2,1 Z " fill="#202020" transform="translate(278,258)"/>
<path d="M0,0 L2,1 Z " fill="#303030" transform="translate(1,251)"/>
<path d="M0,0 L2,1 Z " fill="#373737" transform="translate(1,246)"/>
<path d="M0,0 Z " fill="#323232" transform="translate(28,225)"/>
<path d="M0,0 L2,1 Z " fill="#191919" transform="translate(29,219)"/>
<path d="M0,0 L2,1 Z " fill="#212121" transform="translate(31,218)"/>
<path d="M0,0 L2,1 Z " fill="#262626" transform="translate(19,215)"/>
<path d="M0,0 L2,1 Z " fill="#080808" transform="translate(29,213)"/>
<path d="M0,0 L2,1 Z " fill="#484848" transform="translate(272,206)"/>
<path d="M0,0 L2,1 Z " fill="#1D1D1D" transform="translate(307,189)"/>
<path d="M0,0 Z " fill="#202020" transform="translate(305,186)"/>
<path d="M0,0 L2,1 Z " fill="#2F2F2F" transform="translate(55,127)"/>
<path d="M0,0 L2,1 Z " fill="#111111" transform="translate(57,126)"/>
<path d="M0,0 L2,1 Z " fill="#3B3B3B" transform="translate(332,95)"/>
<path d="M0,0 L2,1 Z " fill="#434343" transform="translate(49,18)"/>
<path d="M0,0 L2,1 Z " fill="#020202" transform="translate(57,11)"/>
<path d="M0,0 L2,1 Z " fill="#161616" transform="translate(139,6)"/>
<path d="M0,0 L2,1 Z " fill="#313131" transform="translate(135,4)"/>
<path d="M0,0 L2,1 Z " fill="#1B1B1B" transform="translate(133,3)"/>
<path d="M0,0 L2,1 Z " fill="#121212" transform="translate(143,2)"/>
<path d="M0,0 L2,1 Z " fill="#181818" transform="translate(141,1)"/>
<path d="M0,0 Z " fill="#555555" transform="translate(36,256)"/>
<path d="M0,0 Z " fill="#252525" transform="translate(48,245)"/>
<path d="M0,0 Z " fill="#171717" transform="translate(21,234)"/>
<path d="M0,0 Z " fill="#161616" transform="translate(33,217)"/>
<path d="M0,0 Z " fill="#000000" transform="translate(34,216)"/>
<path d="M0,0 Z " fill="#242424" transform="translate(18,216)"/>
<path d="M0,0 Z " fill="#1C1C1C" transform="translate(21,214)"/>
<path d="M0,0 Z " fill="#2B2B2B" transform="translate(12,214)"/>
<path d="M0,0 Z " fill="#161616" transform="translate(22,213)"/>
<path d="M0,0 Z " fill="#292929" transform="translate(12,209)"/>
<path d="M0,0 Z " fill="#1D1D1D" transform="translate(13,208)"/>
<path d="M0,0 Z " fill="#030303" transform="translate(306,207)"/>
<path d="M0,0 Z " fill="#4C4C4C" transform="translate(20,198)"/>
<path d="M0,0 Z " fill="#555555" transform="translate(21,197)"/>
<path d="M0,0 Z " fill="#484848" transform="translate(354,93)"/>
<path d="M0,0 Z " fill="#292929" transform="translate(49,30)"/>
<path d="M0,0 Z " fill="#474747" transform="translate(48,29)"/>
<path d="M0,0 Z " fill="#1C1C1C" transform="translate(138,5)"/>
<path d="M0,0 Z " fill="#1C1C1C" transform="translate(139,0)"/>
</svg>
