<?xml version="1.0" encoding="UTF-8"?>
<!-- Generator: visioncortex VTracer 0.6.4 -->
<svg version="1.1" xmlns="http://www.w3.org/2000/svg" width="500" height="552">
<path d="M0,0 L206,0 L208,2 L208,199 L204,200 L191,189 L169,167 L170,172 L177,194 L181,210 L182,219 L184,233 L184,264 L175,267 L173,268 L167,268 L165,264 L161,272 L160,273 L155,273 L152,271 L149,266 L139,261 L130,261 L118,264 L112,261 L106,263 L104,267 L99,272 L96,273 L92,262 L91,261 L83,260 L83,252 L82,244 L84,241 L92,239 L92,233 L89,232 L83,225 L81,224 L81,221 L102,221 L102,211 L112,208 L111,203 L109,199 L109,193 L113,188 L116,186 L126,184 L120,177 L120,174 L128,173 L136,168 L140,160 L140,158 L138,157 L127,157 L122,159 L116,159 L117,153 L118,152 L130,150 L144,146 L150,144 L151,141 L153,141 L155,136 L162,124 L163,123 L121,123 L116,125 L112,135 L107,134 L104,123 L100,122 L92,124 L91,127 L91,140 L94,138 L97,139 L98,144 L101,148 L101,154 L101,156 L107,158 L109,158 L107,162 L98,165 L93,169 L92,172 L90,172 L88,177 L87,182 L88,185 L88,192 L82,197 L86,204 L86,208 L80,208 L71,205 L69,206 L65,216 L65,223 L66,228 L56,230 L51,236 L45,249 L43,249 L41,253 L34,259 L21,261 L14,260 L2,260 L-3,265 L-6,268 L-11,268 L-15,264 L-18,260 L-27,260 L-34,261 L-45,259 L-62,259 L-74,260 L-77,269 L-78,272 L-81,273 L-83,272 L-84,279 L-83,287 L-58,286 L-55,282 L-51,284 L-49,286 L-33,286 L-27,283 L-21,282 L-14,285 L-7,286 L-2,279 L1,274 L3,274 L6,285 L9,288 L16,288 L19,290 L19,293 L17,293 L15,298 L15,306 L16,310 L18,310 L20,315 L22,316 L22,319 L15,319 L9,316 L4,317 L-4,331 L-4,339 L0,345 L2,347 L2,350 L-6,353 L-16,354 L-19,357 L-20,367 L-30,373 L-32,376 L-31,383 L-30,389 L-33,393 L-34,397 L-34,414 L-37,415 L-48,411 L-51,408 L-54,415 L-61,416 L-67,408 L-72,409 L-80,417 L-87,423 L-89,430 L-86,439 L-84,439 L-78,450 L-77,451 L-72,451 L-67,445 L-62,446 L-61,450 L-64,456 L-65,460 L-65,470 L-62,477 L-56,484 L-52,479 L-47,468 L-51,459 L-51,456 L-40,455 L-36,454 L-36,445 L-41,432 L-41,427 L-33,427 L-28,433 L-24,431 L-20,427 L-19,418 L-19,415 L-21,415 L-21,410 L-9,406 L-4,400 L-1,392 L-1,383 L-2,376 L0,373 L5,374 L10,376 L11,364 L14,362 L20,361 L22,356 L24,356 L25,351 L28,343 L27,340 L17,332 L17,330 L15,330 L15,327 L25,324 L29,322 L40,322 L43,323 L43,313 L42,305 L52,305 L55,302 L60,292 L63,289 L66,288 L98,288 L101,287 L106,275 L109,273 L112,273 L114,278 L117,287 L119,287 L119,282 L123,280 L131,286 L141,289 L150,289 L160,286 L165,283 L169,284 L171,287 L180,289 L181,291 L181,301 L175,324 L168,343 L163,356 L155,371 L151,378 L149,378 L148,382 L144,389 L142,389 L142,392 L140,394 L134,402 L124,414 L122,414 L120,418 L104,434 L100,436 L95,441 L72,457 L50,469 L37,475 L18,482 L-5,488 L-24,491 L-36,492 L-91,492 L-115,487 L-134,480 L-153,472 L-169,464 L-179,458 L-192,450 L-192,448 L-197,446 L-210,436 L-220,428 L-220,426 L-224,424 L-230,417 L-233,414 L-240,406 L-249,394 L-249,392 L-251,392 L-256,383 L-258,378 L-260,378 L-263,372 L-273,353 L-279,338 L-283,328 L-285,320 L-289,306 L-291,298 L-291,289 L-289,289 L-289,287 L-287,286 L-273,286 L-271,276 L-267,276 L-259,285 L-254,284 L-248,278 L-243,278 L-239,282 L-237,286 L-180,286 L-176,288 L-172,294 L-159,294 L-160,299 L-164,306 L-164,310 L-148,306 L-142,306 L-142,312 L-146,313 L-146,315 L-152,317 L-152,319 L-154,320 L-155,323 L-142,325 L-141,330 L-145,341 L-143,345 L-132,349 L-127,352 L-128,366 L-125,373 L-117,378 L-116,382 L-116,388 L-114,392 L-103,400 L-100,402 L-101,413 L-98,416 L-88,417 L-81,400 L-78,395 L-79,387 L-82,385 L-94,386 L-97,384 L-96,379 L-91,372 L-96,369 L-97,359 L-99,356 L-106,354 L-107,349 L-108,340 L-114,331 L-122,318 L-122,316 L-124,316 L-127,310 L-128,307 L-141,305 L-142,304 L-142,299 L-138,295 L-138,288 L-136,286 L-115,286 L-110,278 L-105,279 L-101,284 L-100,287 L-96,286 L-93,277 L-92,276 L-92,260 L-111,258 L-114,259 L-116,263 L-121,262 L-121,260 L-127,259 L-133,258 L-132,265 L-135,267 L-139,266 L-146,259 L-151,257 L-160,257 L-163,252 L-171,241 L-177,239 L-190,244 L-192,244 L-192,237 L-188,231 L-187,228 L-187,217 L-192,204 L-200,191 L-202,186 L-204,186 L-207,180 L-216,178 L-215,168 L-217,163 L-220,160 L-222,155 L-221,151 L-220,150 L-209,149 L-205,147 L-204,144 L-202,144 L-201,139 L-196,140 L-194,144 L-193,148 L-188,144 L-184,144 L-183,147 L-179,148 L-167,148 L-163,147 L-163,142 L-162,141 L-157,141 L-153,147 L-148,148 L-134,148 L-133,144 L-127,143 L-121,147 L-118,148 L-101,147 L-93,144 L-90,141 L-88,135 L-84,134 L-80,137 L-77,147 L17,147 L20,144 L22,138 L25,133 L30,135 L32,141 L36,147 L54,148 L60,145 L62,145 L63,142 L68,143 L75,147 L78,145 L80,144 L81,139 L83,131 L81,124 L80,123 L63,123 L57,126 L55,129 L51,129 L48,125 L45,130 L41,129 L36,124 L33,123 L7,123 L-13,124 L-16,128 L-22,128 L-32,124 L-34,124 L-34,126 L-36,126 L-38,134 L-41,136 L-45,135 L-47,125 L-50,124 L-52,130 L-53,131 L-59,131 L-62,124 L-80,123 L-87,126 L-91,133 L-95,131 L-100,126 L-108,123 L-118,123 L-133,127 L-138,126 L-142,126 L-144,126 L-146,130 L-147,131 L-153,131 L-159,126 L-167,126 L-171,131 L-174,142 L-177,143 L-180,139 L-184,125 L-190,124 L-194,130 L-199,129 L-204,128 L-207,134 L-209,136 L-214,136 L-216,133 L-218,126 L-221,124 L-248,124 L-247,119 L-240,111 L-231,100 L-219,87 L-211,80 L-198,69 L-193,66 L-190,63 L-182,58 L-171,52 L-152,42 L-139,37 L-127,32 L-110,27 L-93,23 L-73,20 L-62,19 L-36,19 L-6,23 L13,28 L33,35 L11,13 L4,5 L0,2 Z M34,36 Z M167,165 Z M-265,149 L-260,150 L-255,159 L-252,162 L-242,165 L-234,166 L-235,170 L-238,175 L-239,182 L-236,190 L-232,196 L-225,197 L-216,197 L-216,204 L-220,212 L-220,218 L-214,223 L-205,222 L-207,228 L-207,239 L-203,244 L-203,247 L-201,247 L-198,254 L-203,257 L-206,262 L-211,262 L-211,258 L-215,262 L-217,270 L-219,272 L-225,271 L-228,268 L-233,258 L-233,256 L-249,256 L-253,260 L-259,260 L-263,256 L-267,257 L-271,258 L-272,262 L-276,269 L-280,269 L-283,256 L-292,255 L-292,230 L-290,226 L-289,215 L-286,199 L-281,184 L-274,167 L-268,153 Z M-128,350 Z " fill="#FF0100" transform="translate(292,30)"/>
</svg>
