<?xml version="1.0" encoding="UTF-8"?>
<!-- Generator: visioncortex VTracer 0.6.4 -->
<svg version="1.1" xmlns="http://www.w3.org/2000/svg" width="500" height="552">
<path d="M0,0 L32,0 L48,4 L61,9 L72,15 L86,25 L98,37 L105,47 L110,55 L114,63 L119,78 L121,88 L122,89 L123,97 L123,123 L118,145 L115,153 L109,170 L102,185 L94,200 L88,212 L78,229 L71,240 L69,242 L95,241 L107,239 L123,236 L131,235 L130,246 L128,256 L127,267 L127,297 L129,316 L130,324 L123,323 L115,319 L105,315 L89,311 L72,311 L74,331 L76,340 L78,352 L82,368 L84,373 L87,385 L90,393 L95,406 L101,419 L103,424 L103,427 L105,427 L109,437 L116,449 L124,466 L124,469 L126,469 L134,491 L137,499 L142,515 L144,520 L150,545 L151,552 L120,552 L86,550 L40,548 L27,548 L-46,551 L-62,552 L-113,552 L-113,537 L-111,530 L-106,511 L-103,503 L-98,488 L-93,476 L-87,461 L-78,440 L-72,423 L-68,413 L-66,413 L-64,404 L-57,388 L-51,373 L-47,363 L-43,350 L-40,338 L-38,325 L-36,316 L-35,310 L-48,311 L-69,317 L-77,320 L-84,323 L-92,324 L-93,323 L-92,315 L-91,300 L-91,283 L-92,262 L-94,248 L-95,234 L-88,235 L-72,239 L-63,241 L-52,242 L-34,242 L-44,231 L-53,219 L-63,204 L-69,194 L-78,175 L-83,161 L-86,153 L-90,139 L-95,114 L-95,100 L-93,87 L-89,73 L-84,62 L-81,55 L-79,55 L-77,49 L-66,36 L-58,28 L-56,28 L-56,26 L-41,16 L-25,8 L-11,3 Z M15,50 L5,51 L-9,55 L-20,61 L-30,70 L-36,79 L-40,89 L-41,96 L-41,117 L-38,130 L-34,141 L-29,150 L-22,160 L-13,171 L-4,180 L6,188 L8,188 L8,190 L17,196 L22,195 L39,178 L47,168 L47,166 L49,166 L55,157 L61,145 L65,136 L68,127 L71,111 L71,96 L67,84 L61,74 L54,66 L42,57 L34,53 L29,51 Z " fill="#FF0100" transform="translate(230,0)"/>
</svg>
