<?xml version="1.0" encoding="UTF-8"?>
<!-- Generator: visioncortex VTracer 0.6.4 -->
<svg version="1.1" xmlns="http://www.w3.org/2000/svg" width="600" height="600">
<path d="M0,0 L17,0 L23,3 L27,8 L27,13 L16,22 L-8,36 L-13,40 L5,67 L13,82 L12,91 L6,106 L-3,122 L-11,127 L-15,132 L-18,134 L-23,134 L-24,132 L-26,112 L-20,95 L-17,86 L-19,77 L-25,68 L-33,61 L-35,60 L-41,60 L-44,63 L-51,82 L-59,93 L-61,97 L-60,101 L-55,107 L-55,118 L-57,126 L-54,132 L-49,136 L-44,155 L-43,163 L-40,163 L-31,178 L-23,198 L-19,212 L-19,216 L-21,217 L-18,218 L-17,220 L-16,237 L-17,251 L-18,260 L-17,264 L-4,254 L7,246 L19,235 L34,220 L45,214 L46,206 L57,193 L68,177 L71,171 L71,157 L69,146 L60,132 L50,115 L50,110 L54,106 L43,106 L37,94 L34,73 L34,66 L37,58 L48,44 L58,34 L66,28 L73,26 L78,19 L93,10 L107,4 L123,0 L157,0 L171,3 L180,9 L186,18 L186,24 L185,25 L176,24 L166,19 L158,21 L152,21 L147,18 L145,18 L145,22 L133,26 L129,32 L125,44 L125,52 L137,77 L145,97 L147,105 L147,120 L143,132 L136,143 L123,159 L112,172 L106,179 L101,184 L106,186 L129,196 L139,203 L153,215 L161,223 L168,231 L176,247 L185,263 L190,273 L193,283 L195,303 L195,324 L193,342 L189,358 L181,374 L177,383 L169,399 L160,411 L151,421 L134,438 L123,447 L110,457 L95,467 L78,477 L57,486 L41,491 L26,494 L-31,499 L-37,502 L-50,503 L-66,503 L-87,501 L-118,495 L-151,486 L-163,481 L-182,471 L-202,457 L-220,444 L-227,438 L-229,433 L-234,429 L-248,426 L-255,418 L-267,397 L-279,375 L-286,364 L-292,349 L-299,325 L-305,294 L-306,287 L-306,278 L-302,274 L-297,271 L-306,271 L-308,269 L-308,254 L-304,216 L-299,183 L-295,171 L-287,155 L-274,132 L-263,108 L-256,97 L-238,79 L-227,70 L-212,58 L-197,49 L-186,45 L-181,42 L-177,38 L-140,23 L-125,18 L-121,17 L-105,17 L-72,22 L-57,23 L-43,19 L-27,11 L-9,3 Z M-96,45 L-117,52 L-143,63 L-164,74 L-178,86 L-190,100 L-196,108 L-202,129 L-208,140 L-213,148 L-215,158 L-212,154 L-198,131 L-190,115 L-183,101 L-173,90 L-163,82 L-144,77 L-122,65 L-106,58 L-100,56 L-102,61 L-109,68 L-123,76 L-145,87 L-158,97 L-170,108 L-178,115 L-191,136 L-200,151 L-204,161 L-206,175 L-207,193 L-210,206 L-210,238 L-208,261 L-202,285 L-194,309 L-186,325 L-177,341 L-166,356 L-157,366 L-149,374 L-138,382 L-131,392 L-131,399 L-135,406 L-139,409 L-144,408 L-153,398 L-165,381 L-179,362 L-192,346 L-201,336 L-208,322 L-213,305 L-218,284 L-223,269 L-224,265 L-224,257 L-217,248 L-220,247 L-226,247 L-227,230 L-227,213 L-224,199 L-218,179 L-218,168 L-220,170 L-229,192 L-231,203 L-232,233 L-231,257 L-228,273 L-221,297 L-212,324 L-201,351 L-192,360 L-183,371 L-171,385 L-163,405 L-158,410 L-147,418 L-143,421 L-140,431 L-135,433 L-126,435 L-115,443 L-103,448 L-100,451 L-100,456 L-100,459 L-93,454 L-85,455 L-58,462 L-39,465 L-12,465 L11,462 L31,457 L50,450 L68,440 L84,428 L94,419 L103,410 L112,396 L117,385 L121,370 L122,363 L122,331 L118,314 L110,298 L105,289 L96,281 L82,270 L75,266 L69,263 L65,260 L62,263 L45,265 L35,268 L32,270 L21,273 L2,280 L-6,285 L-53,332 L-67,351 L-77,364 L-85,371 L-99,380 L-104,385 L-115,401 L-118,402 L-118,388 L-111,374 L-96,350 L-87,336 L-80,321 L-77,308 L-77,299 L-81,283 L-92,262 L-100,246 L-105,234 L-111,227 L-117,208 L-117,201 L-115,200 L-117,196 L-120,194 L-122,184 L-122,158 L-120,138 L-116,125 L-103,100 L-88,77 L-80,67 L-74,60 L-72,56 L-72,49 L-74,47 L-86,45 Z M-216,159 L-215,161 Z M-217,162 L-216,164 Z M-218,165 L-217,168 Z M-54,214 L-63,218 L-61,220 L-55,218 L-48,219 L-44,223 L-33,223 L-27,222 L-27,220 L-43,217 L-50,214 Z M-295,269 Z M-102,459 Z M-103,460 Z " fill="#FE0000" transform="translate(354,48)"/>
<path d="M0,0 L271,0 L285,2 L298,2 L304,0 L588,0 L593,4 L594,6 L594,479 L591,497 L591,505 L594,515 L594,594 L590,599 L588,600 L477,600 L466,599 L436,599 L419,600 L190,600 L180,598 L170,598 L164,600 L87,600 L77,592 L77,600 L1,600 L-5,596 L-6,594 L-6,436 L-4,415 L-6,405 L-6,356 L5,348 L11,345 L16,345 L16,413 L17,575 L18,577 L88,578 L298,578 L310,583 L317,582 L326,578 L343,578 L370,579 L427,579 L461,578 L572,577 L572,360 L575,354 L574,348 L572,343 L572,190 L574,173 L574,150 L572,132 L571,23 L457,22 L447,21 L434,21 L422,22 L366,23 L286,23 L259,22 L157,22 L145,21 L138,22 L18,23 L17,27 L17,198 L16,281 L14,285 L15,296 L16,302 L16,330 L12,334 L4,337 L-2,342 L-6,342 L-6,125 L-5,118 L-5,102 L-6,95 L-6,7 L-2,1 Z " fill="#FC0000" transform="translate(6,0)"/>
<path d="M0,0 L6,0 L19,5 L31,16 L40,26 L45,35 L48,51 L48,79 L43,98 L35,120 L27,136 L17,144 L2,153 L-16,163 L-32,170 L-51,175 L-77,180 L-85,181 L-99,181 L-116,178 L-141,171 L-151,167 L-152,162 L-154,163 L-160,163 L-179,154 L-191,148 L-192,144 L-189,136 L-186,133 L-179,130 L-178,129 L-170,129 L-163,133 L-147,146 L-131,154 L-117,158 L-104,160 L-92,161 L-67,161 L-53,158 L-20,146 L-4,139 L5,133 L10,129 L19,118 L26,108 L30,98 L36,70 L37,57 L29,30 L24,24 L8,17 L-4,13 L-7,11 L-6,7 L-1,4 Z M-151,160 Z " fill="#FC0000" transform="translate(419,329)"/>
<path d="M0,0 L30,0 L40,3 L49,10 L56,21 L61,36 L63,52 L63,62 L61,74 L53,90 L45,100 L38,107 L17,120 L-10,134 L-15,136 L-20,136 L-19,131 L-8,120 L9,107 L20,96 L27,85 L32,74 L35,64 L35,51 L33,42 L31,40 L32,35 L24,28 L15,27 L14,28 L14,37 L15,43 L15,65 L13,68 L9,67 L6,60 L0,40 L-6,29 L-11,21 L-12,12 L-9,5 L-3,1 Z " fill="#FD0000" transform="translate(503,85)"/>
<path d="M0,0 L19,0 L32,5 L54,15 L64,22 L71,30 L74,36 L74,45 L70,48 L65,49 L35,49 L12,46 L-6,39 L-11,36 L-10,32 L8,32 L30,33 L34,31 L33,26 L25,23 L0,20 L-3,19 L-16,19 L-29,23 L-49,30 L-61,37 L-78,49 L-80,50 L-87,50 L-86,43 L-78,34 L-64,23 L-49,13 L-33,5 L-23,2 Z " fill="#FC0000" transform="translate(121,518)"/>
<path d="M0,0 L12,0 L33,6 L45,11 L51,16 L59,29 L64,44 L64,57 L60,72 L53,86 L42,98 L30,104 L16,108 L8,107 L5,104 L4,95 L2,88 L3,75 L6,70 L16,61 L23,57 L27,57 L26,64 L23,72 L24,78 L27,80 L32,79 L39,70 L43,64 L45,57 L44,46 L40,33 L34,25 L24,18 L6,10 L0,4 Z " fill="#FC0000" transform="translate(30,59)"/>
<path d="M0,0 L8,0 L19,4 L26,10 L29,20 L29,33 L25,41 L15,51 L11,52 L9,56 L3,58 L-16,58 L-26,52 L-39,40 L-47,33 L-55,27 L-71,22 L-75,21 L-109,20 L-109,17 L-99,11 L-93,9 L-76,9 L-57,13 L-43,18 L-33,27 L-26,33 L-16,38 L-4,38 L0,36 L2,25 L-1,19 L-8,18 L-16,21 L-17,22 L-24,21 L-25,16 L-16,8 L-6,2 Z " fill="#FC0000" transform="translate(148,29)"/>
<path d="M0,0 L16,0 L20,5 L33,5 L62,14 L74,18 L85,25 L93,32 L95,36 L95,46 L90,47 L78,41 L65,33 L56,29 L35,23 L5,23 L5,32 L8,32 L13,39 L13,44 L6,47 L-5,47 L-15,44 L-20,38 L-26,25 L-26,16 L-22,10 L-14,5 Z " fill="#FC0000" transform="translate(459,523)"/>
<path d="M0,0 L20,0 L26,5 L28,10 L28,28 L26,35 L22,35 L22,33 L17,31 L10,26 L4,26 L0,28 L-2,37 L-2,50 L4,60 L7,65 L12,70 L18,77 L21,83 L21,98 L15,98 L9,91 L5,86 L-6,78 L-17,65 L-23,55 L-25,49 L-25,28 L-20,13 L-15,5 L-6,1 Z " fill="#FC0000" transform="translate(543,450)"/>
<path d="M0,0 L12,0 L18,4 L28,14 L33,23 L34,33 L29,45 L21,59 L12,70 L2,78 L-3,84 L-6,90 L-11,95 L-14,100 L-15,101 L-21,101 L-21,92 L-16,79 L-8,68 L2,56 L9,45 L9,33 L5,24 L-1,26 L-6,36 L-9,47 L-14,47 L-18,39 L-19,32 L-19,20 L-15,12 L-9,5 Z " fill="#FC0000" transform="translate(50,438)"/>
<path d="M0,0 L25,0 L38,3 L47,9 L57,22 L61,31 L61,43 L59,55 L54,60 L49,62 L39,62 L31,55 L20,42 L17,37 L18,32 L26,32 L35,38 L38,41 L42,40 L43,37 L38,27 L32,20 L22,15 L10,12 L-22,10 L-25,9 L-24,5 L-14,2 Z " fill="#FC0000" transform="translate(507,227)"/>
<path d="M0,0 L5,1 L11,11 L16,12 L31,8 L44,9 L63,13 L67,16 L91,16 L116,11 L136,8 L143,7 L145,8 L144,14 L139,19 L135,21 L126,22 L122,24 L95,28 L82,28 L56,23 L42,22 L30,25 L17,32 L9,40 L2,40 L2,15 L-2,8 L-2,1 Z " fill="#FA0000" transform="translate(183,29)"/>
<path d="M0,0 L8,0 L15,3 L18,7 L17,13 L12,18 L10,18 L8,22 L-1,28 L-8,29 L-8,24 L-5,20 L-5,14 L-22,23 L-27,28 L-32,30 L-33,38 L-37,44 L-49,56 L-59,63 L-63,65 L-69,65 L-68,59 L-59,54 L-52,46 L-48,34 L-46,18 L-49,14 L-59,10 L-58,4 L-57,3 L-47,3 L-35,7 L-33,12 L-23,11 L-6,2 Z " fill="#FB0000" transform="translate(440,31)"/>
<path d="M0,0 L7,0 L7,6 L-1,12 L-7,16 L-16,31 L-20,40 L-23,59 L-24,76 L-27,90 L-29,105 L-34,104 L-35,98 L-34,78 L-33,68 L-33,37 L-36,21 L-36,11 L-32,7 L-17,6 L-2,1 Z " fill="#FA0000" transform="translate(65,175)"/>
<path d="M0,0 L5,0 L7,3 L7,12 L6,22 L1,31 L2,35 L6,39 L7,43 L7,62 L1,62 L-8,50 L-15,45 L-22,43 L-30,43 L-56,46 L-57,41 L-51,37 L-31,32 L-16,24 L-9,16 Z " fill="#FB0000" transform="translate(562,177)"/>
<path d="M0,0 L5,1 L7,43 L10,55 L15,70 L22,79 L33,89 L33,95 L25,94 L16,94 L10,97 L3,106 L1,111 L-3,111 L-3,94 L-1,86 L-1,50 L-2,40 L-2,1 Z " fill="#FA0000" transform="translate(34,335)"/>
<path d="M0,0 L6,0 L8,2 L13,19 L15,21 L28,22 L37,29 L37,34 L34,36 L11,36 L-3,39 L-23,52 L-29,55 L-33,54 L-32,48 L-27,43 L-18,35 L-9,24 L-6,17 L-4,5 L-2,1 Z " fill="#FB0000" transform="translate(90,475)"/>
<path d="M0,0 L6,0 L7,1 L7,8 L0,20 L-2,27 L-2,35 L3,45 L2,53 L-3,57 L-9,57 L-16,51 L-17,44 L-14,30 L-15,24 L-20,20 L-31,15 L-49,9 L-54,6 L-54,3 L-45,3 L-38,5 L-29,6 L-20,6 L-8,3 Z " fill="#FB0000" transform="translate(562,30)"/>
<path d="M0,0 L7,0 L12,3 L13,5 L13,17 L17,25 L22,29 L22,33 L13,32 L2,29 L-6,28 L-40,28 L-58,29 L-91,29 L-94,28 L-93,25 L-80,23 L-55,22 L-36,20 L-16,18 L-5,17 L0,14 L-1,10 L-8,6 L-7,2 Z " fill="#F80000" transform="translate(415,538)"/>
<path d="M0,0 L12,0 L24,6 L35,9 L67,13 L92,16 L93,20 L91,21 L67,21 L51,20 L33,20 L30,19 L12,18 L2,22 L-5,23 L-5,16 L0,10 L-1,1 Z " fill="#F90000" transform="translate(207,547)"/>
<path d="M0,0 L5,0 L6,1 L6,9 L-2,25 L-4,31 L-5,41 L-5,73 L-10,74 L-11,72 L-13,50 L-15,38 L-23,22 L-31,13 L-32,6 L-27,7 L-22,11 L-18,12 L-9,9 Z " fill="#FA0000" transform="translate(568,284)"/>
<path d="M0,0 L3,0 L5,14 L6,25 L6,39 L5,51 L8,51 L13,45 L17,46 L17,55 L14,64 L13,65 L5,64 L-12,64 L-18,67 L-22,67 L-23,62 L-20,57 L-10,50 L-7,44 L-3,27 L-1,1 Z " fill="#FA0000" transform="translate(557,377)"/>
<path d="M0,0 L4,0 L14,14 L19,18 L28,22 L44,24 L43,31 L39,33 L25,33 L20,36 L19,47 L12,56 L10,57 L4,57 L3,53 L7,39 L7,27 L-1,7 L-1,1 Z " fill="#FA0000" transform="translate(95,71)"/>
<path d="M0,0 L7,1 L11,4 L14,14 L18,19 L24,31 L24,37 L17,36 L6,32 L-7,31 L-14,27 L-17,24 L-17,19 L-8,16 L-4,13 L-3,2 Z " fill="#FC0000" transform="translate(501,492)"/>
<path d="M0,0 L11,0 L20,2 L21,6 L14,9 L-10,11 L-22,15 L-32,23 L-40,30 L-52,38 L-58,41 L-62,42 L-62,40 L-57,37 L-50,28 L-41,18 L-30,10 L-17,4 L-6,1 Z " fill="#F30000" transform="translate(390,326)"/>
<path d="M0,0 L4,0 L6,13 L6,25 L3,30 L-1,30 L0,6 Z " fill="#F80000" transform="translate(32,300)"/>
</svg>
