<?xml version="1.0" encoding="UTF-8"?>
<!-- Generator: visioncortex VTracer 0.6.4 -->
<svg version="1.1" xmlns="http://www.w3.org/2000/svg" width="500" height="552">
<path d="M0,0 L6,0 L21,9 L38,21 L52,32 L65,44 L78,57 L85,65 L98,81 L114,105 L124,123 L134,147 L143,171 L148,193 L151,212 L153,237 L154,243 L154,256 L149,296 L144,320 L138,340 L130,361 L121,380 L108,402 L95,420 L84,433 L75,443 L62,456 L51,465 L38,476 L20,489 L14,493 L9,491 L8,488 L7,421 L6,411 L6,393 L11,388 L27,380 L34,374 L41,364 L46,352 L49,337 L49,323 L45,307 L37,291 L29,279 L21,274 L6,269 L4,266 L4,223 L-1,225 L-7,232 L-9,237 L-11,247 L-15,255 L-17,257 L-23,257 L-26,251 L-26,217 L-23,203 L-16,189 L-6,176 L1,168 L2,165 L2,143 L1,95 L0,37 L-1,20 L-1,1 Z M68,133 L56,137 L46,142 L32,153 L26,159 L26,161 L32,159 L36,157 L43,157 L53,163 L63,168 L71,168 L79,164 L85,157 L90,154 L97,154 L101,156 L99,147 L93,139 L85,134 L82,133 Z M-7,1 L-4,1 L-4,36 L-6,38 L-25,41 L-41,46 L-55,53 L-66,61 L-78,72 L-87,82 L-98,97 L-104,109 L-108,123 L-108,146 L-105,161 L-101,173 L-95,182 L-87,193 L-86,196 L-86,208 L-90,216 L-96,223 L-97,225 L-97,232 L-93,241 L-90,243 L-73,243 L-66,247 L-58,256 L-57,260 L-55,281 L-54,288 L-54,316 L-50,324 L-44,329 L-38,332 L-38,314 L-34,301 L-29,293 L-27,293 L-23,310 L-21,310 L-20,298 L-15,299 L-14,300 L-13,308 L-10,309 L-7,301 L-3,302 L0,309 L0,394 L1,416 L2,496 L-3,496 L-26,481 L-42,469 L-53,460 L-65,449 L-75,440 L-86,428 L-95,417 L-106,402 L-115,388 L-126,367 L-134,348 L-143,317 L-147,296 L-150,268 L-150,229 L-147,201 L-142,176 L-136,155 L-128,134 L-116,109 L-102,88 L-92,75 L-80,61 L-73,54 L-68,49 L-56,37 L-45,28 L-31,17 L-14,5 Z M-38,332 Z M-170,67 L-165,68 L-127,87 L-113,95 L-113,100 L-123,119 L-134,144 L-145,173 L-150,189 L-153,208 L-154,222 L-154,281 L-152,295 L-145,322 L-139,342 L-129,366 L-117,391 L-115,397 L-146,413 L-168,425 L-173,426 L-172,421 L-164,405 L-148,374 L-146,371 L-146,363 L-158,347 L-164,337 L-173,335 L-179,331 L-183,325 L-183,316 L-179,307 L-179,299 L-181,291 L-182,279 L-187,269 L-195,264 L-238,251 L-243,249 L-243,245 L-205,232 L-192,228 L-186,224 L-184,220 L-181,199 L-177,187 L-183,177 L-185,168 L-183,162 L-178,157 L-169,154 L-162,152 L-148,130 L-144,124 L-146,118 L-170,70 Z M181,70 L184,70 L182,76 L167,106 L161,115 L158,123 L159,130 L170,146 L174,152 L187,155 L195,162 L197,167 L196,175 L190,183 L190,192 L195,208 L197,224 L209,229 L245,241 L257,245 L257,249 L243,254 L210,264 L200,268 L197,271 L195,287 L189,303 L190,308 L195,314 L195,322 L191,331 L187,335 L176,338 L170,346 L163,358 L159,363 L162,373 L173,395 L183,414 L186,425 L167,416 L145,406 L135,400 L126,398 L119,401 L114,405 L112,405 L113,399 L124,381 L132,365 L140,345 L149,315 L154,293 L157,270 L158,252 L158,233 L155,216 L154,212 L155,210 L155,201 L149,187 L147,173 L142,157 L134,137 L120,108 L109,88 L109,85 L113,86 L125,94 L127,96 L133,96 L159,82 Z M-59,117 L-39,117 L-30,121 L-24,128 L-15,145 L-9,157 L-9,166 L-14,171 L-19,170 L-27,165 L-35,165 L-50,172 L-66,176 L-74,174 L-78,170 L-87,154 L-92,144 L-93,137 L-91,130 L-84,124 L-73,119 Z " fill="#FF0100" transform="translate(243,28)"/>
</svg>
