<?xml version="1.0" encoding="UTF-8"?>
<!-- Generator: visioncortex VTracer 0.6.4 -->
<svg version="1.1" xmlns="http://www.w3.org/2000/svg" width="500" height="552">
<path d="M0,0 L4,0 L8,15 L18,45 L21,53 L40,56 L59,61 L63,60 L68,56 L73,54 L80,55 L86,59 L90,65 L90,75 L95,77 L106,83 L114,89 L118,88 L121,84 L123,84 L125,79 L130,69 L132,65 L145,65 L147,69 L149,78 L149,82 L176,69 L177,72 L152,122 L152,126 L161,139 L169,152 L180,153 L188,160 L189,162 L189,173 L185,179 L182,182 L187,200 L190,217 L191,223 L236,238 L252,243 L252,246 L233,252 L193,265 L190,265 L189,277 L185,294 L182,305 L187,310 L188,312 L188,323 L184,329 L180,332 L177,333 L169,333 L167,338 L160,349 L152,360 L154,366 L164,385 L175,408 L181,419 L181,422 L177,421 L142,404 L123,394 L119,393 L110,400 L109,416 L106,417 L97,417 L91,416 L87,424 L81,429 L73,430 L66,427 L62,424 L45,429 L30,432 L23,432 L20,443 L10,473 L4,494 L0,494 L-9,464 L-19,434 L-44,429 L-61,424 L-68,430 L-70,431 L-80,431 L-88,426 L-94,429 L-110,429 L-110,415 L-106,409 L-104,409 L-103,404 L-117,394 L-123,396 L-149,409 L-165,417 L-175,422 L-177,422 L-176,418 L-167,399 L-159,383 L-151,367 L-149,362 L-158,350 L-166,338 L-169,333 L-176,333 L-182,330 L-186,325 L-187,323 L-187,312 L-183,306 L-181,305 L-185,289 L-188,275 L-189,264 L-198,262 L-229,252 L-248,246 L-248,243 L-190,224 L-186,202 L-181,183 L-180,181 L-184,179 L-188,174 L-189,171 L-189,164 L-185,157 L-179,153 L-168,153 L-157,135 L-156,134 L-154,119 L-152,119 L-154,109 L-170,77 L-175,67 L-174,64 L-148,77 L-146,77 L-142,71 L-139,66 L-125,66 L-124,83 L-121,87 L-120,91 L-117,92 L-103,82 L-91,75 L-90,74 L-90,66 L-86,60 L-81,56 L-79,55 L-71,55 L-64,59 L-62,63 L-51,59 L-34,55 L-16,53 L-14,44 L-6,20 Z M138,72 L134,82 L130,88 L130,90 L128,90 L123,95 L112,104 L111,105 L110,112 L107,113 L101,111 L96,116 L90,121 L85,126 L82,128 L82,130 L78,132 L73,137 L76,146 L77,151 L72,148 L71,147 L66,147 L63,149 L60,144 L46,152 L38,159 L29,170 L24,180 L22,194 L27,198 L32,202 L36,212 L36,225 L39,226 L48,227 L61,231 L72,237 L83,247 L92,261 L96,261 L102,254 L110,242 L114,233 L118,224 L117,218 L105,220 L103,221 L103,218 L114,216 L116,215 L115,209 L120,208 L125,205 L130,195 L133,187 L136,172 L134,168 L136,168 L140,159 L141,148 L140,143 L137,143 L137,140 L141,138 L143,128 L144,118 L144,88 L140,72 Z M-133,73 L-142,88 L-145,99 L-146,112 L-141,114 L-139,113 L-139,116 L-143,118 L-147,125 L-148,136 L-144,162 L-139,180 L-134,192 L-131,196 L-124,195 L-122,205 L-117,205 L-113,203 L-116,211 L-118,225 L-116,233 L-110,247 L-103,254 L-95,259 L-84,258 L-90,266 L-96,275 L-99,284 L-99,298 L-95,311 L-90,310 L-85,307 L-85,310 L-87,310 L-89,314 L-88,319 L-77,319 L-77,321 L-83,323 L-83,325 L-86,326 L-88,333 L-87,353 L-83,357 L-77,359 L-77,362 L-86,364 L-88,390 L-93,404 L-100,416 L-100,418 L-102,418 L-103,423 L-96,421 L-91,418 L-77,405 L-77,403 L-75,403 L-67,390 L-62,381 L-62,374 L-68,372 L-68,369 L-58,369 L-55,364 L-49,348 L-43,332 L-38,319 L-39,312 L-40,310 L-35,309 L-33,305 L-33,299 L-40,291 L-40,289 L-33,293 L-30,293 L-29,291 L-29,272 L-27,264 L-19,247 L-27,237 L-28,234 L-50,234 L-61,238 L-65,241 L-59,250 L-56,254 L-59,254 L-60,252 L-62,254 L-61,262 L-66,257 L-71,253 L-75,251 L-79,253 L-82,256 L-80,251 L-71,241 L-58,234 L-51,232 L-29,231 L-28,228 L-29,227 L-29,207 L-26,201 L-25,198 L-23,198 L-23,192 L-31,177 L-40,167 L-47,162 L-51,161 L-59,168 L-62,169 L-63,164 L-69,169 L-72,176 L-74,176 L-72,166 L-66,162 L-66,156 L-71,148 L-81,142 L-91,135 L-99,124 L-110,125 L-112,121 L-120,122 L-128,126 L-126,122 L-119,118 L-110,117 L-109,115 L-113,109 L-121,102 L-125,97 L-127,97 L-128,92 L-130,88 L-131,73 Z M-39,138 L-38,141 L-31,144 L-29,148 L-34,146 L-37,146 L-37,148 L-32,151 L-27,157 L-25,162 L-28,163 L-24,164 L-23,170 L-19,174 L-15,173 L-15,171 L-18,169 L-19,162 L-17,156 L-19,156 L-19,159 L-22,158 L-23,147 L-22,140 L-24,140 L-25,143 L-28,144 L-28,142 L-34,138 Z M34,142 L28,146 L27,150 L23,148 L23,159 L22,162 L20,162 L20,159 L18,160 L17,169 L15,169 L15,172 L19,170 L24,165 L29,163 L26,161 L28,155 L35,153 L34,151 L29,150 L32,147 L38,144 L39,142 Z M21,146 L23,148 L23,146 Z M-30,161 Z M-4,173 L-13,175 L-16,180 L-16,186 L-13,190 L-7,188 L-5,187 L6,187 L14,191 L16,189 L17,177 L15,175 L8,173 Z M-14,190 Z M0,189 L-10,192 L-21,199 L-24,202 L-26,214 L-25,231 L-21,240 L-17,244 L-18,251 L-23,264 L-24,270 L-24,287 L-20,305 L-12,325 L-7,341 L-2,355 L-1,362 L-1,370 L0,372 L3,372 L6,356 L12,339 L26,305 L28,299 L32,271 L30,260 L23,246 L25,242 L31,233 L32,226 L32,211 L29,202 L20,196 L12,192 Z M38,229 L31,242 L27,248 L29,249 L34,265 L34,288 L39,314 L42,324 L48,326 L52,325 L49,331 L49,336 L60,335 L63,334 L62,338 L56,345 L54,350 L56,354 L63,354 L74,349 L74,352 L71,353 L66,359 L59,363 L59,372 L62,381 L68,393 L71,397 L73,397 L74,400 L82,405 L91,408 L102,410 L101,406 L99,406 L97,401 L93,394 L91,388 L82,385 L81,383 L88,383 L89,381 L87,365 L88,334 L77,329 L76,326 L81,327 L88,327 L90,321 L91,313 L92,311 L92,287 L89,284 L88,281 L90,281 L89,268 L85,259 L80,250 L74,243 L69,240 L64,241 L61,243 L61,236 L57,232 L50,230 Z M-99,169 L-98,173 L-106,183 L-110,185 L-107,176 Z M68,171 L71,172 L77,188 L78,192 L74,191 L68,174 Z M105,171 L110,172 L111,177 L102,181 L98,185 L95,184 L95,178 L98,175 L104,173 Z M59,187 L61,187 L62,192 L59,192 Z M60,193 L62,193 L64,199 L60,198 Z M-1,198 L9,199 L17,203 L21,208 L22,210 L22,217 L19,225 L14,229 L14,241 L13,244 L7,243 L3,245 L3,243 L-4,243 L-6,238 L-6,230 L-10,226 L-16,221 L-17,219 L-17,211 L-13,204 L-5,199 Z M-9,212 L-11,215 L-10,219 L-7,222 L-1,223 L0,219 L-1,215 L-4,212 Z M13,212 L8,214 L6,219 L7,223 L14,220 L16,216 L15,212 Z M3,227 L0,231 L0,234 L2,234 L2,231 L5,231 L7,235 L8,231 L5,227 Z " fill="#FF0100" transform="translate(248,29)"/>
</svg>
