<?xml version="1.0" encoding="UTF-8"?>
<!-- Generator: visioncortex VTracer 0.6.4 -->
<svg version="1.1" xmlns="http://www.w3.org/2000/svg" width="500" height="552">
<path d="M0,0 L4,1 L-1,5 L-8,14 L-16,21 L-24,30 L-26,30 L-26,32 L-16,30 L-7,27 L4,26 L5,28 L-5,31 L10,32 L13,34 L12,36 L-2,36 L-6,38 L-6,42 L7,45 L13,49 L12,52 L0,48 L3,56 L11,63 L12,66 L8,64 L5,62 L9,74 L10,79 L9,79 L5,100 L-1,115 L-12,132 L-10,136 L-8,137 L-1,137 L9,131 L19,122 L28,112 L29,110 L31,110 L33,105 L40,93 L45,80 L49,62 L51,34 L54,34 L49,20 L49,17 L52,17 L63,36 L69,49 L76,68 L83,93 L90,129 L92,139 L96,172 L96,235 L93,273 L90,272 L90,263 L87,262 L84,247 L81,238 L76,250 L72,264 L65,285 L53,314 L45,332 L35,351 L23,376 L13,392 L5,402 L2,403 L3,399 L9,390 L16,376 L31,341 L38,320 L45,299 L54,266 L58,247 L63,210 L65,178 L65,159 L63,197 L60,196 L56,188 L53,186 L48,187 L44,196 L42,196 L43,189 L44,185 L42,185 L39,170 L35,159 L28,150 L23,147 L5,147 L-12,151 L-27,156 L-34,159 L-39,162 L-54,177 L-56,177 L-56,179 L-61,184 L-75,198 L-76,200 L-78,200 L-80,204 L-87,212 L-96,226 L-98,233 L-98,245 L-95,254 L-89,262 L-85,265 L-82,244 L-78,231 L-73,222 L-66,213 L-57,204 L-45,196 L-32,191 L-18,188 L6,188 L20,192 L31,199 L41,209 L47,219 L49,227 L49,241 L44,257 L38,267 L28,279 L16,288 L4,294 L-10,299 L-22,302 L-44,304 L-40,311 L-29,326 L-22,340 L-19,349 L-18,358 L-18,368 L-21,384 L-28,395 L-35,401 L-45,406 L-56,409 L-69,409 L-78,407 L-90,401 L-95,396 L-103,387 L-109,377 L-118,358 L-125,350 L-129,348 L-131,340 L-135,333 L-142,327 L-148,325 L-154,325 L-154,322 L-152,321 L-140,321 L-130,324 L-120,329 L-109,338 L-109,355 L-105,368 L-100,378 L-91,388 L-81,394 L-74,396 L-62,396 L-52,393 L-43,386 L-38,379 L-35,368 L-35,354 L-38,344 L-47,331 L-57,318 L-68,303 L-68,301 L-76,301 L-92,295 L-104,289 L-118,278 L-118,276 L-120,276 L-126,268 L-130,259 L-133,242 L-132,231 L-126,214 L-117,202 L-108,191 L-92,174 L-82,165 L-78,160 L-81,154 L-87,152 L-99,151 L-113,151 L-136,155 L-150,160 L-163,167 L-175,176 L-182,183 L-183,186 L-186,186 L-186,176 L-183,151 L-178,129 L-172,112 L-165,95 L-164,91 L-173,111 L-179,129 L-184,148 L-186,158 L-188,181 L-189,189 L-192,187 L-195,177 L-199,171 L-204,166 L-214,165 L-230,170 L-245,178 L-254,185 L-265,194 L-267,197 L-269,197 L-271,201 L-280,212 L-283,212 L-281,203 L-273,183 L-261,161 L-253,149 L-243,135 L-232,121 L-220,108 L-206,94 L-213,100 L-219,105 L-226,113 L-234,121 L-244,134 L-253,146 L-264,163 L-273,179 L-281,197 L-283,204 L-286,204 L-289,191 L-293,186 L-299,184 L-314,184 L-329,188 L-339,194 L-346,198 L-357,207 L-369,218 L-383,232 L-393,246 L-399,255 L-403,263 L-404,263 L-404,257 L-396,237 L-382,213 L-371,195 L-362,183 L-352,170 L-339,155 L-326,142 L-315,133 L-301,122 L-288,112 L-278,105 L-255,91 L-238,80 L-227,74 L-215,67 L-198,59 L-183,52 L-163,43 L-126,30 L-102,23 L-96,21 L-97,25 L-99,25 L-99,27 L-107,34 L-108,36 L-110,36 L-112,40 L-120,50 L-126,58 L-135,74 L-139,88 L-140,101 L-136,117 L-131,126 L-124,132 L-112,137 L-99,139 L-78,139 L-62,137 L-54,134 L-50,135 L-49,135 L-38,123 L-31,112 L-23,98 L-20,89 L-20,77 L-23,71 L-26,68 L-33,68 L-42,78 L-47,92 L-47,107 L-53,106 L-66,101 L-72,91 L-72,88 L-67,90 L-65,90 L-60,90 L-61,86 L-63,80 L-58,80 L-57,78 L-53,78 L-53,69 L-62,67 L-60,72 L-63,73 L-71,70 L-78,70 L-76,77 L-74,79 L-75,82 L-84,78 L-87,76 L-87,85 L-92,83 L-98,79 L-101,72 L-100,62 L-97,57 L-93,56 L-90,51 L-86,50 L-81,44 L-79,44 L-78,46 L-73,44 L-67,34 L-58,27 L-56,27 L-57,31 L-36,23 L-20,15 L-7,6 Z M54,35 L55,37 Z M55,39 Z M55,41 Z M-23,42 L-22,46 L-14,47 L-14,49 L-10,48 L-16,45 L-21,45 L-22,42 Z M56,44 L57,47 Z M-58,47 L-62,51 L-57,49 L-56,47 Z M-19,49 Z M-22,50 Z M57,50 L58,52 Z M-24,51 Z M-25,52 Z M-28,53 L-25,58 L-19,60 L-22,57 L-24,56 L-25,53 Z M-29,54 Z M-154,55 Z M-31,55 Z M-157,57 Z M-161,59 Z M-163,60 Z M-19,60 Z M-164,61 Z M-17,61 Z M4,61 Z M-15,62 Z M-168,63 Z M-14,63 Z M-169,64 Z M-12,64 Z M-171,65 Z M-93,65 L-92,67 Z M-11,65 Z M-172,66 Z M-20,66 Z M-10,66 Z M-174,67 Z M-9,67 Z M-175,68 Z M-13,68 Z M-8,68 Z M-177,69 Z M-7,69 Z M-178,70 Z M-6,70 L-5,74 L-4,72 Z M-179,71 Z M-153,71 Z M-181,72 Z M-182,73 Z M-183,74 Z M-155,74 Z M-185,75 Z M-186,76 Z M-156,76 Z M-188,77 L-190,80 L-186,78 Z M-157,77 Z M60,77 Z M-158,79 Z M-192,80 L-194,83 L-190,81 Z M-159,80 L-158,82 Z M-160,82 L-159,84 Z M-195,83 Z M-196,84 Z M-161,84 L-160,86 Z M61,84 L61,94 L62,94 L62,84 Z M-198,85 L-200,88 L-196,86 Z M-162,86 L-161,88 Z M-201,88 Z M-202,89 Z M-203,90 Z M-204,91 Z M-205,92 Z M62,95 L63,99 Z M63,110 Z M58,114 L58,119 L59,119 L59,114 Z M63,115 L63,126 L64,126 L64,115 Z M57,121 L58,125 Z M56,127 L57,130 Z M-14,133 Z M55,133 Z M-15,134 Z M-16,136 Z M55,136 L56,138 Z M-17,137 Z M-53,138 Z M-18,138 Z M-55,139 L-54,141 L-53,139 Z M-19,139 Z M54,139 L55,143 Z M-57,141 Z M-58,142 Z M-21,142 Z M-59,143 Z M-22,143 Z M-60,144 Z M-23,144 Z M53,144 L54,148 Z M-61,145 Z M-62,146 Z M-63,147 Z M-64,148 Z M-26,148 Z M-65,149 Z M-27,149 Z M52,149 L53,153 Z M-66,150 Z M-28,150 Z M-67,151 Z M-29,151 Z M-68,152 Z M-30,152 Z M-70,153 Z M-31,153 Z M51,153 L48,166 L49,170 L52,158 L52,153 Z M-71,154 Z M-32,154 Z M-72,155 Z M-33,155 Z M-73,156 Z M-74,157 Z M-75,158 Z M-76,159 Z M47,170 L48,174 Z M46,174 L47,178 Z M45,179 L46,182 Z M44,184 Z M-15,214 L-31,218 L-45,226 L-53,235 L-60,250 L-60,268 L-59,274 L-49,276 L-35,276 L-16,273 L0,266 L11,257 L17,250 L21,240 L22,233 L19,225 L15,221 L7,217 L-6,214 Z M84,232 Z M-81,267 Z M-74,270 Z M-72,271 Z M-69,272 Z M-65,273 Z M-59,302 L-55,303 Z M-47,303 Z " fill="#FF0100" transform="translate(404,71)"/>
</svg>
