<?xml version="1.0" encoding="UTF-8"?>
<!-- Generator: visioncortex VTracer 0.6.4 -->
<svg version="1.1" xmlns="http://www.w3.org/2000/svg" width="500" height="552">
<path d="M0,0 L3,0 L2,18 L5,31 L13,38 L24,53 L29,65 L29,72 L25,84 L20,89 L20,108 L18,119 L12,131 L3,140 L-7,145 L-19,149 L-25,153 L-32,161 L-33,163 L-35,184 L-38,192 L-43,198 L-45,199 L-59,199 L-66,195 L-69,190 L-71,181 L-70,167 L-69,156 L-65,147 L-58,139 L-43,129 L-28,121 L-18,114 L-11,106 L-9,99 L-9,90 L-19,84 L-25,76 L-26,68 L-23,56 L-13,42 L-9,38 L-5,31 L-4,29 L-12,8 L-15,5 L-15,2 L-10,3 L-5,8 L-3,8 L-1,1 Z M-194,13 L-191,13 L-192,33 L-188,46 L-174,57 L-164,67 L-157,81 L-156,85 L-156,94 L-158,98 L-153,106 L-150,113 L-148,123 L-148,133 L-150,145 L-151,148 L-160,150 L-171,156 L-181,164 L-188,165 L-192,163 L-193,159 L-189,145 L-181,131 L-181,122 L-183,114 L-190,114 L-198,108 L-204,101 L-206,95 L-206,81 L-198,48 L-197,45 L-199,32 L-203,26 L-209,22 L-209,19 L-203,21 L-197,25 L-196,16 Z M102,32 L106,34 L107,35 L107,44 L116,43 L120,47 L120,49 L110,51 L101,56 L99,56 L98,59 L91,63 L83,86 L76,99 L68,109 L62,113 L51,113 L43,112 L39,116 L31,118 L24,123 L23,119 L25,110 L25,93 L29,89 L32,78 L36,65 L43,57 L50,54 L64,54 L80,58 L85,56 L94,51 L100,43 Z M-152,41 L-151,41 L-150,48 L-146,54 L-137,61 L-131,59 L-116,58 L-104,58 L-88,61 L-80,66 L-77,76 L-75,84 L-59,90 L-46,95 L-37,102 L-29,109 L-28,114 L-31,117 L-44,125 L-56,132 L-61,132 L-69,124 L-77,117 L-84,111 L-92,112 L-98,114 L-107,114 L-117,110 L-125,101 L-131,91 L-136,77 L-137,69 L-146,64 L-154,61 L-164,60 L-163,56 L-158,53 L-155,53 L-155,45 L-154,42 Z M-269,80 L-267,80 L-265,93 L-259,105 L-255,110 L-240,113 L-227,121 L-216,131 L-212,139 L-211,142 L-210,157 L-207,162 L-197,170 L-190,173 L-181,173 L-174,169 L-165,163 L-157,159 L-152,157 L-142,157 L-132,160 L-125,165 L-117,181 L-109,198 L-108,201 L-108,211 L-112,217 L-117,223 L-126,227 L-134,226 L-139,222 L-146,212 L-153,198 L-165,198 L-178,206 L-188,211 L-206,211 L-218,205 L-227,197 L-232,190 L-237,176 L-238,173 L-249,170 L-255,166 L-262,158 L-263,154 L-262,139 L-260,118 L-267,108 L-271,100 L-278,94 L-282,92 L-281,89 L-272,90 L-272,82 Z M-37,81 L-27,82 L-19,88 L-18,91 L-18,98 L-22,105 L-27,104 L-36,95 L-46,89 L-45,85 Z M-19,86 L-17,87 Z M-122,116 L-105,120 L-101,120 L-102,124 L-109,131 L-116,145 L-119,157 L-124,156 L-127,154 L-140,150 L-145,148 L-144,144 L-138,134 L-131,125 Z M203,113 L205,113 L204,117 L200,122 L197,125 L210,125 L210,128 L198,133 L188,133 L178,135 L173,145 L165,156 L156,166 L147,173 L136,174 L130,171 L122,165 L122,163 L116,167 L107,170 L100,171 L87,171 L72,166 L68,165 L60,165 L52,170 L51,173 L51,181 L53,189 L53,202 L50,212 L42,223 L36,228 L26,230 L17,230 L6,228 L-1,223 L-2,221 L-2,214 L7,199 L9,194 L9,182 L8,171 L8,161 L11,149 L19,136 L27,129 L39,123 L55,120 L65,122 L81,128 L93,133 L103,135 L112,134 L115,125 L122,119 L130,117 L142,117 L156,120 L173,125 L185,124 L189,123 L189,121 L198,117 Z M196,125 Z M-86,126 L-77,127 L-69,133 L-66,137 L-66,142 L-71,147 L-76,157 L-77,161 L-77,178 L-76,181 L-76,194 L-83,200 L-91,203 L-97,202 L-103,197 L-111,185 L-113,180 L-114,172 L-114,161 L-111,147 L-106,137 L-97,129 L-93,127 Z M-14,151 L-2,151 L0,157 L0,193 L-4,207 L-8,215 L-13,219 L-15,220 L-23,220 L-30,217 L-34,213 L-35,204 L-31,191 L-31,175 L-29,165 L-23,157 Z M-73,203 L-69,204 L-61,208 L-43,209 L-37,220 L-32,224 L-27,226 L-10,227 L-12,237 L-12,262 L-7,272 L-2,278 L7,284 L8,288 L5,315 L-2,338 L-10,352 L-19,364 L-28,372 L-51,383 L-64,392 L-67,393 L-76,393 L-85,387 L-97,380 L-114,372 L-124,363 L-136,345 L-141,334 L-147,311 L-151,280 L-151,275 L-149,273 L-129,271 L-124,269 L-121,264 L-118,255 L-118,235 L-105,228 L-102,224 L-100,224 L-97,215 L-95,210 L-85,211 L-79,209 L-74,205 Z M-126,282 L-123,285 L-118,285 L-118,291 L-112,299 L-107,302 L-96,303 L-90,302 L-86,310 L-85,315 L-84,315 L-85,306 L-89,295 L-96,287 L-101,284 L-110,282 Z M-18,281 L-32,282 L-43,285 L-49,290 L-49,292 L-51,292 L-55,300 L-57,306 L-57,311 L-54,307 L-53,301 L-50,302 L-36,302 L-31,300 L-25,293 L-24,286 L-25,284 L-17,284 L-15,281 Z M-58,311 L-57,314 Z M-59,346 L-66,349 L-76,349 L-81,347 L-89,347 L-95,352 L-99,353 L-99,355 L-89,355 L-85,354 L-64,353 L-51,355 L-42,355 L-42,353 L-49,350 L-54,346 Z M-90,360 L-89,363 L-82,364 L-76,369 L-64,368 L-61,365 L-61,363 L-52,362 L-52,360 Z M-163,206 L-158,206 L-151,219 L-146,226 L-137,233 L-130,236 L-125,247 L-125,254 L-131,262 L-137,266 L-147,266 L-159,262 L-173,254 L-179,249 L-186,235 L-190,222 L-190,218 L-174,212 Z M54,217 L58,219 L64,235 L64,245 L61,255 L56,264 L48,272 L39,277 L32,279 L14,280 L6,277 L-2,270 L-5,264 L-5,249 L-1,232 L4,234 L15,236 L28,236 L41,231 L48,226 Z M-190,254 L-183,255 L-173,263 L-168,267 L-158,271 L-152,273 L-153,279 L-160,287 L-165,297 L-168,310 L-168,324 L-166,331 L-161,333 L-152,340 L-147,347 L-146,357 L-149,371 L-153,383 L-153,389 L-148,401 L-141,410 L-138,413 L-139,416 L-143,415 L-151,411 L-153,420 L-157,420 L-158,417 L-159,398 L-162,392 L-176,384 L-186,376 L-192,371 L-198,364 L-200,359 L-200,346 L-199,342 L-208,334 L-213,326 L-215,319 L-215,296 L-211,283 L-203,269 L-194,259 Z M52,279 L57,280 L64,290 L70,300 L72,311 L71,327 L65,339 L57,347 L56,350 L58,355 L58,363 L52,373 L43,380 L32,385 L15,389 L-2,391 L-19,401 L-26,417 L-28,417 L-28,408 L-25,401 L-34,399 L-34,396 L-23,395 L-14,389 L-9,385 L7,342 L14,331 L20,326 L34,327 L36,325 L35,317 L31,309 L27,304 L21,300 L18,297 L17,289 L19,287 L38,285 L48,281 Z " fill="#FF0100" transform="translate(287,62)"/>
</svg>
