<?xml version="1.0" encoding="UTF-8"?>
<!-- Generator: visioncortex VTracer 0.6.4 -->
<svg version="1.1" xmlns="http://www.w3.org/2000/svg" width="500" height="552">
<path d="M0,0 L4,0 L13,30 L20,51 L20,53 L32,54 L57,60 L62,62 L64,58 L69,55 L77,54 L84,57 L90,64 L91,74 L107,83 L120,93 L125,94 L149,82 L165,74 L175,69 L178,69 L176,73 L165,96 L151,124 L157,132 L162,139 L162,142 L164,142 L169,151 L170,152 L177,152 L183,155 L189,162 L189,174 L183,181 L185,191 L189,207 L191,222 L201,226 L246,241 L252,243 L252,246 L202,262 L193,265 L190,265 L189,278 L185,295 L183,305 L188,311 L188,323 L184,329 L178,333 L169,333 L167,339 L160,350 L156,356 L154,356 L152,362 L162,381 L176,410 L181,419 L181,422 L175,420 L146,406 L127,396 L120,393 L107,403 L92,412 L90,421 L83,428 L77,430 L69,429 L63,425 L54,427 L31,432 L23,434 L11,471 L5,490 L4,494 L0,494 L-8,468 L-19,434 L-45,429 L-62,424 L-64,428 L-69,431 L-79,431 L-86,427 L-90,420 L-90,411 L-96,409 L-112,398 L-117,394 L-123,396 L-142,406 L-158,414 L-174,421 L-177,422 L-176,418 L-168,401 L-160,385 L-152,369 L-149,362 L-154,356 L-154,354 L-156,354 L-158,348 L-160,348 L-168,334 L-177,333 L-183,329 L-186,325 L-187,322 L-187,312 L-183,306 L-181,303 L-186,286 L-189,269 L-189,264 L-198,262 L-229,252 L-248,246 L-248,243 L-205,229 L-190,224 L-186,200 L-181,182 L-186,178 L-189,172 L-189,164 L-185,157 L-180,153 L-177,152 L-168,152 L-166,151 L-165,146 L-163,146 L-162,142 L-150,125 L-148,121 L-168,81 L-175,67 L-174,64 L-148,77 L-125,88 L-119,91 L-115,90 L-102,81 L-91,75 L-90,66 L-86,60 L-81,56 L-79,55 L-70,55 L-63,59 L-62,62 L-41,56 L-24,53 L-16,53 L-14,44 L-3,10 Z M-3,51 L-3,67 L-18,69 L-18,78 L-9,79 L-5,81 L-4,83 L-4,92 L-8,96 L-20,101 L-26,108 L-29,116 L-29,126 L-50,129 L-81,134 L-104,140 L-123,148 L-135,155 L-145,163 L-154,171 L-163,183 L-168,194 L-173,211 L-175,224 L-175,241 L-174,253 L-179,255 L-179,262 L-175,266 L-165,272 L-157,281 L-149,294 L-141,311 L-141,316 L-142,319 L-144,319 L-148,327 L-150,330 L-150,338 L-144,341 L-135,341 L-130,342 L-127,353 L-127,358 L-138,366 L-139,368 L-139,376 L-130,379 L-117,379 L-90,372 L-59,366 L-36,363 L-11,361 L14,361 L45,364 L73,368 L107,375 L122,379 L134,379 L143,376 L143,367 L137,362 L132,359 L131,354 L134,344 L139,341 L148,341 L153,339 L154,338 L154,329 L150,322 L145,316 L146,309 L155,290 L164,278 L170,271 L182,264 L183,262 L183,255 L178,253 L179,245 L179,222 L176,207 L171,192 L165,180 L156,169 L146,160 L136,153 L119,144 L98,137 L74,132 L47,128 L37,127 L33,126 L33,116 L30,108 L24,101 L9,94 L8,92 L8,84 L11,80 L22,78 L22,69 L11,68 L7,65 L7,51 Z M-31,149 L-22,149 L-18,151 L-18,233 L-22,237 L-21,242 L-26,247 L-28,250 L-28,255 L-20,260 L-18,266 L-13,266 L-9,272 L-9,280 L-11,280 L-13,284 L-19,288 L-46,288 L-55,283 L-56,281 L-55,271 L-47,267 L-45,260 L-41,257 L-41,250 L-44,247 L-52,246 L-53,238 L-57,237 L-65,237 L-67,235 L-69,205 L-69,192 L-66,178 L-60,167 L-55,161 L-41,152 Z M26,149 L35,149 L48,153 L61,163 L69,175 L72,184 L73,194 L73,212 L71,236 L68,237 L61,237 L58,239 L56,246 L48,247 L45,250 L45,257 L47,259 L51,260 L51,267 L59,271 L60,274 L60,281 L56,285 L50,288 L23,288 L16,283 L13,280 L13,273 L16,266 L23,267 L24,261 L32,255 L32,250 L27,244 L27,237 L23,234 L22,213 L22,151 Z M91,160 L105,165 L122,174 L134,183 L143,193 L147,201 L150,218 L150,234 L148,247 L146,250 L138,252 L136,259 L130,259 L125,264 L124,268 L128,273 L126,277 L125,280 L130,287 L130,292 L123,298 L117,301 L108,301 L99,298 L94,293 L94,287 L98,283 L106,280 L106,274 L111,273 L113,269 L113,262 L109,258 L105,256 L106,247 L105,246 L106,231 L106,207 L103,191 L98,178 L90,162 Z M-91,161 L-86,161 L-93,177 L-98,188 L-101,200 L-102,208 L-102,231 L-101,246 L-102,247 L-102,253 L-101,257 L-107,259 L-109,263 L-109,269 L-106,273 L-102,274 L-102,280 L-93,284 L-90,287 L-90,293 L-97,299 L-104,301 L-113,301 L-123,295 L-126,292 L-126,287 L-122,282 L-122,277 L-124,273 L-120,268 L-121,264 L-126,259 L-132,259 L-134,252 L-143,249 L-145,241 L-146,224 L-144,205 L-140,195 L-136,189 L-134,189 L-132,185 L-124,178 L-109,169 Z " fill="#FF0100" transform="translate(248,29)"/>
</svg>
