<?xml version="1.0" encoding="UTF-8"?>
<!-- Generator: visioncortex VTracer 0.6.4 -->
<svg version="1.1" xmlns="http://www.w3.org/2000/svg" width="559" height="500">
<path d="M0,0 L19,0 L20,20 L22,24 L33,24 L41,27 L41,44 L29,45 L24,48 L22,54 L24,66 L27,69 L37,71 L46,76 L54,85 L58,96 L59,101 L59,112 L67,112 L97,117 L133,125 L169,135 L201,145 L222,156 L233,164 L243,173 L254,184 L266,202 L275,221 L281,240 L285,261 L286,272 L286,303 L291,311 L291,322 L287,327 L279,331 L270,334 L261,343 L250,358 L241,375 L232,398 L234,403 L242,414 L246,423 L247,433 L244,439 L236,443 L227,443 L220,442 L216,444 L214,448 L212,458 L212,467 L221,470 L229,476 L231,480 L231,487 L226,496 L218,500 L200,500 L178,493 L148,487 L112,482 L65,477 L10,472 L-8,472 L-37,474 L-75,479 L-117,487 L-159,497 L-170,499 L-193,499 L-201,496 L-205,491 L-207,487 L-207,481 L-204,476 L-198,472 L-189,469 L-186,462 L-189,451 L-193,445 L-196,443 L-212,442 L-219,439 L-222,436 L-223,427 L-219,417 L-211,405 L-207,400 L-208,392 L-213,380 L-219,369 L-231,353 L-243,340 L-250,333 L-262,327 L-267,322 L-268,321 L-268,311 L-262,305 L-263,279 L-262,261 L-258,239 L-252,221 L-244,205 L-234,189 L-224,178 L-219,172 L-211,165 L-198,155 L-182,146 L-168,139 L-144,131 L-114,124 L-77,118 L-51,115 L-41,115 L-39,99 L-35,88 L-29,79 L-22,73 L-17,71 L-6,69 L-1,64 L-1,51 L-5,46 L-22,44 L-24,27 L-15,25 L-3,25 L0,22 Z M-32,152 L-46,154 L-58,159 L-67,165 L-78,175 L-84,185 L-88,195 L-92,216 L-93,230 L-93,248 L-91,271 L-89,278 L-77,280 L-72,283 L-68,292 L-63,296 L-56,296 L-53,298 L-52,301 L-52,312 L-54,317 L-59,319 L-60,321 L-60,327 L-63,330 L-71,334 L-75,341 L-73,350 L-67,355 L-59,358 L-52,359 L-30,359 L-20,357 L-14,353 L-11,348 L-10,344 L-10,335 L-11,331 L-19,331 L-23,327 L-24,320 L-34,314 L-37,311 L-38,303 L-34,295 L-29,290 L-28,281 L-24,276 L-20,274 L-19,236 L-18,178 L-18,153 Z M50,152 L42,153 L42,195 L43,260 L44,274 L51,279 L52,281 L53,290 L59,297 L61,301 L61,310 L56,315 L48,319 L46,329 L43,331 L35,331 L34,333 L34,346 L39,354 L47,358 L55,359 L76,359 L89,356 L95,352 L98,347 L98,339 L93,333 L85,329 L84,328 L83,319 L77,315 L76,313 L76,300 L79,296 L87,296 L93,291 L95,284 L101,280 L113,278 L115,269 L116,259 L116,220 L113,201 L108,185 L101,174 L91,165 L80,158 L69,154 L56,152 Z M151,170 L160,190 L166,206 L171,227 L173,243 L173,273 L171,288 L171,295 L173,295 L174,299 L174,306 L173,310 L179,312 L182,315 L183,317 L183,330 L179,338 L172,342 L170,352 L161,352 L158,359 L158,367 L162,372 L171,375 L185,376 L194,374 L200,370 L204,362 L203,358 L199,352 L198,348 L198,341 L199,335 L195,331 L195,323 L199,318 L214,310 L217,304 L225,299 L230,297 L232,292 L235,272 L235,257 L232,240 L226,224 L219,213 L210,202 L200,193 L185,183 L168,175 L153,170 Z M-129,170 L-147,176 L-168,187 L-182,198 L-191,207 L-200,220 L-207,235 L-211,253 L-211,276 L-208,293 L-207,297 L-195,302 L-192,306 L-191,310 L-175,318 L-171,323 L-171,330 L-176,337 L-175,339 L-175,351 L-179,357 L-180,358 L-179,366 L-174,372 L-168,375 L-159,376 L-143,374 L-137,371 L-134,365 L-135,357 L-137,352 L-146,352 L-148,347 L-150,341 L-155,338 L-158,334 L-160,326 L-160,319 L-157,313 L-154,311 L-149,310 L-150,307 L-150,298 L-147,294 L-149,276 L-149,240 L-146,220 L-140,199 L-132,180 L-127,170 Z " fill="#FE0000" transform="translate(268,0)"/>
</svg>
