<?xml version="1.0" encoding="UTF-8"?>
<!-- Generator: visioncortex VTracer 0.6.4 -->
<svg version="1.1" xmlns="http://www.w3.org/2000/svg" width="500" height="552">
<path d="M0,0 L5,2 L9,6 L11,16 L15,17 L17,13 L18,4 L21,0 L23,0 L22,10 L23,16 L19,25 L20,33 L24,45 L25,50 L26,66 L37,51 L42,46 L45,45 L45,35 L47,29 L47,20 L46,13 L50,4 L53,3 L51,15 L54,20 L55,28 L62,20 L69,12 L73,7 L74,5 L76,5 L75,11 L68,20 L64,29 L56,38 L53,49 L46,58 L42,66 L38,71 L36,79 L32,87 L28,101 L24,112 L19,140 L18,150 L21,155 L29,134 L37,118 L42,102 L45,92 L55,78 L65,65 L76,50 L80,44 L82,44 L84,40 L90,31 L94,24 L102,20 L108,12 L109,10 L111,10 L110,19 L101,27 L101,33 L109,30 L117,26 L122,17 L126,15 L125,20 L123,23 L130,20 L129,24 L124,28 L120,32 L111,36 L106,41 L98,45 L93,51 L88,60 L78,75 L70,85 L65,96 L60,111 L52,136 L42,162 L40,183 L39,192 L52,182 L68,169 L79,160 L87,152 L88,150 L90,150 L92,145 L101,128 L103,111 L98,89 L94,80 L94,67 L96,67 L98,76 L102,82 L109,91 L110,96 L120,79 L124,53 L127,46 L130,41 L132,27 L134,27 L134,47 L131,53 L131,76 L128,89 L123,99 L122,107 L128,105 L135,100 L137,100 L137,98 L142,93 L150,87 L153,81 L156,76 L159,68 L161,51 L167,44 L169,44 L168,49 L167,54 L169,56 L173,54 L184,53 L189,51 L188,55 L186,58 L175,59 L172,65 L169,67 L164,84 L158,99 L144,114 L134,123 L133,125 L131,125 L131,128 L141,124 L157,116 L166,111 L177,109 L195,108 L199,106 L207,106 L214,108 L215,111 L201,111 L187,117 L187,120 L204,129 L209,132 L219,136 L224,143 L223,147 L221,147 L218,141 L207,138 L205,138 L206,142 L209,145 L208,148 L202,145 L199,141 L197,134 L190,131 L182,128 L175,125 L164,125 L148,133 L139,139 L127,144 L119,150 L114,155 L111,156 L109,160 L101,168 L100,170 L98,170 L98,172 L92,177 L83,188 L75,199 L55,219 L52,225 L51,230 L51,246 L57,260 L58,267 L56,277 L51,288 L50,296 L52,302 L53,306 L35,314 L28,317 L27,318 L6,319 L-9,319 L-26,316 L-32,314 L-31,278 L-32,249 L-34,225 L-37,204 L-45,192 L-45,190 L-47,190 L-51,182 L-63,169 L-65,168 L-65,166 L-69,164 L-77,157 L-77,155 L-94,151 L-107,150 L-114,148 L-121,149 L-143,154 L-153,159 L-158,164 L-163,166 L-171,172 L-173,177 L-175,177 L-178,187 L-184,200 L-186,207 L-190,215 L-191,218 L-193,218 L-193,210 L-195,214 L-202,216 L-202,213 L-197,209 L-195,204 L-190,202 L-188,189 L-181,172 L-193,177 L-202,177 L-210,178 L-212,182 L-214,182 L-213,175 L-210,173 L-192,170 L-181,163 L-172,156 L-162,147 L-158,143 L-142,135 L-138,131 L-146,124 L-153,116 L-159,111 L-171,106 L-183,105 L-194,102 L-205,103 L-214,97 L-215,93 L-211,94 L-205,97 L-193,97 L-187,98 L-179,98 L-182,91 L-191,84 L-193,82 L-193,79 L-189,81 L-174,90 L-168,94 L-158,99 L-150,104 L-142,112 L-139,116 L-135,115 L-125,121 L-122,124 L-116,126 L-109,127 L-87,128 L-83,129 L-87,121 L-92,102 L-103,89 L-119,81 L-126,76 L-130,72 L-134,69 L-144,66 L-144,64 L-130,64 L-124,68 L-123,60 L-125,48 L-122,49 L-118,55 L-114,71 L-112,75 L-102,78 L-93,86 L-93,88 L-91,88 L-90,90 L-87,77 L-88,75 L-89,65 L-94,54 L-101,35 L-100,28 L-98,28 L-96,36 L-93,40 L-88,50 L-83,49 L-80,38 L-74,28 L-72,14 L-70,14 L-69,17 L-69,33 L-73,38 L-76,46 L-76,53 L-79,60 L-78,68 L-77,73 L-78,85 L-76,90 L-73,108 L-71,115 L-61,126 L-53,136 L-45,143 L-45,145 L-40,147 L-33,156 L-25,170 L-16,180 L-16,146 L-21,110 L-23,101 L-30,91 L-35,87 L-48,81 L-55,75 L-60,66 L-69,56 L-70,51 L-66,53 L-57,59 L-52,64 L-51,58 L-53,49 L-57,43 L-57,38 L-52,42 L-47,47 L-44,55 L-41,71 L-37,75 L-25,78 L-26,51 L-28,39 L-30,24 L-38,14 L-36,5 L-35,3 L-33,3 L-32,14 L-25,18 L-22,26 L-20,25 L-18,14 L-12,7 L-10,7 L-12,12 L-14,15 L-15,29 L-18,33 L-15,44 L-14,57 L-12,60 L-12,76 L-7,83 L-5,96 L1,114 L2,118 L7,102 L13,81 L14,71 L14,52 L9,32 L7,22 L4,16 L4,7 L0,2 Z M-83,129 Z M-179,169 Z M-180,170 Z M-192,207 L-191,209 Z M27,258 L25,275 L27,277 L32,277 L34,273 L33,267 L29,258 Z M-11,73 L-9,74 Z M83,215 L149,215 L152,220 L152,227 L155,230 L165,233 L172,234 L200,234 L216,233 L226,230 L236,228 L251,224 L256,224 L257,229 L258,248 L258,277 L247,277 L238,273 L220,269 L191,266 L153,266 L151,277 L146,289 L136,310 L126,324 L114,338 L100,350 L86,359 L70,367 L49,374 L32,377 L1,377 L-16,374 L-32,369 L-48,362 L-64,352 L-74,344 L-82,337 L-89,329 L-99,316 L-107,302 L-107,300 L-109,300 L-115,285 L-120,266 L-122,248 L-119,235 L-117,235 L-109,258 L-102,271 L-101,275 L-101,277 L-98,277 L-88,290 L-80,298 L-76,301 L-75,304 L-71,305 L-58,313 L-45,319 L-29,324 L-8,327 L4,327 L21,326 L30,333 L30,335 L34,336 L32,330 L33,324 L53,316 L66,307 L73,299 L80,284 L82,273 L78,271 L75,266 L73,256 L73,237 L77,227 L81,222 Z M264,233 L269,233 L279,239 L284,245 L285,247 L285,258 L279,267 L277,269 L273,269 L273,271 L265,271 L264,252 Z M-80,352 L-76,354 L-62,364 L-53,369 L-55,373 L-68,383 L-76,387 L-77,390 L-79,410 L-86,420 L-95,432 L-99,439 L-105,445 L-109,460 L-110,466 L-113,465 L-113,452 L-111,443 L-108,441 L-108,437 L-113,437 L-116,440 L-118,448 L-125,456 L-127,456 L-125,451 L-123,448 L-122,438 L-119,435 L-117,431 L-110,428 L-103,426 L-100,423 L-96,411 L-94,406 L-92,390 L-104,391 L-106,393 L-108,404 L-113,412 L-121,416 L-132,415 L-140,420 L-144,426 L-150,428 L-159,431 L-166,435 L-168,439 L-170,439 L-170,433 L-165,428 L-153,423 L-151,420 L-149,416 L-144,408 L-137,402 L-135,401 L-122,401 L-120,398 L-121,391 L-122,388 L-122,379 L-117,374 L-111,369 L-107,368 L-89,368 L-87,363 Z M95,364 L97,364 L103,375 L108,381 L125,386 L152,386 L177,387 L180,386 L184,388 L186,394 L194,398 L193,401 L182,397 L178,396 L169,397 L167,397 L168,404 L172,408 L174,416 L170,415 L162,406 L160,405 L159,399 L124,398 L125,416 L136,429 L146,433 L150,438 L150,440 L152,440 L150,447 L148,447 L148,442 L143,438 L137,438 L139,443 L138,446 L139,454 L137,457 L135,457 L132,443 L125,437 L120,432 L114,423 L111,419 L109,410 L108,397 L99,396 L92,393 L86,386 L80,378 L78,373 L94,365 Z M-47,373 L-23,381 L-8,384 L12,386 L11,410 L11,433 L16,435 L26,443 L30,446 L33,455 L35,462 L43,467 L45,471 L54,475 L53,478 L41,475 L39,472 L34,473 L36,481 L31,480 L28,474 L27,465 L23,461 L21,454 L17,451 L12,450 L10,458 L7,464 L2,469 L2,475 L5,481 L6,495 L3,499 L2,503 L-1,503 L-2,500 L0,496 L-1,488 L-3,486 L-7,492 L-11,494 L-15,494 L-15,492 L-12,490 L-11,482 L-11,478 L-9,478 L-8,468 L-4,462 L-1,455 L-2,449 L-12,433 L-13,429 L-13,414 L-14,403 L-21,410 L-23,415 L-22,424 L-20,429 L-20,436 L-24,442 L-31,449 L-35,456 L-39,459 L-41,468 L-39,468 L-37,473 L-35,473 L-34,478 L-35,491 L-39,490 L-40,476 L-46,475 L-49,481 L-58,487 L-61,487 L-59,483 L-56,482 L-54,478 L-52,475 L-52,466 L-50,466 L-50,461 L-45,456 L-42,451 L-41,444 L-36,438 L-37,430 L-40,422 L-41,416 L-52,422 L-61,426 L-65,440 L-69,447 L-73,457 L-77,463 L-83,470 L-85,474 L-85,483 L-88,482 L-89,480 L-89,472 L-87,465 L-80,459 L-75,446 L-76,437 L-81,438 L-86,443 L-91,445 L-90,441 L-85,436 L-82,433 L-76,430 L-75,427 L-76,420 L-70,411 L-65,408 L-54,405 L-45,400 L-43,397 L-44,388 Z M63,379 L68,382 L73,390 L73,399 L80,404 L91,408 L98,408 L103,411 L104,415 L104,428 L105,435 L106,442 L108,445 L108,452 L110,455 L116,455 L120,454 L118,459 L117,460 L110,460 L103,455 L103,448 L98,449 L97,457 L93,455 L93,445 L96,440 L96,434 L93,431 L92,425 L79,420 L71,418 L66,416 L61,420 L59,420 L57,427 L55,429 L55,436 L58,445 L59,450 L61,452 L61,468 L58,472 L56,472 L57,465 L57,457 L55,453 L53,452 L52,443 L47,442 L45,453 L42,453 L41,437 L40,430 L47,422 L50,410 L49,401 L44,393 L40,387 L40,384 L60,380 Z " fill="#FF0100" transform="translate(215,25)"/>
</svg>
