<?xml version="1.0" encoding="UTF-8"?>
<!-- Generator: visioncortex VTracer 0.6.4 -->
<svg version="1.1" xmlns="http://www.w3.org/2000/svg" width="500" height="552">
<path d="M0,0 L4,1 L9,11 L10,15 L11,53 L14,69 L18,77 L22,75 L28,68 L33,66 L49,66 L55,69 L62,77 L64,77 L68,69 L71,52 L72,15 L76,4 L79,0 L82,0 L79,10 L79,20 L85,44 L85,54 L82,62 L76,71 L71,77 L66,82 L70,84 L72,86 L71,94 L69,95 L56,89 L52,88 L29,88 L20,92 L12,95 L10,90 L11,85 L14,82 L16,82 L11,77 L0,63 L-3,55 L-3,45 L1,29 L3,21 L3,11 Z M-189,23 L-166,23 L-148,25 L-131,29 L-111,38 L-86,53 L-62,67 L-33,83 L-5,98 L5,102 L4,109 L1,117 L-1,127 L-1,137 L1,146 L4,151 L3,160 L1,172 L0,187 L0,205 L-9,213 L-20,221 L-37,234 L-53,242 L-66,245 L-76,245 L-91,242 L-110,235 L-124,227 L-135,218 L-144,209 L-151,199 L-150,192 L-141,181 L-129,172 L-120,166 L-118,163 L-130,162 L-140,158 L-151,152 L-162,143 L-170,135 L-181,119 L-191,98 L-199,73 L-205,52 L-209,41 L-209,28 L-204,24 Z M247,23 L275,23 L286,24 L291,28 L291,41 L284,62 L278,83 L271,103 L260,124 L250,137 L241,146 L231,153 L216,161 L206,163 L200,163 L204,168 L218,177 L227,185 L233,194 L232,201 L223,212 L213,222 L198,232 L182,239 L169,243 L157,245 L149,245 L139,243 L124,237 L111,228 L93,214 L85,208 L82,205 L82,183 L79,159 L78,151 L81,146 L83,135 L82,121 L79,111 L77,107 L77,102 L89,97 L111,85 L141,69 L168,53 L183,44 L201,34 L220,27 L237,24 Z M36,92 L47,92 L59,95 L69,101 L75,108 L80,120 L81,127 L81,136 L79,145 L74,153 L66,159 L54,164 L47,166 L34,166 L18,160 L9,154 L3,146 L1,138 L1,128 L3,117 L9,105 L17,98 L26,94 Z M39,106 L35,117 L29,126 L26,136 L28,145 L33,149 L45,149 L51,144 L52,141 L52,133 L48,123 L42,114 L40,106 Z M8,161 L15,162 L25,168 L36,171 L46,171 L57,168 L69,161 L74,161 L77,165 L80,184 L80,209 L77,233 L73,252 L68,267 L55,299 L49,318 L45,318 L44,316 L43,304 L42,299 L40,299 L38,316 L36,319 L33,318 L27,299 L11,259 L6,240 L3,219 L2,205 L2,185 L5,165 Z " fill="#FF0100" transform="translate(209,117)"/>
</svg>
