<?xml version="1.0" encoding="UTF-8"?>
<!-- Generator: visioncortex VTracer 0.6.4 -->
<svg version="1.1" xmlns="http://www.w3.org/2000/svg" width="500" height="552">
<path d="M0,0 L21,0 L37,3 L51,8 L63,15 L72,23 L79,33 L84,44 L87,55 L87,81 L83,96 L75,116 L63,142 L43,181 L39,195 L37,209 L37,216 L40,225 L46,228 L56,227 L68,222 L80,214 L83,215 L78,227 L67,238 L58,249 L48,260 L39,271 L26,286 L16,299 L4,313 L-5,323 L-12,331 L-24,344 L-39,360 L-61,382 L-78,394 L-92,403 L-104,410 L-121,417 L-132,420 L-148,421 L-158,419 L-179,414 L-197,407 L-211,397 L-222,386 L-229,376 L-233,370 L-231,366 L-224,361 L-216,358 L-212,359 L-211,362 L-209,362 L-209,364 L-205,366 L-194,376 L-179,387 L-164,393 L-159,394 L-142,394 L-128,390 L-117,384 L-114,384 L-117,282 L-118,266 L-131,278 L-139,285 L-149,294 L-159,303 L-162,304 L-162,248 L-161,246 L-168,248 L-180,259 L-191,268 L-195,272 L-199,271 L-207,264 L-219,252 L-228,254 L-270,270 L-296,280 L-298,280 L-292,290 L-283,300 L-275,307 L-266,313 L-267,318 L-276,338 L-280,336 L-291,327 L-304,315 L-315,301 L-323,287 L-329,272 L-331,262 L-331,239 L-327,223 L-321,209 L-310,191 L-296,173 L-282,156 L-273,146 L-264,135 L-250,120 L-243,112 L-231,99 L-222,89 L-211,81 L-199,70 L-186,57 L-177,46 L-169,37 L-156,20 L-147,8 L-145,8 L-147,20 L-148,25 L-148,43 L-145,49 L-141,52 L-138,53 L-130,53 L-120,50 L-106,43 L-95,34 L-80,25 L-57,14 L-30,5 L-16,2 Z M9,19 L-7,21 L-37,28 L-62,40 L-85,53 L-107,66 L-121,75 L-127,79 L-131,80 L-139,80 L-144,77 L-154,70 L-162,66 L-170,74 L-178,81 L-181,84 L-180,102 L-174,152 L-165,151 L-127,142 L-142,221 L-141,258 L-134,252 L-126,245 L-114,234 L-106,227 L-94,216 L-84,207 L-74,198 L-64,189 L-54,180 L-44,171 L-34,162 L-24,153 L-21,151 L37,151 L45,135 L52,121 L62,97 L66,81 L67,74 L67,58 L64,46 L58,36 L51,29 L39,23 L29,20 L19,19 Z M-203,105 L-229,131 L-236,139 L-246,150 L-255,161 L-268,177 L-281,195 L-293,215 L-301,233 L-304,245 L-305,256 L-304,260 L-294,257 L-242,237 L-216,227 L-210,228 L-203,235 L-195,242 L-191,240 L-180,230 L-177,228 L-165,226 L-163,225 L-151,173 L-151,170 L-160,171 L-195,178 L-195,169 L-202,105 Z M-11,169 L-18,176 L-26,183 L-36,192 L-46,201 L-54,208 L-65,218 L-73,225 L-83,234 L-93,243 L-94,244 L-96,339 L-96,374 L-88,370 L-77,361 L-71,353 L-40,322 L-33,314 L-23,303 L-14,292 L-2,277 L10,259 L17,247 L19,240 L17,238 L16,234 L10,229 L8,224 L8,207 L12,196 L24,176 L26,171 Z M-159,74 L-157,74 L-158,76 Z M-259,320 L-239,320 L-231,323 L-226,328 L-224,334 L-222,346 L-220,350 L-238,364 L-248,373 L-254,380 L-258,384 L-264,382 L-268,371 L-279,369 L-286,364 L-284,360 L-274,345 L-260,321 Z M-299,372 L-284,372 L-278,375 L-270,381 L-266,388 L-265,392 L-265,404 L-268,413 L-273,418 L-279,416 L-281,413 L-283,405 L-287,400 L-298,393 L-306,389 L-311,387 L-313,383 L-313,380 L-304,374 Z M-317,392 L-310,393 L-299,399 L-289,408 L-284,416 L-284,419 L-299,428 L-310,437 L-316,444 L-319,449 L-325,450 L-330,446 L-337,438 L-345,430 L-343,425 L-335,417 L-323,409 L-319,401 Z M-352,432 L-347,433 L-335,444 L-327,451 L-323,454 L-322,457 L-322,467 L-326,480 L-333,493 L-341,503 L-349,510 L-356,514 L-366,515 L-376,512 L-385,504 L-393,494 L-397,485 L-398,474 L-394,458 L-390,451 L-374,443 Z M-403,497 L-399,499 L-388,510 L-375,519 L-376,524 L-385,532 L-393,536 L-404,536 L-409,532 L-413,525 L-413,512 L-406,500 Z " fill="#FF0100" transform="translate(413,8)"/>
</svg>
