<?xml version="1.0" encoding="UTF-8"?>
<!-- Generator: visioncortex VTracer 0.6.4 -->
<svg version="1.1" xmlns="http://www.w3.org/2000/svg" width="500" height="552">
<path d="M0,0 L4,0 L10,21 L12,30 L15,30 L15,32 L19,34 L21,36 L20,44 L19,48 L20,53 L31,54 L48,57 L69,43 L85,35 L106,29 L120,26 L127,25 L151,25 L163,28 L179,36 L190,47 L197,58 L202,71 L203,77 L203,92 L199,108 L190,132 L181,152 L180,154 L184,156 L189,162 L189,173 L185,179 L183,181 L185,191 L185,195 L191,192 L198,194 L201,198 L199,209 L191,217 L191,223 L239,239 L252,243 L252,246 L238,251 L221,256 L191,266 L186,292 L183,302 L184,306 L188,312 L188,323 L184,329 L178,333 L169,334 L167,339 L155,357 L152,360 L154,365 L172,401 L175,408 L181,419 L181,422 L177,421 L148,407 L122,394 L118,395 L101,407 L92,412 L89,422 L81,429 L78,430 L71,430 L65,427 L61,425 L43,430 L23,434 L6,486 L4,494 L0,494 L-9,465 L-19,435 L-19,433 L-32,432 L-57,426 L-61,425 L-67,430 L-75,432 L-84,429 L-89,423 L-91,414 L-91,412 L-107,402 L-114,397 L-118,408 L-126,426 L-135,436 L-142,440 L-146,443 L-152,445 L-159,445 L-160,450 L-165,456 L-179,464 L-184,465 L-184,463 L-188,464 L-198,450 L-200,445 L-199,436 L-193,426 L-187,419 L-187,400 L-183,390 L-175,383 L-161,375 L-153,371 L-149,363 L-152,359 L-152,357 L-154,357 L-164,342 L-169,334 L-177,333 L-182,330 L-186,325 L-188,316 L-185,308 L-181,303 L-186,287 L-189,271 L-189,264 L-198,262 L-229,252 L-246,247 L-248,246 L-248,243 L-199,227 L-190,224 L-186,200 L-181,183 L-188,175 L-189,172 L-189,164 L-185,157 L-179,153 L-176,152 L-168,152 L-166,151 L-165,146 L-163,146 L-161,141 L-160,138 L-158,138 L-156,133 L-148,123 L-150,117 L-171,75 L-175,67 L-174,64 L-146,78 L-123,89 L-119,91 L-115,90 L-102,81 L-91,75 L-90,66 L-86,60 L-81,56 L-78,55 L-70,55 L-62,60 L-62,62 L-44,57 L-29,54 L-16,53 L-14,44 L-2,7 Z M137,31 L119,33 L94,39 L81,44 L70,50 L55,60 L40,69 L29,74 L22,75 L16,72 L11,66 L9,66 L9,54 L14,39 L10,41 L2,50 L-12,70 L-20,80 L-28,87 L-35,93 L-42,101 L-51,111 L-60,121 L-67,128 L-74,136 L-86,149 L-97,163 L-107,175 L-117,190 L-124,201 L-128,213 L-129,219 L-129,239 L-124,256 L-116,270 L-107,284 L-105,284 L-103,288 L-96,294 L-89,297 L-85,296 L-81,288 L-79,280 L-85,275 L-93,270 L-100,262 L-105,251 L-107,243 L-107,219 L-95,191 L-83,176 L-76,167 L-65,154 L-55,143 L-48,135 L-48,133 L-45,132 L-38,124 L-24,109 L3,82 L10,88 L15,92 L27,92 L34,89 L48,80 L74,65 L95,55 L114,49 L124,47 L135,46 L147,46 L166,53 L173,58 L178,68 L180,76 L180,94 L174,114 L166,131 L158,147 L142,178 L137,193 L136,198 L136,210 L137,213 L133,211 L129,203 L130,195 L135,182 L143,167 L151,153 L154,144 L154,141 L149,142 L129,151 L107,159 L103,157 L97,150 L89,139 L84,136 L75,147 L64,160 L57,168 L49,178 L45,177 L40,173 L33,164 L24,167 L15,173 L7,179 L2,178 L1,163 L-2,160 L-7,159 L-18,168 L-25,174 L-28,179 L-31,189 L-38,197 L-53,207 L-61,214 L-69,221 L-75,230 L-80,242 L-93,253 L-95,257 L-94,261 L-89,266 L-80,273 L-66,279 L-47,285 L-44,293 L-42,293 L-41,298 L-35,308 L-24,320 L-18,325 L2,333 L12,334 L28,331 L44,324 L55,317 L59,314 L59,312 L63,310 L71,303 L81,295 L90,284 L99,274 L106,266 L116,252 L130,237 L141,221 L144,222 L143,227 L140,233 L129,247 L116,263 L106,276 L95,289 L86,299 L77,308 L77,310 L73,312 L62,322 L52,329 L26,341 L14,344 L2,344 L-5,341 L-26,329 L-33,322 L-36,317 L-43,318 L-51,324 L-50,328 L-42,339 L-35,346 L-24,353 L-13,358 L-1,361 L6,362 L24,362 L32,360 L41,356 L50,353 L61,346 L77,334 L89,323 L97,316 L108,305 L115,297 L127,283 L135,273 L149,256 L157,246 L158,243 L160,243 L169,232 L180,220 L187,212 L193,205 L194,200 L191,199 L181,206 L173,209 L161,209 L158,206 L157,202 L156,186 L166,167 L177,145 L188,119 L194,101 L196,93 L196,76 L192,63 L185,51 L176,42 L166,36 L152,32 Z M135,52 L117,55 L101,61 L82,71 L60,84 L40,93 L27,97 L18,97 L6,90 L2,92 L-7,102 L-15,110 L-22,118 L-34,131 L-43,141 L-50,148 L-54,153 L-53,156 L-38,157 L-21,161 L-5,150 L-1,152 L7,159 L13,162 L19,162 L27,156 L34,155 L42,159 L46,162 L50,161 L58,155 L71,140 L78,132 L82,130 L90,131 L97,138 L105,148 L106,149 L114,149 L138,141 L143,139 L156,138 L159,132 L162,125 L170,109 L175,93 L175,76 L171,67 L167,62 L157,56 L144,52 Z M-59,160 L-66,167 L-69,169 L-69,171 L-71,171 L-83,187 L-89,195 L-99,216 L-102,228 L-101,239 L-99,243 L-94,242 L-88,235 L-80,231 L-75,213 L-65,205 L-48,196 L-40,190 L-37,185 L-38,178 L-35,170 L-35,164 L-50,163 Z M-72,285 L-77,291 L-88,312 L-92,319 L-91,322 L-79,327 L-76,333 L-72,334 L-67,329 L-66,326 L-62,324 L-47,314 L-42,310 L-44,310 L-48,292 L-51,288 L-59,288 L-68,285 Z M-103,326 L-114,333 L-112,337 L-102,343 L-91,353 L-89,353 L-87,361 L-83,361 L-80,352 L-80,344 L-82,336 L-87,331 L-97,327 Z M-118,343 L-124,355 L-124,357 L-128,359 L-138,369 L-139,375 L-138,377 L-133,380 L-125,387 L-120,386 L-110,375 L-96,366 L-92,363 L-101,352 L-108,346 L-114,343 Z M-145,375 L-168,386 L-178,394 L-180,400 L-180,417 L-175,427 L-170,433 L-164,437 L-161,438 L-152,438 L-144,434 L-135,427 L-131,421 L-126,408 L-122,400 L-123,394 L-128,388 L-136,381 L-138,377 Z M-116,395 Z M-184,427 L-191,435 L-193,439 L-193,445 L-188,453 L-186,456 L-180,457 L-169,451 L-165,446 L-164,442 L-177,432 L-182,427 Z " fill="#FF0100" transform="translate(248,29)"/>
</svg>
