<?xml version="1.0" encoding="UTF-8"?>
<!-- Generator: visioncortex VTracer 0.6.4 -->
<svg version="1.1" xmlns="http://www.w3.org/2000/svg" width="500" height="536">
<path d="M0,0 L25,0 L43,4 L56,9 L67,16 L73,21 L81,32 L86,42 L89,53 L89,83 L85,97 L75,122 L59,155 L45,182 L40,202 L40,220 L44,226 L52,228 L62,225 L74,219 L81,214 L85,215 L80,228 L69,239 L60,250 L51,260 L42,271 L31,283 L22,295 L11,308 L2,319 L-13,335 L-22,345 L-37,361 L-58,382 L-75,394 L-90,404 L-105,412 L-124,419 L-134,421 L-149,421 L-165,417 L-181,413 L-193,408 L-205,401 L-215,392 L-224,382 L-231,371 L-230,366 L-221,360 L-215,358 L-210,358 L-205,364 L-194,373 L-182,383 L-172,389 L-161,393 L-156,394 L-141,394 L-127,390 L-111,382 L-90,371 L-78,362 L-74,357 L-67,349 L-37,319 L-30,311 L-21,301 L-12,290 L1,273 L11,258 L20,241 L18,241 L9,255 L0,267 L-8,277 L-19,290 L-30,302 L-37,310 L-45,318 L-52,326 L-72,346 L-83,355 L-98,366 L-114,375 L-129,381 L-142,384 L-157,384 L-170,380 L-186,372 L-197,364 L-208,353 L-217,339 L-221,329 L-224,322 L-231,319 L-245,316 L-261,308 L-273,301 L-282,294 L-285,290 L-285,279 L-281,275 L-271,269 L-266,265 L-263,260 L-261,252 L-254,242 L-244,229 L-228,221 L-214,211 L-207,204 L-203,197 L-201,187 L-195,179 L-185,169 L-172,160 L-165,160 L-160,165 L-160,186 L-153,185 L-148,180 L-133,170 L-126,166 L-121,167 L-116,173 L-105,182 L-101,184 L-90,172 L-79,160 L-70,150 L-63,142 L-56,134 L-50,134 L-42,142 L-32,157 L-29,160 L-13,156 L18,145 L34,138 L37,138 L36,145 L28,163 L15,187 L7,200 L4,211 L5,221 L9,227 L8,221 L8,211 L11,199 L17,188 L25,175 L38,150 L46,134 L57,111 L63,96 L67,79 L68,72 L68,61 L66,51 L62,41 L53,31 L47,27 L33,22 L18,20 L3,21 L-20,26 L-36,30 L-59,41 L-82,54 L-107,69 L-117,75 L-125,80 L-127,81 L-139,81 L-147,75 L-159,68 L-166,74 L-174,81 L-190,96 L-226,132 L-233,140 L-243,151 L-252,162 L-265,178 L-278,196 L-289,214 L-298,234 L-301,246 L-301,264 L-297,277 L-291,288 L-280,300 L-272,307 L-264,312 L-265,319 L-273,337 L-277,338 L-291,326 L-300,318 L-309,307 L-317,296 L-325,279 L-329,263 L-329,238 L-325,222 L-320,210 L-310,193 L-298,177 L-289,166 L-278,153 L-269,142 L-256,128 L-249,120 L-238,108 L-227,96 L-221,89 L-209,80 L-199,71 L-184,56 L-175,45 L-163,31 L-153,18 L-145,8 L-143,8 L-144,17 L-146,28 L-146,41 L-143,48 L-138,52 L-130,53 L-117,49 L-105,43 L-94,34 L-77,24 L-54,13 L-29,5 L-9,1 Z M10,228 Z " fill="#FD0000" transform="translate(411,0)"/>
<path d="M0,0 L18,0 L31,4 L41,10 L46,14 L53,24 L56,33 L56,51 L49,73 L43,84 L36,95 L32,110 L4,116 L-16,122 L-28,127 L-32,126 L-53,105 L-60,101 L-68,102 L-76,108 L-86,123 L-94,132 L-104,138 L-108,141 L-115,141 L-122,135 L-128,133 L-136,134 L-142,140 L-150,142 L-158,141 L-164,136 L-170,129 L-175,125 L-179,126 L-192,136 L-198,139 L-205,138 L-219,134 L-225,133 L-240,133 L-241,132 L-240,125 L-219,104 L-212,96 L-195,79 L-188,71 L-174,57 L-167,49 L-163,48 L-154,54 L-143,57 L-131,56 L-117,51 L-102,43 L-79,32 L-64,22 L-59,19 L-35,9 L-16,3 Z " fill="#FE0000" transform="translate(419,26)"/>
<path d="M0,0 L6,0 L20,13 L30,21 L31,23 L31,38 L27,49 L20,62 L11,73 L0,81 L-6,83 L-16,83 L-25,79 L-32,73 L-41,62 L-44,55 L-45,49 L-45,40 L-42,28 L-37,18 Z " fill="#FD0000" transform="translate(60,432)"/>
<path d="M0,0 L5,1 L11,3 L22,3 L30,2 L33,5 L34,13 L29,23 L30,35 L26,41 L21,45 L11,49 L0,55 L-10,62 L-17,68 L-22,76 L-23,88 L-32,93 L-35,93 L-37,98 L-42,105 L-45,107 L-52,107 L-55,103 L-57,94 L-57,85 L-53,71 L-48,59 L-40,44 L-31,31 L-23,24 L-7,8 Z " fill="#FD0000" transform="translate(172,162)"/>
<path d="M0,0 L22,0 L31,3 L34,7 L36,12 L38,25 L40,27 L39,32 L23,44 L13,53 L7,60 L4,64 L-3,63 L-7,54 L-9,51 L-20,49 L-26,45 L-25,40 L-18,30 L-6,10 Z " fill="#FD0000" transform="translate(153,320)"/>
<path d="M0,0 L6,0 L19,7 L28,15 L33,23 L33,28 L22,34 L9,44 L2,51 L-2,57 L-3,58 L-9,58 L-14,53 L-28,39 L-27,34 L-20,26 L-9,18 L-4,13 L-2,8 Z " fill="#FD0000" transform="translate(96,392)"/>
<path d="M0,0 L8,0 L16,3 L25,9 L29,16 L30,19 L30,35 L26,45 L23,47 L17,46 L14,43 L12,35 L6,28 L-8,20 L-16,17 L-18,13 L-17,8 L-10,3 Z " fill="#FC0000" transform="translate(118,371)"/>
<path d="M0,0 L5,1 L17,13 L30,22 L29,26 L25,31 L15,38 L12,39 L-1,39 L-6,34 L-9,29 L-9,14 L-4,5 Z " fill="#FC0000" transform="translate(9,497)"/>
<path d="M0,0 L2,0 L2,3 L-4,8 L-14,21 L-23,32 L-23,29 L-11,14 L-1,1 Z " fill="#E60000" transform="translate(266,8)"/>
<path d="M0,0 L3,4 L6,8 L8,6 L11,13 L6,11 L1,5 Z M7,9 Z " fill="#EB0000" transform="translate(414,219)"/>
</svg>
