<?xml version="1.0" encoding="UTF-8"?>
<!-- Generator: visioncortex VTracer 0.6.4 -->
<svg version="1.1" xmlns="http://www.w3.org/2000/svg" width="500" height="552">
<path d="M0,0 L15,0 L41,4 L65,11 L80,17 L96,25 L111,34 L124,44 L135,53 L144,57 L148,58 L165,58 L198,55 L237,53 L273,53 L300,55 L322,59 L337,64 L351,69 L371,73 L377,76 L380,79 L379,84 L374,88 L394,90 L415,93 L424,94 L471,94 L497,92 L498,96 L486,112 L474,132 L464,153 L460,161 L451,168 L442,171 L440,176 L430,190 L422,198 L419,199 L421,190 L424,175 L420,177 L415,185 L409,191 L406,191 L408,186 L408,178 L402,187 L395,193 L394,190 L396,186 L397,176 L393,176 L390,186 L384,194 L377,200 L371,202 L374,192 L374,179 L373,174 L360,172 L359,179 L357,185 L355,185 L353,175 L344,180 L341,191 L339,191 L336,184 L321,194 L307,205 L295,216 L308,213 L320,213 L332,215 L337,208 L339,208 L339,220 L344,222 L349,225 L351,220 L355,217 L357,231 L365,235 L369,233 L376,220 L378,220 L378,229 L377,239 L383,240 L387,231 L388,224 L390,224 L392,231 L392,241 L391,243 L395,243 L396,235 L397,224 L400,225 L402,235 L402,243 L405,244 L409,239 L412,233 L413,227 L416,228 L419,239 L418,245 L421,246 L420,251 L412,259 L402,263 L364,273 L329,280 L298,285 L254,290 L213,293 L193,294 L184,296 L160,306 L124,318 L96,325 L65,330 L54,331 L23,331 L2,328 L-2,327 L-2,325 L14,320 L42,309 L61,300 L75,292 L81,287 L88,261 L94,234 L96,222 L97,205 L90,184 L78,159 L66,140 L54,124 L41,109 L36,104 L38,93 L39,88 L39,69 L36,55 L31,42 L24,29 L15,17 L4,5 L0,2 Z M301,91 L284,95 L288,98 L297,104 L302,108 L308,107 L318,103 L329,101 L324,96 L318,92 L315,91 Z M138,132 Z M98,133 Z M139,134 Z M99,135 Z M140,135 L141,137 Z M100,136 L101,142 L109,166 L113,183 L114,190 L113,223 L111,246 L113,244 L120,225 L124,208 L125,199 L125,185 L121,171 L111,152 L101,136 Z M141,137 L142,142 L151,167 L153,175 L153,201 L151,226 L154,222 L160,208 L164,193 L164,172 L156,156 L147,143 L142,137 Z M293,217 Z M150,226 L151,228 Z M149,229 Z M110,246 L111,249 Z " fill="#FF0100" transform="translate(2,110)"/>
</svg>
