<?xml version="1.0" encoding="UTF-8"?>
<!-- Generator: visioncortex VTracer 0.6.4 -->
<svg version="1.1" xmlns="http://www.w3.org/2000/svg" width="500" height="552">
<path d="M0,0 L4,2 L14,26 L24,37 L38,44 L38,30 L35,18 L30,6 L28,3 L28,0 L33,1 L40,7 L46,15 L54,31 L62,52 L64,54 L67,47 L68,36 L68,21 L66,13 L66,7 L70,9 L75,15 L79,25 L84,53 L84,68 L81,83 L81,88 L87,70 L90,53 L91,42 L92,40 L95,41 L98,50 L98,80 L94,100 L87,121 L86,126 L97,118 L109,101 L120,80 L122,76 L126,77 L126,85 L120,101 L111,118 L97,137 L92,143 L82,151 L73,157 L71,164 L80,164 L97,161 L112,155 L126,147 L128,147 L127,152 L122,160 L116,165 L104,171 L94,175 L81,178 L72,179 L61,179 L51,181 L41,186 L38,187 L38,189 L40,189 L46,196 L56,201 L75,206 L76,209 L70,211 L55,210 L39,205 L23,198 L9,194 L3,192 L3,205 L0,214 L-10,228 L-12,228 L-14,232 L-25,241 L-19,251 L-11,267 L-6,278 L10,277 L32,273 L65,262 L78,257 L91,250 L96,245 L101,246 L107,254 L118,260 L131,263 L141,265 L142,266 L142,271 L132,276 L100,286 L69,294 L48,300 L39,301 L46,322 L55,341 L68,361 L83,385 L92,399 L102,412 L115,429 L127,444 L131,449 L145,460 L159,469 L175,477 L183,480 L183,482 L174,482 L153,477 L138,471 L131,469 L114,467 L103,462 L96,457 L89,449 L80,438 L63,410 L54,393 L47,371 L38,335 L31,303 L11,304 L20,328 L27,355 L31,372 L37,391 L45,417 L57,451 L62,465 L67,475 L76,489 L82,496 L90,502 L95,507 L97,514 L97,521 L94,526 L82,532 L70,535 L53,535 L41,531 L31,523 L24,516 L16,505 L11,492 L7,482 L1,461 L-3,434 L-9,401 L-16,358 L-23,317 L-24,308 L-42,310 L-62,310 L-75,308 L-77,337 L-78,359 L-82,401 L-91,451 L-96,479 L-98,491 L-103,505 L-113,523 L-124,534 L-134,539 L-152,545 L-166,545 L-165,541 L-157,526 L-148,502 L-138,477 L-134,464 L-126,429 L-121,406 L-117,378 L-112,348 L-105,305 L-105,303 L-121,296 L-126,294 L-125,311 L-125,337 L-128,366 L-134,393 L-138,407 L-147,434 L-156,455 L-164,466 L-170,471 L-174,476 L-182,482 L-196,488 L-206,492 L-210,493 L-218,493 L-220,492 L-219,488 L-214,483 L-202,464 L-193,451 L-187,441 L-181,433 L-174,422 L-169,415 L-161,399 L-155,385 L-143,349 L-139,326 L-139,298 L-140,290 L-153,289 L-166,287 L-192,286 L-198,282 L-201,278 L-201,270 L-197,266 L-191,262 L-186,257 L-180,230 L-176,212 L-175,186 L-179,165 L-180,162 L-180,154 L-178,152 L-174,153 L-171,160 L-167,181 L-161,196 L-158,197 L-151,192 L-142,175 L-130,138 L-128,129 L-125,125 L-120,126 L-119,128 L-119,135 L-124,154 L-131,174 L-142,201 L-149,215 L-159,226 L-165,238 L-168,252 L-167,259 L-158,262 L-123,271 L-102,276 L-91,277 L-83,267 L-74,256 L-60,245 L-51,236 L-57,226 L-65,218 L-72,209 L-79,203 L-87,196 L-89,192 L-91,174 L-92,160 L-90,158 L-80,159 L-58,164 L-51,164 L-48,162 L-39,162 L-34,163 L-41,148 L-42,143 L-42,129 L-39,119 L-33,110 L-24,101 L-14,97 L-9,96 L-2,96 L8,99 L16,106 L17,112 L14,111 L3,111 L-8,116 L-14,123 L-17,130 L-18,136 L-18,144 L-14,155 L-9,161 L1,166 L4,167 L20,167 L26,165 L43,157 L54,147 L61,137 L68,123 L70,113 L70,95 L68,85 L61,76 L53,69 L43,65 L38,64 L28,64 L18,68 L11,68 L7,64 L8,57 L12,50 L9,41 L2,24 L-1,5 Z M-73,179 L-72,183 L-57,194 L-51,198 L-43,207 L-33,224 L-26,218 L-24,210 L-24,203 L-27,197 L-36,189 L-39,193 L-44,192 L-58,185 L-67,179 Z M-45,252 L-61,263 L-69,271 L-74,276 L-75,279 L-63,281 L-37,281 L-30,280 L-33,271 L-41,255 L-43,252 Z " fill="#FF0100" transform="translate(269,3)"/>
</svg>
