<?xml version="1.0" encoding="UTF-8"?>
<!-- Generator: visioncortex VTracer 0.6.4 -->
<svg version="1.1" xmlns="http://www.w3.org/2000/svg" width="392" height="479">
<path d="M0,0 L15,0 L36,5 L54,12 L68,21 L118,71 L132,81 L149,93 L161,100 L173,104 L205,108 L256,117 L267,121 L274,127 L276,131 L276,142 L270,154 L259,166 L249,176 L241,183 L234,190 L225,201 L215,214 L206,230 L199,248 L187,284 L182,296 L175,305 L166,312 L145,324 L135,330 L125,339 L115,351 L105,366 L94,384 L80,404 L69,418 L58,430 L44,443 L33,452 L16,465 L1,474 L-13,479 L-35,479 L-45,475 L-52,466 L-62,457 L-76,450 L-89,446 L-105,444 L-113,440 L-116,435 L-116,416 L-112,405 L-105,389 L-100,370 L-99,355 L-99,284 L-96,247 L-91,223 L-87,213 L-78,199 L-64,177 L-52,160 L-42,147 L-34,137 L-25,126 L-15,108 L-4,85 L5,59 L9,37 L9,24 L6,11 Z M102,78 L96,81 L90,90 L80,97 L68,102 L54,106 L42,108 L25,110 L10,115 L-4,124 L-5,126 L5,123 L20,118 L41,114 L64,112 L76,109 L92,101 L100,94 L106,84 L106,79 Z M-6,126 Z M-8,127 Z M190,128 L183,135 L177,147 L173,164 L173,177 L179,203 L182,221 L183,221 L183,206 L180,193 L179,183 L179,165 L181,155 L188,139 L191,134 L192,128 Z M115,131 L109,138 L98,143 L93,144 L78,144 L64,141 L52,137 L40,136 L26,136 L12,138 L0,143 L-10,153 L-7,154 L9,148 L20,145 L28,144 L44,144 L57,147 L70,152 L83,155 L97,155 L106,152 L111,148 L116,139 L116,131 Z M140,148 L134,152 L130,157 L126,166 L127,175 L133,183 L143,196 L152,212 L157,227 L158,241 L156,261 L155,269 L160,264 L164,254 L165,248 L165,239 L162,221 L156,206 L150,195 L143,185 L138,174 L138,161 L141,155 L143,152 L143,148 Z M-11,154 Z M-13,155 Z M4,185 L-8,187 L-18,191 L-26,197 L-26,198 L-14,200 L-1,205 L10,211 L17,211 L29,206 L42,196 L45,193 L45,191 L31,190 L18,186 Z M45,190 Z M99,217 L96,224 L94,237 L95,249 L98,254 L105,261 L110,266 L115,273 L120,287 L121,292 L123,292 L126,285 L126,269 L121,254 L110,236 L100,217 Z M-66,239 Z M-67,240 L-76,251 L-81,263 L-81,269 L-76,277 L-72,280 L-66,280 L-62,276 L-60,271 L-61,266 L-65,259 L-66,256 L-66,240 Z M59,263 L50,280 L45,294 L42,308 L40,317 L28,327 L19,331 L14,332 L6,332 L3,330 L0,316 L0,300 L4,298 L12,289 L22,274 L21,272 L12,283 L4,292 L-3,295 L-4,284 L-3,269 L-10,270 L-26,278 L-37,286 L-47,296 L-56,309 L-70,336 L-78,357 L-82,370 L-84,379 L-83,383 L-72,351 L-61,324 L-56,315 L-43,299 L-31,286 L-19,277 L-11,275 L-9,276 L-8,284 L-6,297 L-4,300 L-3,325 L-1,337 L2,342 L4,344 L10,343 L20,336 L40,324 L58,314 L62,314 L61,327 L56,351 L50,370 L49,376 L53,372 L63,354 L68,340 L70,331 L70,306 L68,302 L64,303 L59,309 L53,313 L48,313 L47,312 L47,302 L52,291 L59,270 L60,263 Z M24,268 Z M23,269 L24,271 Z M154,269 Z M22,271 Z M-35,338 L-43,342 L-51,350 L-59,366 L-64,382 L-67,398 L-66,402 L-56,392 L-45,385 L-37,382 L-25,382 L-15,387 L-11,392 L-8,400 L-8,415 L-9,422 L-2,416 L10,403 L19,390 L24,380 L25,376 L25,367 L22,362 L20,360 L4,358 L-6,353 L-18,342 L-21,338 Z M48,376 Z M47,378 Z M-85,385 Z M-47,412 L-55,416 L-58,420 L-41,420 L-36,423 L-33,429 L-30,427 L-29,419 L-32,414 L-34,412 Z M-59,420 Z " fill="#FC0000" transform="translate(116,0)"/>
<path d="M0,0 L1,2 L-11,23 L-21,37 L-30,47 L-32,47 L-32,61 L-29,77 L-31,76 L-34,62 L-34,48 L-29,43 L-19,31 L-10,17 L-9,12 Z M-9,14 Z " fill="#D90000" transform="translate(149,254)"/>
<path d="M0,0 L12,0 L22,5 L27,11 L30,19 L30,34 L29,40 L39,30 L39,33 L27,45 L26,42 L28,31 L28,21 L24,10 L18,5 L11,2 L-3,2 Z " fill="#C10000" transform="translate(79,381)"/>
<path d="M0,0 L14,0 L14,1 L1,2 L-7,6 L-9,8 L-6,10 L-14,12 L-12,8 L-5,2 Z M-11,9 Z " fill="#CA0000" transform="translate(68,411)"/>
<path d="M0,0 L1,2 L-3,12 L-5,11 L-5,8 L-11,15 L-11,12 L-2,2 Z M-4,6 Z " fill="#E10000" transform="translate(54,233)"/>
<path d="M0,0 L0,3 L-8,14 L-10,15 L-8,9 L-5,3 L-3,4 Z M-5,6 Z " fill="#E00000" transform="translate(168,372)"/>
<path d="M0,0 L0,3 L-12,15 L-13,12 L-11,8 L-10,10 Z " fill="#DA0000" transform="translate(118,411)"/>
<path d="M0,0 L2,0 L0,4 L-2,5 L-2,3 L-16,3 L-17,1 L-3,1 Z M-2,2 Z " fill="#DB0000" transform="translate(163,188)"/>
<path d="M0,0 L2,1 L3,3 L-5,7 L-7,6 Z " fill="#E20000" transform="translate(102,154)"/>
<path d="M0,0 L1,2 L-3,12 L-5,11 L-2,2 Z " fill="#C40000" transform="translate(54,233)"/>
</svg>
