<?xml version="1.0" encoding="UTF-8"?>
<!-- Generator: visioncortex VTracer 0.6.4 -->
<svg version="1.1" xmlns="http://www.w3.org/2000/svg" width="500" height="552">
<path d="M0,0 L4,0 L10,21 L17,41 L30,50 L34,54 L60,61 L62,62 L64,58 L72,54 L80,55 L86,59 L90,65 L91,74 L105,82 L121,94 L123,95 L157,78 L174,70 L178,69 L169,89 L154,118 L151,123 L177,127 L189,130 L199,136 L205,142 L206,145 L206,155 L202,166 L191,179 L184,185 L186,195 L190,214 L191,223 L239,239 L252,243 L252,246 L238,251 L221,256 L191,266 L187,288 L183,302 L184,306 L188,312 L188,323 L184,329 L178,333 L169,334 L167,339 L155,357 L152,360 L154,365 L172,401 L175,408 L181,419 L181,422 L177,421 L159,413 L140,403 L122,394 L118,395 L104,405 L92,412 L89,422 L81,429 L78,430 L71,430 L65,427 L61,425 L43,430 L23,434 L11,471 L5,490 L4,494 L0,494 L-8,468 L-18,438 L-27,444 L-39,451 L-55,456 L-65,456 L-74,453 L-81,447 L-88,438 L-98,432 L-113,427 L-126,425 L-134,421 L-141,413 L-144,407 L-175,422 L-177,422 L-176,418 L-168,401 L-160,385 L-149,363 L-158,351 L-165,340 L-169,334 L-177,333 L-182,330 L-186,325 L-188,316 L-185,308 L-181,303 L-186,287 L-189,271 L-189,264 L-199,262 L-229,252 L-246,247 L-248,246 L-248,243 L-190,224 L-186,200 L-181,183 L-188,175 L-189,172 L-189,164 L-185,157 L-179,153 L-176,152 L-168,152 L-166,151 L-165,146 L-163,146 L-161,141 L-160,138 L-158,138 L-156,133 L-148,123 L-150,117 L-172,73 L-175,67 L-174,64 L-146,78 L-123,89 L-119,91 L-115,90 L-102,81 L-91,75 L-90,66 L-86,60 L-81,56 L-78,55 L-70,55 L-62,60 L-62,62 L-40,56 L-33,55 L-37,41 L-41,36 L-40,31 L-37,25 L-24,26 L-9,29 Z M-33,32 L-32,36 L-28,47 L-28,72 L-32,89 L-38,105 L-46,121 L-56,139 L-68,158 L-75,168 L-85,179 L-96,194 L-105,209 L-112,225 L-118,248 L-120,263 L-121,340 L-124,361 L-129,378 L-136,395 L-137,399 L-137,406 L-131,414 L-125,418 L-105,422 L-89,429 L-80,437 L-74,445 L-66,449 L-54,449 L-39,444 L-27,436 L-13,424 L1,413 L11,405 L19,397 L19,395 L21,395 L32,380 L43,363 L56,343 L65,331 L74,321 L85,313 L103,303 L113,295 L119,286 L133,246 L142,226 L151,211 L160,201 L166,193 L176,183 L184,176 L193,167 L198,158 L199,155 L199,146 L194,140 L184,135 L130,127 L104,121 L93,115 L82,108 L68,97 L58,88 L45,76 L36,66 L29,58 L21,51 L5,42 L-14,35 L-29,32 Z M50,98 L55,99 L56,101 L55,110 L49,117 L37,125 L26,129 L1,133 L-18,136 L-33,141 L-45,148 L-50,151 L-49,147 L-38,136 L-28,131 L-10,126 L16,121 L29,116 L38,110 L48,99 Z M125,142 L130,142 L131,145 L127,155 L122,162 L119,173 L119,189 L122,216 L121,229 L118,229 L116,216 L111,194 L110,174 L113,162 L119,150 Z M61,144 L65,146 L65,153 L58,163 L53,167 L50,168 L35,168 L14,163 L-2,159 L-19,159 L-36,165 L-55,175 L-57,175 L-56,171 L-54,171 L-52,167 L-44,160 L-30,153 L-15,149 L2,149 L28,155 L47,155 L56,150 Z M81,160 L90,160 L88,164 L85,170 L84,175 L86,186 L90,196 L99,213 L105,231 L105,249 L101,262 L95,273 L93,273 L95,263 L96,258 L96,233 L92,218 L86,205 L82,199 L72,186 L70,181 L70,174 L76,164 Z M-42,192 L-27,192 L-10,195 L1,195 L8,193 L8,196 L6,196 L4,200 L-5,208 L-17,215 L-25,218 L-30,217 L-44,209 L-53,206 L-62,206 L-61,203 L-51,196 Z M47,217 L50,217 L58,233 L70,255 L73,266 L73,278 L69,289 L66,289 L64,277 L58,266 L47,255 L44,252 L43,249 L43,232 Z M-88,232 L-86,232 L-87,237 L-91,247 L-91,256 L-88,261 L-86,264 L-87,270 L-95,277 L-101,276 L-106,271 L-107,269 L-107,260 L-102,247 L-94,237 Z M18,249 L21,249 L21,252 L18,252 Z M-7,249 L-4,249 L-6,254 L-18,273 L-31,290 L-35,294 L-36,305 L-34,315 L-31,321 L-21,318 L-5,308 L-1,292 L1,285 L9,265 L15,254 L18,253 L16,263 L6,290 L5,295 L5,303 L10,302 L15,298 L19,291 L22,291 L25,301 L25,314 L20,333 L13,349 L3,365 L-3,373 L-5,373 L-3,369 L1,360 L8,339 L14,314 L15,304 L11,306 L4,312 L-12,320 L-23,327 L-28,332 L-35,333 L-38,331 L-40,322 L-42,293 L-44,290 L-45,285 L-45,273 L-54,275 L-61,281 L-63,281 L-63,283 L-69,288 L-78,299 L-85,309 L-88,314 L-93,328 L-97,336 L-103,354 L-110,379 L-113,379 L-111,368 L-108,349 L-104,336 L-90,307 L-80,291 L-68,278 L-58,271 L-47,266 L-38,264 L-38,273 L-39,286 L-34,285 L-20,267 L-10,254 Z M-65,324 L-57,324 L-50,328 L-44,334 L-44,336 L-40,338 L-33,341 L-24,343 L-15,348 L-13,353 L-14,362 L-20,372 L-29,383 L-39,395 L-44,403 L-47,403 L-45,386 L-47,377 L-51,370 L-57,366 L-68,365 L-77,368 L-87,377 L-96,386 L-97,386 L-96,373 L-91,353 L-87,344 L-80,333 L-71,326 Z M-74,388 L-67,388 L-62,393 L-61,401 L-64,408 L-67,408 L-70,401 L-73,399 L-84,399 L-91,401 L-90,397 L-85,393 Z " fill="#FF0100" transform="translate(248,29)"/>
</svg>
