<?xml version="1.0" encoding="UTF-8"?>
<!-- Generator: visioncortex VTracer 0.6.4 -->
<svg version="1.1" xmlns="http://www.w3.org/2000/svg" width="500" height="552">
<path d="M0,0 L0,3 Z M37,0 Z M2,0 L7,0 L5,10 L15,6 L14,12 L14,13 L23,11 L32,5 L42,0 L51,0 L49,4 L46,11 L46,17 L48,19 L59,18 L62,17 L70,17 L78,19 L77,23 L71,26 L68,27 L66,31 L65,36 L65,42 L76,44 L83,48 L89,54 L89,58 L75,60 L70,64 L67,71 L77,69 L101,64 L117,59 L115,58 L111,59 L112,54 L120,51 L130,48 L150,43 L163,40 L200,33 L209,31 L225,30 L263,30 L280,32 L291,34 L291,38 L273,42 L265,48 L259,55 L256,62 L256,71 L260,78 L266,83 L266,86 L260,85 L252,82 L243,82 L233,85 L229,87 L224,95 L223,103 L224,109 L217,106 L210,101 L207,100 L189,100 L183,104 L178,111 L175,122 L174,132 L170,131 L167,124 L163,118 L161,116 L154,115 L149,117 L144,122 L140,136 L139,144 L135,144 L131,132 L125,125 L120,122 L113,122 L105,129 L102,140 L98,141 L94,131 L90,123 L86,118 L76,111 L70,108 L57,106 L56,110 L49,122 L40,133 L30,146 L27,152 L29,152 L30,150 L32,150 L34,147 L36,147 L38,143 L47,135 L51,135 L50,140 L45,148 L47,148 L45,152 L43,151 L37,170 L35,179 L35,185 L35,187 L37,188 L37,194 L-4,195 L-45,195 L-47,194 L-47,188 L-43,187 L-43,185 L-47,184 L-46,182 L-45,183 L-46,178 L-49,167 L-53,157 L-56,147 L-59,141 L-59,137 L-55,138 L-44,151 L-44,153 L-41,154 L-37,158 L-36,147 L-33,138 L-26,124 L-19,115 L-10,105 L-6,103 L-6,101 L-15,102 L-25,108 L-27,108 L-27,110 L-33,115 L-39,126 L-43,139 L-47,139 L-49,127 L-56,119 L-66,119 L-74,126 L-78,137 L-80,145 L-85,145 L-86,131 L-88,124 L-94,115 L-100,112 L-115,112 L-123,116 L-131,125 L-135,125 L-134,112 L-137,105 L-139,101 L-148,98 L-152,97 L-164,97 L-173,102 L-175,104 L-180,104 L-179,100 L-171,93 L-168,84 L-168,78 L-172,70 L-179,62 L-187,58 L-194,57 L-209,57 L-209,52 L-193,48 L-173,45 L-160,44 L-139,44 L-116,45 L-106,47 L-91,49 L-81,51 L-59,56 L-50,60 L-49,59 L-48,55 L-40,59 L-37,60 L-38,57 L-37,52 L-33,53 L-29,55 L-26,54 L-26,52 L-21,47 L-26,46 L-36,43 L-38,42 L-37,49 L-46,47 L-51,43 L-51,52 L-60,50 L-65,45 L-72,42 L-77,37 L-78,32 L-69,33 L-71,31 L-71,27 L-62,29 L-53,29 L-56,25 L-55,22 L-44,22 L-46,19 L-46,16 L-38,17 L-36,18 L-26,18 L-11,15 L-6,12 L1,3 Z M4,10 Z M11,16 Z M10,17 L9,20 L11,20 Z M12,20 Z M13,21 Z M14,22 Z M15,23 Z M16,24 L17,27 L17,24 Z M18,27 L19,29 Z M-20,29 L-29,32 L-25,35 L-20,34 L-17,29 Z M19,30 L19,35 L21,34 Z M12,33 L14,38 L16,34 Z M15,38 L17,48 L20,48 L16,38 Z M29,48 Z M19,49 L19,52 L13,50 L1,50 L-10,56 L-22,64 L-20,66 L6,71 L13,73 L24,74 L27,71 L28,68 L28,56 L24,52 L20,52 Z M35,50 Z M37,51 Z M39,52 L41,55 L43,54 Z M43,55 L43,57 L45,56 Z M45,57 L42,59 L46,61 L48,63 L47,58 Z M37,59 L36,61 L39,60 Z M48,63 L48,74 L50,71 L49,63 Z M-48,65 Z M-24,65 Z M-25,66 Z M-47,67 L-46,70 L-44,69 Z M-26,67 Z M-27,68 Z M-28,69 Z M-44,70 L-43,72 Z M-29,70 Z M-30,72 Z M-43,73 L-42,78 L-41,75 Z M-31,74 Z M-32,75 L-31,77 Z M36,75 L40,77 L45,80 L45,87 L47,85 L48,76 Z M-41,78 L-40,82 L-38,83 L-32,83 L-33,80 L-33,82 L-38,80 Z M24,89 Z M44,87 L41,93 L41,96 L36,94 L30,90 L27,91 L36,97 L38,97 L34,107 L27,115 L24,116 L22,112 L18,110 L18,108 L11,104 L8,105 L17,111 L23,117 L22,121 L13,131 L13,133 L8,132 L8,136 L15,135 L21,127 L30,117 L37,106 L43,97 L45,91 Z M-13,122 L-9,124 L1,128 L6,132 L8,131 L1,125 L-6,122 Z M-19,132 L-20,137 L-18,136 Z M-18,136 L-17,138 Z M12,136 L13,140 Z M-17,138 L-16,141 Z M7,138 L6,142 L8,141 Z M-22,140 Z M13,141 L14,147 L15,143 Z M-16,142 L-15,145 Z M-23,143 L-22,145 Z M5,143 L6,146 Z M-15,145 L-14,150 L-13,147 Z M4,146 L2,151 L3,154 L5,150 Z M-24,147 L-25,152 L-23,150 Z M15,147 L16,151 Z M-13,150 L-12,154 Z M16,151 L17,159 L19,161 L18,154 Z M-26,152 L-25,156 Z M26,153 L22,161 L19,161 L20,171 L15,172 L16,175 L27,175 L27,171 L22,171 L25,162 L29,156 L28,154 Z M29,153 Z M-12,154 L-11,162 L-9,168 L-8,164 L-11,154 Z M1,154 L2,158 Z M-27,156 L-26,160 Z M0,158 L-1,163 L1,161 Z M-28,160 L-29,166 L-27,164 Z M-36,161 L-35,164 L-35,161 Z M-2,163 L-1,167 Z M-34,165 L-33,167 Z M-30,167 L-32,168 L-32,172 L-37,173 L-36,177 L-26,177 L-24,173 L-29,172 L-29,167 Z M-3,167 L-4,171 L-8,169 L-8,171 L-11,172 L-10,176 L0,176 L1,172 L-2,170 Z M8,1 L9,5 Z M34,1 L37,2 Z M52,1 Z M32,2 L34,3 Z M-2,3 L-2,6 Z M51,3 Z M12,4 L14,5 Z M29,4 Z M50,4 Z M10,5 L12,6 Z M27,5 L29,6 Z M7,6 L9,7 L6,9 Z M25,6 L27,7 L25,8 Z M48,6 L49,10 L48,15 L47,15 L47,8 Z M-5,7 Z M-6,8 Z M16,8 L23,9 L23,10 L16,11 Z M23,8 L25,9 Z M-9,11 L-7,12 L-11,13 Z M-44,13 L-42,14 Z M-15,13 L-12,14 Z M-18,14 Z M-40,15 L-37,16 Z M59,15 L73,15 L75,17 L59,16 Z M-27,15 L-19,15 L-19,16 L-26,17 L-36,17 L-36,16 Z M47,16 Z M55,16 L59,17 Z M-48,17 Z M48,17 L52,18 L48,19 Z M79,19 Z M-54,20 L-45,20 L-46,22 L-53,22 Z M75,24 L77,25 Z M-70,25 L-66,26 Z M-58,25 Z M-66,26 L-62,27 Z M72,26 L74,27 Z M-59,27 L-55,28 Z M70,27 L72,28 Z M222,27 L235,27 L235,28 L230,29 L222,29 Z M254,27 L264,27 L264,29 L254,28 Z M-73,28 L-71,32 L-75,30 L-73,30 Z M265,28 L267,29 Z M68,29 L70,30 L68,31 Z M219,28 L221,29 L220,30 L206,30 L206,29 Z M267,29 L280,29 L280,30 L267,30 Z M199,30 L205,30 L205,31 L199,31 Z M280,30 L287,30 L287,31 L280,31 Z M-23,31 L-20,32 L-25,33 Z M67,31 Z M288,31 L291,32 L288,33 Z M196,31 L197,33 L192,33 Z M-80,33 Z M66,33 L68,36 L68,40 L76,41 L72,42 L66,41 Z M185,33 L191,33 L191,34 L185,34 Z M177,34 L184,34 L184,35 L176,36 Z M-79,36 Z M171,36 L176,36 L176,37 L171,37 Z M162,37 L170,37 L170,38 L158,40 L159,38 Z M-77,38 Z M-76,40 Z M149,40 L155,40 L155,41 L149,41 Z M287,40 L291,41 Z M-158,41 L-141,41 L-141,42 L-158,42 Z M145,41 L149,42 L145,43 Z M278,41 L287,41 L287,42 L278,42 Z M-127,42 Z M275,42 L277,42 L277,44 L274,43 Z M-178,43 L-168,43 L-168,44 L-187,46 L-187,44 Z M-122,43 L-112,43 L-104,44 L-104,45 L-113,45 L-122,44 Z M78,43 L80,44 Z M138,43 L144,43 L144,44 L133,45 L133,44 Z M-72,44 L-66,45 L-70,46 Z M-37,44 L-31,45 L-31,47 L-36,47 Z M80,44 L82,45 Z M271,44 L273,45 Z M-193,45 L-189,45 L-189,47 L-195,47 Z M-101,45 L-97,46 L-101,47 Z M-51,45 Z M269,45 L271,46 L268,46 Z M-66,46 Z M-50,46 L-48,47 L-48,49 L-50,49 Z M82,46 L84,47 Z M130,45 L132,47 L128,46 Z M-203,47 L-195,47 L-195,48 L-205,49 Z M-96,47 L-87,47 L-88,49 L-96,48 Z M-65,47 L-63,49 L-65,49 Z M-29,47 L-22,48 L-25,50 Z M84,47 L87,48 L86,50 Z M123,47 L128,47 L128,48 L123,48 Z M267,47 Z M-86,48 L-81,48 L-81,50 L-86,49 Z M-47,48 L-44,49 Z M120,48 L123,49 L120,50 Z M265,48 L267,49 L265,50 Z M-63,49 Z M-43,49 L-40,50 L-43,51 Z M-209,50 L-206,51 Z M-80,50 L-71,50 L-67,52 L-80,51 Z M-35,50 L-33,51 Z M-27,50 L-25,51 L-28,51 Z M87,50 L90,51 L89,53 Z M114,50 L119,50 L119,51 L114,51 Z M-61,51 L-59,52 Z M-33,51 Z M3,51 L11,51 L11,52 L3,52 Z M264,50 L265,52 L262,53 L262,51 Z M-59,52 L-55,53 L-58,54 Z M-31,52 L-28,53 L-31,54 Z M0,52 L3,53 L-1,54 Z M11,52 L14,52 L13,54 Z M-65,53 L-62,54 Z M90,53 Z M261,53 Z M-61,54 L-58,55 Z M-47,54 L-44,55 Z M-3,54 L-1,55 Z M22,54 L26,55 L25,58 L25,56 L22,55 Z M-56,55 L-50,57 L-54,58 Z M-44,55 Z M-6,55 L-3,56 Z M-43,56 Z M259,56 L261,57 L259,59 Z M-42,57 L-39,58 Z M-9,57 L-7,58 Z M-209,58 L-190,58 L-190,59 L-209,59 Z M-10,58 Z M26,58 L27,58 L27,66 L26,66 Z M-189,59 L-185,60 Z M-13,59 L-11,60 L-13,61 Z M81,59 L88,59 L84,61 L81,60 Z M108,59 L109,61 L107,60 Z M258,59 L259,63 Z M105,60 Z M-184,61 L-182,62 Z M-14,61 Z M79,60 L81,61 L76,62 Z M99,61 L105,61 L105,62 L95,63 Z M-182,62 L-180,63 Z M-17,62 L-15,63 Z M72,62 L75,63 L72,64 Z M-180,63 L-178,65 L-180,65 Z M-18,63 Z M-17,64 L-11,64 L-11,65 L-17,65 Z M71,64 L71,67 L75,69 L68,70 L70,65 Z M92,63 L94,64 L93,65 L88,65 Z M257,64 L258,64 L260,74 L262,78 L258,75 L257,71 Z M-178,65 Z M-11,65 L-4,65 L-4,66 L-11,66 Z M81,65 L87,65 L83,67 Z M-177,66 Z M-3,66 L1,68 L-3,68 Z M25,66 L26,70 Z M78,66 L80,66 L80,68 L76,67 Z M-176,67 Z M-175,68 L-173,69 L-174,72 Z M2,68 L10,68 L13,70 L2,69 Z M15,71 L22,71 L22,72 L15,72 Z M23,71 L24,73 L22,72 Z M-173,72 L-170,74 L-171,78 Z M45,78 L47,78 L46,80 Z M262,78 Z M264,79 Z M-170,80 Z M265,81 Z M268,82 Z M240,83 L254,83 L254,84 L240,84 Z M236,84 L238,86 L235,85 Z M239,84 Z M-171,85 L-170,89 Z M256,85 L262,86 L258,87 Z M232,86 L235,87 Z M230,87 L232,88 L229,90 Z M263,87 Z M-172,89 L-171,92 L-173,93 Z M227,90 L229,91 L227,92 Z M226,92 Z M-174,93 Z M-175,94 Z M-176,95 Z M-178,96 L-176,97 L-178,98 Z M225,96 L226,96 L226,106 L224,105 L224,98 Z M-163,97 L-157,97 L-157,98 L-163,99 Z M-157,98 L-155,99 Z M-154,98 L-145,100 L-145,101 L-154,100 Z M39,98 Z M-181,99 Z M-166,99 L-164,100 Z M-168,100 L-166,101 Z M192,100 L205,100 L209,102 L207,103 L204,102 L192,101 Z M-182,101 Z M-171,101 L-168,102 L-171,102 Z M-145,101 L-141,102 L-143,103 Z M-9,101 L-7,102 L-10,102 Z M187,101 L191,102 L187,102 Z M209,102 Z M-173,103 Z M-140,103 L-136,107 L-136,109 L-138,109 Z M-15,103 L-13,104 Z M-11,103 Z M185,103 L187,104 Z M210,103 L212,104 Z M-175,104 L-173,105 Z M-18,104 L-15,105 Z M184,104 Z M212,104 L214,105 Z M-19,105 Z M-13,105 L-12,107 L-14,106 Z M183,105 Z M-176,105 L-175,107 L-178,106 Z M-21,106 L-19,107 L-23,108 Z M182,106 L183,108 L180,112 L181,107 Z M-15,107 Z M58,107 L61,108 L59,108 L58,110 Z M216,107 L218,108 Z M-25,108 L-23,109 Z M-16,108 Z M63,108 L69,108 L67,110 Z M218,108 Z M-136,109 L-135,109 L-135,120 L-136,120 Z M-17,109 L-16,111 L-18,110 Z M219,109 Z M-27,110 L-25,111 L-28,111 Z M57,110 Z M70,110 L73,111 Z M73,111 L76,112 Z M-29,112 L-29,115 L-32,115 Z M76,112 L78,114 L76,114 Z M-114,113 L-101,113 L-101,114 L-118,115 Z M-20,113 Z M55,113 L56,116 L54,117 Z M178,113 L179,117 Z M-101,114 L-97,115 Z M-22,114 L-20,115 L-22,116 Z M78,114 L80,115 Z M-121,115 L-119,116 L-121,117 Z M-97,115 L-95,116 Z M80,115 L82,115 L81,117 Z M-95,116 L-93,117 L-94,119 Z M-33,116 L-32,119 L-34,120 Z M-23,116 Z M152,116 L161,117 L166,122 L165,124 L162,121 L162,119 L151,118 Z M-122,117 Z M-24,117 Z M26,117 Z M53,117 Z M82,117 Z M177,117 L178,117 L178,123 L177,123 Z M-124,118 L-122,119 Z M25,118 Z M83,118 L85,119 Z M148,118 L150,119 L146,122 Z M-125,119 L-125,122 L-128,124 L-126,120 Z M-93,119 L-90,121 L-91,123 L-93,122 Z M-62,119 L-59,120 L-59,121 L-64,121 Z M51,119 L53,120 L50,123 Z M85,119 Z M-138,120 L-136,120 L-137,123 Z M-26,120 Z M86,120 L89,122 L88,124 Z M-66,120 L-65,122 L-69,123 Z M-57,121 L-55,122 Z M-36,121 Z M-55,122 Z M-27,122 L-26,124 L-27,126 L-29,126 Z M145,122 Z M-90,123 L-89,127 Z M-70,123 Z M-54,123 Z M-37,123 Z M-71,124 Z M-53,124 Z M48,124 L48,127 Z M89,124 Z M111,124 L113,125 L110,125 Z M120,124 L122,125 Z M166,124 Z M-130,125 Z M-72,125 L-71,127 L-73,129 Z M-52,125 L-50,126 L-50,135 L-51,135 Z M122,125 L124,126 Z M-135,126 L-130,126 L-131,128 L-135,127 Z M-30,126 Z M90,126 L92,127 L92,129 L90,129 Z M109,126 Z M124,126 L128,128 L127,130 L124,128 Z M143,126 L145,127 L143,130 Z M-89,127 L-87,131 L-89,131 Z M-38,127 Z M45,127 L47,127 L47,129 L45,129 L44,133 L42,132 Z M108,127 Z M167,127 Z M176,127 Z M-31,128 Z M107,128 L107,131 Z M92,129 Z M-75,130 Z M-39,130 Z M128,130 Z M-40,131 Z M104,131 L105,131 L105,137 L104,137 Z M142,131 L143,135 Z M14,132 Z M48,132 Z M-88,133 L-87,137 Z M-33,133 Z M41,133 Z M93,133 Z M-76,134 L-75,138 Z M-34,134 Z M40,134 L40,137 Z M45,134 L47,135 Z M129,134 L131,134 L130,137 Z M-57,135 Z M-41,135 Z M43,135 L45,136 Z M141,135 L142,135 L142,141 L141,141 Z M42,136 L42,139 L40,138 Z M95,136 L96,140 L94,137 Z M-87,137 L-86,137 L-86,144 L-87,144 Z M38,137 Z M52,137 L54,138 Z M103,137 Z M131,137 L132,141 Z M-62,138 Z M-54,138 Z M-35,138 Z M37,138 Z M51,138 Z M39,139 Z M-78,140 L-76,140 L-78,144 Z M-52,140 Z M36,140 Z M-61,141 L-58,143 L-59,147 Z M-51,141 Z M-46,141 Z M-37,141 L-36,145 Z M34,141 L34,144 Z M37,141 Z M50,141 L50,144 Z M-50,142 L-48,142 L-49,144 Z M36,142 Z M-48,144 Z M32,144 L34,145 L33,148 L31,147 Z M34,144 Z M48,144 Z M-47,145 Z M47,145 Z M135,146 L137,147 Z M-84,147 L-81,147 L-81,149 L-84,148 Z M-58,147 Z M-46,147 Z M-38,147 L-37,151 Z M30,147 L32,149 L30,150 Z M-45,148 Z M-57,149 Z M-44,149 L-41,152 L-44,151 Z M-56,151 L-55,154 L-57,154 Z M-39,151 Z M-41,152 Z M-40,153 L-38,154 L-39,156 Z M43,154 Z M-55,155 L-54,159 Z M26,155 Z M41,156 L42,156 L42,162 L41,162 Z M25,158 Z M-54,159 L-52,162 L-54,162 Z M40,162 L41,166 Z M-52,163 L-50,167 L-51,170 Z M20,163 L22,163 L22,165 L20,165 Z M39,166 Z M38,170 Z M-8,171 Z M-9,172 L-1,173 L-1,174 L-10,174 Z M17,172 L26,172 L26,174 L16,174 Z M37,172 L38,172 L38,179 L37,179 Z M-50,173 L-48,173 L-49,176 Z M-36,174 L-26,174 L-26,175 L-36,175 Z M-48,176 L-47,180 Z M36,179 L37,179 L37,184 L36,184 Z M-49,187 Z M39,189 L40,193 Z M-51,190 Z M-49,193 Z M-46,196 L-45,196 L-45,212 L-48,211 L-47,197 Z M22,195 L32,195 L33,196 L34,213 L39,216 L38,221 L37,222 L-48,222 L-50,220 L-50,215 L-44,212 L-44,196 Z M-1,213 L-1,214 L33,214 L33,213 Z M34,196 L36,196 L35,200 Z M36,210 L38,213 L35,212 Z M-49,212 Z M-52,215 Z M40,215 Z M41,217 Z M-52,219 Z M40,219 Z M-51,221 Z M-49,223 L-47,224 Z M37,223 Z M-47,224 L-40,224 L-40,253 L-41,253 L-42,246 L-42,225 L-47,225 Z M-27,224 L-23,224 L-24,226 L-26,225 L-25,231 L-27,235 Z M6,224 L36,224 L36,225 L8,226 L6,228 Z M5,228 L6,231 L4,232 Z M3,232 Z M2,233 Z M15,233 L18,234 Z M14,234 Z M13,235 Z M-38,223 L-29,223 L-28,225 L-28,234 L-27,243 L-25,232 L-21,223 L5,223 L4,229 L-1,240 L-5,257 L-5,284 L-1,300 L5,309 L11,314 L21,317 L27,317 L36,313 L40,308 L43,300 L43,284 L41,277 L37,272 L31,269 L26,267 L20,267 L11,270 L7,273 L5,273 L5,275 L0,280 L-1,282 L-5,282 L-5,267 L-4,256 L1,248 L9,240 L16,235 L19,235 L18,244 L28,243 L36,240 L46,239 L48,240 L47,244 L44,246 L46,250 L55,253 L64,257 L68,259 L68,264 L61,265 L66,275 L71,280 L72,283 L72,293 L69,292 L71,297 L72,309 L70,315 L69,317 L65,316 L64,326 L60,334 L56,338 L54,338 L53,335 L50,342 L42,348 L36,350 L36,346 L37,343 L26,349 L18,350 L19,363 L23,373 L29,383 L36,401 L38,409 L38,427 L36,439 L31,452 L27,452 L24,443 L20,432 L12,422 L5,416 L-3,413 L-16,409 L-24,405 L-37,394 L-42,388 L-45,388 L-45,381 L-38,384 L-33,387 L-28,388 L-15,388 L-8,386 L-20,374 L-27,364 L-33,354 L-37,343 L-39,337 L-40,330 L-40,305 L-36,290 L-34,287 L-30,288 L-26,304 L-23,311 L-21,315 L-21,311 L-25,304 L-34,273 L-37,259 L-39,249 L-40,237 L-40,225 Z M-19,315 L-20,318 L-19,321 L-15,321 L-17,316 Z M-19,325 L-20,328 L-20,338 L-17,352 L-12,364 L-9,366 L-8,365 L-8,370 L1,380 L8,378 L10,370 L13,348 L16,348 L17,344 L20,343 L20,342 L14,342 L9,345 L0,345 L-6,341 L-8,336 L1,336 L-3,332 L-14,328 Z M-9,367 Z M2,380 Z M3,381 Z M7,385 Z M-44,386 Z M-7,387 Z M13,390 Z M14,391 Z M1,236 Z M11,236 L13,237 Z M20,236 Z M9,237 L11,238 Z M35,237 L46,237 L46,238 L35,238 Z M7,239 Z M31,239 L33,240 Z M5,240 L7,241 L4,243 Z M28,240 L31,241 Z M19,239 L21,241 L28,241 L28,242 L19,244 Z M-1,242 L4,243 L-1,250 L-2,246 Z M0,245 Z M48,242 Z M46,245 Z M45,246 L46,248 L44,247 Z M46,248 L48,248 L47,250 Z M48,250 L53,250 L53,251 L48,251 Z M54,251 L59,251 L59,252 L54,252 Z M60,252 L62,254 L60,254 Z M-40,254 L-38,258 L-38,260 L-40,260 Z M62,254 L66,255 L65,257 Z M66,257 L68,258 Z M-39,261 L-37,262 L-37,267 L-39,263 Z M70,261 Z M63,265 L67,266 Z M62,266 Z M-37,268 L-36,268 L-36,274 L-37,274 Z M64,268 Z M15,269 L19,270 Z M26,269 L32,270 L34,272 L29,271 Z M13,270 L15,271 L7,275 L7,273 Z M65,270 L67,274 L65,273 Z M34,272 L36,273 Z M36,273 Z M-36,274 L-34,274 L-35,277 Z M37,274 L40,276 L39,278 Z M68,274 L71,277 L69,278 Z M5,275 L7,276 L3,281 L1,281 L3,277 Z M-34,278 L-33,278 L-33,284 L-34,284 Z M40,278 L41,278 L41,285 L40,285 Z M71,278 Z M72,280 L75,282 L75,287 L73,285 Z M-33,284 L-32,286 L-34,285 Z M-4,284 L-2,284 L-3,288 Z M41,285 L43,288 L43,296 L42,301 L41,301 Z M-35,286 Z M-38,289 L-37,293 L-39,294 Z M-2,289 L-1,289 L-1,295 L-2,295 Z M-40,294 Z M71,294 Z M-1,295 L0,299 Z M72,295 L73,295 L73,300 L72,300 Z M-41,299 L-40,303 L-41,310 L-42,310 L-42,302 Z M1,300 Z M73,300 L75,302 L75,309 L73,314 L72,310 Z M40,301 L41,305 Z M2,302 Z M3,305 L5,307 L3,307 Z M39,305 L40,308 L37,310 L37,307 L39,307 Z M5,307 L7,307 L6,309 Z M7,309 Z M-23,310 Z M8,310 L11,311 L8,311 Z M36,310 L37,312 L35,311 Z M-22,312 Z M34,312 Z M-21,313 Z M12,313 L21,314 L21,315 L12,314 Z M31,313 L34,314 Z M27,314 L31,315 Z M66,318 Z M65,322 L66,322 L66,328 L65,328 Z M-42,326 L-41,326 L-41,334 L-42,334 Z M-18,328 L-15,330 L-17,330 L-17,337 L-18,337 Z M64,328 Z M-15,330 L-5,332 L-3,335 L-6,335 L-6,333 L-13,333 L-15,332 Z M62,331 Z M61,333 Z M-41,334 L-40,338 Z M-10,337 Z M58,337 Z M53,338 Z M55,339 L57,340 Z M-40,340 L-37,344 L-38,348 L-40,344 Z M-17,340 L-16,344 Z M-9,340 Z M52,340 Z M-8,341 Z M51,341 L51,344 Z M-6,343 L-4,344 L-5,346 Z M-16,344 L-15,344 L-15,349 L-16,349 Z M48,344 Z M12,345 L14,346 L10,347 Z M35,345 Z M-3,346 L-1,347 Z M32,346 L35,347 L32,347 Z M46,346 L48,347 Z M-1,347 L8,347 L8,349 L0,349 Z M9,347 Z M-37,348 Z M11,348 Z M30,348 Z M27,349 L29,350 Z M44,348 L45,350 L42,349 Z M19,350 L26,350 L24,352 L20,352 L21,366 L20,366 L19,361 Z M39,350 L42,351 Z M-36,351 Z M-15,351 L-13,352 L-14,355 Z M9,351 L11,352 L9,354 Z M38,351 Z M-35,352 Z M-34,354 L-32,356 L-33,359 Z M-13,355 Z M8,356 L9,356 L9,369 L7,375 L6,375 L7,368 Z M-12,358 Z M-31,359 Z M-11,361 Z M-30,362 Z M-10,362 Z M-28,365 Z M-27,366 L-25,367 L-26,369 Z M22,366 Z M-7,368 Z M-6,369 L-4,370 L-5,372 Z M23,369 Z M-24,370 L-19,375 L-20,377 L-24,372 Z M-4,372 L-2,373 Z M24,372 L26,373 Z M-2,373 Z M-1,375 L1,377 L-1,377 Z M26,375 L28,376 L27,379 Z M5,376 L6,378 L4,377 Z M-19,377 L-17,379 L-19,379 Z M1,377 Z M-17,379 L-13,383 L-17,381 Z M-42,380 L-40,381 Z M29,380 L31,382 L30,386 Z M-40,381 L-38,382 Z M-37,383 L-35,384 Z M-13,383 Z M-35,384 L-32,385 Z M-32,385 L-28,386 Z M-12,384 L-10,386 L-14,385 Z M31,386 L33,386 L32,389 Z M-27,387 L-16,387 L-16,388 L-27,388 Z M-43,389 Z M33,389 Z M-42,390 Z M-41,391 Z M-40,393 Z M34,393 Z M-38,395 Z M-37,396 Z M36,397 Z M-35,398 Z M-34,399 L-30,401 L-29,403 L-33,401 Z M37,400 L38,404 Z M-29,403 L-27,404 Z M-27,404 L-25,406 L-27,406 Z M39,405 Z M-25,406 Z M-24,407 L-21,408 L-24,408 Z M-21,409 L-18,410 Z M-18,410 L-15,411 L-18,411 Z M40,410 L41,410 L41,426 L40,426 Z M-13,412 L-5,413 L-5,414 L-13,413 Z M-3,415 L4,416 L0,417 Z M4,417 L6,418 Z M6,418 L8,420 L6,420 Z M8,420 Z M9,421 Z M11,422 L13,423 L12,425 Z M13,425 Z M14,426 L16,427 L15,429 Z M39,428 L40,432 L38,432 Z M16,429 Z M18,431 L20,433 L19,436 Z M38,433 Z M37,435 L38,435 L38,442 L37,442 Z M20,436 L22,440 L20,439 Z M22,440 L23,444 Z M36,442 Z M23,445 Z M34,446 Z M25,449 Z M33,449 Z " fill="#FF0100" transform="translate(209,50)"/>
</svg>
