<?xml version="1.0" encoding="UTF-8"?>
<!-- Generator: visioncortex VTracer 0.6.4 -->
<svg version="1.1" xmlns="http://www.w3.org/2000/svg" width="500" height="552">
<path d="M0,0 L4,0 L10,21 L20,51 L20,53 L31,54 L50,58 L62,62 L64,58 L69,55 L77,54 L86,58 L89,58 L108,58 L126,65 L136,74 L141,80 L141,82 L147,83 L174,70 L177,69 L176,74 L166,95 L156,114 L151,125 L163,141 L169,152 L177,152 L183,155 L189,162 L189,173 L185,179 L183,181 L185,191 L189,208 L191,223 L242,240 L252,243 L252,246 L238,251 L217,257 L191,266 L186,292 L183,302 L184,306 L188,312 L188,323 L184,329 L178,333 L169,334 L167,339 L156,356 L158,361 L163,366 L167,371 L169,374 L168,385 L166,389 L172,402 L180,418 L181,422 L177,421 L168,417 L157,416 L152,411 L148,407 L122,394 L119,394 L104,405 L92,412 L89,422 L81,429 L78,430 L71,430 L65,427 L61,425 L38,431 L23,434 L11,471 L5,490 L4,494 L0,494 L-8,468 L-19,435 L-19,433 L-32,432 L-57,426 L-61,425 L-67,430 L-75,432 L-84,429 L-90,421 L-91,412 L-93,412 L-99,415 L-108,423 L-112,425 L-121,425 L-122,424 L-122,415 L-115,404 L-113,401 L-112,397 L-116,395 L-119,395 L-121,399 L-130,415 L-136,422 L-142,425 L-149,425 L-154,422 L-155,421 L-155,415 L-158,414 L-175,422 L-177,422 L-176,418 L-153,371 L-149,363 L-162,345 L-169,334 L-177,333 L-182,330 L-186,325 L-188,317 L-185,308 L-181,303 L-187,282 L-189,271 L-189,264 L-198,262 L-229,252 L-246,247 L-248,246 L-248,243 L-199,227 L-190,224 L-186,200 L-181,183 L-188,175 L-189,172 L-189,164 L-185,157 L-179,153 L-176,152 L-169,152 L-167,153 L-165,146 L-165,144 L-165,141 L-169,139 L-172,129 L-171,116 L-168,108 L-163,102 L-161,102 L-160,97 L-174,68 L-175,64 L-156,73 L-137,82 L-137,80 L-134,80 L-132,74 L-128,69 L-121,61 L-118,57 L-116,57 L-115,54 L-112,53 L-95,52 L-86,49 L-80,48 L-72,48 L-65,50 L-61,54 L-60,58 L-58,61 L-40,56 L-23,53 L-16,53 L-14,44 L-2,7 Z M-77,52 L-90,55 L-94,57 L-105,57 L-112,58 L-119,66 L-125,73 L-131,83 L-137,91 L-141,94 L-141,96 L-145,98 L-152,103 L-160,106 L-164,110 L-164,112 L-166,113 L-167,130 L-166,134 L-161,139 L-156,142 L-154,144 L-154,147 L-161,152 L-162,158 L-156,170 L-147,176 L-139,177 L-134,175 L-133,173 L-133,166 L-126,170 L-124,174 L-118,178 L-117,180 L-112,183 L-104,190 L-102,190 L-101,193 L-94,195 L-89,193 L-84,196 L-81,200 L-81,203 L-79,203 L-79,210 L-77,210 L-78,213 L-75,220 L-69,227 L-64,231 L-62,231 L-60,235 L-55,240 L-56,245 L-59,248 L-59,250 L-64,252 L-68,258 L-77,269 L-84,277 L-89,285 L-94,290 L-96,294 L-100,303 L-100,309 L-95,308 L-91,306 L-95,317 L-95,322 L-93,324 L-89,323 L-82,317 L-79,316 L-86,329 L-93,338 L-100,344 L-109,355 L-115,367 L-116,370 L-116,377 L-110,376 L-92,358 L-86,353 L-79,344 L-79,342 L-77,342 L-79,351 L-81,356 L-81,357 L-75,357 L-73,356 L-73,353 L-69,351 L-67,350 L-71,357 L-79,368 L-90,380 L-96,390 L-105,399 L-113,410 L-118,419 L-118,421 L-113,420 L-108,417 L-103,412 L-94,405 L-88,397 L-83,392 L-74,381 L-67,373 L-65,372 L-64,377 L-60,375 L-51,369 L-44,364 L-41,361 L-41,359 L-37,357 L-29,346 L-26,343 L-26,341 L-23,340 L-19,331 L-12,321 L-9,319 L-6,313 L2,303 L2,301 L6,299 L9,299 L11,299 L11,301 L16,303 L22,310 L24,310 L24,312 L31,317 L34,320 L39,325 L45,329 L56,329 L62,333 L63,335 L70,339 L80,348 L85,352 L87,352 L87,354 L95,361 L110,375 L115,380 L124,387 L130,389 L130,386 L122,375 L121,373 L119,373 L117,368 L115,368 L113,364 L104,354 L99,352 L99,349 L94,344 L87,336 L80,327 L76,322 L76,319 L80,318 L88,322 L92,326 L97,331 L99,331 L99,333 L108,337 L113,336 L110,331 L103,324 L98,319 L95,316 L95,312 L101,313 L109,318 L111,318 L111,320 L124,330 L132,337 L138,344 L145,345 L149,347 L149,349 L152,350 L152,346 L149,343 L147,343 L145,339 L136,329 L128,322 L115,309 L113,309 L111,305 L101,296 L93,290 L88,286 L86,286 L87,281 L92,283 L101,291 L103,291 L104,294 L112,300 L116,305 L125,308 L126,305 L117,292 L110,284 L102,277 L95,270 L90,263 L88,263 L87,259 L80,252 L67,234 L65,231 L66,226 L70,224 L74,214 L77,210 L80,200 L85,199 L90,191 L92,185 L102,179 L104,174 L105,167 L107,168 L108,172 L112,171 L114,166 L117,163 L122,170 L129,169 L133,164 L137,153 L139,126 L141,110 L141,96 L139,87 L133,78 L126,71 L119,67 L105,62 L96,62 L84,65 L75,77 L74,81 L72,81 L69,86 L67,95 L59,109 L54,119 L46,125 L46,128 L42,129 L43,137 L39,146 L39,149 L38,156 L33,160 L24,159 L13,174 L10,176 L5,175 L1,174 L1,172 L-13,161 L-17,160 L-34,160 L-37,158 L-37,152 L-33,144 L-35,137 L-41,133 L-41,126 L-48,117 L-56,110 L-65,102 L-67,99 L-72,100 L-76,105 L-76,107 L-78,107 L-79,110 L-83,109 L-85,105 L-85,95 L-83,87 L-84,74 L-77,72 L-69,66 L-69,64 L-66,63 L-66,55 L-68,53 Z M118,171 L112,182 L109,189 L108,200 L111,203 L116,202 L121,197 L122,194 L122,174 L119,171 Z M63,343 L61,347 L64,353 L66,353 L67,357 L69,357 L70,360 L76,364 L78,364 L79,359 L75,351 L67,344 Z M136,357 L135,364 L139,371 L146,377 L157,385 L162,384 L164,382 L164,375 L160,369 L153,363 L144,357 Z M-128,389 L-131,390 L-134,393 L-134,395 L-136,395 L-136,397 L-138,397 L-146,407 L-151,416 L-149,420 L-143,420 L-137,417 L-128,403 L-125,394 L-126,389 Z M156,397 L153,400 L154,404 L158,410 L160,412 L165,412 L166,411 L165,403 L159,397 Z M-78,123 L-73,125 L-74,132 L-77,132 L-79,128 Z M77,172 L82,173 L81,182 L79,182 L77,186 L74,189 L65,190 L64,187 L74,174 Z M-50,272 L-46,272 L-48,278 L-57,288 L-64,296 L-70,300 L-74,300 L-73,295 L-68,289 L-66,289 L-64,285 Z M42,278 L47,280 L54,287 L60,292 L62,297 L55,295 L48,288 L43,283 Z M-43,326 L-40,327 L-41,334 L-46,340 L-51,339 L-50,334 Z " fill="#FF0100" transform="translate(248,29)"/>
</svg>
