<?xml version="1.0" encoding="UTF-8"?>
<!-- Generator: visioncortex VTracer 0.6.4 -->
<svg version="1.1" xmlns="http://www.w3.org/2000/svg" width="500" height="552">
<path d="M0,0 L2,0 L22,63 L40,66 L56,70 L60,69 L64,65 L70,63 L78,64 L83,67 L87,74 L88,83 L102,91 L116,101 L120,102 L141,91 L157,83 L176,73 L178,73 L176,79 L161,108 L151,127 L149,133 L161,150 L169,164 L176,164 L183,167 L187,172 L189,181 L186,189 L182,192 L183,200 L188,223 L188,230 L197,232 L251,249 L251,251 L223,260 L191,270 L189,272 L184,298 L181,307 L180,309 L185,311 L188,317 L188,327 L182,335 L177,337 L168,338 L162,349 L154,361 L149,367 L151,375 L153,376 L161,392 L176,421 L178,427 L172,425 L149,413 L143,410 L128,402 L120,398 L116,400 L100,411 L89,417 L87,417 L88,422 L86,430 L81,435 L74,438 L65,436 L58,430 L44,434 L42,441 L32,458 L22,475 L10,495 L6,502 L5,503 L-2,503 L-8,494 L-19,475 L-35,448 L-41,438 L-42,434 L-58,430 L-60,434 L-66,437 L-77,437 L-77,435 L-81,433 L-85,427 L-85,417 L-91,415 L-99,411 L-99,409 L-104,407 L-115,399 L-118,398 L-151,415 L-170,425 L-173,427 L-176,427 L-174,421 L-161,396 L-155,384 L-153,383 L-151,377 L-147,369 L-149,365 L-158,352 L-166,338 L-177,336 L-183,331 L-185,327 L-185,317 L-181,311 L-179,308 L-184,289 L-187,275 L-192,271 L-195,268 L-249,251 L-249,249 L-189,230 L-187,229 L-182,203 L-179,193 L-184,187 L-186,182 L-186,176 L-181,168 L-176,165 L-167,164 L-162,155 L-153,141 L-147,133 L-149,126 L-160,106 L-168,90 L-173,81 L-173,79 L-175,78 L-176,73 L-170,75 L-131,95 L-118,102 L-113,100 L-109,97 L-107,97 L-107,95 L-98,90 L-86,83 L-85,74 L-81,68 L-76,64 L-67,63 L-61,66 L-57,70 L-47,68 L-28,64 L-19,63 L-17,54 Z M-3,65 L-21,83 L-23,84 L-23,87 L-27,89 L-30,92 L-30,94 L-34,96 L-51,113 L-51,115 L-55,117 L-59,121 L-59,123 L-63,125 L-68,129 L-67,132 L-57,136 L-47,143 L-41,150 L-38,158 L-37,220 L-104,220 L-114,214 L-121,206 L-129,190 L-134,193 L-152,211 L-160,218 L-170,228 L-175,233 L-185,242 L-193,250 L-199,255 L-197,256 L-195,260 L-185,269 L-169,285 L-161,292 L-144,309 L-142,309 L-142,311 L-134,318 L-130,322 L-128,322 L-122,310 L-113,298 L-104,292 L-101,291 L-37,291 L-37,346 L-36,420 L-35,437 L-19,464 L-9,481 L1,498 L4,495 L16,474 L26,457 L38,437 L38,370 L37,291 L101,292 L109,295 L119,304 L126,316 L128,321 L132,320 L144,308 L149,303 L157,296 L157,294 L161,292 L186,267 L186,265 L190,263 L196,258 L190,251 L178,239 L176,239 L174,235 L130,191 L128,192 L124,202 L116,212 L106,218 L100,220 L39,221 L38,161 L41,151 L47,143 L58,136 L66,132 L67,130 L65,130 L63,126 L50,113 L42,106 L32,96 L24,89 L15,80 L12,77 L9,76 L7,73 L5,73 L3,69 L-1,65 Z M9,75 Z M67,131 Z M-80,65 Z M-59,66 Z M-83,67 Z M-176,77 Z M-151,84 Z M-149,85 Z M23,94 Z M-36,101 Z M-44,109 Z M57,122 Z M-63,130 Z M51,137 Z M-184,191 Z M130,193 Z M133,196 Z M129,198 Z M138,201 Z M-144,204 Z M138,204 Z M141,204 Z M-143,206 Z M-140,206 Z M-123,206 Z M124,206 Z M146,209 Z M-147,211 Z M149,212 Z M-121,214 Z M154,217 Z M-112,218 Z M157,220 Z M162,225 Z M160,226 Z M-168,227 Z M165,228 Z M-172,230 Z M170,233 Z M168,234 Z M173,236 Z M176,242 Z M-241,244 Z M181,244 Z M-191,250 Z M189,252 Z M185,254 Z M188,254 Z M-192,260 Z M-217,262 Z M-190,262 Z M-191,277 Z M-192,279 Z M-163,281 Z M-169,282 Z M-160,291 Z M-157,291 Z M-110,291 Z M-158,292 Z M109,293 Z M-157,294 Z M-117,296 Z M-115,297 Z M149,297 Z M-152,299 Z M-148,300 Z M138,307 Z M141,308 Z M140,309 Z M-137,313 Z M-131,315 Z M-131,319 Z M-184,334 Z M157,377 Z M155,380 Z M-160,392 Z M-164,397 Z M129,403 Z M118,404 Z M131,404 Z M111,406 Z M100,411 Z M145,411 Z M143,412 Z M36,433 Z M84,433 Z M82,435 Z M-61,436 Z M36,436 Z M-59,437 Z M-77,438 Z M34,439 Z M-28,446 Z M13,472 Z M17,483 Z M-15,495 Z M-7,497 Z " fill="#FF0100" transform="translate(249,24)"/>
</svg>
