<?xml version="1.0" encoding="UTF-8"?>
<!-- Generator: visioncortex VTracer 0.6.4 -->
<svg version="1.1" xmlns="http://www.w3.org/2000/svg" width="500" height="550">
<path d="M0,0 L5,1 L13,8 L24,19 L32,26 L43,37 L51,44 L63,56 L71,63 L81,73 L89,80 L93,84 L93,87 L75,95 L67,101 L62,106 L57,114 L55,119 L55,197 L129,196 L141,192 L152,184 L158,176 L164,164 L166,158 L170,159 L253,242 L253,247 L247,253 L245,253 L245,255 L237,262 L192,307 L184,314 L172,326 L169,328 L166,328 L158,311 L151,302 L142,294 L133,290 L127,289 L54,289 L54,472 L41,495 L25,522 L10,548 L9,550 L4,549 L-9,526 L-22,504 L-36,480 L-41,472 L-42,465 L-44,294 L-45,289 L-123,289 L-132,294 L-139,300 L-149,314 L-156,328 L-161,327 L-178,311 L-194,295 L-202,288 L-220,270 L-228,263 L-247,244 L-246,239 L-235,228 L-227,221 L-213,207 L-205,200 L-192,187 L-184,180 L-170,166 L-162,159 L-160,157 L-157,157 L-148,176 L-140,186 L-133,192 L-124,196 L-43,196 L-44,166 L-45,118 L-49,109 L-56,101 L-70,92 L-83,87 L-83,83 Z " fill="#FE0000" transform="translate(247,0)"/>
</svg>
