<?xml version="1.0" encoding="UTF-8"?>
<!-- Generator: visioncortex VTracer 0.6.4 -->
<svg version="1.1" xmlns="http://www.w3.org/2000/svg" width="500" height="552">
<path d="M0,0 L4,0 L17,44 L68,56 L67,59 L38,69 L41,71 L77,82 L77,85 L22,93 L17,93 L18,108 L23,113 L23,119 L18,124 L18,139 L23,144 L23,150 L18,155 L17,171 L21,173 L23,176 L22,183 L19,186 L17,186 L17,203 L21,204 L23,208 L22,215 L19,218 L17,218 L18,233 L23,238 L23,244 L18,249 L18,268 L23,280 L27,285 L38,293 L49,298 L62,302 L80,305 L89,306 L111,306 L112,305 L112,293 L105,268 L104,263 L107,263 L119,279 L133,297 L142,309 L143,316 L143,348 L141,361 L139,361 L135,355 L135,353 L133,353 L127,346 L113,337 L99,331 L80,329 L47,327 L35,327 L17,326 L17,338 L31,340 L34,338 L40,338 L45,342 L45,348 L50,350 L60,357 L65,355 L81,347 L85,345 L88,345 L86,350 L76,370 L77,375 L83,384 L89,386 L93,389 L94,395 L91,400 L93,410 L95,420 L124,429 L124,432 L96,441 L94,441 L93,450 L91,460 L93,463 L93,469 L88,474 L83,474 L81,479 L76,486 L77,491 L86,508 L90,516 L90,518 L84,516 L65,506 L59,504 L46,512 L44,518 L40,521 L34,521 L32,520 L32,518 L19,522 L12,522 L10,531 L3,552 L1,552 L-3,541 L-8,526 L-8,523 L-21,521 L-29,519 L-33,522 L-40,521 L-43,518 L-44,512 L-56,504 L-75,513 L-86,518 L-84,512 L-73,490 L-74,486 L-81,475 L-87,473 L-91,468 L-90,462 L-88,458 L-91,447 L-92,441 L-120,432 L-120,429 L-92,420 L-89,404 L-89,400 L-92,395 L-91,390 L-87,386 L-80,384 L-73,373 L-72,370 L-84,346 L-85,342 L-66,351 L-58,355 L-53,354 L-44,348 L-42,341 L-38,338 L-31,339 L-28,341 L-16,338 L-13,338 L-13,326 L-32,327 L-43,327 L-80,329 L-95,331 L-111,338 L-124,347 L-129,353 L-131,353 L-133,358 L-135,361 L-137,361 L-139,348 L-139,316 L-138,309 L-124,291 L-114,278 L-103,263 L-100,263 L-101,268 L-108,293 L-108,305 L-107,306 L-85,306 L-68,304 L-51,300 L-38,295 L-28,289 L-23,285 L-17,276 L-14,268 L-14,249 L-18,245 L-18,237 L-15,234 L-13,234 L-14,218 L-18,214 L-18,206 L-15,203 L-13,203 L-13,186 L-17,184 L-18,182 L-18,175 L-15,171 L-13,171 L-14,155 L-18,151 L-18,143 L-14,139 L-14,124 L-18,120 L-18,112 L-15,109 L-13,109 L-13,93 L-25,92 L-74,85 L-73,82 L-35,70 L-34,69 L-63,59 L-64,56 L-13,44 Z M-13,371 L-27,376 L-32,381 L-19,407 L-17,410 L-47,395 L-51,400 L-56,412 L-57,420 L-30,429 L-26,429 L-26,432 L-33,433 L-57,441 L-54,451 L-49,461 L-46,464 L-18,450 L-30,473 L-32,478 L-18,485 L-8,487 L1,460 L3,459 L6,470 L11,486 L13,487 L26,483 L35,478 L33,472 L22,450 L48,463 L50,463 L58,447 L59,441 L49,437 L34,432 L30,432 L30,429 L37,428 L59,421 L60,418 L55,403 L51,397 L35,405 L20,412 L32,389 L35,383 L34,379 L22,373 L16,372 L10,399 L3,431 L2,433 L-5,403 L-12,371 Z " fill="#FF0100" transform="translate(248,0)"/>
</svg>
