<?xml version="1.0" encoding="UTF-8"?>
<!-- Generator: visioncortex VTracer 0.6.4 -->
<svg version="1.1" xmlns="http://www.w3.org/2000/svg" width="500" height="552">
<path d="M0,0 L5,1 L18,22 L33,46 L48,70 L57,84 L58,88 L47,81 L33,74 L17,70 L10,60 L3,49 L3,47 L1,47 L-1,52 L-12,69 L-20,72 L-40,79 L-50,85 L-53,85 L-53,83 L-51,83 L-49,78 L-34,54 L-19,30 L-4,6 Z M1,69 L22,71 L37,76 L48,82 L61,92 L69,101 L77,108 L84,112 L90,113 L102,110 L106,108 L111,109 L112,110 L112,153 L109,156 L98,155 L82,155 L68,162 L51,174 L37,182 L24,187 L5,190 L-4,190 L-23,187 L-36,182 L-48,175 L-62,165 L-74,155 L-79,152 L-93,152 L-103,154 L-108,150 L-108,110 L-105,107 L-95,109 L-87,110 L-79,106 L-64,94 L-47,83 L-29,75 L-16,71 Z M0,96 L-13,98 L-25,102 L-39,109 L-50,117 L-58,124 L-60,128 L-53,136 L-42,144 L-25,152 L-14,155 L-6,156 L4,156 L17,154 L36,147 L51,138 L60,129 L58,125 L54,120 L44,112 L31,104 L19,99 L12,97 Z M-4,106 L8,106 L15,110 L21,117 L23,127 L21,135 L17,141 L11,145 L4,147 L-4,146 L-10,143 L-15,138 L-18,133 L-19,125 L-16,116 L-10,109 Z M-92,152 L-81,152 L-72,158 L-72,160 L-70,160 L-71,164 L-86,188 L-102,214 L-117,238 L-123,248 L-132,247 L-146,247 L-154,248 L-152,243 L-141,225 L-129,206 L-117,187 L-102,163 L-96,153 Z M87,155 L96,155 L103,158 L119,184 L131,203 L146,227 L158,246 L158,248 L139,247 L128,248 L121,238 L107,215 L93,193 L80,172 L74,163 L75,159 L82,156 Z M39,183 L41,183 L52,201 L67,225 L79,244 L90,262 L88,266 L81,273 L73,280 L65,288 L58,291 L51,291 L37,286 L32,287 L31,331 L30,332 L-27,332 L-28,287 L-35,287 L-45,291 L-55,291 L-61,287 L-74,275 L-84,266 L-87,263 L-71,237 L-57,215 L-42,191 L-37,184 L-28,187 L-15,191 L-8,192 L6,192 L24,189 Z M-145,248 L-131,248 L-114,252 L-99,258 L-84,267 L-72,279 L-67,284 L-60,290 L-55,292 L-46,292 L-35,288 L-29,289 L-28,291 L-28,330 L-31,335 L-35,336 L-45,334 L-55,334 L-65,337 L-76,343 L-97,356 L-111,363 L-127,368 L-135,369 L-153,369 L-163,367 L-176,362 L-188,355 L-200,346 L-215,334 L-221,331 L-230,331 L-241,334 L-245,335 L-248,333 L-248,289 L-246,287 L-237,288 L-233,289 L-225,289 L-209,279 L-196,270 L-180,260 L-165,253 L-151,249 Z M-147,276 L-161,280 L-175,287 L-188,296 L-199,306 L-200,309 L-195,314 L-186,321 L-170,329 L-155,334 L-149,335 L-130,335 L-118,332 L-104,327 L-89,319 L-81,312 L-83,307 L-92,298 L-106,288 L-118,281 L-129,277 L-134,276 Z M135,248 L149,248 L166,252 L182,259 L197,268 L209,276 L224,286 L229,289 L237,289 L244,287 L250,287 L252,289 L252,333 L248,335 L239,332 L234,331 L225,331 L215,337 L202,348 L184,360 L173,365 L164,368 L157,369 L139,369 L127,367 L108,360 L91,350 L73,339 L64,335 L59,334 L49,334 L36,336 L33,333 L32,330 L32,291 L35,288 L41,289 L50,292 L59,292 L67,288 L75,281 L82,273 L91,265 L107,256 L125,250 Z M138,276 L125,280 L113,286 L99,296 L89,305 L85,310 L87,314 L96,321 L115,330 L129,334 L134,335 L153,335 L169,331 L185,324 L197,316 L203,311 L204,308 L197,300 L184,290 L174,284 L159,278 L151,276 Z M-144,285 L-137,285 L-129,288 L-121,297 L-120,300 L-120,311 L-124,319 L-132,325 L-135,326 L-145,326 L-153,322 L-159,315 L-161,310 L-161,301 L-157,293 L-150,287 Z M141,285 L148,285 L155,288 L161,293 L165,301 L165,310 L161,318 L154,324 L149,326 L139,326 L131,322 L125,314 L124,311 L124,300 L128,293 L135,287 Z M-212,339 L-210,339 L-206,344 L-193,354 L-191,355 L-193,360 L-201,373 L187,373 L205,374 L201,366 L195,357 L195,354 L211,342 L216,340 L226,355 L241,379 L251,395 L251,399 L-247,399 L-246,394 L-231,370 L-216,346 Z " fill="#FF0100" transform="translate(248,77)"/>
</svg>
