<?xml version="1.0" encoding="UTF-8"?>
<!-- Generator: visioncortex VTracer 0.6.4 -->
<svg version="1.1" xmlns="http://www.w3.org/2000/svg" width="500" height="552">
<path d="M0,0 L11,0 L65,9 L83,14 L97,19 L101,24 L104,36 L107,55 L110,87 L110,99 L108,124 L106,138 L100,155 L104,154 L105,149 L109,135 L114,116 L116,99 L117,62 L123,45 L127,42 L134,43 L142,48 L146,49 L146,51 L150,53 L158,60 L164,70 L169,83 L173,86 L182,87 L188,90 L197,100 L206,111 L214,121 L218,126 L226,140 L226,143 L228,143 L232,152 L239,171 L247,198 L249,202 L249,209 L245,213 L238,216 L222,216 L215,213 L214,211 L212,211 L212,208 L210,209 L213,220 L213,230 L210,236 L201,242 L199,242 L198,244 L193,247 L192,249 L187,252 L180,260 L170,269 L168,273 L162,278 L160,282 L155,286 L145,301 L142,305 L140,305 L137,321 L132,327 L127,328 L126,330 L121,332 L120,336 L116,340 L111,350 L109,350 L108,354 L105,357 L103,361 L99,365 L94,370 L85,383 L83,388 L74,388 L67,384 L63,377 L63,375 L61,375 L59,362 L54,366 L45,366 L39,363 L38,361 L35,361 L35,359 L30,357 L13,349 L6,347 L6,345 L0,344 L-3,343 L-4,346 L0,351 L2,352 L6,365 L11,357 L18,356 L24,359 L24,361 L28,362 L46,372 L49,373 L49,375 L54,377 L59,380 L70,394 L73,402 L73,409 L69,418 L65,426 L62,438 L59,454 L56,459 L49,462 L34,461 L9,457 L4,453 L4,444 L0,442 L-8,449 L-14,450 L-23,448 L-35,443 L-39,442 L-39,440 L-44,440 L-59,433 L-69,429 L-85,421 L-94,416 L-103,410 L-103,408 L-108,407 L-116,403 L-116,392 L-120,392 L-129,392 L-134,387 L-142,380 L-147,375 L-149,369 L-151,369 L-153,364 L-153,353 L-149,345 L-143,324 L-139,315 L-133,308 L-125,304 L-122,303 L-111,303 L-94,307 L-84,311 L-78,318 L-67,318 L-54,322 L-44,327 L-44,329 L-39,331 L-23,338 L-18,340 L-19,338 L-19,328 L-15,320 L2,303 L7,296 L9,296 L10,292 L17,277 L20,264 L22,251 L28,233 L29,226 L21,244 L17,255 L12,269 L11,278 L9,278 L8,281 L3,284 L-2,296 L-14,316 L-17,321 L-19,321 L-21,325 L-25,329 L-27,330 L-36,330 L-42,326 L-47,322 L-47,320 L-50,320 L-50,318 L-54,317 L-64,313 L-80,308 L-108,299 L-121,295 L-126,291 L-126,278 L-118,247 L-117,236 L-114,231 L-104,226 L-101,224 L-102,220 L-103,216 L-105,216 L-111,204 L-112,200 L-112,187 L-104,163 L-98,139 L-90,133 L-85,131 L-85,128 L-95,128 L-98,126 L-99,122 L-99,103 L-98,94 L-97,74 L-95,61 L-94,40 L-92,32 L-89,26 L-84,22 L-77,19 L-63,16 L-42,9 L-37,6 L-26,6 L-18,11 L-14,1 L-7,1 L-4,2 Z M30,224 Z M-236,276 L-229,277 L-222,285 L-219,289 L-213,296 L-208,301 L-206,303 L-205,308 L-205,315 L-206,323 L-201,319 L-198,316 L-189,318 L-185,325 L-185,327 L-183,327 L-183,330 L-180,331 L-174,340 L-166,352 L-163,355 L-161,358 L-161,361 L-159,361 L-152,373 L-152,375 L-150,375 L-149,379 L-146,380 L-145,382 L-142,383 L-142,385 L-139,385 L-134,392 L-133,401 L-130,402 L-120,402 L-114,406 L-108,414 L-98,423 L-91,427 L-91,429 L-84,431 L-84,433 L-75,436 L-75,438 L-71,439 L-65,448 L-58,462 L-53,465 L-51,455 L-47,451 L-37,451 L-27,458 L-6,463 L31,468 L69,472 L75,473 L75,475 L78,475 L83,481 L85,482 L87,486 L91,475 L96,473 L107,472 L122,464 L132,460 L135,460 L136,458 L147,452 L149,450 L155,446 L159,445 L175,445 L178,446 L178,452 L168,471 L162,487 L156,508 L152,514 L147,518 L145,518 L144,520 L138,522 L122,525 L96,525 L82,527 L74,529 L63,529 L58,523 L58,521 L56,521 L56,518 L51,517 L48,526 L40,527 L37,522 L35,518 L33,517 L31,523 L27,525 L14,525 L-13,522 L-33,518 L-56,512 L-68,508 L-75,505 L-86,501 L-100,496 L-117,490 L-124,487 L-124,485 L-129,483 L-134,480 L-134,478 L-138,477 L-146,470 L-149,456 L-156,458 L-167,458 L-167,456 L-170,456 L-176,449 L-179,448 L-179,446 L-185,444 L-194,440 L-199,433 L-201,432 L-204,427 L-207,426 L-213,418 L-221,411 L-221,408 L-223,408 L-225,403 L-226,391 L-226,381 L-235,382 L-244,382 L-249,370 L-251,360 L-251,326 L-248,308 L-243,280 L-239,277 Z " fill="#FF0100" transform="translate(251,12)"/>
</svg>
