<?xml version="1.0" encoding="UTF-8"?>
<!-- Generator: visioncortex VTracer 0.6.4 -->
<svg version="1.1" xmlns="http://www.w3.org/2000/svg" width="500" height="552">
<path d="M0,0 L4,0 L10,21 L20,51 L20,53 L31,54 L53,59 L62,62 L64,58 L69,55 L80,55 L86,59 L90,65 L91,74 L105,82 L121,94 L123,95 L157,78 L174,70 L177,69 L176,74 L166,95 L156,114 L151,125 L161,138 L168,149 L170,152 L177,152 L183,155 L189,162 L189,173 L185,179 L183,181 L185,191 L189,208 L191,223 L242,240 L252,243 L252,246 L238,251 L221,256 L191,266 L186,292 L183,302 L184,306 L188,312 L188,323 L184,329 L178,333 L169,334 L167,339 L155,357 L152,360 L154,365 L170,397 L174,407 L181,419 L181,422 L177,421 L144,405 L122,394 L118,395 L101,407 L92,412 L89,422 L81,429 L78,430 L71,430 L65,427 L61,425 L38,431 L23,434 L11,471 L5,490 L4,494 L0,494 L-8,468 L-19,435 L-19,433 L-32,432 L-57,426 L-61,425 L-67,430 L-75,432 L-84,429 L-90,421 L-91,412 L-107,402 L-118,394 L-137,403 L-156,413 L-175,422 L-177,422 L-176,418 L-153,371 L-149,363 L-152,359 L-152,357 L-154,357 L-164,342 L-169,334 L-177,333 L-182,330 L-186,325 L-188,316 L-185,308 L-181,303 L-187,282 L-189,271 L-189,264 L-198,262 L-233,251 L-248,246 L-248,243 L-193,225 L-190,224 L-186,200 L-181,183 L-188,175 L-189,172 L-189,164 L-185,157 L-179,153 L-176,152 L-169,152 L-167,153 L-165,146 L-163,146 L-161,141 L-160,138 L-158,138 L-156,133 L-148,123 L-150,117 L-170,77 L-175,67 L-174,64 L-146,78 L-123,89 L-119,91 L-115,90 L-102,81 L-91,75 L-90,66 L-86,60 L-81,56 L-78,55 L-70,55 L-62,60 L-62,62 L-36,55 L-23,53 L-16,53 L-14,44 L-2,7 Z M2,56 L-1,68 L0,71 L0,69 L4,70 L4,56 Z M-2,71 L-5,85 L-5,90 L-3,88 L-1,78 L-1,71 Z M4,71 L5,84 L7,93 L8,93 L7,83 L5,71 Z M-6,90 L-12,116 L-37,122 L-54,129 L-69,138 L-78,144 L-95,132 L-112,120 L-126,110 L-129,110 L-128,115 L-118,132 L-109,145 L-102,156 L-97,163 L-99,167 L-109,182 L-116,197 L-122,217 L-123,227 L-136,229 L-185,238 L-186,241 L-178,243 L-173,243 L-177,241 L-179,241 L-179,238 L-171,238 L-146,233 L-113,227 L-100,225 L-64,219 L-59,220 L-58,222 L-56,222 L-55,225 L-44,233 L-30,238 L-16,241 L-8,245 L-3,250 L1,256 L2,259 L-9,253 L-15,250 L-38,243 L-54,243 L-64,248 L-70,253 L-75,263 L-103,257 L-130,251 L-138,251 L-138,252 L-124,255 L-122,269 L-118,284 L-111,301 L-104,313 L-97,322 L-98,326 L-107,338 L-118,353 L-128,367 L-136,378 L-137,383 L-131,381 L-115,370 L-100,360 L-86,350 L-78,344 L-73,346 L-59,355 L-45,362 L-30,367 L-13,370 L-8,395 L2,440 L2,442 L4,442 L3,448 L5,448 L10,419 L18,374 L17,370 L28,369 L46,364 L62,357 L78,347 L83,345 L105,360 L115,367 L130,377 L135,381 L139,381 L137,376 L128,363 L120,351 L113,341 L103,327 L104,322 L112,311 L120,296 L128,272 L129,265 L129,260 L138,259 L160,254 L163,252 L153,253 L130,258 L114,262 L102,265 L93,266 L92,260 L86,252 L78,245 L64,239 L60,238 L42,238 L33,241 L28,241 L23,235 L13,227 L4,223 L-4,221 L-18,219 L-30,214 L-33,210 L-33,202 L-32,198 L-28,196 L-19,193 L-11,192 L-5,194 L0,200 L11,206 L21,206 L30,203 L37,199 L49,192 L50,189 L59,187 L70,186 L76,183 L79,179 L79,177 L75,179 L72,182 L68,183 L70,179 L70,173 L68,176 L64,182 L61,184 L50,186 L51,180 L50,179 L45,179 L46,175 L57,168 L68,161 L78,155 L93,145 L107,136 L124,125 L131,121 L127,128 L116,144 L101,166 L94,175 L91,180 L91,182 L89,182 L80,196 L76,201 L73,206 L70,211 L68,212 L67,216 L76,219 L105,225 L127,230 L149,235 L163,238 L167,239 L174,239 L171,237 L134,229 L130,229 L128,215 L120,191 L112,176 L105,166 L107,162 L120,144 L127,133 L135,122 L138,116 L140,115 L140,113 L135,115 L125,121 L114,128 L106,133 L106,135 L102,136 L88,145 L85,145 L69,134 L54,126 L33,119 L13,116 L12,106 L9,93 L8,93 L8,100 L16,138 L24,172 L13,173 L8,175 L-4,173 L-20,172 L-16,146 L-12,129 L-8,109 L-5,95 L-5,90 Z M80,174 Z M79,175 L80,177 Z M174,239 L174,240 L190,243 L189,245 L186,247 L194,246 L201,245 L199,243 L180,239 Z M-173,243 L-169,245 L-164,245 L-168,243 Z M-164,245 Z M-159,246 L-155,247 Z M-155,247 L-151,248 Z M181,247 L185,248 Z M-150,248 Z M177,248 L181,249 Z M-146,249 L-142,250 Z M172,249 L168,251 L177,250 L177,249 Z M-142,250 L-138,251 Z M163,251 L163,252 L168,252 L168,251 Z M177,68 Z M-124,116 L-120,117 L-110,124 L-92,137 L-73,150 L-57,161 L-44,170 L-40,173 L-41,176 L-49,179 L-53,182 L-55,182 L-57,186 L-60,191 L-62,201 L-62,209 L-66,207 L-67,203 L-69,203 L-69,200 L-71,200 L-75,193 L-79,187 L-83,181 L-83,179 L-85,178 L-91,169 L-101,154 L-112,137 L-124,118 Z M45,253 L54,253 L63,256 L69,260 L74,269 L73,277 L69,282 L65,284 L53,284 L40,280 L36,276 L37,269 L37,256 Z M-32,271 L-20,271 L-10,275 L-4,279 L-2,281 L-3,285 L-11,291 L-22,294 L-32,292 L-41,286 L-43,284 L-42,276 L-37,272 Z M-74,294 L-71,294 L-63,305 L-53,313 L-44,318 L-44,321 L-55,328 L-65,334 L-86,348 L-102,359 L-124,374 L-130,378 L-132,378 L-130,373 L-124,365 L-115,352 L-101,332 L-91,319 L-79,303 L-79,301 L-77,301 L-75,297 Z M80,299 L83,300 L89,310 L101,327 L108,337 L115,347 L123,359 L131,371 L132,374 L128,373 L116,365 L97,352 L79,340 L68,333 L53,323 L43,316 L32,308 L29,307 L27,319 L22,338 L19,338 L16,327 L8,317 L9,313 L23,303 L26,300 L32,302 L40,305 L48,307 L65,307 L77,301 Z M-6,321 L0,322 L7,331 L9,336 L9,343 L7,348 L4,350 L-2,349 L-4,347 L-4,340 L-3,339 L-5,338 L-6,347 L-4,352 L2,355 L12,355 L17,350 L19,350 L19,357 L14,387 L7,427 L6,434 L4,435 L2,434 L-1,421 L-8,385 L-15,354 L-20,332 L-20,324 Z " fill="#FF0100" transform="translate(248,29)"/>
</svg>
