<?xml version="1.0" encoding="UTF-8"?>
<!-- Generator: visioncortex VTracer 0.6.4 -->
<svg version="1.1" xmlns="http://www.w3.org/2000/svg" width="500" height="552">
<path d="M0,0 L73,0 L68,4 L53,14 L52,47 L86,47 L101,51 L113,57 L123,66 L129,75 L133,87 L134,93 L134,107 L131,119 L151,118 L164,98 L165,98 L165,171 L161,166 L151,152 L52,151 L52,232 L68,224 L76,217 L82,208 L85,198 L85,188 L81,175 L79,172 L80,158 L81,154 L111,154 L111,171 L109,172 L99,171 L102,180 L103,185 L103,200 L100,211 L94,223 L83,235 L72,243 L57,249 L53,250 L52,501 L38,548 L37,552 L35,552 L28,530 L20,502 L20,249 L13,248 L1,243 L-10,235 L-18,227 L-25,216 L-29,205 L-30,200 L-30,185 L-27,174 L-26,171 L-39,171 L-39,154 L-8,154 L-6,167 L-6,172 L-10,180 L-12,187 L-12,198 L-9,208 L-3,217 L6,225 L19,231 L20,151 L-78,152 L-91,171 L-92,171 L-92,98 L-88,103 L-78,118 L20,119 L19,14 L0,1 Z M52,65 L52,119 L112,119 L115,112 L116,106 L116,94 L113,83 L107,75 L98,69 L89,66 L84,65 Z " fill="#FF0100" transform="translate(213,0)"/>
</svg>
