<?xml version="1.0" encoding="UTF-8"?>
<!-- Generator: visioncortex VTracer 0.6.4 -->
<svg version="1.1" xmlns="http://www.w3.org/2000/svg" width="500" height="552">
<path d="M0,0 L7,1 L9,5 L11,6 L12,9 L13,29 L16,36 L16,50 L14,57 L12,57 L10,62 L6,67 L3,77 L3,79 L-2,80 L-18,79 L-24,77 L-24,75 L-26,75 L-26,69 L-19,66 L-26,63 L-26,47 L-19,20 L-12,9 L-2,1 Z M-17,66 Z M-13,67 Z M-116,15 L-107,16 L-106,19 L-101,21 L-97,26 L-95,32 L-95,41 L-100,59 L-101,65 L-102,84 L-105,87 L-114,86 L-122,83 L-124,81 L-128,64 L-128,38 L-124,28 L-118,17 Z M-24,79 L-13,80 L-6,83 L-5,85 L-5,99 L-8,108 L-8,128 L-13,133 L-16,140 L-17,143 L-20,145 L-35,145 L-35,148 L-17,148 L-16,153 L-15,165 L-16,172 L-13,176 L-13,187 L-15,192 L-25,196 L-30,201 L-35,204 L-37,205 L-36,210 L-37,224 L-38,225 L-56,226 L-57,223 L-56,213 L-52,207 L-48,202 L-46,201 L-50,200 L-50,191 L-53,184 L-53,177 L-49,164 L-46,156 L-44,153 L-43,146 L-41,144 L-41,134 L-38,117 L-36,102 L-33,93 L-30,84 L-28,84 L-26,80 Z M-123,88 L-109,88 L-104,91 L-104,96 L-109,98 L-116,98 L-120,97 L-120,95 L-123,95 L-124,90 Z M-124,98 L-116,99 L-109,101 L-106,105 L-104,111 L-103,126 L-100,130 L-99,133 L-99,140 L-102,142 L-99,145 L-99,149 L-102,151 L-101,153 L-101,161 L-105,171 L-106,177 L-106,189 L-112,201 L-114,201 L-115,212 L-110,220 L-110,228 L-114,233 L-118,235 L-123,235 L-127,232 L-127,215 L-131,204 L-133,198 L-132,180 L-135,162 L-135,148 L-130,147 L-131,140 L-129,139 L-114,138 L-116,137 L-129,136 L-131,133 L-130,124 L-125,100 Z M-111,139 Z M-108,140 Z M-126,149 Z M-124,150 Z M-121,151 Z M-116,152 L-112,154 L-109,152 Z M82,107 L88,107 L93,112 L93,134 L88,147 L84,150 L83,153 L80,156 L74,164 L69,165 L62,163 L59,161 L57,155 L57,144 L60,134 L66,123 L68,119 L70,119 L70,116 L72,116 L74,112 L78,110 L78,108 Z M54,162 L60,162 L67,168 L67,174 L63,183 L61,184 L64,193 L64,204 L62,207 L59,216 L56,222 L52,223 L53,225 L53,231 L48,232 L53,236 L50,246 L45,257 L39,262 L31,264 L23,264 L12,271 L4,270 L4,263 L6,255 L9,241 L12,235 L14,234 L16,228 L20,220 L25,215 L29,213 L35,214 L39,218 L42,221 L46,219 L40,216 L39,214 L36,213 L35,205 L40,193 L42,184 L45,179 L51,177 L52,178 L52,168 Z M48,220 Z M50,221 Z M42,224 L43,226 Z M43,226 Z M44,227 L45,229 Z M45,229 Z M46,230 Z M-298,184 L-291,184 L-282,187 L-278,191 L-278,193 L-276,194 L-274,199 L-272,200 L-271,204 L-269,204 L-267,208 L-264,211 L-262,215 L-260,220 L-257,226 L-254,232 L-253,245 L-255,254 L-258,266 L-269,270 L-272,275 L-272,285 L-271,295 L-272,299 L-274,299 L-275,302 L-280,303 L-289,298 L-291,294 L-298,281 L-304,264 L-305,239 L-308,221 L-308,196 L-306,190 Z M-294,194 L-294,201 L-289,206 L-285,211 L-282,211 L-281,213 L-281,205 L-285,197 L-289,194 Z M179,221 L187,221 L189,222 L192,229 L192,241 L188,250 L184,254 L174,259 L161,266 L160,267 L152,267 L145,260 L146,253 L148,246 L152,237 L163,228 L164,226 L167,226 L167,224 Z M-48,228 L-43,228 L-40,230 L-41,239 L-46,245 L-55,244 L-60,241 L-59,233 L-57,230 Z M-133,238 L-117,239 L-105,238 L-97,245 L-94,252 L-82,255 L-76,260 L-72,265 L-67,264 L-54,264 L-48,268 L-46,276 L-41,280 L-35,283 L-30,288 L-27,295 L-25,302 L-21,305 L-21,314 L-26,319 L-28,324 L-29,339 L-30,342 L-35,347 L-36,350 L-48,350 L-53,347 L-57,343 L-70,342 L-80,342 L-78,344 L-79,349 L-80,350 L-91,350 L-98,352 L-108,353 L-118,353 L-120,346 L-120,332 L-117,323 L-113,321 L-111,314 L-119,321 L-121,328 L-122,339 L-126,342 L-136,343 L-143,337 L-146,333 L-149,327 L-149,325 L-151,324 L-155,320 L-162,314 L-168,293 L-169,291 L-169,280 L-165,275 L-153,268 L-151,268 L-149,263 L-145,253 L-143,247 L-140,242 L-138,240 Z M-110,311 Z M-67,245 L-55,245 L-46,252 L-46,258 L-50,261 L-63,261 L-72,258 L-77,256 L-76,250 L-73,247 Z M136,261 L145,262 L151,267 L150,275 L148,280 L143,281 L141,293 L139,302 L135,308 L129,313 L127,321 L123,324 L115,323 L103,323 L94,326 L91,329 L90,332 L88,333 L87,336 L85,336 L85,340 L83,340 L83,342 L81,343 L72,342 L72,340 L70,340 L67,335 L67,330 L73,325 L80,321 L83,314 L87,307 L92,302 L100,295 L114,281 L120,277 L123,272 L126,269 L135,270 L135,263 Z M136,273 Z M137,274 L138,276 Z M19,268 L29,268 L30,273 L28,278 L26,278 L25,283 L23,283 L21,287 L20,290 L18,290 L17,294 L16,297 L14,297 L12,302 L6,301 L1,298 L-1,294 L-1,288 L3,282 L7,278 L9,278 L10,275 L13,275 L15,271 Z M-264,274 L-261,275 L-258,283 L-255,290 L-252,299 L-248,307 L-248,316 L-251,321 L-253,322 L-254,325 L-257,328 L-257,330 L-260,332 L-265,331 L-271,326 L-272,316 L-268,282 L-266,275 Z M-20,286 L-14,287 L-12,288 L-12,290 L-8,292 L-4,298 L-4,303 L-11,307 L-16,308 L-21,304 L-22,297 L-24,295 L-23,289 L-20,288 Z M-10,308 L-3,308 L4,313 L4,315 L8,317 L11,319 L11,330 L13,330 L15,339 L20,345 L26,343 L35,343 L39,336 L41,334 L46,334 L51,341 L49,337 L48,332 L50,330 L57,330 L62,333 L66,341 L69,347 L69,351 L62,350 L61,350 L63,355 L62,377 L60,384 L57,387 L53,398 L51,405 L43,410 L25,415 L20,412 L19,409 L17,408 L13,402 L7,397 L-6,393 L-9,391 L-12,386 L-14,385 L-14,383 L-18,381 L-23,376 L-24,375 L-25,365 L-30,353 L-31,345 L-26,333 L-26,324 L-24,316 L-14,309 Z M53,342 L53,345 L55,344 Z M55,345 Z M56,346 Z M58,347 Z M-178,318 L-173,319 L-167,326 L-155,332 L-150,338 L-148,339 L-144,348 L-144,350 L-142,351 L-137,363 L-134,368 L-129,382 L-127,389 L-127,391 L-125,391 L-122,404 L-119,414 L-113,422 L-105,427 L-96,439 L-95,442 L-93,442 L-90,447 L-87,448 L-84,451 L-72,456 L-66,460 L-64,460 L-63,466 L-76,467 L-86,461 L-96,458 L-96,456 L-98,456 L-99,453 L-111,446 L-115,444 L-119,444 L-117,449 L-114,455 L-115,464 L-116,466 L-118,466 L-121,476 L-123,486 L-127,490 L-132,495 L-139,501 L-149,506 L-157,508 L-165,508 L-176,501 L-185,491 L-203,484 L-214,478 L-221,472 L-224,468 L-227,463 L-231,453 L-234,447 L-238,442 L-243,439 L-248,434 L-250,430 L-250,421 L-246,409 L-242,399 L-241,393 L-242,379 L-239,367 L-235,357 L-233,345 L-231,340 L-230,325 L-222,325 L-216,329 L-214,334 L-209,344 L-209,347 L-207,347 L-204,352 L-203,353 L-195,354 L-193,349 L-191,349 L-191,347 L-184,347 L-181,348 L-187,335 L-187,323 Z M-180,350 L-179,357 L-178,353 Z M-246,325 L-244,328 L-244,336 L-246,336 L-247,341 L-253,357 L-256,361 L-263,360 L-267,355 L-267,347 L-265,342 L-261,338 L-259,337 L-257,333 L-253,327 Z M-244,353 L-242,353 L-243,363 L-245,371 L-243,380 L-243,387 L-247,401 L-249,407 L-252,410 L-257,410 L-258,408 L-262,406 L-261,397 L-258,385 L-257,369 L-255,369 L-253,365 L-249,358 L-247,358 L-247,355 Z M-89,353 L-72,353 L-66,357 L-67,362 L-73,365 L-89,364 L-97,360 L-96,355 Z M-24,455 L-16,457 L-11,461 L-11,467 L-17,468 L-31,466 L-33,464 L-33,459 L-28,456 Z M-99,463 L-93,464 L-87,469 L-86,476 L-88,478 L-97,478 L-105,475 L-110,471 L-110,466 L-105,464 Z M-67,468 L-58,468 L-57,470 L-57,476 L-58,477 L-64,477 L-68,472 Z M-25,469 L-16,469 L-13,470 L-13,477 L-14,479 L-16,479 L-19,488 L-23,502 L-25,502 L-27,506 L-34,510 L-26,513 L-25,519 L-26,524 L-28,524 L-30,530 L-40,535 L-51,535 L-62,531 L-65,530 L-67,526 L-67,521 L-63,517 L-56,516 L-49,515 L-47,513 L-54,513 L-60,511 L-60,509 L-62,509 L-61,502 L-56,495 L-54,495 L-52,491 L-51,488 L-42,482 L-36,479 L-31,474 L-28,470 Z M-41,510 L-45,512 L-37,511 Z " fill="#FF0100" transform="translate(308,8)"/>
</svg>
