<?xml version="1.0" encoding="UTF-8"?>
<!-- Generator: visioncortex VTracer 0.6.4 -->
<svg version="1.1" xmlns="http://www.w3.org/2000/svg" width="500" height="552">
<path d="M0,0 L135,0 L221,1 L258,1 L269,2 L299,3 L301,4 L300,9 L297,12 L295,20 L293,32 L291,69 L291,119 L288,151 L288,163 L286,176 L285,196 L282,203 L280,208 L275,224 L265,246 L263,250 L261,250 L259,256 L255,261 L249,269 L246,274 L240,281 L232,288 L221,299 L215,303 L212,307 L201,313 L189,322 L180,328 L173,332 L161,340 L152,347 L146,352 L141,363 L138,374 L138,397 L139,427 L143,450 L149,467 L154,477 L162,487 L172,498 L178,503 L178,505 L183,507 L188,512 L197,521 L211,532 L225,538 L238,542 L247,546 L250,548 L249,551 L243,552 L233,552 L220,551 L188,551 L169,550 L133,550 L100,549 L0,549 L-16,550 L-54,551 L-64,551 L-65,547 L-57,541 L-47,538 L-35,533 L-14,525 L0,517 L13,507 L16,504 L21,501 L31,491 L38,480 L45,466 L49,452 L54,429 L56,409 L56,385 L54,368 L49,358 L45,352 L41,350 L41,347 L37,345 L28,337 L17,329 L3,322 L-9,312 L-20,304 L-35,292 L-35,290 L-39,288 L-39,286 L-43,284 L-52,274 L-63,262 L-71,250 L-79,233 L-84,221 L-89,207 L-96,182 L-100,160 L-103,133 L-103,102 L-104,99 L-104,69 L-106,38 L-109,20 L-112,11 L-112,8 L-114,8 L-114,3 L-109,2 L-92,1 L-8,1 Z M2,25 L-5,26 L-51,26 L-68,28 L-79,28 L-81,32 L-81,42 L-80,51 L-79,53 L-38,53 L-38,101 L-50,102 L-75,103 L-76,108 L-77,130 L-57,130 L-41,129 L-39,128 L-38,141 L-36,150 L-32,176 L-30,188 L-26,199 L-21,216 L-13,234 L-6,246 L4,259 L9,266 L11,266 L13,271 L24,282 L28,286 L40,283 L36,277 L25,264 L16,250 L12,243 L6,231 L0,216 L-5,197 L-7,181 L-9,174 L-10,166 L-11,161 L-12,147 L-14,131 L-12,128 L4,128 L25,126 L26,120 L26,107 L24,102 L-14,102 L-15,99 L-14,93 L-14,53 L-13,52 L-2,51 L9,52 L19,51 L42,50 L70,50 L72,49 L73,71 L73,91 L75,158 L75,167 L76,173 L44,173 L43,177 L43,197 L46,198 L78,195 L77,211 L78,231 L80,245 L81,252 L83,269 L86,276 L95,276 L97,268 L99,252 L100,229 L100,193 L132,193 L134,177 L133,173 L132,172 L122,172 L104,173 L100,171 L99,148 L99,135 L98,109 L98,49 L132,49 L150,48 L162,49 L198,48 L197,56 L198,94 L195,96 L170,96 L157,98 L158,123 L197,123 L194,142 L190,167 L187,182 L184,193 L182,198 L176,212 L171,222 L167,231 L165,235 L165,239 L163,239 L150,258 L141,268 L134,277 L137,279 L143,281 L143,279 L148,277 L153,271 L161,264 L161,262 L165,260 L171,253 L175,249 L175,247 L179,245 L185,236 L191,227 L197,219 L205,202 L210,190 L214,177 L217,168 L220,144 L221,122 L250,122 L260,121 L260,101 L258,98 L225,98 L222,97 L223,85 L223,49 L227,48 L250,48 L262,47 L264,37 L264,26 L255,25 L247,26 L236,26 L218,28 L210,27 L183,26 L38,26 L19,27 Z M259,98 Z M59,349 L62,356 L65,361 L80,362 L98,362 L125,361 L130,350 L90,349 Z M89,374 L89,393 L90,399 L71,399 L71,412 L90,412 L90,450 L86,451 L65,451 L61,462 L61,464 L72,463 L86,463 L88,465 L89,474 L87,483 L84,498 L79,508 L75,517 L74,524 L70,526 L70,528 L78,529 L96,528 L124,527 L118,518 L110,502 L106,489 L105,480 L105,474 L104,469 L104,462 L119,462 L128,461 L127,451 L126,450 L101,451 L101,410 L124,410 L124,399 L123,397 L102,397 L100,387 L100,374 Z M69,528 Z M-32,295 Z M25,495 Z M-5,518 Z " fill="#FF0100" transform="translate(156,0)"/>
</svg>
