<?xml version="1.0" encoding="UTF-8"?>
<!-- Generator: visioncortex VTracer 0.6.4 -->
<svg version="1.1" xmlns="http://www.w3.org/2000/svg" width="500" height="552">
<path d="M0,0 L55,0 L78,4 L102,11 L127,21 L147,32 L156,39 L165,48 L172,56 L181,66 L188,74 L201,85 L218,94 L231,103 L243,114 L249,122 L249,124 L251,124 L256,136 L262,156 L270,174 L277,183 L283,191 L290,203 L292,209 L292,223 L288,230 L288,233 L295,241 L299,249 L300,253 L300,270 L297,279 L289,292 L281,300 L270,306 L262,308 L241,308 L226,304 L213,299 L209,299 L214,304 L223,310 L234,315 L238,316 L250,316 L264,312 L279,312 L290,316 L299,324 L304,332 L308,346 L308,365 L304,374 L298,384 L285,397 L274,404 L261,408 L241,411 L194,416 L174,420 L150,427 L129,431 L120,432 L90,432 L70,428 L50,422 L8,405 L-13,399 L-32,394 L-49,390 L-64,384 L-80,374 L-91,366 L-100,360 L-110,351 L-117,343 L-129,325 L-137,309 L-143,295 L-151,271 L-156,266 L-163,256 L-173,238 L-181,223 L-188,202 L-191,187 L-192,179 L-192,146 L-187,112 L-182,90 L-176,74 L-166,55 L-161,49 L-147,40 L-141,38 L-128,38 L-115,41 L-107,44 L-89,32 L-73,23 L-54,14 L-30,6 L-7,1 Z M3,11 L-16,14 L-37,20 L-52,26 L-68,34 L-79,40 L-94,50 L-89,55 L-75,64 L-50,78 L-43,84 L-41,84 L-39,88 L-33,98 L-29,112 L-28,119 L-28,143 L-32,156 L-38,166 L-47,174 L-56,178 L-63,180 L-57,188 L-53,193 L-51,199 L-51,207 L-56,220 L-65,237 L-72,246 L-80,253 L-87,256 L-96,256 L-99,255 L-99,263 L-89,284 L-79,309 L-76,320 L-76,332 L-77,335 L-81,334 L-83,331 L-87,316 L-93,305 L-101,294 L-106,279 L-108,258 L-117,255 L-118,255 L-120,280 L-122,280 L-124,276 L-130,269 L-129,250 L-144,237 L-159,221 L-170,207 L-173,205 L-171,211 L-155,238 L-142,260 L-127,283 L-118,297 L-110,308 L-102,319 L-93,329 L-86,336 L-67,350 L-52,359 L-47,361 L-53,350 L-60,334 L-67,310 L-71,294 L-72,278 L-70,258 L-66,245 L-61,237 L-56,234 L-47,234 L-44,239 L-44,244 L-49,252 L-52,262 L-51,276 L-47,298 L-41,319 L-35,333 L-28,344 L-20,354 L-11,362 L3,371 L21,382 L38,391 L62,399 L83,403 L94,404 L117,404 L142,401 L163,396 L181,390 L188,387 L193,386 L208,385 L208,384 L199,381 L193,376 L183,363 L172,347 L168,349 L157,357 L141,365 L123,371 L114,372 L100,381 L86,387 L77,389 L64,389 L51,385 L40,378 L33,370 L27,358 L25,351 L25,338 L29,323 L35,311 L41,304 L53,298 L58,297 L72,297 L80,288 L91,282 L102,278 L110,276 L124,276 L131,279 L135,280 L146,280 L160,276 L170,270 L174,266 L183,263 L202,263 L219,268 L235,275 L245,278 L258,278 L266,274 L274,266 L279,265 L281,267 L280,272 L273,281 L266,286 L257,288 L242,287 L227,283 L208,275 L199,273 L179,273 L170,277 L162,284 L156,288 L150,290 L129,290 L118,288 L111,288 L95,294 L85,301 L78,308 L74,316 L73,325 L75,334 L81,344 L85,349 L95,355 L105,357 L119,356 L133,352 L146,346 L159,339 L166,334 L165,330 L161,324 L156,326 L138,334 L124,337 L116,337 L107,335 L96,329 L90,324 L89,318 L93,311 L101,304 L111,299 L121,297 L136,301 L147,301 L157,296 L168,288 L178,283 L185,281 L196,280 L208,282 L225,288 L240,295 L247,297 L257,297 L271,290 L281,281 L285,274 L286,270 L286,256 L282,246 L279,245 L260,248 L242,249 L229,248 L217,244 L209,237 L201,226 L198,219 L198,208 L203,200 L213,194 L211,190 L201,181 L187,171 L173,164 L163,162 L152,163 L143,167 L134,175 L126,188 L122,196 L117,200 L109,202 L100,203 L85,203 L69,199 L59,193 L52,185 L48,178 L40,181 L43,188 L49,198 L58,208 L67,214 L73,216 L102,216 L109,218 L110,226 L106,230 L93,233 L74,233 L62,230 L51,224 L41,215 L33,201 L27,185 L22,167 L19,151 L18,142 L18,128 L20,119 L27,109 L31,104 L39,97 L52,88 L62,84 L66,83 L78,83 L87,87 L98,95 L111,106 L125,115 L130,117 L137,117 L141,112 L144,100 L152,91 L157,89 L162,90 L168,95 L173,106 L175,114 L175,121 L172,131 L165,140 L154,147 L157,149 L168,149 L188,155 L204,163 L214,170 L223,178 L232,190 L240,207 L239,212 L238,213 L232,213 L227,208 L222,205 L213,206 L212,207 L212,214 L219,222 L227,229 L239,234 L249,235 L259,233 L276,225 L282,220 L283,218 L283,211 L279,202 L273,194 L263,182 L255,168 L247,147 L243,136 L241,140 L241,143 L237,145 L234,147 L224,147 L219,143 L218,141 L218,130 L223,125 L225,124 L235,124 L233,120 L226,113 L213,105 L192,94 L183,87 L176,77 L165,65 L148,49 L141,42 L125,31 L108,22 L88,16 L70,13 L60,12 L38,11 Z M-136,48 L-146,52 L-155,60 L-161,70 L-165,79 L-172,107 L-174,121 L-174,155 L-170,170 L-163,186 L-154,200 L-145,212 L-133,225 L-122,233 L-107,239 L-102,240 L-87,240 L-79,237 L-74,233 L-68,223 L-63,209 L-63,195 L-65,191 L-69,188 L-86,184 L-100,177 L-107,171 L-110,166 L-112,157 L-112,146 L-109,138 L-104,133 L-96,129 L-90,128 L-82,128 L-77,131 L-76,137 L-74,137 L-72,130 L-75,125 L-78,124 L-93,124 L-105,129 L-115,135 L-118,139 L-120,148 L-119,160 L-115,171 L-110,177 L-94,185 L-79,194 L-71,202 L-69,206 L-69,213 L-73,223 L-80,229 L-90,233 L-95,234 L-106,234 L-118,229 L-127,222 L-135,214 L-142,206 L-153,192 L-164,173 L-170,157 L-171,149 L-171,126 L-167,110 L-157,95 L-152,85 L-149,74 L-147,66 L-143,61 L-134,57 L-116,57 L-101,63 L-78,74 L-76,73 L-93,63 L-116,52 L-125,48 Z M-76,74 Z M-74,75 L-73,77 L-71,76 Z M-133,77 L-139,80 L-143,85 L-146,96 L-152,105 L-158,112 L-161,124 L-162,133 L-162,152 L-160,166 L-156,176 L-147,188 L-136,200 L-129,207 L-115,218 L-107,221 L-97,223 L-89,223 L-83,220 L-82,217 L-94,209 L-111,197 L-125,186 L-129,181 L-132,171 L-132,147 L-128,134 L-121,125 L-114,119 L-106,115 L-100,113 L-88,112 L-75,116 L-66,124 L-63,131 L-63,138 L-66,144 L-66,146 L-60,145 L-57,141 L-56,135 L-60,122 L-68,109 L-76,99 L-83,91 L-91,85 L-102,79 L-110,77 Z M-71,77 Z M-69,78 Z M70,91 L60,93 L51,98 L45,103 L38,113 L33,123 L32,130 L37,134 L38,134 L40,127 L45,121 L59,112 L70,108 L82,108 L93,112 L110,121 L125,136 L134,141 L145,141 L153,137 L159,130 L161,126 L161,111 L159,105 L158,105 L154,118 L148,127 L144,130 L137,131 L129,128 L119,119 L107,108 L94,99 L82,93 L74,91 Z M80,141 L69,145 L61,152 L59,156 L77,157 L89,160 L95,164 L101,168 L110,168 L115,165 L116,163 L116,156 L109,148 L96,142 L92,141 Z M-38,122 L-40,137 L-44,145 L-50,152 L-64,159 L-73,160 L-78,157 L-79,154 L-79,146 L-84,147 L-87,152 L-85,159 L-78,165 L-76,166 L-68,166 L-52,158 L-46,153 L-40,144 L-37,136 L-37,122 Z M-68,146 Z M58,156 Z M62,170 L64,176 L73,186 L84,191 L95,193 L109,193 L114,192 L116,186 L108,189 L96,189 L88,185 L78,178 Z M-176,200 Z M-175,202 Z M-174,203 L-173,205 Z M187,300 L177,302 L172,306 L180,317 L194,341 L203,358 L207,368 L210,365 L214,354 L214,335 L210,321 L202,305 L199,301 Z M64,306 Z M60,307 L50,312 L44,319 L41,328 L41,342 L44,352 L50,361 L58,367 L68,371 L72,372 L91,372 L90,370 L80,365 L71,358 L64,347 L61,338 L60,332 L60,318 L64,307 Z M109,315 L103,318 L102,322 L108,326 L115,328 L129,328 L139,325 L150,318 L150,317 L140,318 L126,318 L117,315 Z M150,316 Z M264,319 L258,323 L251,325 L241,325 L225,321 L227,333 L243,329 L249,328 L273,328 L285,331 L294,337 L295,338 L295,345 L291,351 L282,357 L275,359 L257,358 L225,355 L223,364 L216,378 L211,382 L209,384 L242,384 L245,385 L257,385 L273,381 L284,375 L293,366 L298,356 L299,353 L299,345 L296,335 L292,329 L283,323 L272,320 Z M272,338 L239,344 L238,346 L250,349 L257,350 L267,350 L277,347 L282,342 L279,339 Z M-47,361 Z M24,31 L33,31 L39,35 L41,39 L41,49 L36,55 L34,56 L23,56 L17,51 L16,48 L16,39 L18,35 Z M-29,33 L-20,33 L-14,37 L-11,41 L-11,52 L-14,57 L-19,60 L-30,60 L-37,54 L-38,52 L-38,42 L-35,37 Z M73,39 L82,39 L88,43 L90,47 L90,56 L87,61 L83,64 L72,64 L66,59 L65,56 L65,47 L68,42 Z M-68,40 L-59,40 L-54,43 L-52,47 L-52,57 L-56,62 L-58,63 L-68,63 L-73,60 L-75,56 L-75,47 L-70,41 Z M42,64 L51,64 L57,69 L58,71 L58,80 L55,85 L51,87 L42,87 L37,84 L35,80 L35,71 L40,65 Z M-4,69 L5,69 L11,73 L13,77 L13,87 L8,93 L5,94 L-4,94 L-10,90 L-12,86 L-12,77 L-6,70 Z M-4,116 L5,116 L11,120 L13,124 L13,133 L10,138 L5,141 L-4,141 L-10,137 L-12,133 L-12,124 L-6,117 Z M189,128 L197,128 L204,134 L204,143 L203,145 L201,145 L201,147 L198,149 L189,149 L184,145 L183,143 L183,134 L187,129 Z M-8,162 L4,163 L19,168 L19,170 L-6,174 L-23,180 L-42,190 L-47,194 L-49,194 L-47,189 L-40,179 L-32,171 L-22,165 L-16,163 Z M-5,207 L4,207 L10,211 L12,215 L12,224 L8,230 L4,232 L-5,232 L-12,226 L-13,224 L-13,215 L-7,208 Z M11,238 L20,238 L26,242 L29,247 L29,256 L26,261 L20,265 L11,265 L5,261 L2,256 L2,247 L5,242 Z M-33,249 L-24,249 L-18,253 L-16,257 L-16,266 L-20,272 L-24,274 L-33,274 L-40,268 L-41,266 L-41,257 L-35,250 Z M-8,317 L1,317 L6,320 L8,324 L8,333 L3,339 L1,340 L-8,340 L-14,335 L-15,333 L-15,324 L-10,318 Z " fill="#FF0100" transform="translate(192,60)"/>
</svg>
