<?xml version="1.0" encoding="UTF-8"?>
<!-- Generator: visioncortex VTracer 0.6.4 -->
<svg version="1.1" xmlns="http://www.w3.org/2000/svg" width="680" height="500">
<path d="M0,0 L4,1 L7,8 L8,15 L8,59 L-1,73 L-5,86 L-13,102 L-24,118 L-35,132 L-44,142 L-51,150 L-56,154 L-61,159 L-69,166 L-86,176 L-90,178 L-80,177 L-71,173 L-63,167 L-61,168 L-56,185 L-48,201 L-40,211 L-30,217 L-26,218 L-11,218 L-1,215 L7,210 L10,204 L10,185 L5,175 L-5,167 L-5,165 L4,166 L11,170 L16,178 L17,182 L17,205 L13,214 L6,222 L-6,228 L-10,229 L-23,230 L-36,230 L-49,226 L-59,221 L-68,214 L-78,204 L-88,191 L-95,182 L-95,180 L-119,188 L-141,193 L-162,196 L-196,198 L-224,201 L-259,207 L-286,214 L-302,219 L-311,224 L-321,233 L-329,242 L-337,255 L-340,260 L-345,259 L-351,250 L-353,244 L-353,229 L-349,218 L-341,203 L-333,196 L-320,188 L-302,181 L-283,177 L-269,176 L-259,177 L-224,177 L-196,174 L-176,170 L-152,164 L-130,156 L-113,148 L-97,138 L-81,126 L-68,113 L-55,96 L-42,75 L-29,52 L-23,36 L-13,18 L-3,3 Z M-95,179 Z " fill="#FD0000" transform="translate(353,240)"/>
<path d="M0,0 L4,0 L5,7 L1,11 L-4,16 L-12,32 L-17,48 L-11,48 L-17,64 L-21,80 L-21,96 L-18,109 L-10,125 L0,138 L8,145 L15,149 L14,146 L10,137 L8,129 L7,120 L7,108 L9,93 L11,83 L15,83 L21,100 L29,115 L36,124 L44,131 L52,135 L56,136 L68,136 L70,131 L80,113 L86,99 L88,84 L97,85 L103,89 L109,101 L111,111 L111,130 L103,139 L88,149 L68,160 L53,167 L46,169 L47,165 L59,148 L55,150 L35,162 L43,170 L42,174 L32,177 L11,177 L-1,174 L-20,165 L-36,154 L-50,142 L-68,124 L-68,109 L-65,94 L-60,80 L-53,69 L-45,60 L-33,52 L-25,49 L-37,49 L-49,54 L-56,60 L-62,70 L-66,82 L-68,92 L-69,93 L-75,93 L-78,78 L-78,60 L-75,46 L-69,34 L-60,24 L-51,18 L-33,10 L-12,3 Z " fill="#FC0000" transform="translate(466,70)"/>
<path d="M0,0 L14,0 L35,3 L46,8 L51,9 L69,9 L83,5 L88,5 L84,12 L75,21 L57,34 L46,43 L32,55 L20,67 L11,78 L9,78 L7,82 L-4,100 L-12,119 L-16,134 L-18,146 L-18,171 L-15,181 L-15,192 L-18,195 L-22,194 L-32,179 L-44,154 L-50,134 L-53,116 L-55,78 L-55,59 L-53,27 L-51,10 L-38,9 L-20,3 L-10,1 Z " fill="#FD0000" transform="translate(368,20)"/>
<path d="M0,0 L5,2 L12,9 L20,16 L55,51 L65,64 L71,74 L80,88 L91,111 L97,130 L99,141 L99,153 L94,156 L87,159 L69,169 L57,174 L44,178 L30,187 L23,193 L19,199 L11,206 L-5,214 L-17,217 L-25,218 L-43,218 L-40,209 L-35,205 L-22,198 L-13,191 L-8,187 L1,176 L9,162 L14,150 L18,133 L21,118 L22,106 L22,89 L20,65 L15,39 L8,18 L0,2 Z " fill="#FD0000" transform="translate(581,78)"/>
<path d="M0,0 L10,0 L21,13 L31,22 L44,30 L60,37 L75,41 L88,43 L126,45 L176,47 L184,48 L184,57 L180,64 L175,69 L168,75 L151,85 L128,95 L103,99 L66,103 L46,103 L35,91 L22,74 L15,63 L5,33 L1,14 Z " fill="#FD0000" transform="translate(363,257)"/>
<path d="M0,0 L2,0 L3,7 L2,23 L-2,36 L-9,47 L-21,59 L-35,68 L-50,75 L-68,81 L-93,86 L-108,86 L-124,77 L-136,68 L-146,59 L-155,50 L-166,34 L-174,17 L-177,7 L-177,2 L-172,4 L-162,14 L-154,21 L-142,33 L-126,41 L-110,45 L-95,45 L-84,42 L-66,34 L-49,27 L-26,16 L-4,3 Z " fill="#FD0000" transform="translate(583,209)"/>
<path d="M0,0 L3,0 L3,7 L-1,21 L-1,43 L2,74 L7,99 L15,121 L27,144 L36,157 L47,170 L58,179 L60,182 L60,187 L50,186 L28,180 L16,174 L9,168 L2,160 L-11,151 L-16,148 L-22,130 L-25,114 L-26,101 L-26,91 L-24,72 L-18,44 L-13,23 L-8,10 L-2,2 Z " fill="#FC0000" transform="translate(382,100)"/>
<path d="M0,0 L4,1 L14,9 L27,21 L36,30 L48,46 L54,56 L58,66 L60,78 L59,87 L50,97 L45,107 L41,120 L35,129 L27,134 L17,135 L18,128 L23,111 L24,106 L24,89 L21,81 L15,76 L10,74 L10,71 L28,71 L28,73 L38,74 L51,79 L43,72 L30,64 L16,58 L-1,54 L-9,53 L-36,53 L-35,44 L-31,34 L-24,23 L-13,11 Z M52,80 Z " fill="#FC0000" transform="translate(496,65)"/>
<path d="M0,0 L6,0 L22,9 L39,21 L52,32 L61,42 L66,52 L67,56 L67,63 L34,57 L13,55 L-2,55 L-20,57 L-36,61 L-52,68 L-55,69 L-53,63 L-44,47 L-34,33 L-23,20 L-11,8 Z " fill="#FC0000" transform="translate(493,0)"/>
<path d="M0,0 L8,0 L22,3 L32,8 L42,16 L50,25 L56,35 L61,51 L63,62 L63,89 L60,104 L56,116 L54,119 L52,119 L48,102 L41,88 L33,82 L29,80 L24,60 L18,44 L9,27 L1,17 L-6,10 L-13,5 L-12,2 Z " fill="#FC0000" transform="translate(535,75)"/>
<path d="M0,0 L31,2 L43,6 L47,9 L47,11 L31,18 L25,22 L19,27 L13,37 L10,45 L9,49 L9,72 L5,70 L-3,54 L-6,41 L-6,19 L-3,6 Z " fill="#FA0000" transform="translate(458,121)"/>
<path d="M0,0 L5,2 L12,9 L20,16 L55,51 L65,64 L66,69 L62,64 L55,55 L46,45 L13,12 L5,5 L0,2 Z " fill="#F10000" transform="translate(581,78)"/>
<path d="M0,0 L5,2 L12,9 L20,16 L32,28 L29,28 L13,12 L5,5 L0,2 Z " fill="#F20000" transform="translate(581,78)"/>
<path d="M0,0 L4,1 L3,3 L7,5 L12,9 L16,16 L15,18 L8,8 L0,2 Z " fill="#DF0000" transform="translate(348,405)"/>
<path d="M0,0 L5,2 L11,8 L10,10 L4,4 L0,2 Z " fill="#A50000" transform="translate(581,78)"/>
<path d="M0,0 L2,1 L-2,6 L-3,10 L-6,11 L-5,7 Z " fill="#960000" transform="translate(518,228)"/>
</svg>
