<?xml version="1.0" encoding="UTF-8"?>
<!-- Generator: visioncortex VTracer 0.6.4 -->
<svg version="1.1" xmlns="http://www.w3.org/2000/svg" width="500" height="552">
<path d="M0,0 L2,0 L16,43 L18,51 L25,49 L42,49 L65,54 L78,54 L91,52 L100,44 L114,35 L120,36 L138,47 L148,55 L156,62 L164,73 L165,75 L171,73 L176,70 L178,70 L176,76 L171,86 L169,91 L167,94 L171,95 L178,91 L188,100 L191,102 L191,104 L193,104 L197,108 L197,110 L201,112 L213,125 L217,129 L229,145 L235,157 L245,181 L248,193 L248,201 L242,209 L240,212 L231,217 L216,224 L206,229 L204,229 L204,231 L211,232 L248,244 L248,250 L234,255 L207,264 L204,264 L203,266 L192,268 L189,287 L184,305 L184,309 L187,312 L189,315 L189,327 L187,331 L178,337 L170,338 L164,349 L156,360 L153,364 L154,370 L159,380 L159,382 L161,383 L167,396 L167,398 L169,399 L177,415 L182,425 L181,428 L162,418 L122,398 L117,400 L103,410 L93,416 L91,416 L90,425 L83,433 L78,435 L70,435 L61,430 L39,436 L22,438 L19,449 L7,485 L2,500 L0,500 L-9,474 L-9,471 L-11,470 L-14,459 L-20,440 L-20,438 L-34,437 L-59,431 L-63,430 L-66,434 L-73,437 L-82,436 L-87,433 L-91,428 L-92,426 L-93,416 L-100,413 L-100,411 L-105,409 L-119,399 L-125,400 L-150,413 L-152,413 L-153,415 L-172,424 L-178,427 L-180,427 L-178,421 L-152,369 L-153,365 L-155,363 L-157,360 L-165,361 L-183,367 L-189,371 L-193,373 L-195,378 L-198,382 L-203,392 L-215,398 L-219,396 L-222,392 L-227,381 L-229,372 L-228,358 L-226,351 L-224,350 L-222,343 L-219,342 L-219,340 L-204,329 L-193,322 L-191,322 L-189,313 L-184,307 L-190,286 L-193,270 L-193,268 L-230,256 L-251,249 L-252,246 L-209,232 L-194,227 L-192,227 L-193,224 L-188,198 L-184,185 L-191,177 L-192,174 L-192,166 L-188,159 L-183,155 L-180,154 L-172,154 L-170,155 L-168,149 L-160,137 L-160,135 L-155,130 L-151,125 L-150,121 L-152,120 L-161,101 L-176,71 L-176,69 L-178,68 L-178,65 L-159,74 L-123,92 L-121,92 L-121,94 L-116,91 L-114,89 L-103,82 L-93,76 L-91,64 L-86,59 L-81,56 L-70,56 L-66,58 L-64,63 L-44,57 L-18,53 L-14,40 L-8,24 L-3,7 Z M114,47 L103,55 L94,64 L94,66 L91,67 L83,80 L77,92 L80,92 L90,86 L97,83 L128,83 L152,87 L158,87 L157,83 L153,75 L144,65 L133,56 L118,47 Z M28,59 L9,64 L-4,68 L-6,82 L-7,97 L-7,129 L-5,148 L-1,164 L2,170 L4,176 L11,188 L15,192 L17,189 L16,177 L16,156 L20,139 L25,127 L32,115 L45,100 L55,91 L59,87 L64,84 L70,79 L70,77 L74,76 L84,68 L87,63 L82,64 L80,65 L63,65 L57,63 L39,59 Z M116,91 L107,98 L107,100 L102,102 L102,105 L98,107 L94,113 L91,123 L93,125 L111,125 L123,127 L136,132 L141,135 L145,140 L151,144 L150,146 L134,138 L125,137 L123,139 L128,144 L131,153 L130,166 L125,179 L125,181 L133,180 L138,175 L142,170 L146,161 L152,149 L155,148 L154,136 L148,124 L141,114 L138,111 L135,107 L133,107 L131,103 L123,95 L118,91 Z M95,94 L91,95 L71,101 L59,107 L51,113 L46,122 L43,130 L42,136 L42,147 L44,154 L47,154 L50,146 L54,136 L61,129 L69,126 L82,125 L82,127 L76,128 L73,130 L67,132 L62,135 L62,137 L59,138 L59,140 L56,141 L51,155 L49,171 L49,178 L57,185 L59,185 L60,188 L62,188 L67,194 L81,204 L84,204 L84,206 L94,211 L103,213 L116,213 L121,210 L118,202 L122,200 L134,193 L132,197 L124,205 L126,206 L127,208 L143,200 L156,193 L166,184 L170,176 L169,166 L164,157 L160,152 L157,152 L156,150 L154,151 L153,161 L149,170 L142,182 L139,186 L139,188 L135,186 L125,184 L120,182 L118,178 L111,168 L104,152 L101,152 L99,163 L99,174 L102,186 L107,198 L100,193 L98,193 L96,189 L88,179 L81,162 L79,151 L80,139 L83,130 L88,128 L86,126 L83,126 L85,123 L88,110 L96,99 L97,97 Z M135,97 L133,98 L133,100 L139,105 L141,105 L143,109 L150,120 L156,133 L161,149 L165,153 L170,158 L173,165 L175,176 L178,175 L182,161 L183,153 L182,152 L182,138 L179,125 L172,111 L169,110 L167,106 L158,100 L150,97 Z M176,104 L176,107 L179,113 L184,134 L186,149 L186,183 L180,203 L174,215 L164,228 L154,237 L150,240 L143,242 L142,246 L150,247 L158,245 L171,241 L183,233 L195,223 L206,217 L231,205 L238,197 L234,182 L223,155 L213,141 L204,130 L202,130 L200,126 L196,122 L194,122 L192,118 L186,113 L182,108 Z M39,113 Z M37,114 L31,125 L22,165 L21,171 L21,194 L25,207 L28,213 L38,221 L48,229 L50,229 L50,231 L64,238 L67,239 L77,239 L71,231 L63,222 L53,206 L46,191 L40,170 L37,146 L37,141 L38,140 L38,128 L40,117 L39,114 Z M90,129 L87,135 L86,139 L86,157 L90,170 L93,176 L95,175 L95,167 L98,152 L103,144 L112,139 L120,136 L119,133 L113,131 L96,129 Z M44,155 Z M171,188 L151,201 L130,212 L114,217 L109,218 L96,218 L84,214 L74,208 L68,203 L66,200 L64,200 L62,195 L57,191 L55,191 L58,200 L66,216 L73,225 L75,228 L77,228 L79,232 L91,241 L99,245 L116,245 L132,241 L150,233 L160,226 L165,220 L165,218 L168,217 L172,209 L175,202 L175,195 L173,189 Z M17,209 L8,223 L5,229 L-5,252 L-10,261 L-18,273 L-24,281 L-35,293 L-47,303 L-60,311 L-76,317 L-108,326 L-119,328 L-133,329 L-138,328 L-166,328 L-186,332 L-194,335 L-194,337 L-198,338 L-207,344 L-212,348 L-217,358 L-218,363 L-218,375 L-214,385 L-211,384 L-203,370 L-196,363 L-184,355 L-175,353 L-157,348 L-138,345 L-88,340 L-71,337 L-51,331 L-40,326 L-28,320 L-21,314 L-8,297 L-1,288 L5,281 L14,264 L19,254 L23,250 L21,240 L21,215 L18,209 Z M26,220 L31,251 L35,261 L38,266 L43,274 L45,274 L47,278 L54,287 L57,289 L68,289 L96,286 L109,283 L115,281 L127,275 L132,273 L137,270 L145,263 L149,257 L148,253 L143,252 L115,252 L95,251 L76,248 L60,243 L43,234 L36,227 L33,222 L30,220 Z M15,321 L16,324 L21,326 L24,332 L25,341 L22,350 L16,355 L11,357 L-1,357 L-10,351 L-14,346 L-18,342 L-21,336 L-24,322 L-29,324 L-38,329 L-44,331 L-43,335 L-39,340 L-37,340 L-36,344 L-25,356 L-22,358 L-19,358 L-19,360 L-9,364 L6,364 L16,361 L22,357 L25,354 L28,346 L28,333 L24,324 L18,321 Z M93,41 Z M134,42 Z M114,48 Z M111,50 Z M123,52 Z M124,53 Z M107,54 Z M-66,57 Z M-63,57 Z M132,57 Z M-90,58 Z M133,58 Z M-180,64 Z M82,65 Z M142,65 Z M83,66 Z M-166,67 Z M80,68 Z M76,70 Z M143,70 Z M147,70 Z M90,71 Z M-156,74 Z M70,74 Z M90,74 Z M-150,75 Z M150,75 Z M69,76 Z M86,76 Z M91,76 Z M149,76 Z M-149,77 Z M149,78 Z M152,78 Z M-106,81 Z M61,81 Z M84,81 Z M-140,82 Z M85,82 Z M-171,86 Z M-123,88 Z M-120,88 Z M52,88 Z M-122,89 Z M53,89 Z M79,89 Z M81,89 Z M117,93 Z M111,96 Z M94,97 Z M38,98 Z M42,98 Z M110,98 Z M43,99 Z M124,99 Z M92,100 Z M107,100 Z M41,101 Z M105,101 Z M110,101 Z M137,101 Z M157,101 Z M-163,102 Z M104,102 Z M156,102 Z M39,103 Z M86,106 Z M63,108 Z M86,109 Z M133,109 Z M145,109 Z M180,109 Z M57,110 Z M84,110 Z M135,111 Z M148,113 Z M150,113 Z M149,115 Z M-155,118 Z M50,118 Z M96,118 Z M98,119 Z M185,120 Z M20,122 Z M141,122 Z M47,123 Z M145,124 Z M46,127 Z M145,127 Z M155,127 Z M81,128 Z M-159,129 Z M80,129 Z M138,129 Z M78,130 Z M139,130 Z M149,130 Z M150,131 Z M73,132 Z M138,132 Z M77,133 Z M204,133 Z M65,134 Z M205,134 Z M151,135 Z M146,136 Z M145,137 Z M-5,138 Z M150,138 Z M128,140 Z M101,141 Z M129,141 Z M131,142 Z M138,142 Z M152,142 Z M47,143 Z M58,143 Z M213,143 Z M-171,144 Z M-172,145 Z M-167,145 Z M215,146 Z M231,146 Z M-168,147 Z M13,147 Z M148,148 Z M15,149 Z M213,149 Z M217,149 Z M148,150 Z M95,151 Z M-171,152 Z M-186,153 Z M-185,154 Z M147,154 Z M169,154 Z M146,156 Z M144,158 Z M101,159 Z M104,159 Z M164,163 Z M166,163 Z M109,169 Z M138,169 Z M140,169 Z M111,171 Z M138,172 Z M149,172 Z M109,174 Z M113,174 Z M130,175 Z M133,176 Z M54,177 Z M57,177 Z M52,178 Z M59,178 Z M132,178 Z M167,178 Z M117,179 Z M145,179 Z M8,180 Z M85,180 Z M146,180 Z M-190,181 Z M55,181 Z M57,181 Z M9,182 Z M56,182 Z M-195,183 Z M14,183 Z M230,183 Z M12,185 Z M157,185 Z M13,186 Z M15,187 Z M92,187 Z M134,187 Z M171,189 Z M134,190 Z M137,190 Z M138,191 Z M73,193 Z M139,193 Z M152,193 Z M72,194 Z M117,194 Z M136,194 Z M150,194 Z M58,195 Z M138,195 Z M101,196 Z M140,196 Z M102,197 Z M133,197 Z M61,198 Z M103,198 Z M118,198 Z M134,198 Z M137,198 Z M135,199 Z M62,200 Z M118,200 Z M154,200 Z M228,201 Z M81,202 Z M83,202 Z M132,202 Z M151,202 Z M154,202 Z M229,202 L231,203 Z M91,203 Z M228,203 Z M63,204 Z M89,204 Z M247,204 Z M64,205 Z M69,205 Z M126,205 Z M49,206 Z M62,206 Z M70,206 Z M147,206 Z M246,206 Z M63,207 Z M97,208 Z M31,209 Z M34,209 Z M99,209 Z M165,209 Z M167,209 Z M28,210 Z M30,210 Z M33,210 Z M166,210 Z M209,210 Z M17,211 Z M177,211 Z M241,211 Z M18,212 Z M78,212 Z M209,212 Z M177,213 Z M53,214 Z M56,214 Z M207,214 Z M236,214 Z M164,216 Z M162,217 Z M38,218 Z M115,218 Z M196,218 Z M91,219 Z M173,219 Z M227,219 Z M39,220 Z M41,220 Z M60,220 Z M175,220 Z M61,222 Z M72,222 Z M160,222 Z M29,223 Z M43,223 Z M82,224 Z M75,225 Z M81,225 Z M168,225 Z M185,225 Z M51,226 Z M169,226 Z M214,226 Z M49,227 Z M65,227 Z M79,227 Z M148,227 Z M7,228 Z M50,228 Z M80,228 Z M165,228 Z M186,228 Z M207,228 Z M210,228 Z M81,229 Z M152,229 Z M167,229 Z M184,229 Z M6,230 Z M65,230 Z M67,230 Z M79,230 Z M168,230 Z M181,230 Z M183,230 Z M7,231 Z M37,232 Z M39,232 Z M82,232 Z M87,232 Z M90,232 Z M175,232 Z M83,233 Z M174,233 Z M38,234 Z M72,234 Z M140,234 Z M159,234 Z M175,234 Z M42,235 Z M162,235 Z M43,236 Z M89,236 Z M38,237 Z M67,237 Z M74,237 Z M88,237 Z M155,237 Z M160,237 Z M39,238 Z M45,238 Z M172,238 Z M32,240 Z M1,241 Z M160,241 Z M-247,242 Z M162,242 Z M144,243 Z M19,249 Z M144,257 Z M225,258 Z M-6,259 Z M144,260 Z M-10,262 Z M8,264 Z M38,264 Z M9,265 Z M41,267 Z M135,269 Z M42,270 Z M-16,273 Z M5,273 Z M-15,274 Z M47,274 Z M6,275 Z M46,275 Z M48,276 Z M-14,277 Z M55,281 Z M-3,283 Z M56,284 Z M58,284 Z M-22,285 Z M-4,286 Z M58,287 Z M-30,289 Z M-7,289 Z M-29,290 Z M-11,296 Z M-38,300 Z M-14,300 Z M-41,301 Z M-46,305 Z M186,305 Z M-49,306 Z M-19,306 Z M-45,310 Z M-190,312 Z M-194,321 Z M-202,323 Z M18,323 Z M-202,325 Z M-29,326 Z M-27,326 Z M-30,327 Z M-210,330 Z M-42,331 Z M-43,332 Z M-41,332 Z M-38,332 Z M-37,333 Z M-219,338 Z M169,340 Z M-199,341 Z M-205,344 Z M-205,346 Z M-30,346 Z M-206,347 Z M-18,347 Z M-227,348 Z M-211,348 Z M25,348 Z M23,350 Z M163,350 Z M22,353 Z M162,353 Z M-195,354 Z M161,354 Z M-192,355 Z M-188,355 Z M-11,356 Z M162,356 Z M15,357 Z M158,357 Z M-17,358 Z M-7,358 Z M-6,359 Z M162,359 Z M-198,362 Z M-175,365 Z M-202,366 Z M-153,367 Z M-185,368 Z M-154,368 Z M-207,369 Z M-205,369 Z M-155,369 Z M-208,371 Z M-207,372 Z M-190,374 Z M162,376 Z M-193,377 Z M-162,384 Z M-163,385 Z M-226,390 Z M170,392 Z M-218,398 Z M-215,398 Z M120,399 Z M-171,401 Z M-125,401 Z M127,401 Z M-129,402 Z M114,402 Z M124,404 Z M126,405 Z M132,405 Z M-137,406 Z M-112,406 Z M110,406 Z M-113,407 Z M109,407 Z M106,408 Z M-108,409 Z M104,409 L106,410 Z M143,409 Z M-107,410 Z M103,410 Z M106,410 Z M-103,411 Z M140,412 Z M-146,413 L-144,414 Z M-142,413 Z M148,413 Z M-144,414 Z M-104,414 Z M100,414 Z M-179,417 Z M-158,417 Z M159,417 Z M158,421 Z M164,421 Z M175,425 Z M89,426 Z M172,428 Z M89,430 Z M-89,432 Z M-91,433 Z M-88,433 Z M-84,436 Z M72,436 Z M-86,437 Z M83,437 Z M-85,438 Z M23,439 Z M-3,497 Z " fill="#FF0100" transform="translate(252,26)"/>
</svg>
