<?xml version="1.0" encoding="UTF-8"?>
<!-- Generator: visioncortex VTracer 0.6.4 -->
<svg version="1.1" xmlns="http://www.w3.org/2000/svg" width="500" height="552">
<path d="M0,0 L4,0 L12,27 L20,51 L20,53 L35,55 L59,61 L63,60 L67,56 L76,54 L84,57 L90,65 L90,75 L95,77 L106,83 L118,92 L123,95 L143,85 L157,78 L174,70 L177,69 L176,74 L166,95 L156,114 L151,125 L151,127 L153,127 L164,143 L168,150 L168,153 L179,153 L184,156 L188,161 L189,163 L189,173 L183,181 L182,182 L188,204 L191,223 L252,243 L252,246 L237,251 L194,265 L190,265 L189,276 L184,298 L182,304 L187,310 L188,313 L188,323 L184,329 L178,333 L169,333 L167,338 L157,354 L152,361 L172,401 L180,418 L181,422 L175,420 L142,404 L122,394 L120,393 L103,405 L91,412 L90,420 L83,428 L77,430 L69,429 L64,425 L57,426 L31,432 L23,432 L20,443 L6,486 L4,494 L0,494 L-8,468 L-19,434 L-44,429 L-58,425 L-63,426 L-68,430 L-70,431 L-79,431 L-86,427 L-90,420 L-90,411 L-95,409 L-106,402 L-117,394 L-123,396 L-162,416 L-175,422 L-177,422 L-176,418 L-154,373 L-149,362 L-158,350 L-165,339 L-168,334 L-179,332 L-184,328 L-187,322 L-187,313 L-183,307 L-181,305 L-183,296 L-188,273 L-189,264 L-198,262 L-229,252 L-245,247 L-248,246 L-248,243 L-190,224 L-185,198 L-180,181 L-184,179 L-188,174 L-189,165 L-186,159 L-179,153 L-167,152 L-164,146 L-162,145 L-162,142 L-160,142 L-160,139 L-158,139 L-156,134 L-148,123 L-150,117 L-168,81 L-175,67 L-174,64 L-148,77 L-125,88 L-119,91 L-114,90 L-103,82 L-92,76 L-90,76 L-90,67 L-87,61 L-81,56 L-78,55 L-71,55 L-65,58 L-62,61 L-62,63 L-47,58 L-27,54 L-16,53 L-14,44 L-1,4 Z M-7,118 L-1,125 L10,135 L17,143 L31,157 L39,164 L42,166 L43,169 L25,159 L5,152 L-11,149 L-32,148 L-56,151 L-74,157 L-89,165 L-101,173 L-116,186 L-126,198 L-135,214 L-142,231 L-147,249 L-148,254 L-148,281 L-145,298 L-140,314 L-132,330 L-125,341 L-117,351 L-107,362 L-97,370 L-88,376 L-74,382 L-66,385 L-52,389 L-40,391 L-10,391 L8,387 L27,380 L41,372 L51,364 L61,355 L70,345 L79,331 L87,314 L92,298 L94,289 L95,279 L95,261 L91,238 L87,225 L85,225 L84,218 L77,205 L75,202 L83,209 L92,218 L99,226 L130,257 L131,257 L131,118 Z M-38,173 L-20,173 L-2,176 L14,181 L30,189 L42,198 L42,200 L-12,200 L-94,199 L-93,195 L-82,187 L-66,179 L-51,175 Z M45,201 L50,204 L58,215 L64,227 L69,244 L71,258 L71,275 L69,290 L64,308 L56,325 L49,334 L47,337 L44,337 L44,304 L45,234 Z M-97,202 L-95,202 L-96,305 L-97,338 L-100,338 L-107,329 L-113,319 L-120,298 L-122,285 L-122,262 L-119,245 L-113,227 L-105,212 Z M-93,339 L42,341 L42,344 L32,352 L16,360 L3,364 L-9,366 L-36,366 L-56,362 L-69,357 L-84,349 L-93,342 Z M181,422 Z " fill="#FF0100" transform="translate(248,29)"/>
</svg>
