<?xml version="1.0" encoding="UTF-8"?>
<!-- Generator: visioncortex VTracer 0.6.4 -->
<svg version="1.1" xmlns="http://www.w3.org/2000/svg" width="502" height="500">
<path d="M0,0 L49,1 L246,7 L260,8 L260,269 L256,267 L240,250 L222,232 L215,224 L193,202 L186,194 L166,174 L174,190 L182,209 L188,228 L192,247 L194,262 L195,286 L193,314 L188,339 L179,366 L167,391 L155,410 L142,426 L128,441 L118,450 L105,460 L90,470 L65,483 L40,492 L15,498 L1,500 L-50,500 L-73,496 L-92,491 L-113,483 L-129,475 L-143,467 L-160,455 L-174,443 L-189,428 L-200,414 L-210,400 L-220,382 L-227,367 L-234,347 L-239,328 L-242,309 L-242,258 L-238,235 L-232,214 L-226,198 L-217,179 L-206,161 L-196,148 L-184,134 L-172,122 L-161,113 L-146,102 L-127,91 L-108,82 L-81,73 L-56,68 L-35,66 L-13,66 L8,68 L33,73 L57,81 L75,89 L93,99 L93,98 L76,81 L69,73 L47,51 L40,43 L19,22 L12,14 L1,3 Z M96,101 Z M97,102 Z M-32,105 L-51,107 L-74,112 L-94,119 L-110,127 L-125,136 L-137,145 L-146,153 L-146,154 L-107,155 L-3,156 L99,156 L93,149 L76,136 L61,127 L40,117 L21,111 L2,107 L-18,105 Z M-153,160 L-162,169 L-174,185 L-186,206 L-194,225 L-200,246 L-203,263 L-204,274 L-204,295 L-201,318 L-195,341 L-187,360 L-177,379 L-167,393 L-156,406 L-154,407 L-153,341 L-152,221 L-152,160 Z M107,164 L107,231 L108,404 L113,399 L121,389 L130,375 L140,356 L148,334 L153,311 L155,292 L155,276 L153,257 L148,235 L141,215 L133,199 L124,184 L114,171 L108,164 Z M162,169 Z M164,172 Z M-151,410 L-145,417 L-133,427 L-115,439 L-100,447 L-79,455 L-60,460 L-40,463 L-9,463 L11,460 L30,455 L46,449 L62,441 L77,432 L90,422 L99,414 L99,413 L-29,411 L-110,410 Z " fill="#FE0000" transform="translate(242,0)"/>
</svg>
