<?xml version="1.0" encoding="UTF-8"?>
<!-- Generator: visioncortex VTracer 0.6.4 -->
<svg version="1.1" xmlns="http://www.w3.org/2000/svg" width="500" height="552">
<path d="M0,0 L51,0 L68,1 L88,5 L105,10 L117,14 L138,23 L155,32 L169,41 L173,43 L177,47 L188,55 L205,71 L213,79 L215,80 L218,85 L227,95 L231,101 L231,103 L233,103 L237,109 L237,111 L239,112 L239,115 L241,115 L245,122 L255,141 L264,162 L269,177 L274,196 L277,213 L277,285 L273,308 L268,327 L264,339 L259,351 L254,362 L246,376 L242,384 L240,384 L238,389 L234,396 L232,396 L230,401 L224,409 L222,409 L221,413 L216,418 L195,439 L184,448 L175,455 L173,455 L173,457 L166,461 L161,463 L161,465 L150,471 L135,479 L117,486 L109,489 L93,494 L71,499 L63,500 L-7,500 L-31,496 L-52,490 L-69,484 L-96,471 L-105,465 L-114,460 L-126,451 L-136,443 L-151,429 L-159,421 L-161,420 L-164,415 L-173,405 L-177,399 L-177,397 L-179,397 L-183,391 L-183,389 L-185,388 L-185,385 L-187,385 L-191,378 L-201,359 L-207,346 L-218,313 L-222,291 L-223,276 L-223,225 L-222,209 L-217,185 L-214,174 L-211,164 L-206,152 L-199,137 L-196,131 L-194,130 L-192,123 L-190,123 L-188,117 L-184,110 L-182,110 L-180,105 L-177,100 L-172,95 L-167,88 L-165,88 L-164,84 L-156,77 L-149,69 L-140,61 L-137,58 L-135,58 L-134,55 L-122,46 L-120,46 L-120,44 L-110,38 L-108,38 L-108,36 L-82,22 L-58,12 L-38,6 L-14,1 Z M6,15 L-16,18 L-41,24 L-58,30 L-76,38 L-93,47 L-107,56 L-117,64 L-124,69 L-125,71 L-129,73 L-133,78 L-141,85 L-148,93 L-151,95 L-152,98 L-155,100 L-155,103 L-159,105 L-165,114 L-167,116 L-167,119 L-169,119 L-174,127 L-174,130 L-176,130 L-186,149 L-194,167 L-201,189 L-205,207 L-208,229 L-209,251 L-207,281 L-203,303 L-196,328 L-191,339 L-186,352 L-181,361 L-173,375 L-168,383 L-166,383 L-164,388 L-155,400 L-153,400 L-151,405 L-146,410 L-131,425 L-126,430 L-106,445 L-90,455 L-87,455 L-87,457 L-71,465 L-48,474 L-27,480 L-6,484 L16,486 L38,486 L60,484 L85,479 L105,473 L125,465 L141,457 L159,446 L159,444 L163,443 L175,434 L175,432 L179,431 L184,426 L196,415 L203,407 L207,402 L209,401 L209,398 L213,396 L219,387 L221,385 L221,382 L223,382 L228,374 L228,371 L230,371 L240,352 L244,344 L250,328 L255,312 L259,294 L262,274 L263,260 L263,240 L261,218 L257,196 L253,182 L247,164 L242,153 L234,136 L232,136 L231,131 L221,116 L219,115 L217,110 L209,100 L204,95 L195,85 L185,75 L177,68 L165,59 L163,59 L163,57 L152,50 L131,38 L112,30 L98,25 L76,19 L59,16 L48,15 Z M15,18 L39,18 L61,20 L82,24 L108,32 L123,38 L139,46 L152,54 L155,55 L155,57 L160,59 L165,62 L170,67 L183,77 L188,82 L188,84 L192,86 L192,88 L196,90 L201,95 L212,109 L219,118 L220,122 L222,122 L228,133 L234,143 L243,163 L247,174 L253,194 L258,221 L259,234 L259,267 L257,287 L252,310 L247,326 L241,342 L234,358 L232,358 L229,367 L227,367 L227,371 L225,371 L223,377 L221,377 L219,382 L209,395 L209,397 L204,402 L200,404 L198,409 L189,417 L184,422 L181,423 L179,427 L163,439 L156,444 L154,444 L154,446 L144,451 L142,451 L142,453 L133,456 L133,458 L123,462 L106,469 L84,476 L64,480 L44,482 L10,482 L-9,480 L-32,475 L-52,469 L-65,464 L-81,456 L-89,452 L-108,440 L-108,438 L-111,438 L-115,434 L-124,427 L-130,422 L-134,418 L-134,416 L-138,414 L-138,412 L-142,410 L-142,408 L-146,406 L-158,391 L-158,389 L-161,388 L-167,378 L-167,376 L-169,376 L-176,364 L-177,359 L-179,359 L-183,351 L-188,338 L-192,328 L-197,312 L-202,291 L-204,277 L-205,258 L-205,238 L-203,215 L-198,191 L-191,168 L-187,159 L-179,142 L-171,128 L-169,124 L-167,124 L-166,119 L-164,119 L-162,115 L-159,110 L-157,110 L-157,107 L-155,105 L-149,98 L-140,88 L-137,85 L-135,85 L-133,81 L-119,69 L-115,65 L-112,65 L-112,63 L-107,60 L-101,56 L-99,56 L-99,54 L-88,48 L-71,39 L-51,31 L-28,24 L-7,20 Z M23,45 L4,46 L-23,51 L-45,58 L-66,67 L-79,75 L-82,76 L-82,78 L-87,80 L-95,85 L-99,89 L-109,97 L-119,106 L-129,117 L-136,126 L-136,128 L-138,128 L-140,131 L-140,134 L-142,134 L-145,139 L-145,141 L-147,141 L-153,153 L-161,168 L-167,183 L-173,204 L-177,227 L-178,253 L-177,273 L-173,296 L-166,320 L-161,332 L-154,347 L-152,347 L-150,353 L-142,366 L-140,366 L-139,371 L-135,375 L-128,384 L-125,385 L-124,389 L-111,402 L-97,413 L-88,420 L-75,428 L-72,428 L-72,430 L-51,440 L-27,448 L-10,452 L2,454 L16,455 L38,455 L58,453 L82,448 L100,442 L116,435 L133,426 L148,416 L148,414 L153,412 L166,401 L172,394 L180,387 L191,373 L193,368 L195,368 L201,358 L201,356 L203,356 L213,337 L218,324 L221,318 L225,304 L229,286 L231,275 L232,261 L232,239 L230,219 L225,195 L220,180 L217,173 L212,161 L207,151 L205,151 L204,146 L193,129 L189,125 L182,116 L173,106 L165,98 L151,87 L142,80 L120,67 L97,57 L73,50 L50,46 Z M27,53 L30,53 L35,66 L41,83 L44,90 L50,107 L51,112 L46,111 L37,106 L36,173 L36,195 L47,197 L54,200 L57,195 L59,195 L61,190 L64,184 L66,184 L68,179 L71,174 L73,173 L75,168 L82,157 L85,152 L87,152 L89,147 L92,141 L94,141 L96,136 L100,130 L85,129 L86,125 L88,125 L88,123 L102,113 L113,105 L125,96 L128,93 L132,91 L136,91 L134,103 L126,138 L123,153 L120,153 L113,139 L113,141 L111,141 L109,146 L108,148 L106,148 L104,154 L101,159 L99,159 L97,164 L94,169 L92,170 L90,175 L83,186 L80,191 L78,191 L76,196 L73,202 L71,202 L70,207 L68,207 L69,211 L78,224 L82,234 L84,244 L84,255 L81,269 L77,279 L69,290 L67,290 L66,293 L63,293 L62,296 L45,304 L36,306 L35,307 L35,395 L45,388 L49,388 L48,395 L42,412 L36,428 L30,443 L29,447 L25,446 L20,432 L16,422 L10,406 L5,393 L5,388 L10,389 L19,395 L19,305 L11,304 L1,300 L-1,304 L-3,304 L-5,309 L-9,314 L-13,321 L-15,325 L-17,325 L-19,331 L-22,336 L-24,336 L-26,341 L-29,347 L-31,347 L-33,352 L-42,366 L-44,369 L-29,370 L-30,374 L-35,378 L-37,378 L-37,380 L-48,387 L-49,389 L-52,389 L-52,391 L-63,398 L-64,400 L-67,400 L-67,402 L-77,409 L-80,409 L-79,399 L-72,367 L-68,349 L-64,347 L-59,360 L-58,361 L-57,358 L-55,358 L-53,353 L-50,347 L-48,347 L-46,342 L-39,331 L-38,329 L-36,329 L-34,324 L-29,316 L-28,313 L-26,313 L-24,309 L-19,300 L-16,295 L-14,295 L-13,289 L-17,284 L-17,282 L-19,282 L-26,268 L-28,259 L-28,243 L-25,231 L-21,222 L-19,218 L-17,218 L-16,213 L-5,204 L7,198 L20,194 L20,105 L12,110 L10,110 L10,112 L6,112 L7,104 L14,86 L21,68 L26,54 Z M36,223 L35,229 L37,229 L37,226 L39,226 L38,223 Z M19,223 L13,226 L5,233 L1,240 L-1,248 L0,257 L3,265 L7,263 L7,244 L11,236 L16,232 L20,230 L21,223 Z M50,234 L48,237 L49,246 L49,255 L44,265 L39,269 L34,272 L34,277 L36,278 L44,274 L50,269 L54,262 L56,257 L56,243 L52,234 Z M18,271 L17,275 L15,276 L20,277 L20,271 Z " fill="#FF0100" transform="translate(223,26)"/>
</svg>
