<?xml version="1.0" encoding="UTF-8"?>
<!-- Generator: visioncortex VTracer 0.6.4 -->
<svg version="1.1" xmlns="http://www.w3.org/2000/svg" width="3000" height="3177">
<path d="M0,0 L11,0 L56,6 L107,15 L155,25 L213,39 L263,53 L321,71 L362,85 L410,103 L449,119 L479,132 L499,141 L529,155 L579,180 L601,192 L628,207 L645,217 L673,234 L695,248 L737,276 L755,289 L772,301 L790,315 L802,324 L818,337 L832,348 L847,361 L860,372 L870,381 L882,392 L890,399 L906,414 L954,462 L961,470 L975,485 L987,499 L996,509 L1005,520 L1019,537 L1032,553 L1046,572 L1061,592 L1077,615 L1095,642 L1111,667 L1130,699 L1142,720 L1156,746 L1174,781 L1190,815 L1201,840 L1218,881 L1235,927 L1253,981 L1267,1029 L1282,1089 L1293,1140 L1302,1189 L1311,1250 L1318,1311 L1322,1358 L1326,1433 L1326,1584 L1323,1628 L1318,1675 L1311,1722 L1300,1779 L1287,1833 L1273,1882 L1260,1923 L1247,1960 L1234,1994 L1217,2035 L1204,2064 L1188,2098 L1169,2136 L1157,2158 L1141,2187 L1128,2209 L1114,2232 L1100,2254 L1078,2287 L1067,2303 L1054,2321 L1040,2340 L1024,2361 L1013,2375 L1000,2391 L989,2404 L980,2415 L971,2425 L962,2436 L946,2453 L939,2461 L924,2477 L913,2488 L909,2493 L901,2500 L869,2532 L861,2539 L844,2555 L836,2562 L821,2575 L807,2587 L790,2601 L779,2610 L761,2624 L743,2638 L729,2648 L711,2661 L691,2675 L673,2687 L650,2702 L626,2717 L597,2734 L576,2746 L547,2762 L527,2772 L510,2781 L487,2792 L450,2809 L405,2828 L366,2843 L324,2858 L278,2873 L237,2885 L187,2898 L144,2908 L100,2917 L55,2925 L16,2931 L-30,2937 L-78,2942 L-129,2946 L-163,2948 L-190,2949 L-320,2949 L-366,2946 L-415,2941 L-465,2934 L-510,2926 L-558,2916 L-614,2902 L-662,2888 L-714,2871 L-752,2857 L-792,2841 L-829,2825 L-859,2811 L-894,2794 L-913,2784 L-939,2770 L-963,2756 L-992,2739 L-1015,2724 L-1031,2714 L-1050,2701 L-1066,2690 L-1084,2677 L-1105,2661 L-1117,2652 L-1133,2639 L-1142,2632 L-1155,2621 L-1166,2612 L-1176,2603 L-1187,2594 L-1204,2578 L-1216,2567 L-1224,2559 L-1232,2552 L-1264,2520 L-1271,2512 L-1279,2504 L-1286,2496 L-1299,2482 L-1306,2474 L-1318,2460 L-1327,2449 L-1338,2436 L-1349,2422 L-1363,2404 L-1379,2383 L-1391,2366 L-1405,2346 L-1413,2334 L-1428,2311 L-1440,2292 L-1457,2264 L-1470,2241 L-1482,2219 L-1495,2195 L-1513,2159 L-1526,2131 L-1542,2095 L-1555,2063 L-1571,2021 L-1585,1981 L-1598,1941 L-1610,1900 L-1621,1859 L-1633,1808 L-1644,1755 L-1654,1699 L-1662,1644 L-1668,1594 L-1671,1563 L-1674,1514 L-1674,1400 L-1671,1355 L-1667,1316 L-1662,1279 L-1654,1233 L-1645,1193 L-1637,1161 L-1627,1127 L-1615,1091 L-1608,1071 L-1597,1043 L-1586,1017 L-1574,991 L-1562,966 L-1547,937 L-1534,914 L-1517,886 L-1502,862 L-1489,843 L-1475,823 L-1461,804 L-1447,786 L-1439,776 L-1426,760 L-1414,746 L-1402,732 L-1388,717 L-1381,709 L-1374,702 L-1367,694 L-1341,668 L-1333,661 L-1319,647 L-1311,640 L-1298,628 L-1290,621 L-1276,609 L-1265,600 L-1252,589 L-1236,577 L-1220,564 L-1206,554 L-1187,540 L-1165,525 L-1144,511 L-1127,500 L-1104,486 L-1089,477 L-1066,464 L-1044,452 L-1022,441 L-1007,433 L-978,420 L-972,420 L-939,453 L-931,460 L-915,473 L-901,483 L-885,492 L-867,498 L-840,504 L-808,509 L-789,511 L-804,469 L-816,433 L-822,409 L-822,396 L-819,391 L-815,388 L-812,387 L-802,387 L-785,391 L-757,402 L-721,418 L-694,429 L-661,440 L-639,445 L-604,450 L-573,453 L-577,437 L-590,395 L-594,379 L-595,370 L-595,361 L-593,350 L-587,340 L-580,334 L-564,329 L-536,325 L-500,322 L-473,321 L-422,321 L-391,322 L-347,325 L-298,330 L-249,337 L-203,345 L-164,353 L-127,362 L-89,372 L-43,386 L7,403 L48,419 L81,433 L118,450 L148,465 L170,477 L195,491 L223,508 L245,522 L267,537 L284,549 L303,563 L321,577 L337,590 L348,599 L362,611 L373,621 L381,628 L394,640 L401,647 L409,654 L429,674 L436,682 L447,693 L454,701 L465,713 L474,724 L487,739 L498,753 L509,767 L525,788 L538,807 L546,818 L556,833 L567,850 L580,871 L595,897 L607,919 L621,946 L636,977 L649,1007 L660,1034 L661,1038 L669,1034 L679,1023 L690,1008 L700,993 L708,980 L710,980 L711,978 L711,985 L705,1008 L699,1037 L694,1075 L693,1089 L693,1115 L695,1135 L702,1165 L715,1220 L721,1257 L725,1295 L727,1326 L727,1413 L725,1448 L721,1490 L717,1521 L711,1558 L704,1593 L695,1631 L683,1673 L666,1723 L651,1760 L638,1789 L632,1805 L627,1824 L626,1830 L626,1848 L629,1860 L634,1868 L634,1870 L638,1872 L647,1875 L664,1877 L680,1877 L698,1876 L710,1876 L706,1879 L682,1886 L654,1897 L629,1909 L607,1922 L590,1934 L577,1944 L567,1953 L559,1960 L547,1971 L540,1978 L532,1985 L508,2009 L501,2017 L435,2083 L427,2090 L418,2099 L410,2106 L400,2115 L392,2122 L381,2131 L370,2140 L352,2154 L333,2168 L316,2180 L293,2195 L273,2207 L252,2219 L227,2232 L211,2240 L188,2251 L152,2266 L123,2277 L82,2291 L41,2303 L-7,2315 L-46,2323 L-83,2329 L-124,2334 L-165,2337 L-247,2337 L-287,2334 L-327,2329 L-361,2323 L-394,2316 L-430,2307 L-471,2295 L-506,2284 L-493,2295 L-479,2305 L-464,2316 L-448,2326 L-432,2335 L-406,2346 L-386,2353 L-363,2360 L-337,2366 L-305,2371 L-278,2373 L-237,2373 L-225,2402 L-211,2434 L-194,2468 L-182,2487 L-175,2496 L-170,2501 L-160,2510 L-145,2520 L-121,2534 L-94,2548 L-66,2561 L-56,2566 L-55,2568 L-68,2571 L-102,2576 L-142,2580 L-176,2582 L-209,2583 L-229,2583 L-264,2582 L-306,2579 L-350,2574 L-385,2568 L-419,2561 L-447,2554 L-474,2546 L-507,2535 L-535,2524 L-562,2512 L-583,2502 L-605,2490 L-634,2473 L-653,2460 L-670,2448 L-688,2434 L-699,2425 L-713,2413 L-723,2404 L-736,2392 L-751,2377 L-758,2369 L-771,2356 L-778,2348 L-790,2335 L-802,2321 L-814,2307 L-825,2293 L-838,2277 L-853,2257 L-867,2238 L-883,2215 L-894,2198 L-908,2176 L-921,2154 L-935,2129 L-950,2101 L-965,2070 L-980,2036 L-996,1995 L-1008,1960 L-1020,1918 L-1027,1889 L-1034,1853 L-1037,1832 L-1037,1817 L-1033,1821 L-1023,1840 L-1013,1857 L-998,1881 L-983,1903 L-973,1917 L-964,1929 L-953,1943 L-941,1957 L-932,1967 L-925,1975 L-905,1995 L-894,2004 L-883,2013 L-867,2024 L-852,2033 L-827,2045 L-800,2054 L-778,2059 L-757,2062 L-747,2063 L-698,2063 L-668,2060 L-641,2056 L-617,2050 L-581,2038 L-552,2026 L-517,2010 L-478,1991 L-425,1965 L-392,1950 L-362,1937 L-328,1924 L-298,1914 L-265,1905 L-234,1899 L-211,1896 L-189,1896 L-168,1899 L-140,1906 L-109,1917 L-83,1928 L-64,1937 L-64,1940 L-91,1944 L-114,1950 L-134,1957 L-155,1967 L-172,1978 L-186,1989 L-201,2004 L-212,2019 L-222,2037 L-229,2056 L-233,2075 L-235,2092 L-235,2129 L-233,2154 L-229,2184 L-226,2199 L-226,2203 L-244,2203 L-292,2202 L-400,2202 L-463,2205 L-519,2209 L-482,2217 L-442,2224 L-394,2230 L-360,2233 L-322,2235 L-245,2235 L-218,2234 L-159,2229 L-114,2223 L-73,2216 L-35,2208 L9,2197 L52,2184 L87,2172 L120,2159 L150,2146 L179,2132 L201,2121 L224,2108 L241,2098 L260,2086 L275,2076 L292,2064 L313,2048 L329,2035 L340,2026 L352,2015 L360,2008 L377,1992 L385,1984 L392,1976 L400,1968 L409,1957 L419,1946 L430,1932 L444,1914 L455,1898 L465,1883 L478,1862 L490,1841 L505,1812 L519,1781 L532,1747 L544,1711 L552,1682 L560,1646 L566,1613 L571,1576 L574,1541 L575,1524 L576,1492 L576,1468 L575,1438 L572,1412 L567,1386 L559,1359 L549,1335 L538,1314 L530,1302 L518,1286 L509,1276 L505,1271 L497,1264 L485,1253 L467,1240 L446,1228 L446,1225 L463,1222 L475,1221 L503,1221 L521,1223 L538,1228 L553,1234 L555,1235 L549,1204 L542,1174 L533,1143 L521,1107 L509,1075 L497,1047 L483,1017 L471,993 L461,975 L444,946 L432,927 L420,909 L410,895 L397,877 L386,863 L373,847 L364,836 L354,825 L345,814 L334,803 L327,795 L303,771 L295,764 L281,751 L270,742 L260,733 L246,722 L231,710 L212,696 L189,680 L169,667 L148,654 L122,639 L94,624 L62,608 L33,595 L-6,579 L-45,565 L-85,552 L-124,541 L-164,531 L-206,522 L-245,515 L-285,509 L-327,504 L-363,501 L-402,499 L-481,499 L-520,501 L-565,505 L-610,511 L-645,517 L-684,525 L-732,537 L-772,549 L-816,564 L-857,580 L-895,597 L-930,614 L-953,626 L-976,639 L-993,649 L-1014,662 L-1050,686 L-1067,698 L-1086,712 L-1101,724 L-1115,735 L-1128,746 L-1142,758 L-1152,767 L-1162,776 L-1174,787 L-1216,829 L-1223,837 L-1236,851 L-1245,862 L-1254,872 L-1265,886 L-1278,902 L-1292,921 L-1305,939 L-1327,972 L-1342,996 L-1354,1017 L-1364,1035 L-1379,1064 L-1395,1098 L-1410,1135 L-1423,1171 L-1435,1211 L-1443,1243 L-1450,1278 L-1456,1320 L-1459,1359 L-1459,1430 L-1447,1426 L-1423,1414 L-1399,1400 L-1373,1385 L-1357,1375 L-1353,1374 L-1355,1380 L-1380,1418 L-1392,1437 L-1401,1453 L-1408,1467 L-1416,1487 L-1421,1502 L-1426,1524 L-1428,1539 L-1429,1556 L-1429,1571 L-1427,1601 L-1423,1632 L-1416,1666 L-1407,1701 L-1398,1732 L-1390,1758 L-1375,1801 L-1361,1838 L-1347,1872 L-1329,1913 L-1314,1944 L-1306,1960 L-1291,1990 L-1278,2013 L-1263,2040 L-1246,2068 L-1234,2087 L-1206,2129 L-1194,2146 L-1180,2165 L-1167,2182 L-1153,2200 L-1139,2217 L-1127,2231 L-1118,2242 L-1105,2256 L-1098,2264 L-1082,2281 L-1064,2299 L-1060,2304 L-1052,2311 L-1036,2327 L-1028,2334 L-1015,2346 L-1001,2358 L-987,2370 L-973,2381 L-961,2391 L-949,2400 L-930,2414 L-912,2427 L-897,2437 L-882,2447 L-863,2459 L-831,2478 L-802,2494 L-780,2505 L-764,2513 L-734,2527 L-701,2541 L-675,2551 L-636,2565 L-601,2576 L-561,2587 L-524,2596 L-480,2605 L-425,2614 L-374,2620 L-341,2623 L-284,2626 L-183,2626 L-132,2623 L-82,2618 L-33,2611 L16,2602 L47,2595 L91,2584 L134,2571 L181,2555 L222,2539 L252,2526 L278,2514 L311,2498 L333,2486 L357,2473 L382,2458 L403,2445 L436,2423 L456,2409 L475,2395 L492,2382 L506,2371 L519,2360 L529,2352 L544,2339 L555,2329 L563,2322 L576,2310 L584,2302 L592,2295 L615,2272 L622,2264 L632,2254 L639,2246 L651,2233 L660,2222 L669,2212 L678,2201 L691,2185 L701,2172 L717,2151 L730,2132 L741,2117 L754,2097 L768,2075 L784,2048 L797,2025 L812,1997 L827,1967 L841,1936 L857,1897 L867,1870 L880,1832 L892,1790 L901,1753 L909,1713 L915,1674 L919,1637 L921,1608 L922,1572 L922,1534 L921,1495 L918,1443 L913,1390 L907,1345 L898,1292 L887,1241 L879,1209 L869,1174 L858,1139 L843,1096 L831,1066 L819,1038 L804,1005 L784,965 L771,942 L760,922 L746,899 L734,880 L720,859 L709,843 L696,825 L680,804 L670,791 L657,775 L646,762 L637,751 L625,738 L618,730 L606,717 L593,704 L586,696 L568,678 L560,671 L546,657 L538,650 L528,641 L520,634 L506,622 L495,613 L482,602 L466,590 L452,579 L434,566 L416,553 L383,531 L361,517 L329,498 L304,484 L271,467 L248,456 L223,445 L216,431 L205,406 L190,370 L174,327 L162,304 L146,280 L132,261 L122,248 L113,237 L102,224 L93,213 L91,211 L91,208 L98,209 L145,225 L173,236 L207,252 L220,258 L210,230 L197,199 L185,174 L173,153 L163,138 L153,125 L141,111 L125,94 L115,85 L104,75 L93,66 L78,54 L59,40 L40,27 L20,14 L2,3 Z M-509,2282 Z " fill="#FE0000" transform="translate(1674,228)"/>
<path d="M0,0 L3,0 L3,39 L1,65 L-2,84 L-6,99 L-15,121 L-26,143 L-32,153 L-16,152 L1,148 L14,143 L28,136 L40,125 L47,119 L54,111 L67,97 L75,87 L89,70 L94,65 L95,66 L95,77 L93,98 L90,117 L83,145 L75,166 L64,187 L55,199 L48,207 L37,216 L27,223 L20,227 L24,230 L54,245 L76,257 L98,269 L122,284 L139,296 L154,309 L167,321 L189,343 L198,354 L211,369 L221,383 L228,393 L239,411 L248,428 L248,431 L242,430 L209,416 L179,405 L163,401 L146,399 L122,399 L115,400 L126,412 L138,426 L150,440 L163,457 L173,470 L187,490 L199,510 L207,525 L227,573 L245,613 L263,652 L265,659 L258,658 L222,643 L178,626 L120,605 L73,589 L18,572 L-21,561 L-63,550 L-106,540 L-152,531 L-202,523 L-251,517 L-295,513 L-336,511 L-380,511 L-413,513 L-444,517 L-468,522 L-488,528 L-504,535 L-512,541 L-521,550 L-529,563 L-534,579 L-534,595 L-529,612 L-519,636 L-510,655 L-509,660 L-518,659 L-565,644 L-599,631 L-621,621 L-644,608 L-667,597 L-688,589 L-711,583 L-724,581 L-735,581 L-747,584 L-753,588 L-758,598 L-759,603 L-759,624 L-754,649 L-747,668 L-734,693 L-724,710 L-717,721 L-717,724 L-724,724 L-744,719 L-766,711 L-787,701 L-805,689 L-816,680 L-836,660 L-843,652 L-852,642 L-860,632 L-907,622 L-942,612 L-963,604 L-979,597 L-997,586 L-1015,573 L-1026,564 L-1039,553 L-1052,541 L-1060,534 L-1068,526 L-1068,524 L-1053,525 L-1034,527 L-1004,527 L-990,525 L-977,520 L-966,513 L-953,502 L-943,489 L-939,480 L-951,471 L-963,460 L-968,455 L-978,444 L-987,429 L-995,412 L-1001,393 L-1005,374 L-1005,366 L-1001,367 L-976,381 L-954,392 L-927,403 L-901,411 L-881,415 L-872,416 L-850,416 L-818,413 L-778,407 L-728,397 L-699,390 L-708,383 L-716,375 L-725,364 L-735,352 L-749,333 L-761,314 L-773,291 L-780,274 L-787,253 L-791,232 L-791,228 L-786,229 L-763,243 L-748,252 L-727,264 L-712,272 L-687,283 L-667,289 L-641,295 L-605,301 L-599,301 L-607,294 L-617,282 L-626,267 L-635,248 L-647,212 L-656,176 L-657,168 L-653,169 L-646,177 L-633,191 L-625,198 L-608,212 L-587,226 L-572,235 L-547,247 L-526,255 L-501,262 L-478,266 L-455,268 L-435,268 L-410,266 L-380,261 L-354,255 L-319,244 L-291,233 L-263,220 L-238,207 L-211,191 L-194,180 L-178,169 L-160,156 L-142,142 L-129,131 L-119,123 L-108,113 L-100,106 L-90,97 L-75,83 L-47,55 L-40,47 L-27,33 L-18,22 L-6,8 Z M-598,302 Z M-272,336 L-301,338 L-333,343 L-353,349 L-371,357 L-392,368 L-413,382 L-425,391 L-436,400 L-443,406 L-442,408 L-416,418 L-384,427 L-357,432 L-332,435 L-300,435 L-285,432 L-270,426 L-259,419 L-247,408 L-238,395 L-232,383 L-228,372 L-206,367 L-171,363 L-129,359 L-124,358 L-127,356 L-156,348 L-193,341 L-228,337 L-246,336 Z " fill="#FE0000" transform="translate(1582,0)"/>
<path d="M0,0 L42,0 L84,3 L125,7 L165,12 L186,15 L188,16 L188,18 L162,28 L129,42 L100,56 L74,70 L51,84 L30,98 L16,108 L2,119 L-11,130 L-19,137 L-31,148 L-44,161 L-51,169 L-62,182 L-74,199 L-82,212 L-90,228 L-96,243 L-101,261 L-103,273 L-104,294 L-102,311 L-98,326 L-93,339 L-94,341 L-99,338 L-115,323 L-125,314 L-138,301 L-145,293 L-157,279 L-165,265 L-171,247 L-175,226 L-177,205 L-177,182 L-184,181 L-196,176 L-208,168 L-218,160 L-234,144 L-243,133 L-253,119 L-265,97 L-272,81 L-277,66 L-281,47 L-281,43 L-277,44 L-265,52 L-244,65 L-223,76 L-198,86 L-176,92 L-162,94 L-147,94 L-130,91 L-118,86 L-109,79 L-105,73 L-103,67 L-103,53 L-104,46 L-90,34 L-77,23 L-66,14 L-54,4 L-51,3 L-25,1 Z " fill="#FE0000" transform="translate(1214,749)"/>
<path d="M0,0 L12,0 L8,3 L-1,4 L-1,3 L-9,2 L-9,1 Z " fill="#C90000" transform="translate(2372,2104)"/>
</svg>
