<?xml version="1.0" encoding="UTF-8"?>
<!-- Generator: visioncortex VTracer 0.6.4 -->
<svg version="1.1" xmlns="http://www.w3.org/2000/svg" width="500" height="552">
<path d="M0,0 L18,0 L24,2 L24,4 L10,5 L10,7 L8,7 L8,9 L0,13 L-8,11 L-12,7 L-11,4 Z M25,-89 L27,-89 L35,-64 L44,-36 L44,-33 L48,-32 L49,-31 L49,-25 L62,-24 L82,-19 L86,-21 L91,-25 L94,-26 L101,-26 L107,-23 L111,-18 L113,-10 L113,-6 L124,0 L136,8 L143,13 L151,10 L173,-2 L190,-11 L202,-17 L204,-17 L202,-11 L190,12 L180,31 L174,42 L176,47 L184,57 L194,75 L202,75 L208,78 L212,82 L214,87 L214,94 L210,101 L207,104 L209,114 L213,133 L214,140 L245,150 L273,159 L276,160 L276,162 L251,170 L216,181 L214,182 L210,205 L206,219 L212,226 L214,233 L211,242 L205,247 L202,248 L193,248 L191,253 L184,265 L176,276 L174,280 L189,309 L199,328 L204,338 L201,338 L185,330 L158,316 L144,309 L127,321 L113,329 L113,336 L109,344 L101,349 L94,349 L88,346 L84,342 L77,343 L54,348 L47,349 L37,380 L28,409 L27,411 L25,411 L17,386 L6,351 L5,349 L-17,345 L-28,342 L-33,343 L-38,347 L-40,348 L-50,348 L-56,344 L-59,341 L-61,333 L-61,329 L-75,321 L-89,311 L-93,309 L-107,317 L-123,325 L-139,333 L-151,339 L-150,334 L-141,317 L-133,301 L-122,280 L-126,273 L-130,268 L-138,255 L-141,250 L-141,248 L-151,248 L-159,241 L-161,232 L-159,225 L-154,219 L-159,201 L-162,182 L-193,172 L-221,163 L-224,162 L-224,160 L-199,152 L-164,141 L-162,140 L-158,118 L-155,107 L-156,102 L-160,97 L-161,94 L-161,87 L-158,81 L-152,76 L-143,75 L-140,71 L-131,56 L-122,44 L-124,38 L-142,3 L-151,-14 L-150,-17 L-117,0 L-98,10 L-93,13 L-88,11 L-85,8 L-85,1 L-83,-1 L-77,-1 L-73,1 L-63,-5 L-61,-6 L-60,-16 L-56,-22 L-48,-26 L-39,-25 L-34,-22 L-34,-20 L-32,-20 L-32,-18 L-19,-22 L3,-26 L6,-26 L8,-36 L24,-87 Z M36,-38 L30,-30 L19,-19 L6,-11 L-7,-7 L-19,-7 L-31,-11 L-39,-16 L-36,-7 L-35,-5 L-32,-5 L-33,-3 L-44,-5 L-52,-9 L-50,-3 L-45,4 L-42,4 L-42,7 L-53,9 L-71,9 L-78,7 L-78,12 L-74,16 L-75,20 L-78,22 L-86,23 L-82,28 L-75,32 L-64,34 L-58,41 L-55,43 L-52,43 L-53,31 L-51,29 L-44,30 L-27,37 L-24,27 L-22,24 L-10,23 L17,23 L34,26 L52,32 L62,37 L64,37 L62,28 L54,12 L51,7 L61,8 L54,-3 L51,-6 L40,-7 L44,-18 L44,-25 L32,-20 L32,-23 L36,-24 L38,-33 L37,-38 Z M51,-13 Z M52,-12 L58,-4 L65,5 L72,17 L72,19 L64,15 L61,15 L64,25 L69,40 L88,50 L102,59 L115,69 L122,76 L135,93 L144,109 L151,127 L155,146 L156,163 L155,180 L150,203 L144,218 L134,235 L124,248 L115,258 L104,268 L89,278 L72,286 L52,292 L40,294 L18,295 L1,294 L-16,291 L-32,286 L-55,275 L-72,263 L-85,251 L-94,241 L-104,226 L-112,211 L-118,194 L-118,171 L-114,152 L-113,147 L-120,153 L-123,154 L-123,144 L-119,126 L-112,110 L-104,97 L-96,87 L-86,76 L-76,68 L-58,57 L-40,49 L-19,44 L-19,43 L-32,39 L-43,34 L-48,34 L-47,43 L-44,48 L-53,47 L-61,43 L-66,39 L-71,40 L-90,52 L-103,62 L-110,69 L-119,80 L-129,95 L-137,111 L-142,125 L-146,144 L-147,153 L-147,175 L-144,196 L-139,215 L-133,231 L-123,250 L-114,263 L-105,274 L-91,288 L-78,298 L-57,310 L-37,318 L-18,323 L-1,326 L12,327 L32,327 L52,324 L75,318 L94,311 L110,303 L124,295 L140,283 L148,276 L155,268 L163,260 L173,247 L182,231 L188,218 L194,200 L198,179 L199,169 L199,153 L195,127 L189,104 L181,85 L172,68 L161,53 L150,41 L139,30 L126,20 L112,11 L91,0 L70,-8 L56,-12 Z M-53,-10 Z M-79,6 Z M61,8 Z M60,14 Z M-18,26 L-21,28 L-21,33 L-18,38 L-17,42 L-19,43 L8,43 L27,46 L44,51 L63,60 L75,68 L85,77 L88,78 L90,82 L97,90 L105,103 L111,119 L114,132 L115,135 L107,131 L102,131 L107,136 L113,143 L117,153 L116,167 L112,185 L105,201 L99,211 L92,220 L82,230 L68,240 L54,247 L40,251 L21,253 L1,251 L-10,248 L-14,248 L-14,246 L21,246 L21,230 L24,223 L29,218 L38,215 L35,213 L32,212 L17,212 L4,216 L-6,221 L-14,225 L-33,230 L-45,230 L-54,226 L-63,219 L-70,209 L-71,213 L-65,231 L-57,247 L-48,260 L-39,269 L-24,280 L-9,287 L0,290 L10,292 L30,292 L38,290 L35,288 L31,285 L29,285 L27,281 L21,271 L19,267 L7,266 L-6,261 L-16,255 L3,259 L15,261 L28,261 L44,259 L59,255 L74,249 L84,243 L93,236 L103,226 L111,216 L121,209 L124,207 L121,206 L123,196 L129,182 L132,168 L133,158 L133,145 L131,133 L129,126 L129,107 L123,109 L120,99 L111,85 L101,72 L92,62 L82,53 L64,42 L48,35 L30,30 L21,28 L-1,26 Z M64,37 Z M-52,43 Z M-7,45 L-18,53 L-19,58 L-25,59 L-37,55 L-35,61 L-30,67 L-28,68 L-25,78 L-21,85 L-19,81 L-16,72 L-9,63 L1,55 L12,49 L12,47 L2,45 Z M-38,54 Z M126,206 Z M-72,207 L-71,209 Z " fill="#FF0100" transform="translate(224,115)"/>
</svg>
