<?xml version="1.0" encoding="UTF-8"?>
<!-- Generator: visioncortex VTracer 0.6.4 -->
<svg version="1.1" xmlns="http://www.w3.org/2000/svg" width="500" height="541">
<path d="M0,0 L7,1 L18,8 L28,17 L33,21 L38,23 L38,32 L42,33 L46,30 L41,24 L37,21 L38,17 L44,9 L49,5 L55,5 L62,12 L67,11 L71,2 L75,3 L82,11 L91,15 L90,19 L79,26 L78,31 L89,34 L90,35 L89,42 L84,47 L82,47 L80,51 L75,56 L84,54 L85,55 L87,66 L89,69 L93,70 L91,79 L92,86 L97,89 L96,93 L92,99 L89,109 L82,116 L79,125 L44,125 L31,127 L12,137 L2,145 L-7,157 L-12,159 L-28,160 L-28,167 L-31,174 L-38,181 L-43,186 L-50,190 L-59,191 L-63,194 L-62,203 L-63,204 L-69,204 L-74,200 L-79,204 L-87,220 L-88,229 L-87,236 L-99,238 L-110,243 L-121,250 L-131,259 L-136,264 L-143,271 L-158,291 L-164,299 L-181,316 L-185,321 L-193,328 L-204,339 L-204,351 L-208,359 L-208,365 L-205,369 L-206,374 L-211,380 L-215,379 L-221,377 L-228,383 L-231,384 L-239,384 L-244,383 L-253,393 L-260,401 L-272,414 L-279,422 L-294,438 L-306,451 L-316,462 L-316,469 L-320,477 L-328,484 L-333,492 L-334,499 L-331,507 L-329,512 L-341,517 L-348,523 L-353,530 L-361,535 L-364,536 L-372,536 L-378,532 L-378,530 L-383,531 L-392,537 L-399,541 L-403,541 L-403,533 L-398,525 L-396,524 L-396,517 L-398,514 L-398,503 L-394,495 L-386,486 L-383,477 L-383,469 L-365,466 L-355,461 L-349,454 L-343,447 L-330,443 L-321,434 L-314,426 L-303,414 L-296,406 L-287,396 L-280,388 L-271,378 L-264,370 L-263,366 L-264,362 L-264,354 L-259,347 L-260,340 L-265,334 L-265,327 L-260,327 L-254,332 L-249,333 L-243,330 L-238,325 L-229,322 L-220,321 L-211,310 L-199,296 L-186,281 L-173,266 L-164,256 L-155,245 L-144,233 L-138,226 L-136,216 L-129,207 L-131,201 L-135,196 L-135,191 L-121,192 L-113,188 L-103,187 L-100,183 L-100,167 L-97,164 L-89,164 L-88,154 L-84,141 L-79,134 L-77,133 L-67,133 L-63,135 L-58,110 L-54,100 L-45,88 L-37,79 L-33,69 L-34,59 L-39,49 L-45,42 L-45,39 L-40,36 L-36,31 L-34,26 L-33,13 L-26,12 L-21,6 L-7,5 L-1,1 Z M-2,28 L-9,34 L-14,43 L-16,52 L-16,58 L-7,57 L-5,57 L-4,65 L0,66 L12,60 L14,54 L14,42 L10,34 L1,28 Z M65,46 L61,50 L62,57 L68,59 L73,58 L70,56 L68,46 Z M40,49 L38,51 L39,56 L42,57 L45,55 L44,50 Z M45,73 L33,78 L30,86 L30,94 L31,95 L39,96 L40,97 L40,105 L46,104 L56,99 L62,94 L67,86 L65,81 L57,74 L54,73 Z M-72,147 L-77,152 L-76,156 L-72,154 L-69,150 L-70,147 Z M-48,164 L-56,172 L-55,174 L-51,173 L-46,169 L-47,164 Z " fill="#FD0000" transform="translate(403,0)"/>
<path d="M0,0 L8,0 L8,1 L1,2 L-5,9 L-7,11 L-6,6 L-2,1 Z " fill="#E90000" transform="translate(326,133)"/>
</svg>
