<?xml version="1.0" encoding="UTF-8"?>
<!-- Generator: visioncortex VTracer 0.6.4 -->
<svg version="1.1" xmlns="http://www.w3.org/2000/svg" width="500" height="552">
<path d="M0,0 L4,0 L10,21 L20,52 L49,58 L62,62 L64,58 L69,55 L77,54 L77,47 L81,42 L92,39 L105,31 L109,29 L124,40 L131,46 L139,38 L149,34 L154,38 L156,34 L163,32 L172,42 L182,46 L181,51 L176,57 L178,61 L178,69 L174,79 L177,89 L180,98 L188,103 L198,108 L199,111 L180,112 L176,121 L171,128 L171,132 L164,138 L160,138 L163,142 L163,144 L165,144 L169,152 L176,152 L183,155 L188,161 L189,163 L189,173 L185,179 L183,181 L184,189 L188,205 L191,223 L234,237 L252,243 L252,246 L237,251 L212,259 L193,265 L190,265 L189,278 L184,298 L183,305 L187,310 L188,313 L188,322 L185,328 L180,332 L174,334 L169,335 L160,350 L152,360 L154,366 L162,382 L170,397 L174,406 L181,419 L181,422 L177,421 L152,409 L122,394 L119,394 L102,406 L92,412 L90,412 L90,420 L83,428 L78,430 L71,430 L65,427 L61,425 L38,431 L27,433 L22,433 L21,440 L9,476 L4,494 L0,494 L-8,468 L-19,434 L-42,430 L-62,424 L-64,428 L-69,431 L-80,431 L-87,426 L-90,420 L-91,412 L-108,401 L-117,394 L-123,396 L-132,401 L-134,405 L-131,412 L-132,419 L-135,423 L-144,425 L-152,433 L-158,437 L-161,438 L-171,438 L-177,437 L-186,444 L-193,445 L-197,441 L-197,433 L-194,425 L-191,422 L-193,416 L-193,408 L-186,397 L-182,391 L-181,384 L-179,384 L-178,378 L-164,375 L-155,370 L-149,362 L-154,356 L-154,354 L-156,354 L-163,343 L-168,334 L-177,333 L-183,329 L-186,325 L-187,322 L-187,313 L-184,307 L-181,303 L-186,285 L-189,269 L-189,264 L-196,263 L-229,252 L-246,247 L-248,246 L-248,243 L-199,227 L-190,224 L-187,206 L-183,190 L-181,183 L-188,175 L-189,172 L-189,164 L-185,157 L-179,153 L-170,152 L-167,153 L-165,148 L-160,138 L-158,138 L-156,134 L-152,128 L-148,123 L-150,117 L-171,75 L-175,67 L-174,64 L-153,75 L-135,83 L-118,92 L-109,86 L-97,78 L-91,75 L-89,64 L-83,57 L-77,55 L-68,56 L-63,59 L-62,61 L-55,60 L-30,54 L-16,53 L-13,41 L-3,11 Z M108,37 L94,46 L84,48 L83,50 L84,55 L80,63 L76,69 L81,74 L83,88 L80,97 L77,101 L77,103 L73,105 L67,112 L64,122 L61,135 L60,137 L50,137 L45,143 L42,155 L42,160 L35,161 L34,162 L33,174 L31,176 L23,178 L16,181 L12,180 L8,179 L9,183 L12,185 L11,192 L6,200 L6,205 L-4,216 L-13,227 L-25,241 L-36,253 L-47,265 L-54,273 L-56,276 L-65,277 L-74,283 L-78,285 L-83,284 L-87,282 L-87,285 L-84,288 L-84,294 L-87,299 L-87,307 L-85,307 L-88,312 L-98,323 L-107,334 L-119,347 L-128,358 L-137,366 L-147,370 L-151,375 L-161,381 L-167,383 L-174,384 L-176,395 L-186,409 L-186,416 L-185,419 L-185,428 L-189,430 L-190,432 L-190,438 L-183,434 L-178,430 L-171,431 L-161,431 L-152,424 L-144,417 L-138,415 L-139,410 L-140,408 L-140,400 L-135,393 L-130,389 L-128,379 L-118,369 L-109,358 L-98,344 L-89,333 L-78,322 L-74,319 L-64,319 L-57,316 L-51,316 L-48,317 L-46,311 L-48,309 L-47,300 L-45,291 L-44,286 L-36,278 L-29,270 L-20,260 L-15,256 L-7,245 L7,230 L17,221 L30,213 L34,211 L40,211 L40,201 L45,191 L46,185 L52,185 L58,187 L60,185 L59,180 L62,177 L73,173 L80,168 L84,159 L84,156 L99,154 L106,145 L113,139 L127,132 L141,129 L159,129 L163,131 L166,124 L171,117 L175,107 L177,106 L177,104 L173,100 L168,83 L167,82 L154,81 L152,80 L152,72 L157,71 L160,77 L165,75 L172,66 L172,64 L163,60 L161,60 L162,57 L173,51 L168,47 L162,40 L159,40 L157,47 L151,47 L148,42 L144,43 L139,47 L134,54 L141,57 L141,62 L135,65 L133,59 L126,50 L115,41 Z M102,58 L110,58 L115,62 L118,68 L118,78 L115,85 L112,87 L104,88 L103,86 L103,78 L99,80 L93,79 L93,68 L96,63 Z M103,65 L100,69 L100,71 L107,74 L109,78 L111,78 L112,70 L109,65 Z M134,73 L139,73 L141,75 L140,79 L134,80 L133,75 Z M137,90 L145,90 L153,94 L157,98 L157,104 L148,114 L139,117 L136,117 L135,109 L129,109 L126,106 L128,97 L135,91 Z M54,145 L59,146 L57,150 L54,154 L50,153 L51,147 Z M69,157 L74,158 L73,166 L71,168 L66,169 L62,167 L66,160 Z " fill="#FF0100" transform="translate(248,29)"/>
</svg>
