<?xml version="1.0" encoding="UTF-8"?>
<!-- Generator: visioncortex VTracer 0.6.4 -->
<svg version="1.1" xmlns="http://www.w3.org/2000/svg" width="500" height="552">
<path d="M0,0 L28,0 L38,3 L46,8 L53,15 L55,19 L55,28 L52,36 L43,45 L33,50 L30,51 L39,56 L48,64 L55,75 L57,81 L57,98 L53,112 L47,123 L42,128 L34,136 L18,144 L0,149 L-21,152 L-32,156 L-36,161 L-36,167 L-34,171 L-28,175 L-24,190 L-16,208 L-10,218 L-11,220 L-28,219 L-43,215 L-53,210 L-54,210 L-47,225 L-43,239 L-40,251 L-37,266 L-34,276 L-28,285 L-21,291 L-9,297 L6,301 L11,302 L28,302 L44,299 L61,293 L73,286 L79,281 L81,281 L82,278 L84,278 L86,274 L92,267 L96,258 L95,248 L90,238 L80,229 L66,223 L61,221 L42,218 L30,218 L33,208 L39,196 L41,194 L26,192 L16,187 L9,179 L6,170 L12,168 L24,166 L39,165 L60,165 L75,167 L90,172 L102,177 L113,184 L122,191 L130,199 L139,212 L146,226 L150,237 L151,243 L151,268 L148,279 L140,296 L131,309 L129,309 L127,313 L119,320 L107,329 L86,341 L66,350 L47,355 L29,357 L13,356 L-10,351 L-23,345 L-35,339 L-46,331 L-59,320 L-68,310 L-76,295 L-80,284 L-82,274 L-90,288 L-98,298 L-106,308 L-113,319 L-117,322 L-122,323 L-120,335 L-117,345 L-117,351 L-119,351 L-122,342 L-124,340 L-124,347 L-125,352 L-128,352 L-128,340 L-129,334 L-129,324 L-129,321 L-134,316 L-137,301 L-144,278 L-144,262 L-141,255 L-132,250 L-129,248 L-128,242 L-130,237 L-140,225 L-145,215 L-146,212 L-146,198 L-143,191 L-141,191 L-139,186 L-131,179 L-123,175 L-109,172 L-96,173 L-88,176 L-78,182 L-76,183 L-77,179 L-77,160 L-72,145 L-68,139 L-62,132 L-52,124 L-41,117 L-33,114 L-9,111 L6,109 L15,104 L17,100 L17,93 L16,89 L11,87 L5,85 L-2,84 L-1,68 L3,44 L6,34 L14,31 L24,27 L30,23 L30,17 L28,14 L18,11 L1,11 L-20,16 L-36,23 L-44,29 L-41,30 L-30,31 L-26,32 L-28,45 L-32,69 L-35,96 L-38,101 L-54,113 L-67,120 L-82,124 L-102,124 L-121,117 L-126,115 L-129,117 L-141,119 L-140,116 L-130,112 L-132,108 L-138,100 L-141,93 L-142,88 L-142,70 L-137,58 L-130,47 L-119,37 L-109,32 L-98,29 L-91,28 L-68,27 L-55,27 L-44,18 L-34,12 L-19,5 Z M-70,60 L-77,71 L-84,78 L-88,83 L-93,86 L-92,88 L-81,86 L-68,79 L-55,69 L-47,64 L-43,63 L-43,61 Z M-82,61 L-96,66 L-102,71 L-103,73 L-103,81 L-98,86 L-91,80 L-81,68 L-77,61 Z M-75,185 Z M-74,186 Z M-73,187 Z M-111,207 L-113,209 L-113,216 L-107,227 L-95,241 L-92,246 L-90,251 L-85,255 L-83,257 L-86,236 L-89,224 L-95,213 L-101,208 L-104,207 Z M-57,207 Z M-129,281 L-134,288 L-132,295 L-130,298 L-128,297 L-127,281 Z M-106,286 L-113,300 L-113,302 L-107,301 L-104,298 L-104,286 Z M2,13 L7,13 L3,31 L-3,65 L-5,85 L-7,107 L-31,109 L-32,104 L-32,90 L-30,74 L-27,54 L-22,31 L-18,20 L-11,17 Z M-11,155 L-3,155 L3,174 L8,184 L13,190 L13,192 L18,194 L29,197 L32,197 L32,200 L30,200 L29,207 L25,220 L19,244 L12,278 L9,293 L7,297 L-9,292 L-8,283 L-2,260 L0,246 L0,214 L-3,209 L-6,208 L-11,209 L-18,195 L-24,178 L-26,169 L-28,159 Z M-37,343 L-31,345 L-18,352 L-1,357 L7,359 L7,361 L-2,367 L-8,374 L-16,390 L-23,410 L-32,432 L-39,446 L-46,460 L-51,459 L-63,448 L-71,438 L-73,434 L-72,431 L-65,431 L-53,425 L-48,419 L-41,405 L-37,391 L-34,374 L-34,365 L-37,353 L-41,347 L-41,345 Z " fill="#FF0100" transform="translate(247,92)"/>
<path d="M0,0 L2,0 L6,11 L10,37 L10,51 L1,51 L-9,55 L-16,62 L-23,74 L-24,78 L-26,78 L-27,83 L-29,83 L-30,87 L-32,88 L-48,90 L-53,90 L-51,81 L-45,67 L-43,62 L-37,50 L-30,38 L-20,24 L-12,14 L-11,12 L-9,12 L-7,8 Z " fill="#FF0100" transform="translate(289,0)"/>
</svg>
