<?xml version="1.0" encoding="UTF-8"?>
<!-- Generator: visioncortex VTracer 0.6.4 -->
<svg version="1.1" xmlns="http://www.w3.org/2000/svg" width="500" height="552">
<path d="M0,0 L44,0 L54,4 L64,6 L78,11 L95,23 L105,36 L112,47 L120,60 L129,75 L132,84 L132,113 L129,138 L123,155 L116,167 L105,179 L95,187 L81,195 L72,201 L78,203 L92,205 L131,205 L131,202 L125,198 L120,196 L118,192 L121,187 L128,188 L139,195 L145,199 L152,202 L172,213 L190,220 L195,225 L195,228 L184,231 L166,234 L148,237 L127,245 L112,250 L102,250 L101,242 L105,239 L128,233 L132,231 L133,229 L110,228 L88,228 L63,227 L41,228 L38,231 L39,239 L38,252 L35,374 L34,383 L32,416 L32,464 L31,476 L31,486 L33,493 L37,488 L41,479 L45,478 L49,482 L49,487 L41,500 L27,525 L19,542 L14,552 L12,552 L3,532 L-8,507 L-16,492 L-21,483 L-20,479 L-15,479 L-10,485 L-5,495 L-3,496 L-1,483 L0,467 L0,434 L2,391 L3,341 L3,297 L2,275 L-1,266 L-7,264 L-12,263 L-48,262 L-58,261 L-73,261 L-99,262 L-98,249 L-95,244 L-92,236 L0,236 L2,234 L3,228 L2,223 L3,217 L-1,213 L-12,209 L-12,207 L-21,204 L-35,197 L-46,189 L-56,178 L-65,167 L-73,153 L-79,138 L-83,121 L-83,90 L-80,75 L-76,63 L-64,43 L-53,30 L-45,22 L-28,11 L-20,7 L-13,3 L-9,1 Z M25,31 L22,33 L33,33 L32,35 L17,37 L3,39 L-5,40 L-24,48 L-32,54 L-37,58 L-44,67 L-50,76 L-52,85 L-52,98 L-49,128 L-46,139 L-40,150 L-29,164 L-22,172 L-8,179 L1,182 L8,182 L9,180 L9,145 L12,132 L13,128 L18,129 L25,143 L36,160 L39,167 L39,181 L41,185 L45,186 L61,178 L72,172 L81,165 L91,155 L97,143 L100,132 L102,120 L103,97 L101,83 L97,73 L89,61 L80,51 L72,40 L65,36 L47,32 L37,31 Z " fill="#FF0100" transform="translate(202,0)"/>
</svg>
