<?xml version="1.0" encoding="UTF-8"?>
<!-- Generator: visioncortex VTracer -->
<svg id="svg" version="1.1" xmlns="http://www.w3.org/2000/svg" style="display: block;" viewBox="0 0 500 552"><path d="M0 0 C22.19804167 17.19141814 36.38962526 40.4890051 40.875 68.2265625 C41.00519531 68.98582031 41.13539063 69.74507813 41.26953125 70.52734375 C45.97086137 103.812761 34.53312555 140.43861748 14.875 167.2265625 C6.16583664 178.45622143 -3.38412711 188.37391175 -15.44140625 195.984375 C-16.08630005 196.39502197 -16.73119385 196.80566895 -17.39562988 197.22875977 C-18.97027801 198.23087488 -20.54738712 199.22912126 -22.125 200.2265625 C-16.91468727 200.32636957 -11.70494615 200.39846811 -6.49389648 200.44628906 C-4.72589407 200.46625012 -2.95795634 200.49342902 -1.19018555 200.52832031 C11.473256 200.77177918 22.6876 200.76849355 32.53515625 191.69140625 C34.09704766 190.05844175 34.09704766 190.05844175 35.875 187.2265625 C36.535 187.2265625 37.195 187.2265625 37.875 187.2265625 C38.08253906 187.7834375 38.29007813 188.3403125 38.50390625 188.9140625 C43.54801947 201.40826763 53.58430454 209.23775725 65.8046875 214.484375 C66.48789062 214.72929687 67.17109375 214.97421875 67.875 215.2265625 C66.875 218.2265625 66.875 218.2265625 64.90625 219.3671875 C64.0709375 219.73328125 63.235625 220.099375 62.375 220.4765625 C51.50662088 225.6704384 41.97170825 233.65938628 37.875 245.2265625 C34.73785157 243.83150313 32.59262366 242.15981664 30.125 239.7890625 C19.98843678 230.72644742 6.59825331 231.95605676 -6.19238281 231.87646484 C-8.14758165 231.85986226 -10.10271875 231.83251603 -12.05761719 231.79443359 C-14.89289456 231.73959725 -17.72676351 231.71778849 -20.5625 231.703125 C-21.43140869 231.68045563 -22.30031738 231.65778625 -23.19555664 231.63442993 C-27.47036825 231.64926866 -30.25353169 231.88010192 -33.64282227 234.62548828 C-37.57636103 238.74744382 -38.99085095 242.88401535 -39.21875 248.5625 C-38.84589274 254.02485881 -37.27126558 257.76935292 -34.125 262.2265625 C-32.49143049 263.60024595 -30.8324998 264.94593765 -29.125 266.2265625 C-29.125 266.8865625 -29.125 267.5465625 -29.125 268.2265625 C-30.78350448 269.65333074 -32.53024679 270.91883795 -34.30078125 272.203125 C-39.533692 278.00750994 -39.53724992 285.15906429 -39.359375 292.53125 C-39.34686707 293.52865204 -39.33435913 294.52605408 -39.32147217 295.55368042 C-39.2743884 298.77860671 -39.20220226 302.00222593 -39.125 305.2265625 C-39.10300537 306.2834729 -39.08101074 307.3403833 -39.05834961 308.42932129 C-38.88921785 316.40549018 -38.64623171 324.37826729 -38.375 332.3515625 C-38.33276306 333.6060318 -38.29052612 334.8605011 -38.24700928 336.15298462 C-35.94427398 402.94749225 -30.68005835 469.51894841 -18.125 535.2265625 C-20.93348639 534.10963939 -23.72581226 532.97125198 -26.5078125 531.7890625 C-44.55004882 524.18802431 -62.7308697 522.54752139 -81.4921875 529.46875 C-84.39690108 530.66898617 -87.26088703 531.93322982 -90.125 533.2265625 C-91.78983997 533.89777788 -93.4562608 534.56510072 -95.125 535.2265625 C-95.00495605 534.59830566 -94.88491211 533.97004883 -94.76123047 533.32275391 C-84.06709651 476.7736222 -78.97191268 419.66610804 -76.125 362.2265625 C-76.07926849 361.31039154 -76.03353699 360.39422058 -75.98641968 359.45028687 C-75.25104325 344.45002612 -74.80976891 329.44742611 -74.51245117 314.43237305 C-74.46192911 311.97654007 -74.40648575 309.52080402 -74.34643555 307.06518555 C-74.25821266 303.45375426 -74.18412882 299.84227775 -74.11328125 296.23046875 C-74.08422195 295.14085342 -74.05516266 294.0512381 -74.02522278 292.92860413 C-73.84045591 281.77376516 -73.84045591 281.77376516 -79.125 272.2890625 C-79.640625 271.72316406 -80.15625 271.15726562 -80.6875 270.57421875 C-82.10314851 269.11853967 -82.10314851 269.11853967 -84.125 268.2265625 C-82.81136625 265.30877985 -81.38300273 263.34827521 -79.125 261.1015625 C-75.46678597 256.88607753 -74.24894523 252.77930872 -74.125 247.2265625 C-74.90467314 241.19942633 -76.41379777 237.20883091 -81.25823975 233.29792786 C-84.79569502 231.26772231 -88.49409742 231.55600435 -92.4765625 231.6328125 C-93.81948868 231.63275208 -93.81948868 231.63275208 -95.18954468 231.63269043 C-97.08069895 231.63803703 -98.9718533 231.65558299 -100.86279297 231.68457031 C-103.72043863 231.72613255 -106.57569896 231.7256567 -109.43359375 231.71875 C-124.42473841 231.76993248 -136.46632366 232.56788616 -147.5 243.6015625 C-149.125 245.2265625 -149.125 245.2265625 -151.125 245.2265625 C-151.393125 244.5975 -151.66125 243.9684375 -151.9375 243.3203125 C-157.90554839 230.28483838 -168.47108567 223.30781259 -181.125 217.2265625 C-181.125 216.5665625 -181.125 215.9065625 -181.125 215.2265625 C-180.37476563 214.88625 -179.62453125 214.5459375 -178.8515625 214.1953125 C-167.45298422 208.79749709 -156.53868284 201.915937 -151.75 189.7265625 C-151.54375 188.9015625 -151.3375 188.0765625 -151.125 187.2265625 C-148.125 188.2265625 -148.125 188.2265625 -146.0625 190.9765625 C-142.00591407 196.10913312 -135.42421363 198.88689061 -129.125 200.2265625 C-126.21540622 200.31034756 -123.33078759 200.34274145 -120.421875 200.32421875 C-119.58408508 200.3228038 -118.74629517 200.32138885 -117.88311768 200.31993103 C-115.21370843 200.31434447 -112.5443838 200.30179444 -109.875 200.2890625 C-108.06250121 200.28404576 -106.25000111 200.27948316 -104.4375 200.27539062 C-99.99996752 200.26437944 -95.56249809 200.24712405 -91.125 200.2265625 C-91.84220215 199.7828833 -92.5594043 199.3392041 -93.29833984 198.88208008 C-123.39245572 180.04109504 -143.20027263 150.44388831 -151.41015625 116.05078125 C-158.36595544 84.89142684 -155.7347575 53.81773036 -138.28515625 26.328125 C-122.74140652 4.14093214 -101.11792114 -11.16938487 -74.30053711 -16.31542969 C-47.9358417 -20.1180105 -21.85945157 -15.38477706 0 0 Z M-103.56640625 43.9453125 C-118.32151953 62.52027744 -124.19822977 86.833235 -121.92285156 110.3125 C-119.41815804 130.65250175 -110.96566831 150.99686655 -97.125 166.2265625 C-96.30257812 167.14179688 -95.48015625 168.05703125 -94.6328125 169 C-88.17991947 175.82697378 -81.49214216 180.92592537 -73.125 185.2265625 C-72.465 185.2265625 -71.805 185.2265625 -71.125 185.2265625 C-71.07506325 180.70997536 -71.03902998 176.19354024 -71.01513672 171.67675781 C-71.00516194 170.14450272 -70.99157724 168.61226625 -70.97412109 167.08007812 C-70.75757259 149.18703092 -70.75757259 149.18703092 -78.125 133.2265625 C-80.03250673 131.38637954 -82.01731154 129.84409085 -84.125 128.2265625 C-84.125 127.5665625 -84.125 126.9065625 -84.125 126.2265625 C-83.25488281 125.77216797 -83.25488281 125.77216797 -82.3671875 125.30859375 C-81.58601563 124.88964844 -80.80484375 124.47070312 -80 124.0390625 C-79.23429687 123.63300781 -78.46859375 123.22695312 -77.6796875 122.80859375 C-71.98665568 119.2830924 -68.12386957 115.34787375 -64.4375 109.7890625 C-63.87192383 108.96825195 -63.87192383 108.96825195 -63.29492188 108.13085938 C-58.93207183 102.1437337 -58.93207183 102.1437337 -57.125 95.2265625 C-56.465 95.2265625 -55.805 95.2265625 -55.125 95.2265625 C-55.021875 95.93296875 -54.91875 96.639375 -54.8125 97.3671875 C-52.32849146 107.69840485 -44.33214964 117.10137413 -35.62109375 122.890625 C-31.61410067 125.3640146 -31.61410067 125.3640146 -27.125 126.2265625 C-27.125 126.8865625 -27.125 127.5465625 -27.125 128.2265625 C-27.71152344 128.48308594 -28.29804688 128.73960937 -28.90234375 129.00390625 C-31.33562334 130.34242384 -32.8296667 131.73173032 -34.6875 133.7890625 C-35.26628906 134.40910156 -35.84507812 135.02914062 -36.44140625 135.66796875 C-40.631334 142.03549237 -41.57585811 148.94362087 -41.63671875 156.41796875 C-41.66364555 157.66404152 -41.66364555 157.66404152 -41.69111633 158.93528748 C-41.74470918 161.5531629 -41.77894879 164.17086154 -41.8125 166.7890625 C-41.84571831 168.57880039 -41.88021206 170.36851509 -41.91601562 172.15820312 C-42.00040521 176.51419417 -42.06745691 180.87013747 -42.125 185.2265625 C-24.53510421 179.6213902 -11.52129497 163.13449756 -3.12890625 147.35351562 C9.16022284 123.44153552 12.547872 97.2607293 4.7734375 71.359375 C-1.38808305 53.19282731 -11.78701992 37.57522648 -29.2421875 28.62890625 C-38.16877262 24.73346262 -46.71159825 22.84408479 -56.4375 22.9140625 C-57.68188843 22.92252197 -57.68188843 22.92252197 -58.95141602 22.93115234 C-76.55411326 23.27707557 -91.80665941 30.84965842 -103.56640625 43.9453125 Z " transform="translate(306.125,16.7734375)" style="fill: #FE0100;"/></svg>