<?xml version="1.0" encoding="UTF-8"?>
<!-- Generator: visioncortex VTracer 0.6.4 -->
<svg version="1.1" xmlns="http://www.w3.org/2000/svg" width="500" height="552">
<path d="M0,0 L49,0 L75,4 L101,11 L123,19 L139,27 L157,37 L174,49 L185,58 L195,67 L205,76 L212,83 L221,94 L230,105 L243,125 L257,152 L266,176 L272,199 L276,224 L276,274 L271,304 L264,328 L258,344 L247,367 L237,383 L227,397 L216,410 L205,422 L190,437 L179,446 L160,460 L139,472 L123,480 L96,490 L70,496 L50,499 L-1,499 L-31,494 L-52,488 L-64,484 L-87,474 L-106,463 L-121,453 L-137,440 L-147,431 L-163,415 L-174,401 L-185,386 L-196,367 L-207,344 L-217,314 L-222,290 L-224,275 L-224,224 L-220,198 L-214,175 L-207,155 L-193,126 L-180,106 L-171,94 L-159,80 L-138,59 L-121,46 L-103,34 L-85,24 L-61,14 L-42,8 L-26,4 Z M9,28 L-16,31 L-40,37 L-57,43 L-69,48 L-88,58 L-103,68 L-116,78 L-129,90 L-141,102 L-152,116 L-161,129 L-171,146 L-181,167 L-189,191 L-194,214 L-196,231 L-196,268 L-193,291 L-187,315 L-181,332 L-173,350 L-164,366 L-156,378 L-145,392 L-133,405 L-122,416 L-108,427 L-94,437 L-73,449 L-52,458 L-33,464 L-10,469 L9,471 L26,471 L26,28 Z " fill="#FF0100" transform="translate(224,26)"/>
</svg>
