<?xml version="1.0" encoding="UTF-8"?>
<!-- Generator: visioncortex VTracer 0.6.4 -->
<svg version="1.1" xmlns="http://www.w3.org/2000/svg" width="500" height="552">
<path d="M0,0 L6,0 L5,2 L3,2 L1,7 L-5,18 L-7,24 L-8,26 L-3,21 L-1,21 L1,17 L5,13 L9,13 L9,16 L7,16 L7,18 L5,18 L3,22 L0,27 L-3,31 L-4,34 L-6,34 L-7,39 L-10,46 L-11,49 L-13,49 L-14,55 L-18,63 L-20,73 L-22,78 L-23,83 L-23,105 L-22,113 L-20,119 L-17,130 L-14,135 L-13,142 L-11,142 L-6,153 L-3,163 L-3,166 L-1,166 L0,172 L-4,170 L-6,166 L-8,165 L-11,158 L-16,153 L-22,146 L-23,148 L-21,148 L-17,160 L-12,169 L-7,178 L-4,187 L-8,187 L-12,179 L-21,168 L-24,165 L-24,163 L-26,162 L-29,157 L-27,168 L-25,168 L-23,175 L-21,176 L-15,185 L-13,190 L-11,191 L-8,195 L-8,197 L-6,197 L-2,204 L1,205 L3,196 L5,188 L7,173 L11,174 L13,176 L16,197 L16,202 L18,202 L19,205 L21,205 L22,202 L24,202 L26,198 L29,195 L30,192 L33,189 L41,177 L43,176 L46,167 L48,167 L50,156 L45,163 L43,167 L40,170 L31,181 L28,186 L23,187 L25,182 L30,173 L31,171 L33,171 L34,166 L39,156 L42,148 L42,147 L37,152 L33,158 L28,163 L26,163 L24,168 L23,171 L19,172 L20,167 L22,162 L24,162 L25,156 L27,151 L29,151 L31,142 L33,142 L34,137 L36,132 L38,132 L39,124 L41,115 L43,115 L44,83 L43,75 L41,75 L37,60 L33,50 L33,47 L31,47 L27,39 L26,35 L24,35 L19,27 L13,18 L10,15 L10,12 L15,14 L20,19 L20,21 L22,21 L28,28 L23,15 L19,8 L16,5 L15,2 L12,0 L19,0 L26,7 L28,8 L31,13 L40,22 L41,27 L43,27 L45,31 L45,35 L47,35 L51,47 L55,56 L59,69 L63,85 L66,104 L65,106 L67,106 L69,97 L71,93 L73,81 L74,61 L75,54 L78,53 L80,63 L82,69 L84,91 L84,116 L81,138 L79,143 L76,158 L74,158 L72,167 L71,170 L69,170 L68,175 L62,187 L60,187 L59,191 L58,194 L56,194 L54,200 L52,204 L50,204 L48,210 L46,211 L43,216 L38,221 L45,224 L52,225 L67,225 L82,223 L90,220 L97,219 L97,217 L107,212 L116,205 L117,202 L120,202 L120,200 L124,200 L124,204 L122,204 L121,220 L129,219 L129,217 L135,213 L140,205 L142,200 L144,200 L145,195 L148,185 L150,178 L153,178 L153,207 L149,220 L144,229 L139,239 L136,242 L134,242 L132,246 L127,250 L122,255 L113,262 L103,273 L100,280 L93,294 L90,293 L91,287 L94,277 L96,270 L98,261 L99,249 L95,252 L93,252 L93,254 L88,257 L83,262 L78,264 L80,258 L82,258 L84,253 L87,247 L73,251 L61,257 L45,261 L37,262 L35,264 L31,264 L33,260 L38,254 L39,248 L30,250 L30,252 L28,252 L27,257 L24,264 L22,264 L29,278 L30,283 L30,294 L28,299 L25,300 L25,292 L22,287 L21,306 L21,362 L23,377 L26,397 L26,403 L28,403 L32,428 L34,443 L33,452 L30,452 L29,450 L29,441 L26,440 L26,438 L22,437 L21,442 L20,450 L20,473 L22,483 L24,487 L26,483 L30,483 L30,498 L35,498 L39,496 L41,487 L42,486 L44,473 L47,474 L47,488 L43,508 L37,519 L29,530 L28,533 L23,538 L20,542 L18,542 L17,546 L15,551 L13,552 L6,552 L1,544 L-5,537 L-8,534 L-11,527 L-16,519 L-18,518 L-22,509 L-24,503 L-26,492 L-26,486 L-27,485 L-27,474 L-23,475 L-22,484 L-18,495 L-15,498 L-10,499 L-10,484 L-6,483 L-6,487 L-4,487 L-2,478 L-1,474 L-1,448 L-3,441 L-3,437 L-5,438 L-6,441 L-8,442 L-9,452 L-13,451 L-13,433 L-11,427 L-9,413 L-7,393 L-5,387 L-3,369 L-2,343 L-3,287 L-5,289 L-5,299 L-9,298 L-10,283 L-8,273 L-6,273 L-4,264 L-6,258 L-8,258 L-10,251 L-19,248 L-17,255 L-11,261 L-11,264 L-15,263 L-16,262 L-25,261 L-37,258 L-43,256 L-55,250 L-67,247 L-63,254 L-61,258 L-59,259 L-60,263 L-68,257 L-68,255 L-73,253 L-79,249 L-78,260 L-73,279 L-70,289 L-71,293 L-73,293 L-81,278 L-85,270 L-91,264 L-91,262 L-95,260 L-101,255 L-104,254 L-109,248 L-114,244 L-114,242 L-116,242 L-117,238 L-119,238 L-123,230 L-126,224 L-126,221 L-128,221 L-131,211 L-132,210 L-132,178 L-130,178 L-124,196 L-124,199 L-122,199 L-119,206 L-119,209 L-116,210 L-115,214 L-110,216 L-109,219 L-101,220 L-101,211 L-103,201 L-99,201 L-96,204 L-91,209 L-85,212 L-84,214 L-76,217 L-76,219 L-63,222 L-56,224 L-47,225 L-32,225 L-20,224 L-20,222 L-16,222 L-16,220 L-21,218 L-25,213 L-25,211 L-27,211 L-30,205 L-32,204 L-37,194 L-43,184 L-48,174 L-53,163 L-54,157 L-56,157 L-59,142 L-61,136 L-63,123 L-63,83 L-61,65 L-58,53 L-54,55 L-53,77 L-51,91 L-48,99 L-46,104 L-45,104 L-42,81 L-41,76 L-39,76 L-38,66 L-36,59 L-33,51 L-31,45 L-29,45 L-28,39 L-27,36 L-25,36 L-24,31 L-22,26 L-20,26 L-19,21 L-17,21 L-15,17 L-9,11 L-8,8 L-3,4 Z M-9,27 L-8,29 Z M-10,30 Z M-32,153 L-30,155 L-30,153 Z M51,153 Z " fill="#FF0100" transform="translate(240,0)"/>
</svg>
